<?xml version="1.0" encoding="UTF-8" standalone="no"?>
<svg
   height="476.77899"
   viewBox="0 0 640.2 126.2"
   width="2419.4851"
   version="1.1"
   id="svg14"
   sodipodi:docname="aliexpress.svg"
   xml:space="preserve"
   inkscape:export-filename="aliexpress.svg"
   inkscape:export-xdpi="96"
   inkscape:export-ydpi="96"
   xmlns:inkscape="http://www.inkscape.org/namespaces/inkscape"
   xmlns:sodipodi="http://sodipodi.sourceforge.net/DTD/sodipodi-0.dtd"
   xmlns="http://www.w3.org/2000/svg"
   xmlns:svg="http://www.w3.org/2000/svg"><defs
     id="defs14" /><sodipodi:namedview
     id="namedview14"
     pagecolor="#ffffff"
     bordercolor="#000000"
     borderopacity="0.25"
     inkscape:showpageshadow="2"
     inkscape:pageopacity="0.0"
     inkscape:pagecheckerboard="0"
     inkscape:deskcolor="#d1d1d1" /><g
     id="g27"><path
       style="fill:#e53225;fill-opacity:1;stroke-width:1.25333"
       d="M 165.6329,46.266919 V 1.879629 h 28.8431 28.8431 v 5.52682 5.52682 H 200.34825 177.3774 v 13.81706 13.81705 h 20.72558 20.72558 v 5.35139 5.351392 l -20.63923,0.08907 -20.63922,0.08907 -0.0902,14.076123 -0.0902,14.076126 h 24.70185 24.70186 v 5.526821 5.526822 h -30.57023 -30.57023 z"
       id="path18" /><path
       style="fill:#e53225;fill-opacity:1;stroke-width:1.25333"
       d="m 236.16614,88.495288 c 1.03277,-1.187405 6.90287,-7.987987 13.04467,-15.112404 6.14179,-7.124418 11.39335,-13.21584 11.67013,-13.536489 0.45603,-0.528322 -0.80645,-2.069305 -13.46065,-16.430046 -7.68013,-8.71588 -14.07776,-16.03132 -14.21695,-16.25654 -0.19232,-0.31118 1.59684,-0.40592 7.45305,-0.39465 l 7.70612,0.0148 9.67194,12.06659 c 5.31957,6.63663 9.82738,12.020989 10.01736,11.965242 0.18999,-0.05575 4.76267,-5.492392 10.16148,-12.081422 l 9.81605,-11.98007 h 7.57101 7.57101 l -1.32473,1.65769 c -0.72862,0.91173 -6.76521,8.15534 -13.41466,16.0969 -6.64946,7.941571 -12.13104,14.546995 -12.18128,14.678724 -0.0809,0.212022 5.31083,6.888264 20.88811,25.86457 l 4.61365,5.620367 -6.99435,-0.09355 -6.99435,-0.09354 -8.76213,-10.362789 C 274.18246,74.419134 269.7343,69.155404 269.1168,68.42149 l -1.12272,-1.334391 -5.65351,6.688501 c -3.10943,3.678672 -7.5914,8.981264 -9.95993,11.783536 l -4.30642,5.095039 h -6.89292 -6.89293 z"
       id="path19" /><path
       style="fill:#e53225;fill-opacity:1;stroke-width:1.25333"
       d="m 309.75597,89.704278 0.099,-35.492556 0.77578,-2.763412 c 0.42669,-1.519871 1.47019,-4.206271 2.31887,-5.969771 6.72299,-13.96967 20.81585,-21.67878 36.86015,-20.16332 11.68995,1.10417 19.68667,4.54951 26.12492,11.25574 5.97719,6.22597 8.46684,12.79687 8.45075,22.304019 -0.007,4.227883 -0.14368,5.520858 -0.87582,8.294196 -3.22769,12.226513 -12.30525,21.143182 -25.16567,24.719653 -4.79023,1.332163 -12.80958,1.557602 -17.91645,0.503666 -4.2299,-0.872944 -8.80806,-2.520191 -11.63122,-4.184995 -2.00828,-1.184276 -5.71895,-4.573928 -6.7751,-6.188956 -0.52589,-0.804201 -0.56597,0.650231 -0.58286,21.157368 l -0.018,22.02093 h -5.8816 -5.88159 z m 40.85275,-7.351128 c 4.39848,-0.496008 6.82672,-1.164992 10.1605,-2.799222 7.00173,-3.432302 10.80937,-9.851998 11.32089,-19.087106 0.53494,-9.658201 -3.53236,-17.134613 -11.36949,-20.899153 -8.37671,-4.02371 -20.06168,-4.1402 -27.38076,-0.27296 -1.14133,0.60304 -3.17959,2.19424 -4.52979,3.53621 -4.0971,4.0722 -6.05408,8.915022 -6.55316,16.216771 -0.28891,4.227073 0.23036,6.999183 1.97133,10.523812 1.72561,3.493499 5.4091,7.380752 8.93896,9.4334 2.72293,1.583414 6.88559,2.946558 10.16974,3.330273 3.47751,0.406304 3.82063,0.407153 7.27178,0.01797 z"
       id="path20" /><path
       style="fill:#e53225;fill-opacity:1;stroke-width:3.54495"
       d="M 395.43988,59.077706 V 26.787509 h 5.8621 5.86208 v 3.46927 3.46927 l 3.17528,-2.39819 c 3.75255,-2.83417 12.27251,-5.51736 17.51933,-5.51736 h 3.73071 v 5.37357 c 0,5.20942 -0.0821,5.37374 -2.68679,5.37902 -7.134,0.0145 -13.93171,3.80425 -18.87112,10.52079 l -2.82604,3.842843 -0.26493,19.92758 -0.26496,19.927577 -5.61782,0.29301 -5.61784,0.29301 z"
       id="path21" /><path
       style="fill:#e53225;fill-opacity:1;stroke-width:3.54495"
       d="m 460.92347,91.721105 c -10.38904,-2.914001 -18.60092,-9.704723 -22.84861,-18.894381 -1.66828,-3.609286 -2.0876,-6.379945 -2.08819,-13.797775 0,-8.189001 0.32134,-9.9375 2.73526,-14.85316 3.42573,-6.97608 10.77559,-13.70619 17.86521,-16.35875 3.9256,-1.46876 7.67974,-2.00654 14.00723,-2.00654 11.86004,0 17.74074,2.01864 24.1322,8.28373 6.44898,6.3215 9.16179,13.28158 9.16179,23.50585 v 7.290949 h -27.84487 c -30.33496,0 -29.00811,-0.274928 -26.80571,5.554223 1.40393,3.715803 5.46554,7.860354 10.19647,10.404714 3.1719,1.705877 5.56443,2.101796 12.70118,2.101796 8.81573,0 11.57018,-0.841922 18.28925,-5.590284 1.41899,-1.0028 2.21413,-0.669594 5.1176,2.144544 3.12284,3.026795 3.30125,3.482448 1.94853,4.977158 -0.81895,0.90494 -4.58625,3.072957 -8.37178,4.81782 -8.43362,3.887301 -19.5599,4.842302 -28.19556,2.420106 z m 30.91928,-40.156709 c -1.37651,-8.482367 -8.95446,-14.596747 -19.41957,-15.668937 -6.725,-0.689 -12.65311,0.97514 -16.96737,4.7631 -3.76806,3.3084 -7.25721,9.303484 -7.25721,12.469388 0,1.947213 0.50741,1.992947 22.11064,1.992947 h 22.11064 z"
       id="path22" /><path
       style="fill:#e53225;fill-opacity:1;stroke-width:3.54495"
       d="m 535.64129,92.601963 c -10.24941,-1.96067 -12.8362,-2.873667 -18.09891,-6.387968 -6.42375,-4.289621 -6.46173,-4.699127 -0.80887,-8.724306 l 2.76003,-1.965321 3.73715,3.00325 c 4.47217,3.593939 8.68126,4.926663 15.55968,4.926663 10.23093,0 16.87306,-5.08195 15.40113,-11.783566 -0.86825,-3.953135 -4.49756,-6.484234 -12.60029,-8.787499 -3.8098,-1.082972 -9.31795,-2.661621 -12.24032,-3.508109 -10.41924,-3.018026 -15.6924,-8.551422 -15.6924,-16.466878 0,-13.69782 17.65631,-21.3635 37.12913,-16.12001 3.62757,0.9768 12.69857,7.19674 12.69857,8.70733 0,0.44134 -1.68594,1.91813 -3.74652,3.28176 l -3.74652,2.47932 -2.84833,-2.2078 c -4.2417,-3.28782 -9.67463,-4.71633 -16.15468,-4.2476 -7.75161,0.56069 -11.11898,3.03124 -11.11898,8.15768 0,4.95099 2.73885,6.53618 17.67486,10.229875 13.36059,3.304095 18.30489,6.135751 20.97241,12.011117 4.74457,10.450236 -0.43788,21.92757 -11.46633,25.394041 -5.00394,1.572834 -14.16348,2.629221 -17.41081,2.008021 z"
       id="path23" /><path
       style="fill:#e53225;fill-opacity:1;stroke-width:3.54495"
       d="m 595.0993,92.244501 c -5.58197,-0.816755 -13.82276,-4.368785 -18.65248,-8.039779 l -3.16006,-2.401913 3.83553,-3.082317 c 2.10955,-1.695276 4.13302,-3.082319 4.4966,-3.082319 0.36361,0 2.13599,1.294986 3.93866,2.877743 3.8814,3.407934 8.74791,4.925448 15.81926,4.932915 9.23963,0.0098 14.86809,-3.915663 14.86809,-10.36937 0,-5.220948 -4.71159,-8.391172 -17.07523,-11.489203 -5.78894,-1.45057 -11.89927,-3.329956 -13.57853,-4.176412 -7.86371,-3.96382 -11.37015,-10.622637 -9.41576,-17.880737 2.50751,-9.31216 10.97046,-14.11867 24.92581,-14.15653 7.57384,-0.0205 9.53823,0.3388 14.16668,2.59157 2.95548,1.43849 6.61816,3.67469 8.1393,4.96934 l 2.76572,2.35391 -3.9899,3.16006 -3.9899,3.16005 -2.95847,-2.48939 c -3.53153,-2.97159 -8.5631,-4.50563 -14.8026,-4.51305 -11.37828,-0.0136 -17.35467,7.32242 -10.59743,13.00826 2.01307,1.6939 6.21393,3.217335 13.73465,4.980865 12.41213,2.910523 17.22652,5.078919 20.85766,9.394251 3.22367,3.831112 3.89167,6.486604 3.3314,13.242863 -0.49392,5.956082 -2.53968,9.418886 -7.59851,12.861863 -5.47007,3.722863 -16.0243,5.46951 -25.06049,4.14733 z"
       id="path24" /><path
       style="fill:#f7971c;fill-opacity:1;stroke-width:3.54495"
       d="m 4.7126719,91.546527 c 0.179119,-0.47572 8.6511451,-20.27784 18.8267241,-44.004718 l 18.501051,-43.13978 6.819518,0.28339 6.819518,0.28338 18.348139,42.98858 C 84.119099,71.601097 92.39945,91.297647 92.4284,91.727477 c 0.0289,0.42983 -2.421441,0.64966 -5.445303,0.48851 l -5.497936,-0.29301 -4.090404,-9.99543 c -2.24972,-5.49748 -4.346509,-10.25153 -4.659524,-10.56455 -0.313018,-0.31302 -11.366139,-0.25579 -24.562492,0.12718 l -23.993371,0.69629 -0.888615,2.54065 c -0.488739,1.39736 -2.308476,5.94799 -4.04386,10.11251 l -3.155244,7.57185 h -5.852325 c -3.2187791,0 -5.7057731,-0.38922 -5.5266541,-0.86495 z M 67.759169,59.925784 C 66.092858,55.900764 49.107278,17.598149 48.839984,17.262879 c -0.178504,-0.2239 -0.57327,-0.15837 -0.877259,0.14562 -0.465716,0.46572 -10.832997,25.55206 -16.35957,39.586245 l -1.635151,4.15231 h 19.148377 c 14.937005,0 19.03718,-0.2686 18.642788,-1.22127 z"
       id="path25" /><path
       style="fill:#f7971c;fill-opacity:1;stroke-width:3.54495"
       d="m 108.5864,47.150409 v -43.9656 h 5.37357 5.37358 V 47.150409 91.116 h -5.37358 -5.37357 z"
       id="path26" /><path
       style="fill:#f7971c;fill-opacity:1;stroke-width:3.54495"
       d="M 137.16692,59.854837 V 29.078919 h 5.86208 5.86208 v 30.775918 30.77592 h -5.86208 -5.86208 z"
       id="path27" /><rect
       style="fill:#f7971c;fill-opacity:1;stroke-width:0.960398"
       id="rect27"
       width="15.774583"
       height="14.897017"
       x="135.36406"
       y="8.0215721"
       rx="5.0465045"
       ry="6.4863076" /></g></svg>
