<?xml version="1.0" encoding="UTF-8" standalone="no"?>
<svg
   height="476.77899"
   viewBox="0 0 640.2 126.2"
   width="2419.4851"
   version="1.1"
   id="svg14"
   sodipodi:docname="aliexpress.svg"
   xml:space="preserve"
   inkscape:export-filename="amazon.svg"
   inkscape:export-xdpi="96"
   inkscape:export-ydpi="96"
   xmlns:inkscape="http://www.inkscape.org/namespaces/inkscape"
   xmlns:sodipodi="http://sodipodi.sourceforge.net/DTD/sodipodi-0.dtd"
   xmlns="http://www.w3.org/2000/svg"
   xmlns:svg="http://www.w3.org/2000/svg"><defs
     id="defs14" /><sodipodi:namedview
     id="namedview14"
     pagecolor="#ffffff"
     bordercolor="#000000"
     borderopacity="0.25"
     inkscape:showpageshadow="2"
     inkscape:pageopacity="0.0"
     inkscape:pagecheckerboard="0"
     inkscape:deskcolor="#d1d1d1" /><g
     id="g133"
     transform="translate(7.3753924,149.14004)"><path
       style="fill:#ffffff;fill-opacity:1;stroke-width:9.47004"
       d="m 54.810342,-289.21301 c -44.501196,-20.89901 -50.7629273,-91.50852 -11.264379,-127.02111 7.05203,-6.34038 19.279105,-13.94392 27.171278,-16.89677 15.312952,-5.72931 56.001599,-13.15405 72.181149,-13.1714 l 9.78756,-0.0105 v -14.61314 c 0,-26.63786 -11.35861,-39.18018 -34.64164,-38.25171 -17.00051,0.67793 -25.156672,7.34836 -35.917514,29.37471 -1.538038,3.14821 -6.672645,3.76725 -26.215035,3.16057 -28.317358,-0.87909 -32.223576,-2.96662 -29.793156,-15.92187 5.823395,-31.04137 33.198666,-55.18365 71.629974,-63.17054 15.926331,-3.30986 53.768051,-1.83899 68.450231,2.66059 18.71743,5.73623 34.19119,18.6034 42.60249,35.42601 l 7.83005,15.6601 1.30501,69.16543 c 1.35319,71.71923 1.57015,73.14696 13.43922,88.44003 2.65699,3.42349 4.83089,8.28074 4.83089,10.7939 0,5.02451 -37.35901,39.09693 -42.86818,39.09693 -3.33288,0 -16.70518,-12.79784 -27.27171,-26.10016 l -5.18308,-6.52504 -9.97131,9.56456 c -17.59466,16.87695 -30.02206,21.56195 -59.56162,22.4541 -21.243974,0.6416 -28.042638,-0.12397 -36.540228,-4.11469 z m 75.586618,-46.34605 c 3.76356,-2.46597 9.96662,-9.81393 13.78458,-16.32879 5.7243,-9.76778 7.13477,-15.88241 8.04234,-34.86495 l 1.10059,-23.01976 h -11.59061 c -18.42138,0 -36.4073,6.58482 -46.539451,17.03855 -8.672421,8.94767 -9.063871,10.17886 -9.063871,28.50768 0,15.48209 1.001176,20.26895 5.220032,24.95825 10.17221,11.3065 25.26336,12.74001 39.04639,3.70902 z"
       id="path122"
       transform="matrix(0.26469287,0,0,0.26469287,-0.11022934,0)" /><path
       style="fill:#ffffff;fill-opacity:1;stroke-width:9.47004"
       d="m 273.35088,-290.15164 c -5.03415,-5.03415 -4.6168,-243.09847 0.43352,-247.28987 2.37159,-1.96824 12.64396,-2.76487 29.36269,-2.2771 l 25.71496,0.75024 1.30501,18.27012 1.30501,18.27011 5.79679,-10.84011 c 23.35887,-43.68157 87.33479,-43.17623 109.93101,0.86833 l 4.79371,9.34392 5.82725,-9.42868 c 14.5163,-23.48787 37.6464,-34.83826 65.79317,-32.286 20.69937,1.87695 37.2825,11.96758 47.91056,29.153 l 7.89906,12.77262 v 107.21913 107.21913 h -30.01519 -30.01519 l -1.30501,-91.79665 -1.305,-91.79664 -6.3275,-6.73147 c -5.07786,-5.40204 -8.77542,-6.73147 -18.72237,-6.73147 -15.25784,0 -27.00911,8.72789 -30.97457,23.0054 -1.54758,5.57204 -2.69476,43.11576 -2.72634,89.2253 -0.03,43.78302 -1.01254,81.11538 -2.18344,82.96079 -1.57197,2.47751 -9.58462,3.16032 -30.62773,2.61002 l -28.4988,-0.74528 -1.30501,-89.20695 c -1.24811,-85.31729 -1.54285,-89.52803 -6.75977,-96.57061 -15.32955,-20.69409 -40.67558,-16.56553 -50.93349,8.29645 -2.21949,5.37936 -3.70348,34.3792 -4.74138,92.65558 l -1.51076,84.82553 -27.4535,0.73468 c -19.12803,0.51188 -28.42823,-0.24005 -30.66769,-2.47952 z"
       id="path123"
       transform="matrix(0.26469287,0,0,0.26469287,-0.11022934,0)" /><path
       style="fill:#ffffff;fill-opacity:1;stroke-width:9.47004"
       d="m 665.94165,-287.02811 c -18.7903,-5.99366 -35.4563,-24.4897 -41.20053,-45.72461 -4.16472,-15.39586 -1.53374,-45.36421 5.20463,-59.28383 15.1377,-31.27032 42.80558,-45.79208 100.18573,-52.58347 l 26.77325,-3.16881 v -17.3232 c 0,-14.74488 -0.94232,-18.32605 -6.33123,-24.0611 -7.94001,-8.45002 -20.65704,-12.08296 -32.7494,-9.35568 -14.25907,3.21594 -22.08844,9.635 -27.68951,22.70176 l -5.10507,11.90965 -23.8135,-1.8629 c -13.09743,-1.02459 -25.40731,-2.47449 -27.3553,-3.22201 -4.65404,-1.78592 -4.48022,-10.16665 0.5149,-24.82653 11.29378,-33.14541 48.83875,-54.17378 96.84891,-54.2436 37.25659,-0.0542 67.7937,13.30327 80.67901,35.29038 8.72365,14.88579 11.37929,38.75851 11.47601,103.16304 l 0.0806,53.65888 9.13506,15.17027 c 5.02428,8.34364 9.13506,16.52845 9.13506,18.18845 0,3.18692 -25.07578,26.1486 -37.11593,33.98676 -6.86255,4.46754 -7.32802,4.44381 -13.87645,-0.70719 -3.72664,-2.93138 -10.3228,-9.79723 -14.65812,-15.25745 -4.33532,-5.46021 -8.33682,-10.386 -8.89221,-10.94619 -0.5554,-0.56019 -5.68596,3.20609 -11.40125,8.36951 -18.44717,16.66591 -29.81138,20.96164 -57.60694,21.77568 -13.63734,0.39941 -28.1443,-0.34213 -32.23771,-1.64781 z m 66.24431,-47.41052 c 15.21191,-8.54957 23.2939,-25.66452 25.25733,-53.48661 l 1.60015,-22.67431 -18.78038,1.57448 c -33.91022,2.84291 -51.03233,18.07781 -51.03233,45.40751 0,15.01936 5.76342,25.66425 17.03028,31.45451 8.91916,4.58373 14.60908,4.08429 25.92495,-2.27558 z"
       id="path124"
       transform="matrix(0.26469287,0,0,0.26469287,-0.11022934,0)" /><path
       style="fill:#ffffff;fill-opacity:1;stroke-width:9.47004"
       d="m 873.12971,-296.14135 c -2.17369,-2.61913 -2.88933,-12.25726 -2.27709,-30.66769 l 0.89282,-26.84817 47.30998,-67.86042 47.30997,-67.86043 -40.60022,-0.72115 c -24.53208,-0.43575 -41.96452,-1.85342 -44.04746,-3.5821 -2.32004,-1.92547 -3.44723,-9.55385 -3.44723,-23.32967 0,-17.56558 0.71604,-20.85193 5.04845,-23.17056 6.83939,-3.66034 152.71477,-3.66034 159.55417,0 4.2484,2.27368 5.0484,5.57875 5.0484,20.85608 v 18.15424 l -21.812,31.99674 c -11.9966,17.59821 -32.02575,46.67809 -44.50917,64.62195 l -22.69712,32.62521 13.84148,1.94075 c 33.85091,4.74635 44.76101,7.30743 59.71221,14.01714 18.6352,8.36298 20.6847,12.08158 20.6847,37.53092 0,24.41262 -3.3948,27.84925 -20.2932,20.54321 -45.27134,-19.5731 -99.40637,-19.97369 -140.75954,-1.04158 -17.05524,7.80815 -15.04504,7.51174 -18.95915,2.79553 z"
       id="path125"
       transform="matrix(0.26469287,0,0,0.26469287,-0.11022934,0)" /><path
       style="fill:#ffffff;fill-opacity:1;stroke-width:9.47004"
       d="m 1148.7308,-286.00141 c -43.963,-14.0256 -69.7076,-55.01707 -73.6363,-117.24611 -3.8316,-60.69116 20.4413,-113.69441 61.2426,-133.73158 13.2003,-6.48258 17.4426,-7.2093 42.0853,-7.2093 24.6487,0 28.8821,0.72563 42.0901,7.21446 38.0887,18.71232 62.2199,66.52725 62.2199,123.28636 0,57.76855 -24.7727,105.10318 -64.5444,123.3288 -18.7704,8.60167 -50.0105,10.56148 -69.4572,4.35737 z m 47.7957,-51.09622 c 3.321,-3.09405 8.5342,-11.02198 11.5847,-17.61761 4.987,-10.78269 5.5464,-16.59824 5.5463,-57.66733 0,-29.97496 -1.1655,-49.52337 -3.3906,-56.87008 -10.9776,-36.24503 -47.9777,-38.88422 -61.6868,-4.40009 -4.3644,10.97823 -5.18,19.43835 -5.2776,54.74512 -0.1326,47.99707 3.1234,65.24097 14.8383,78.58349 6.7683,7.70861 9.3595,8.85206 20.0598,8.85206 8.9751,0 13.9153,-1.51652 18.3259,-5.62556 z"
       id="path126"
       transform="matrix(0.26469287,0,0,0.26469287,-0.11022934,0)" /><path
       style="fill:#ffffff;fill-opacity:1;stroke-width:9.47004"
       d="m 1319.5016,-292.06334 c -1.8088,-3.37978 -2.7484,-45.68248 -2.7484,-123.74309 0,-98.38207 0.6221,-119.12398 3.6477,-121.63508 2.3716,-1.96824 12.644,-2.76487 29.3627,-2.2771 l 25.715,0.75024 1.305,20.79975 c 1.2451,19.84523 1.4628,20.4441 4.7441,13.05008 11.6501,-26.25216 31.8763,-40.3863 57.7562,-40.36031 19.8019,0.0199 32.5091,3.99417 43.4305,13.58329 22.3087,19.58731 24.9206,36.2973 23.9845,153.4432 l -0.7195,90.04556 h -30.0152 -30.0152 l -1.305,-88.74055 c -1.2042,-81.88456 -1.6963,-89.38737 -6.3699,-97.11249 -9.2392,-15.27169 -30.7952,-17.90414 -42.7147,-5.21638 -12.6037,13.41593 -14.1193,23.9507 -15.8481,110.15891 l -1.6227,80.91051 -27.9193,0.7394 c -25.5112,0.67562 -28.1564,0.29646 -30.6677,-4.39594 z"
       id="path127"
       transform="matrix(0.26469287,0,0,0.26469287,-0.11022934,0)" /><path
       style="fill:#ffffff;fill-opacity:1;stroke-width:9.47004"
       d="m 1547.0322,-286.23864 c -1.8245,-0.73412 -5.15,-4.87867 -7.3899,-9.21012 -10.9165,-21.11012 14.7806,-40.39027 33.8455,-25.39381 9.1858,7.22552 9.6006,22.44215 0.8363,30.6758 -5.7683,5.41904 -18.8917,7.3079 -27.2919,3.92813 z"
       id="path128"
       transform="matrix(0.26469287,0,0,0.26469287,-0.11022934,0)" /><path
       style="fill:#ffffff;fill-opacity:1;stroke-width:9.47004"
       d="m 1658.6654,-284.32246 c -43.8403,-13.38394 -70.4705,-62.26987 -70.4705,-129.36512 0,-60.52319 23.862,-110.34916 60.7775,-126.90855 18.9615,-8.50571 50.0114,-8.45619 67.7288,0.10802 24.0977,11.6483 42.4498,36.59358 49.2382,66.92767 3.896,17.4089 1.0374,22.02762 -13.633,22.02762 -10.9625,0 -20.5413,-6.9831 -20.5861,-15.00759 -0.052,-9.29053 -12.6979,-31.45786 -21.9888,-38.54439 -17.459,-13.31661 -44.576,-10.71004 -59.4268,5.71225 -15.345,16.96888 -24.4035,56.07495 -22.225,95.94727 1.949,35.67446 9.3742,58.70395 23.8761,74.0526 10.0972,10.68673 12.4448,11.86896 25.7623,12.97335 21.332,1.76902 35.1235,-6.78596 45.9873,-28.52646 4.4222,-8.84962 8.0404,-18.10782 8.0404,-20.57379 0,-7.61066 6.6416,-10.67402 21.3208,-9.83401 l 13.9144,0.79625 -0.5177,11.33031 c -1.2852,28.12506 -28.9113,66.38471 -54.9759,76.13674 -14.2066,5.31535 -40.0143,6.65789 -52.822,2.74783 z"
       id="path129"
       transform="matrix(0.26469287,0,0,0.26469287,-0.11022934,0)" /><path
       style="fill:#ffffff;fill-opacity:1;stroke-width:9.47004"
       d="m 1859.1661,-285.85246 c -17.1939,-5.50514 -39.1882,-26.35507 -49.1522,-46.59484 -11.4998,-23.35933 -15.6235,-40.86366 -17.2942,-73.41023 -4.4862,-87.39281 41.9476,-147.60171 109.1337,-141.50949 53.5827,4.85871 88.3504,56.92021 88.2454,132.13943 -0.022,15.46157 -1.7861,35.05438 -4.0047,44.46724 -8.772,37.2164 -31.0452,67.85899 -58.5971,80.6155 -17.893,8.28447 -49.635,10.27844 -68.3309,4.29239 z m 52.7768,-33.92933 c 13.2546,-6.85422 25.5148,-23.68141 31.7295,-43.54904 4.9307,-15.76281 5.9483,-24.87159 5.917,-52.96677 -0.043,-38.43788 -3.8164,-55.16078 -16.9068,-74.92364 -8.645,-13.05162 -29.1246,-25.61183 -41.5857,-25.50467 -19.1808,0.16496 -43.4052,21.34041 -51.1753,44.73421 -9.1949,27.68325 -9.1856,81.42206 0.02,113.08673 10.1849,35.03479 44.1837,53.5085 72.0018,39.12318 z"
       id="path130"
       transform="matrix(0.26469287,0,0,0.26469287,-0.11022934,0)" /><path
       style="fill:#ffffff;fill-opacity:1;stroke-width:9.47004"
       d="m 2017.8664,-291.11414 c -2.4632,-6.41912 -1.8734,-242.12245 0.6157,-246.04717 1.4605,-2.3029 6.7533,-3.15182 16.2726,-2.61002 l 14.1081,0.80296 0.7733,19.24311 0.7733,19.24311 7.3014,-11.51306 c 21.7276,-34.26084 57.2068,-44.99456 88.3663,-26.7339 12.1655,7.12946 25.2696,24.8721 28.19,38.16852 l 1.7197,7.82964 7.4167,-12.98612 c 31.8006,-55.68077 96.3201,-56.10289 122.257,-0.79986 l 6.8139,14.52886 v 101.79063 101.79064 l -14.5902,0.77029 c -9.8154,0.51822 -15.54,-0.37412 -17.4925,-2.72666 -1.9777,-2.38294 -3.1499,-33.39277 -3.6799,-97.3409 -0.7601,-91.73393 -0.9104,-94.09249 -6.6837,-104.89833 -16.9024,-31.6361 -52.3968,-28.57064 -74.0378,6.39425 -10.1928,16.46822 -11.0518,24.11403 -12.5464,111.67081 l -1.4703,86.13054 -15.418,0.79501 c -10.5678,0.54489 -16.0973,-0.27614 -17.5776,-2.61003 -1.1878,-1.87276 -2.1776,-42.83146 -2.1996,-91.01934 -0.044,-96.3119 -1.463,-107.70505 -14.9862,-120.32097 -16.1882,-15.10206 -30.0331,-16.5424 -48.2093,-5.01541 -9.4091,5.96709 -13.8556,11.40998 -20.7386,25.38557 l -8.7615,17.78991 -1.305,87.49763 -1.305,87.49763 -15.9888,0.76865 c -12.8281,0.61669 -16.3108,-0.0705 -17.6176,-3.47599 z"
       id="path131"
       transform="matrix(0.26469287,0,0,0.26469287,-0.11022934,0)" /><path
       style="fill:#ff9900;fill-opacity:1;stroke-width:9.47004"
       d="m 576.8136,-98.143488 c -56.60668,-5.844062 -99.47587,-14.720392 -143.07997,-29.625592 -34.8035,-11.89689 -42.13742,-14.97535 -76.1614,-31.96926 -50.28439,-25.11548 -129.1958,-82.27856 -129.1958,-93.58887 0,-2.78542 1.46813,-5.05628 3.26252,-5.04634 1.79438,0.01 22.64189,9.77019 46.32779,21.68945 111.71324,56.21656 224.11105,82.69314 351.04719,82.69314 98.9169,0 184.31643,-15.68602 276.27523,-50.74572 33.49364,-12.76958 40.84175,-12.77133 40.84175,-0.01 0,5.29063 -4.43523,9.39723 -24.14265,22.35388 -78.24359,51.44124 -183.81233,82.2655 -289.05931,84.400347 -25.1214,0.509566 -50.37331,0.441461 -56.11535,-0.151345 z"
       id="path132"
       transform="matrix(0.26469287,0,0,0.26469287,-0.11022934,0)" /><path
       style="fill:#ff9900;fill-opacity:1;stroke-width:9.47004"
       d="m 955.34893,-135.06834 c 11.63419,-27.30057 24.57195,-71.81375 24.63705,-84.76536 0.10699,-21.28423 -4.90514,-24.20282 -41.56381,-24.20282 -15.13956,0 -36.72616,0.93867 -47.97022,2.08593 -18.88175,1.92656 -20.37661,1.72715 -19.56514,-2.61001 1.25225,-6.69312 30.20353,-21.2387 51.07723,-25.66202 32.23195,-6.83022 81.30416,-3.73925 90.76026,5.71682 9.3668,9.36683 1.1731,56.13302 -15.70803,89.65447 -10.72132,21.28971 -30.72533,44.35052 -38.47168,44.35052 -3.89875,0 -4.67146,-1.10443 -3.19566,-4.56753 z"
       id="path133"
       transform="matrix(0.26469287,0,0,0.26469287,-0.11022934,0)" /></g></svg>
