<?xml version="1.0" encoding="UTF-8" standalone="no"?>
<svg
   height="476.77899"
   viewBox="0 0 640.2 126.2"
   width="2419.4851"
   version="1.1"
   id="svg14"
   sodipodi:docname="aliexpress.svg"
   xml:space="preserve"
   inkscape:export-filename="kabum.svg"
   inkscape:export-xdpi="96"
   inkscape:export-ydpi="96"
   xmlns:inkscape="http://www.inkscape.org/namespaces/inkscape"
   xmlns:sodipodi="http://sodipodi.sourceforge.net/DTD/sodipodi-0.dtd"
   xmlns="http://www.w3.org/2000/svg"
   xmlns:svg="http://www.w3.org/2000/svg"><defs
     id="defs14" /><sodipodi:namedview
     id="namedview14"
     pagecolor="#ffffff"
     bordercolor="#000000"
     borderopacity="0.25"
     inkscape:showpageshadow="2"
     inkscape:pageopacity="0.0"
     inkscape:pagecheckerboard="0"
     inkscape:deskcolor="#d1d1d1" /><g
     id="g55"
     transform="matrix(1.0076552,0,0,0.83244399,-8.9426439,154.62586)"><path
       style="fill:#f3cfd1"
       d="m 354.36576,-73.466354 c 0.19102,-0.07644 0.41926,-0.06704 0.50719,0.02089 0.0879,0.08793 -0.0684,0.150475 -0.34732,0.138985 -0.30827,-0.0127 -0.37097,-0.0754 -0.15987,-0.159875 z m 258.00701,0 c 0.19102,-0.07644 0.41926,-0.06704 0.50719,0.02089 0.0879,0.08793 -0.0684,0.150475 -0.34732,0.138985 -0.30827,-0.0127 -0.37097,-0.0754 -0.15987,-0.159875 z m 5.55707,0 c 0.19102,-0.07644 0.41926,-0.06704 0.50719,0.02089 0.0879,0.08793 -0.0684,0.150475 -0.34731,0.138985 -0.30827,-0.0127 -0.37098,-0.0754 -0.15988,-0.159875 z M 93.497516,-98.557043 c 0,-13.074557 0.06206,-23.709867 0.137904,-23.634027 0.174821,0.17482 0.166543,47.101508 -0.0083,47.276391 -0.07126,0.07126 -0.129564,-10.567804 -0.129564,-23.642364 z m 71.576414,-10.187967 c 0,-18.55666 0.0316,-26.14802 0.0701,-16.86969 0.0386,9.27833 0.0386,24.46105 0,33.739377 -0.0386,9.278329 -0.0701,1.686969 -0.0701,-16.869687 z m 471.16448,29.008572 c 0,-0.05495 0.2084,-0.263341 0.46309,-0.46309 0.41971,-0.329156 0.42907,-0.319796 0.0999,0.09991 -0.34569,0.440794 -0.563,0.580973 -0.563,0.36318 z m 1.58774,-1.587736 c 0,-0.05495 0.20839,-0.26334 0.46309,-0.463089 0.41971,-0.329157 0.42907,-0.319797 0.0999,0.09991 -0.3457,0.440795 -0.563,0.580974 -0.563,0.36318 z m -308.972,-1.024736 -0.5041,-0.595401 0.5954,0.504103 c 0.55953,0.473732 0.71587,0.686699 0.5041,0.686699 -0.0502,0 -0.31814,-0.267931 -0.5954,-0.595401 z m -47.45372,-6.703772 c 0.0127,-0.30827 0.0754,-0.370974 0.15988,-0.159876 0.0764,0.191024 0.067,0.419261 -0.0209,0.507193 -0.0879,0.08793 -0.15048,-0.06836 -0.13899,-0.347317 z m 347.23066,-4.21191 c 0.003,-0.582169 0.0571,-0.789171 0.12043,-0.460004 0.0633,0.329167 0.0609,0.805488 -0.005,1.05849 -0.0662,0.253003 -0.11802,-0.01632 -0.11509,-0.598486 z m -27.83121,-3.726768 c 0.0127,-0.30827 0.0754,-0.370974 0.15988,-0.159876 0.0764,0.191025 0.067,0.419262 -0.0209,0.507193 -0.0879,0.08793 -0.15048,-0.06836 -0.13899,-0.347317 z m -219.10749,-3.70472 c 0.0127,-0.30827 0.0754,-0.37097 0.15988,-0.15987 0.0764,0.19102 0.067,0.41926 -0.0209,0.50719 -0.0879,0.0879 -0.15047,-0.0684 -0.13898,-0.34732 z m -136.48347,-0.57293 c 2.30138,-0.0441 5.99286,-0.044 8.2033,2.1e-4 2.21044,0.0442 0.3275,0.0803 -4.18432,0.0802 -4.51181,-1.1e-4 -6.32036,-0.0363 -4.01898,-0.0804 z m 31.37366,-2.64664 c -0.32915,-0.41971 -0.31979,-0.42907 0.0999,-0.0999 0.4408,0.34569 0.58098,0.563 0.36318,0.563 -0.0549,0 -0.26334,-0.20839 -0.46309,-0.46309 z m -88.39726,1.1e-4 c 4.5587,-0.0406 11.94167,-0.0406 16.4066,6e-5 4.46494,0.0407 0.7351,0.0739 -8.28853,0.0739 -9.02363,-3e-5 -12.67676,-0.0333 -8.11807,-0.0739 z m 130.83736,-3.10943 c 0.003,-0.58217 0.0571,-0.78917 0.12043,-0.46 0.0633,0.32917 0.0609,0.80549 -0.005,1.05849 -0.0662,0.253 -0.11802,-0.0163 -0.11509,-0.59849 z m 319.04806,-0.5954 -0.64152,-0.72771 0.72771,0.64153 c 0.40024,0.35284 0.72771,0.68031 0.72771,0.72771 0,0.20754 -0.21429,0.0386 -0.8139,-0.64153 z m -319.04806,-2.05082 c 0.003,-0.58217 0.0571,-0.78917 0.12043,-0.46001 0.0633,0.32917 0.0609,0.80549 -0.005,1.05849 -0.0662,0.25301 -0.11802,-0.0163 -0.11509,-0.59848 z m -42.67097,0.0324 c 0,-0.055 0.20839,-0.26334 0.46309,-0.46309 0.41971,-0.32916 0.42907,-0.3198 0.0999,0.0999 -0.34569,0.44079 -0.563,0.58097 -0.563,0.36318 z m 317.51334,-1.42167 c -0.32916,-0.41971 -0.3198,-0.42907 0.0999,-0.0999 0.2547,0.19975 0.46309,0.40814 0.46309,0.46309 0,0.21779 -0.21731,0.0776 -0.563,-0.36318 z m -5.23781,-11.33467 c 0.0127,-0.30827 0.0754,-0.37097 0.15988,-0.15987 0.0764,0.19102 0.067,0.41926 -0.0209,0.50719 -0.0879,0.0879 -0.15048,-0.0684 -0.13899,-0.34732 z m 0.0209,-2.22724 c 0,-0.36385 0.0601,-0.5127 0.13348,-0.33078 0.0734,0.18193 0.0734,0.47963 0,0.66156 -0.0734,0.18193 -0.13348,0.0331 -0.13348,-0.33078 z m -248.65469,-2.11698 c 0.26343,-0.29108 0.5385,-0.52924 0.61128,-0.52924 0.0728,0 -0.0832,0.23816 -0.34665,0.52924 -0.26343,0.29109 -0.5385,0.52925 -0.61128,0.52925 -0.0728,0 0.0832,-0.23816 0.34665,-0.52925 z m -151.16564,-3.10919 c 4.91205,-0.0403 12.94997,-0.0403 17.86202,0 4.91206,0.0403 0.8931,0.0733 -8.93101,0.0733 -9.82411,0 -13.84307,-0.033 -8.93101,-0.0733 z m 162.61057,-1.57615 c 0.32747,-0.0631 0.86333,-0.0631 1.1908,0 0.32747,0.0631 0.0595,0.11468 -0.5954,0.11468 -0.65494,0 -0.92287,-0.0516 -0.5954,-0.11468 z m -22.55907,-3.51796 c 0.56847,-0.58217 1.09312,-1.05849 1.16589,-1.05849 0.0728,0 -0.3328,0.47632 -0.90127,1.05849 -0.56848,0.58217 -1.09313,1.05849 -1.1659,1.05849 -0.0728,0 0.3328,-0.47632 0.90128,-1.05849 z m 265.0195,-1.72005 c 0.34183,-0.36385 0.68104,-0.66155 0.75381,-0.66155 0.0728,0 -0.14736,0.2977 -0.48918,0.66155 -0.34183,0.36386 -0.68104,0.66156 -0.75382,0.66156 -0.0728,0 0.14737,-0.2977 0.48919,-0.66156 z m -221.25822,-0.0661 c -0.32916,-0.41971 -0.3198,-0.42907 0.0999,-0.0999 0.44079,0.34569 0.58097,0.563 0.36318,0.563 -0.055,0 -0.26334,-0.20839 -0.46309,-0.46309 z"
       id="path61" /><path
       style="fill:#ecafb1"
       d="m 350.11526,-73.460841 c 0.18192,-0.07341 0.47963,-0.07341 0.66155,0 0.18193,0.07341 0.0331,0.133472 -0.33077,0.133472 -0.36386,0 -0.51271,-0.06006 -0.33078,-0.133472 z m 3.45663,-0.0055 c 0.19102,-0.07644 0.41926,-0.06704 0.50719,0.02089 0.0879,0.08793 -0.0684,0.150475 -0.34731,0.138985 -0.30827,-0.0127 -0.37098,-0.0754 -0.15988,-0.159875 z m 259.59474,0 c 0.19103,-0.07644 0.41927,-0.06704 0.5072,0.02089 0.0879,0.08793 -0.0684,0.150475 -0.34732,0.138985 -0.30827,-0.0127 -0.37097,-0.0754 -0.15988,-0.159875 z m 3.96934,0 c 0.19103,-0.07644 0.41926,-0.06704 0.5072,0.02089 0.0879,0.08793 -0.0684,0.150475 -0.34732,0.138985 -0.30827,-0.0127 -0.37098,-0.0754 -0.15988,-0.159875 z M 226.20175,-108.74501 c 0,-18.55666 0.0316,-26.14802 0.0701,-16.86969 0.0386,9.27833 0.0386,24.46105 0,33.739377 -0.0386,9.278329 -0.0701,1.686969 -0.0701,-16.869687 z m 68.00799,0.13231 c 0,-18.48389 0.0316,-26.00646 0.0701,-16.71683 0.0386,9.28963 0.0385,24.41281 -2e-5,33.607064 -0.0386,9.194258 -0.0701,1.593652 -0.0701,-16.890234 z m 342.82254,28.082394 c 0,-0.05495 0.20839,-0.263341 0.46309,-0.46309 0.41971,-0.329156 0.42907,-0.319796 0.0999,0.09991 -0.34569,0.440795 -0.563,0.580973 -0.563,0.36318 z m -355.63185,-7.728509 c 0.0127,-0.30827 0.0754,-0.370974 0.15988,-0.159876 0.0764,0.191025 0.067,0.419262 -0.0209,0.507194 -0.0879,0.08793 -0.15048,-0.06836 -0.13899,-0.347318 z m 80.95362,-1.565683 c 0.34183,-0.363856 0.68104,-0.661557 0.75381,-0.661557 0.0728,0 -0.14736,0.297701 -0.48919,0.661557 -0.34182,0.363856 -0.68104,0.661556 -0.75381,0.661556 -0.0728,0 0.14737,-0.2977 0.48919,-0.661556 z m -22.38575,-0.727712 -0.5041,-0.595401 0.5954,0.504103 c 0.55953,0.473732 0.71587,0.686699 0.5041,0.686699 -0.0502,0 -0.31814,-0.267931 -0.5954,-0.595401 z m 260.83158,-5.645282 c 0.0127,-0.30827 0.0754,-0.370974 0.15988,-0.159876 0.0764,0.191024 0.067,0.419261 -0.0209,0.507193 -0.0879,0.08793 -0.15048,-0.06836 -0.13899,-0.347317 z M 499.2904,-119.59454 c 0,-12.44388 0.0324,-17.53455 0.0719,-11.31261 0.0396,6.22193 0.0396,16.40329 0,22.62523 -0.0395,6.22194 -0.0719,1.13126 -0.0719,-11.31262 z m -180.31356,11.22441 c 0.0127,-0.30827 0.0754,-0.37097 0.15988,-0.15988 0.0764,0.19103 0.067,0.41926 -0.0209,0.5072 -0.0879,0.0879 -0.15047,-0.0684 -0.13898,-0.34732 z m -41.83126,-2.06253 c 0,-0.055 0.20839,-0.26334 0.46309,-0.46309 0.41971,-0.32915 0.42907,-0.31979 0.0999,0.0999 -0.34569,0.4408 -0.563,0.58098 -0.563,0.36318 z m 315.9256,-1.42167 c -0.32915,-0.4197 -0.3198,-0.42906 0.0999,-0.0999 0.4408,0.3457 0.58097,0.563 0.36318,0.563 -0.0549,0 -0.26334,-0.20839 -0.46309,-0.46309 z m -404.88586,-3.7046 c 4.5587,-0.0406 11.94167,-0.0406 16.4066,6e-5 4.46494,0.0406 0.7351,0.0739 -8.28853,0.0739 -9.02363,-3e-5 -12.67676,-0.0333 -8.11807,-0.0739 z m 452.60327,-7.60801 c 0.005,-0.43663 0.0647,-0.58321 0.13179,-0.32575 0.0671,0.25747 0.0627,0.61471 -0.01,0.79387 -0.0725,0.17916 -0.12738,-0.0315 -0.12198,-0.46812 z m -52.13065,-0.26463 c 0.005,-0.43662 0.0647,-0.58321 0.13179,-0.32574 0.0671,0.25747 0.0627,0.61471 -0.01,0.79387 -0.0725,0.17916 -0.12738,-0.0315 -0.12199,-0.46813 z m -323.84245,-4.96167 -0.5041,-0.5954 0.5954,0.5041 c 0.55953,0.47373 0.71587,0.6867 0.5041,0.6867 -0.0502,0 -0.31814,-0.26793 -0.5954,-0.5954 z m 108.8973,-7.27712 -0.64152,-0.72771 0.72771,0.64153 c 0.68015,0.5996 0.84906,0.81389 0.64153,0.81389 -0.0474,0 -0.37488,-0.32747 -0.72772,-0.72771 z m -24.90411,-8.1856 c 0.19103,-0.0764 0.41926,-0.067 0.5072,0.0209 0.0879,0.0879 -0.0684,0.15048 -0.34732,0.13899 -0.30827,-0.0127 -0.37098,-0.0754 -0.15988,-0.15988 z"
       id="path60" /><path
       style="fill:#e38b8e"
       d="m 351.57432,-73.475475 c 0.40224,-0.06082 0.99764,-0.0592 1.32311,0.0036 0.32547,0.06281 -0.004,0.112577 -0.73135,0.11059 -0.72771,-0.002 -0.994,-0.05338 -0.59176,-0.114202 z m 262.89889,-0.0015 c 0.47301,-0.0587 1.24703,-0.0587 1.72004,0 0.47302,0.0587 0.086,0.106728 -0.86002,0.106728 -0.94602,0 -1.33303,-0.04803 -0.86002,-0.106728 z m -602.810225,-1.59421 c 2.073979,-0.04471 5.467764,-0.04471 7.541743,0 2.07398,0.04471 0.377087,0.08129 -3.770871,0.08129 -4.147959,0 -5.8448515,-0.03658 -3.770872,-0.08129 z m 50.691411,-1.3e-4 c 2.155654,-0.04453 5.608979,-0.04443 7.674055,2.28e-4 2.065076,0.04466 0.301359,0.08109 -3.919371,0.08096 -4.220731,-1.26e-4 -5.910338,-0.03666 -3.754684,-0.08119 z m 20.756684,2.15e-4 c 1.928437,-0.04521 5.084061,-0.04521 7.012498,0 1.928437,0.04521 0.350625,0.08221 -3.506249,0.08221 -3.856874,0 -5.434686,-0.03699 -3.506249,-0.08221 z m 29.75537,4.62e-4 c 1.55652,-0.0467 4.17628,-0.04687 5.8217,-3.64e-4 1.64542,0.0465 0.37191,0.08471 -2.83003,0.08491 -3.20193,2e-4 -4.54818,-0.03785 -2.99167,-0.08455 z m 28.84291,-2.96e-4 c 1.84708,-0.04542 4.94316,-0.04555 6.88019,-2.75e-4 1.93703,0.04527 0.42578,0.08244 -3.35832,0.08259 -3.7841,1.51e-4 -5.36894,-0.03689 -3.52187,-0.08231 z m 36.1366,-7.95e-4 c 7.02242,-0.03921 18.51366,-0.03921 25.53608,0 7.02242,0.03921 1.2768,0.0713 -12.76804,0.0713 -14.04484,0 -19.79046,-0.03209 -12.76804,-0.0713 z m 55.76661,0.0022 7.27474,-0.07673 0.0725,-13.028481 0.0725,-13.02848 -0.004,13.098818 -0.004,13.098817 -7.34338,0.0064 -7.34338,0.0064 z m 39.51353,-0.0017 c 2.08278,-0.04476 5.41703,-0.04466 7.40943,2.42e-4 1.9924,0.0449 0.28831,0.08152 -3.78688,0.08139 -4.07519,-1.34e-4 -5.70534,-0.03687 -3.62255,-0.08163 z m 24.87452,0 c 2.08278,-0.04476 5.41703,-0.04466 7.40943,2.42e-4 1.9924,0.0449 0.28831,0.08152 -3.78688,0.08139 -4.07519,-1.34e-4 -5.70534,-0.03687 -3.62255,-0.08163 z m 89.36026,0.01147 c 6.62263,-0.187394 12.50912,-0.193079 12.3968,-0.01197 -0.0677,0.109157 -3.48007,0.173353 -7.58305,0.142659 -4.10298,-0.03069 -6.26917,-0.0895 -4.81375,-0.130686 z m 51.81606,-0.0115 c 2.15566,-0.04453 5.60898,-0.04443 7.67406,2.28e-4 2.06507,0.04466 0.30135,0.08109 -3.91938,0.08096 -4.22073,-1.26e-4 -5.91033,-0.03666 -3.75468,-0.08119 z m 20.60875,3.81e-4 c 1.84708,-0.04542 4.94316,-0.04555 6.88019,-2.75e-4 1.93703,0.04527 0.42579,0.08244 -3.35832,0.08259 -3.7841,1.51e-4 -5.36894,-0.03689 -3.52187,-0.08231 z m 38.49252,-8.55e-4 c -0.0677,-0.109157 2.09849,-0.167966 4.81374,-0.130686 9.31229,0.127855 10.22146,0.217595 2.76931,0.273345 -4.10298,0.03069 -7.51536,-0.0335 -7.58305,-0.142659 z m 24.63559,6.04e-4 c 2.07398,-0.04471 5.46776,-0.04471 7.54174,0 2.07398,0.04471 0.37709,0.08129 -3.77087,0.08129 -4.14796,0 -5.84485,-0.03658 -3.77087,-0.08129 z m 50.4106,-3.7e-5 c 2.14675,-0.04448 5.65961,-0.04448 7.80636,0 2.14675,0.04448 0.39032,0.08087 -3.90318,0.08087 -4.2935,0 -6.04993,-0.03639 -3.90318,-0.08087 z m -200.91469,-5.723707 c 0,-0.05495 0.20839,-0.26334 0.46309,-0.463089 0.4197,-0.329156 0.42906,-0.319797 0.0999,0.09991 -0.3457,0.440795 -0.563,0.580974 -0.563,0.36318 z m -20.70672,-5.103174 c 0.18193,-0.07341 0.47963,-0.07341 0.66156,0 0.18193,0.07341 0.0331,0.133472 -0.33078,0.133472 -0.36386,0 -0.51271,-0.06006 -0.33078,-0.133472 z m -70.30256,-1.566844 c 0.0127,-0.30827 0.0754,-0.370974 0.15988,-0.159876 0.0764,0.191025 0.067,0.419261 -0.0209,0.507193 -0.0879,0.08793 -0.15048,-0.06836 -0.13899,-0.347317 z m -92.44032,-0.04399 c 4.98483,-0.04027 13.14182,-0.04027 18.12665,0 4.98482,0.04027 0.90633,0.07322 -9.06333,0.07322 -9.96965,0 -14.04815,-0.03295 -9.06332,-0.07322 z m 182.20846,-13.495329 c 2.00991,-0.045 5.22508,-0.0449 7.14481,2.6e-4 1.91974,0.0452 0.27527,0.082 -3.65438,0.0818 -3.92964,-1.4e-4 -5.50034,-0.0371 -3.49043,-0.0821 z m -130.15683,-20.31033 c -9e-5,-5.23952 0.0353,-7.42047 0.0785,-4.84655 0.0433,2.57392 0.0434,6.86081 1.6e-4,9.52641 -0.0432,2.66561 -0.0786,0.55967 -0.0787,-4.67986 z"
       id="path59" /><path
       style="fill:#e07c81"
       d="m 152.10741,-108.6127 c 1e-5,-18.48389 0.0316,-26.00646 0.0701,-16.71683 0.0386,9.28963 0.0386,24.41281 -1e-5,33.607064 -0.0386,9.194258 -0.0701,1.593652 -0.0701,-16.890234 z m 156.92119,0 c 1e-5,-18.48389 0.0316,-26.00646 0.0701,-16.71683 0.0386,9.28963 0.0386,24.41281 -1e-5,33.607064 -0.0386,9.194258 -0.0701,1.593652 -0.0701,-16.890234 z m 147.39477,0 c 1e-5,-18.48389 0.0316,-26.00646 0.0701,-16.71683 0.0386,9.28963 0.0386,24.41281 -10e-6,33.607064 -0.0386,9.194258 -0.0701,1.593652 -0.0701,-16.890234 z m -105.49771,22.709084 c 0.19103,-0.07644 0.41926,-0.06704 0.5072,0.02089 0.0879,0.08793 -0.0684,0.150475 -0.34732,0.138985 -0.30827,-0.0127 -0.37097,-0.0754 -0.15988,-0.159877 z m 1.85236,0 c 0.19103,-0.07644 0.41926,-0.06704 0.50719,0.02089 0.0879,0.08793 -0.0684,0.150475 -0.34731,0.138985 -0.30827,-0.0127 -0.37098,-0.0754 -0.15988,-0.159877 z m -18.93113,-22.576774 c 0,-0.65494 0.0516,-0.92287 0.11468,-0.5954 0.0631,0.32747 0.0631,0.86333 0,1.1908 -0.0631,0.32747 -0.11468,0.0595 -0.11468,-0.5954 z m -69.13857,-5.65698 c 0,-0.0549 0.20839,-0.26334 0.46309,-0.46309 0.41971,-0.32916 0.42907,-0.3198 0.0999,0.0999 -0.34569,0.44079 -0.563,0.58097 -0.563,0.36318 z m 105.65056,-5.65499 c 2.00121,-0.045 5.27592,-0.045 7.27712,0 2.00121,0.045 0.36386,0.0817 -3.63856,0.0817 -4.00241,0 -5.63976,-0.0368 -3.63856,-0.0817 z m -6.98009,-6.88083 c -0.32916,-0.41971 -0.3198,-0.42907 0.0999,-0.0999 0.44079,0.34569 0.58097,0.563 0.36318,0.563 -0.055,0 -0.26334,-0.20839 -0.46309,-0.46309 z m -118.03741,-4.23357 c 2.37423,-0.0439 6.1848,-0.0438 8.46792,1.9e-4 2.28313,0.044 0.34058,0.0799 -4.31678,0.0798 -4.65735,-1e-4 -6.52537,-0.0361 -4.15114,-0.08 z m 367.54409,-1.57642 c 0.32747,-0.0631 0.86333,-0.0631 1.1908,0 0.32747,0.0631 0.0595,0.11468 -0.5954,0.11468 -0.65494,0 -0.92287,-0.0516 -0.5954,-0.11468 z m -336.03826,-4.24567 c -0.32916,-0.41971 -0.3198,-0.42907 0.0999,-0.0999 0.44079,0.34569 0.58097,0.563 0.36318,0.563 -0.055,0 -0.26335,-0.20839 -0.46309,-0.46309 z m 334.99631,-7.12711 c 0.19103,-0.0764 0.41926,-0.067 0.50719,0.0209 0.0879,0.0879 -0.0684,0.15048 -0.34731,0.13899 -0.30827,-0.0127 -0.37098,-0.0754 -0.15988,-0.15988 z m 4.23396,0 c 0.19103,-0.0764 0.41926,-0.067 0.5072,0.0209 0.0879,0.0879 -0.0684,0.15048 -0.34732,0.13899 -0.30827,-0.0127 -0.37098,-0.0754 -0.15988,-0.15988 z"
       id="path58" /><path
       style="fill:#d85a5f"
       d="m 138.34551,-98.953977 c 0,-13.171593 0.0322,-18.559963 0.0716,-11.974173 0.0394,6.5858 0.0394,17.36255 0,23.948345 -0.0394,6.585794 -0.0716,1.197417 -0.0716,-11.974172 z m 77.78606,17.729713 c 0,-3.420247 0.0377,-4.819439 0.0838,-3.109316 0.0461,1.710124 0.0461,4.508508 0,6.218631 -0.0461,1.710124 -0.0838,0.310932 -0.0838,-3.109315 z m 254.05035,-16.4066 c 0,-12.443876 0.0324,-17.534556 0.0719,-11.312616 0.0396,6.22194 0.0396,16.403293 0,22.625231 -0.0396,6.221939 -0.0719,1.131262 -0.0719,-11.312615 z m 122.37374,16.208133 -0.64153,-0.727712 0.72772,0.641528 c 0.40024,0.352841 0.72771,0.680311 0.72771,0.727712 0,0.207537 -0.21429,0.03863 -0.8139,-0.641528 z M 179.88234,-95.778506 c 0,-4.584584 0.036,-6.460094 0.0801,-4.167806 0.0441,2.292293 0.0441,6.043318 0,8.335611 -0.044,2.292294 -0.0801,0.416781 -0.0801,-4.167805 z m 423.50912,6.417097 c -0.32915,-0.419706 -0.31979,-0.429066 0.0999,-0.09991 0.4408,0.345695 0.58097,0.562999 0.36318,0.562999 -0.0549,0 -0.26334,-0.20839 -0.46309,-0.46309 z m 23.28679,-8.732545 c -0.32916,-0.419706 -0.3198,-0.429066 0.0999,-0.09991 0.2547,0.199748 0.46309,0.408139 0.46309,0.463089 0,0.217793 -0.21731,0.07761 -0.563,-0.36318 z M 36.537507,-101.00433 c 2.365064,-0.0439 6.235169,-0.0439 8.600234,0 2.365064,0.0439 0.430011,0.0797 -4.300117,0.0797 -4.730129,0 -6.665181,-0.0359 -4.300117,-0.0797 z m 375.300963,0.0101 c 7.65242,-0.1864 14.49349,-0.19141 14.38139,-0.0105 -0.0676,0.10915 -4.01585,0.17286 -8.77378,0.14156 -4.75792,-0.0313 -7.28135,-0.0903 -5.60761,-0.13103 z m 135.83434,-0.0102 c 2.44708,-0.0437 6.37673,-0.0436 8.73255,1.8e-4 2.35582,0.0438 0.35366,0.0796 -4.44923,0.0795 -4.8029,-1e-4 -6.73039,-0.0359 -4.28332,-0.0797 z m -213.84641,-5.75591 c 0.005,-0.43663 0.0647,-0.58321 0.13179,-0.32575 0.0671,0.25747 0.0627,0.61471 -0.01,0.79387 -0.0725,0.17916 -0.12738,-0.0315 -0.12199,-0.46812 z m -0.01,-3.30779 c 0,-0.36385 0.0601,-0.5127 0.13347,-0.33077 0.0734,0.18192 0.0734,0.47962 0,0.66155 -0.0734,0.18193 -0.13347,0.0331 -0.13347,-0.33078 z m -88.62419,-1.7857 c 2.29229,-0.044 6.04331,-0.044 8.33561,0 2.29229,0.0441 0.41678,0.0801 -4.16781,0.0801 -4.58458,0 -6.4601,-0.036 -4.1678,-0.0801 z m -65.31185,-10.91618 c 0,-4.00242 0.0368,-5.63977 0.0817,-3.63856 0.045,2.00121 0.045,5.27591 0,7.27712 -0.045,2.00121 -0.0817,0.36386 -0.0817,-3.63856 z m 423.0363,-2.00672 c 0.0127,-0.30827 0.0754,-0.37098 0.15988,-0.15988 0.0764,0.19103 0.067,0.41926 -0.0209,0.5072 -0.0879,0.0879 -0.15048,-0.0684 -0.13899,-0.34732 z m -344.87372,-6.11272 c 0.19102,-0.0764 0.41926,-0.067 0.50719,0.0209 0.0879,0.0879 -0.0684,0.15047 -0.34731,0.13898 -0.30827,-0.0127 -0.37098,-0.0754 -0.15988,-0.15987 z m 159.74934,-11.19801 -7.67405,-0.14454 7.59228,-0.06 c 4.84191,-0.0383 7.65152,0.0358 7.75582,0.20458 0.09,0.14554 0.12675,0.23761 0.0818,0.20459 -0.045,-0.033 -3.5351,-0.12509 -7.75583,-0.20459 z m 46.04433,0 -7.40943,-0.14493 7.32766,-0.0598 c 4.66532,-0.0381 7.38707,0.0363 7.4912,0.20478 0.0899,0.14554 0.12675,0.2377 0.0818,0.20478 -0.045,-0.0329 -3.41601,-0.12506 -7.4912,-0.20478 z m -426.356936,-0.19799 c 2.155654,-0.0445 5.608979,-0.0444 7.674055,2.3e-4 2.065076,0.0447 0.301359,0.0811 -3.919371,0.081 -4.22073,-1.2e-4 -5.910338,-0.0367 -3.754684,-0.0812 z m 47.351253,-1.4e-4 c 2.874462,-0.0427 7.578129,-0.0427 10.452591,0 2.874463,0.0427 0.52263,0.0777 -5.226296,0.0777 -5.748925,0 -8.100758,-0.035 -5.226295,-0.0777 z m 51.601403,0 c 2.87446,-0.0427 7.57813,-0.0427 10.45259,0 2.87446,0.0427 0.52263,0.0777 -5.2263,0.0777 -5.74892,0 -8.10075,-0.035 -5.22629,-0.0777 z m 41.28112,-2.7e-4 c 6.94965,-0.0392 18.32181,-0.0392 25.27146,0 6.94965,0.0392 1.26357,0.0714 -12.63573,0.0714 -13.8993,0 -19.58538,-0.0321 -12.63573,-0.0714 z m 57.95234,4e-5 c 5.20315,-0.0401 13.71738,-0.0401 18.92052,0 5.20314,0.0401 0.94602,0.0729 -9.46026,0.0729 -10.40628,0 -14.6634,-0.0328 -9.46026,-0.0729 z m 62.33463,4e-4 c 2.08278,-0.0448 5.41703,-0.0447 7.40943,2.4e-4 1.9924,0.0449 0.28831,0.0815 -3.78688,0.0814 -4.07519,-1.3e-4 -5.70534,-0.0369 -3.62255,-0.0816 z m 204.80186,1.8e-4 c 1.92844,-0.0452 5.08406,-0.0452 7.0125,0 1.92844,0.0452 0.35063,0.0822 -3.50625,0.0822 -3.85687,0 -5.43468,-0.037 -3.50625,-0.0822 z m 45.66358,-2.1e-4 c 2.15566,-0.0445 5.60898,-0.0444 7.67406,2.3e-4 2.06507,0.0447 0.30136,0.0811 -3.91937,0.081 -4.22073,-1.2e-4 -5.91034,-0.0367 -3.75469,-0.0812 z m -197.94883,-1.57312 c 0.25747,-0.0671 0.61471,-0.0627 0.79386,0.01 0.17916,0.0725 -0.0315,0.12738 -0.46812,0.12199 -0.43663,-0.005 -0.58321,-0.0647 -0.32574,-0.13179 z m 2.64622,0 c 0.25747,-0.0671 0.61471,-0.0627 0.79387,0.01 0.17916,0.0725 -0.0315,0.12738 -0.46813,0.12199 -0.43662,-0.005 -0.58321,-0.0647 -0.32574,-0.13179 z m 259.4574,0.008 c 0.18193,-0.0734 0.47963,-0.0734 0.66156,0 0.18192,0.0734 0.0331,0.13347 -0.33078,0.13347 -0.36386,0 -0.51271,-0.0601 -0.33078,-0.13347 z m 2.25433,-0.008 c 0.25747,-0.0671 0.61471,-0.0627 0.79387,0.01 0.17915,0.0725 -0.0315,0.12738 -0.46813,0.12199 -0.43663,-0.005 -0.58321,-0.0647 -0.32574,-0.13179 z"
       id="path57" /><path
       style="fill:#d13d45"
       d="m 168.60606,-49.932644 c 86.93724,-0.03663 229.11895,-0.03663 315.95935,1e-6 86.8404,0.03663 15.70993,0.0666 -158.06772,0.0666 -173.77764,0 -244.828878,-0.02997 -157.89163,-0.0666 z m 160.26078,-32.680889 -1.04603,-1.124646 1.12464,1.046039 c 0.61856,0.575322 1.12465,1.081413 1.12465,1.124646 0,0.200208 -0.23045,-1.29e-4 -1.20326,-1.046039 z m 286.53758,-2.234206 c 0.25747,-0.06709 0.61471,-0.06268 0.79387,0.0098 0.17916,0.07249 -0.0315,0.12738 -0.46812,0.121987 -0.43663,-0.0054 -0.58322,-0.0647 -0.32575,-0.131793 z m 11.30758,-3.389024 c 0.34183,-0.363856 0.68104,-0.661556 0.75381,-0.661556 0.0728,0 -0.14736,0.2977 -0.48919,0.661556 -0.34182,0.363856 -0.68104,0.661557 -0.75381,0.661557 -0.0728,0 0.14737,-0.297701 0.48919,-0.661557 z M 34.420526,-90.155051 c 3.529404,-0.04169 9.304792,-0.04169 12.834195,0 3.529404,0.04168 0.64171,0.07579 -6.417097,0.07579 -7.058807,0 -9.946501,-0.03411 -6.417098,-0.07579 z m 376.840844,-4.2e-5 c 3.53946,-0.04171 9.25531,-0.04167 12.70188,9.4e-5 3.44657,0.04176 0.55064,0.07588 -6.43539,0.07583 -6.98604,-5.1e-5 -9.80596,-0.03422 -6.26649,-0.07592 z m 134.42826,0 c 3.53947,-0.04171 9.25532,-0.04167 12.70189,9.4e-5 3.44657,0.04176 0.55064,0.07588 -6.43539,0.07583 -6.98604,-5.1e-5 -9.80596,-0.03422 -6.2665,-0.07592 z m 97.18524,-3.925418 c 0.0127,-0.308271 0.0754,-0.370975 0.15988,-0.159876 0.0764,0.191024 0.067,0.419261 -0.0209,0.507193 -0.0879,0.08793 -0.15048,-0.06836 -0.13899,-0.347317 z m 0.0209,-1.962618 c 0,-0.363856 0.0601,-0.512706 0.13347,-0.330778 0.0734,0.181928 0.0734,0.479628 0,0.661556 -0.0734,0.181928 -0.13347,0.03308 -0.13347,-0.330778 z m -56.36674,-0.463089 -0.0396,-0.860024 7.21097,0.06165 7.21096,0.06165 -7.06149,0.07496 -7.06149,0.07495 -0.10983,0.723422 c -0.10142,0.668062 -0.11286,0.657609 -0.14947,-0.136601 z m -310.07014,-7.277122 -0.5041,-0.5954 0.5954,0.5041 c 0.32747,0.27726 0.5954,0.54519 0.5954,0.5954 0,0.21177 -0.21296,0.0554 -0.6867,-0.5041 z m -64.03306,-5.88785 c 2e-4,-3.20193 0.0384,-4.47545 0.0849,-2.83003 0.0465,1.64542 0.0463,4.26518 -3.6e-4,5.8217 -0.0467,1.55651 -0.0847,0.21026 -0.0846,-2.99167 z m 106.81564,4.47653 c 0.0127,-0.30827 0.0754,-0.37097 0.15988,-0.15988 0.0764,0.19103 0.067,0.41927 -0.0209,0.5072 -0.0879,0.0879 -0.15048,-0.0684 -0.13899,-0.34732 z m 318.70035,-2.2934 -0.77722,-0.86002 0.86003,0.77722 c 0.80166,0.72448 0.98165,0.94283 0.77722,0.94283 -0.0455,0 -0.43255,-0.38701 -0.86003,-0.86003 z m -380.16329,-4.34857 c 0.19102,-0.0764 0.41926,-0.067 0.50719,0.0209 0.0879,0.0879 -0.0684,0.15048 -0.34732,0.13899 -0.30827,-0.0127 -0.37097,-0.0754 -0.15987,-0.15988 z m 9.62761,-9.74258 c 0.005,-0.43663 0.0647,-0.58321 0.1318,-0.32574 0.0671,0.25747 0.0627,0.61471 -0.01,0.79387 -0.0725,0.17916 -0.12738,-0.0315 -0.12199,-0.46813 z m 14.52355,-0.81592 c 0.0127,-0.30827 0.0754,-0.37097 0.15988,-0.15987 0.0764,0.19102 0.067,0.41926 -0.0209,0.50719 -0.0879,0.0879 -0.15047,-0.0684 -0.13898,-0.34732 z m -66.59198,-13.60601 c 0,-3.42025 0.0377,-4.81944 0.0838,-3.10931 0.0461,1.71012 0.0461,4.5085 0,6.21863 -0.0461,1.71012 -0.0838,0.31093 -0.0838,-3.10932 z m 399.94591,3.52395 c 0.19103,-0.0764 0.41927,-0.067 0.5072,0.0209 0.0879,0.0879 -0.0684,0.15048 -0.34732,0.13899 -0.30827,-0.0127 -0.37097,-0.0754 -0.15988,-0.15988 z m -286.93356,-1.67159 c 0.26343,-0.29109 0.5385,-0.52925 0.61127,-0.52925 0.0728,0 -0.0832,0.23816 -0.34665,0.52925 -0.26343,0.29108 -0.5385,0.52924 -0.61127,0.52924 -0.0728,0 0.0832,-0.23816 0.34665,-0.52924 z m 1.1908,-1.1584 c 0,-0.055 0.20839,-0.26334 0.46309,-0.46309 0.41971,-0.32916 0.42907,-0.3198 0.0999,0.0999 -0.34569,0.44079 -0.563,0.58097 -0.563,0.36318 z m 264.62258,-1.35552 c 0.49372,-0.50939 0.95722,-0.92617 1.02999,-0.92617 0.0728,0 -0.27164,0.41678 -0.76537,0.92617 -0.49373,0.5094 -0.95723,0.92618 -1.03,0.92618 -0.0728,0 0.27165,-0.41678 0.76538,-0.92618 z m -242.32309,-7.19587 c 0.25747,-0.0671 0.61471,-0.0627 0.79387,0.01 0.17916,0.0725 -0.0315,0.12738 -0.46813,0.12199 -0.43663,-0.005 -0.58321,-0.0647 -0.32574,-0.13179 z m 261.839,0.008 c 0.18193,-0.0734 0.47963,-0.0734 0.66156,0 0.18192,0.0734 0.0331,0.13347 -0.33078,0.13347 -0.36386,0 -0.51271,-0.0601 -0.33078,-0.13347 z m -445.07328,-23.57462 c 86.93724,-0.0366 229.11895,-0.0366 315.95935,0 86.8404,0.0366 15.70993,0.0666 -158.06772,0.0666 -173.77764,0 -244.828878,-0.03 -157.89163,-0.0666 z"
       id="path56" /><path
       style="fill:#cb2128"
       d="m 10.67065,-41.927811 v -7.806366 h 315.82704 315.82704 v 7.806366 7.806366 H 326.49769 10.67065 Z M 346.4767,-73.957117 c -7.25657,-1.147375 -13.17575,-4.197872 -17.99785,-9.275328 -6.37688,-6.714557 -9.7079,-16.621622 -9.15636,-27.232615 0.40237,-7.74092 2.37776,-14.13277 6.07547,-19.65864 4.40398,-6.58131 10.79336,-10.96897 18.62099,-12.78724 2.98897,-0.69431 10.19118,-0.97123 13.32861,-0.51247 12.52845,1.8319 21.64352,10.456 23.50636,22.24024 l 0.20929,1.32401 h -7.07146 -7.07147 l -0.1608,-1.00554 c -0.49435,-3.09154 -3.80802,-7.15108 -7.25349,-8.88619 -2.47361,-1.24569 -4.64377,-1.7429 -7.62836,-1.74775 -8.36751,-0.0136 -14.57011,5.13539 -16.89012,14.02108 -1.31372,5.03159 -1.50851,10.4829 -0.55433,15.51297 1.85213,9.763624 7.66177,15.540381 16.2413,16.149374 4.98721,0.354001 9.24532,-1.148037 12.1957,-4.301998 1.96952,-2.105424 3.47251,-5.014574 4.12664,-7.987452 0.2469,-1.122062 0.49034,-2.188964 0.54099,-2.370894 0.0707,-0.25399 1.72076,-0.33078 7.10782,-0.33078 h 7.01574 l -0.15394,1.256962 c -1.07288,8.760411 -5.54948,16.587896 -11.98342,20.95341 -6.17872,4.192348 -14.84252,5.936155 -23.04731,4.638851 z m 262.77021,0.03736 c -12.17932,-1.889738 -20.097,-8.326259 -22.07372,-17.944406 -0.23056,-1.121818 -0.4192,-2.75917 -0.4192,-3.638561 v -1.598891 h 7.0125 7.0125 v 0.870582 c 0,1.309127 0.72253,3.822249 1.52035,5.288107 1.44282,2.650928 4.775,4.842065 8.60414,5.657815 2.77876,0.591981 7.73229,0.523956 10.29223,-0.141337 2.25235,-0.585356 4.23198,-1.50562 5.45799,-2.53724 2.14064,-1.801231 2.83576,-5.591628 1.51244,-8.247182 -1.62105,-3.253036 -4.5742,-4.61894 -16.52522,-7.64328 -7.03519,-1.78034 -9.59855,-2.64647 -12.97891,-4.3854 -4.79608,-2.46721 -7.52972,-5.41576 -8.91366,-9.61442 -0.62264,-1.88899 -0.70455,-2.55283 -0.70455,-5.70991 0,-3.163 0.0808,-3.81501 0.70494,-5.68938 0.9467,-2.84298 1.96523,-4.53316 4.08745,-6.78282 4.80039,-5.08867 11.62102,-7.64136 20.40706,-7.63755 14.52803,0.006 24.188,6.36477 26.12011,17.19303 0.19534,1.0948 0.35933,2.49663 0.36441,3.11519 l 0.009,1.12465 h -7.0125 c -3.85687,0 -7.01457,-0.0893 -7.01709,-0.19847 -0.0176,-0.75833 -0.832,-3.87977 -1.19592,-4.58352 -0.80605,-1.55874 -2.70132,-3.31874 -4.38974,-4.07646 -3.27877,-1.47143 -8.90978,-1.85008 -12.27177,-0.82521 -1.83729,0.56007 -3.67011,1.78377 -4.60527,3.07471 -1.46426,2.02135 -1.67438,5.38424 -0.45057,7.21136 1.43128,2.13689 3.95365,3.12098 16.33848,6.37438 11.28175,2.96364 14.14093,4.23676 17.85061,7.94846 3.52405,3.52596 4.8975,6.98201 4.90032,12.330876 0.006,10.672177 -6.79719,18.057926 -19.01786,20.647479 -3.33315,0.706292 -11.29224,0.933541 -14.61878,0.417398 z M 8.3506375,-75.464484 c 0.066807,-0.18426 5.7663565,-15.248127 12.6656665,-33.475266 l 12.544199,-33.14024 7.556287,-0.004 7.556287,-0.004 12.422717,33.23855 c 6.832495,18.281208 12.462411,33.344849 12.510925,33.474761 0.05044,0.135059 -3.138331,0.236204 -7.446707,0.236204 h -7.534915 l -1.314935,-3.770872 c -0.723215,-2.073979 -1.877347,-5.467764 -2.564739,-7.541743 L 53.49562,-90.221432 H 40.853503 28.211386 l -2.617893,7.475588 -2.617893,7.475588 -7.373215,0.07039 c -5.8591912,0.05594 -7.3482721,0.0016 -7.2517475,-0.264622 z M 49.570169,-101.05998 c 0,-0.19592 -7.677177,-22.82163 -8.354164,-24.62088 -0.12964,-0.34455 -0.181001,-0.34057 -0.389173,0.0301 -0.302179,0.53812 -8.721753,24.29782 -8.721753,24.61244 0,0.12815 3.907701,0.23193 8.732545,0.23193 5.393281,0 8.732545,-0.097 8.732545,-0.25364 z m 30.166973,-7.55272 v -33.47476 l 10.386436,0.004 10.386432,0.004 7.80572,23.01838 c 4.29315,12.66011 7.9211,22.979925 8.0621,22.932922 0.20684,-0.06895 7.1066,-21.191512 13.781,-42.188432 l 1.19866,-3.77087 h 10.31081 10.3108 v 33.47476 33.474755 h -6.74787 -6.74788 v -23.816032 c 0,-13.465733 -0.10081,-23.816033 -0.23196,-23.816033 -0.25796,0 -0.2088,-0.13864 -9.8057,27.65306 l -6.85336,19.846694 -5.64564,0.07072 -5.64564,0.07072 -8.2033,-23.55229 c -4.511815,-12.953764 -8.29261,-23.553954 -8.401767,-23.555974 -0.109157,-0.002 -0.198467,10.59445 -0.198467,23.547729 v 23.55141 h -6.880187 -6.880187 z m 85.473088,0 v -33.47476 h 25.00684 25.00683 v 6.08632 6.08632 h -17.72971 -17.72972 v 7.27712 7.27712 h 16.27429 16.27429 v 5.68939 5.68938 h -16.27429 -16.27429 v 8.335615 8.335611 h 18.12665 18.12665 v 6.08632 6.086319 H 190.614 165.21023 Z m 61.12782,0 v -33.47476 l 19.64822,0.002 c 18.84065,0.002 19.74068,0.024 21.89752,0.5401 5.57239,1.33346 9.92057,4.74397 12.30734,9.65332 1.32246,2.72016 1.79504,5.01303 1.77107,8.59293 -0.0499,7.45021 -3.01218,12.58692 -9.00533,15.61547 l -1.67479,0.84634 2.08329,1.01374 c 3.35908,1.63456 5.36774,4.11163 6.66212,8.215682 0.7904,2.506117 1.04621,4.337532 1.36324,9.760024 0.38595,6.601153 0.78809,8.807138 2.23258,12.24696 0.18243,0.434437 -0.24976,0.463089 -6.98521,0.463089 h -7.17967 l -0.28025,-0.727712 c -0.53947,-1.40083 -1.03424,-4.658424 -1.55097,-10.21169 -0.77445,-8.322813 -1.56962,-10.850106 -4.12019,-13.095208 -2.22177,-1.955685 -2.4891,-1.998395 -13.15447,-2.101825 l -9.46026,-0.0917 v 13.114088 13.114087 h -7.27712 -7.27712 z m 33.25636,-3.33096 c 4.80548,-0.66838 7.15447,-3.00615 7.75141,-7.71438 0.27608,-2.17751 0.007,-4.79988 -0.65529,-6.38483 -0.60855,-1.45646 -2.33861,-3.20318 -3.79184,-3.82834 -2.13108,-0.91677 -4.32902,-1.09802 -13.34001,-1.1001 l -8.66639,-0.002 v 9.65872 9.65873 h 8.31646 c 4.57406,0 9.2476,-0.12951 10.38566,-0.2878 z m 34.75164,3.33096 v -33.47476 h 7.27712 7.27712 v 33.47476 33.474755 h -7.27712 -7.27712 z m 91.0036,32.217798 c 0.27222,-0.691327 5.91688,-15.546577 12.54368,-33.011668 6.6268,-17.46509 12.13161,-31.9649 12.23292,-32.22181 0.17094,-0.4335 0.72738,-0.46205 7.73608,-0.39693 l 7.55189,0.0702 12.26892,32.8132 c 6.7479,18.047263 12.33958,33.081134 12.42595,33.408604 l 0.15703,0.595401 -7.50428,-0.0031 -7.50427,-0.0031 -2.5305,-7.472527 -2.5305,-7.472527 h -12.6528 -12.6528 l -1.68399,4.763207 c -0.92619,2.619763 -2.1148,5.983778 -2.64136,7.475588 l -0.95736,2.712381 h -7.37678 -7.37679 z m 40.98031,-24.742208 c -0.0657,-0.18193 -2.00709,-5.83865 -4.31428,-12.5705 -2.30719,-6.73184 -4.28971,-12.1449 -4.40559,-12.02901 -0.16117,0.16117 -8.94027,24.5618 -8.94587,24.86413 -6.7e-4,0.0364 4.00071,0.0661 8.89195,0.0661 7.00179,0 8.86778,-0.0703 8.77379,-0.33077 z m 30.22973,-7.47978 v -33.47894 l 7.30479,0.0703 7.3048,0.0703 13.93116,22.42233 c 7.66215,12.33228 14.02048,22.424326 14.12964,22.426765 0.10915,0.0024 0.19846,-10.117375 0.19846,-22.488485 v -22.49292 h 6.88019 6.88019 v 33.47476 33.474755 h -7.35871 -7.35871 l -13.92051,-22.41913 c -7.65627,-12.330525 -14.04989,-22.462255 -14.20803,-22.514975 -0.20545,-0.0685 -0.28752,6.33118 -0.28752,22.419134 v 22.514971 h -6.74788 -6.74787 z m 62.72022,33.41279 c 0.003,-0.03639 5.69546,-15.070257 12.65086,-33.4086 l 12.64618,-33.34245 7.56548,-0.0702 7.56549,-0.0702 0.26373,0.73172 c 0.14505,0.40245 5.7541,15.41477 12.46455,33.36072 6.71045,17.945948 12.20081,32.682118 12.20081,32.747045 0,0.06493 -3.38391,0.11805 -7.5198,0.11805 h -7.5198 l -1.2498,-3.770872 c -0.68739,-2.073979 -1.84152,-5.467764 -2.56474,-7.541743 l -1.31493,-3.770872 h -12.53138 c -11.66831,0 -12.54764,0.03189 -12.76745,0.46309 -0.12983,0.254699 -1.35459,3.64805 -2.72169,7.540779 l -2.48563,7.077691 -7.34328,9.64e-4 c -4.0388,5.3e-4 -7.34117,-0.02881 -7.3386,-0.06519 z m 41.27645,-25.96009 c 0,-0.30344 -7.32157,-21.84507 -8.18781,-24.09028 -0.16221,-0.42043 -0.34846,-0.71087 -0.4139,-0.64543 -0.11357,0.11357 -8.52405,23.66756 -8.79486,24.63048 -0.12216,0.43433 0.41386,0.46308 8.63316,0.46308 7.18791,0 8.76341,-0.0643 8.76341,-0.35785 z m -549.88571,-74.1334 v -7.80637 h 315.82704 315.82704 v 7.80637 7.80636 H 326.49769 10.67065 Z"
       id="path55" /></g></svg>
