<?xml version="1.0" encoding="UTF-8" standalone="no"?>
<svg
   height="476.77899"
   viewBox="0 0 640.2 126.2"
   width="2419.4851"
   version="1.1"
   id="svg14"
   sodipodi:docname="aliexpress.svg"
   xml:space="preserve"
   inkscape:export-filename="mercadolivre.svg"
   inkscape:export-xdpi="96"
   inkscape:export-ydpi="96"
   xmlns:inkscape="http://www.inkscape.org/namespaces/inkscape"
   xmlns:sodipodi="http://sodipodi.sourceforge.net/DTD/sodipodi-0.dtd"
   xmlns="http://www.w3.org/2000/svg"
   xmlns:svg="http://www.w3.org/2000/svg"><defs
     id="defs14" /><sodipodi:namedview
     id="namedview14"
     pagecolor="#ffffff"
     bordercolor="#000000"
     borderopacity="0.25"
     inkscape:showpageshadow="2"
     inkscape:pageopacity="0.0"
     inkscape:pagecheckerboard="0"
     inkscape:deskcolor="#d1d1d1"
     inkscape:export-bgcolor="#ffffff00" /><g
     id="g349"
     transform="translate(12.837611,144.10481)"><path
       style="fill:#0d86fd;fill-opacity:1;stroke-width:13.3927"
       d="m 165.13659,-218.78866 c -20.49446,-7.81323 -38.20395,-24.85471 -48.37876,-46.55388 -8.7397,-18.63862 -9.71534,-25.00873 -9.71534,-63.43327 0,-40.22825 0.6471,-43.97898 11.11965,-64.45161 7.43312,-14.53089 16.41057,-25.45623 27.07858,-32.95399 14.17914,-9.96548 18.90791,-11.21636 42.4016,-11.21636 21.97534,0 28.53381,1.49145 38.82045,8.82812 10.12774,7.22333 12.96912,7.89431 15.63074,3.69112 1.78913,-2.82535 3.27839,-6.18903 3.30948,-7.47484 0.10126,-4.18821 13.05298,-5.86138 21.41812,-2.76691 7.75079,2.8672 8.16736,5.09167 8.16736,43.6127 0,37.11924 -0.64606,40.93716 -7.55279,44.63354 -4.15403,2.22317 -12.84776,3.52736 -19.31939,2.8982 -10.9672,-1.06621 -12.02137,-2.42762 -15.51671,-20.03902 -4.54243,-22.88724 -10.06755,-30.05453 -25.38336,-32.92779 -14.85873,-2.78752 -29.90211,2.91276 -37.23937,14.11084 -8.65527,13.20961 -14.09519,49.40822 -11.31977,75.32469 4.11465,38.42201 22.63507,56.6773 51.92569,51.18234 14.8645,-2.78859 23.80338,-16.6104 23.80338,-36.80613 0,-9.04769 2.16001,-14.12836 7.13958,-16.79334 20.44245,-10.94047 37.18514,1.91286 37.09314,28.47632 -0.0825,23.81353 -12.29595,44.57147 -32.91804,55.94726 -19.11322,10.54345 -61.2959,14.0578 -80.56424,6.71201 z"
       id="path339"
       transform="matrix(0.26469287,0,0,0.26469287,-0.11022934,0)" /><path
       style="fill:#0d86fd;fill-opacity:1;stroke-width:13.3927"
       d="m 313.2729,-216.25747 c -16.47734,-8.1283 -25.16768,-26.00892 -22.45876,-46.20953 3.10252,-23.13564 16.55238,-33.94299 52.07894,-41.8469 21.79089,-4.84801 29.59338,-8.33328 34.11923,-15.2406 5.37537,-8.20384 5.36038,-9.72947 -0.1786,-18.18302 -4.12112,-6.28962 -9.41421,-9.2278 -16.62377,-9.2278 -9.10901,0 -10.90467,1.74406 -12.93423,12.56254 -2.49463,13.29754 -7.68222,17.00172 -23.68178,16.9099 -11.99168,-0.0688 -16.63523,-2.94336 -22.38265,-13.8557 -6.18722,-11.74739 1.5545,-26.73383 18.07487,-34.98939 16.51276,-8.25175 69.3126,-8.9847 84.42089,-1.17189 19.08356,9.86849 20.64623,14.5624 22.61737,67.93756 l 1.84556,49.97465 11.99614,3.09739 c 10.08184,2.60311 11.99614,4.81419 11.99614,13.85591 0,21.62573 -35.91005,30.96943 -53.07065,13.80883 l -8.44165,-8.44165 -15.96341,8.44165 c -18.75724,9.91907 -44.35402,10.99358 -61.41364,2.57805 z m 56.531,-33.94758 c 5.72863,-3.64258 13.00952,-22.95705 10.81239,-28.68269 -1.2996,-3.38668 -6.22346,-3.00235 -20.29187,1.58392 -23.91907,7.79754 -28.25576,12.02415 -22.79898,22.22023 4.26698,7.97292 22.96707,10.79923 32.27846,4.87854 z"
       id="path340"
       transform="matrix(0.26469287,0,0,0.26469287,-0.11022934,0)" /><path
       style="fill:#0d86fd;fill-opacity:1;stroke-width:13.3927"
       d="m 462.91497,-220.00802 c -2.14714,-2.58715 -3.36863,-9.37212 -2.71441,-15.0777 0.99816,-8.70508 3.11917,-10.55984 13.18564,-11.53043 l 11.99614,-1.15665 v -43.82572 -43.82571 l -11.99614,-1.15665 c -11.34198,-1.09357 -11.99614,-1.96177 -11.99614,-15.92112 v -14.76448 l 28.60618,-1.07805 28.60618,-1.07804 0.0848,17.68808 0.0848,17.68809 7.70611,-13.28727 c 15.14668,-26.11669 44.82989,-33.44392 65.39216,-16.14191 17.21501,14.48547 18.61301,40.01816 2.77033,50.5966 -14.75641,9.85312 -34.97572,-3.32708 -29.85492,-19.46128 1.77802,-5.60205 0.57008,-7.24282 -5.3322,-7.24282 -18.64861,0 -30.89098,28.45819 -29.02807,67.47764 1.08744,22.77693 1.18597,22.96355 12.71539,24.08336 12.65903,1.22952 16.17801,7.68822 12.45715,22.86373 -2.24739,9.16597 -2.55239,9.2299 -45.52081,9.54102 -30.87004,0.22352 -44.37626,-1.03388 -47.16217,-4.39069 z"
       id="path341"
       transform="matrix(0.26469287,0,0,0.26469287,-0.11022934,0)" /><path
       style="fill:#0d86fd;fill-opacity:1;stroke-width:13.3927"
       d="m 614.14344,-222.26716 c -6.87835,-12.85233 -2.58869,-23.07859 10.202,-24.3209 14.07661,-1.3672 15.96315,-6.68659 15.96315,-45.01046 0,-35.97772 -2.34872,-44.29344 -12.51039,-44.29344 -10.1785,0 -16.91777,-6.61669 -16.91777,-16.61004 0,-12.93504 7.40897,-16.61004 33.48656,-16.61004 h 24.62786 l 2.42311,15.15333 2.42312,15.15334 8.31001,-12.33122 c 19.41024,-28.80285 57.68592,-29.16589 72.25103,-0.68529 9.72523,19.01669 0.19581,41.76776 -17.49467,41.76776 -12.98508,0 -18.98452,-6.14671 -18.98452,-19.45054 0,-8.82964 -1.36065,-10.39562 -8.17819,-9.41236 -12.89011,1.85908 -24.15398,22.36725 -27.02874,49.21134 -3.56642,33.30275 -0.72416,42.40061 13.24637,42.40061 13.00869,0 17.26087,7.49764 12.28182,21.65585 l -3.41779,9.71867 -43.4782,0.31326 c -39.01198,0.28107 -43.86101,-0.40202 -47.20476,-6.64987 z"
       id="path342"
       transform="matrix(0.26469287,0,0,0.26469287,-0.11022934,0)" /><path
       style="fill:#0d86fd;fill-opacity:1;stroke-width:13.3927"
       d="m 815.2142,-210.22383 c -48.18934,-11.49148 -71.3253,-70.08515 -47.70498,-120.81664 12.21696,-26.23946 31.95623,-39.16582 62.50038,-40.92871 44.15777,-2.5486 74.1588,25.65652 71.7087,67.41611 l -1.08491,18.49124 -40.60233,0.91024 c -22.33128,0.50063 -44.33958,1.77803 -48.90734,2.83866 -11.677,2.71139 -10.59855,14.8266 2.48441,27.90955 14.13652,14.13653 28.07028,14.0948 44.7168,-0.13392 20.42436,-17.45784 40.4629,-13.69998 40.4629,7.58808 0,14.267 -20.58455,31.12588 -44.18413,36.18708 -20.92832,4.48833 -22.72235,4.51284 -39.3895,0.53831 z m 41.68925,-109.19556 c 1.19756,-3.12079 -0.77301,-8.93431 -4.37904,-12.91893 -13.00897,-14.37474 -46.01459,-5.92302 -46.01459,11.78292 0,5.92435 3.1358,6.81016 24.10813,6.81016 18.28402,0 24.63414,-1.37078 26.2855,-5.67415 z"
       id="path343"
       transform="matrix(0.26469287,0,0,0.26469287,-0.11022934,0)" /><path
       style="fill:#0d86fd;fill-opacity:1;stroke-width:13.3927"
       d="m 909.57004,-219.97249 c -2.16337,-2.60669 -3.39812,-9.40765 -2.7439,-15.11323 0.99815,-8.70508 3.11917,-10.55984 13.18563,-11.53043 l 11.99614,-1.15665 v -45.90514 c 0,-45.12784 -0.14063,-45.9061 -8.30502,-45.96166 -13.00154,-0.0885 -18.23693,-5.30249 -16.90561,-16.83656 0.96043,-8.32088 3.77237,-11.28348 13.28312,-13.99483 8.73038,-2.48888 12.60005,-6.09181 14.00153,-13.0364 6.1471,-30.45989 22.60603,-42.82228 56.98587,-42.80242 21.6438,0.0125 26.6376,1.29729 34.7819,8.94844 10.2977,9.67425 12.9342,28.58382 5.0802,36.43774 -5.7098,5.70986 -22.3426,5.70986 -28.0525,0 -2.4361,-2.43614 -4.42932,-8.24965 -4.42932,-12.91892 0,-9.95714 -7.88962,-11.14602 -16.54282,-2.49282 -10.08423,10.08423 -5.60783,21.22977 10.08336,25.10597 12.51258,3.091 13.84168,4.59055 13.84168,15.61694 0,10.30654 -1.5737,12.54244 -10.15056,14.42179 -5.58282,1.2233 -12.27982,2.88415 -14.88223,3.69078 -3.57625,1.10848 -4.47757,12.07438 -3.69112,44.90794 l 1.04053,43.44132 11.68198,1.13321 c 6.42509,0.62327 12.6524,3.66202 13.8384,6.75277 2.3728,6.1833 -0.9398,23.1533 -4.69659,24.06029 -1.3025,0.31446 -21.06549,0.88665 -43.91774,1.27153 -30.04143,0.50597 -42.63899,-0.61291 -45.48293,-4.03966 z"
       id="path344"
       transform="matrix(0.26469287,0,0,0.26469287,-0.11022934,0)" /><path
       style="fill:#0d86fd;fill-opacity:1;stroke-width:13.3927"
       d="m 1062.6775,-217.42705 c -25.1488,-11.42123 -38.3916,-37.00587 -38.3916,-74.17147 0,-52.4722 26.1422,-80.93674 74.5049,-81.12358 34.3381,-0.13266 51.9217,10.05739 66.7375,38.6757 10.7164,20.69989 10.7164,64.19588 0,84.89577 -9.0963,17.57042 -21.1428,29.43188 -35.363,34.81977 -16.2909,6.17248 -50.5384,4.60129 -67.4878,-3.09619 z m 48.1844,-28.47975 c 15.7741,-6.05309 22.9715,-56.22315 11.3029,-78.78773 -6.3407,-12.26144 -23.1836,-17.59085 -35.2258,-11.14606 -16.6687,8.92079 -23.6076,46.6836 -13.1688,71.66707 7.3516,17.59476 21.1431,24.38675 37.0917,18.26672 z"
       id="path345"
       transform="matrix(0.26469287,0,0,0.26469287,-0.11022934,0)" /><path
       style="fill:#0d86fd;fill-opacity:1;stroke-width:13.3927"
       d="m 1211.6685,-224.84724 -12.0544,-10.76226 -1.8455,-51.06401 c -1.7261,-47.75849 -2.3235,-51.09835 -9.2278,-51.59443 -4.0602,-0.29173 -9.4585,-0.70698 -11.9962,-0.92278 -2.7278,-0.23197 -4.6139,-5.62018 -4.6139,-13.18141 0,-17.04928 7.8813,-20.77478 41.3804,-19.56064 l 26.9054,0.97517 1.0287,53.34764 c 1.1294,58.57133 3.9018,66.61377 22.9636,66.61377 14.9343,0 23.1142,-11.8266 26.2455,-37.94583 3.6587,-30.51835 -0.1074,-48.66935 -10.2063,-49.19024 -11.5631,-0.5964 -16.0392,-4.6437 -16.0392,-14.50249 0,-13.85786 12.8216,-19.64537 43.3706,-19.57696 l 26.7606,0.0599 0.057,55.9639 c 0.031,30.78014 1.2768,57.8727 2.7683,60.20568 1.4915,2.33298 6.6947,4.82448 11.5627,5.53668 12.6168,1.84587 17.638,11.33507 12.2525,23.15497 -4.0982,8.99451 -5.8484,9.51445 -32.0273,9.51445 -26.6292,0 -27.7832,-0.36251 -30.0626,-9.44426 l -2.3703,-9.44426 -7.8506,7.35283 c -11.1527,10.44567 -25.8443,15.22681 -46.7893,15.22681 -14.841,0 -20.3587,-1.96556 -30.2115,-10.76225 z"
       id="path346"
       transform="matrix(0.26469287,0,0,0.26469287,-0.11022934,0)" /><path
       style="fill:#0d86fd;fill-opacity:1;stroke-width:13.3927"
       d="m 1374.3354,-218.15181 c -1.9773,-1.2217 -3.0648,-8.69621 -2.4168,-16.61004 1.0862,-13.26496 2.0431,-14.38878 12.2516,-14.38878 h 11.0733 v -44.29345 -44.29344 h -11.0733 c -9.8409,0 -11.2041,-1.36208 -12.248,-12.23726 -1.7503,-18.23433 2.9207,-21.31138 31.4186,-20.69739 l 25.1228,0.54127 1.9284,16.19669 c 1.5928,13.37777 2.4301,14.77947 4.8112,8.05378 9.3163,-26.31553 50.9589,-36.50332 70.2706,-17.1916 12.296,12.29599 13.4411,34.54349 2.3489,45.63567 -14.1,14.1 -34.4025,6.45931 -32.5769,-12.26007 0.9718,-9.96459 0.036,-11.54299 -6.209,-10.47629 -19.5671,3.34207 -28.7696,25.57747 -26.9777,65.18425 1.0331,22.83522 2.0269,25.88157 8.5512,26.21411 15.6179,0.79604 16.6101,1.64253 16.6101,14.17037 0,6.9856 -2.0763,13.98951 -4.6139,15.56424 -5.4177,3.36197 -83.0039,4.14242 -88.2711,0.88794 z"
       id="path347"
       transform="matrix(0.26469287,0,0,0.26469287,-0.11022934,0)" /><path
       style="fill:#0d86fd;fill-opacity:1;stroke-width:13.3927"
       d="m 1915.6915,-108.52821 c -33.334,-14.71402 -49.2817,-68.11396 -52.4683,-175.68806 -2.7958,-94.37701 9.4326,-152.77706 38.7951,-185.27788 17.8103,-19.71392 29.7243,-25.11599 55.3919,-25.11599 34.6266,0 60.6586,22.07686 61.3013,51.98736 0.3176,14.78309 -0.2807,15.63318 -14.4331,20.50466 -21.3214,7.3392 -27.6834,16.72683 -27.6834,40.84934 0,34.13759 13.9405,49.06794 45.8149,49.06794 19.3735,0 32.4244,-9.24596 43.3896,-30.73963 7.0397,-13.7989 7.5564,-19.03385 5.3395,-54.09512 -1.35,-21.34978 -3.4738,-43.8008 -4.7196,-49.89115 -2.2214,-10.85937 -1.9799,-10.75237 12.4949,5.53668 82.6951,93.05989 136.5556,157.5216 134.5192,160.99632 -3.8098,6.50077 -145.8499,174.84559 -146.7222,173.89391 -0.4254,-0.46408 0.8553,-10.80985 2.846,-22.99055 7.0313,-43.0236 -5.5527,-100.56804 -25.4081,-116.18627 -14.5654,-11.4571 -34.9643,-9.92826 -50.5904,3.7916 -15.9079,13.96735 -22.2135,31.9232 -18.9209,53.87959 2.9671,19.78617 12.7814,30.83168 27.3948,30.83168 8.2725,0 11.188,2.05117 12.9619,9.11905 3.2722,13.03729 -3.2175,38.14679 -12.3799,47.89972 -14.9302,15.89252 -62.7643,22.290746 -86.9232,11.6268 z"
       id="path348"
       transform="matrix(0.26469287,0,0,0.26469287,-0.11022934,0)" /><path
       style="fill:#ce3f36;fill-opacity:1;stroke-width:13.3927"
       d="m 1749.5014,-214.94995 c -36.1894,-41.14165 -68.8852,-78.29098 -72.6572,-82.55407 -6.8129,-7.69987 -6.3758,-8.28824 66.1644,-89.06479 40.1625,-44.72255 73.6086,-80.78952 74.3248,-80.14883 0.7162,0.64069 -2.1103,11.65228 -6.2811,24.47018 -26.9218,82.73699 -27.9959,158.36922 -3.6252,255.26589 6.047,24.04241 10.2922,44.41572 9.4339,45.27404 -0.8583,0.85832 -31.1701,-32.10077 -67.3596,-73.24242 z"
       id="path349"
       transform="matrix(0.26469287,0,0,0.26469287,-0.11022934,0)" /></g></svg>
