<?xml version="1.0" encoding="UTF-8" standalone="no"?>
<svg
   height="476.77899"
   viewBox="0 0 640.2 126.2"
   width="2419.4851"
   version="1.1"
   id="svg14"
   sodipodi:docname="aliexpress.svg"
   xml:space="preserve"
   inkscape:export-filename="magazineluiza.svg"
   inkscape:export-xdpi="96"
   inkscape:export-ydpi="96"
   xmlns:inkscape="http://www.inkscape.org/namespaces/inkscape"
   xmlns:sodipodi="http://sodipodi.sourceforge.net/DTD/sodipodi-0.dtd"
   xmlns="http://www.w3.org/2000/svg"
   xmlns:svg="http://www.w3.org/2000/svg"><defs
     id="defs14" /><sodipodi:namedview
     id="namedview14"
     pagecolor="#ffffff"
     bordercolor="#000000"
     borderopacity="0.25"
     inkscape:showpageshadow="2"
     inkscape:pageopacity="0.0"
     inkscape:pagecheckerboard="0"
     inkscape:deskcolor="#d1d1d1"
     inkscape:export-bgcolor="#ffffff00" /><g
     id="g259"
     transform="matrix(0.74492625,0,0,0.72514468,147.35983,250.75461)"><path
       style="fill:#d7e5f0"
       d="m -65.881021,-240.6986 c 4e-6,-28.09715 0.03098,-39.55219 0.06883,-25.45564 0.03785,14.09655 0.03785,37.08513 -7e-6,51.08573 -0.03786,14.0006 -0.06883,2.46706 -0.06883,-25.63009 z m 179.298331,40.56418 c 0.34132,-0.43521 1.63726,-0.45931 21.44013,-0.39866 l 21.07684,0.0646 -21.01789,0.0694 c -16.27004,0.0537 -21.11328,0.14378 -21.44013,0.39866 -0.37377,0.29148 -0.38054,0.27611 -0.0589,-0.13395 z m 325.32032,0 c 0.32867,-0.43435 1.66576,-0.46321 21.46112,-0.46321 19.79535,0 21.13244,0.0289 21.46112,0.46321 0.29819,0.39407 0.29512,0.41382 -0.0205,0.13235 -0.29024,-0.25882 -4.9593,-0.33087 -21.44059,-0.33087 -16.4813,0 -21.15036,0.0721 -21.4406,0.33087 -0.31565,0.28147 -0.31871,0.26172 -0.0205,-0.13235 z m -180.83042,-11.24941 c 8.91685,-0.0387 23.50804,-0.0387 32.42488,0 8.91684,0.0386 1.62125,0.0703 -16.21244,0.0703 -17.83368,0 -25.12928,-0.0316 -16.21244,-0.0703 z m -273.295393,-0.52937 c 7.8249829,-0.039 20.6295009,-0.039 28.454484,0 7.824983,0.0389 1.422724,0.0708 -14.2272421,0.0708 -15.6499669,0 -22.0522259,-0.0319 -14.2272419,-0.0708 z m 138.733063,-8.65717 c -0.0826,-0.21513 -0.0887,-0.54397 -0.0137,-0.73075 0.075,-0.18678 0.14582,-0.0716 0.15732,0.25596 l 0.0209,0.59556 h 11.23104 c 10.47763,0 11.23846,-0.0311 11.34164,-0.46321 0.0842,-0.3526 0.10438,-0.3368 0.0846,0.0662 -0.0255,0.5196 -0.23535,0.53066 -11.34885,0.59841 -9.78841,0.0597 -11.34318,0.016 -11.47293,-0.32214 z m 325.64532,0.18695 c -0.0675,-0.10919 4.97636,-0.19852 11.20855,-0.19852 6.23218,0 11.27603,0.0893 11.20855,0.19852 -0.0675,0.10918 -5.11133,0.19851 -11.20855,0.19851 -6.09723,0 -11.14107,-0.0893 -11.20855,-0.19851 z m -464.225771,-13.76399 c 7.763339,-0.039 20.3891893,-0.039 28.057445,2e-5 7.668256,0.039 1.316433,0.0709 -14.1151616,0.0709 -15.4315944,-1e-5 -21.7056224,-0.0319 -13.9422834,-0.0709 z m 474.386141,-11.61721 c -0.006,-0.16585 0.22763,-0.58274 0.51879,-0.92642 l 0.52939,-0.62489 0.52938,0.62489 c 0.29116,0.34368 0.52462,0.76057 0.51879,0.92642 -0.006,0.16585 -0.1883,-0.026 -0.40549,-0.42636 -0.21719,-0.40035 -0.5064,-0.72791 -0.64268,-0.72791 -0.13629,0 -0.42549,0.32756 -0.64268,0.72791 -0.2172,0.40035 -0.39967,0.59221 -0.4055,0.42636 z M 46.615817,-246.1253 c -0.176388,-0.28541 0.940447,-0.80432 1.671868,-0.77681 0.312905,0.0118 0.263198,0.0901 -0.166583,0.26246 -0.33691,0.13512 -0.538326,0.36579 -0.447591,0.5126 0.09074,0.14682 -0.07325,0.26694 -0.364413,0.26694 -0.291162,0 -0.603138,-0.11934 -0.693281,-0.26519 z m -14.999255,-22.26173 c -0.825124,-0.85551 -1.294109,-1.44516 -1.04219,-1.31034 0.476818,0.25519 2.674761,2.54639 2.674761,2.78826 0,0.21099 -0.02864,0.18506 -1.632571,-1.47792 z m -47.025043,-2.55268 c 7.8138194,-0.0389 20.6778933,-0.0389 28.586831,-2e-5 7.908937,0.0389 1.515812,0.0708 -14.2069447,0.0708 -15.7227573,2e-5 -22.1937063,-0.0318 -14.3798863,-0.0708 z m 77.634385,-14.16112 -1.845751,-1.91903 1.919024,1.84575 c 1.055462,1.01517 1.919023,1.87873 1.919023,1.91903 0,0.19415 -0.277962,-0.0634 -1.992296,-1.84575 z m -117.434914,-6.73998 c 0.494451,-0.0945 0.551386,-0.18858 0.298455,-0.49334 -0.346492,-0.4175 -0.05226,-0.49617 0.514083,-0.13745 0.541783,0.34316 0.104537,0.82486 -0.711265,0.78357 -0.646093,-0.0327 -0.655504,-0.0469 -0.101273,-0.15278 z m 6.279212,-0.0626 c -0.08546,-0.13828 0.0835,-0.37926 0.375461,-0.53551 0.426748,-0.22839 0.502247,-0.20958 0.385018,0.0959 -0.08701,0.22675 0.04883,0.43034 0.336823,0.50481 0.327242,0.0846 0.253303,0.13468 -0.229636,0.15549 -0.391757,0.0169 -0.782206,-0.0824 -0.867666,-0.2207 z m 54.2017153,0.0662 c 0.40267,-0.10441 0.4233562,-0.1901 0.1323465,-0.54824 -0.2971664,-0.36571 -0.2777912,-0.3993 0.1399388,-0.24258 0.2666736,0.10005 0.5346752,0.18191 0.595559,0.18191 0.060884,0 0.1106979,0.17867 0.1106979,0.39704 0,0.26411 -0.2436938,0.38676 -0.7279054,0.36633 -0.473739,-0.02 -0.5612551,-0.0739 -0.2506368,-0.15446 z m 6.6680557,-0.0818 c -0.09074,-0.14682 0.110681,-0.37116 0.447591,-0.49854 0.702617,-0.26565 1.041564,-0.11085 0.495816,0.22644 -0.276033,0.1706 -0.209023,0.25588 0.272359,0.3466 0.523609,0.0987 0.486521,0.12682 -0.206163,0.15638 -0.464547,0.0198 -0.918868,-0.0841 -1.009603,-0.23088 z m 57.373565,-0.45528 c 0.545929,-0.0571 1.439267,-0.0571 1.985196,0 0.545929,0.0571 0.09926,0.10383 -0.992598,0.10383 -1.091858,0 -1.538527,-0.0467 -0.992598,-0.10383 z"
       id="path278" /><path
       style="fill:#f7cfd0"
       d="m -55.603289,-292.10376 c 0.09301,-0.1505 -0.559082,-0.57999 -1.481087,-0.97549 -2.291042,-0.98276 -3.97353,-2.28583 -5.329257,-4.12745 -1.273712,-1.73021 -2.671148,-4.84073 -2.915177,-6.48881 -0.111611,-0.75378 -0.01482,-0.58364 0.335997,0.59065 1.499536,5.01934 4.635523,8.67239 8.60637,10.0254 1.236328,0.42126 1.486301,0.70731 0.922564,1.05571 -0.174446,0.10782 -0.234274,0.0735 -0.13941,-0.08 z m 7.76817,0.0106 c -0.369282,-0.36928 -0.130148,-0.56357 1.36436,-1.10849 3.921351,-1.4298 6.620493,-4.55364 7.834225,-9.0669 0.211063,-0.78484 0.391589,-1.16439 0.40117,-0.84346 0.02683,0.89871 -1.128645,3.85815 -2.093298,5.36144 -1.210752,1.88679 -3.220301,3.55531 -5.475806,4.54653 -1.05627,0.4642 -1.85884,0.94375 -1.783488,1.06567 0.163584,0.26468 0.0019,0.29426 -0.247163,0.0452 z m 61.298459,0.001 c -0.675709,-0.27265 -0.284862,-0.55265 1.412937,-1.01223 4.218601,-1.14192 7.020057,-4.29423 7.765853,-8.73845 0.166979,-0.99503 0.229773,-1.1169 0.253037,-0.49109 0.01702,0.4578 -0.209713,1.61152 -0.503849,2.56383 -0.968279,3.13492 -3.582118,5.6541 -7.07133,6.81523 -0.914054,0.30418 -1.594479,0.66217 -1.512054,0.79553 0.1626,0.2631 0.147988,0.26595 -0.344594,0.0672 z M 4.6623022,-292.436 c -0.2183716,-0.12292 -1.2045732,-0.60157 -2.1915591,-1.06365 -1.0541149,-0.49351 -2.3288986,-1.37453 -3.08969404,-2.13533 -1.30363386,-1.30363 -2.78435276,-3.91883 -3.07965376,-5.43919 l -0.1592056,-0.81967 3.1544975,-0.83466 c 1.7349736,-0.45906 3.2331011,-0.83466 3.3291722,-0.83466 0.096071,0 0.4703601,0.58351 0.8317534,1.29668 1.6783855,3.31214 6.0777655,4.72424 9.6037952,3.08261 1.779354,-0.82842 2.527846,-1.94684 2.366119,-3.53552 -0.221768,-2.17848 -1.38878,-2.89594 -7.1918709,-4.42145 -7.47689706,-1.96552 -9.8404831,-4.18322 -10.3406129,-9.70234 -0.1919171,-2.11788 0.2470082,-4.44327 1.21878551,-6.45703 1.14022428,-2.36282 4.72990449,-4.97231 7.27547269,-5.28884 0.9014275,-0.11209 0.8475492,-0.0725 -0.3758396,0.27607 -3.5252996,1.00448 -6.15651079,3.34349 -7.2178016,6.41625 -0.4938428,1.42983 -0.6116864,2.29653 -0.585318,4.30485 0.041223,3.1397 0.6946617,5.03015 2.29481803,6.6391 1.47652097,1.48463 3.47418927,2.37648 8.25988157,3.68761 4.5771782,1.25399 5.9561172,1.94897 6.6127872,3.3328 2.366593,4.98722 -6.8140413,7.91017 -10.8975401,3.46957 -0.56402,-0.61334 -1.1851445,-1.50228 -1.3802765,-1.97542 -0.1951321,-0.47313 -0.4296688,-0.86014 -0.5211926,-0.86001 -0.3477176,4.9e-4 -5.90184,1.54422 -6.0350103,1.67739 -0.2199728,0.21998 0.432616,2.03112 1.2651596,3.51122 1.31106237,2.33083 3.7077133,4.25134 6.3864339,5.11766 0.5439014,0.17591 1.0571562,0.43025 1.1405661,0.56521 0.1843816,0.29834 -0.1350445,0.29395 -0.6736669,-0.009 z m -39.5855152,-0.34795 c -0.148541,-0.3871 10.116131,-35.09083 10.528045,-35.59417 0.300152,-0.36677 8.038029,-0.48258 8.57239,-0.12829 0.393839,0.26112 10.5189566,35.43232 10.3015546,35.78409 -0.1054024,0.17054 -1.5849977,0.27626 -3.866493,0.27626 -4.3008826,0 -3.7267426,0.46908 -5.0216486,-4.10274 -0.453573,-1.60139 -0.93942,-3.03073 -1.079659,-3.17631 -0.141834,-0.14724 -2.51049,-0.33204 -5.337841,-0.41646 l -5.08286,-0.15175 5.20625,0.0194 c 2.863438,0.0107 5.293833,0.10727 5.400877,0.21466 0.107045,0.10739 0.637894,1.7154 1.179664,3.57335 l 0.985036,3.37811 3.7587715,0.0736 c 3.4960828,0.0684 3.7492077,0.0407 3.6219183,-0.39704 -0.07527,-0.25883 -2.2909345,-7.97464 -4.9236998,-17.14625 -2.632766,-9.17161 -4.901771,-16.94669 -5.042234,-17.27795 -0.252262,-0.59492 -0.306418,-0.6014 -4.424211,-0.52938 l -4.168823,0.0729 -5.081907,17.0727 c -2.79505,9.38998 -5.15099,17.34069 -5.235424,17.66824 -0.152506,0.59165 -0.133766,0.59556 2.849597,0.59556 h 3.003112 l 0.868495,-3.11014 c 0.939717,-3.36519 1.211449,-4.03656 1.633758,-4.03656 0.150858,0 0.112487,0.1618 -0.08527,0.35955 -0.197755,0.19776 -0.754602,1.77599 -1.237436,3.50718 -0.482835,1.7312 -0.999242,3.29652 -1.147573,3.47849 -0.384146,0.47129 -5.993295,0.4649 -6.17439,-0.007 z m 60.849742,-0.0772 c -0.169507,-0.44173 10.083444,-34.95019 10.551904,-35.51465 0.3915,-0.47173 8.244773,-0.47385 8.605454,-0.002 0.139198,0.18198 2.551759,8.23504 5.361246,17.8957 4.141033,14.2393 5.038893,17.60871 4.742314,17.79655 -0.596975,0.37809 -7.267947,0.29801 -7.585076,-0.0911 -0.148331,-0.18197 -0.664738,-1.74729 -1.147573,-3.47849 -0.482834,-1.73119 -1.03968,-3.30942 -1.237436,-3.50718 -0.197756,-0.19775 -0.236127,-0.35955 -0.08527,-0.35955 0.422309,0 0.694042,0.67137 1.633758,4.03656 l 0.868495,3.11014 h 3.797191 3.797191 l -0.149804,-0.59556 c -0.08239,-0.32755 -2.39147,-8.27826 -5.131283,-17.66824 l -4.981479,-17.0727 h -4.204184 -4.204184 l -5.219378,17.33739 c -2.870658,9.53556 -5.223116,17.49017 -5.227684,17.67692 -0.0064,0.26076 0.67481,0.32217 2.936349,0.26469 l 2.944655,-0.0748 0.984891,-3.37811 c 0.541691,-1.85795 1.072474,-3.46596 1.179519,-3.57335 0.107044,-0.10739 2.537439,-0.20399 5.400877,-0.21466 l 5.20625,-0.0194 -5.08286,0.15175 c -2.827351,0.0844 -5.196007,0.26922 -5.337841,0.41646 -0.140239,0.14558 -0.626086,1.57492 -1.079659,3.17631 -1.281784,4.52549 -0.843706,4.10274 -4.251499,4.10274 -2.412876,0 -2.953518,-0.0727 -3.084885,-0.41508 z m 38.56561,-0.12418 c -3.65375,-1.31382 -6.331035,-4.19598 -7.440201,-8.00955 -0.180725,-0.62138 -0.122009,-0.78001 0.365323,-0.98701 0.530297,-0.22525 5.775561,-1.58128 6.116542,-1.58128 0.08035,0 0.441779,0.58351 0.803172,1.29668 1.223985,2.41542 3.569934,3.73767 6.611872,3.72667 2.647641,-0.01 4.787403,-1.36488 5.423488,-3.43519 l 0.284637,-0.92643 -0.134506,0.92643 c -0.188802,1.30039 -0.889496,2.13409 -2.502729,2.97779 -3.522738,1.84236 -8.575583,0.11066 -10.040363,-3.44101 -0.195132,-0.47313 -0.429668,-0.85718 -0.521192,-0.85343 -0.09152,0.004 -1.476637,0.33827 -3.078029,0.74336 -2.48368,0.62828 -2.923714,0.81921 -2.993897,1.29903 -0.09797,0.66981 1.254832,3.49155 2.235727,4.6634 1.046741,1.25051 3.027467,2.6542 4.486766,3.17967 1.766779,0.63618 2.410249,0.92269 2.094648,0.93267 -0.145582,0.005 -0.915647,-0.22571 -1.711258,-0.5118 z m 9.78439,0.43269 c 0,-0.0586 0.808424,-0.35211 1.796497,-0.65223 4.189406,-1.27249 6.944539,-4.61874 7.547808,-9.16718 l 0.10532,-0.79408 0.03966,0.83237 c 0.02181,0.4578 -0.200997,1.61152 -0.495132,2.56383 -0.958103,3.10197 -3.528756,5.59998 -6.98422,6.78686 -1.559475,0.53564 -2.009932,0.63211 -2.009932,0.43043 z m -127.681289,-6.10554 c -0.564161,-0.20109 -1.417491,-0.74532 -1.89629,-1.20939 -0.940898,-0.91195 -2.153133,-3.34933 -2.381064,-4.78748 -0.08601,-0.5427 0.05705,-0.30091 0.364494,0.61604 1.449716,4.32376 4.022294,6.16385 7.324798,5.2392 2.330635,-0.65253 4.027404,-2.72889 4.487381,-5.49127 l 0.187321,-1.12494 1.234025,0.0329 c 0.678714,0.0181 2.008252,0.12325 2.954529,0.23371 1.289003,0.15047 1.012658,0.1702 -1.101858,0.0787 l -2.822361,-0.12219 -0.302974,1.45942 c -0.827406,3.9856 -4.53888,6.32619 -8.048001,5.07536 z m 129.269447,-5.24159 c -0.56699,-1.22029 -2.393075,-2.0908 -6.749669,-3.21762 -4.493305,-1.16219 -6.661006,-2.19527 -8.201494,-3.90866 -1.061378,-1.18051 -2.009482,-3.18042 -1.974315,-4.16459 0.0082,-0.22883 0.255147,0.34281 0.548823,1.27031 0.402445,1.27103 0.840254,1.99267 1.777582,2.93 1.618926,1.61893 3.390064,2.43047 7.880313,3.61081 2.021135,0.53128 4.18176,1.20388 4.801388,1.49466 1.182056,0.55472 2.446757,1.83368 2.446757,2.47434 0,0.54556 -0.08514,0.46688 -0.529385,-0.48925 z m 7.585013,-2.17635 c -0.37988,-2.77152 -2.626474,-5.59939 -5.55404,-6.99106 -0.898664,-0.4272 -3.122832,-1.08945 -4.942595,-1.47167 -5.487629,-1.15261 -7.143413,-2.26578 -7.145718,-4.80402 -0.0038,-4.17083 7.585179,-4.87036 10.231732,-0.94314 0.321216,0.47665 0.629682,1.0036 0.685479,1.17099 0.118335,0.355 5.757451,-1.56028 5.757451,-1.95548 0,-0.13458 -0.307801,-0.85211 -0.684002,-1.59451 -1.420569,-2.80335 -3.912438,-4.73401 -7.256785,-5.62242 -0.800696,-0.2127 -1.206456,-0.39456 -0.901689,-0.40414 1.780669,-0.056 5.659576,2.03188 7.055582,3.79774 0.926624,1.17212 2.051586,3.28024 2.051586,3.84457 0,0.31434 -0.785356,0.70643 -2.845448,1.4206 -1.564997,0.54253 -2.923464,0.98453 -3.018817,0.98221 -0.09535,-0.002 -0.485631,-0.53705 -0.867286,-1.1883 -0.947781,-1.61726 -2.579475,-2.54384 -4.792522,-2.72148 -3.071937,-0.24658 -5.151578,1.02921 -5.151578,3.16033 0,2.45001 1.546813,3.48318 6.882015,4.59673 5.337778,1.11409 8.084588,2.77571 9.748194,5.89695 0.734511,1.37809 1.420111,4.01558 1.043824,4.01558 -0.07279,0 -0.205713,-0.53526 -0.295383,-1.18948 z m -141.614997,-0.8255 c -0.09312,-0.67937 -0.150747,-2.32038 -0.128063,-3.64668 0.0384,-2.24498 0.05455,-2.16477 0.233985,1.16189 0.106008,1.96534 0.163637,3.60635 0.128063,3.64668 -0.03557,0.0403 -0.140867,-0.48252 -0.233985,-1.16189 z m 33.534063,0.27273 c -0.08839,-0.23034 0.602031,-3.1188 1.534264,-6.4188 1.442652,-5.10683 1.769375,-6.00001 2.19479,-6.00001 0.406455,0 0.64044,0.49443 1.252628,2.64692 0.414045,1.45582 0.718223,2.75162 0.675951,2.87958 -0.04227,0.12795 -0.414462,-0.97618 -0.827088,-2.45362 -0.412626,-1.47744 -0.85367,-2.75019 -0.980098,-2.82832 -0.126427,-0.0781 -0.347976,0.13265 -0.492329,0.46842 -0.39083,0.90907 -3.180798,10.93678 -3.180798,11.43243 0,0.37242 0.460349,0.4275 3.573353,0.4275 2.610111,0 3.573354,-0.0859 3.573354,-0.31881 0,-0.17534 -0.367092,-1.61477 -0.81576,-3.19874 -0.448668,-1.58397 -0.766927,-2.92878 -0.707241,-2.98847 0.195627,-0.19563 1.829155,6.01618 1.68255,6.39823 -0.113142,0.29484 -0.891197,0.37248 -3.732903,0.37248 -3.029776,0 -3.615045,-0.0654 -3.750673,-0.41879 z m 60.712089,0.063 c -0.0751,-0.1957 0.658292,-3.08416 1.629751,-6.41881 2.336758,-8.02118 2.225369,-8.02139 4.415514,0.008 0.910794,3.33929 1.596005,6.22775 1.522693,6.4188 -0.195326,0.50901 -7.372465,0.50099 -7.567958,-0.008 z m 7.321589,-0.11312 c 0.106686,-0.17262 -2.645228,-10.64812 -3.127241,-11.90422 -0.111137,-0.28962 -0.246647,-0.33539 -0.435083,-0.14696 -0.352061,0.35206 -3.680821,11.77423 -3.511298,12.04852 0.165959,0.26853 6.90774,0.27107 7.073622,0.003 z m -21.339729,-1.35074 c -1.166765,-3.2851 -4.400327,-5.40016 -9.989012,-6.53376 -3.6733491,-0.7451 -5.8013365,-1.62511 -6.4969459,-2.68674 -0.7123431,-1.08717 -0.7762201,-2.70105 -0.1465886,-3.70361 0.8412416,-1.33951 1.9517901,-1.79227 4.3936448,-1.79125 2.9088337,0.001 4.2743087,0.74686 5.9555897,3.25216 l 0.397039,0.59164 2.514583,-0.83767 c 3.295372,-1.09777 3.289231,-1.092 2.603614,-2.44475 -1.018771,-2.01008 -2.170054,-3.36912 -3.745046,-4.42086 -2.06273,-1.37744 -3.688233,-1.84927 -7.196394,-2.08889 l -2.9116216,-0.19888 2.2498895,-0.0367 c 4.0303811,-0.0658 7.2252341,1.06752 9.5429931,3.38528 1.366661,1.36666 3.088736,4.42565 2.706581,4.80781 -0.222545,0.22254 -5.525548,2.08536 -5.936534,2.08536 -0.110147,0 -0.404663,-0.43073 -0.654481,-0.95718 -0.929618,-1.95903 -3.528126,-3.1802 -6.2474584,-2.936 -2.6905234,0.24161 -4.1631599,1.70663 -3.8229388,3.80317 0.3279761,2.02108 1.82737,2.88547 6.7733952,3.90483 3.893278,0.80239 6.139397,1.78552 7.951185,3.48024 1.269055,1.18705 2.81263,3.75282 2.614784,4.34636 -0.05161,0.15483 -0.301936,-0.3044 -0.556278,-1.02052 z m -88.251248,-3.34184 c 0.0012,-1.01907 0.04902,-1.40353 0.106316,-0.85435 0.0573,0.54918 0.05634,1.38296 -0.0021,1.85285 -0.05847,0.46989 -0.105355,0.0206 -0.104181,-0.9985 z m 8.2538,-3.21185 c 0.232729,-3.28606 1.932283,-6.52295 3.933617,-7.49178 2.252708,-1.09052 5.192862,-0.44916 6.640267,1.44848 0.816795,1.07088 1.478635,2.81824 1.43781,3.79605 -0.02133,0.51093 -0.08551,0.41462 -0.242667,-0.36414 -0.117516,-0.58233 -0.33471,-1.3731 -0.482653,-1.75728 -0.404345,-1.04999 -1.906204,-2.64285 -2.872569,-3.04662 -1.025424,-0.42845 -2.936158,-0.46511 -3.965798,-0.0761 -2.055869,0.77676 -3.686139,3.62776 -4.311216,7.53941 l -0.251787,1.57565 z m -7.947092,-0.37453 c 0.204417,-3.34378 2.010474,-7.07341 4.81124,-9.93554 2.640094,-2.69795 5.88308,-4.07112 9.628558,-4.07702 6.828974,-0.0107 11.822296,4.08411 13.140725,10.77628 0.565098,2.86836 0.496833,2.99656 -1.562665,2.93456 l -1.662638,-0.05 1.535515,-0.0959 c 1.015947,-0.0634 1.584538,-0.22366 1.680394,-0.47346 0.255009,-0.66454 -0.667132,-4.43743 -1.496247,-6.12182 -2.043665,-4.1518 -6.488147,-6.713 -11.635084,-6.7049 -3.858469,0.006 -6.926501,1.36067 -9.670949,4.26993 -2.676159,2.83687 -4.095253,5.75543 -4.634906,9.53232 l -0.23992,1.67914 z m 21.774464,-0.17845 c 0.473139,-0.0587 1.247365,-0.0587 1.720504,0 0.473139,0.0587 0.08602,0.10675 -0.860252,0.10675 -0.946277,0 -1.33339,-0.048 -0.860252,-0.10675 z m 102.810872,-2.45545 c -0.132593,-7.00473 4.645884,-11.47559 12.121449,-11.34114 l 2.260451,0.0406 -2.911621,0.19564 c -3.925712,0.26377 -6.207414,1.12725 -8.27127,3.13015 -1.92955,1.87256 -2.672889,3.73981 -2.963929,7.44531 l -0.197502,2.51458 z m -166.521891,-12.09977 c -0.0319,-0.74154 1.16307,-3.36359 2.35159,-5.16013 2.2725,-3.43503 6.096248,-6.62207 9.450957,-7.87723 0.79099,-0.29594 1.582586,-0.53188 1.759101,-0.52429 0.176515,0.008 -0.421642,0.28969 -1.32924,0.6269 -2.656361,0.98696 -4.545468,2.25281 -6.949088,4.65642 -2.40361,2.40362 -3.66946,4.29273 -4.65641,6.94909 -0.33722,0.90759 -0.61932,1.50575 -0.62691,1.32924 z m 675.94212,-1.17355 c -0.74313,-2.34858 -2.31822,-4.73167 -4.69803,-7.10804 -2.40475,-2.40127 -4.29517,-3.66711 -6.94908,-4.65316 -0.9076,-0.33721 -1.50576,-0.61932 -1.32924,-0.6269 0.73572,-0.0316 3.35943,1.15975 5.16013,2.34309 2.45193,1.61131 4.44711,3.60649 6.05843,6.05843 1.23716,1.88259 2.46238,4.63516 2.29145,5.14795 -0.0469,0.14067 -0.28703,-0.38195 -0.53366,-1.16137 z"
       id="path277" /><path
       style="fill:#c7dbeb"
       d="m -37.887078,-189.67904 c 15.540781,-0.0377 40.9711489,-0.0377 56.51193,0 15.54078,0.0377 2.825596,0.0686 -28.2559652,0.0686 -31.0815618,0 -43.7967458,-0.0309 -28.2559648,-0.0686 z m 107.310905,0.022 c -0.09705,-0.0971 -0.174638,-0.3055 -0.172409,-0.46322 0.0024,-0.16777 0.09209,-0.14806 0.216233,0.0475 0.168423,0.26532 4.256307,0.31991 19.822679,0.2647 10.78577,-0.0383 19.55527,0.0198 19.48777,0.12896 -0.15161,0.24522 -39.109274,0.26706 -39.354273,0.0221 z m 91.315733,-0.0221 c -0.11134,-0.18001 13.88682,-0.1779 32.51642,0.005 3.93069,0.0386 -1.74987,0.0979 -12.62347,0.13187 -10.87359,0.034 -19.82542,-0.0276 -19.89295,-0.13678 z m 62.62216,9.8e-4 17.66518,-0.0709 0.0739,-10.32121 0.0739,-10.3212 -0.005,10.38925 -0.005,10.38925 -17.73442,0.003 -17.73443,0.003 z m 83.70068,-0.13406 c -0.07,-0.18238 -0.0946,-4.91707 -0.0546,-10.52154 l 0.0726,-10.18995 0.0629,10.38732 0.0629,10.38732 17.66825,0.07 17.66825,0.07 -17.67656,0.0643 c -13.9655,0.0508 -17.70327,-0.005 -17.8038,-0.26733 z m 64.00102,0.13406 17.66825,-0.0709 v -50.94962 -50.94963 l -17.66825,-0.0709 -17.66825,-0.0709 17.73442,0.003 17.73443,0.003 v 51.08573 51.08572 l -17.73443,0.003 -17.73442,0.003 z m 33.48365,-8.8e-4 c 5.42289,-0.04 14.29672,-0.04 19.71962,0 5.42289,0.04 0.98598,0.0727 -9.85981,0.0727 -10.84579,0 -15.28271,-0.0327 -9.85981,-0.0727 z m 88.73829,0.005 c 18.24858,-0.18273 32.49537,-0.18491 32.38407,-0.005 -0.0675,0.10918 -8.95981,0.17077 -19.76061,0.13686 -10.8008,-0.0339 -16.48136,-0.0933 -12.62346,-0.1319 z m -287.5915,-51.02451 c 0,-27.95157 0.031,-39.34705 0.0688,-25.3233 0.0379,14.02376 0.0379,36.89322 0,50.82104 -0.0379,13.92781 -0.0688,2.45382 -0.0688,-25.49774 z m 136.84622,0 c 0,-27.95157 0.031,-39.34705 0.0688,-25.3233 0.0379,14.02376 0.0379,36.89322 0,50.82104 -0.0379,13.92781 -0.0688,2.45382 -0.0688,-25.49774 z m 10.85241,0 c 0,-27.95157 0.031,-39.34705 0.0688,-25.3233 0.0379,14.02376 0.0379,36.89322 -1e-5,50.82104 -0.0379,13.92781 -0.0688,2.45382 -0.0688,-25.49774 z m -383.284597,17.73442 c 7.4e-5,-5.67766 0.03513,-7.96268 0.07789,-5.07781 0.04276,2.88487 0.0427,7.53023 -1.36e-4,10.32302 -0.04284,2.7928 -0.07783,0.43245 -0.07775,-5.24521 z m 102.671218,5.02916 c 9.62e-4,-1.16464 0.0475,-1.60817 0.103412,-0.9856 0.05591,0.62257 0.05513,1.57546 -0.0017,2.11755 -0.05688,0.54208 -0.102625,0.0327 -0.101664,-1.13195 z m 185.260449,-12.242 c 8.84405,-0.0387 23.31613,-0.0387 32.16019,0 8.84405,0.0387 1.608,0.0703 -16.0801,0.0703 -17.6881,0 -24.92414,-0.0316 -16.08009,-0.0703 z m -16.94148,-31.09958 -0.065,-30.37163 -17.66825,-0.07 -17.66825,-0.07 17.67656,-0.0643 c 13.94518,-0.0507 17.70316,0.006 17.80257,0.2666 0.0693,0.18198 0.0948,13.90961 0.0567,30.50586 l -0.0693,30.17498 z m 65.97415,-0.13421 0.002,-30.37352 17.60207,-0.003 17.60208,-0.003 -17.53479,0.0709 -17.53478,0.0709 -0.069,30.30547 -0.069,30.30546 z m -242.598379,23.55766 -1.446769,-1.52199 1.521984,1.44677 c 1.413971,1.34409 1.643238,1.5972 1.446769,1.5972 -0.04137,0 -0.726261,-0.68489 -1.521984,-1.52198 z m -79.577092,-17.205 c 7.6905396,-0.039 20.1972781,-0.039 27.792752,2e-5 7.595475,0.039 1.303215,0.0709 -13.9827986,0.0709 -15.2860134,-1e-5 -21.5004924,-0.0319 -13.8099534,-0.0709 z m -14.793363,-7.87465 c -1.42e-4,-3.93069 0.0367,-5.5756 0.08186,-3.65536 0.04516,1.92025 0.04528,5.13627 2.58e-4,7.14671 -0.04502,2.01044 -0.08197,0.43933 -0.08212,-3.49135 z m 98.966132,-6.35263 c 0.0012,-1.01907 0.04902,-1.40353 0.106316,-0.85435 0.0573,0.54917 0.05634,1.38296 -0.0021,1.85285 -0.05847,0.46989 -0.105355,0.0206 -0.104181,-0.9985 z m 44.819482,-22.43272 c 0.0675,-0.10919 9.45891,-0.19852 20.86984,-0.19852 11.41093,0 20.80236,0.0893 20.86984,0.19852 0.0675,0.10918 -9.32395,0.19851 -20.86984,0.19851 -11.54589,0 -20.93732,-0.0893 -20.86984,-0.19851 z m -177.304871,-0.13142 c 1.49995,-0.0473 3.882186,-0.0471 5.293858,4.3e-4 1.411671,0.0475 0.184439,0.0862 -2.727182,0.0859 -2.911622,-2.4e-4 -4.066626,-0.0391 -2.566676,-0.0864 z m 21.889256,0.005 c 14.770524,-0.17096 47.1872464,-0.18798 46.775048,-0.0246 -0.2495869,0.099 -12.2458621,0.16082 -26.658389,0.13747 -14.412528,-0.0233 -23.465024,-0.0741 -20.116659,-0.11291 z m 54.707754,-0.0323 c -0.566059,-0.15893 24.425568,-0.13024 31.979164,0.0367 1.819763,0.0402 -4.493162,0.0872 -14.028723,0.10428 -9.535561,0.0171 -17.613259,-0.0463 -17.950441,-0.141 z m 436.496051,0.0265 c 5.78685,-0.0398 15.25624,-0.0398 21.04309,0 5.78685,0.0398 1.05215,0.0723 -10.52154,0.0723 -11.5737,0 -16.30839,-0.0326 -10.52155,-0.0723 z"
       id="path276" /><path
       style="fill:#accae3"
       d="m 70.901695,-171.94463 c 87.748995,-0.0366 231.338265,-0.0366 319.087265,0 87.749,0.0366 15.95436,0.0666 -159.54363,0.0666 -175.497998,0 -247.292633,-0.03 -159.543635,-0.0666 z M -66.145713,-240.6986 c 3e-6,-28.09715 0.03098,-39.55219 0.06883,-25.45564 0.03785,14.09655 0.03785,37.08513 -7e-6,51.08573 -0.03786,14.0006 -0.06883,2.46706 -0.06882,-25.63009 z m 324.052923,29.57946 c 8.91685,-0.0387 23.50804,-0.0387 32.42488,0 8.91684,0.0387 1.62125,0.0703 -16.21244,0.0703 -17.83368,0 -25.12928,-0.0316 -16.21244,-0.0703 z m -273.163047,-22.76357 c 7.7521928,-0.039 20.437599,-0.039 28.189792,0 7.752192,0.039 1.409489,0.0709 -14.0948961,0.0709 -15.5043849,0 -21.8470889,-0.0319 -14.0948959,-0.0709 z"
       id="path275" /><path
       style="fill:#e69da2"
       d="m -61.113878,-292.17251 c 4.111618,-0.11544 4.932581,-0.2001 4.499779,-0.46402 -0.67363,-0.41078 -0.362636,-0.43249 0.508631,-0.0355 0.366238,0.16687 0.603036,0.40509 0.526219,0.52939 -0.07682,0.12429 -2.485096,0.20019 -5.351731,0.16867 l -5.212063,-0.0573 z m 13.523258,0.0299 c -0.07682,-0.1243 0.159981,-0.36252 0.526219,-0.52939 0.910685,-0.41493 1.108998,-0.38066 0.493049,0.0852 -0.456734,0.34545 0.152298,0.38955 5.483179,0.39703 l 5.996983,0.008 -0.125778,-0.59556 c -0.11081,-0.52468 -0.09055,-0.54043 0.170279,-0.13234 0.251866,0.39407 0.720805,0.46321 3.141588,0.46321 1.922195,0 2.953686,-0.10736 3.178844,-0.33087 0.26725,-0.26528 0.298361,-0.23905 0.156966,0.13235 -0.165455,0.4346 0.30066,0.46321 7.545902,0.46321 h 7.72225 l -0.162823,-0.59556 c -0.140538,-0.51404 -0.123065,-0.53216 0.127662,-0.13234 0.253984,0.405 0.752816,0.46321 3.9698796,0.46321 3.2149402,0 3.7167668,-0.0585 3.9754522,-0.46321 0.260825,-0.40809 0.281089,-0.39234 0.1702795,0.13234 l -0.1257776,0.59556 4.8058646,-0.008 c 4.2835506,-0.007 4.7500231,-0.0506 4.2920614,-0.39703 -0.5985505,-0.45273 -0.4521595,-0.49119 0.4965718,-0.13048 0.37343,0.14197 0.6789636,0.3802 0.6789636,0.52938 0,0.33701 -52.3094431,0.38209 -52.5176151,0.0453 z m 61.384827,-0.0387 c -0.08998,-0.14558 -0.106746,-0.26469 -0.03727,-0.26469 0.06947,0 0.334268,-0.0798 0.588428,-0.17733 0.315061,-0.1209 0.401207,-0.0788 0.27072,0.13235 -0.143812,0.23269 1.194289,0.30967 5.382783,0.30967 h 5.574172 l 0.01678,-0.7279 c 0.01613,-0.69969 0.02606,-0.70482 0.256163,-0.13235 0.227879,0.56693 0.37911,0.59556 3.146384,0.59556 2.481447,0 2.949522,-0.0678 3.197483,-0.46321 0.250727,-0.39982 0.2682,-0.3817 0.127662,0.13234 l -0.162822,0.59556 h 7.722249 c 7.245242,0 7.711357,-0.0286 7.545902,-0.46321 -0.141395,-0.3714 -0.110284,-0.39763 0.156966,-0.13235 0.183323,0.18198 0.696605,0.33269 1.140627,0.33492 0.618568,0.003 0.714488,0.064 0.410274,0.26064 -0.551126,0.35617 -35.116377,0.35617 -35.336499,0 z m 110.423413,0.0663 c 5.70323,-0.0398 15.11306,-0.0398 20.91074,-3e-5 5.79768,0.0398 1.1314,0.0724 -10.36951,0.0724 -11.5009,2e-5 -16.24446,-0.0325 -10.54123,-0.0724 z m 90.4316,-1e-5 c 4.92397,-0.0403 12.90446,-0.0403 17.73442,5e-5 4.82996,0.0404 0.80126,0.0734 -8.95267,0.0734 -9.75394,-3e-5 -13.70572,-0.0331 -8.78175,-0.0734 z m 101.37737,0 c 4.92398,-0.0403 12.90447,-0.0403 17.73443,5e-5 4.82996,0.0404 0.80125,0.0734 -8.95268,0.0734 -9.75393,-3e-5 -13.70572,-0.0331 -8.78175,-0.0734 z m 46.32126,0 c 4.92397,-0.0403 12.90446,-0.0403 17.73442,5e-5 4.82996,0.0404 0.80126,0.0734 -8.95268,0.0734 -9.75393,-3e-5 -13.70572,-0.0331 -8.78174,-0.0734 z m 87.4617,0 c 5.71406,-0.0398 15.06433,-0.0398 20.77839,0 5.71406,0.0398 1.03892,0.0724 -10.38919,0.0724 -11.42812,0 -16.10326,-0.0326 -10.3892,-0.0724 z m -497.243065,-8.44101 c 0.525714,-0.60262 1.038481,-1.35605 1.139482,-1.67427 0.101001,-0.31823 0.241102,-0.52113 0.311334,-0.4509 0.232257,0.23226 -0.643872,1.61973 -1.532408,2.42678 -0.868436,0.7888 -0.867893,0.78679 0.08159,-0.30161 z m 23.839852,0.50132 c 1.419416,-0.0476 3.742096,-0.0476 5.161512,0 1.419415,0.0476 0.258075,0.0865 -2.580756,0.0865 -2.838831,0 -4.000171,-0.0389 -2.580756,-0.0865 z m 60.879363,0 c 1.419415,-0.0476 3.742095,-0.0476 5.161511,0 1.419415,0.0476 0.258075,0.0865 -2.580756,0.0865 -2.838831,0 -4.000171,-0.0389 -2.580755,-0.0865 z m -22.643619,-4.19605 c -0.261574,-0.34971 -0.916689,-0.86879 -1.455811,-1.1535 -0.539121,-0.28471 -0.884972,-0.52292 -0.768556,-0.52936 0.66365,-0.0367 3.1302,1.90339 2.811289,2.21122 -0.06123,0.0591 -0.325347,-0.17866 -0.586922,-0.52836 z m 5.784771,-6.67218 c -1.291306,-1.48795 -1.293591,-1.49373 -0.177566,-0.44858 0.940445,0.88072 1.847918,2.02614 1.561193,1.97056 -0.04152,-0.008 -0.66415,-0.69294 -1.383627,-1.52198 z m -78.414742,-0.71327 c 0.0015,-0.87349 0.0509,-1.19891 0.109811,-0.72317 0.05891,0.47575 0.0577,1.19042 -0.0027,1.58816 -0.0604,0.39774 -0.108596,0.008 -0.10711,-0.86499 z m 116.464867,-6.35263 c 0.0015,-0.87349 0.0509,-1.19891 0.109811,-0.72317 0.05891,0.47575 0.0577,1.19042 -0.0027,1.58816 -0.0604,0.39774 -0.108596,0.008 -0.10711,-0.86499 z m -114.460935,-1.88273 c 0.342851,-0.69458 2.05441,-2.22036 2.48921,-2.21902 0.176911,5.4e-4 -0.04637,0.22541 -0.496179,0.4997 -0.449809,0.27429 -1.144366,0.89918 -1.54346,1.38864 -0.399094,0.48947 -0.601401,0.63828 -0.449571,0.33068 z m 65.0846063,-2.67654 c 0.4757458,-0.0589 1.1904167,-0.0577 1.5881577,0.003 0.39774,0.0604 0.0085,0.1086 -0.8649927,0.10711 -0.8734865,-0.001 -1.1989107,-0.0509 -0.723165,-0.10981 z m 60.6099287,3.6e-4 c 0.473139,-0.0587 1.247365,-0.0587 1.720504,0 0.473138,0.0587 0.08602,0.10675 -0.860252,0.10675 -0.946277,0 -1.33339,-0.048 -0.860252,-0.10675 z m -122.023417,-6.61732 c 0.473139,-0.0587 1.247365,-0.0587 1.720504,0 0.473138,0.0587 0.08603,0.10675 -0.860252,0.10675 -0.946277,0 -1.33339,-0.048 -0.860252,-0.10675 z m 61.4087479,0 c 0.4731385,-0.0587 1.2473651,-0.0587 1.7205041,0 0.473138,0.0587 0.08603,0.10675 -0.8602522,0.10675 -0.9462771,0 -1.3333904,-0.048 -0.8602519,-0.10675 z m 60.6146691,0 c 0.473139,-0.0587 1.247365,-0.0587 1.720504,0 0.473138,0.0587 0.08602,0.10675 -0.860252,0.10675 -0.946277,0 -1.33339,-0.048 -0.860252,-0.10675 z m -176.748667,-2.28779 c 0,-0.28679 1.31548,-2.81459 1.46473,-2.81459 0.0728,0 -0.18177,0.62533 -0.56569,1.38963 -0.73837,1.46994 -0.89904,1.7246 -0.89904,1.42496 z m 674.0948,-1.36618 c -0.3907,-0.79663 -0.65411,-1.44841 -0.58536,-1.44841 0.17817,0 1.51327,2.67928 1.39436,2.79819 -0.0543,0.0542 -0.4183,-0.55315 -0.809,-1.34978 z m -669.72737,-5.15412 c 0.86437,-0.87348 1.63114,-1.58815 1.70393,-1.58815 0.0728,0 -0.57487,0.71467 -1.43924,1.58815 -0.86437,0.87349 -1.63114,1.58816 -1.70393,1.58816 -0.0728,0 0.57487,-0.71467 1.43924,-1.58816 z m 665.959,-0.0662 -1.57987,-1.65433 1.65433,1.57987 c 0.90988,0.86893 1.65433,1.61338 1.65433,1.65433 0,0.19559 -0.26123,-0.0431 -1.72879,-1.57987 z m -662.120953,-2.97621 c 0,-0.17817 2.679285,-1.51327 2.798197,-1.39436 0.05425,0.0543 -0.553156,0.4183 -1.349784,0.809 -0.796627,0.39071 -1.448413,0.65412 -1.448413,0.58536 z m 656.967723,-0.66332 c -0.80069,-0.423 -1.36252,-0.77472 -1.24849,-0.78159 0.2813,-0.0169 2.83665,1.28727 2.83665,1.44779 0,0.17682 0.0367,0.19222 -1.58816,-0.6662 z"
       id="path274" /><path
       style="fill:#8cb6d8"
       d="m -37.86594,-189.41435 c 15.406825,-0.0377 40.5394139,-0.0377 55.850197,1e-5 15.310783,0.0377 2.705199,0.0686 -28.01241,0.0686 -30.717608,0 -43.244613,-0.0309 -27.837787,-0.0686 z m 116.953576,1.1e-4 c 5.339358,-0.04 14.153631,-0.04 19.587273,-4e-5 5.433641,0.04 1.065075,0.0728 -9.707925,0.0728 -10.773,2e-5 -15.218707,-0.0327 -9.879348,-0.0727 z m 88.890174,0.005 c 18.24858,-0.18273 32.49537,-0.18491 32.38407,-0.005 -0.0675,0.10919 -8.9598,0.17077 -19.76061,0.13686 -10.8008,-0.0339 -16.48136,-0.0933 -12.62346,-0.1319 z m 46.78446,-0.005 c 4.84058,-0.0404 12.76151,-0.0404 17.60208,0 4.84057,0.0404 0.8801,0.0734 -8.80104,0.0734 -9.68114,0 -13.64161,-0.0331 -8.80104,-0.0734 z m 101.11268,0 c 4.84058,-0.0404 12.76151,-0.0404 17.60208,0 4.84057,0.0404 0.8801,0.0734 -8.80104,0.0734 -9.68114,0 -13.64161,-0.0331 -8.80104,-0.0734 z m 46.58595,0 c 4.84057,-0.0404 12.76151,-0.0404 17.60208,0 4.84057,0.0404 0.8801,0.0734 -8.80104,0.0734 -9.68114,0 -13.64161,-0.0331 -8.80104,-0.0734 z m 42.08617,-2e-5 c 5.42289,-0.04 14.29672,-0.04 19.71962,0 5.42289,0.04 0.98598,0.0727 -9.85981,0.0727 -10.84579,0 -15.28271,-0.0327 -9.85981,-0.0727 z m 91.58373,0 c 5.4229,-0.04 14.29673,-0.04 19.71962,0 5.4229,0.04 0.98599,0.0727 -9.85981,0.0727 -10.84579,0 -15.2827,-0.0327 -9.85981,-0.0727 z M 241.35604,-200.1188 c -0.0321,-5.77825 0.031,-10.56125 0.14022,-10.62887 0.18064,-0.11188 0.17651,8.02741 -0.009,17.42909 -0.0402,2.03814 -0.0993,-1.02196 -0.13136,-6.80022 z m 65.32068,-0.13492 c -0.0727,-5.85246 -0.0414,-10.55001 0.0695,-10.43901 0.1109,0.111 0.17038,4.89938 0.13219,10.64084 l -0.0694,10.43901 z m 82.44932,-40.44488 c 0,-28.09715 0.031,-39.55219 0.0688,-25.45564 0.0378,14.09655 0.0378,37.08513 -10e-6,51.08573 -0.0378,14.0006 -0.0688,2.46706 -0.0688,-25.63009 z m -264.60438,40.43191 c 5.72487,-0.0398 15.01559,-0.0398 20.64605,3e-5 5.63045,0.0399 0.94647,0.0725 -10.40886,0.0724 -11.35532,-2e-5 -15.96206,-0.0326 -10.23719,-0.0725 z m 325.28789,1e-5 c 5.71406,-0.0398 15.06433,-0.0398 20.77839,0 5.71406,0.0398 1.03892,0.0724 -10.38919,0.0724 -11.42812,0 -16.10326,-0.0326 -10.3892,-0.0724 z M -15.235604,-212.1779 c 7.6177399,-0.039 20.0053666,-0.039 27.52806,2e-5 7.522692,0.039 1.289996,0.071 -13.8504364,0.0709 -15.1404326,-1e-5 -21.2953636,-0.0319 -13.6776236,-0.071 z m -14.453866,-10.70449 c -0.03207,-5.77825 0.03103,-10.56124 0.140218,-10.62887 0.180645,-0.11187 0.17651,8.02741 -0.0089,17.42909 -0.04019,2.03814 -0.0993,-1.02196 -0.131364,-6.80022 z m 159.22064,2.23459 c 2.94801,-0.0426 7.77204,-0.0426 10.72006,0 2.94802,0.0426 0.536,0.0774 -5.36003,0.0774 -5.89604,0 -8.30805,-0.0349 -5.36003,-0.0774 z m 325.30755,0 c 2.94801,-0.0426 7.77204,-0.0426 10.72006,0 2.94801,0.0426 0.536,0.0774 -5.36003,0.0774 -5.89604,0 -8.30805,-0.0349 -5.36003,-0.0774 z m -196.93151,-9.79392 c 8.91685,-0.0386 23.50804,-0.0386 32.42488,0 8.91684,0.0387 1.62125,0.0703 -16.21244,0.0703 -17.83368,0 -25.12928,-0.0316 -16.21244,-0.0703 z M 241.4257,-261.2123 c 0,-16.81462 0.0317,-23.69332 0.0705,-15.28601 0.0388,8.4073 0.0388,22.16472 0,30.57202 -0.0388,8.40731 -0.0705,1.5286 -0.0705,-15.28601 z m 65.37914,0 c 0,-16.81462 0.0317,-23.69332 0.0705,-15.28601 0.0388,8.4073 0.0388,22.16472 0,30.57202 -0.0388,8.40731 -0.0705,1.5286 -0.0705,-15.28601 z m -242.197887,23.2268 -1.579871,-1.65433 1.65433,1.57987 c 1.536732,1.46757 1.775454,1.72879 1.579872,1.72879 -0.04095,0 -0.785401,-0.74445 -1.654331,-1.65433 z m -79.883072,-17.33732 c 7.7410377,-0.039 20.4859998,-0.039 28.322138,-3e-5 7.836138,0.039 1.502562,0.0708 -14.0746137,0.0709 -15.5771763,1e-5 -21.9885613,-0.0319 -14.2475243,-0.0708 z m -14.355292,-7.60998 c 1.33e-4,-4.07628 0.03688,-5.70686 0.08165,-3.62352 0.04478,2.08334 0.04467,5.41847 -2.42e-4,7.4114 -0.04491,1.99294 -0.08154,0.28839 -0.08141,-3.78788 z m 14.52817,-7.74223 c 7.6905396,-0.039 20.1972781,-0.039 27.792752,2e-5 7.595475,0.039 1.303215,0.0709 -13.9827986,0.0709 -15.2860134,-2e-5 -21.5004924,-0.0319 -13.8099534,-0.0709 z"
       id="path273" /><path
       style="fill:#74a7d0"
       d="m 205.42182,-189.5467 c -0.0692,-0.18198 -0.0949,-23.31945 -0.0572,-51.4166 l 0.0686,-51.08572 0.0655,51.26219 c 0.052,40.7129 0.13359,51.28966 0.39636,51.39569 0.25915,0.10457 0.25735,0.13804 -0.008,0.1544 -0.18655,0.0115 -0.39577,-0.12799 -0.46494,-0.30996 z m 136.92175,0.13729 c 0.26145,-0.18519 0.34432,-10.89392 0.39805,-51.43674 l 0.0679,-51.20287 -0.001,51.32836 c -9e-4,45.40001 -0.0469,51.34088 -0.39805,51.43674 -0.29327,0.0801 -0.31074,0.0472 -0.0668,-0.12549 z m 10.77688,-0.13729 c -0.0692,-0.18198 -0.0949,-23.31945 -0.0572,-51.4166 l 0.0686,-51.08572 0.0655,51.26219 c 0.052,40.7129 0.13358,51.28966 0.39636,51.39569 0.25915,0.10457 0.25735,0.13804 -0.008,0.1544 -0.18654,0.0115 -0.39576,-0.12799 -0.46493,-0.30996 z m -419.530856,-51.1519 c 3e-6,-28.09715 0.03098,-39.55219 0.06883,-25.45564 0.03785,14.09655 0.03785,37.08513 -6e-6,51.08573 -0.03786,14.0006 -0.06883,2.46706 -0.06882,-25.63009 z m 131.025645,43.01259 c 0.864372,-0.87349 1.631142,-1.58816 1.703932,-1.58816 0.07279,0 -0.574867,0.71467 -1.439239,1.58816 -0.864372,0.87349 -1.631141,1.58816 -1.703932,1.58816 -0.07279,0 0.574867,-0.71467 1.439239,-1.58816 z"
       id="path272" /><path
       style="fill:#dc7b83"
       d="m 50.321824,-292.35482 c 2.54032,-0.19427 5.427397,-0.2076 5.426826,-0.0251 -3.42e-4,0.10919 -1.459742,0.17771 -3.24311,0.15228 -1.783368,-0.0254 -2.766041,-0.0827 -2.183716,-0.12721 z"
       id="path271" /><path
       style="fill:#ec6e71"
       d="m -20.880561,-299.59277 -5.293857,-0.1493 5.212063,-0.0577 c 3.252939,-0.036 5.273553,0.0418 5.375652,0.207 0.08997,0.14558 0.126782,0.23873 0.08179,0.207 -0.04499,-0.0317 -2.464031,-0.12488 -5.375653,-0.207 z m 55.418787,-0.0721 c 0.112721,-0.11242 2.519026,-0.17173 5.347344,-0.13181 l 5.142396,0.0726 -5.347343,0.1318 c -2.941039,0.0725 -5.255118,0.0398 -5.142397,-0.0726 z m 49.620931,-4.16303 c 0,-1.09186 0.04672,-1.53853 0.103829,-0.9926 0.05711,0.54593 0.05711,1.43927 0,1.98519 -0.05711,0.54593 -0.103829,0.0993 -0.103829,-0.99259 z m -60.881497,-0.1323 c 0.0012,-1.01907 0.04902,-1.40352 0.106316,-0.85435 0.0573,0.54918 0.05634,1.38296 -0.0021,1.85285 -0.05847,0.46989 -0.105355,0.0206 -0.104181,-0.9985 z m -45.538194,-2.71048 c 0.842407,-0.0527 2.152637,-0.0522 2.911622,10e-4 0.758985,0.0533 0.06974,0.0964 -1.531649,0.0958 -1.601392,-5.9e-4 -2.222379,-0.0442 -1.379973,-0.0969 z m 60.605005,2.9e-4 c 0.837091,-0.0525 2.206877,-0.0525 3.043968,0 0.837091,0.0525 0.152199,0.0955 -1.521984,0.0955 -1.674182,0 -2.359075,-0.043 -1.521984,-0.0955 z m -104.781709,-4.43652 c 4.63e-4,-1.89255 0.04262,-2.63205 0.09369,-1.64332 0.05107,0.98873 0.05069,2.53718 -8.42e-4,3.44101 -0.05153,0.90382 -0.09331,0.0949 -0.09285,-1.79769 z m 111.773379,-17.18717 c -0.12775,-0.33291 -0.918148,-0.41567 -4.598652,-0.48148 l -4.444388,-0.0795 4.401196,-0.0593 c 3.670806,-0.0495 4.45676,0.008 4.736017,0.34411 0.184152,0.22189 0.273008,0.46525 0.197457,0.5408 -0.07555,0.0756 -0.206785,-0.0435 -0.29163,-0.26464 z m -67.593343,-0.61218 c 1.280983,-0.0486 3.305883,-0.0484 4.499779,5.6e-4 1.193896,0.0489 0.145819,0.0887 -2.329059,0.0884 -2.474878,-3.1e-4 -3.451702,-0.0403 -2.17072,-0.089 z"
       id="path270" /><path
       style="fill:#488bc2"
       d="m -38.151771,-189.14965 c 15.249619,-0.0377 40.2035397,-0.0377 55.453158,0 15.249619,0.0377 2.772658,0.0686 -27.726579,0.0686 -30.499237,0 -42.976197,-0.0309 -27.726579,-0.0686 z m 117.239407,1.1e-4 c 5.339358,-0.04 14.153631,-0.0401 19.587273,-5e-5 5.433641,0.04 1.065075,0.0728 -9.707925,0.0728 -10.773,2e-5 -15.218707,-0.0327 -9.879348,-0.0727 z m 91.735624,-3e-5 c 5.42289,-0.04 14.29672,-0.04 19.71962,0 5.42289,0.04 0.98598,0.0727 -9.85981,0.0727 -10.84579,0 -15.28271,-0.0327 -9.85981,-0.0727 z m 43.95827,0 c 4.85116,-0.0404 12.71254,-0.0404 17.46973,6e-5 4.75719,0.0404 0.78806,0.0735 -8.82029,0.0734 -9.60836,-3e-5 -13.5006,-0.0331 -8.64944,-0.0735 z m 101.37737,0 c 4.85116,-0.0404 12.71254,-0.0404 17.46973,6e-5 4.75719,0.0404 0.78806,0.0735 -8.82029,0.0734 -9.60835,-3e-5 -13.5006,-0.0331 -8.64944,-0.0735 z m 46.32126,0 c 4.85116,-0.0404 12.71253,-0.0404 17.46973,6e-5 4.75719,0.0404 0.78805,0.0735 -8.8203,0.0734 -9.60835,-3e-5 -13.5006,-0.0331 -8.64943,-0.0735 z m 41.91502,3e-5 c 5.33936,-0.04 14.15364,-0.0401 19.58728,-5e-5 5.43364,0.04 1.06507,0.0728 -9.70793,0.0728 -10.773,2e-5 -15.2187,-0.0327 -9.87935,-0.0727 z m 91.84843,0 c 5.33936,-0.04 14.15363,-0.0401 19.58728,-5e-5 5.43364,0.04 1.06507,0.0728 -9.70793,0.0728 -10.773,2e-5 -15.21871,-0.0327 -9.87935,-0.0727 z m -254.56069,-11.1834 c 0,-5.75045 0.035,-8.10291 0.0777,-5.22768 0.0427,2.87522 0.0427,7.58014 0,10.45536 -0.0427,2.87523 -0.0777,0.52277 -0.0777,-5.22768 z m 64.84976,0 c 0,-5.75045 0.035,-8.10291 0.0777,-5.22768 0.0427,2.87522 0.0427,7.58014 0,10.45536 -0.0427,2.87523 -0.0777,0.52277 -0.0777,-5.22768 z m 82.85804,-40.36566 c 0,-27.95157 0.031,-39.34705 0.0688,-25.3233 0.0379,14.02376 0.0379,36.89322 0,50.82104 -0.0379,13.92781 -0.0688,2.45382 -0.0688,-25.49774 z m -275.70871,41.09357 c 0.34125,-0.43514 1.62466,-0.45931 21.17543,-0.39868 l 20.81215,0.0645 -20.75323,0.0694 c -16.05823,0.0537 -20.84874,0.14392 -21.17543,0.39868 -0.37375,0.29145 -0.38051,0.27608 -0.0589,-0.13397 z m 325.51455,-0.2647 c 0.0675,-0.10918 9.51846,-0.19852 21.00219,-0.19852 11.48372,0 20.9347,0.0893 21.00218,0.19852 0.0675,0.10919 -9.3835,0.19852 -21.00218,0.19852 -11.61869,0 -21.06967,-0.0893 -21.00219,-0.19852 z m -181.157,-10.98471 c 8.84405,-0.0387 23.31613,-0.0387 32.16019,0 8.84405,0.0387 1.608,0.0703 -16.0801,0.0703 -17.6881,0 -24.92414,-0.0316 -16.08009,-0.0703 z m -287.401769,-1.72118 c -0.06996,-0.18232 -0.09456,-4.97657 -0.05467,-10.65389 l 0.07254,-10.32239 0.06297,10.52034 0.06297,10.52033 27.9912717,0.0686 27.9912723,0.0686 -27.9995797,0.065 c -22.2320303,0.0516 -28.0257823,-0.003 -28.1267873,-0.26655 z m 163.974979,-8.33564 c 8.14068,-0.0561 10.76202,-0.15238 10.93873,-0.40164 0.17022,-0.2401 0.20342,-0.22157 0.12408,0.0692 -0.094,0.3446 -1.53894,0.39765 -10.93873,0.40164 l -10.83041,0.005 z m 314.85688,-0.0823 c -0.097,-0.15691 -0.10484,-0.35677 -0.0175,-0.44414 0.0874,-0.0874 0.15885,-0.0199 0.15885,0.14996 0,0.40993 21.06275,0.44707 21.26587,0.0375 0.074,-0.14922 0.10381,-0.11945 0.0662,0.0662 -0.0909,0.44912 -21.19792,0.63638 -21.47348,0.19051 z m -207.78475,-9.84413 c -0.0695,-0.18256 -0.0952,-13.91066 -0.0571,-30.50691 l 0.0693,-30.17499 0.065,30.37351 0.065,30.37351 h 32.29142 32.29141 l 0.069,-30.30734 0.069,-30.30734 -0.002,30.37351 -0.002,30.37352 -32.36661,0.0672 c -25.75378,0.0535 -32.39243,-5.9e-4 -32.49302,-0.26469 z m -256.920504,-2.78029 c 7.6177399,-0.039 20.0053666,-0.039 27.52806,2e-5 7.522692,0.039 1.289996,0.071 -13.8504364,0.071 -15.1404326,-10e-6 -21.2953636,-0.0319 -13.6776236,-0.071 z m -14.127877,-22.10584 c -0.07066,-0.18415 -0.0967,-3.54906 -0.05787,-7.47757 l 0.07061,-7.14277 28.2559733,-0.002 28.2559727,-0.002 -28.1897994,0.0692 -28.1897996,0.0692 v 7.27666 7.27667 l 28.38831097,0.0686 28.38831103,0.0686 -28.39661836,0.065 c -22.69919364,0.0519 -28.42239664,-0.002 -28.52509864,-0.26984 z m 92.117584,-29.64166 -1.579871,-1.65433 1.65433,1.57988 c 1.536732,1.46756 1.775454,1.72878 1.579872,1.72878 -0.04095,0 -0.785401,-0.74444 -1.654331,-1.65433 z m 6.427088,-6.48026 c 0.61872,-0.0557 1.63117,-0.0557 2.24989,0 0.618719,0.0557 0.112494,0.10132 -1.124945,0.10132 -1.237439,0 -1.743664,-0.0456 -1.124945,-0.10132 z"
       id="path269" /><path
       style="fill:#e84c50"
       d="m -61.77561,-292.44606 c 2.402088,-0.0838 4.241308,-0.17759 4.087157,-0.2085 -0.154152,-0.0309 -0.511487,-0.23741 -0.794079,-0.4589 -0.405658,-0.31795 -0.307268,-0.30877 0.467459,0.0436 0.539694,0.24549 0.919778,0.54582 0.84463,0.66741 -0.07515,0.12159 -2.124724,0.19578 -4.554616,0.16488 l -4.417984,-0.0562 z m 15.776184,0.0436 c -0.07515,-0.12159 0.275158,-0.41745 0.778457,-0.65745 1.088461,-0.51905 1.226259,-0.36873 0.187183,0.2042 -0.668324,0.3685 -0.312873,0.39627 4.342564,0.33932 2.788758,-0.0341 5.015074,0.0273 4.94737,0.13648 -0.169726,0.27372 -10.085948,0.25191 -10.255574,-0.0226 z m 17.940546,-0.1629 c -0.08287,-0.21595 -0.08928,-0.54546 -0.01425,-0.73224 0.07503,-0.18678 0.145822,-0.0716 0.157315,0.25596 l 0.0209,0.59556 h 6.992304 c 4.511256,0 7.040046,-0.0963 7.126855,-0.27131 0.074,-0.14922 0.103836,-0.11944 0.06629,0.0662 -0.05284,0.26124 -1.664418,0.35342 -7.133499,0.408 -6.045491,0.0603 -7.086987,0.0138 -7.215911,-0.32214 z m 23.3649087,0.18545 c -0.067796,-0.10918 1.6225175,-0.16989 3.75625216,-0.13491 3.59717904,0.059 3.82654304,0.0343 3.15161224,-0.33932 -1.0382476,-0.57472 -0.9015739,-0.72496 0.1871833,-0.20577 0.5032988,0.24 0.8536046,0.53586 0.7784573,0.65745 -0.1696453,0.27449 -7.7036705,0.29607 -7.873505,0.0226 z m 20.3447543,-0.0601 c -0.09202,-0.1489 -0.110472,-0.27072 -0.041,-0.27072 0.06947,0 0.334268,-0.0798 0.588428,-0.17733 0.315061,-0.1209 0.401207,-0.0788 0.27072,0.13235 -0.14317,0.23165 0.908003,0.30967 4.172257,0.30967 3.255217,0 4.391858,-0.084 4.474714,-0.33087 0.06391,-0.19038 0.0988,-0.16229 0.08218,0.0662 -0.02429,0.3339 -0.772371,0.40852 -4.704438,0.46924 -2.979056,0.046 -4.73626,-0.026 -4.842866,-0.19852 z m 16.928385,-0.0194 c -0.09742,-0.15763 -0.105641,-0.35808 -0.01827,-0.44545 0.08737,-0.0874 0.158851,-0.0199 0.158851,0.14996 0,0.22749 1.842165,0.30881 6.995952,0.30881 6.797593,0 6.999348,-0.0151 7.115752,-0.53344 0.09966,-0.44374 0.113879,-0.43262 0.08458,0.0662 l -0.03522,0.59962 -7.062262,0.0705 c -4.853936,0.0484 -7.117648,-0.0192 -7.239386,-0.21613 z m 91.638452,0.0796 c 5.70323,-0.0398 15.11306,-0.0398 20.91074,-4e-5 5.79768,0.0398 1.1314,0.0724 -10.36951,0.0724 -11.5009,2e-5 -16.24446,-0.0325 -10.54123,-0.0723 z m 90.29929,-10e-6 c 4.99679,-0.0403 13.09639,-0.0403 17.99912,5e-5 4.90273,0.0403 0.81445,0.0733 -9.08506,0.0733 -9.89952,-3e-5 -13.91084,-0.033 -8.91406,-0.0733 z m 101.37738,0 c 4.99678,-0.0403 13.09638,-0.0403 17.99911,5e-5 4.90273,0.0403 0.81445,0.0733 -9.08506,0.0733 -9.89951,-3e-5 -13.91084,-0.033 -8.91405,-0.0733 z m 46.32125,0 c 4.99678,-0.0403 13.09639,-0.0403 17.99911,5e-5 4.90273,0.0403 0.81446,0.0733 -9.08506,0.0733 -9.89951,-3e-5 -13.91084,-0.033 -8.91405,-0.0733 z m 87.46166,-1e-5 c 5.78685,-0.0398 15.25624,-0.0398 21.04309,0 5.78685,0.0398 1.05215,0.0723 -10.52154,0.0723 -11.5737,0 -16.30839,-0.0326 -10.52155,-0.0723 z m -510.125094,-2.01846 c -1.124495,-0.88984 -2.719407,-2.73158 -3.237649,-3.7387 -0.35819,-0.69608 -0.02785,-0.32654 1.360557,1.52199 0.628727,0.83709 1.217988,1.52682 1.30947,1.53274 0.215721,0.0139 2.047289,1.5774 1.847913,1.5774 -0.0832,0 -0.65933,-0.40204 -1.280291,-0.89343 z m 59.72381334,-0.73947 -1.62797844,-1.6329 1.72050373,1.5532 c 0.94627704,0.85426 1.77013367,1.58907 1.83079237,1.6329 0.060659,0.0438 0.019022,0.0797 -0.092525,0.0797 -0.11154765,0 -0.93540423,-0.73481 -1.83079266,-1.6329 z m 18.62102666,1.57127 c 0.07279,-0.0733 0.847017,-0.69174 1.720504,-1.37423 1.550706,-1.21163 1.56023,-1.21504 0.403887,-0.14477 -0.908121,0.84052 -2.778096,2.17761 -2.124391,1.519 z m 60.879362,0 c 0.07279,-0.0733 0.847017,-0.69174 1.720504,-1.37423 1.550706,-1.21163 1.56023,-1.21504 0.403887,-0.14477 -0.908121,0.84052 -2.778096,2.17761 -2.124391,1.519 z m -132.478786,-5.80581 c -0.786149,-0.43481 -1.734031,-1.34069 -2.030977,-1.941 -0.144026,-0.29116 0.06588,-0.12736 0.466467,0.36401 0.400582,0.49137 1.214251,1.11409 1.808153,1.38382 0.593902,0.26974 0.901154,0.48943 0.682783,0.4882 -0.218372,-10e-4 -0.635263,-0.134 -0.926426,-0.29503 z m 60.0852839,-0.26398 c -0.7693189,-0.42444 -1.9884963,-1.59396 -2.3000921,-2.20641 -0.1481362,-0.29116 0.1112996,-0.0799 0.5765239,0.46939 0.4652244,0.54932 1.2815699,1.22895 1.8141011,1.51028 0.5325312,0.28134 0.8491268,0.51316 0.7035458,0.51517 -0.1455811,0.002 -0.5029165,-0.12779 -0.7940787,-0.28843 z m 60.8793621,0 c -0.769319,-0.42444 -1.988496,-1.59396 -2.300092,-2.20641 -0.148136,-0.29116 0.111299,-0.0799 0.576524,0.46939 0.465224,0.54932 1.28157,1.22895 1.814101,1.51028 0.532531,0.28134 0.849127,0.51316 0.703546,0.51517 -0.145581,0.002 -0.502917,-0.12779 -0.794079,-0.28843 z m -63.8660186,-3.50979 c -0.1828643,-0.40134 -0.57296,-0.68595 -1.0355951,-0.75554 l -0.7422202,-0.11165 0.8177647,-0.0397 c 0.6460117,-0.0313 0.8843623,0.10651 1.134855,0.65628 0.1743996,0.38277 0.2724233,0.7406 0.2178304,0.7952 -0.054593,0.0546 -0.2312785,-0.19049 -0.3926348,-0.54463 z m 60.8793626,0 c -0.182865,-0.40134 -0.572961,-0.68595 -1.035596,-0.75554 l -0.74222,-0.11165 0.817765,-0.0397 c 0.646012,-0.0313 0.884362,0.10651 1.134855,0.65628 0.1744,0.38277 0.272423,0.7406 0.21783,0.7952 -0.05459,0.0546 -0.231278,-0.19049 -0.392634,-0.54463 z m -49.898124,-0.84011 c -0.261574,-0.34971 -0.916689,-0.86878 -1.45581,-1.1535 -0.539122,-0.28471 -0.884973,-0.52292 -0.768557,-0.52936 0.66365,-0.0367 3.1302,1.90339 2.811289,2.21123 -0.06123,0.0591 -0.325347,-0.17866 -0.586922,-0.52837 z m -38.394259,-2.95185 c -0.06797,-0.10918 0.848115,-0.16643 2.035748,-0.12721 3.891182,0.1285 4.330875,0.23244 1.182357,0.27949 -1.701986,0.0254 -3.150133,-0.0431 -3.218105,-0.15228 z m 60.737716,-0.39703 c 0.02311,-0.44817 0.06066,-0.48093 0.151755,-0.13235 0.105907,0.40527 0.480427,0.46321 2.993855,0.46321 2.513429,0 2.887948,-0.0579 2.993855,-0.46321 0.09109,-0.34858 0.128649,-0.31582 0.151755,0.13235 0.03022,0.58623 -0.01902,0.59555 -3.14561,0.59555 -3.126592,0 -3.175834,-0.009 -3.14561,-0.59555 z m -94.439206,-2.71311 c 0.0012,-1.01906 0.04902,-1.40352 0.106316,-0.85434 0.0573,0.54917 0.05634,1.38295 -0.0021,1.85285 -0.05847,0.46989 -0.105355,0.0206 -0.104181,-0.99851 z m 120.076433,1.01877 c -0.941672,-0.62884 -2.374815,-1.99744 -2.681259,-2.5605 -0.144568,-0.26563 0.311878,0.0979 1.014324,0.80781 0.702445,0.70993 1.574953,1.48679 1.938906,1.72637 0.363952,0.23958 0.598901,0.44184 0.522108,0.44948 -0.07679,0.008 -0.434128,-0.18278 -0.794079,-0.42316 z m -129.073856,-2.20988 c 0,-1.09186 0.04672,-1.53853 0.103829,-0.9926 0.05711,0.54593 0.05711,1.43926 0,1.98519 -0.05711,0.54593 -0.103829,0.0993 -0.103829,-0.99259 z m 148.271367,0.17215 c -0.582324,-0.62428 -1.416106,-1.40368 -1.85285,-1.73201 -0.436743,-0.32832 -0.615411,-0.50858 -0.397039,-0.40056 0.807354,0.39936 2.38879,1.75555 2.924632,2.50807 0.758312,1.06495 0.57238,0.96148 -0.674743,-0.3755 z m -84.2226612,-6.92182 c 0.00149,-0.87349 0.050901,-1.19891 0.109811,-0.72317 0.05891,0.47575 0.057695,1.19042 -0.0027,1.58816 -0.060396,0.39774 -0.1085955,0.008 -0.1071098,-0.86499 z m 78.2670722,-1.38616 c -0.435173,-0.82353 -1.024228,-1.45615 -1.720504,-1.84773 -0.582324,-0.3275 -0.927496,-0.59741 -0.767049,-0.59981 0.647241,-0.01 2.098096,1.25993 2.793009,2.44406 0.405817,0.69151 0.651995,1.25695 0.547063,1.25652 -0.104933,-4.2e-4 -0.488567,-0.56429 -0.852519,-1.25304 z m -9.23112,0.14363 c -0.0232,-0.68469 0.145417,-1.1647 0.562428,-1.60113 0.327557,-0.34281 0.424329,-0.40473 0.215049,-0.13759 -0.209281,0.26714 -0.462373,0.98765 -0.562428,1.60113 l -0.181919,1.11542 z m -113.586376,0.38053 c 0,-0.44704 -1.343331,-1.93699 -2.238609,-2.48295 -0.442947,-0.27012 -0.656813,-0.49157 -0.475256,-0.49211 0.748822,-0.002 3.25831,2.71911 2.867657,3.10976 -0.08459,0.0846 -0.153792,0.024 -0.153792,-0.1347 z m -8.501763,-0.75603 c 0.342851,-0.69458 2.05441,-2.22037 2.48921,-2.21903 0.176911,5.4e-4 -0.04637,0.22541 -0.496179,0.4997 -0.449809,0.27429 -1.144366,0.89918 -1.54346,1.38865 -0.399094,0.48946 -0.601401,0.63827 -0.449571,0.33068 z m 114.655306,-2.82612 c -0.02589,-0.46269 1.055002,-2.23509 1.970986,-3.23195 l 0.972878,-1.05877 -0.915843,1.19112 c -0.503713,0.65512 -1.163451,1.66757 -1.466083,2.24989 -0.302632,0.58232 -0.555504,0.96469 -0.561938,0.84971 z m 22.984909,-1.3059 c -0.173245,-0.32371 -0.91781,-1.24683 -1.654589,-2.05137 l -1.339597,-1.4628 1.323529,1.25731 c 1.195318,1.13553 2.471482,2.84543 2.123647,2.84543 -0.0759,0 -0.279745,-0.26486 -0.45299,-0.58857 z m -142.151555,-2.62931 c 0.578958,-0.65825 3.414788,-2.34796 3.91825,-2.33466 0.125203,0.003 -0.536077,0.41754 -1.469511,0.92051 -0.933433,0.50298 -2.00544,1.18517 -2.382236,1.51597 l -0.685083,0.60147 z m 77.345182,-1.17649 c -0.794256,-0.49472 -1.323801,-0.89949 -1.176767,-0.89949 0.31888,0 2.753215,1.51608 2.753215,1.71467 0,0.17732 0.09992,0.22899 -1.576448,-0.81518 z m -42.606366,0.50738 c -0.03347,-0.50229 0.513128,-1.77503 0.855914,-1.99299 0.404818,-0.25741 8.685932,-0.26231 9.091309,-0.005 0.168756,0.10696 -1.746056,0.15726 -4.255138,0.11177 -4.934094,-0.0894 -4.858833,-0.10906 -5.391851,1.40616 -0.153636,0.43675 -0.288741,0.65295 -0.300234,0.48045 z m 61.123158,-1.09395 c 0,-0.15131 0.187176,-0.46228 0.415946,-0.69105 0.349111,-0.34911 1.104044,-0.40648 4.698299,-0.357 l 4.282352,0.0589 -4.235086,0.0747 c -3.934301,0.0694 -4.267984,0.11426 -4.698298,0.6321 -0.254767,0.3066 -0.463213,0.43364 -0.463213,0.28233 z m -142.404769,-3.05688 c 0,-0.28678 1.31549,-2.81459 1.46473,-2.81459 0.0728,0 -0.18177,0.62534 -0.56569,1.38964 -0.73837,1.46993 -0.89904,1.72459 -0.89904,1.42495 z m 673.56542,-1.36618 c -0.3907,-0.79663 -0.65411,-1.44841 -0.58536,-1.44841 0.17817,0 1.51327,2.67928 1.39436,2.7982 -0.0542,0.0542 -0.4183,-0.55316 -0.809,-1.34979 z m -671.17914,-2.90422 c 0.6126,-0.89614 3.26015,-3.58327 4.0987,-4.15996 0.436739,-0.30036 0.17366,0.0114 -0.58461,0.69293 -0.75828,0.68147 -1.94058,1.85945 -2.62734,2.61772 -0.68675,0.75828 -1.08579,1.14047 -0.88675,0.84931 z m 667.3105,-2.21456 c -2.60626,-2.66813 -2.57394,-2.831 0.0626,-0.31558 1.27453,1.21597 2.83446,3.0143 2.51236,2.89634 -0.0463,-0.017 -1.20505,-1.1783 -2.57498,-2.58076 z m -5.05296,-3.74103 c -0.8007,-0.42301 -1.36252,-0.77473 -1.24849,-0.78159 0.2813,-0.017 2.83665,1.28726 2.83665,1.44778 0,0.17682 0.0367,0.19222 -1.58816,-0.66619 z"
       id="path268" /><path
       style="fill:#3780bc"
       d="m 205.16449,-240.83095 c 0,-28.16994 0.031,-39.694 0.0688,-25.60904 0.0379,14.08497 0.0379,37.13311 0,51.21808 -0.0379,14.08497 -0.0688,2.5609 -0.0688,-25.60904 z m 137.90499,0 c 0,-28.16994 0.031,-39.694 0.0688,-25.60904 0.0378,14.08497 0.0378,37.13311 0,51.21808 -0.0379,14.08497 -0.0688,2.5609 -0.0688,-25.60904 z m 9.79364,0 c 0,-28.16994 0.031,-39.694 0.0688,-25.60904 0.0378,14.08497 0.0378,37.13311 0,51.21808 -0.0378,14.08497 -0.0688,2.5609 -0.0688,-25.60904 z"
       id="path267" /><path
       style="fill:#2978b8"
       d="m -66.675086,-240.6986 c 4e-6,-28.24273 0.03097,-39.75732 0.06882,-25.58798 0.03785,14.16934 0.03784,37.27703 -7e-6,51.35042 -0.03785,14.07339 -0.06882,2.48029 -0.06881,-25.76244 z m 129.56078,-44.79927 -1.446769,-1.52199 1.521984,1.44677 c 0.837091,0.79573 1.521984,1.48062 1.521984,1.52199 0,0.19647 -0.253105,-0.0328 -1.597199,-1.44677 z"
       id="path266" /><path
       style="fill:#e4292d"
       d="m -60.108177,-293.8644 c -0.861915,-0.63451 -1.949225,-1.61718 -2.416244,-2.18372 -1.586096,-1.92408 -3.787436,-6.8083 -3.736786,-8.29099 0.0078,-0.22834 0.280908,0.47817 0.606906,1.57003 1.220328,4.08722 3.543413,7.42825 6.421278,9.23498 0.712503,0.44731 1.159673,0.81555 0.993712,0.81832 -0.165961,0.003 -1.006951,-0.51411 -1.868866,-1.14862 z m 16.337718,0.20419 c 1.937233,-1.26869 2.51694,-1.82664 3.704143,-3.56515 1.174081,-1.71929 1.747709,-3.00269 2.241207,-5.01434 0.196426,-0.80069 0.367062,-1.18405 0.379191,-0.8519 0.03468,0.94986 -0.997567,3.75505 -1.969312,5.35168 -1.012249,1.66319 -2.661102,3.33018 -4.289831,4.33701 -1.678944,1.03787 -1.730905,0.83344 -0.0654,-0.2573 z m 44.02827403,-0.19374 c -1.74006573,-1.28246 -2.60773403,-2.31962 -3.63109213,-4.34038 -1.0234042,-2.02086 -0.8426739,-2.08392 0.235813,-0.0823 1.0550896,1.95821 2.632513,3.6937 4.3587589,4.79553 0.6551149,0.41815 1.0553315,0.76253 0.8893704,0.7653 -0.1659612,0.003 -0.9997437,-0.50941 -1.85285017,-1.13817 z m 17.47655697,0.4458 c 1.82324,-0.94846 3.753693,-2.98327 4.672159,-4.92474 0.43112,-0.9113 0.783949,-1.50407 0.784064,-1.31725 4.16e-4,0.67663 -1.381321,3.04382 -2.459352,4.21334 -1.030485,1.11794 -3.428993,2.73341 -4.025415,2.71124 -0.145581,-0.005 0.317264,-0.31258 1.028544,-0.68259 z m 43.938832,-0.0841 c -0.744633,-0.42709 -1.862281,-1.34908 -2.483663,-2.04888 -1.116961,-1.25792 -2.918004,-4.58478 -2.905845,-5.36763 0.0035,-0.22248 0.297299,0.30341 0.652985,1.16865 1.248319,3.03666 2.963808,5.02418 5.542884,6.42184 0.592297,0.32098 0.957791,0.58786 0.81221,0.59307 -0.145581,0.005 -0.873938,-0.33996 -1.618571,-0.76705 z m 16.940531,0.0841 c 1.823239,-0.94846 3.753692,-2.98327 4.672159,-4.92474 0.43112,-0.9113 0.783948,-1.50407 0.784063,-1.31725 4.16e-4,0.67663 -1.381321,3.04382 -2.459352,4.21334 -1.030485,1.11794 -3.428992,2.73341 -4.025415,2.71124 -0.145581,-0.005 0.317264,-0.31258 1.028545,-0.68259 z m -94.425381,-5.19405 -0.182182,-0.72588 h -5.004714 c -4.246109,0 -5.023632,0.061 -5.129525,0.40223 -0.08732,0.28142 -0.111999,0.26154 -0.08215,-0.0662 0.03894,-0.42757 0.485459,-0.47466 5.12222,-0.54025 4.9085,-0.0694 5.089468,-0.0533 5.373768,0.47789 0.161815,0.30235 0.247084,0.6911 0.189488,0.86389 -0.05759,0.17279 -0.186701,-0.0125 -0.286902,-0.41171 z m 50.140447,0.31731 c -0.01149,-0.22694 0.128396,-0.61679 0.310865,-0.86633 0.296535,-0.40553 0.865301,-0.44604 5.356611,-0.38146 4.803369,0.0691 5.027247,0.0956 5.079244,0.60164 0.04229,0.41162 0.02402,0.42634 -0.08216,0.0662 -0.123799,-0.41994 -0.60255,-0.46322 -5.124256,-0.46322 h -4.987698 l -0.265854,0.72791 c -0.14622,0.40035 -0.275257,0.54223 -0.286751,0.31528 z m -25.2328931,-0.96997 c 0.4731385,-0.0587 1.2473651,-0.0587 1.7205041,0 0.473138,0.0587 0.08603,0.10676 -0.8602522,0.10676 -0.9462771,0 -1.3333904,-0.048 -0.8602519,-0.10676 z m 60.8793621,0 c 0.473139,-0.0587 1.247365,-0.0587 1.720504,0 0.473138,0.0587 0.08603,0.10676 -0.860252,0.10676 -0.946277,0 -1.33339,-0.048 -0.860252,-0.10676 z m -124.09358,-0.67377 c -1.00344,-0.67622 -2.257264,-2.5707 -2.493024,-3.76688 -0.104048,-0.5279 0.01306,-0.38026 0.349366,0.44048 0.723318,1.76522 1.532592,2.80181 2.646968,3.39048 0.534211,0.28219 0.840019,0.51834 0.679572,0.52478 -0.160448,0.006 -0.692745,-0.25855 -1.182882,-0.58886 z m 4.650919,0.10027 c 1.156426,-0.53372 1.956534,-1.31525 2.604145,-2.54368 0.230245,-0.43675 0.423396,-0.69883 0.429225,-0.58242 0.05508,1.10001 -2.571565,3.64014 -3.743875,3.62057 -0.191547,-0.003 0.12818,-0.22571 0.710505,-0.49447 z m 55.9407298,-0.0346 c -0.9403972,-0.4968 -2.6051152,-2.24862 -2.6051152,-2.74142 0,-0.13426 0.3644346,0.25899 0.8098547,0.87387 0.5264627,0.72676 1.2906093,1.34181 2.1837162,1.75763 0.7556239,0.35182 1.1951939,0.63556 0.9768223,0.63055 -0.2183717,-0.005 -0.8327468,-0.23929 -1.365278,-0.52063 z m 6.0622892,0.14083 c 1.350516,-0.58701 2.185004,-1.57196 2.185004,-2.57896 0,-1.69612 -1.321184,-2.70947 -4.609471,-3.53546 -0.9692309,-0.24346 -1.7115655,-0.49333 -1.6496328,-0.55527 0.1866787,-0.18668 3.3780388,0.71598 4.4315298,1.25343 1.890303,0.96436 2.639301,2.79401 1.695424,4.14158 -0.463306,0.66146 -2.016844,1.67339 -2.546022,1.6584 -0.201188,-0.006 0.02074,-0.17837 0.493168,-0.38372 z m 54.817073,-0.14083 c -0.940397,-0.4968 -2.605115,-2.24862 -2.605115,-2.74142 0,-0.13426 0.364434,0.25899 0.809854,0.87387 0.526463,0.72676 1.29061,1.34181 2.183717,1.75763 0.755623,0.35182 1.195193,0.63556 0.976822,0.63055 -0.218372,-0.005 -0.832747,-0.23929 -1.365278,-0.52063 z m 6.172053,-2.5e-4 c 1.138128,-0.60125 2.06267,-1.68928 2.105944,-2.47833 0.02304,-0.42009 0.06007,-0.44866 0.148333,-0.11442 0.200119,0.75783 -0.669062,2.0383 -1.762104,2.59593 -0.573525,0.29259 -1.136851,0.52672 -1.251837,0.52029 -0.114985,-0.006 0.226863,-0.242 0.759664,-0.52347 z m -77.9660369,-0.6776 c -0.4812851,-1.25421 -0.029942,-2.26658 0.9859276,-2.21146 0.1700697,0.009 0.025784,0.13021 -0.3206357,0.26885 -0.5547458,0.22201 -0.6129856,0.37783 -0.4883998,1.30668 0.1493448,1.11345 0.089251,1.32949 -0.1768921,0.63593 z m 63.2389709,-2.5997 c 0.585454,-0.19469 1.478793,-0.42506 1.985196,-0.51192 0.877836,-0.15057 0.871139,-0.14144 -0.14373,0.19606 -0.585455,0.1947 -1.478793,0.42506 -1.985196,0.51192 -0.877836,0.15058 -0.871139,0.14144 0.14373,-0.19606 z m -67.0788676,-1.9049 c -0.3223041,-1.10924 -0.5383628,-2.06445 -0.4801303,-2.12268 0.058232,-0.0582 0.3695805,0.80168 0.6918846,1.91092 0.3223042,1.10925 0.5383629,2.06445 0.4801304,2.12269 -0.058232,0.0582 -0.3695805,-0.80169 -0.6918847,-1.91093 z m 83.4921746,1.50761 c -0.09495,-0.29917 -0.67161,-0.84302 -1.28146,-1.20856 -0.609849,-0.36554 -0.989705,-0.66529 -0.844124,-0.66613 0.843493,-0.005 2.839667,1.8772 2.42785,2.28902 -0.07129,0.0713 -0.207313,-0.11516 -0.302266,-0.41433 z m -112.652789,-0.95176 c -0.09627,-0.66814 -0.261344,-0.82003 -1.040843,-0.95775 l -0.926425,-0.16368 0.827842,-0.0348 c 0.972009,-0.0409 1.504685,0.48469 1.358265,1.34022 -0.09063,0.52957 -0.11953,0.50527 -0.218839,-0.18395 z m -8.685619,-0.30921 c -0.06601,-1.20963 0.200284,-1.41388 1.783679,-1.36815 l 1.493664,0.0431 -1.454528,0.15537 c -1.354455,0.14469 -1.466121,0.21001 -1.623014,0.94946 -0.121933,0.57468 -0.177137,0.63551 -0.199801,0.22017 z m 130.373328,-1.19673 c -0.440755,-3.72149 -3.367012,-6.9177 -7.844208,-8.56786 -0.513733,-0.18934 -0.739407,-0.35266 -0.501497,-0.36291 0.237909,-0.0103 1.381607,0.45636 2.541551,1.03693 2.463418,1.23298 4.280218,3.01275 5.259931,5.15272 0.590165,1.28909 1.16649,4.11472 0.839252,4.11472 -0.07279,0 -0.205554,-0.61812 -0.295029,-1.3736 z m -125.966299,0.12299 c 0.475745,-0.0589 1.190416,-0.0577 1.588157,0.003 0.397741,0.0604 0.0085,0.10859 -0.864992,0.10711 -0.873487,-10e-4 -1.198911,-0.0509 -0.723165,-0.10982 z m -25.002371,-2.05805 c 0.0015,-0.87349 0.0509,-1.19891 0.109811,-0.72317 0.05891,0.47575 0.05769,1.19042 -0.0027,1.58816 -0.0604,0.39774 -0.108596,0.008 -0.107111,-0.86499 z m 71.8203151,0.75948 c -0.7068852,-0.21712 -1.2378398,-0.44217 -1.179899,-0.50011 0.057941,-0.0579 0.8149691,0.11713 1.6822852,0.38905 0.867316,0.27192 1.3982706,0.49697 1.1798989,0.50011 -0.2183716,0.003 -0.9753999,-0.17193 -1.6822851,-0.38905 z m -29.0226281,-0.0316 c -2.97e-4,-0.10918 1.300681,-0.16148 2.891061,-0.11621 l 2.891601,0.0823 -0.117219,-0.61169 c -0.107484,-0.5609 -0.09633,-0.56774 0.134303,-0.0823 0.138337,0.29116 0.259893,0.61872 0.270126,0.7279 0.01023,0.10919 -1.351182,0.19852 -3.025365,0.19852 -1.674182,0 -3.04421,-0.0893 -3.044507,-0.19852 z m 60.898505,-0.26469 c 0.01023,-0.25477 0.129042,-0.70144 0.26402,-0.9926 0.18642,-0.40212 0.208707,-0.32258 0.09271,0.33087 l -0.152705,0.86025 h 2.648551 c 2.299854,0 2.664489,-0.061 2.769602,-0.46321 0.09109,-0.34858 0.128649,-0.31583 0.151755,0.13234 0.03008,0.58339 -0.02882,0.59556 -2.880917,0.59556 -2.603598,0 -2.909653,-0.049 -2.893018,-0.46321 z m 28.289062,0.0793 c -2.902039,-1.06913 -5.176662,-2.879 -6.229499,-4.95667 -0.350924,-0.69252 -0.637949,-1.41197 -0.637835,-1.59879 1.15e-4,-0.18681 0.33885,0.37501 0.752744,1.24849 1.141038,2.40806 3.092992,3.95805 6.523007,5.17974 0.729608,0.25986 1.147891,0.47279 0.92952,0.47317 -0.218372,3.8e-4 -0.820443,-0.1553 -1.337937,-0.34594 z m -122.702925,-2.79238 c 0,-1.67419 0.04298,-2.35908 0.09551,-1.52199 0.05253,0.83709 0.05253,2.20688 0,3.04397 -0.05253,0.83709 -0.09551,0.1522 -0.09551,-1.52198 z m 59.0336239,1.36114 c -0.8596616,-0.56161 -1.81999243,-1.30606 -2.13406853,-1.65433 -0.65826587,-0.72995 -1.80028237,-2.84992 -1.62802987,-3.02217 0.063899,-0.0639 0.3322516,0.37356 0.5963393,0.97213 0.60948806,1.38143 2.11105429,2.88688 3.9063164,3.91642 0.7711671,0.44224 1.2716988,0.80519 1.1122928,0.80656 -0.159406,0.001 -0.9931885,-0.45701 -1.8528501,-1.01861 z m 20.8616941,-0.16594 c -1.23616,-2.54439 -3.705272,-4.51013 -7.008918,-5.58003 -1.054053,-0.34136 -1.726662,-0.62598 -1.494686,-0.6325 0.664717,-0.0187 3.397612,0.9857 4.600864,1.69085 1.61418,0.94597 3.205285,2.59781 3.985649,4.13778 0.378727,0.74738 0.643496,1.40398 0.588375,1.4591 -0.05512,0.0551 -0.357199,-0.42872 -0.671284,-1.0752 z m 15.057064,-0.26878 c -0.01361,-0.14558 0.260553,-1.15803 0.609251,-2.24989 0.348697,-1.09186 0.64513,-1.86608 0.65874,-1.7205 0.01361,0.14558 -0.260553,1.15803 -0.609251,2.24989 -0.348698,1.09186 -0.645131,1.86608 -0.65874,1.7205 z m -81.614576,-5.08865 c 0.475745,-0.0589 1.190416,-0.0577 1.588157,0.003 0.397741,0.0604 0.0085,0.1086 -0.864992,0.10711 -0.873487,-10e-4 -1.198911,-0.0509 -0.723165,-0.10981 z m 4.35003,-0.31303 c 1.976871,-0.17481 2.238105,-0.33587 2.401044,-1.48033 0.101326,-0.71171 0.117169,-0.69043 0.152714,0.20507 0.0336,0.8466 -0.064,1.03856 -0.639304,1.25729 -0.37343,0.14198 -1.356103,0.2394 -2.183716,0.21649 l -1.504753,-0.0416 z m 28.030403,-2.30088 c -0.322304,-1.10924 -0.538363,-2.06445 -0.48013,-2.12268 0.05823,-0.0582 0.36958,0.80168 0.691884,1.91093 0.322304,1.10924 0.538363,2.06445 0.480131,2.12268 -0.05823,0.0582 -0.369581,-0.80169 -0.691885,-1.91093 z m -8.897264,0.93658 c -0.136669,-0.62225 -0.248083,-0.75071 -0.418174,-0.48214 -0.192358,0.30372 -0.231869,0.29845 -0.231869,-0.0309 0,-1.03505 0.447476,-1.02542 0.759595,0.0163 0.18027,0.60168 0.271286,1.15045 0.202258,1.21947 -0.06903,0.069 -0.209341,-0.2562 -0.31181,-0.72274 z m -36.377453,0.21767 c -0.02336,-0.75563 0.95452,-3.07734 1.717441,-4.07758 0.391533,-0.51332 1.085196,-1.16096 1.541472,-1.43918 0.993101,-0.60556 3.053616,-0.67337 4.085224,-0.13443 1.532569,0.80065 2.989622,3.00035 2.946786,4.44873 -0.0098,0.33224 -0.172576,0.0285 -0.361668,-0.67507 -0.664593,-2.47266 -2.296169,-3.88299 -4.490256,-3.88139 -2.354277,0.002 -3.909415,1.47686 -4.932524,4.67878 -0.270732,0.84728 -0.498646,1.33335 -0.506475,1.08014 z m 96.357851,0.0633 c 0,-0.21838 0.152633,-0.75438 0.339185,-1.19112 l 0.339185,-0.79408 0.191144,0.75914 c 0.105129,0.41753 0.125791,0.82449 0.04592,0.90437 -0.07988,0.0799 -0.154902,-0.0831 -0.166726,-0.3621 -0.01602,-0.378 -0.11419,-0.3049 -0.385101,0.28675 -0.199981,0.43674 -0.363602,0.61541 -0.363602,0.39704 z m 18.551905,-1.9852 c 0.003,-1.16465 0.09404,-2.41532 0.202263,-2.77928 0.108226,-0.36395 0.146335,0.46983 0.08469,1.85285 -0.142291,3.19212 -0.29409,3.68221 -0.286948,0.92643 z m -49.9550114,1.34819 c -1.2005281,-0.52292 -2.2426504,-1.88819 -2.2063274,-2.89048 0.029941,-0.82618 0.033611,-0.82358 0.223961,0.15841 0.2445406,1.26155 1.1036778,2.18301 2.4957075,2.67673 0.5983663,0.21222 0.9092711,0.3906 0.6908994,0.3964 -0.2183716,0.006 -0.7602798,-0.14769 -1.2042405,-0.34106 z m 60.5438294,-0.19374 c -1.461436,-0.7234 -1.965158,-1.49073 -1.830568,-2.78855 l 0.105035,-1.01283 0.0445,1.07542 c 0.05284,1.27697 0.947353,2.27709 2.56696,2.87 0.577989,0.21159 0.872222,0.39301 0.65385,0.40315 -0.218371,0.0101 -0.911269,-0.23609 -1.539773,-0.54719 z m -53.725636,-2.41174 c -0.557604,-1.25768 -0.873241,-1.57212 -2.344041,-2.33515 -0.621331,-0.32234 -0.761374,-0.46175 -0.35829,-0.35667 1.067803,0.27837 2.34576,1.38412 2.935351,2.53981 0.501606,0.98323 0.619574,1.06263 1.387194,0.93361 0.461431,-0.0775 1.07719,-0.21249 1.368352,-0.29986 0.291162,-0.0874 0.17205,0.0162 -0.264693,0.23023 -0.436743,0.214 -1.116062,0.39447 -1.509598,0.40103 -0.591643,0.01 -0.801868,-0.18282 -1.214275,-1.113 z m 61.07652,0.57289 c -0.162498,-0.30363 -0.237121,-0.61039 -0.165827,-0.68168 0.07129,-0.0713 0.208082,0.11757 0.303975,0.41971 0.230656,0.72673 0.663908,0.69611 3.4432,-0.24335 1.289781,-0.43597 2.391654,-0.74608 2.448607,-0.68913 0.141035,0.14104 -4.713748,1.7465 -5.281259,1.7465 -0.249284,0 -0.586198,-0.24842 -0.748696,-0.55205 z m -141.848816,0.0424 c -0.02886,-0.75434 1.90308,-4.23022 3.277039,-5.89594 0.774533,-0.939 2.001143,-2.1425 2.725799,-2.67445 1.418833,-1.04152 3.925183,-2.2989 4.570443,-2.29289 0.218371,0.002 -0.297768,0.28938 -1.146976,0.63855 -0.849209,0.34917 -1.987743,0.9285 -2.530077,1.2874 -2.348097,1.5539 -5.186431,5.13593 -6.358275,8.02427 -0.287936,0.7097 -0.530015,1.12057 -0.537953,0.91306 z m 27.830654,-1.48893 c -0.947804,-3.54374 -3.406243,-6.542 -6.710567,-8.18408 -1.069358,-0.53141 -1.646508,-0.88408 -1.282556,-0.7837 2.323984,0.64095 5.026178,2.72725 6.49001,5.01076 0.923231,1.44021 2.097987,4.411 1.936196,4.89638 -0.05549,0.16647 -0.250377,-0.25625 -0.433083,-0.93936 z m 56.639844,1.06836 c 0.07487,-0.0749 0.950641,-0.41089 1.946147,-0.7467 0.995505,-0.33581 1.928961,-0.79914 2.074344,-1.02962 0.389534,-0.61754 -1.17089,-3.61824 -2.695541,-5.18355 -1.625836,-1.66918 -3.231095,-2.58495 -5.634376,-3.21431 -1.077319,-0.28212 -1.701371,-0.5195 -1.386784,-0.52752 1.005964,-0.0256 3.751755,0.96097 5.122548,1.84061 0.730442,0.46872 1.804467,1.39343 2.386721,2.0549 1.227451,1.39446 2.729421,4.28826 2.594418,4.99858 -0.0642,0.33781 -0.702793,0.70678 -2.075538,1.19924 -1.969916,0.70668 -2.592731,0.86916 -2.331939,0.60837 z m -21.1993474,-1.05498 c -0.023629,-0.59468 0.494361,-2.61419 0.6343654,-2.47323 0.049707,0.05 -0.067957,0.74611 -0.2614769,1.5468 -0.1935196,0.8007 -0.3613194,1.21759 -0.3728885,0.92643 z m 77.7961824,-0.13148 c -0.441195,-0.82438 -2.347081,-1.66201 -4.235549,-1.8615 l -1.720504,-0.18175 1.474521,-0.0376 c 1.675492,-0.0427 4.024581,0.96496 4.694578,2.01379 0.209246,0.32755 0.310554,0.59556 0.225128,0.59556 -0.08543,0 -0.282604,-0.23784 -0.438174,-0.52852 z m 7.609457,-0.0592 c 1.938369,-0.93484 -1.481666,-6.10461 -5.303257,-8.01648 -1.016622,-0.50859 -1.709892,-0.92472 -1.5406,-0.92472 0.768234,0 3.667012,1.75614 4.772918,2.89153 1.390833,1.42792 2.931191,4.13068 2.931191,5.14317 0,0.62052 -0.654597,1.2602 -1.23989,1.21164 -0.118756,-0.01 0.05208,-0.14717 0.379638,-0.30514 z m -24.279289,-1.55369 c -0.01418,-0.95041 1.666493,-3.70909 2.986769,-4.90251 1.599344,-1.44567 4.044366,-2.66865 5.741814,-2.87199 1.096676,-0.13137 1.070262,-0.11164 -0.333146,0.24888 -3.731464,0.95857 -6.441207,3.21148 -7.781593,6.46969 -0.334159,0.81228 -0.610388,1.28744 -0.613844,1.05593 z M 9.1006483,-322.0188 c 0.4757458,-0.0589 1.1904167,-0.0577 1.5881577,0.003 0.39774,0.0604 0.0085,0.1086 -0.8649927,0.10711 -0.8734865,-0.001 -1.1989107,-0.0509 -0.723165,-0.10981 z m -11.0531842,-0.67897 c -0.00668,-0.5619 1.21507537,-2.47823 2.22186208,-3.48502 1.18640262,-1.1864 3.01178892,-2.35431 4.12828312,-2.64134 0.3639527,-0.0936 0.042222,0.13863 -0.7149572,0.516 -1.8463539,0.92018 -3.9134793,2.82199 -4.8588988,4.47031 -0.4255929,0.74202 -0.774923,1.25504 -0.7762892,1.14005 z m -105.2153541,-6.67295 c 0.0778,-0.43674 0.6944,-1.92564 1.37032,-3.30866 1.76084,-3.60287 4.95024,-6.79228 8.553114,-8.55311 1.38302,-0.67592 2.871918,-1.29257 3.308661,-1.37032 0.436743,-0.0778 0.172829,0.0897 -0.586475,0.37205 -5.89499,2.19228 -10.08128,6.37858 -12.27357,12.27357 -0.28238,0.7593 -0.4498,1.02322 -0.37205,0.58647 z m 674.84825,-0.4615 c -1.59166,-5.38188 -6.36071,-10.20189 -12.26743,-12.39854 -0.75931,-0.28238 -1.02322,-0.4498 -0.58648,-0.37205 0.43674,0.0777 1.92564,0.6944 3.30866,1.37032 2.13271,1.04232 2.87797,1.59415 4.90742,3.63374 1.82068,1.82976 2.65155,2.91113 3.47476,4.52233 1.10751,2.16764 1.81992,4.0472 1.61259,4.25453 -0.064,0.064 -0.26626,-0.39067 -0.44952,-1.01033 z m -589.673767,0.39688 c 1.134907,-0.0497 2.921584,-0.0494 3.970393,6.8e-4 1.048809,0.0501 0.120248,0.0908 -2.063468,0.0904 -2.183716,-3.7e-4 -3.041833,-0.0414 -1.906925,-0.0911 z m 60.879362,0 c 1.134907,-0.0497 2.921584,-0.0494 3.970393,6.8e-4 1.048809,0.0501 0.120248,0.0908 -2.063468,0.0904 -2.183716,-3.7e-4 -3.041833,-0.0414 -1.906925,-0.0911 z m -91.463488,-0.26153 c 0.61872,-0.0557 1.63117,-0.0557 2.24989,0 0.618719,0.0557 0.112494,0.10132 -1.124945,0.10132 -1.237439,0 -1.743664,-0.0456 -1.124945,-0.10132 z m 61.2843882,-0.001 c 0.6959028,-0.0547 1.7679088,-0.054 2.3822358,0.001 0.614327,0.0555 0.04495,0.10027 -1.2652777,0.0995 -1.3102297,-8e-4 -1.8128609,-0.0462 -1.1169581,-0.10093 z m 60.8793618,0 c 0.695903,-0.0547 1.767909,-0.054 2.382236,0.001 0.614327,0.0555 0.04495,0.10027 -1.265278,0.0995 -1.310229,-8e-4 -1.81286,-0.0462 -1.116958,-0.10093 z"
       id="path265" /><path
       style="fill:#136ab1"
       d="m 70.107616,-172.47401 c 88.185744,-0.0366 232.489684,-0.0366 320.675424,0 88.18574,0.0366 16.03377,0.0666 -160.33771,0.0666 -176.371485,0 -248.523455,-0.03 -160.337714,-0.0666 z m -136.581525,-16.38774 c -0.181976,-0.0734 -0.330866,-0.25728 -0.330866,-0.40856 0,-0.17967 0.123877,-0.17223 0.357249,0.0214 0.260677,0.21634 15.590738,0.31471 56.7104495,0.36389 l 56.3531995,0.0674 -56.3795827,0.0447 c -31.0087703,0.0246 -56.5284733,-0.0154 -56.7104493,-0.0888 z m 135.048658,-0.10701 c -0.09596,-0.15526 -0.10299,-0.35378 -0.01562,-0.44115 0.08737,-0.0874 0.158852,-0.0199 0.158852,0.14996 0,0.23257 4.967069,0.3088 20.120549,0.3088 h 20.12055 l 0.5245,-0.86025 c 0.28848,-0.47314 0.52495,-0.72742 0.5255,-0.56508 5.4e-4,0.16234 -0.24588,0.60901 -0.54761,0.9926 l -0.5486,0.69743 H 88.831048 c -13.937511,0 -20.135209,-0.0864 -20.256299,-0.28231 z m 91.693201,-0.18091 c -0.32277,-0.41156 -0.31554,-0.42595 0.0648,-0.12905 0.33801,0.26382 4.6651,0.31954 20.55464,0.26469 11.06958,-0.0382 20.07128,0.0199 20.00378,0.12906 -0.0675,0.10918 -9.15362,0.19852 -20.19136,0.19852 -18.79813,0 -20.09163,-0.0293 -20.43191,-0.46322 z m 54.24896,0.26479 c 4.99679,-0.0403 13.09639,-0.0403 17.99912,5e-5 4.90273,0.0403 0.81445,0.0733 -9.08506,0.0733 -9.89952,-2e-5 -13.91084,-0.033 -8.91406,-0.0733 z m 101.37738,0 c 4.99678,-0.0403 13.09638,-0.0403 17.99911,5e-5 4.90273,0.0403 0.81445,0.0733 -9.08506,0.0733 -9.89951,-2e-5 -13.91084,-0.033 -8.91405,-0.0733 z m 46.32125,0 c 4.99678,-0.0403 13.09639,-0.0403 17.99911,5e-5 4.90273,0.0403 0.81446,0.0733 -9.08506,0.0733 -9.89951,-2e-5 -13.91084,-0.033 -8.91405,-0.0733 z m 31.80476,-0.20491 c -0.24701,-0.29763 -0.26128,-0.55778 -0.0544,-0.9926 0.26277,-0.55241 0.27753,-0.5396 0.23615,0.20482 l -0.0441,0.79408 h 20.29001 c 11.1595,0 20.15244,0.0875 19.98431,0.19446 -0.16813,0.10696 -9.25427,0.19629 -20.19142,0.19852 -17.49462,0.004 -19.92598,-0.0444 -20.22047,-0.39928 z m 91.94485,0.20076 c -0.27591,-0.17542 20.65299,-0.16917 34.71592,0.0104 3.0572,0.039 -3.43439,0.0964 -14.42576,0.12753 -10.99137,0.0311 -20.12195,-0.0309 -20.29016,-0.1379 z m -244.01024,-11.17922 0.005,-10.45537 h 32.16018 32.16019 l 0.005,10.45537 0.005,10.45537 -0.0738,-10.38919 -0.0738,-10.3892 h -32.02177 -32.02176 l -0.0738,10.3892 -0.0738,10.38919 z m 147.63634,-40.56418 -0.0655,-51.28424 h 24.48409 c 13.46625,0 24.4841,0.0893 24.48411,0.19852 1e-5,0.10918 -10.95797,0.16751 -24.35107,0.12961 l -24.3511,-0.0689 -0.0675,51.15463 -0.0675,51.15463 z m -184.82113,-0.0662 v -50.95338 h -24.07875 c -22.81244,0 -24.0709,0.0244 -23.92973,0.46321 0.12577,0.39099 0.10447,0.40131 -0.1366,0.0662 -0.15709,-0.21837 -0.28744,-0.48637 -0.28967,-0.59555 -0.002,-0.10919 10.95424,-0.19852 24.3477,-0.19852 h 24.35174 v 51.08572 c 0,28.09715 -0.0596,51.08573 -0.13235,51.08573 -0.0728,0 -0.13234,-22.92902 -0.13234,-50.95338 z m 138.49987,-0.0662 -0.0655,-51.15189 h 4.76448 4.76447 l -0.0655,51.15189 -0.0655,51.1519 -0.0675,-51.01955 -0.0675,-51.01955 h -4.49843 -4.49844 l -0.0675,51.01955 -0.0675,51.01955 z m -278.390058,43.34346 c 1.157818,-1.16465 2.16468,-2.11754 2.23747,-2.11754 0.07279,0 -0.814959,0.95289 -1.972777,2.11754 -1.157818,1.16465 -2.164679,2.11755 -2.23747,2.11755 -0.07279,0 0.814959,-0.9529 1.972777,-2.11755 z m 373.889288,-0.9337 c -0.006,-0.14958 0.17483,-0.5367 0.40145,-0.86025 l 0.41205,-0.58828 h 20.61603 20.61602 l 0.41205,0.58828 c 0.22663,0.32355 0.40728,0.71067 0.40145,0.86025 -0.006,0.14958 -0.1883,-0.0556 -0.40549,-0.45594 l -0.3949,-0.7279 h -20.62913 -20.62914 l -0.3949,0.7279 c -0.21719,0.40035 -0.39966,0.60552 -0.40549,0.45594 z m -314.24756,-1.38229 c 5.72487,-0.0398 15.01559,-0.0398 20.64605,4e-5 5.63045,0.0399 0.94647,0.0725 -10.40886,0.0724 -11.35532,-3e-5 -15.96206,-0.0326 -10.23719,-0.0725 z m -54.160434,-5.21925 c 0.464324,-0.9416 0.887902,-1.66833 0.941285,-1.61494 0.118347,0.11834 -1.482068,3.32694 -1.659446,3.32694 -0.06934,0 0.253837,-0.7704 0.718161,-1.712 z m -99.45882,-7.88395 c -0.07001,-0.18244 -0.09605,-4.85758 -0.05787,-10.3892 l 0.06942,-10.05749 27.2633667,-0.002 27.2633663,-0.002 -27.1971931,0.0693 -27.1971929,0.0693 v 10.18822 10.18822 l 27.7265787,0.0686 27.7265793,0.0686 -27.7348867,0.0649 c -22.0289653,0.0516 -27.7610733,-0.003 -27.8621723,-0.26676 z m 102.670784,-5.09451 c 9.62e-4,-1.16464 0.0475,-1.60817 0.103412,-0.9856 0.05591,0.62257 0.05513,1.57546 -0.0017,2.11755 -0.05688,0.54208 -0.102625,0.0327 -0.101664,-1.13195 z m 55.808,-3.24209 c 2.86553,-0.0427 7.63,-0.0428 10.58772,-1.3e-4 2.95771,0.0426 0.61319,0.0776 -5.21006,0.0776 -5.82324,7e-5 -8.24319,-0.0348 -5.37766,-0.0775 z m 320.40309,-3.9e-4 c -0.0675,-0.10919 4.61903,-0.19852 10.41447,-0.19852 5.79544,0 10.48195,0.0893 10.41447,0.19852 -0.0675,0.10918 -4.75399,0.19852 -10.41447,0.19852 -5.66048,0 -10.34699,-0.0893 -10.41447,-0.19852 z m -207.77964,-9.77053 c -0.0976,-0.0976 -0.17752,-13.85552 -0.17752,-30.57308 v -30.39556 h 32.29364 32.29365 l -0.0673,30.50585 -0.0673,30.50585 -32.04884,0.0672 c -17.62687,0.037 -32.12873,-0.0127 -32.22636,-0.11029 z m 64.14285,-30.39662 v -30.30733 h -32.02784 -32.02784 v 30.30733 30.30734 h 32.02784 32.02784 z m -241.275844,22.82976 -1.579871,-1.65433 1.65433,1.57987 c 0.909882,0.86893 1.654331,1.61338 1.654331,1.65433 0,0.19559 -0.261224,-0.0431 -1.72879,-1.57987 z m -2.109257,-14.22724 c 1.011259,-1.01907 1.898208,-1.85285 1.970999,-1.85285 0.07279,0 -0.695047,0.83378 -1.706306,1.85285 -1.011259,1.01907 -1.898208,1.85285 -1.970999,1.85285 -0.07279,0 0.695047,-0.83378 1.706306,-1.85285 z m -91.86133,-3.24683 c -0.07075,-0.18437 -0.09679,-3.43017 -0.05787,-7.21288 l 0.07077,-6.87767 27.9250989,-0.002 27.9250991,-0.002 -27.8589259,0.0692 -27.8589251,0.0692 v 7.01196 7.01195 l 28.25596441,0.0686 28.25596459,0.0686 -28.26427192,0.065 c -22.61018108,0.052 -28.29000408,-0.002 -28.39290508,-0.27025 z m 98.962548,-13.29647 c 0.0012,-1.01907 0.04902,-1.40353 0.106316,-0.85435 0.0573,0.54917 0.05634,1.38296 -0.0021,1.85285 -0.05847,0.46989 -0.105356,0.0206 -0.104181,-0.9985 z M 52.479314,-291.7141 c -0.167552,-0.10696 3.03049,-0.17377 7.106761,-0.14847 8.123239,0.0504 7.649079,0.16262 -1.151171,0.27243 -3.108022,0.0388 -5.788038,-0.017 -5.95559,-0.12396 z m 16.437185,0.13167 c 0.7643,-0.0535 2.014974,-0.0535 2.779275,0 0.7643,0.0535 0.138964,0.0972 -1.389638,0.0972 -1.528601,0 -2.153938,-0.0437 -1.389637,-0.0972 z m 24.417918,-0.0695 -19.71962,-0.13744 19.785793,-0.0636 c 13.05648,-0.042 19.78579,0.0264 19.78579,0.20107 0,0.14558 -0.0298,0.23606 -0.0662,0.20106 -0.0364,-0.035 -8.94,-0.12547 -19.785793,-0.20106 z m 388.569133,-0.0662 c 1e-5,-0.10919 19.56412,-0.16971 43.47582,-0.13449 23.91169,0.0352 36.44821,0.0947 27.85892,0.13217 -41.44494,0.18082 -71.33476,0.18179 -71.33474,0.002 z m -579.459212,-0.13228 c 5.724871,-0.0398 15.015591,-0.0398 20.646045,4e-5 5.630453,0.0399 0.946468,0.0725 -10.408856,0.0724 -11.355325,-2e-5 -15.962057,-0.0326 -10.237189,-0.0725 z"
       id="path264" /><path
       style="fill:#d12831"
       d="m -95.325433,-292.64452 c 6.951497,-0.0392 18.326673,-0.0392 25.27817,0 6.951497,0.0392 1.263909,0.0714 -12.639085,0.0714 -13.902993,0 -19.590582,-0.0321 -12.639085,-0.0714 z m 52.158246,9.6e-4 c 1.426977,-0.0477 3.690101,-0.0475 5.029165,4.7e-4 1.339063,0.0479 0.171536,0.0869 -2.594504,0.0867 -2.766041,-2.6e-4 -3.861638,-0.0395 -2.434661,-0.0872 z m 18.795271,-4.8e-4 c 2.010444,-0.045 5.226462,-0.0449 7.146708,2.6e-4 1.920245,0.0452 0.275337,0.082 -3.655353,0.0819 -3.930689,-1.4e-4 -5.501799,-0.0371 -3.491355,-0.0821 z m 21.5566444,0.001 c 1.0554628,-0.0502 2.78258387,-0.0502 3.8380467,0 1.0554629,0.0503 0.1919024,0.0914 -1.91902335,0.0914 -2.11092575,0 -2.97448625,-0.0411 -1.91902335,-0.0914 z m 21.3207736,-7.3e-4 c 1.280982,-0.0486 3.305883,-0.0484 4.499779,5.5e-4 1.193895,0.0489 0.145819,0.0887 -2.32906,0.0884 -2.474878,-3e-4 -3.451702,-0.0403 -2.170719,-0.089 z m 17.737251,-7.1e-4 c 2.010444,-0.045 5.226462,-0.0449 7.146708,2.6e-4 1.920245,0.0452 0.275337,0.082 -3.655352,0.0819 -3.93069,-1.4e-4 -5.5018,-0.0371 -3.491356,-0.0821 z m 21.688991,10e-4 c 1.128253,-0.0496 2.974486,-0.0496 4.10274,0 1.128253,0.0496 0.205137,0.0902 -2.05137,0.0902 -2.256507,0 -3.179623,-0.0406 -2.05137,-0.0902 z m 141.875386,-0.002 c 67.65881,-0.0367 178.37322,-0.0367 246.03203,0 67.65881,0.0367 12.3016,0.0667 -123.01602,0.0667 -135.31761,0 -190.67482,-0.03 -123.01601,-0.0667 z"
       id="path263" /><path
       style="fill:#e31f23"
       d="m -108.35997,-307.46738 c 0.002,-14.95147 0.16767,-20.68418 0.55032,-18.99171 l 0.17954,0.79407 0.0313,-0.83237 c 0.05,-1.32963 1.05325,-4.28704 2.23175,-6.57903 0.81403,-1.58315 1.65905,-2.68723 3.34841,-4.37494 2.973011,-2.97012 5.955725,-4.57418 10.068041,-5.41444 1.25694,-0.25683 1.506552,-0.36947 0.926426,-0.41807 -0.436744,-0.0366 0.0397,-0.15209 1.058771,-0.25669 1.019068,-0.10459 145.203896,-0.19016 320.410732,-0.19016 175.20683,0 319.39166,0.0856 320.41073,0.19016 1.01907,0.1046 1.49551,0.22011 1.05877,0.25669 -0.58013,0.0486 -0.33052,0.16124 0.92642,0.41807 4.11409,0.84063 7.09602,2.44461 10.06585,5.41444 2.96983,2.96983 4.57381,5.95175 5.41443,10.06584 0.25584,1.25208 0.36931,1.50431 0.41679,0.92643 0.0359,-0.43675 0.15226,-0.0199 0.25862,0.92642 0.30831,2.7428 0.29966,33.3513 -0.009,33.3513 -0.14558,0 -0.26469,-0.11911 -0.26469,-0.26469 0,-0.17627 -81.99028,-0.26552 -245.43648,-0.26718 l -245.436467,-0.002 1.328872,-0.76225 c 1.628022,-0.93383 3.319185,-2.72818 4.181475,-4.43659 0.965621,-1.91313 1.320269,-3.9181 1.195928,-6.76105 -0.09474,-2.16611 -0.227478,-2.75342 -0.957414,-4.23613 -1.674377,-3.40114 -4.978931,-5.54452 -10.116293,-6.56155 -3.786681,-0.74964 -5.081683,-1.20643 -5.929731,-2.0916 -0.596542,-0.62266 -0.706988,-0.9489 -0.638302,-1.88549 0.116853,-1.59338 0.985544,-2.19809 3.334006,-2.32084 1.538325,-0.0804 1.973499,0.008 3.225773,0.65356 1.166086,0.60135 1.56738,0.99098 2.063785,2.00379 0.405372,0.82708 0.784356,1.25729 1.107582,1.25729 0.501122,0 5.591135,-1.70408 6.432004,-2.15336 0.69223,-0.36986 0.564165,-1.42117 -0.391545,-3.21427 -2.109038,-3.95696 -5.68142,-6.09342 -10.792518,-6.45445 -8.256838,-0.58324 -14.027934,4.2635 -14.027934,11.78109 0,4.74416 1.961393,8.01269 5.908048,9.84536 0.899635,0.41775 3.303264,1.19367 5.341399,1.72427 4.096824,1.06655 5.55753,1.73909 6.113886,2.81496 0.512111,0.99031 0.465373,1.61141 -0.183316,2.43609 -0.898392,1.14212 -2.381262,1.74916 -4.265694,1.74623 -2.92924,-0.005 -5.034667,-1.39118 -6.125122,-4.03398 -0.259444,-0.62878 -0.58429,-0.9923 -0.886278,-0.99177 -0.76363,10e-4 -7.250993,1.77075 -7.53557,2.05533 -0.343624,0.34362 0.148274,2.14094 1.101608,4.0251 0.995289,1.96708 2.694716,3.84083 4.338672,4.78373 l 1.353878,0.77653 -3.311474,0.002 -3.311475,0.002 -5.255403,-18.06529 c -2.890472,-9.93591 -5.366731,-18.1844 -5.502799,-18.32998 -0.33777,-0.36139 -9.370949,-0.35245 -9.733028,0.01 -0.150877,0.15088 -2.702581,8.3696 -5.670455,18.26381 l -5.396133,17.98949 -3.937897,0.0679 -3.937897,0.0679 1.328872,-0.7665 c 1.63058,-0.94052 3.320745,-2.73552 4.181475,-4.44084 0.962726,-1.9074 1.320267,-3.91938 1.196691,-6.73412 -0.09255,-2.10804 -0.235363,-2.75049 -0.935489,-4.20834 -1.863982,-3.8813 -4.381321,-5.46921 -10.715614,-6.75929 -3.6928789,-0.75211 -4.705052,-1.14306 -5.4668616,-2.11154 -0.6290941,-0.79976 -0.7410933,-2.13737 -0.2345436,-2.80115 0.5933848,-0.77757 1.9858866,-1.29797 3.4731633,-1.29797 2.3730619,0 4.1721779,1.02159 4.9681699,2.82106 0.378263,0.85512 0.657687,1.1491 1.091578,1.14841 0.320746,-5.1e-4 2.011176,-0.50826 3.756513,-1.12832 2.32398,-0.82564 3.198315,-1.25709 3.266656,-1.61195 0.168184,-0.87331 -1.57806,-3.94829 -3.112729,-5.48123 -2.422434,-2.41972 -5.816194,-3.67399 -9.9684209,-3.68416 -2.2686375,-0.006 -5.5852858,0.80083 -7.2100208,1.75298 -4.5848299,2.68689 -6.5393233,8.29401 -4.911154,14.08928 1.1064355,3.93823 3.6336586,5.75378 10.5471814,7.57705 5.3432003,1.40913 6.4946443,2.12587 6.4946443,4.04273 0,1.72208 -2.033614,2.9748 -4.8221439,2.97046 -2.9270498,-0.005 -5.0329411,-1.39195 -6.1230786,-4.03398 -0.4913035,-1.19071 -0.5863522,-1.19856 -3.87757911,-0.32009 -1.38302029,0.36914 -2.96125159,0.79032 -3.50718069,0.93596 -0.8700754,0.2321 -0.9925982,0.36369 -0.9925982,1.06601 0,0.95942 1.5078726,4.31902 2.5577668,5.69879 0.4129918,0.54276 1.4488903,1.50127 2.30199673,2.13002 l 1.55110257,1.1432 h -3.1433138 -3.1433139 l -5.1574571,-17.90447 c -2.8366018,-9.84746 -5.2967448,-18.09595 -5.4669858,-18.32998 -0.26401,-0.36294 -0.991924,-0.42552 -4.949757,-0.42552 -2.802969,0 -4.747189,0.10696 -4.910371,0.27015 -0.148578,0.14857 -2.684436,8.39707 -5.635239,18.32998 l -5.365096,18.05984 h -4.303979 c -2.367188,0 -4.303978,-0.0482 -4.303978,-0.1072 0,-0.059 0.520148,-0.41202 1.155884,-0.78459 2.76305,-1.61925 5.170873,-5.35471 5.927663,-9.19607 0.360366,-1.82917 0.3656,-2.16371 0.03896,-2.49034 -0.259377,-0.25938 -1.605126,-0.4748 -4.305191,-0.68914 -4.40399,-0.34961 -4.237119,-0.40595 -4.501051,1.51965 -0.535265,3.90518 -4.18373,6.19886 -7.317361,4.6002 -1.320653,-0.67375 -2.241644,-2.02114 -2.984778,-4.36665 -0.508772,-1.60581 -0.586431,-2.43516 -0.582459,-6.22029 0.0052,-4.93732 0.477674,-7.14749 1.967742,-9.20447 0.989645,-1.36617 2.014272,-1.91263 3.586225,-1.91263 2.74123,0 4.429794,1.95693 4.80761,5.57168 0.112844,1.07963 0.304677,1.66563 0.591332,1.80636 0.600489,0.29481 8.441702,-0.33441 8.814621,-0.70733 0.231124,-0.23113 0.224706,-0.83471 -0.02631,-2.47446 -0.997463,-6.51585 -4.328059,-10.36624 -10.28458,-11.88966 -5.776584,-1.4774 -11.179346,0.31677 -15.03696,4.99353 -3.068069,3.71957 -4.128639,7.1875 -4.102157,13.41354 0.0219,5.1497 0.601625,8.09375 2.242489,11.3882 1.421327,2.85367 2.386349,4.0616 4.470714,5.59602 l 1.567118,1.15365 h -24.645556 c -16.253909,0 -24.645552,0.0901 -24.645552,0.26469 0,0.14558 -0.11911,0.26469 -0.26469,0.26469 -0.17343,0 -0.26415,-5.27074 -0.26311,-15.28601 z m 81.479011,11.44797 0.93951,-3.30867 h 4.967645 4.967645 l 0.521389,1.78668 c 1.045821,3.58378 1.353878,4.66375 1.353878,4.74634 0,0.0464 -3.080155,0.0843 -6.844788,0.0843 h -6.844788 z m 59.865399,3.22435 c 0,-0.0826 0.308057,-1.16256 1.353878,-4.74634 l 0.521389,-1.78668 h 4.967645 4.967645 l 0.93951,3.30867 0.939509,3.30866 h -6.844788 c -3.764633,0 -6.844788,-0.0379 -6.844788,-0.0843 z m -56.535107,-14.93701 c 0.07966,-0.25477 0.676258,-2.35209 1.325766,-4.66071 0.649507,-2.30862 1.232541,-4.24911 1.295631,-4.3122 0.06309,-0.0631 0.498148,1.26968 0.966796,2.96172 0.468648,1.69203 1.070728,3.84096 1.337955,4.77541 l 0.485868,1.69899 h -2.77843 c -2.524839,0 -2.765209,-0.0423 -2.633586,-0.46321 z m 60.770898,0.26469 c 0.0011,-0.29811 2.585429,-9.09317 2.707978,-9.21572 0.100981,-0.10098 2.604139,8.80122 2.591316,9.21572 -0.0034,0.10918 -1.197259,0.19852 -2.65307,0.19852 -1.455811,0 -2.646612,-0.0893 -2.646224,-0.19852 z"
       id="path262" /><path
       style="fill:#993450"
       d="m -97.442976,-292.3798 c 5.786848,-0.0398 15.256236,-0.0398 21.043084,0 5.786848,0.0398 1.052154,0.0723 -10.521542,0.0723 -11.573696,0 -16.308386,-0.0326 -10.521542,-0.0723 z m 155.361332,0.002 c 1.26647,-0.0484 3.410483,-0.0487 4.764471,-5.1e-4 1.353989,0.0481 0.317786,0.0877 -2.302674,0.088 -2.620459,2.8e-4 -3.728268,-0.0391 -2.461797,-0.0875 z m 27.296261,-0.002 c 5.360833,-0.04 14.055994,-0.04 19.322583,5e-5 5.26658,0.0401 0.88045,0.0728 -9.746973,0.0728 -10.627419,-3e-5 -14.936443,-0.0328 -9.57561,-0.0729 z m 82.849433,-3e-5 c 6.96253,-0.0393 18.27816,-0.0392 25.14582,3e-5 6.86767,0.0393 1.17105,0.0714 -12.65915,0.0714 -13.8302,-2e-5 -19.4492,-0.0322 -12.48667,-0.0714 z m 89.57847,-10e-6 c 9.06242,-0.0386 23.89184,-0.0386 32.95426,0 9.06243,0.0386 1.64772,0.0702 -16.47713,0.0702 -18.12484,0 -25.53955,-0.0316 -16.47713,-0.0702 z m 87.61334,10e-4 c 1.49221,-0.0472 3.934,-0.0472 5.42621,0 1.4922,0.0472 0.27131,0.0858 -2.7131,0.0858 -2.98442,0 -4.20531,-0.0386 -2.71311,-0.0858 z m 56.24724,-10e-4 c 6.9515,-0.0392 18.32667,-0.0392 25.27817,0 6.9515,0.0393 1.26391,0.0714 -12.63908,0.0714 -13.903,0 -19.59059,-0.0321 -12.63909,-0.0714 z m 101.53061,-4e-5 c 12.13112,-0.0381 31.90368,-0.0381 43.93902,1e-5 12.03535,0.0381 2.10989,0.0692 -22.05657,0.0692 -24.16646,-10e-6 -34.01356,-0.0312 -21.88245,-0.0693 z"
       id="path261" /><path
       style="fill:#54487a"
       d="m -97.595011,-292.11509 c 5.703229,-0.0398 15.113061,-0.0398 20.910737,-3e-5 5.797677,0.0398 1.131399,0.0724 -10.369506,0.0724 -11.500906,2e-5 -16.24446,-0.0325 -10.541231,-0.0724 z m 151.821055,4.6e-4 c 2.147321,-0.0445 5.661119,-0.0445 7.80844,0 2.147321,0.0445 0.390422,0.0809 -3.90422,0.0809 -4.294642,0 -6.051541,-0.0364 -3.90422,-0.0809 z m 30.155449,-4.4e-4 c 5.339359,-0.04 14.153632,-0.0401 19.587277,-4e-5 5.43364,0.04 1.06507,0.0728 -9.707928,0.0728 -10.773001,3e-5 -15.218707,-0.0327 -9.879349,-0.0727 z m 83.794837,-6e-5 c 6.8787,-0.0393 18.13477,-0.0393 25.01348,0 6.8787,0.0393 1.25067,0.0714 -12.50674,0.0714 -13.75742,0 -19.38545,-0.0321 -12.50674,-0.0714 z m 89.59854,-3e-5 c 8.98963,-0.0386 23.69994,-0.0386 32.68957,0 8.98963,0.0386 1.63448,0.0702 -16.34479,0.0702 -17.97926,0 -25.33441,-0.0316 -16.34478,-0.0702 z m 87.48099,10e-4 c 1.49221,-0.0472 3.934,-0.0472 5.42621,0 1.4922,0.0472 0.27131,0.0858 -2.7131,0.0858 -2.98442,0 -4.20531,-0.0386 -2.71311,-0.0858 z m 56.37959,-10e-4 c 6.8787,-0.0393 18.13477,-0.0393 25.01347,0 6.87871,0.0393 1.25068,0.0714 -12.50673,0.0714 -13.75742,0 -19.38545,-0.0321 -12.50674,-0.0714 z m 101.50972,-4e-5 c 12.04683,-0.0381 31.75983,-0.0381 43.80667,0 12.04683,0.0381 2.19033,0.0692 -21.90334,0.0692 -24.09367,0 -33.95017,-0.0312 -21.90333,-0.0692 z"
       id="path260" /><path
       style="fill:#0260ac"
       d="m 69.97527,-172.20932 c 88.25853,-0.0366 232.68158,-0.0366 320.94012,0 88.25853,0.0366 16.047,0.0666 -160.47006,0.0666 -176.517066,0 -248.728592,-0.03 -160.47006,-0.0666 z m -162.322908,-0.72283 c -7.904442,-1.74468 -13.882002,-7.99284 -15.201632,-15.8898 -0.176,-1.05319 -0.2351,-1.15965 -0.29213,-0.52624 -0.041,0.45521 -0.15403,0.0599 -0.26489,-0.92642 -0.30944,-2.75293 -0.30029,-101.583 0.009,-101.77441 0.14558,-0.09 0.26469,-0.0375 0.26469,0.11672 0,0.19488 6.25223,0.28032 20.513697,0.28032 h 20.513698 v 51.3221 c 0,46.55486 0.03889,51.33702 0.418688,51.48276 0.803541,0.30835 111.777754,0.17948 114.325675,-0.13276 11.614885,-1.42337 21.373598,-9.73599 24.596496,-20.95168 4.298573,-14.95903 -4.149164,-30.76725 -19.034305,-35.6188 l -2.297217,-0.74874 1.748386,-0.47327 c 8.14725,-2.20536 14.645583,-9.26341 16.584799,-18.01328 0.196726,-0.88765 0.340356,-2.98919 0.325628,-4.76448 -0.03269,-3.94061 -0.624151,-6.37146 -2.447335,-10.05833 -2.533267,-5.12281 -6.413159,-8.76693 -11.851002,-11.13086 l -1.970412,-0.85657 29.693268,-0.0317 c 23.833986,-0.0255 29.666706,0.0343 29.558666,0.30282 -0.074,0.18401 -10.09911,23.07025 -22.277952,50.85831 -12.196657,27.82871 -22.107323,50.77618 -22.063158,51.08572 l 0.08018,0.56198 20.140321,0.0678 c 18.926449,0.0637 20.164869,0.0398 20.547559,-0.39704 0.22399,-0.25567 1.40446,-2.6979 2.62327,-5.42717 l 2.21603,-4.96231 20.66408,-6.8e-4 20.66408,-6.8e-4 2.33542,5.16014 c 1.28449,2.83807 2.4806,5.28062 2.65803,5.42787 0.21287,0.17667 7.15542,0.24467 20.41013,0.1999 l 20.08752,-0.0679 -0.0205,-0.92642 c -0.0137,-0.61794 -7.27442,-17.45251 -21.80491,-50.55634 -11.98142,-27.29646 -21.9494,-50.01703 -22.15107,-50.49017 l -0.36667,-0.86025 h 24.08861 24.08861 l 0.0682,51.22773 c 0.0601,45.19803 0.1149,51.25728 0.4652,51.47872 0.23989,0.15163 7.43536,0.25257 18.17873,0.25502 15.81577,0.004 17.82768,-0.0419 18.19764,-0.41189 0.36407,-0.36407 0.41594,-1.71764 0.41594,-10.85241 v -10.43646 h 32.02784 32.02784 v 10.43646 c 0,9.13477 0.0519,10.48834 0.41595,10.85241 0.36996,0.36996 2.38187,0.4155 18.19763,0.41189 10.74337,-0.002 17.93885,-0.10339 18.17873,-0.25502 0.35031,-0.22144 0.40506,-6.28069 0.46521,-51.47872 l 0.0682,-51.22773 h 4.49579 4.49578 l 0.0682,51.22773 c 0.0602,45.19803 0.1149,51.25728 0.46521,51.47872 0.23988,0.15163 7.43536,0.25257 18.17873,0.25502 15.81577,0.004 17.82768,-0.0419 18.19763,-0.41189 0.37526,-0.37526 0.41595,-5.41131 0.41595,-51.48276 v -51.06682 h 24.24772 c 22.98296,0 24.23863,0.0242 24.07353,0.46321 -0.0958,0.25477 -10.12938,23.24231 -22.29684,51.08342 -18.39877,42.09934 -22.06688,50.68743 -21.79124,51.01955 0.29013,0.34958 2.8095,0.39884 20.21716,0.39529 10.93715,-0.002 20.03175,-0.0968 20.21022,-0.2102 0.17848,-0.11338 1.37426,-2.52357 2.6573,-5.35598 l 2.33279,-5.14982 h 20.75767 20.75766 l 2.3328,5.14982 c 1.28304,2.83241 2.47882,5.2426 2.65729,5.35598 0.45087,0.28644 39.94231,0.26069 40.39553,-0.0263 0.21783,-0.13795 0.31292,-0.48611 0.23386,-0.8562 -0.0733,-0.34305 -10.09499,-23.34259 -22.27044,-51.11009 -12.17546,-27.76751 -22.13719,-50.54764 -22.13719,-50.62252 0,-0.0749 19.47477,-0.13613 43.27728,-0.13613 28.67506,0 43.27729,-0.0893 43.27729,-0.26469 0,-0.14559 0.11911,-0.2647 0.26469,-0.2647 0.30989,0 0.31906,99.15209 0.009,101.90676 -0.11071,0.98494 -0.22387,1.38101 -0.26469,0.92642 -0.0551,-0.61297 -0.12423,-0.4764 -0.30336,0.59886 -1.20079,7.20815 -6.27946,12.97695 -13.60244,15.45085 l -1.85285,0.62595 -321.86654,0.0455 c -266.278586,0.0376 -322.140825,-0.0151 -323.4547,-0.30508 z m 63.393945,-50.03206 v -10.20219 l 28.38831085,0.0719 28.38831115,0.0719 1.531137,0.618 c 1.969383,0.79489 4.447329,3.07007 5.347473,4.90989 2.533782,5.17887 0.263639,11.36571 -5.091233,13.87519 l -1.522684,0.71358 -28.52065771,0.0719 -28.52065729,0.0719 z m 158.206493,-9.72743 c 2.68961,-6.29639 5.00736,-11.74575 5.15057,-12.1097 0.22779,-0.57896 0.29141,-0.60625 0.5086,-0.21816 0.21104,0.3771 6.93004,15.89577 9.46318,21.8568 l 0.81548,1.91902 h -10.41402 -10.41402 z m 320.66704,11.22181 c 0.89999,-2.3069 10.18464,-23.85292 10.27891,-23.85329 0.0946,-3.8e-4 9.44386,21.6939 10.2789,23.85147 0.0485,0.12539 -4.57698,0.22797 -10.2789,0.22797 -5.70193,0 -10.32744,-0.10177 -10.27891,-0.22615 z m -207.82803,-39.87482 v -30.30733 h 32.02784 32.02784 v 30.30733 30.30734 h -32.02784 -32.02784 z m -271.045503,-1.58354 v -7.01898 h 28.14263911 c 31.85049889,0 29.70926389,-0.14104 31.95524889,2.10494 3.332139,3.33214 2.588146,8.62879 -1.554076,11.0638 l -1.237804,0.72764 -28.65300427,0.0708 -28.65300373,0.0708 z"
       id="path259" /></g></svg>
