<?xml version="1.0" encoding="UTF-8" standalone="no"?>
<svg
   height="476.77899"
   viewBox="0 0 640.2 126.2"
   width="2419.4851"
   version="1.1"
   id="svg14"
   sodipodi:docname="aliexpress.svg"
   xml:space="preserve"
   inkscape:export-filename="shopee.svg"
   inkscape:export-xdpi="96"
   inkscape:export-ydpi="96"
   xmlns:inkscape="http://www.inkscape.org/namespaces/inkscape"
   xmlns:sodipodi="http://sodipodi.sourceforge.net/DTD/sodipodi-0.dtd"
   xmlns="http://www.w3.org/2000/svg"
   xmlns:svg="http://www.w3.org/2000/svg"><defs
     id="defs14" /><sodipodi:namedview
     id="namedview14"
     pagecolor="#ffffff"
     bordercolor="#000000"
     borderopacity="0.25"
     inkscape:showpageshadow="2"
     inkscape:pageopacity="0.0"
     inkscape:pagecheckerboard="0"
     inkscape:deskcolor="#d1d1d1" /><g
     id="g73"
     transform="matrix(0.97528274,0,0,0.99534079,9.0128143,206.10946)"><path
       style="fill:#eecccf"
       d="m 58.840669,-84.735597 c 0.152908,-0.04273 0.36507,-0.03992 0.47147,0.0062 0.1064,0.04617 -0.01871,0.08113 -0.278015,0.0777 -0.259309,-0.0034 -0.346364,-0.04121 -0.193455,-0.08394 z m 12.41539,0 c 0.152909,-0.04273 0.36507,-0.03992 0.471471,0.0062 0.1064,0.04617 -0.01871,0.08113 -0.278016,0.0777 -0.259309,-0.0034 -0.346363,-0.04121 -0.193455,-0.08394 z m -15.473117,-0.166881 c 0.113447,-0.04869 0.248995,-0.0427 0.301217,0.01331 0.05222,0.05601 -0.0406,0.09584 -0.206268,0.08852 -0.183079,-0.0081 -0.220319,-0.04803 -0.09495,-0.10183 z m 18.691841,0.0035 c 0.108046,-0.04676 0.284847,-0.04676 0.392892,0 0.108046,0.04676 0.01964,0.08501 -0.196446,0.08501 -0.21609,0 -0.304491,-0.03825 -0.196446,-0.08501 z M 51.539707,-85.23958 c 0.113448,-0.04869 0.248995,-0.0427 0.301217,0.01331 0.05222,0.05601 -0.0406,0.09584 -0.206268,0.08852 -0.183079,-0.0081 -0.220318,-0.04803 -0.09495,-0.10183 z m 33.788721,-0.505635 c 0.113447,-0.04869 0.248995,-0.0427 0.301217,0.01331 0.05222,0.05601 -0.0406,0.09584 -0.206269,0.08852 -0.183078,-0.0081 -0.220318,-0.04803 -0.09495,-0.10183 z m 1.728725,-0.168545 c 0.113447,-0.04869 0.248995,-0.0427 0.301217,0.01331 0.05222,0.05601 -0.0406,0.09584 -0.206268,0.08852 -0.183079,-0.0081 -0.220318,-0.04803 -0.09495,-0.10183 z m 6.745302,-0.748504 c 0.106605,-0.115186 0.233416,-0.166972 0.281803,-0.115079 0.04839,0.05189 -0.03884,0.146136 -0.193827,0.20943 -0.22398,0.09147 -0.242031,0.07211 -0.08798,-0.09435 z m -23.649485,-8.35396 c 0.151264,-0.04239 0.398786,-0.04239 0.550049,0 0.151264,0.04239 0.0275,0.07708 -0.275024,0.07708 -0.302527,0 -0.426288,-0.03469 -0.275025,-0.07708 z m 401.85004,0 c 0.15126,-0.04239 0.39879,-0.04239 0.55005,0 0.15126,0.04239 0.0275,0.07708 -0.27503,0.07708 -0.30252,0 -0.42628,-0.03469 -0.27502,-0.07708 z m 2.51451,0 c 0.15126,-0.04239 0.39878,-0.04239 0.55005,0 0.15126,0.04239 0.0275,0.07708 -0.27503,0.07708 -0.30252,0 -0.42628,-0.03469 -0.27502,-0.07708 z M 66.855668,-95.185387 c 0.152908,-0.04273 0.36507,-0.03992 0.47147,0.0062 0.1064,0.04617 -0.01871,0.08113 -0.278015,0.0777 -0.259309,-0.0034 -0.346364,-0.04121 -0.193455,-0.08394 z m 21.606074,0.0052 c 0.108045,-0.04676 0.284847,-0.04676 0.392892,0 0.108045,0.04676 0.01964,0.08501 -0.196446,0.08501 -0.216091,0 -0.304491,-0.03826 -0.196446,-0.08501 z m -23.878017,-0.172056 c 0.113447,-0.04869 0.248995,-0.0427 0.301217,0.01331 0.05222,0.05601 -0.0406,0.09584 -0.206268,0.08852 -0.183079,-0.0081 -0.220319,-0.04802 -0.09495,-0.101829 z m 26.70684,0.0035 c 0.108045,-0.04676 0.284847,-0.04676 0.392892,0 0.108046,0.04676 0.01964,0.08501 -0.196446,0.08501 -0.21609,0 -0.304491,-0.03826 -0.196446,-0.08501 z m -28.749879,-0.172056 c 0.113447,-0.04869 0.248995,-0.0427 0.301217,0.01331 0.05222,0.05601 -0.0406,0.09584 -0.206268,0.08852 -0.183079,-0.0081 -0.220318,-0.04803 -0.09495,-0.101829 z m 31.578702,0.0035 c 0.108046,-0.04676 0.284847,-0.04676 0.392892,0 0.108046,0.04676 0.01964,0.08501 -0.196446,0.08501 -0.21609,0 -0.304491,-0.03826 -0.196446,-0.08501 z m 2.524332,-0.172056 c 0.113448,-0.04869 0.248995,-0.0427 0.301217,0.01331 0.05222,0.05601 -0.0406,0.09584 -0.206268,0.08852 -0.183079,-0.0081 -0.220318,-0.04802 -0.09495,-0.101829 z M 76.683339,-97.55403 c 0.890569,-0.0301 2.304981,-0.02998 3.143137,2.71e-4 0.838155,0.03025 0.109507,0.05487 -1.619218,0.05472 -1.728725,-1.49e-4 -2.414489,-0.0249 -1.523919,-0.05499 z m -6.527378,-0.159532 c 0.152909,-0.04273 0.36507,-0.03992 0.471471,0.0062 0.1064,0.04617 -0.01871,0.08113 -0.278016,0.0777 -0.259309,-0.0034 -0.346363,-0.04121 -0.193455,-0.08394 z m 19.644605,0 c 0.152909,-0.04273 0.36507,-0.03992 0.471471,0.0062 0.1064,0.04617 -0.01871,0.08113 -0.278016,0.0777 -0.259309,-0.0034 -0.346363,-0.04121 -0.193455,-0.08394 z m -22.545175,-0.16688 c 0.113448,-0.04869 0.248995,-0.0427 0.301217,0.01331 0.05222,0.05601 -0.0406,0.09584 -0.206268,0.08852 -0.183079,-0.0081 -0.220318,-0.04802 -0.09495,-0.101829 z m 16.101745,-0.0017 c 0.152908,-0.04273 0.36507,-0.03992 0.47147,0.0062 0.106401,0.04617 -0.01871,0.08113 -0.278015,0.0777 -0.259309,-0.0034 -0.346364,-0.04121 -0.193455,-0.08394 z m 9.819311,0.0052 c 0.108046,-0.04676 0.284847,-0.04676 0.392892,0 0.108046,0.04676 0.01964,0.08501 -0.196446,0.08501 -0.21609,0 -0.304491,-0.03826 -0.196446,-0.08501 z m 2.838646,-0.172056 c 0.113447,-0.04869 0.248995,-0.0427 0.301217,0.01331 0.05222,0.05601 -0.0406,0.09584 -0.206268,0.08852 -0.183079,-0.0081 -0.220319,-0.04802 -0.09495,-0.101829 z m 1.87344,-0.242869 c 0.106605,-0.115187 0.233416,-0.166973 0.281802,-0.11508 0.04839,0.05189 -0.03883,0.146136 -0.193826,0.20943 -0.22398,0.09147 -0.242032,0.07211 -0.08798,-0.09435 z m 361.011127,-1.453855 c -0.19549,-0.267318 -0.18993,-0.273278 0.0593,-0.06364 0.26179,0.220182 0.34504,0.358589 0.21569,0.358589 -0.0326,0 -0.15639,-0.132729 -0.27502,-0.294954 z m -233.28917,-1.432628 -0.46159,-0.54777 0.51076,0.49503 c 0.4761,0.46144 0.583,0.60051 0.46159,0.60051 -0.0271,0 -0.25689,-0.2465 -0.51076,-0.54777 z m 232.18907,0.25281 c -0.19548,-0.26732 -0.18993,-0.27328 0.0593,-0.0636 0.15127,0.12722 0.27503,0.25995 0.27503,0.29495 0,0.13872 -0.12906,0.0494 -0.33436,-0.23132 z M 4.5592325,-102.77952 c -0.1954828,-0.26732 -0.1899241,-0.27328 0.059335,-0.0636 0.2617837,0.22019 0.3450345,0.35859 0.2156891,0.35859 -0.032635,0 -0.1563955,-0.13273 -0.2750245,-0.29495 z m 616.2254475,-1.09554 c 0.38535,-0.44033 0.72127,-0.80059 0.7465,-0.80059 0.118,0 -0.007,0.15132 -0.70064,0.84977 l -0.7465,0.75141 z M 1.2589389,-106.31897 c -0.1954828,-0.26732 -0.1899241,-0.27328 0.059335,-0.0636 0.1512635,0.12722 0.2750245,0.25995 0.2750245,0.29495 0,0.13872 -0.1290549,0.0494 -0.3343598,-0.23132 z m 92.2346361,-0.66992 c 0.282466,-0.0375 0.70679,-0.0367 0.942941,0.002 0.236152,0.0385 0.005,0.0692 -0.513574,0.0682 -0.518617,-9.5e-4 -0.711832,-0.0324 -0.429367,-0.0699 z m 107.424515,-0.004 c 1.88584,-0.0269 4.92682,-0.0269 6.75775,7e-5 1.83092,0.0269 0.28796,0.049 -3.4288,0.0489 -3.71676,-4e-5 -5.21478,-0.0221 -3.32895,-0.049 z m 46.90069,0.0146 c 0.10804,-0.0468 0.28484,-0.0468 0.39289,0 0.10805,0.0468 0.0196,0.085 -0.19645,0.085 -0.21609,0 -0.30449,-0.0383 -0.19644,-0.085 z m -163.441284,-0.17613 c 0.19549,-0.0403 0.478372,-0.0388 0.628628,0.003 0.150256,0.0422 -0.0097,0.0752 -0.355435,0.0733 -0.345745,-0.002 -0.468682,-0.0364 -0.273193,-0.0767 z m 14.299441,0.008 c 0.108045,-0.0467 0.284846,-0.0467 0.392892,0 0.108045,0.0468 0.01964,0.085 -0.196446,0.085 -0.216091,0 -0.304492,-0.0383 -0.196446,-0.085 z m -17.758723,-0.16854 c 0.108045,-0.0468 0.284846,-0.0468 0.392892,0 0.108045,0.0468 0.01964,0.085 -0.196446,0.085 -0.216091,0 -0.304492,-0.0383 -0.196446,-0.085 z m -2.51451,-0.16855 c 0.108046,-0.0468 0.284847,-0.0468 0.392892,0 0.108046,0.0468 0.01965,0.085 -0.196446,0.085 -0.21609,0 -0.304491,-0.0383 -0.196446,-0.085 z m 524.513946,-0.51081 c 0.15291,-0.0427 0.36507,-0.0399 0.47147,0.006 0.1064,0.0462 -0.0187,0.0811 -0.27802,0.0777 -0.25931,-0.003 -0.34636,-0.0412 -0.19345,-0.084 z m -361.28221,-1.27369 -0.29938,-0.37923 0.3536,0.32108 c 0.3323,0.30173 0.42515,0.43737 0.29938,0.43737 -0.0298,0 -0.18894,-0.17065 -0.3536,-0.37922 z m -157.49252,-0.5803 c 0.152908,-0.0427 0.36507,-0.0399 0.47147,0.006 0.106401,0.0462 -0.01871,0.0811 -0.278015,0.0777 -0.259309,-0.003 -0.346364,-0.0412 -0.193455,-0.0839 z m 13.198183,6.2e-4 c 0.151264,-0.0424 0.398786,-0.0424 0.550049,0 0.151264,0.0424 0.0275,0.0771 -0.275024,0.0771 -0.302527,0 -0.426288,-0.0347 -0.275025,-0.0771 z m 510.406127,-0.30518 c 0.20301,-0.23175 0.40446,-0.42137 0.44768,-0.42137 0.0432,0 -0.0875,0.18962 -0.29052,0.42137 -0.20301,0.23175 -0.40447,0.42136 -0.44768,0.42136 -0.0432,0 0.0875,-0.18961 0.29052,-0.42136 z m -526.671859,0.14119 c 0.108045,-0.0468 0.284846,-0.0468 0.392892,0 0.108045,0.0468 0.01964,0.085 -0.196446,0.085 -0.216091,0 -0.304492,-0.0383 -0.196446,-0.085 z m 8.496291,-0.004 c 0.113448,-0.0487 0.248996,-0.0427 0.301217,0.0133 0.05222,0.056 -0.0406,0.0958 -0.206268,0.0885 -0.183079,-0.008 -0.220318,-0.048 -0.09495,-0.10183 z m 11.943918,0 c 0.11345,-0.0487 0.249,-0.0427 0.30122,0.0133 0.0522,0.056 -0.0406,0.0958 -0.20627,0.0885 -0.18308,-0.008 -0.22032,-0.048 -0.0949,-0.10183 z m 371.14041,-0.26409 -0.29938,-0.37923 0.35361,0.32108 c 0.3323,0.30173 0.42514,0.43737 0.29938,0.43737 -0.0298,0 -0.18895,-0.17065 -0.35361,-0.37922 z m -451.595289,-0.0843 c -0.195483,-0.26732 -0.189924,-0.27328 0.05933,-0.0636 0.151264,0.12722 0.275025,0.25995 0.275025,0.29495 0,0.13872 -0.129055,0.0494 -0.33436,-0.23132 z m 57.824296,0.17982 c 0.113448,-0.0487 0.248995,-0.0427 0.301217,0.0133 0.05222,0.056 -0.0406,0.0958 -0.206268,0.0885 -0.183079,-0.008 -0.220318,-0.048 -0.09495,-0.10183 z m 143.072833,-0.81186 c 0.003,-0.2781 0.0384,-0.37146 0.0783,-0.20747 0.0398,0.16399 0.0372,0.39152 -0.006,0.50563 -0.043,0.11411 -0.0756,-0.0201 -0.0724,-0.29816 z m 258.80667,0 c 0.20301,-0.23175 0.40447,-0.42136 0.44769,-0.42136 0.0432,0 -0.0875,0.18961 -0.29053,0.42136 -0.20301,0.23175 -0.40446,0.42136 -0.44768,0.42136 -0.0432,0 0.0875,-0.18961 0.29052,-0.42136 z m -26.70425,-1.02531 c 0.008,-0.19635 0.0448,-0.23629 0.0949,-0.10183 0.0454,0.12166 0.0398,0.26703 -0.0124,0.32304 -0.0522,0.056 -0.0894,-0.0435 -0.0825,-0.22121 z m -430.558504,-0.78655 -0.299382,-0.37922 0.353603,0.32107 c 0.3323,0.30173 0.425147,0.43738 0.299382,0.43738 -0.02982,0 -0.188943,-0.17065 -0.353603,-0.37923 z m -5.269868,-0.58991 c -0.195483,-0.26732 -0.189925,-0.27328 0.05934,-0.0636 0.151263,0.12722 0.275024,0.25995 0.275024,0.29495 0,0.13872 -0.129054,0.0494 -0.334359,-0.23132 z m 203.725952,-0.46349 c 0.003,-0.2781 0.0384,-0.37147 0.0783,-0.20748 0.0398,0.16399 0.0372,0.39153 -0.006,0.50564 -0.043,0.11411 -0.0756,-0.0201 -0.0724,-0.29816 z m -199.946037,-0.54778 -0.380997,-0.46349 0.432181,0.4086 c 0.403939,0.38191 0.504252,0.51839 0.380998,0.51839 -0.02815,0 -0.222633,-0.20857 -0.432182,-0.4635 z m 217.876227,-0.80058 c 10e-4,-0.4635 0.0317,-0.63311 0.0678,-0.37691 0.0361,0.2562 0.0352,0.63542 -0.002,0.84272 -0.0373,0.2073 -0.0669,-0.002 -0.0657,-0.46581 z m 214.17223,0.32304 c 0.008,-0.19634 0.0448,-0.23628 0.0949,-0.10183 0.0454,0.12167 0.0398,0.26704 -0.0124,0.32305 -0.0522,0.056 -0.0894,-0.0435 -0.0825,-0.22122 z m -357.816253,-1.36684 c 0.152908,-0.0427 0.36507,-0.0399 0.47147,0.006 0.1064,0.0462 -0.01871,0.0811 -0.278015,0.0777 -0.259309,-0.003 -0.346364,-0.0412 -0.193455,-0.0839 z m -2.900571,-0.33543 c 0.113448,-0.0487 0.248996,-0.0427 0.301218,0.0133 0.05222,0.056 -0.0406,0.0958 -0.206269,0.0885 -0.183078,-0.008 -0.220318,-0.048 -0.09495,-0.10183 z m 5.569246,-0.006 c 0.2377,-0.0386 0.626663,-0.0386 0.864362,0 0.237696,0.0386 0.04322,0.0702 -0.432181,0.0702 -0.475399,0 -0.669881,-0.0316 -0.432181,-0.0702 z m -9.655323,-0.16296 c 0.113447,-0.0487 0.248995,-0.0427 0.301217,0.0133 0.05222,0.056 -0.0406,0.0958 -0.206269,0.0885 -0.183078,-0.008 -0.220318,-0.048 -0.09495,-0.10183 z m -2.51451,-0.16855 c 0.113448,-0.0487 0.248995,-0.0427 0.301217,0.0133 0.05222,0.056 -0.0406,0.0958 -0.206268,0.0885 -0.183079,-0.008 -0.220318,-0.048 -0.09495,-0.10183 z m -46.823318,-3.04508 c -0.195482,-0.26732 -0.189924,-0.27328 0.05934,-0.0636 0.261784,0.22019 0.345034,0.35859 0.215689,0.35859 -0.03263,0 -0.156396,-0.13273 -0.275025,-0.29495 z m 18.556094,-7.24743 -0.541589,-0.63205 0.589338,0.58084 c 0.324136,0.31945 0.589338,0.60387 0.589338,0.63204 0,0.1287 -0.132988,0.007 -0.637087,-0.58083 z m -45.54221,0.1264 c 0,-0.23175 0.03567,-0.32655 0.07927,-0.21068 0.0436,0.11588 0.0436,0.30549 0,0.42137 -0.0436,0.11587 -0.07927,0.0211 -0.07927,-0.21069 z m 0,-2.02254 c 0,-0.23175 0.03567,-0.32655 0.07927,-0.21068 0.0436,0.11588 0.0436,0.30549 0,0.42137 -0.0436,0.11587 -0.07927,0.0211 -0.07927,-0.21069 z m 20.92414,-3.70799 c 0,-0.50984 0.02946,-0.71842 0.06547,-0.46349 0.03601,0.25492 0.03601,0.67207 0,0.92699 -0.03601,0.25493 -0.06547,0.0464 -0.06547,-0.4635 z m 4.063798,-0.16854 c 0,-0.23175 0.03567,-0.32656 0.07927,-0.21068 0.0436,0.11587 0.0436,0.30549 0,0.42136 -0.0436,0.11587 -0.07927,0.0211 -0.07927,-0.21068 z m 0,-1.51691 c 0,-0.23175 0.03567,-0.32655 0.07927,-0.21068 0.0436,0.11588 0.0436,0.30549 0,0.42137 -0.0436,0.11587 -0.07927,0.0211 -0.07927,-0.21069 z m 16.676615,-2.35963 c 0,-0.41714 0.03065,-0.5878 0.06811,-0.37922 0.03746,0.20857 0.03746,0.54988 0,0.75845 -0.03746,0.20857 -0.06811,0.0379 -0.06811,-0.37923 z m 497.661012,-0.29495 -0.381,-0.4635 0.43219,0.40861 c 0.23769,0.22473 0.43218,0.43331 0.43218,0.4635 0,0.13218 -0.12727,0.0246 -0.48337,-0.40861 z m -3.47502,-1.50563 c 0.11345,-0.0487 0.24899,-0.0427 0.30122,0.0133 0.0522,0.056 -0.0406,0.0959 -0.20627,0.0885 -0.18308,-0.008 -0.22032,-0.048 -0.095,-0.10183 z m -133.51456,-6.41581 c 1.87999,-0.0269 4.95633,-0.0269 6.83632,0 1.87999,0.0269 0.34182,0.0489 -3.41816,0.0489 -3.75998,0 -5.29815,-0.022 -3.41816,-0.0489 z m -169.9483,-0.42278 c 0.0655,-0.0702 4.71186,-0.10811 10.32526,-0.0842 l 10.20618,0.0434 -10.32526,0.0842 c -5.67888,0.0463 -10.27166,0.0268 -10.20618,-0.0434 z M 5.3650629,-149.23517 c 0,-0.035 0.123761,-0.16772 0.2750244,-0.29495 0.2492595,-0.20965 0.2548182,-0.20369 0.059335,0.0636 -0.2053049,0.28075 -0.3343598,0.37003 -0.3343598,0.23131 z m 19.6446051,-0.16854 c 0,-0.035 0.123761,-0.16773 0.275024,-0.29495 0.24926,-0.20965 0.254819,-0.20369 0.05934,0.0636 -0.205305,0.28075 -0.33436,0.37004 -0.33436,0.23132 z m 518.145782,-0.56841 c -1.8e-4,-0.0695 0.79543,-0.10652 1.76801,-0.0822 3.21849,0.0804 3.53162,0.14445 0.86469,0.17674 -1.44781,0.0175 -2.63252,-0.025 -2.6327,-0.0945 z m -501.172843,-0.4635 c 0.203006,-0.23175 0.404463,-0.42136 0.447681,-0.42136 0.04322,0 -0.08752,0.18961 -0.290525,0.42136 -0.203006,0.23175 -0.404463,0.42136 -0.447681,0.42136 -0.04322,0 0.08752,-0.18961 0.290525,-0.42136 z m 4.400391,-0.67418 c 0.556842,-0.60255 1.0478,-1.09554 1.091018,-1.09554 0.04322,0 -0.377019,0.49299 -0.933861,1.09554 -0.556842,0.60255 -1.0478,1.09554 -1.091018,1.09554 -0.04322,0 0.377019,-0.49299 0.933861,-1.09554 z m -23.180634,-0.25282 c 0.156448,-0.1854 0.31981,-0.33709 0.363029,-0.33709 0.04322,0 -0.04942,0.15169 -0.205872,0.33709 -0.156447,0.1854 -0.31981,0.33709 -0.363028,0.33709 -0.04322,0 0.04942,-0.15169 0.205871,-0.33709 z m 4.000932,-0.54777 c 0.385351,-0.44032 0.721273,-0.80059 0.746495,-0.80059 0.118007,0 -0.0068,0.15133 -0.700638,0.84977 l -0.746495,0.75141 z m 33.638131,0.48414 c 0,-0.035 0.123761,-0.16773 0.275025,-0.29495 0.249259,-0.20965 0.254818,-0.20369 0.05933,0.0636 -0.205305,0.28075 -0.33436,0.37004 -0.33436,0.23132 z m -16.815781,-1.20045 c 0.29322,-0.32445 0.568488,-0.58991 0.611706,-0.58991 0.04322,0 -0.161329,0.26546 -0.45455,0.58991 -0.29322,0.32445 -0.568488,0.5899 -0.611706,0.5899 -0.04322,0 0.161329,-0.26545 0.45455,-0.5899 z m -15.008479,-1.26409 c 0.337611,-0.3708 0.649199,-0.67418 0.692417,-0.67418 0.04322,0 -0.197649,0.30338 -0.53526,0.67418 -0.337611,0.3708 -0.649198,0.67418 -0.692416,0.67418 -0.04322,0 0.197648,-0.30338 0.535259,-0.67418 z m 16.737204,-0.40073 c 0,-0.035 0.123761,-0.16772 0.275024,-0.29495 0.24926,-0.20965 0.254818,-0.20369 0.05934,0.0636 -0.205305,0.28075 -0.33436,0.37003 -0.33436,0.23131 z m -35.124554,-0.61054 c 0.156448,-0.1854 0.31981,-0.33709 0.363028,-0.33709 0.04322,0 -0.04942,0.15169 -0.205871,0.33709 -0.156448,0.1854 -0.31981,0.33709 -0.363029,0.33709 -0.04322,0 0.04942,-0.15169 0.205872,-0.33709 z m 16.580047,-0.75845 c 0.203006,-0.23175 0.404463,-0.42137 0.447681,-0.42137 0.04322,0 -0.08752,0.18962 -0.290525,0.42137 -0.203006,0.23175 -0.404463,0.42136 -0.447681,0.42136 -0.04322,0 0.08752,-0.18961 0.290525,-0.42136 z m 37.639063,-0.0843 c 0.156447,-0.18539 0.31981,-0.33709 0.363028,-0.33709 0.04322,0 -0.04942,0.1517 -0.205871,0.33709 -0.156448,0.1854 -0.319811,0.33709 -0.363029,0.33709 -0.04322,0 0.04942,-0.15169 0.205872,-0.33709 z m -33.867299,-0.0636 c 0,-0.035 0.123761,-0.16773 0.275024,-0.29495 0.24926,-0.20965 0.254818,-0.20369 0.05934,0.0636 -0.205305,0.28075 -0.33436,0.37004 -0.33436,0.23132 z m -2.357353,-1.17982 c 0,-0.035 0.123761,-0.16772 0.275025,-0.29495 0.249259,-0.20965 0.254818,-0.20369 0.05934,0.0636 -0.205305,0.28075 -0.33436,0.37003 -0.33436,0.23131 z m 388.255975,-1.2373 c 5.99468,-0.11777 11.20036,-0.12024 11.13399,-0.005 -0.0401,0.0695 -3.09212,0.10957 -6.78216,0.089 -3.69005,-0.0206 -5.64838,-0.0583 -4.35183,-0.0837 z m 30.42225,-10.59553 c 0.008,-0.19634 0.0448,-0.23628 0.0949,-0.10183 0.0454,0.12167 0.0398,0.26704 -0.0124,0.32305 -0.0522,0.056 -0.0894,-0.0435 -0.0825,-0.22122 z m 173.97263,-0.33709 c 0.008,-0.19634 0.0448,-0.23628 0.0949,-0.10183 0.0454,0.12167 0.0398,0.26704 -0.0124,0.32305 -0.0522,0.056 -0.0894,-0.0435 -0.0825,-0.22122 z M 447.49595,-172.515 c 8.8e-4,-0.5562 0.0302,-0.76342 0.0652,-0.46048 0.035,0.30293 0.0343,0.758 -0.002,1.01127 -0.0359,0.25326 -0.0645,0.005 -0.0636,-0.55079 z m -17.00923,0.32304 c 0.008,-0.19634 0.0448,-0.23628 0.0949,-0.10183 0.0454,0.12167 0.0398,0.26704 -0.0124,0.32305 -0.0522,0.056 -0.0894,-0.0435 -0.0825,-0.22122 z m 181.42517,-2.09276 c 0.15644,-0.1854 0.31981,-0.33709 0.36303,-0.33709 0.0432,0 -0.0494,0.15169 -0.20588,0.33709 -0.15644,0.18539 -0.31981,0.33709 -0.36302,0.33709 -0.0432,0 0.0494,-0.1517 0.20587,-0.33709 z m -278.06422,-0.50564 c 0,-0.23175 0.0357,-0.32656 0.0793,-0.21068 0.0436,0.11587 0.0436,0.30549 0,0.42136 -0.0436,0.11588 -0.0793,0.0211 -0.0793,-0.21068 z m 90.45824,-2.97689 c 0.10804,-0.0468 0.28485,-0.0468 0.39289,0 0.10805,0.0468 0.0197,0.085 -0.19644,0.085 -0.2161,0 -0.3045,-0.0382 -0.19645,-0.085 z m 1.73855,-0.004 c 0.11344,-0.0487 0.24899,-0.0427 0.30121,0.0133 0.0522,0.056 -0.0406,0.0958 -0.20626,0.0885 -0.18308,-0.008 -0.22032,-0.048 -0.0949,-0.10183 z m 123.83723,-0.17893 c 0.7172,-0.0313 1.84873,-0.0311 2.51451,3.8e-4 0.66577,0.0315 0.079,0.0571 -1.30401,0.0569 -1.38298,-2.1e-4 -1.92771,-0.026 -1.2105,-0.0573 z m -311.76735,-3.47756 c 0,-0.035 0.12376,-0.16773 0.27503,-0.29495 0.24926,-0.20965 0.25482,-0.20369 0.0593,0.0636 -0.2053,0.28075 -0.33436,0.37004 -0.33436,0.23132 z m -50.44734,-0.66328 c 0,-0.029 0.22984,-0.27551 0.51076,-0.54778 l 0.51076,-0.49503 -0.46159,0.54777 c -0.43026,0.5106 -0.55993,0.62525 -0.55993,0.49504 z m 385.88369,-2.01194 -0.29939,-0.37923 0.35361,0.32108 c 0.19448,0.17659 0.3536,0.34724 0.3536,0.37923 0,0.13487 -0.12648,0.0353 -0.40782,-0.32108 z m -319.43582,-4.11808 c 0.11345,-0.0487 0.249,-0.0427 0.30122,0.0133 0.0522,0.056 -0.0406,0.0958 -0.20627,0.0885 -0.18308,-0.008 -0.22032,-0.048 -0.095,-0.10183 z m -48.80702,-0.16959 c 0.15127,-0.0424 0.39879,-0.0424 0.55005,0 0.15126,0.0424 0.0275,0.0771 -0.27502,0.0771 -0.30253,0 -0.42629,-0.0347 -0.27503,-0.0771 z m 56.49789,-0.0101 c 2.61469,-0.0259 6.89329,-0.0259 9.50799,0 2.61469,0.0259 0.47539,0.0472 -4.754,0.0472 -5.22939,0 -7.36869,-0.0212 -4.75399,-0.0472 z m 36.36988,-5e-5 c 4.12077,-0.025 10.90995,-0.025 15.08705,-2e-5 4.17711,0.025 0.80557,0.0454 -7.49231,0.0454 -8.29788,1e-5 -11.71551,-0.0204 -7.59474,-0.0454 z m 263.32821,0.0147 c 0.10805,-0.0468 0.28485,-0.0468 0.39289,0 0.10805,0.0468 0.0197,0.085 -0.19644,0.085 -0.21609,0 -0.3045,-0.0383 -0.19645,-0.085 z m -89.02935,-0.52031 c 2.39861,-0.0262 6.3236,-0.0262 8.72221,0 2.3986,0.0262 0.43611,0.0476 -4.36111,0.0476 -4.79721,0 -6.75971,-0.0214 -4.3611,-0.0476 z m 30.17411,0 c 2.39861,-0.0262 6.3236,-0.0262 8.72221,0 2.3986,0.0262 0.43611,0.0476 -4.3611,0.0476 -4.79722,0 -6.75971,-0.0214 -4.36111,-0.0476 z m -77.00386,-0.49614 c 0.15291,-0.0427 0.36507,-0.0399 0.47147,0.006 0.1064,0.0462 -0.0187,0.0811 -0.27801,0.0777 -0.25931,-0.003 -0.34637,-0.0412 -0.19346,-0.0839 z m 3.45745,0 c 0.15291,-0.0427 0.36507,-0.0399 0.47147,0.006 0.1064,0.0462 -0.0187,0.0811 -0.27801,0.0777 -0.25931,-0.003 -0.34636,-0.0412 -0.19346,-0.0839 z m 188.35931,0.002 c 0.11345,-0.0487 0.24899,-0.0427 0.30121,0.0133 0.0522,0.056 -0.0406,0.0958 -0.20626,0.0885 -0.18308,-0.008 -0.22032,-0.048 -0.0949,-0.10183 z m 3.30029,0 c 0.11345,-0.0487 0.249,-0.0427 0.30122,0.0133 0.0522,0.056 -0.0406,0.0958 -0.20627,0.0885 -0.18308,-0.008 -0.22032,-0.048 -0.0949,-0.10183 z m -489.39884,-2.43395 c 0.1066,-0.11519 0.23342,-0.16697 0.2818,-0.11508 0.0484,0.0519 -0.0388,0.14614 -0.19382,0.20943 -0.22398,0.0915 -0.24204,0.0721 -0.088,-0.0943 z m -1.24481,-4.30784 c 0.11344,-0.0487 0.24899,-0.0427 0.30121,0.0133 0.0522,0.056 -0.0406,0.0958 -0.20626,0.0885 -0.18308,-0.008 -0.22032,-0.048 -0.0949,-0.10182 z m 2.20019,-0.16855 c 0.11345,-0.0487 0.249,-0.0427 0.30122,0.0133 0.0522,0.056 -0.0406,0.0958 -0.20627,0.0885 -0.18308,-0.008 -0.22032,-0.048 -0.095,-0.10183 z m -0.47147,-1.17981 c 0.11345,-0.0487 0.249,-0.0427 0.30122,0.0133 0.0522,0.056 -0.0406,0.0958 -0.20627,0.0885 -0.18308,-0.008 -0.22032,-0.048 -0.095,-0.10182 z m -2.82882,-3.20236 c 0.11345,-0.0487 0.24899,-0.0427 0.30122,0.0133 0.0522,0.056 -0.0406,0.0958 -0.20627,0.0885 -0.18308,-0.008 -0.22032,-0.048 -0.0949,-0.10183 z m 2.35735,-0.16854 c 0.11345,-0.0487 0.249,-0.0427 0.30122,0.0133 0.0522,0.056 -0.0406,0.0958 -0.20627,0.0885 -0.18308,-0.008 -0.22032,-0.048 -0.0949,-0.10182 z m 2.66185,-0.16504 c 0.10804,-0.0468 0.28484,-0.0468 0.39289,0 0.10804,0.0468 0.0196,0.085 -0.19645,0.085 -0.21609,0 -0.30449,-0.0383 -0.19644,-0.085 z"
       id="path79" /><path
       style="fill:#de9ca3"
       d="m 59.626453,-84.735597 c 0.152908,-0.04273 0.36507,-0.03992 0.47147,0.0062 0.106401,0.04617 -0.01871,0.08113 -0.278015,0.0777 -0.259309,-0.0034 -0.346364,-0.04121 -0.193455,-0.08394 z m 10.606928,-0.0024 c 0.195489,-0.04031 0.478372,-0.03878 0.628627,0.0034 0.150256,0.04219 -0.0097,0.07517 -0.355435,0.0733 -0.345745,-0.0019 -0.468681,-0.03639 -0.273192,-0.0767 z m -13.978969,-0.164475 c 0.113448,-0.04869 0.248995,-0.0427 0.301217,0.01331 0.05222,0.05601 -0.0406,0.09584 -0.206268,0.08852 -0.183079,-0.0081 -0.220318,-0.04803 -0.09495,-0.10183 z m 17.758723,0 c 0.113448,-0.04869 0.248995,-0.0427 0.301217,0.01331 0.05222,0.05601 -0.0406,0.09584 -0.206268,0.08852 -0.183079,-0.0081 -0.220318,-0.04803 -0.09495,-0.10183 z m -20.273232,-0.168545 c 0.113447,-0.04869 0.248995,-0.0427 0.301217,0.01331 0.05222,0.05601 -0.0406,0.09584 -0.206268,0.08852 -0.183079,-0.0081 -0.220318,-0.04803 -0.09495,-0.10183 z m 29.388329,-0.505635 c 0.113447,-0.04869 0.248995,-0.0427 0.301217,0.01331 0.05222,0.05601 -0.0406,0.09584 -0.206268,0.08852 -0.183079,-0.0081 -0.220318,-0.04803 -0.09495,-0.10183 z m -7.076612,-9.279293 c 0.456688,-0.03415 1.163893,-0.0338 1.571568,7.97e-4 0.407675,0.03459 0.03402,0.06254 -0.830341,0.0621 -0.864363,-4.39e-4 -1.197915,-0.02874 -0.741227,-0.0629 z m -6.681443,-0.160891 c 0.152908,-0.04273 0.36507,-0.03992 0.47147,0.0062 0.106401,0.04617 -0.01871,0.08113 -0.278015,0.0777 -0.259309,-0.0034 -0.346364,-0.04121 -0.193455,-0.08394 z m 403.732933,-0.0039 c 0.2377,-0.03862 0.62666,-0.03862 0.86436,0 0.2377,0.03862 0.0432,0.07021 -0.43218,0.07021 -0.4754,0 -0.66988,-0.0316 -0.43218,-0.07021 z m 126.11836,0.0091 c 0.10805,-0.04676 0.28485,-0.04676 0.39289,0 0.10805,0.04676 0.0196,0.08501 -0.19644,0.08501 -0.21609,0 -0.30449,-0.03826 -0.19645,-0.08501 z m 2.35735,0 c 0.10805,-0.04676 0.28485,-0.04676 0.3929,0 0.10804,0.04676 0.0196,0.08501 -0.19645,0.08501 -0.21609,0 -0.30449,-0.03826 -0.19645,-0.08501 z M 89.090369,-95.180211 c 0.108046,-0.04676 0.284847,-0.04676 0.392892,0 0.108046,0.04676 0.01964,0.08501 -0.196446,0.08501 -0.21609,0 -0.304491,-0.03826 -0.196446,-0.08501 z m -24.978115,-0.172056 c 0.113448,-0.04869 0.248995,-0.0427 0.301217,0.01331 0.05222,0.05601 -0.0406,0.09584 -0.206268,0.08852 -0.183079,-0.0081 -0.220318,-0.04802 -0.09495,-0.101829 z m 27.816761,0 c 0.113447,-0.04869 0.248995,-0.0427 0.301217,0.01331 0.05222,0.05601 -0.0406,0.09584 -0.206268,0.08852 -0.183079,-0.0081 -0.220318,-0.04802 -0.09495,-0.101829 z m 2.828823,-0.168545 c 0.113448,-0.04869 0.248995,-0.0427 0.301217,0.01331 0.05222,0.05601 -0.0406,0.09584 -0.206268,0.08852 -0.183079,-0.0081 -0.220318,-0.04803 -0.09495,-0.101829 z m 2.34753,-0.165034 c 0.108046,-0.04676 0.284847,-0.04676 0.392892,0 0.108046,0.04676 0.01964,0.08501 -0.196446,0.08501 -0.21609,0 -0.304491,-0.03826 -0.196446,-0.08501 z m 89.432062,-0.677691 c 0.11345,-0.04869 0.249,-0.0427 0.30122,0.01331 0.0522,0.05601 -0.0406,0.09584 -0.20627,0.08852 -0.18308,-0.0081 -0.22032,-0.04802 -0.095,-0.101829 z M 70.941745,-97.713562 c 0.152909,-0.04273 0.365071,-0.03992 0.471471,0.0062 0.1064,0.04617 -0.01871,0.08113 -0.278016,0.0777 -0.259308,-0.0034 -0.346363,-0.04121 -0.193455,-0.08394 z m 18.073037,0 c 0.152908,-0.04273 0.36507,-0.03992 0.47147,0.0062 0.106401,0.04617 -0.01871,0.08113 -0.278015,0.0777 -0.259309,-0.0034 -0.346364,-0.04121 -0.193455,-0.08394 z m -21.287921,-0.16688 c 0.113448,-0.04869 0.248996,-0.0427 0.301218,0.01331 0.05222,0.05601 -0.0406,0.09584 -0.206269,0.08852 -0.183078,-0.0081 -0.220318,-0.04802 -0.09495,-0.101829 z m 24.820959,0.0035 c 0.108045,-0.04676 0.284847,-0.04676 0.392892,0 0.108045,0.04676 0.01964,0.08501 -0.196446,0.08501 -0.216091,0 -0.304491,-0.03826 -0.196446,-0.08501 z m -27.178311,-0.172056 c 0.113447,-0.04869 0.248995,-0.0427 0.301217,0.01331 0.05222,0.05601 -0.0406,0.09584 -0.206268,0.08852 -0.183079,-0.0081 -0.220318,-0.04802 -0.09495,-0.101829 z m 30.007134,0.0035 c 0.108045,-0.04676 0.284847,-0.04676 0.392892,0 0.108045,0.04676 0.01964,0.08501 -0.196446,0.08501 -0.216091,0 -0.304491,-0.03826 -0.196446,-0.08501 z m 362.978077,-2.290142 -0.29938,-0.37922 0.3536,0.32107 c 0.3323,0.30173 0.42515,0.437376 0.29939,0.437376 -0.0298,0 -0.18895,-0.170646 -0.35361,-0.379226 z m -283.66305,-0.84272 -0.46158,-0.54777 0.51076,0.49503 c 0.4761,0.46144 0.58299,0.60051 0.46158,0.60051 -0.0271,0 -0.25689,-0.2465 -0.51076,-0.54777 z m -83.005222,-5.46811 c 0.152909,-0.0427 0.36507,-0.0399 0.471471,0.006 0.1064,0.0462 -0.01871,0.0811 -0.278016,0.0777 -0.259309,-0.003 -0.346363,-0.0412 -0.193455,-0.084 z m 3.297303,-0.33647 c 0.151263,-0.0424 0.398785,-0.0424 0.550049,0 0.151263,0.0424 0.0275,0.0771 -0.275025,0.0771 -0.302527,0 -0.426288,-0.0347 -0.275024,-0.0771 z m 102.240349,0.001 c 0.11345,-0.0487 0.24899,-0.0427 0.30121,0.0133 0.0522,0.056 -0.0406,0.0958 -0.20626,0.0885 -0.18308,-0.008 -0.22032,-0.048 -0.095,-0.10183 z m 50.13303,0 c 0.11345,-0.0487 0.24899,-0.0427 0.30122,0.0133 0.0522,0.056 -0.0406,0.0958 -0.20627,0.0885 -0.18308,-0.008 -0.22032,-0.048 -0.0949,-0.10183 z m -163.76725,-0.16504 c 0.108045,-0.0467 0.284847,-0.0467 0.392892,0 0.108045,0.0468 0.01964,0.085 -0.196446,0.085 -0.216091,0 -0.304491,-0.0383 -0.196446,-0.085 z m 15.715684,0 c 0.108045,-0.0467 0.284847,-0.0467 0.392892,0 0.108045,0.0468 0.01965,0.085 -0.196446,0.085 -0.216091,0 -0.304491,-0.0383 -0.196446,-0.085 z m -18.848999,-0.17205 c 0.113448,-0.0487 0.248996,-0.0427 0.301218,0.0133 0.05222,0.056 -0.0406,0.0958 -0.206269,0.0885 -0.183078,-0.008 -0.220318,-0.048 -0.09495,-0.10183 z m -4.400391,-0.33709 c 0.113448,-0.0487 0.248995,-0.0427 0.301217,0.0133 0.05222,0.056 -0.0406,0.0959 -0.206268,0.0885 -0.183079,-0.008 -0.220318,-0.048 -0.09495,-0.10183 z m 8.869539,-2.19213 c 0.151264,-0.0424 0.398786,-0.0424 0.550049,0 0.151264,0.0424 0.0275,0.0771 -0.275024,0.0771 -0.302527,0 -0.426288,-0.0347 -0.275025,-0.0771 z m 11.395703,-0.003 c 0.19549,-0.0403 0.478372,-0.0388 0.628628,0.003 0.150255,0.0422 -0.0097,0.0752 -0.355436,0.0733 -0.345745,-0.002 -0.468681,-0.0364 -0.273192,-0.0767 z m -14.607596,-0.16447 c 0.113448,-0.0487 0.248996,-0.0427 0.301217,0.0133 0.05222,0.056 -0.0406,0.0958 -0.206268,0.0885 -0.183079,-0.008 -0.220318,-0.048 -0.09495,-0.10183 z m 19.08772,-0.002 c 0.15291,-0.0427 0.36508,-0.0399 0.47148,0.006 0.1064,0.0462 -0.0187,0.0811 -0.27802,0.0777 -0.25931,-0.003 -0.34636,-0.0412 -0.19346,-0.0839 z m -81.155251,-1.69506 c -0.195483,-0.26732 -0.189924,-0.27328 0.05934,-0.0636 0.261783,0.22018 0.345034,0.35859 0.215689,0.35859 -0.03263,0 -0.156396,-0.13273 -0.275025,-0.29496 z m 202.331201,-0.71631 c 0,-0.60255 0.0285,-0.84905 0.0634,-0.54777 0.0349,0.30127 0.0349,0.79427 0,1.09554 -0.0349,0.30127 -0.0634,0.0548 -0.0634,-0.54777 z m -199.179912,-1.13768 -0.380998,-0.4635 0.432181,0.40861 c 0.403939,0.3819 0.504252,0.51839 0.380998,0.51839 -0.02815,0 -0.222633,-0.20858 -0.432181,-0.4635 z m 217.057902,-2.66863 c 0.008,-0.19634 0.0448,-0.23628 0.0949,-0.10183 0.0454,0.12167 0.0398,0.26704 -0.0124,0.32305 -0.0522,0.056 -0.0894,-0.0435 -0.0825,-0.22122 z m -147.462985,-0.35798 c 0.19549,-0.0403 0.478372,-0.0388 0.628628,0.003 0.150255,0.0422 -0.0097,0.0752 -0.355436,0.0733 -0.345745,-0.002 -0.468681,-0.0364 -0.273192,-0.0767 z m 8.093905,-0.002 c 0.23889,-0.0387 0.59249,-0.0377 0.78579,0.002 0.19329,0.04 -0.002,0.0717 -0.43435,0.0704 -0.43218,-10e-4 -0.59033,-0.034 -0.35144,-0.0727 z m -11.867501,-0.15922 c 0.108045,-0.0468 0.284847,-0.0468 0.392892,0 0.108045,0.0468 0.01964,0.085 -0.196446,0.085 -0.216091,0 -0.304491,-0.0383 -0.196446,-0.085 z m -4.076256,-0.3406 c 0.113448,-0.0487 0.248996,-0.0427 0.301218,0.0133 0.05222,0.056 -0.0406,0.0958 -0.206269,0.0885 -0.183079,-0.008 -0.220318,-0.048 -0.09495,-0.10183 z m -41.479985,-5.23617 c -0.195482,-0.26732 -0.189924,-0.27328 0.05934,-0.0636 0.151263,0.12723 0.275024,0.25996 0.275024,0.29496 0,0.13872 -0.129055,0.0494 -0.33436,-0.23132 z m -30.14166,-4.18553 c 0.0075,-0.19635 0.04478,-0.23629 0.09495,-0.10183 0.0454,0.12167 0.03981,0.26704 -0.01241,0.32304 -0.05222,0.056 -0.08937,-0.0435 -0.08254,-0.22121 z m 3.614608,-0.50564 c 0.0075,-0.19634 0.04478,-0.23628 0.09495,-0.10183 0.0454,0.12167 0.03981,0.26704 -0.01241,0.32305 -0.05222,0.056 -0.08937,-0.0435 -0.08254,-0.22122 z m -3.614608,-2.69672 c 0.0075,-0.19634 0.04478,-0.23628 0.09495,-0.10183 0.0454,0.12167 0.03981,0.26704 -0.01241,0.32305 -0.05222,0.056 -0.08937,-0.0435 -0.08254,-0.22122 z m 20.90186,-2.02254 c 0.0075,-0.19634 0.04478,-0.23628 0.09495,-0.10183 0.0454,0.12167 0.03981,0.26704 -0.01241,0.32305 -0.05222,0.056 -0.08937,-0.0435 -0.08254,-0.22122 z m 4.104308,-2.00849 c 0.0032,-0.2781 0.03843,-0.37147 0.07827,-0.20748 0.03985,0.16399 0.03723,0.39153 -0.0058,0.50564 -0.04305,0.11411 -0.07565,-0.0201 -0.07245,-0.29816 z m 16.640395,-2.20513 c 0.0075,-0.19635 0.04478,-0.23629 0.09495,-0.10183 0.0454,0.12167 0.03982,0.26704 -0.01241,0.32304 -0.05222,0.056 -0.08937,-0.0435 -0.08254,-0.22121 z m 0,-1.854 c 0.0075,-0.19634 0.04478,-0.23628 0.09495,-0.10183 0.0454,0.12167 0.03982,0.26704 -0.01241,0.32305 -0.05222,0.056 -0.08937,-0.0435 -0.08254,-0.22122 z m -13.370739,-11.76347 c 0,-0.035 0.123761,-0.16772 0.275025,-0.29495 0.249259,-0.20965 0.254818,-0.20369 0.05934,0.0636 -0.205305,0.28075 -0.33436,0.37003 -0.33436,0.23131 z m 512.331298,-2.52817 c 0,-0.035 0.12376,-0.16773 0.27503,-0.29495 0.24925,-0.20965 0.25481,-0.20369 0.0593,0.0636 -0.2053,0.28075 -0.33436,0.37004 -0.33436,0.23132 z m -525.532472,-0.67418 c 0,-0.035 0.123761,-0.16773 0.275024,-0.29495 0.24926,-0.20965 0.254818,-0.20369 0.05934,0.0636 -0.205305,0.28075 -0.33436,0.37004 -0.33436,0.23132 z m 34.574505,-0.69482 c 0.203006,-0.23175 0.404463,-0.42136 0.447681,-0.42136 0.04322,0 -0.08752,0.18961 -0.290525,0.42136 -0.203006,0.23175 -0.404463,0.42136 -0.447681,0.42136 -0.04322,0 0.08752,-0.18961 0.290525,-0.42136 z m -17.91588,0.18918 c 0,-0.035 0.123761,-0.16772 0.275024,-0.29495 0.24926,-0.20965 0.254819,-0.20369 0.05934,0.0636 -0.205305,0.28075 -0.33436,0.37003 -0.33436,0.23131 z M 9.9226112,-154.1236 c 0,-0.035 0.1237608,-0.16773 0.2750248,-0.29495 0.249259,-0.20965 0.254818,-0.20369 0.05934,0.0636 -0.205305,0.28075 -0.3343598,0.37004 -0.3343598,0.23132 z M 553.72756,-177.94098 c 0.15291,-0.0427 0.36507,-0.0399 0.47147,0.006 0.1064,0.0462 -0.0187,0.0811 -0.27802,0.0777 -0.25931,-0.003 -0.34636,-0.0412 -0.19345,-0.0839 z m 80.24482,-6.41432 c -0.19549,-0.26732 -0.18993,-0.27328 0.0593,-0.0636 0.26179,0.22018 0.34504,0.35859 0.21569,0.35859 -0.0326,0 -0.15639,-0.13273 -0.27502,-0.29496 z m -379.38604,-3.86526 c 0.11345,-0.0487 0.249,-0.0427 0.30122,0.0133 0.0522,0.056 -0.0406,0.0958 -0.20627,0.0885 -0.18308,-0.008 -0.22031,-0.048 -0.0949,-0.10183 z m -48.4043,-0.16855 c 0.11345,-0.0487 0.24899,-0.0427 0.30121,0.0133 0.0522,0.056 -0.0406,0.0958 -0.20626,0.0885 -0.18308,-0.008 -0.22032,-0.048 -0.095,-0.10183 z m 220.24848,-1.01293 c 0.15291,-0.0427 0.36507,-0.0399 0.47147,0.006 0.1064,0.0462 -0.0187,0.0811 -0.27802,0.0777 -0.25931,-0.003 -0.34636,-0.0412 -0.19345,-0.0839 z m 1.88588,0 c 0.15291,-0.0427 0.36507,-0.0399 0.47147,0.006 0.1064,0.0462 -0.0187,0.0811 -0.27802,0.0777 -0.2593,-0.003 -0.34636,-0.0412 -0.19345,-0.0839 z m 189.68531,6.2e-4 c 0.15127,-0.0424 0.39879,-0.0424 0.55005,0 0.15127,0.0424 0.0275,0.0771 -0.27502,0.0771 -0.30253,0 -0.42629,-0.0347 -0.27503,-0.0771 z m 2.04603,-6.2e-4 c 0.15291,-0.0427 0.36507,-0.0399 0.47147,0.006 0.1064,0.0462 -0.0187,0.0811 -0.27801,0.0777 -0.25931,-0.003 -0.34636,-0.0412 -0.19346,-0.0839 z m -488.72147,-1.06301 c -0.0534,-0.0927 -0.0222,-0.16855 0.0693,-0.16855 0.0915,0 0.16644,0.0759 0.16644,0.16855 0,0.0927 -0.0312,0.16854 -0.0693,0.16854 -0.0381,0 -0.11301,-0.0758 -0.16643,-0.16854 z m 1.46352,-5.84567 c 0.11345,-0.0487 0.249,-0.0427 0.30122,0.0133 0.0522,0.056 -0.0406,0.0958 -0.20627,0.0885 -0.18308,-0.008 -0.22032,-0.048 -0.0949,-0.10183 z m -5.50049,-0.84272 c 0.11345,-0.0487 0.249,-0.0427 0.30122,0.0133 0.0522,0.056 -0.0406,0.0958 -0.20627,0.0885 -0.18308,-0.008 -0.22032,-0.048 -0.0949,-0.10182 z m 1.88589,-0.16855 c 0.11344,-0.0487 0.24899,-0.0427 0.30121,0.0133 0.0522,0.056 -0.0406,0.0958 -0.20627,0.0885 -0.18307,-0.008 -0.22031,-0.048 -0.0949,-0.10183 z m 2.20019,-0.16854 c 0.11345,-0.0487 0.249,-0.0427 0.30122,0.0133 0.0522,0.056 -0.0406,0.0958 -0.20627,0.0885 -0.18308,-0.008 -0.22032,-0.048 -0.0949,-0.10182 z m -5.65764,-2.86527 c 0.11344,-0.0487 0.24899,-0.0427 0.30121,0.0133 0.0522,0.056 -0.0406,0.0958 -0.20627,0.0885 -0.18307,-0.008 -0.22031,-0.048 -0.0949,-0.10183 z m 3.77176,-0.33709 c 0.11345,-0.0487 0.24899,-0.0427 0.30122,0.0133 0.0522,0.056 -0.0406,0.0958 -0.20627,0.0885 -0.18308,-0.008 -0.22032,-0.048 -0.095,-0.10183 z m 2.35735,-0.16854 c 0.11345,-0.0487 0.249,-0.0427 0.30122,0.0133 0.0522,0.056 -0.0406,0.0958 -0.20627,0.0885 -0.18308,-0.008 -0.22032,-0.048 -0.095,-0.10182 z m 2.819,-0.16504 c 0.10805,-0.0468 0.28485,-0.0468 0.3929,0 0.10804,0.0468 0.0196,0.085 -0.19645,0.085 -0.21609,0 -0.30449,-0.0383 -0.19645,-0.085 z"
       id="path78" /><path
       style="fill:#d37a83"
       d="m 60.409246,-84.73498 c 0.151264,-0.04239 0.398786,-0.04239 0.550049,0 0.151263,0.04239 0.0275,0.07708 -0.275024,0.07708 -0.302527,0 -0.426288,-0.03469 -0.275025,-0.07708 z m 9.036518,0.0046 c 0.108046,-0.04676 0.284847,-0.04676 0.392892,0 0.108046,0.04676 0.01964,0.08501 -0.196446,0.08501 -0.21609,0 -0.304491,-0.03826 -0.196446,-0.08501 z m 4.095901,-0.172057 c 0.113447,-0.04869 0.248995,-0.0427 0.301217,0.01331 0.05222,0.05601 -0.0406,0.09584 -0.206269,0.08852 -0.183078,-0.0081 -0.220318,-0.04803 -0.09495,-0.10183 z m 0.540226,-9.94974 c 0.2377,-0.03862 0.626663,-0.03862 0.864363,0 0.237699,0.03862 0.04322,0.07021 -0.432182,0.07021 -0.475399,0 -0.669881,-0.0316 -0.432181,-0.07021 z m 4.638941,-0.0014 c 0.282466,-0.03751 0.70679,-0.03674 0.942942,0.0017 0.236151,0.03846 0.005,0.06915 -0.513575,0.0682 -0.518617,-9.46e-4 -0.711832,-0.03241 -0.429367,-0.06992 z M 599.8501,-95.011666 c 0.10804,-0.04676 0.28485,-0.04676 0.39289,0 0.10805,0.04676 0.0197,0.08501 -0.19644,0.08501 -0.2161,0 -0.3045,-0.03826 -0.19645,-0.08501 z m 1.02451,-0.0052 c 0.15291,-0.04273 0.36507,-0.03992 0.47147,0.0062 0.1064,0.04617 -0.0187,0.08113 -0.27802,0.0777 -0.2593,-0.0034 -0.34636,-0.04121 -0.19345,-0.08394 z M 92.400485,-95.352267 c 0.113448,-0.04869 0.248996,-0.0427 0.301218,0.01331 0.05222,0.05601 -0.0406,0.09584 -0.206269,0.08852 -0.183079,-0.0081 -0.220318,-0.04802 -0.09495,-0.101829 z m 94.608415,-1.01127 c 0.11345,-0.04869 0.249,-0.0427 0.30122,0.01331 0.0522,0.05601 -0.0406,0.09584 -0.20627,0.08852 -0.18308,-0.0081 -0.22032,-0.04802 -0.0949,-0.101829 z M 71.64596,-97.708386 c 0.108045,-0.04676 0.284847,-0.04676 0.392892,0 0.108046,0.04676 0.01964,0.08501 -0.196446,0.08501 -0.21609,0 -0.304491,-0.03826 -0.196446,-0.08501 z m 16.825604,-0.0035 c 0.113448,-0.04869 0.248996,-0.0427 0.301218,0.01331 0.05222,0.05601 -0.0406,0.09584 -0.206269,0.08852 -0.183079,-0.0081 -0.220318,-0.04802 -0.09495,-0.101829 z m -20.273232,-0.168545 c 0.113448,-0.04869 0.248995,-0.0427 0.301217,0.01331 0.05222,0.05601 -0.0406,0.09584 -0.206268,0.08852 -0.183079,-0.0081 -0.220318,-0.04802 -0.09495,-0.101829 z m 23.88784,0 c 0.113447,-0.04869 0.248995,-0.0427 0.301217,0.01331 0.05222,0.05601 -0.0406,0.09584 -0.206268,0.08852 -0.183079,-0.0081 -0.220319,-0.04802 -0.09495,-0.101829 z m 3.761941,-9.097919 c 0.108046,-0.0468 0.284847,-0.0468 0.392893,0 0.108045,0.0468 0.01964,0.085 -0.196446,0.085 -0.216091,0 -0.304492,-0.0383 -0.196447,-0.085 z m -12.719881,-0.17206 c 0.113447,-0.0487 0.248995,-0.0427 0.301217,0.0133 0.05222,0.056 -0.0406,0.0958 -0.206268,0.0885 -0.183079,-0.008 -0.220318,-0.048 -0.09495,-0.10183 z m 16.815782,0 c 0.113446,-0.0487 0.248996,-0.0427 0.301216,0.0133 0.0522,0.056 -0.0406,0.0958 -0.20627,0.0885 -0.183076,-0.008 -0.220316,-0.048 -0.09495,-0.10183 z m -19.958919,-0.16854 c 0.113448,-0.0487 0.248995,-0.0427 0.301217,0.0133 0.05222,0.056 -0.0406,0.0958 -0.206268,0.0885 -0.183079,-0.008 -0.220318,-0.048 -0.09495,-0.10183 z m 5.804981,-2.52467 c 0.108045,-0.0467 0.284847,-0.0467 0.392892,0 0.108045,0.0468 0.01964,0.085 -0.196446,0.085 -0.216091,0 -0.304492,-0.0383 -0.196446,-0.085 z m 9.668136,-0.005 c 0.152909,-0.0427 0.365071,-0.0399 0.471471,0.006 0.1064,0.0462 -0.01871,0.0811 -0.278016,0.0777 -0.259308,-0.003 -0.346363,-0.0412 -0.193455,-0.0839 z m 4.633138,-0.16337 c 0.10804,-0.0468 0.28484,-0.0468 0.39289,0 0.10805,0.0468 0.0196,0.085 -0.19645,0.085 -0.21609,0 -0.304487,-0.0383 -0.19644,-0.085 z m 2.36717,-0.3406 c 0.11345,-0.0487 0.249,-0.0427 0.30122,0.0133 0.0522,0.056 -0.0406,0.0958 -0.20627,0.0885 -0.18308,-0.008 -0.22032,-0.048 -0.095,-0.10183 z m -83.357165,-1.94954 -0.299382,-0.37923 0.353603,0.32108 c 0.194481,0.17659 0.353602,0.34724 0.353602,0.37922 0,0.13488 -0.126478,0.0353 -0.407823,-0.32107 z m 434.993585,-1.13768 c 0,-0.50985 0.0295,-0.71842 0.0655,-0.4635 0.036,0.25492 0.036,0.67207 0,0.927 -0.036,0.25492 -0.0655,0.0464 -0.0655,-0.4635 z m -362.490061,-3.14544 c 0.108045,-0.0468 0.284847,-0.0468 0.392892,0 0.108045,0.0468 0.01964,0.085 -0.196446,0.085 -0.216091,0 -0.304492,-0.0383 -0.196446,-0.085 z m 10.139611,-0.005 c 0.1529,-0.0427 0.36507,-0.0399 0.47147,0.006 0.1064,0.0462 -0.0187,0.0811 -0.27802,0.0777 -0.25931,-0.003 -0.34636,-0.0412 -0.19345,-0.0839 z m -63.070637,-4.56033 -0.541589,-0.63204 0.589338,0.58084 c 0.324136,0.31945 0.589338,0.60387 0.589338,0.63204 0,0.1287 -0.132988,0.007 -0.637087,-0.58084 z m 3.445864,-2.19108 c -0.195483,-0.26732 -0.189924,-0.27328 0.05934,-0.0636 0.261783,0.22019 0.345034,0.35859 0.215689,0.35859 -0.03263,0 -0.156396,-0.13273 -0.275025,-0.29495 z m -17.110049,-30.12742 c 0.293221,-0.32445 0.568489,-0.58991 0.611707,-0.58991 0.04322,0 -0.16133,0.26546 -0.45455,0.58991 -0.293221,0.32445 -0.568489,0.58991 -0.611707,0.58991 -0.04322,0 0.161329,-0.26546 0.45455,-0.58991 z m 38.031955,-0.4741 c 0,-0.029 0.229842,-0.2755 0.51076,-0.54777 l 0.51076,-0.49503 -0.461584,0.54777 c -0.430261,0.5106 -0.559936,0.62524 -0.559936,0.49503 z m 189.688307,-20.74193 c 0,-0.035 0.12376,-0.16773 0.27502,-0.29495 0.24926,-0.20965 0.25482,-0.20369 0.0593,0.0636 -0.20531,0.28075 -0.33436,0.37004 -0.33436,0.23132 z m -13.67265,-7.77371 c 0.20301,-0.23175 0.40447,-0.42136 0.44769,-0.42136 0.0432,0 -0.0875,0.18961 -0.29053,0.42136 -0.20301,0.23175 -0.40446,0.42137 -0.44768,0.42137 -0.0432,0 0.0875,-0.18962 0.29052,-0.42137 z m 91.28808,-2.06467 c -0.19548,-0.26733 -0.18992,-0.27329 0.0593,-0.0636 0.26178,0.22018 0.34503,0.35859 0.21569,0.35859 -0.0326,0 -0.1564,-0.13273 -0.27503,-0.29495 z m -105.43219,-3.55349 c 0,-0.14713 -2.32481,-0.2069 -9.23297,-0.23739 l -9.23296,-0.0408 9.18454,-0.0449 c 8.67206,-0.0424 9.76169,0.005 9.38878,0.4045 -0.0591,0.0633 -0.10739,0.0267 -0.10739,-0.0815 z m 133.5564,-0.32304 c 6.85687,-0.0243 18.03073,-0.0243 24.83078,1e-5 6.80005,0.0243 1.18987,0.0442 -12.46706,0.0442 -13.65693,0 -19.2206,-0.0199 -12.36372,-0.0442 z m 181.81809,4e-5 c 3.8248,-0.0251 10.08357,-0.0251 13.90838,0 3.8248,0.0251 0.69542,0.0457 -6.95419,0.0457 -7.64961,0 -10.779,-0.0206 -6.95419,-0.0457 z m -112.99394,-1.00411 c 0.19549,-0.0403 0.47837,-0.0388 0.62863,0.003 0.15025,0.0422 -0.01,0.0752 -0.35544,0.0733 -0.34574,-0.002 -0.46868,-0.0364 -0.27319,-0.0767 z m 191.73135,0 c 0.19549,-0.0403 0.47837,-0.0388 0.62862,0.003 0.15026,0.0422 -0.01,0.0752 -0.35543,0.0733 -0.34575,-0.002 -0.46868,-0.0364 -0.27319,-0.0767 z m -485.44949,-8.25464 c 0.11344,-0.0487 0.24899,-0.0427 0.30121,0.0133 0.0522,0.056 -0.0406,0.0958 -0.20626,0.0885 -0.18308,-0.008 -0.22032,-0.048 -0.095,-0.10183 z m 1.72872,-3.3709 c 0.11345,-0.0487 0.249,-0.0427 0.30122,0.0133 0.0522,0.056 -0.0406,0.0958 -0.20627,0.0885 -0.18308,-0.008 -0.22032,-0.048 -0.0949,-0.10183 z"
       id="path77" /><path
       style="fill:#ca5c67"
       d="m 61.352187,-84.73498 c 0.151264,-0.04239 0.398786,-0.04239 0.550049,0 0.151264,0.04239 0.0275,0.07708 -0.275024,0.07708 -0.302527,0 -0.426288,-0.03469 -0.275025,-0.07708 z m 7.229215,0 c 0.151263,-0.04239 0.398785,-0.04239 0.550049,0 0.151263,0.04239 0.0275,0.07708 -0.275025,0.07708 -0.302527,0 -0.426288,-0.03469 -0.275024,-0.07708 z m -11.541206,-0.167498 c 0.113448,-0.04869 0.248996,-0.0427 0.301218,0.01331 0.05222,0.05601 -0.0406,0.09584 -0.206269,0.08852 -0.183079,-0.0081 -0.220318,-0.04803 -0.09495,-0.10183 z m 18.858821,-0.168545 c 0.113448,-0.04869 0.248995,-0.0427 0.301217,0.01331 0.05222,0.05601 -0.0406,0.09584 -0.206268,0.08852 -0.183079,-0.0081 -0.220318,-0.04803 -0.09495,-0.10183 z m -2.917224,-9.776656 c 0.151264,-0.04239 0.398786,-0.04239 0.550049,0 0.151264,0.04239 0.0275,0.07708 -0.275024,0.07708 -0.302527,0 -0.426288,-0.03469 -0.275025,-0.07708 z m 7.232206,-6.18e-4 c 0.152908,-0.04273 0.36507,-0.03992 0.47147,0.0062 0.106401,0.04617 -0.01871,0.08113 -0.278015,0.0777 -0.259309,-0.0034 -0.346364,-0.04121 -0.193455,-0.08394 z m 6.521917,-0.08014 c 0.09132,-0.09794 0.258809,-0.144914 0.372189,-0.104383 0.117702,0.04208 0.04646,0.118478 -0.166045,0.178077 -0.261406,0.07331 -0.322765,0.05138 -0.206144,-0.07369 z m -18.22327,-0.08674 c 0.113447,-0.04869 0.248995,-0.0427 0.301217,0.01331 0.05222,0.05601 -0.0406,0.09584 -0.206268,0.08852 -0.183079,-0.0081 -0.220319,-0.04802 -0.09495,-0.101829 z m 21.530487,-0.168545 c 0.113447,-0.04869 0.248995,-0.0427 0.301217,0.01331 0.05222,0.05601 -0.0406,0.09584 -0.206268,0.08852 -0.183079,-0.0081 -0.220318,-0.04803 -0.09495,-0.101829 z m 97.437237,-1.179815 c 0.11345,-0.04869 0.249,-0.0427 0.30122,0.01331 0.0522,0.05601 -0.0406,0.09584 -0.20627,0.08852 -0.18308,-0.0081 -0.22032,-0.04802 -0.095,-0.101829 z m 50.44735,0 c 0.11345,-0.04869 0.24899,-0.0427 0.30122,0.01331 0.0522,0.05601 -0.0406,0.09584 -0.20627,0.08852 -0.18308,-0.0081 -0.22032,-0.04802 -0.095,-0.101829 z M 72.274587,-97.708386 c 0.108046,-0.04676 0.284847,-0.04676 0.392893,0 0.108045,0.04676 0.01964,0.08501 -0.196446,0.08501 -0.216091,0 -0.304492,-0.03826 -0.196447,-0.08501 z m 15.558528,0 c 0.108045,-0.04676 0.284846,-0.04676 0.392892,0 0.108045,0.04676 0.01964,0.08501 -0.196446,0.08501 -0.216091,0 -0.304492,-0.03826 -0.196446,-0.08501 z m 3.781586,-0.172056 c 0.113448,-0.04869 0.248995,-0.0427 0.301217,0.01331 0.05222,0.05601 -0.0406,0.09584 -0.206268,0.08852 -0.183079,-0.0081 -0.220318,-0.04802 -0.09495,-0.101829 z m 5.657646,-0.33709 c 0.113448,-0.04869 0.248996,-0.0427 0.301218,0.01331 0.05222,0.05601 -0.0406,0.09584 -0.206269,0.08852 -0.183078,-0.0081 -0.220318,-0.04803 -0.09495,-0.101829 z m 396.379013,-4.519848 c 0.20301,-0.23175 0.40447,-0.42137 0.44769,-0.42137 0.0432,0 -0.0875,0.18962 -0.29053,0.42137 -0.20301,0.23175 -0.40446,0.42136 -0.44768,0.42136 -0.0432,0 0.0875,-0.18961 0.29052,-0.42136 z m -490.1840738,-1.22196 -0.3809975,-0.46349 0.4321813,0.4086 c 0.2376997,0.22474 0.4321813,0.43331 0.4321813,0.4635 0,0.13219 -0.1272655,0.0246 -0.4833651,-0.40861 z m -1.0245567,-1.09554 -0.2993818,-0.37922 0.3536028,0.32107 c 0.3322995,0.30173 0.4251471,0.43738 0.2993819,0.43738 -0.029822,0 -0.1889429,-0.17065 -0.3536029,-0.37923 z m 85.2332285,-1.9308 c 0.194481,-0.0402 0.512724,-0.0402 0.707206,0 0.194481,0.0402 0.03536,0.073 -0.353603,0.073 -0.388963,0 -0.548085,-0.0329 -0.353603,-0.073 z m 8.882352,0.002 c 0.152909,-0.0427 0.36507,-0.0399 0.471471,0.006 0.1064,0.0462 -0.01871,0.0811 -0.278016,0.0777 -0.259308,-0.003 -0.346363,-0.0412 -0.193455,-0.084 z m -14.068528,-0.16337 c 0.108045,-0.0467 0.284847,-0.0467 0.392892,0 0.108046,0.0468 0.01965,0.085 -0.196446,0.085 -0.216091,0 -0.304491,-0.0383 -0.196446,-0.085 z m 17.925698,-0.004 c 0.11345,-0.0487 0.249,-0.0427 0.30122,0.0133 0.0522,0.056 -0.0406,0.0958 -0.20627,0.0885 -0.18308,-0.008 -0.22031,-0.048 -0.0949,-0.10183 z m 375.29054,-1.85399 c 0.11345,-0.0487 0.24899,-0.0427 0.30122,0.0133 0.0522,0.056 -0.0406,0.0959 -0.20627,0.0885 -0.18308,-0.008 -0.22032,-0.048 -0.0949,-0.10183 z m 0.62863,0 c 0.11344,-0.0487 0.24899,-0.0427 0.30121,0.0133 0.0522,0.056 -0.0406,0.0959 -0.20627,0.0885 -0.18307,-0.008 -0.22031,-0.048 -0.0949,-0.10183 z m -285.85888,-0.34837 c -0.19548,-0.26732 -0.18992,-0.27328 0.0593,-0.0636 0.15126,0.12722 0.27502,0.25995 0.27502,0.29495 0,0.13872 -0.12905,0.0494 -0.33436,-0.23132 z M 86.500273,-109.8488 c 0.152908,-0.0427 0.36507,-0.0399 0.47147,0.006 0.1064,0.0462 -0.01871,0.0811 -0.278015,0.0777 -0.259309,-0.003 -0.346364,-0.0412 -0.193455,-0.0839 z m 8.172155,0 c 0.152909,-0.0427 0.36507,-0.0399 0.471471,0.006 0.1064,0.0462 -0.01871,0.0811 -0.278016,0.0777 -0.259309,-0.003 -0.346363,-0.0412 -0.193455,-0.0839 z m -12.172824,-0.16688 c 0.113448,-0.0487 0.248996,-0.0427 0.301218,0.0133 0.05222,0.056 -0.0406,0.0958 -0.206269,0.0885 -0.183078,-0.008 -0.220318,-0.048 -0.09495,-0.10183 z m 17.130096,0 c 0.113448,-0.0487 0.248995,-0.0427 0.301217,0.0133 0.05222,0.056 -0.0406,0.0958 -0.206268,0.0885 -0.183079,-0.008 -0.220318,-0.048 -0.09495,-0.10183 z m -79.197627,-0.854 c -0.195482,-0.26732 -0.189924,-0.27328 0.05934,-0.0636 0.261783,0.22019 0.345034,0.35859 0.215689,0.35859 -0.03263,0 -0.156396,-0.13273 -0.275025,-0.29495 z m 150.624997,-1.47477 c 8.8e-4,-0.5562 0.0302,-0.76341 0.0652,-0.46048 0.035,0.30294 0.0343,0.75801 -0.002,1.01127 -0.0358,0.25326 -0.0645,0.005 -0.0636,-0.55079 z m 410.30022,-2.20513 c 0.008,-0.19634 0.0448,-0.23628 0.0949,-0.10183 0.0454,0.12167 0.0398,0.26704 -0.0124,0.32305 -0.0522,0.056 -0.0894,-0.0435 -0.0825,-0.22122 z m 16.83983,-0.23877 c 0,-0.32445 0.0323,-0.45718 0.0719,-0.29496 0.0395,0.16223 0.0395,0.42769 0,0.58991 -0.0395,0.16223 -0.0719,0.0295 -0.0719,-0.29495 z M 90.900664,-116.5906 c 0.152909,-0.0427 0.36507,-0.0399 0.471471,0.006 0.1064,0.0462 -0.01871,0.0811 -0.278016,0.0777 -0.259309,-0.003 -0.346363,-0.0412 -0.193455,-0.0839 z m 11.629606,0 c 0.15291,-0.0427 0.36507,-0.0399 0.47147,0.006 0.1064,0.0462 -0.0187,0.0811 -0.27801,0.0777 -0.25931,-0.003 -0.34637,-0.0412 -0.19346,-0.0839 z m -14.687333,-0.16688 c 0.113448,-0.0487 0.248995,-0.0427 0.301217,0.0133 0.05222,0.056 -0.0406,0.0958 -0.206268,0.0885 -0.183079,-0.008 -0.220318,-0.048 -0.09495,-0.10183 z m 493.514353,-2.84845 c 0.008,-0.19634 0.0448,-0.23628 0.0949,-0.10183 0.0454,0.12167 0.0398,0.26704 -0.0124,0.32305 -0.0522,0.056 -0.0894,-0.0435 -0.0825,-0.22122 z m -543.480807,-2.38772 c -0.195483,-0.26732 -0.189925,-0.27328 0.05933,-0.0636 0.261784,0.22019 0.345034,0.35859 0.215689,0.35859 -0.03263,0 -0.156395,-0.13273 -0.275024,-0.29495 z m -43.0285213,-0.47754 c 0.00754,-0.19635 0.04478,-0.23629 0.094949,-0.10183 0.045398,0.12166 0.039815,0.26703 -0.012407,0.32304 -0.052222,0.056 -0.089366,-0.0435 -0.082542,-0.22121 z m 21.6876443,-7.41598 c 0.0075,-0.19635 0.04478,-0.23629 0.09495,-0.10183 0.0454,0.12167 0.03981,0.26704 -0.01241,0.32304 -0.05222,0.056 -0.08937,-0.0435 -0.08254,-0.22121 z m -9.7561316,-20.88554 c 0.2030067,-0.23175 0.4044633,-0.42136 0.4476814,-0.42136 0.043218,0 -0.087518,0.18961 -0.2905245,0.42136 -0.2030067,0.23175 -0.4044633,0.42136 -0.4476814,0.42136 -0.043218,0 0.087518,-0.18961 0.2905245,-0.42136 z m 17.2872526,-1.68545 c 0.203006,-0.23175 0.404463,-0.42136 0.447681,-0.42136 0.04322,0 -0.08752,0.18961 -0.290524,0.42136 -0.203007,0.23175 -0.404464,0.42136 -0.447682,0.42136 -0.04322,0 0.08752,-0.18961 0.290525,-0.42136 z m 37.403328,0.18918 c 0,-0.035 0.123761,-0.16772 0.275024,-0.29495 0.24926,-0.20965 0.254818,-0.20369 0.05934,0.0636 -0.205305,0.28075 -0.33436,0.37003 -0.33436,0.23131 z m -13.515488,-0.33709 c 0,-0.035 0.123761,-0.16772 0.275024,-0.29495 0.249259,-0.20965 0.254818,-0.20369 0.05933,0.0636 -0.205305,0.28075 -0.334359,0.37003 -0.334359,0.23131 z m -38.81774,-0.67418 c 0,-0.035 0.123761,-0.16772 0.2750245,-0.29495 0.2492595,-0.20965 0.2548182,-0.20369 0.059335,0.0636 -0.2053049,0.28075 -0.3343599,0.37003 -0.3343599,0.23131 z m 16.501468,-0.83182 c 0,-0.029 0.229842,-0.27551 0.51076,-0.54778 l 0.51076,-0.49503 -0.461584,0.54777 c -0.430261,0.5106 -0.559936,0.62525 -0.559936,0.49504 z m 4.400392,-0.68508 c 0,-0.035 0.123761,-0.16773 0.275024,-0.29495 0.24926,-0.20965 0.254818,-0.20369 0.05934,0.0636 -0.205305,0.28075 -0.33436,0.37004 -0.33436,0.23132 z m 171.929583,-20.07749 c 0.20301,-0.23175 0.40446,-0.42136 0.44768,-0.42136 0.0432,0 -0.0875,0.18961 -0.29052,0.42136 -0.20301,0.23175 -0.40447,0.42136 -0.44768,0.42136 -0.0432,0 0.0875,-0.18961 0.29052,-0.42136 z m 355.9402,-1.55904 c -0.19549,-0.26733 -0.18993,-0.27329 0.0593,-0.0636 0.26179,0.22018 0.34504,0.35859 0.21569,0.35859 -0.0326,0 -0.15639,-0.13273 -0.27502,-0.29495 z m 58.61008,-0.15728 c 0.11344,-0.0487 0.24899,-0.0427 0.30121,0.0133 0.0522,0.056 -0.0406,0.0958 -0.20626,0.0885 -0.18308,-0.008 -0.22032,-0.048 -0.095,-0.10183 z m -403.11712,-1.19088 c 1.75033,-0.0271 4.61452,-0.0271 6.36485,0 1.75034,0.0271 0.31824,0.0493 -3.18242,0.0493 -3.50067,0 -4.93276,-0.0222 -3.18243,-0.0493 z m -9.89106,-10.43872 c 0.11345,-0.0487 0.249,-0.0427 0.30122,0.0133 0.0522,0.056 -0.0406,0.0958 -0.20627,0.0885 -0.18308,-0.008 -0.22032,-0.048 -0.095,-0.10183 z m 51.86176,0 c 0.11345,-0.0487 0.24899,-0.0427 0.30122,0.0133 0.0522,0.056 -0.0406,0.0958 -0.20627,0.0885 -0.18308,-0.008 -0.22032,-0.048 -0.095,-0.10183 z m -124.78253,-9.26997 c 0.11345,-0.0487 0.24899,-0.0427 0.30121,0.0133 0.0522,0.056 -0.0406,0.0958 -0.20626,0.0885 -0.18308,-0.008 -0.22032,-0.048 -0.095,-0.10182 z m 2.04304,-3.3709 c 0.11344,-0.0487 0.24899,-0.0427 0.30121,0.0133 0.0522,0.056 -0.0406,0.0958 -0.20626,0.0885 -0.18308,-0.008 -0.22032,-0.048 -0.0949,-0.10182 z m 3.14313,-0.16855 c 0.11345,-0.0487 0.249,-0.0427 0.30122,0.0133 0.0522,0.056 -0.0406,0.0958 -0.20627,0.0885 -0.18308,-0.008 -0.22032,-0.048 -0.095,-0.10183 z"
       id="path76" /><path
       style="fill:#bd3643"
       d="m 62.375539,-84.738003 c 0.195489,-0.04031 0.478372,-0.03878 0.628627,0.0034 0.150256,0.04219 -0.0097,0.07517 -0.355435,0.0733 -0.345745,-0.0019 -0.468681,-0.03639 -0.273192,-0.0767 z m 4.950769,-0.0017 c 0.238888,-0.03874 0.592491,-0.03771 0.785784,0.0023 0.193293,0.04001 -0.0022,0.0717 -0.434342,0.07044 -0.432181,-0.0013 -0.59033,-0.034 -0.351442,-0.07274 z m -9.814641,-0.162736 c 0.113447,-0.04869 0.248995,-0.0427 0.301217,0.01331 0.05222,0.05601 -0.0406,0.09584 -0.206268,0.08852 -0.183079,-0.0081 -0.220318,-0.04803 -0.09495,-0.10183 z m 15.244213,0 c 0.113448,-0.04869 0.248996,-0.0427 0.301218,0.01331 0.05222,0.05601 -0.0406,0.09584 -0.206269,0.08852 -0.183079,-0.0081 -0.220318,-0.04803 -0.09495,-0.10183 z m -0.717028,-9.945201 c 0.151264,-0.04239 0.398786,-0.04239 0.550049,0 0.151264,0.04239 0.0275,0.07708 -0.275024,0.07708 -0.302527,0 -0.426288,-0.03469 -0.275025,-0.07708 z m 8.960931,-6.18e-4 c 0.152909,-0.04273 0.36507,-0.03992 0.471471,0.0062 0.1064,0.04617 -0.01871,0.08113 -0.278016,0.0777 -0.259309,-0.0034 -0.346363,-0.04121 -0.193455,-0.08394 z m 107.023807,-1.516905 c 0.15291,-0.04273 0.36507,-0.03992 0.47147,0.0062 0.1064,0.04617 -0.0187,0.08113 -0.27801,0.0777 -0.25931,-0.0034 -0.34637,-0.04121 -0.19346,-0.08394 z m 50.3756,0.0017 c 0.11345,-0.04869 0.249,-0.0427 0.30122,0.01331 0.0522,0.05601 -0.0406,0.09584 -0.20627,0.08852 -0.18308,-0.0081 -0.22032,-0.04802 -0.0949,-0.101829 z M 72.981793,-97.712944 c 0.151264,-0.04239 0.398786,-0.04239 0.550049,0 0.151264,0.04239 0.0275,0.07708 -0.275024,0.07708 -0.302527,0 -0.426288,-0.03469 -0.275025,-0.07708 z m 14.261984,-0.04707 c 0,-0.08979 0.10608,-0.119599 0.235735,-0.06624 0.129654,0.05336 0.235735,0.126823 0.235735,0.163255 0,0.03643 -0.106081,0.06624 -0.235735,0.06624 -0.129655,0 -0.235735,-0.07346 -0.235735,-0.163255 z m -18.259661,-0.120425 c 0.113448,-0.04869 0.248996,-0.0427 0.301217,0.01331 0.05222,0.05601 -0.0406,0.09584 -0.206268,0.08852 -0.183079,-0.0081 -0.220318,-0.04802 -0.09495,-0.101829 z m 192.873314,-8.747521 c 0.008,-0.19635 0.0448,-0.23629 0.0949,-0.10183 0.0454,0.12166 0.0398,0.26703 -0.0124,0.32304 -0.0522,0.056 -0.0894,-0.0435 -0.0825,-0.22121 z m -175.279738,-0.35798 c 0.19549,-0.0403 0.478372,-0.0388 0.628628,0.003 0.150255,0.0422 -0.0097,0.0752 -0.355436,0.0733 -0.345745,-0.002 -0.468681,-0.0364 -0.273192,-0.0767 z m 10.694655,0.004 c 0.113448,-0.0487 0.248996,-0.0427 0.301218,0.0133 0.05222,0.056 -0.0406,0.0958 -0.206269,0.0885 -0.183078,-0.008 -0.220318,-0.048 -0.09495,-0.10183 z m -9.908871,-2.86934 c 0.19549,-0.0403 0.478372,-0.0388 0.628628,0.003 0.150255,0.0422 -0.0097,0.0752 -0.355435,0.0733 -0.345745,-0.002 -0.468682,-0.0364 -0.273193,-0.0767 z m 6.523168,0.002 c 0.152908,-0.0427 0.36507,-0.0399 0.471471,0.006 0.1064,0.0462 -0.01871,0.0811 -0.278016,0.0777 -0.259309,-0.003 -0.346364,-0.0412 -0.193455,-0.0839 z m 5.104606,-0.16337 c 0.108046,-0.0468 0.284847,-0.0468 0.392892,0 0.108046,0.0468 0.01964,0.085 -0.196446,0.085 -0.21609,0 -0.304491,-0.0383 -0.196446,-0.085 z m -75.101726,-2.54296 c -0.195483,-0.26732 -0.189924,-0.27328 0.05933,-0.0636 0.151264,0.12723 0.275025,0.25996 0.275025,0.29496 0,0.13872 -0.129055,0.0494 -0.33436,-0.23132 z m 574.283546,-1.48881 c 0.008,-0.19635 0.0448,-0.23629 0.0949,-0.10183 0.0454,0.12166 0.0398,0.26703 -0.0124,0.32304 -0.0522,0.056 -0.0894,-0.0435 -0.0825,-0.22121 z m -16.80337,-1.0815 c 0,-0.23175 0.0357,-0.32656 0.0793,-0.21068 0.0436,0.11587 0.0436,0.30549 0,0.42136 -0.0436,0.11587 -0.0793,0.0211 -0.0793,-0.21068 z m -392.56614,-0.33709 c 0,-0.32445 0.0323,-0.45718 0.0719,-0.29496 0.0395,0.16223 0.0395,0.42769 0,0.58991 -0.0395,0.16223 -0.0719,0.0295 -0.0719,-0.29495 z m 409.38192,-0.16855 c 0,-0.23175 0.0357,-0.32655 0.0793,-0.21068 0.0436,0.11588 0.0436,0.30549 0,0.42136 -0.0436,0.11588 -0.0793,0.0211 -0.0793,-0.21068 z m -507.828034,-0.95786 c 0.113448,-0.0487 0.248996,-0.0427 0.301218,0.0133 0.05222,0.056 -0.0406,0.0958 -0.206269,0.0885 -0.183078,-0.008 -0.220318,-0.048 -0.09495,-0.10183 z m 12.877034,0.004 c 0.10805,-0.0468 0.28485,-0.0468 0.3929,0 0.10804,0.0468 0.0196,0.085 -0.19645,0.085 -0.21609,0 -0.30449,-0.0383 -0.19645,-0.085 z m 478.12281,-2.51486 c 0.008,-0.19635 0.0448,-0.23629 0.0949,-0.10183 0.0454,0.12166 0.0398,0.26703 -0.0124,0.32304 -0.0522,0.056 -0.0894,-0.0435 -0.0825,-0.22121 z M -5.1520383,-125.1679 c 0.00754,-0.19635 0.04478,-0.23629 0.094949,-0.10183 0.045398,0.12166 0.039815,0.26704 -0.012407,0.32304 -0.052222,0.056 -0.089366,-0.0435 -0.082542,-0.22121 z m 21.7116973,-3.27259 c 0,-0.32445 0.03234,-0.45717 0.07187,-0.29495 0.03953,0.16222 0.03953,0.42768 0,0.58991 -0.03953,0.16222 -0.07187,0.0295 -0.07187,-0.29496 z m -0.02405,-0.94104 c 0.0075,-0.19634 0.04478,-0.23628 0.09495,-0.10183 0.0454,0.12167 0.03981,0.26704 -0.01241,0.32305 -0.05222,0.056 -0.08937,-0.0435 -0.08254,-0.22122 z m 28.590137,-20.19072 c 0,-0.035 0.123761,-0.16772 0.275025,-0.29495 0.249259,-0.20965 0.254818,-0.20369 0.05933,0.0636 -0.205305,0.28075 -0.33436,0.37003 -0.33436,0.23131 z m -18.623085,-1.45327 c 0.156447,-0.1854 0.31981,-0.33709 0.363028,-0.33709 0.04322,0 -0.04942,0.15169 -0.205871,0.33709 -0.156448,0.1854 -0.319811,0.33709 -0.363029,0.33709 -0.04322,0 0.04942,-0.15169 0.205872,-0.33709 z m 16.344311,-0.50563 c 0.425683,-0.4635 0.809329,-0.84273 0.852547,-0.84273 0.04322,0 -0.269707,0.37923 -0.69539,0.84273 -0.425683,0.4635 -0.809329,0.84272 -0.852547,0.84272 -0.04322,0 0.269707,-0.37922 0.69539,-0.84272 z m -34.7316614,-0.67418 c 0.513206,-0.5562 0.9684622,-1.01127 1.0116803,-1.01127 0.043218,0 -0.3413174,0.45507 -0.8545235,1.01127 -0.513206,0.5562 -0.9684622,1.01127 -1.0116803,1.01127 -0.043218,0 0.3413174,-0.45507 0.8545235,-1.01127 z m 561.1284894,0.25282 c 0.29323,-0.32445 0.56849,-0.58991 0.61171,-0.58991 0.0432,0 -0.16133,0.26546 -0.45455,0.58991 -0.29322,0.32445 -0.56849,0.5899 -0.61171,0.5899 -0.0432,0 0.16133,-0.26545 0.45455,-0.5899 z m -545.962854,0.35772 c 0,-0.035 0.123761,-0.16772 0.275024,-0.29495 0.24926,-0.20965 0.254818,-0.20369 0.05934,0.0636 -0.205304,0.28075 -0.334359,0.37003 -0.334359,0.23131 z m 24.280731,-0.61054 c 0.156448,-0.1854 0.319811,-0.33709 0.363029,-0.33709 0.04322,0 -0.04942,0.15169 -0.205872,0.33709 -0.156447,0.1854 -0.31981,0.33709 -0.363028,0.33709 -0.04322,0 0.04942,-0.15169 0.205871,-0.33709 z m -17.994458,-2.08618 c 0,-0.035 0.123761,-0.16772 0.275025,-0.29495 0.249259,-0.20965 0.254818,-0.20369 0.05933,0.0636 -0.205305,0.28075 -0.33436,0.37003 -0.33436,0.23131 z m -2.98598,-0.84272 c 0,-0.035 0.123761,-0.16773 0.275025,-0.29495 0.249259,-0.20965 0.254818,-0.20369 0.05934,0.0636 -0.205305,0.28075 -0.33436,0.37004 -0.33436,0.23132 z m 550.408201,-18.72913 c 0.001,-0.4635 0.0317,-0.63311 0.0678,-0.37691 0.0361,0.2562 0.0352,0.63542 -0.002,0.84272 -0.0373,0.2073 -0.0669,-0.002 -0.0657,-0.46581 z m 39.05764,-2.72759 c 0.11344,-0.0487 0.24899,-0.0427 0.30121,0.0133 0.0522,0.056 -0.0406,0.0958 -0.20626,0.0885 -0.18308,-0.008 -0.22032,-0.048 -0.0949,-0.10183 z m 0.94294,0 c 0.11344,-0.0487 0.24899,-0.0427 0.30121,0.0133 0.0522,0.056 -0.0406,0.0958 -0.20626,0.0885 -0.18308,-0.008 -0.22032,-0.048 -0.095,-0.10183 z m -310.15885,-0.68359 c 0.49701,-0.0334 1.3103,-0.0334 1.8073,0 0.49701,0.0335 0.0904,0.0608 -0.90365,0.0608 -0.99401,0 -1.40066,-0.0274 -0.90365,-0.0608 z m -97.11993,-0.49789 c 0.1529,-0.0427 0.36507,-0.0399 0.47147,0.006 0.1064,0.0462 -0.0187,0.0811 -0.27802,0.0777 -0.25931,-0.003 -0.34636,-0.0412 -0.19345,-0.0839 z m 53.70535,-0.004 c 5.80953,-0.1181 10.49324,-0.12059 10.4268,-0.006 -0.0401,0.0695 -2.91532,0.10963 -6.38928,0.0891 -3.47396,-0.0205 -5.29084,-0.0581 -4.03752,-0.0836 z m 84.75781,-0.005 c 2.23178,-0.0264 5.83853,-0.0264 8.015,5e-5 2.17648,0.0264 0.35048,0.048 -4.05777,0.048 -4.40825,-3e-5 -6.189,-0.0216 -3.95723,-0.048 z m 33.22769,2e-5 c 2.26895,-0.0263 5.98178,-0.0263 8.25074,0 2.26895,0.0263 0.41253,0.0479 -4.12537,0.0479 -4.5379,0 -6.39432,-0.0215 -4.12537,-0.0479 z m 24.3986,-2.82325 c 0.20301,-0.23175 0.40446,-0.42136 0.44768,-0.42136 0.0432,0 -0.0875,0.18961 -0.29052,0.42136 -0.20301,0.23175 -0.40447,0.42136 -0.44768,0.42136 -0.0432,0 0.0875,-0.18961 0.29052,-0.42136 z m 0.62863,-0.65354 c 0,-0.035 0.12376,-0.16773 0.27502,-0.29496 0.24926,-0.20965 0.25482,-0.20369 0.0593,0.0636 -0.20531,0.28075 -0.33436,0.37003 -0.33436,0.23132 z m 37.30982,-3.01232 -0.29939,-0.37922 0.35361,0.32107 c 0.19448,0.1766 0.3536,0.34725 0.3536,0.37923 0,0.13488 -0.12648,0.0353 -0.40782,-0.32108 z m -187.89554,-3.94953 c 0.11345,-0.0487 0.24899,-0.0427 0.30122,0.0133 0.0522,0.056 -0.0406,0.0958 -0.20627,0.0885 -0.18308,-0.008 -0.22032,-0.048 -0.0949,-0.10183 z m -119.59636,-12.80942 c 0.11345,-0.0487 0.249,-0.0427 0.30122,0.0133 0.0522,0.056 -0.0406,0.0958 -0.20627,0.0885 -0.18308,-0.008 -0.22032,-0.048 -0.0949,-0.10183 z"
       id="path75" /><path
       style="fill:#b82635"
       d="m 64.102432,-84.743588 c 0.540226,-0.03291 1.424234,-0.03291 1.96446,0 0.540227,0.03291 0.09822,0.05984 -0.98223,0.05984 -1.080453,0 -1.522457,-0.02693 -0.98223,-0.05984 z M 81.71382,-94.846632 c 0.113448,-0.04869 0.248996,-0.0427 0.301217,0.01331 0.05222,0.05601 -0.0406,0.09584 -0.206268,0.08852 -0.183079,-0.0081 -0.220318,-0.04802 -0.09495,-0.101829 z m 394.30651,-0.33709 c 0.11345,-0.04869 0.249,-0.0427 0.30122,0.01331 0.0522,0.05601 -0.0406,0.09584 -0.20627,0.08852 -0.18308,-0.0081 -0.22032,-0.04803 -0.0949,-0.101829 z m -86.67069,-0.685364 c 2.40472,-0.02618 6.29436,-0.02616 8.64362,4.7e-5 2.34927,0.02621 0.38177,0.04763 -4.37222,0.0476 -4.754,-2.5e-5 -6.67613,-0.02147 -4.2714,-0.04765 z m 26.50902,-9e-5 c -6e-5,-0.114788 6.41182,-0.112906 14.30134,0.0042 1.68551,0.02502 -0.84275,0.06275 -5.61836,0.08385 -4.7756,0.0211 -8.68294,-0.01852 -8.68298,-0.08805 z M 193.67825,-96.37473 c 2.83078,-0.02575 7.46298,-0.02575 10.29377,0 2.83079,0.02575 0.51469,0.04682 -5.14689,0.04682 -5.66157,0 -7.97767,-0.02107 -5.14688,-0.04682 z m 45.26117,0.01015 c 0.15126,-0.04239 0.39878,-0.04239 0.55005,0 0.15126,0.04239 0.0275,0.07708 -0.27503,0.07708 -0.30253,0 -0.42629,-0.03469 -0.27502,-0.07708 z m 280.69324,-0.01014 c 2.40472,-0.02618 6.29436,-0.02616 8.64362,4.7e-5 2.34927,0.02621 0.38177,0.04763 -4.37222,0.0476 -4.754,-2.5e-5 -6.67613,-0.02147 -4.2714,-0.04765 z m 31.03837,1.1e-5 c 2.27501,-0.02633 5.95248,-0.02631 8.17216,5.1e-5 2.21967,0.02636 0.35829,0.04791 -4.13639,0.04788 -4.49469,-2.9e-5 -6.31078,-0.0216 -4.03577,-0.04793 z M 73.855978,-97.711897 c 0.113448,-0.04869 0.248996,-0.0427 0.301217,0.01331 0.05222,0.05601 -0.0406,0.09584 -0.206268,0.08852 -0.183079,-0.0081 -0.220318,-0.04802 -0.09495,-0.101829 z m 512.424412,-2.623723 -0.29938,-0.37922 0.3536,0.32107 c 0.3323,0.30173 0.42515,0.437378 0.29938,0.437378 -0.0298,0 -0.18894,-0.170648 -0.3536,-0.379228 z m -360.51275,-0.84272 -0.46158,-0.54777 0.51076,0.49503 c 0.4761,0.46144 0.583,0.60051 0.46158,0.60051 -0.027,0 -0.25688,-0.2465 -0.51076,-0.54777 z m 15.71064,-8.09016 -0.29938,-0.37923 0.3536,0.32108 c 0.3323,0.30173 0.42515,0.43737 0.29939,0.43737 -0.0298,0 -0.18895,-0.17065 -0.35361,-0.37922 z m 358.23391,0.0843 c -0.19549,-0.26732 -0.18993,-0.27328 0.0593,-0.0636 0.15126,0.12723 0.27503,0.25996 0.27503,0.29496 0,0.13872 -0.12906,0.0494 -0.33436,-0.23132 z m -511.407605,-0.6594 c 0.108045,-0.0467 0.284847,-0.0467 0.392892,0 0.108046,0.0468 0.01964,0.085 -0.196446,0.085 -0.21609,0 -0.304491,-0.0383 -0.196446,-0.085 z m 5.038841,-0.004 c 0.113448,-0.0487 0.248996,-0.0427 0.301218,0.0133 0.05222,0.056 -0.0406,0.0958 -0.206269,0.0885 -0.183078,-0.008 -0.220318,-0.048 -0.09495,-0.10183 z m 379.155414,-0.43263 -0.29938,-0.37923 0.3536,0.32108 c 0.3323,0.30173 0.42515,0.43737 0.29938,0.43737 -0.0298,0 -0.18894,-0.17065 -0.3536,-0.37922 z m 8.34424,-0.63205 c 0.15645,-0.1854 0.31981,-0.33709 0.36303,-0.33709 0.0432,0 -0.0494,0.15169 -0.20587,0.33709 -0.15645,0.1854 -0.31981,0.33709 -0.36303,0.33709 -0.0432,0 0.0494,-0.15169 0.20587,-0.33709 z m -9.46089,-3.3709 c 0,-0.50985 0.0295,-0.71842 0.0655,-0.4635 0.036,0.25493 0.036,0.67208 0,0.927 -0.036,0.25493 -0.0655,0.0464 -0.0655,-0.4635 z m -282.60269,-0.4354 c 0.008,-0.19635 0.0448,-0.23629 0.0949,-0.10183 0.0454,0.12166 0.0398,0.26703 -0.0124,0.32304 -0.0522,0.056 -0.0894,-0.0435 -0.0825,-0.22121 z m 392.60184,-1.25005 c 0,-0.32445 0.0323,-0.45717 0.0719,-0.29495 0.0395,0.16222 0.0395,0.42768 0,0.58991 -0.0395,0.16222 -0.0719,0.0295 -0.0719,-0.29496 z m -392.58943,-0.33709 c 0,-0.23175 0.0357,-0.32655 0.0793,-0.21068 0.0436,0.11588 0.0436,0.30549 0,0.42136 -0.0436,0.11588 -0.0793,0.0211 -0.0793,-0.21068 z m -84.91898,-0.28368 c 0.11345,-0.0487 0.249,-0.0427 0.30122,0.0133 0.0522,0.056 -0.0406,0.0958 -0.20627,0.0885 -0.18308,-0.008 -0.22031,-0.048 -0.0949,-0.10183 z m 477.52225,-1.23322 c 0,-0.60255 0.0285,-0.84905 0.0634,-0.54777 0.0349,0.30127 0.0349,0.79427 0,1.09554 -0.0349,0.30127 -0.0634,0.0548 -0.0634,-0.54777 z m -586.5348112,-5.56199 c 0,-0.23175 0.035671,-0.32655 0.079268,-0.21068 0.043597,0.11588 0.043597,0.30549 0,0.42136 -0.043597,0.11588 -0.079268,0.0211 -0.079268,-0.21068 z M 58.47218,-127.05 l -0.380997,-0.4635 0.432181,0.40861 c 0.403939,0.3819 0.504252,0.51839 0.380998,0.51839 -0.02815,0 -0.222633,-0.20858 -0.432182,-0.4635 z m 511.7452,-7.37384 c 0.003,-0.2781 0.0384,-0.37147 0.0783,-0.20748 0.0399,0.16399 0.0372,0.39153 -0.006,0.50564 -0.0431,0.11411 -0.0756,-0.0201 -0.0725,-0.29816 z m -0.006,-1.09555 c 0,-0.23175 0.0357,-0.32655 0.0793,-0.21068 0.0436,0.11588 0.0436,0.30549 0,0.42137 -0.0436,0.11587 -0.0793,0.0211 -0.0793,-0.21069 z M 46.382998,-150.94125 c 0.469494,-0.50985 0.888986,-0.927 0.932204,-0.927 0.04322,0 -0.305553,0.41715 -0.775047,0.927 -0.469494,0.50985 -0.888986,0.92699 -0.932204,0.92699 -0.04322,0 0.305553,-0.41714 0.775047,-0.92699 z m -4.714705,0.69481 c 0,-0.035 0.123761,-0.16772 0.275024,-0.29495 0.24926,-0.20965 0.254819,-0.20369 0.05934,0.0636 -0.205305,0.28075 -0.33436,0.37003 -0.33436,0.23131 z m -14.458429,-1.53754 c 0.203006,-0.23175 0.404463,-0.42136 0.447681,-0.42136 0.04322,0 -0.08752,0.18961 -0.290525,0.42136 -0.203006,0.23175 -0.404463,0.42136 -0.447681,0.42136 -0.04322,0 0.08752,-0.18961 0.290525,-0.42136 z m 16.737203,-0.927 c 0.156448,-0.1854 0.31981,-0.33709 0.363028,-0.33709 0.04322,0 -0.04942,0.15169 -0.205871,0.33709 -0.156448,0.1854 -0.31981,0.33709 -0.363028,0.33709 -0.04322,0 0.04942,-0.15169 0.205871,-0.33709 z m -14.851321,-1.09554 c 0.203006,-0.23175 0.404463,-0.42136 0.447681,-0.42136 0.04322,0 -0.08752,0.18961 -0.290524,0.42136 -0.203007,0.23175 -0.404464,0.42136 -0.447682,0.42136 -0.04322,0 0.08752,-0.18961 0.290525,-0.42136 z m -2.043039,-1.83336 c 0,-0.035 0.123761,-0.16772 0.275024,-0.29495 0.24926,-0.20965 0.254818,-0.20369 0.05934,0.0636 -0.205305,0.28075 -0.33436,0.37003 -0.33436,0.23131 z m 37.560485,0 c 0,-0.035 0.123761,-0.16772 0.275024,-0.29495 0.24926,-0.20965 0.254818,-0.20369 0.05934,0.0636 -0.205305,0.28075 -0.334359,0.37003 -0.334359,0.23131 z m 193.224338,-2.29599 -10.2152,-0.088 10.25449,-0.0403 c 6.75659,-0.0265 10.25448,0.0172 10.25448,0.12826 0,0.0927 -0.0177,0.15041 -0.0393,0.12825 -0.0216,-0.0222 -4.63613,-0.0799 -10.25448,-0.12825 z m 380.56769,-8.69411 c 0.008,-0.19635 0.0448,-0.23629 0.095,-0.10183 0.0454,0.12167 0.0398,0.26704 -0.0124,0.32304 -0.0522,0.056 -0.0894,-0.0435 -0.0825,-0.22121 z m -322.31627,-4.4524 c 0,-0.23175 0.0357,-0.32656 0.0793,-0.21068 0.0436,0.11587 0.0436,0.30549 0,0.42136 -0.0436,0.11588 -0.0793,0.0211 -0.0793,-0.21068 z m 243.14551,-0.58991 c 8.9e-4,-0.5562 0.0302,-0.76341 0.0652,-0.46048 0.035,0.30294 0.0343,0.75801 -0.002,1.01127 -0.0359,0.25327 -0.0645,0.005 -0.0636,-0.55079 z m -249.65304,-5.58933 c 0.10804,-0.0468 0.28484,-0.0468 0.39289,0 0.10804,0.0468 0.0196,0.085 -0.19645,0.085 -0.21609,0 -0.30449,-0.0383 -0.19644,-0.085 z m -48.95137,-0.51082 c 0.15291,-0.0427 0.36507,-0.0399 0.47147,0.006 0.1064,0.0462 -0.0187,0.0811 -0.27801,0.0777 -0.25931,-0.003 -0.34637,-0.0412 -0.19346,-0.0839 z m 338.55213,-3.25409 c 0.15645,-0.1854 0.31981,-0.33709 0.36303,-0.33709 0.0432,0 -0.0494,0.15169 -0.20587,0.33709 -0.15645,0.18539 -0.31981,0.33709 -0.36303,0.33709 -0.0432,0 0.0494,-0.1517 0.20587,-0.33709 z m -410.80798,-1.68545 c 0.15645,-0.1854 0.31981,-0.33709 0.36303,-0.33709 0.0432,0 -0.0494,0.15169 -0.20587,0.33709 -0.15645,0.18539 -0.31981,0.33709 -0.36303,0.33709 -0.0432,0 0.0494,-0.1517 0.20587,-0.33709 z"
       id="path74" /><path
       style="fill:#b31626"
       d="m 57.462555,-84.888558 c -0.432181,-0.03331 -1.917313,-0.14112 -3.300293,-0.239588 C 43.921734,-85.85727 33.923414,-87.874542 25.40256,-90.930736 1.563211,-99.48125 -9.2100003,-115.18278 -3.5950393,-133.19359 c 5.3866251,-17.27838 25.7505013,-34.72522 56.1465223,-48.10376 20.637531,-9.08343 45.522338,-15.78064 68.481017,-18.43021 7.78707,-0.89867 15.8396,-1.43883 15.68949,-1.05244 -0.0288,0.0742 -0.3699,0.71291 -0.75797,1.41943 -0.57297,1.04315 -0.7945,1.30438 -1.17868,1.38991 -0.75896,0.16897 -2.79878,0.38898 -5.50211,0.59344 -16.00348,1.21041 -35.344666,5.59335 -51.656887,11.70605 -19.356094,7.25334 -35.51234,16.48973 -47.509078,27.16054 -2.604881,2.31698 -7.46209,7.52804 -9.254793,9.92901 -3.145346,4.21256 -5.471978,8.55641 -6.680372,12.47233 -0.906722,2.93832 -1.128122,4.23588 -1.226278,7.18682 -0.138586,4.16645 0.394298,6.86698 2.073974,10.5104 3.933342,8.5319 13.743672,15.42883 27.660016,19.44575 9.838274,2.839791 22.677188,4.366358 35.362589,4.204665 l 4.245535,-0.05411 -2.388568,4.53357 c -1.313713,2.493464 -2.481637,4.6293 -2.595388,4.746302 -0.478684,0.492368 -2.437831,0.612856 -10.736328,0.660288 -4.581122,0.02618 -8.682915,0.02036 -9.115097,-0.01295 z m 26.157079,-5.153357 2.19559,-4.60531 1.303615,-0.201917 c 1.43442,-0.222179 10.346961,-0.773937 10.464539,-0.64784 0.04042,0.04335 -0.103189,0.593577 -0.319124,1.222736 -0.215935,0.62916 -0.866744,2.520281 -1.446243,4.202492 l -1.053633,3.058565 -0.656453,0.185719 c -0.361049,0.102146 -2.990232,0.411587 -5.842629,0.687647 -2.852397,0.27606 -5.558568,0.547217 -6.013714,0.602572 l -0.827539,0.100645 z m 386.306596,-5.209951 c -8.0819,-0.834422 -13.34433,-5.086984 -15.07768,-12.184254 -0.71952,-2.94612 -0.8179,-7.55517 -0.24689,-11.56586 0.21025,-1.47672 13.42627,-68.58245 13.68414,-69.48267 0.0791,-0.27617 0.62777,-0.29495 8.61706,-0.29495 h 8.53257 l -0.0449,0.54777 c -0.0247,0.30127 -3.04965,15.75474 -6.72217,34.34104 -3.67252,18.5863 -6.80018,34.62757 -6.95036,35.64727 -0.3658,2.48381 -0.37168,5.67019 -0.0121,6.56418 0.4409,1.09618 0.99092,1.72627 1.94592,2.22921 0.82739,0.43573 1.04639,0.47526 2.55511,0.46112 1.8712,-0.0175 2.59531,-0.23916 3.89184,-1.19114 2.04968,-1.50499 3.6539,-5.09785 4.91728,-11.01291 0.44119,-2.0656 13.34999,-67.33721 13.34999,-67.50241 0,-0.0463 3.85427,-0.0841 8.56505,-0.0841 8.43435,0 8.56505,0.005 8.56505,0.33405 0,0.58583 -13.34558,67.75339 -13.90138,69.96489 -1.32716,5.28065 -3.47664,10.04712 -6.12055,13.5723 -4.86736,6.489769 -12.64213,9.918923 -22.25326,9.815068 -1.08046,-0.01168 -2.56309,-0.08303 -3.29475,-0.158574 z m 127.76296,0.06964 c -6.83636,-0.741861 -11.6503,-3.98492 -14.27586,-9.617364 -1.3764,-2.9527 -1.92616,-6.51472 -1.92032,-12.4423 0.006,-6.4355 0.78758,-13.28641 2.60321,-22.82821 4.03787,-21.22049 9.26947,-35.17507 15.44944,-41.20925 4.2395,-4.13949 8.52874,-6.42058 14.17353,-7.53775 2.49844,-0.49447 8.39987,-0.53051 10.76524,-0.0657 5.70493,1.12094 9.55678,3.6419 11.90857,7.7939 2.97862,5.25866 2.8077,16.78383 -0.5196,35.0355 -3.98708,21.87083 -9.56161,36.87123 -15.98348,43.00965 -4.93052,4.712896 -9.75668,7.07238 -15.94755,7.796669 -1.41634,0.165703 -4.98315,0.202725 -6.25318,0.0649 z m 7.23998,-12.966994 c 2.05269,-0.65219 3.74089,-2.41558 5.09987,-5.327 1.66159,-3.5597 3.87991,-11.96846 6.50442,-24.65561 2.81277,-13.59728 4.61443,-25.05044 4.84044,-30.77072 0.16814,-4.25592 -0.70255,-6.45335 -2.94,-7.41992 -0.32578,-0.14074 -1.09471,-0.23637 -1.88589,-0.23455 -1.17075,0.003 -1.46709,0.0694 -2.39798,0.53959 -1.83005,0.9244 -3.3601,2.75333 -4.69339,5.61019 -1.63032,3.49331 -4.41035,14.24218 -6.82185,26.37633 -3.08286,15.51236 -4.35293,23.91563 -4.36876,28.90547 -0.009,2.89099 0.23078,4.08957 1.08267,5.40792 1.04398,1.61564 3.37217,2.26994 5.58047,1.5683 z m -219.84528,11.690135 c 0.004,-0.301274 2.44282,-12.872625 5.42009,-27.936335 2.97727,-15.06371 6.01216,-30.42237 6.74419,-34.13036 1.79487,-9.09158 2.22912,-10.71544 3.8311,-14.32632 1.64633,-3.71082 3.22607,-6.09097 5.72828,-8.63066 3.98982,-4.04958 8.6578,-6.35237 15.02314,-7.41118 2.53158,-0.4211 9.06566,-0.42093 11.59326,3.1e-4 4.95947,0.82651 7.9248,2.18925 10.34184,4.75268 1.04746,1.11089 1.40561,1.63693 2.00822,2.94953 1.7937,3.90704 2.13343,8.98861 1.05332,15.7553 -0.2314,1.4497 -13.26649,67.589638 -13.62745,69.14558 l -0.088,0.379226 h -8.52969 -8.52969 l -0.0739,-0.414799 c -0.0407,-0.228139 2.0354,-11.043267 4.61348,-24.033627 2.57808,-12.99035 4.73273,-23.87791 4.78812,-24.19457 l 0.10072,-0.57575 -6.80243,0.0439 -6.80243,0.0439 -3.64465,18.37141 c -2.00457,10.10427 -4.19719,21.15871 -4.8725,24.56543 l -1.22783,6.194026 h -8.52703 -8.52703 z m 43.0869,-62.024555 c 0.0483,-0.20858 0.59763,-2.92004 1.22062,-6.02549 1.06203,-5.29392 1.13361,-5.78298 1.1471,-7.83734 0.0135,-2.06145 -0.0103,-2.24094 -0.40224,-3.03381 -0.87068,-1.76115 -1.91777,-2.31808 -4.53382,-2.41146 -3.8988,-0.13917 -6.07459,1.21168 -7.6208,4.73139 -0.82407,1.87589 -1.2111,3.38673 -2.36322,9.2254 -0.48474,2.45655 -0.9397,4.75087 -1.01102,5.09849 l -0.12968,0.63204 h 6.80258 6.80258 z m -190.45425,62.053289 c -3.62397,-0.236651 -7.06887,-1.22657 -9.40113,-2.701486 -1.46583,-0.926983 -3.64778,-3.264473 -4.38829,-4.701093 -1.77629,-3.4461 -2.27893,-8.5132 -1.38768,-13.98923 0.41437,-2.54595 9.14916,-46.66841 9.76895,-49.34636 1.70515,-7.36748 4.55227,-13.25382 7.80297,-16.13238 1.92038,-1.70054 5.12244,-3.15467 8.71906,-3.95954 3.62187,-0.81052 4.79528,-0.88041 16.19703,-0.96477 10.41992,-0.0771 10.8044,-0.0689 10.80072,0.2306 -0.002,0.1708 -0.45032,2.51006 -0.99605,5.19835 l -0.99223,4.88781 -7.37256,0.10118 c -7.32934,0.10059 -8.3771,0.18005 -10.03085,0.76069 -3.28078,1.1519 -4.88189,3.08404 -6.27603,7.57361 -0.34234,1.10244 -2.45954,10.91647 -2.45954,11.4009 0,0.0749 4.5573,0.1362 10.12734,0.1362 5.57004,0 10.15603,0.0569 10.1911,0.12641 0.0351,0.0695 -0.47722,2.81891 -1.13842,6.10975 l -1.20217,5.98335 -10.2334,0.0434 -10.2334,0.0434 -0.17721,0.88364 c -1.94896,9.7184 -4.76157,24.45325 -4.96232,25.99685 -0.34334,2.64001 -0.24833,5.80719 0.21605,7.20245 0.83441,2.50699 2.43528,3.79882 5.50108,4.43912 0.90014,0.188 2.78841,0.24085 8.60434,0.24085 h 7.45113 l -0.004,0.37923 c -0.002,0.20857 -0.44809,2.57874 -0.99147,5.26703 l -0.98797,4.887804 -10.0488,0.01803 c -5.52684,0.0099 -10.97038,-0.04215 -12.09675,-0.115705 z m 35.02509,-0.195831 c 0.0481,-0.209371 4.12564,-20.783048 9.06111,-45.719278 4.93547,-24.93623 9.01155,-45.47501 9.05795,-45.64173 0.0806,-0.28972 0.78402,-0.30046 15.90491,-0.24274 15.33306,0.0585 15.86413,0.0711 17.23496,0.40939 3.19806,0.7891 5.48064,2.15196 7.08114,4.22794 2.15877,2.80008 3.0621,6.63169 2.59276,10.99746 -0.16798,1.56257 -14.81633,75.829562 -15.02951,76.199487 -0.0467,0.08102 -3.89746,0.147249 -8.56205,0.147249 -8.46794,0 -8.47719,-3.81e-4 -8.47719,-0.348883 0,-0.191885 3.21863,-16.537543 7.15251,-36.323693 3.93388,-19.78615 7.22698,-36.54907 7.31801,-37.25094 0.18781,-1.44821 0.0225,-3.03851 -0.41965,-4.03787 -0.57425,-1.29784 -2.0088,-2.33429 -3.83568,-2.77123 -0.79728,-0.19069 -5.80462,-0.46382 -5.82281,-0.31761 -0.004,0.0354 -3.6292,18.26722 -8.0551,40.51516 l -8.0471,40.450794 -8.6209,0.04358 -8.62089,0.04358 z m 71.34391,-0.08427 c 0.048,-0.255722 3.66373,-18.575738 8.03491,-40.711158 4.37118,-22.13541 7.9476,-40.28139 7.9476,-40.32439 0,-0.043 -3.57139,-0.0782 -7.93642,-0.0782 -4.97006,0 -7.93642,-0.0605 -7.93642,-0.16193 0,-0.0891 0.42432,-2.37995 0.94294,-5.09085 0.51862,-2.71091 0.94294,-4.98924 0.94294,-5.06297 0,-0.0737 11.13849,-0.13404 24.7522,-0.13404 15.72268,0 24.75221,0.0591 24.75221,0.16193 0,0.0891 -0.42433,2.37995 -0.94294,5.09085 -0.51862,2.71091 -0.94295,4.98924 -0.94295,5.06297 0,0.0737 -3.67747,0.13404 -8.17215,0.13404 -4.49469,0 -8.17639,0.019 -8.18157,0.0421 -0.005,0.0232 -3.63101,18.35876 -8.05742,40.74575 l -8.04801,40.703615 -8.62112,0.04358 -8.62112,0.04359 z m -159.69804,0.02736 c -6.99171,-1.091956 -11.2393,-4.661898 -12.70431,-10.677508 -0.53226,-2.18557 -0.65594,-5.81302 -0.29756,-8.72758 0.25565,-2.07914 9.2309,-47.72232 10.15118,-51.6233 2.00467,-8.49764 4.99411,-14.02403 9.03492,-16.70229 2.96426,-1.96471 7.21998,-3.19856 12.70164,-3.68253 2.73945,-0.24187 21.6398,-0.24041 21.6398,0.002 0,0.14321 -1.63815,8.383 -1.96648,9.89122 l -0.0825,0.37923 -6.5583,0.001 c -6.55316,10e-4 -8.55579,0.11938 -10.33007,0.60864 -2.73887,0.75525 -4.52369,2.37168 -5.85509,5.30268 -0.43874,0.96585 -0.94519,2.27643 -1.12545,2.91239 -0.44378,1.56565 -1.7757,8.05691 -3.54959,17.29938 -0.80953,4.21784 -2.4365,12.44705 -3.61548,18.28714 -2.57813,12.77064 -2.67701,13.31125 -2.91135,15.91704 -0.29606,3.29213 0.16328,6.25886 1.1933,7.70715 0.55794,0.7845 1.69346,1.64896 2.7236,2.07346 1.82398,0.75162 3.05394,0.84818 10.80329,0.84818 5.80067,0 7.28721,0.0438 7.28721,0.21487 0,0.11817 -0.42331,2.41249 -0.94068,5.09848 -0.51738,2.685995 -0.9417,4.940508 -0.94294,5.010033 -0.001,0.06952 -5.21791,0.11826 -11.59258,0.108299 -8.89148,-0.01389 -11.93312,-0.07165 -13.06251,-0.248034 z m 330.95151,0.06826 c 0,-0.108834 4.06643,-20.728168 9.03652,-45.820748 4.97008,-25.09258 9.03652,-45.67485 9.03652,-45.73838 0,-0.0635 6.87757,-0.0873 15.2835,-0.0529 14.8037,0.0607 15.33777,0.0739 17.01223,0.42055 6.159,1.27515 9.47446,4.172 10.78874,9.42659 0.46996,1.87889 0.57257,5.71657 0.22217,8.30899 -0.58336,4.31597 -1.65014,8.36505 -3.00203,11.39459 -2.40997,5.40065 -6.72987,9.7217 -11.72467,11.72779 -1.3976,0.56132 -1.7102,0.8106 -1.0165,0.8106 0.67239,0 3.12411,0.84799 4.19245,1.45008 3.58082,2.01801 5.37385,5.97599 5.00595,11.05022 -0.0588,0.81109 -1.62134,8.98161 -3.69346,19.31315 l -3.59153,17.907318 h -8.13784 c -7.53454,0 -8.13784,-0.02111 -8.13784,-0.284757 0,-0.156616 1.57036,-8.177251 3.4897,-17.823631 3.12129,-15.6873 3.49044,-17.70791 3.49674,-19.14005 0.006,-1.46513 -0.0323,-1.67742 -0.45641,-2.49844 -0.58437,-1.13135 -1.40861,-1.83578 -2.62192,-2.24077 -0.8346,-0.27858 -1.4835,-0.31714 -5.33652,-0.31714 -2.41252,0 -4.38639,0.0305 -4.38639,0.0679 0,0.0916 -8.15482,41.345722 -8.27139,41.843822 l -0.092,0.393106 h -8.54801 c -6.43871,0 -8.54801,-0.04883 -8.54801,-0.19788 z m 34.59166,-53.402918 c 2.33386,-0.47467 4.38923,-2.27509 5.67221,-4.96858 1.90905,-4.00787 3.58965,-11.62178 3.62725,-16.43314 0.0269,-3.43893 -0.52674,-4.88447 -2.22117,-5.79964 -1.15646,-0.62461 -2.18959,-0.77361 -5.36387,-0.77361 -2.69056,0 -2.97525,0.0275 -3.04903,0.29495 -0.12892,0.46723 -5.44029,27.49364 -5.44029,27.6824 0,0.22702 5.6568,0.22503 6.7749,-0.002 z M 71.213779,-97.770857 c -29.265641,-1.225759 -49.1954,-10.454903 -53.656032,-24.847243 -0.880422,-2.8407 -1.132381,-6.71398 -0.637708,-9.80326 2.671239,-16.68215 23.081917,-34.81402 54.29374,-48.23195 17.875368,-7.6846 38.188131,-13.11975 56.183571,-15.03321 2.93472,-0.31204 6.8625,-0.6526 6.94565,-0.6022 0.0169,0.0102 -0.43423,0.94254 -1.00254,2.07177 l -1.03328,2.05314 -1.11908,0.24721 c -0.6155,0.13597 -2.63958,0.48543 -4.49796,0.77659 -24.40181,3.82308 -51.320634,14.60236 -70.616635,28.27747 -8.306607,5.88691 -15.086992,12.57517 -18.578411,18.326 -1.78559,2.9411 -3.114718,6.41218 -3.533501,9.22789 -0.261398,1.75754 -0.115657,4.91003 0.298246,6.45128 2.660085,9.90539 14.534336,17.10102 33.339333,20.20318 5.672689,0.9358 10.73998,1.41197 18.269482,1.71677 1.447808,0.0586 2.632377,0.13597 2.632377,0.1719 0,0.0359 -1.029194,2.02993 -2.287098,4.4311 -2.246882,4.289006 -2.297315,4.367913 -2.868112,4.4875 -0.845432,0.177124 -8.563787,0.225515 -12.132042,0.07606 z m 16.258691,-0.289404 c 0.05784,-0.162224 0.98896,-2.134199 2.069155,-4.382169 1.889991,-3.93322 1.981403,-4.08722 2.426158,-4.08722 0.254193,0 0.462169,-0.0758 0.462169,-0.16854 0,-0.10458 0.939453,-0.17441 2.47522,-0.184 1.361372,-0.009 3.429948,-0.0711 4.596838,-0.1392 1.16689,-0.0681 2.14641,-0.10404 2.17671,-0.08 0.10217,0.0812 -2.836746,8.407922 -3.007987,8.522453 -0.444203,0.297095 -6.910915,0.81359 -10.186458,0.81359 -0.999072,0 -1.105869,-0.03113 -1.011805,-0.294954 z m -2.035997,-11.849059 c -12.049691,-0.43017 -22.612221,-2.29753 -30.567006,-5.40397 -2.619884,-1.0231 -6.68004,-3.15586 -8.565047,-4.49913 -4.047249,-2.88412 -6.775658,-6.52337 -7.804021,-10.40929 -0.485535,-1.83472 -0.492495,-5.27868 -0.01446,-7.15686 0.779025,-3.06079 2.010279,-5.68662 4.129655,-8.8071 1.388908,-2.04497 6.069101,-7.14733 8.482112,-9.24722 16.267854,-14.15688 43.415888,-26.99175 69.844924,-33.02081 2.94216,-0.67118 10.30556,-2.067 10.39545,-1.9706 0.0538,0.0577 -2.35968,4.78299 -2.60461,5.09949 -0.0919,0.11873 -0.32401,0.25382 -0.51585,0.3002 -0.19184,0.0464 -1.76321,0.39969 -3.49194,0.78512 -16.96414,3.78222 -33.670425,10.33919 -46.596997,18.28862 -3.044501,1.87227 -8.062434,5.50388 -10.529508,7.62048 -2.477348,2.12542 -5.667865,5.40377 -7.355187,7.55768 -6.591861,8.41469 -7.491216,16.55451 -2.518256,22.79205 5.300568,6.64847 17.27252,10.79795 33.019715,11.44466 1.536954,0.0631 2.774564,0.17767 2.750245,0.25456 -0.02432,0.0769 -0.751423,1.50352 -1.615786,3.17028 -1.531556,2.95333 -1.584572,3.03063 -2.082328,3.03628 -0.280918,0.003 -0.51076,0.0816 -0.51076,0.17433 0,0.0927 -0.0884,0.15642 -0.196446,0.1416 -0.108045,-0.0148 -1.752298,-0.0825 -3.653896,-0.15037 z m 7.661229,-0.006 c 0.0217,-0.0547 0.707254,-1.47017 1.523452,-3.14557 1.437334,-2.9504 1.501575,-3.04972 2.043039,-3.15837 0.479791,-0.0963 8.179667,-0.39739 8.304457,-0.32475 0.0246,0.0143 -0.43385,1.40126 -1.01877,3.0821 -0.95207,2.73589 -1.10105,3.05607 -1.42198,3.05607 -0.19717,0 -0.48129,0.0764 -0.63138,0.16985 -0.28769,0.17905 -8.866723,0.49172 -8.798818,0.32067 z"
       id="path73" /></g></svg>
