<?xml version="1.0" encoding="UTF-8" standalone="no"?>
<svg
   height="476.77899"
   viewBox="0 0 640.2 126.2"
   width="2419.4851"
   version="1.1"
   id="svg14"
   sodipodi:docname="aliexpress.svg"
   xml:space="preserve"
   inkscape:export-filename="philco.svg"
   inkscape:export-xdpi="96"
   inkscape:export-ydpi="96"
   xmlns:inkscape="http://www.inkscape.org/namespaces/inkscape"
   xmlns:sodipodi="http://sodipodi.sourceforge.net/DTD/sodipodi-0.dtd"
   xmlns="http://www.w3.org/2000/svg"
   xmlns:svg="http://www.w3.org/2000/svg"><defs
     id="defs14" /><sodipodi:namedview
     id="namedview14"
     pagecolor="#ffffff"
     bordercolor="#000000"
     borderopacity="0.25"
     inkscape:showpageshadow="2"
     inkscape:pageopacity="0.0"
     inkscape:pagecheckerboard="0"
     inkscape:deskcolor="#d1d1d1"
     inkscape:export-bgcolor="#ffffff00" /><g
     id="g320"
     transform="matrix(4.3680125,0,0,3.4814804,-808.94362,566.84547)"><path
       style="fill:#99ca3c;fill-opacity:1;stroke-width:1.67408"
       d="m 826.58029,-546.00577 c 0,-63.69028 0.0687,-70.339 0.72982,-70.59268 0.4014,-0.15403 67.77588,-0.28006 149.72107,-0.28006 h 148.99122 v 70.59268 70.59268 H 976.30136 826.58029 Z m 73.91504,26.91256 c 4.80497,-0.96452 9.13517,-2.92828 9.13517,-4.14285 0,-0.18596 -0.67986,-1.34763 -1.5108,-2.58148 -0.83093,-1.23386 -2.00552,-3.2296 -2.61018,-4.43498 -1.24405,-2.47998 -1.58576,-2.57033 -5.46058,-1.44389 -3.64269,1.05895 -8.51189,0.68854 -11.72209,-0.89173 -9.51715,-4.68496 -8.89343,-22.79848 0.93704,-27.21302 2.95716,-1.32797 9.44684,-1.61776 13.42206,-0.59936 1.61356,0.41337 3.30322,0.63432 3.75482,0.49099 1.21191,-0.38464 2.72834,-3.88262 2.72834,-6.29351 0,-2.5527 -1.38339,-4.79088 -3.69962,-5.98562 -3.83753,-1.97945 -13.01307,-2.05231 -18.54751,-0.14729 -6.51923,2.24401 -11.99484,6.866 -15.15245,12.79028 -2.66256,4.99547 -3.89456,11.99776 -3.14476,17.87374 1.50799,11.81776 8.16425,19.8422 18.57167,22.38906 2.9856,0.73062 10.09858,0.83206 13.29889,0.18966 z m 30.67235,-0.15347 c 4.17848,-0.89676 8.33635,-3.09166 11.24206,-5.93459 2.23461,-2.18632 3.63034,-4.40028 5.71332,-9.06268 0.72602,-1.62506 0.63111,-11.91945 -0.12803,-13.88744 -2.48777,-6.4493 -5.8182,-10.32868 -10.97866,-12.78825 -13.55476,-6.46047 -29.14646,1.65775 -31.19289,16.24135 -1.75884,12.53423 5.52712,23.31928 17.18733,25.44154 3.93981,0.71708 4.77408,0.71606 8.15687,-0.01 z m 83.89042,0.009 c 8.0055,-1.74253 12.7459,-6.87799 12.7459,-13.80803 0,-3.59291 -0.3707,-5.21473 -1.6026,-7.01161 -2.434,-3.55042 -6.2648,-5.36539 -13.6809,-6.48196 -3.4103,-0.51346 -6.7305,-1.24656 -7.6894,-1.69784 -1.4301,-0.67296 -1.6471,-2.06431 -0.4901,-3.14216 1.6386,-1.52659 12.646,-1.21488 17.2061,0.48725 2.045,0.76329 3.8923,-1.76884 3.8923,-5.33515 0,-3.89168 -2.0153,-5.55689 -8.3159,-6.87132 -8.2665,-1.72456 -16.774,-0.12397 -21.27972,4.00356 -2.8238,2.5868 -3.79822,5.05971 -3.77451,9.57912 0.0292,5.57443 1.27861,8.03018 5.37267,10.56046 2.10307,1.29977 5.00706,2.12675 10.69536,3.04576 2.5376,0.40999 5.1779,0.96446 5.8674,1.23217 1.4645,0.56867 1.9965,1.82468 1.3135,3.1009 -0.4625,0.86418 -1.0167,1.065 -4.6433,1.6825 -1.9955,0.33978 -6.9697,-0.40708 -11.46873,-1.722 -2.2711,-0.66377 -3.62134,-0.84894 -4.08012,-0.55955 -0.84565,0.53342 -2.87858,6.36522 -2.89482,8.30429 -0.0121,1.43869 0.14371,1.577 3.21782,2.85714 5.03305,2.0959 14.28915,2.93445 19.60905,1.77647 z m 40.9247,-0.31865 c 4.673,-1.57424 7.9897,-4.28047 10.1406,-8.27415 2.0843,-3.86999 2.2253,-5.11871 2.2253,-19.70645 0,-16.31334 0.2641,-15.4949 -5.0006,-15.4949 -3.5625,0 -5.4664,0.83018 -6.7023,2.92242 -0.6432,1.08877 -0.7547,2.9436 -0.7547,12.55684 0,13.26094 -0.2342,14.42783 -3.2167,16.02401 -1.5448,0.82676 -5.5062,0.75312 -7.2222,-0.13424 -2.8884,-1.49368 -2.9414,-1.77275 -2.9414,-15.4998 0,-6.84405 -0.1977,-12.96368 -0.4393,-13.59918 -0.625,-1.64385 -2.1477,-2.30032 -5.328,-2.29701 -3.4413,0.004 -5.3861,0.96492 -6.4384,3.18241 -0.7101,1.49645 -0.7766,3.11932 -0.62,15.13085 0.1732,13.27615 0.1911,13.48828 1.3527,15.99227 2.1494,4.63355 5.3573,7.472 10.3522,9.16018 3.8883,1.31414 10.7496,1.33142 14.5928,0.0367 z m -92.9089,-0.56743 c 0.32011,-0.3857 0.54511,-5.09908 0.63324,-13.26496 0.1532,-14.19685 0.39891,-15.44366 3.28344,-16.66127 1.87432,-0.79117 6.29666,-0.79954 7.76319,-0.0147 2.38784,1.27792 2.45389,1.66934 2.70106,16.00541 0.12689,7.35917 0.39867,13.63984 0.60397,13.95705 0.26323,0.4067 1.94859,0.57674 5.71651,0.57674 4.54771,0 5.4345,-0.12022 5.95617,-0.80744 0.87551,-1.15334 0.87096,-25.5518 -0.005,-29.21577 -1.85044,-7.73605 -7.14387,-12.3962 -15.21961,-13.39881 -11.24912,-1.39658 -19.82973,3.45646 -22.85041,12.92377 -0.73151,2.29268 -0.68364,29.20768 0.0533,29.94458 0.79963,0.79963 10.69621,0.76078 11.36463,-0.0446 z m 120.5797,-0.1653 c 0.798,-0.72218 0.8437,-2.14396 0.8437,-26.21223 0,-24.79409 -0.024,-25.47406 -0.9209,-26.43717 -1.1027,-1.18356 -3.4472,-1.69214 -6.3122,-1.36922 -2.3105,0.26044 -4.224,1.44215 -5.1023,3.15101 -0.7428,1.44544 -0.8428,49.36176 -0.1059,50.73876 0.4283,0.80032 1.0081,0.89245 5.6157,0.89245 4.1336,0 5.3031,-0.14929 5.9819,-0.7636 z"
       id="path319"
       transform="matrix(0.26469287,0,0,0.26469287,-0.11022934,0)" /><path
       style="fill:#99ca3c;fill-opacity:1;stroke-width:1.18376"
       d="m 923.78527,-531.45952 c -1.89689,-0.75047 -3.66691,-2.46641 -4.5969,-4.45646 -0.63053,-1.34925 -0.73938,-2.11659 -0.73383,-5.17302 0.005,-2.71197 0.13801,-3.82791 0.54467,-4.56753 0.29598,-0.53832 0.53904,-1.1438 0.54015,-1.34552 0.005,-0.88221 2.9341,-3.18172 4.79188,-3.76168 2.35799,-0.73611 2.98853,-0.74168 5.46566,-0.0483 2.41554,0.67617 4.0252,2.07032 5.29972,4.59017 0.84141,1.66354 0.91917,2.1163 0.90525,5.27073 -0.0136,3.08083 -0.11164,3.65054 -0.91434,5.31298 -1.95178,4.04224 -6.9635,5.89514 -11.30226,4.1786 z"
       id="path320"
       transform="matrix(0.26469287,0,0,0.26469287,-0.11022934,0)" /></g></svg>
