<?xml version="1.0" encoding="UTF-8" standalone="no"?>
<svg
   height="476.77899"
   viewBox="0 0 640.2 126.2"
   width="2419.4851"
   version="1.1"
   id="svg14"
   sodipodi:docname="aliexpress.svg"
   xml:space="preserve"
   inkscape:export-filename="amazon.svg"
   inkscape:export-xdpi="96"
   inkscape:export-ydpi="96"
   xmlns:inkscape="http://www.inkscape.org/namespaces/inkscape"
   xmlns:sodipodi="http://sodipodi.sourceforge.net/DTD/sodipodi-0.dtd"
   xmlns="http://www.w3.org/2000/svg"
   xmlns:svg="http://www.w3.org/2000/svg"><defs
     id="defs14" /><sodipodi:namedview
     id="namedview14"
     pagecolor="#ffffff"
     bordercolor="#000000"
     borderopacity="0.25"
     inkscape:showpageshadow="2"
     inkscape:pageopacity="0.0"
     inkscape:pagecheckerboard="0"
     inkscape:deskcolor="#d1d1d1" /><g
     id="g133"
     transform="matrix(0.79751165,0,0,0.86423963,99.517866,154.95978)"><path
       style="fill:#f9b7c6"
       d="m 28.682511,-37.453231 c 0.191076,-0.07646 0.419373,-0.06706 0.507328,0.0209 0.08796,0.08795 -0.06838,0.150515 -0.347409,0.139022 -0.308352,-0.0127 -0.371073,-0.07542 -0.159919,-0.159919 z m 343.554809,0.0055 c 0.18198,-0.07343 0.47976,-0.07343 0.66174,0 0.18197,0.07343 0.0331,0.133507 -0.33087,0.133507 -0.36395,0 -0.51284,-0.06008 -0.33087,-0.133507 z m -176.55015,-0.264693 c 0.18198,-0.07343 0.47976,-0.07343 0.66174,0 0.18197,0.07343 0.0331,0.133507 -0.33087,0.133507 -0.36395,0 -0.51284,-0.06008 -0.33087,-0.133507 z m 10.85241,0 c 0.18198,-0.07343 0.47976,-0.07343 0.66173,0 0.18198,0.07343 0.0331,0.133507 -0.33086,0.133507 -0.36395,0 -0.51284,-0.06008 -0.33087,-0.133507 z m 170.47876,-0.0055 c 0.19107,-0.07646 0.41937,-0.06706 0.50733,0.0209 0.088,0.08796 -0.0684,0.150515 -0.34741,0.139022 -0.30835,-0.0127 -0.37107,-0.07542 -0.15992,-0.159918 z m -54.26204,-0.264693 c 0.19107,-0.07646 0.41937,-0.06706 0.50733,0.0209 0.088,0.08796 -0.0684,0.150516 -0.34741,0.139022 -0.30835,-0.0127 -0.37107,-0.07542 -0.15992,-0.159918 z m 58.74528,0.0055 c 0.18197,-0.07343 0.47975,-0.07343 0.66173,0 0.18197,0.07343 0.0331,0.133507 -0.33087,0.133507 -0.36395,0 -0.51284,-0.06008 -0.33086,-0.133507 z m 4.25162,-0.270207 c 0.19108,-0.07646 0.41938,-0.06706 0.50733,0.0209 0.088,0.08796 -0.0684,0.150515 -0.34741,0.139021 -0.30835,-0.0127 -0.37107,-0.07542 -0.15992,-0.159918 z m 3.9704,-0.264693 c 0.19107,-0.07646 0.41937,-0.06706 0.50733,0.0209 0.0879,0.08796 -0.0684,0.150515 -0.34741,0.139022 -0.30836,-0.0127 -0.37108,-0.07542 -0.15992,-0.159919 z m -223.49596,-9.414301 -1.04632,-1.124945 1.12495,1.046317 c 0.61871,0.575474 1.12494,1.0817 1.12494,1.124945 0,0.20026 -0.23051,-1.3e-4 -1.20357,-1.046317 z M -53.356414,-49.9115 c -0.329244,-0.419817 -0.319882,-0.42918 0.09994,-0.09994 0.254767,0.199802 0.463213,0.408248 0.463213,0.463212 0,0.217852 -0.217362,0.07764 -0.563149,-0.363276 z m 122.189526,-4.036566 c 0.263499,-0.291162 0.538644,-0.529386 0.611434,-0.529386 0.07279,0 -0.08324,0.238224 -0.346741,0.529386 -0.263498,0.291162 -0.538643,0.529386 -0.611434,0.529386 -0.07279,0 0.08324,-0.238224 0.346741,-0.529386 z M 7.4905378,-55.997452 c 1.0554628,-0.05024 2.7825842,-0.05024 3.8380472,0 1.055462,0.05024 0.191902,0.09135 -1.9190238,0.09135 -2.1109258,0 -2.9744863,-0.04111 -1.9190234,-0.09135 z m -12.8376046,-0.250617 c 0.2547669,-0.06658 0.6716581,-0.06658 0.926425,0 0.2547669,0.06658 0.046321,0.12105 -0.4632125,0.12105 -0.5095338,0 -0.7179794,-0.05447 -0.4632125,-0.12105 z m 22.6477848,0.0016 c 0.191075,-0.07646 0.419372,-0.06706 0.507328,0.0209 0.08795,0.08795 -0.06838,0.150515 -0.34741,0.139022 -0.308352,-0.0127 -0.371073,-0.07542 -0.159918,-0.159919 z m -28.868067,-0.259178 c 0.181976,-0.07343 0.479755,-0.07343 0.661732,0 0.181976,0.07343 0.03309,0.133507 -0.330866,0.133507 -0.363953,0 -0.512843,-0.06008 -0.330866,-0.133507 z m -3.95385,-0.270207 c 0.191075,-0.07646 0.419372,-0.06706 0.507328,0.0209 0.08795,0.08796 -0.06838,0.150516 -0.34741,0.139022 -0.308352,-0.0127 -0.371073,-0.07542 -0.159918,-0.159918 z m 350.309519,-0.796693 c 0.25754,-0.06711 0.61487,-0.0627 0.79408,0.0098 0.1792,0.0725 -0.0315,0.127414 -0.46825,0.12202 -0.43674,-0.0054 -0.58337,-0.06472 -0.32583,-0.131828 z m 10.85241,0 c 0.25754,-0.06711 0.61487,-0.0627 0.79408,0.0098 0.1792,0.0725 -0.0315,0.127414 -0.46825,0.12202 -0.43675,-0.0054 -0.58337,-0.06472 -0.32583,-0.131828 z M 73.597584,-58.712538 c 0.263498,-0.291162 0.538644,-0.529386 0.611434,-0.529386 0.07279,0 -0.08324,0.238224 -0.346741,0.529386 -0.263498,0.291162 -0.538643,0.529386 -0.611434,0.529386 -0.07279,0 0.08324,-0.238224 0.346741,-0.529386 z m 137.458316,0.34857 c 0.19108,-0.07646 0.41938,-0.06706 0.50733,0.0209 0.088,0.08796 -0.0684,0.150515 -0.34741,0.139022 -0.30835,-0.0127 -0.37107,-0.07542 -0.15992,-0.159919 z m 2.91163,-0.264692 c 0.19107,-0.07646 0.41937,-0.06706 0.50732,0.0209 0.088,0.08796 -0.0684,0.150515 -0.3474,0.139022 -0.30836,-0.0127 -0.37108,-0.07542 -0.15992,-0.159918 z m -238.737113,-1.870555 c -0.329244,-0.419817 -0.319882,-0.42918 0.09994,-0.09994 0.440912,0.345787 0.581128,0.563149 0.363276,0.563149 -0.05497,0 -0.26341,-0.208446 -0.463212,-0.463213 z m 72.559612,-8.354477 c 0,-0.04555 0.387113,-0.432667 0.860251,-0.860252 l 0.860252,-0.777427 -0.777427,0.860252 c -0.724671,0.801875 -0.943076,0.981918 -0.943076,0.777427 z m 238.275191,-2.69645 c 0.005,-0.436744 0.0647,-0.583366 0.13183,-0.325829 0.0671,0.257538 0.0627,0.614873 -0.01,0.794079 -0.0725,0.179206 -0.12741,-0.03151 -0.12202,-0.46825 z M 51.231036,-72.344221 c 0.341916,-0.363953 0.681221,-0.661732 0.754012,-0.661732 0.07279,0 -0.147403,0.297779 -0.489319,0.661732 -0.341916,0.363953 -0.681221,0.661732 -0.754012,0.661732 -0.07279,0 0.147403,-0.297779 0.489319,-0.661732 z m -80.710431,-0.816136 c 0.0127,-0.308352 0.07542,-0.371073 0.159918,-0.159919 0.07646,0.191075 0.06706,0.419373 -0.0209,0.507328 -0.08796,0.08796 -0.150515,-0.06838 -0.139022,-0.347409 z m 117.238048,-2.327768 c 0,-0.05497 0.208446,-0.263411 0.463213,-0.463213 0.419817,-0.329243 0.42918,-0.319881 0.09994,0.09994 -0.345787,0.440911 -0.563149,0.581127 -0.563149,0.363276 z m 198.316377,-3.076378 c 0,-0.509534 0.0545,-0.71798 0.12105,-0.463213 0.0666,0.254767 0.0666,0.671658 0,0.926425 -0.0666,0.254767 -0.12105,0.04632 -0.12105,-0.463212 z m 139.82878,-0.264693 c 0.26349,-0.291162 0.53864,-0.529386 0.61143,-0.529386 0.0728,0 -0.0832,0.238224 -0.34674,0.529386 -0.2635,0.291162 -0.53864,0.529385 -0.61144,0.529385 -0.0728,0 0.0833,-0.238223 0.34675,-0.529385 z m 1.32346,-1.323465 c 0.2635,-0.291162 0.53864,-0.529385 0.61143,-0.529385 0.0728,0 -0.0832,0.238223 -0.34674,0.529385 -0.2635,0.291163 -0.53864,0.529386 -0.61143,0.529386 -0.0728,0 0.0832,-0.238223 0.34674,-0.529386 z m -491.381432,-0.419097 c 0.0127,-0.308352 0.07542,-0.371072 0.159918,-0.159918 0.07646,0.191075 0.06706,0.419372 -0.0209,0.507328 -0.08795,0.08796 -0.150515,-0.06838 -0.139021,-0.34741 z m 220.018202,-0.904367 c 0,-0.800696 0.0496,-1.128253 0.11027,-0.727905 0.0607,0.400348 0.0607,1.055462 0,1.45581 -0.0607,0.400348 -0.11027,0.07279 -0.11027,-0.727905 z m -96.692218,0.164757 c 0,-0.05496 0.208446,-0.263411 0.463213,-0.463213 0.419818,-0.329244 0.42918,-0.319881 0.09994,0.09994 -0.345787,0.440912 -0.563149,0.581128 -0.563149,0.363277 z m -88.875397,-1.488221 c 0,-0.509534 0.05447,-0.71798 0.12105,-0.463213 0.06658,0.254767 0.06658,0.671658 0,0.926425 -0.06658,0.254767 -0.12105,0.04632 -0.12105,-0.463212 z m 316.002785,0.110288 c 0.0127,-0.308352 0.0754,-0.371072 0.15992,-0.159918 0.0765,0.191075 0.0671,0.419372 -0.0209,0.507328 -0.0879,0.08796 -0.15051,-0.06838 -0.13902,-0.34741 z m -350.718065,-0.529385 c 0.0127,-0.308353 0.07542,-0.371073 0.159918,-0.159919 0.07646,0.191075 0.06706,0.419373 -0.0209,0.507328 -0.08796,0.08796 -0.150515,-0.06838 -0.139022,-0.347409 z m -0.233988,-3.948336 c 0.0054,-0.436743 0.06472,-0.583366 0.131828,-0.325828 0.06711,0.257537 0.0627,0.614873 -0.0098,0.794078 -0.07251,0.179206 -0.127415,-0.03151 -0.12202,-0.46825 z m 386.664693,-2.911621 c 0.34192,-0.363953 0.68122,-0.661733 0.75401,-0.661733 0.0728,0 -0.1474,0.29778 -0.48932,0.661733 -0.34191,0.363952 -0.68122,0.661732 -0.75401,0.661732 -0.0728,0 0.14741,-0.29778 0.48932,-0.661732 z m 10.25685,-3.748655 c 0.18198,-0.07343 0.47976,-0.07343 0.66173,0 0.18198,0.07343 0.0331,0.133507 -0.33086,0.133507 -0.36396,0 -0.51285,-0.06008 -0.33087,-0.133507 z m 23.02828,0 c 0.18198,-0.07343 0.47976,-0.07343 0.66173,0 0.18198,0.07343 0.0331,0.133507 -0.33086,0.133507 -0.36396,0 -0.51285,-0.06008 -0.33087,-0.133507 z m -17.20504,-0.276195 c 0.32756,-0.06309 0.86356,-0.06309 1.19112,0 0.32756,0.06309 0.0596,0.11471 -0.59556,0.11471 -0.65511,0 -0.92311,-0.05162 -0.59556,-0.11471 z m 9.53369,-0.005 c 0.47574,-0.05891 1.19041,-0.0577 1.58815,0.0027 0.39775,0.0604 0.009,0.108595 -0.86499,0.10711 -0.87348,-0.0015 -1.19891,-0.0509 -0.72316,-0.10981 z m -412.288281,-7.748957 c 0,-0.36395 0.06008,-0.51284 0.133507,-0.33086 0.07343,0.18197 0.07343,0.47975 0,0.66173 -0.07343,0.18198 -0.133507,0.0331 -0.133507,-0.33087 z m 0.243796,-4.12479 c 0.0127,-0.30836 0.07542,-0.37108 0.159918,-0.15992 0.07646,0.19107 0.06706,0.41937 -0.0209,0.50733 -0.08796,0.088 -0.150515,-0.0684 -0.139022,-0.34741 z m 455.831845,-1.8308 c 0.005,-0.43674 0.0647,-0.58336 0.13182,-0.32582 0.0671,0.25753 0.0627,0.61487 -0.01,0.79407 -0.0725,0.17921 -0.12742,-0.0315 -0.12202,-0.46825 z m -350.972953,-2.51458 c 0,-0.50953 0.05447,-0.71798 0.121051,-0.46321 0.06658,0.25477 0.06658,0.67166 0,0.92642 -0.06658,0.25477 -0.121051,0.0463 -0.121051,-0.46321 z m 185.794783,-0.26469 c 0,-0.36395 0.0601,-0.51284 0.13351,-0.33087 0.0734,0.18198 0.0734,0.47976 0,0.66174 -0.0734,0.18197 -0.13351,0.0331 -0.13351,-0.33087 z m 96.76963,-0.96938 c 0.18198,-0.0734 0.47976,-0.0734 0.66173,0 0.18198,0.0734 0.0331,0.13351 -0.33086,0.13351 -0.36396,0 -0.51285,-0.0601 -0.33087,-0.13351 z m 4.49978,-0.26469 c 0.18197,-0.0734 0.47975,-0.0734 0.66173,0 0.18198,0.0734 0.0331,0.1335 -0.33087,0.1335 -0.36395,0 -0.51284,-0.0601 -0.33086,-0.1335 z m 7.28269,-0.27933 c 0.40235,-0.0608 0.99791,-0.0592 1.32347,0.004 0.32555,0.0628 -0.004,0.11261 -0.73155,0.11062 -0.7279,-0.002 -0.99427,-0.0534 -0.59192,-0.11423 z m 16.80436,0.003 c 0.32756,-0.0631 0.86356,-0.0631 1.19112,0 0.32756,0.0631 0.0596,0.11471 -0.59556,0.11471 -0.65512,0 -0.92312,-0.0516 -0.59556,-0.11471 z m -311.151243,-2.46012 c 0,-0.50954 0.05447,-0.71798 0.121051,-0.46322 0.06658,0.25477 0.06658,0.67166 0,0.92643 -0.06658,0.25477 -0.121051,0.0463 -0.121051,-0.46321 z m 318.120323,0.11028 c 0.0127,-0.30835 0.0754,-0.37107 0.15992,-0.15991 0.0765,0.19107 0.0671,0.41937 -0.0209,0.50732 -0.088,0.088 -0.15052,-0.0684 -0.13903,-0.34741 z M 5.5238893,-117.47436 c 0,-0.94627 0.04804,-1.33339 0.1067563,-0.86025 0.058716,0.47314 0.058716,1.24737 0,1.72051 -0.058716,0.47313 -0.1067563,0.086 -0.1067563,-0.86026 z m 253.7766507,1.16906 c 0.0127,-0.30835 0.0754,-0.37107 0.15991,-0.15991 0.0765,0.19107 0.0671,0.41937 -0.0209,0.50732 -0.088,0.088 -0.15052,-0.0684 -0.13902,-0.34741 z m 94.85484,-8.91132 -0.77742,-0.86025 0.86025,0.77742 c 0.80187,0.72467 0.98192,0.94308 0.77743,0.94308 -0.0456,0 -0.43267,-0.38711 -0.86026,-0.86025 z m -52.57451,-3.29096 c 0.19107,-0.0765 0.41937,-0.0671 0.50733,0.0209 0.088,0.088 -0.0684,0.15051 -0.34741,0.13902 -0.30835,-0.0127 -0.37107,-0.0754 -0.15992,-0.15992 z m 3.44101,-0.26469 c 0.19107,-0.0765 0.41937,-0.0671 0.50732,0.0209 0.088,0.088 -0.0684,0.15052 -0.3474,0.13903 -0.30836,-0.0127 -0.37108,-0.0754 -0.15992,-0.15992 z m 3.441,-0.26469 c 0.19108,-0.0765 0.41938,-0.0671 0.50733,0.0209 0.088,0.088 -0.0684,0.15052 -0.34741,0.13902 -0.30835,-0.0127 -0.37107,-0.0754 -0.15992,-0.15991 z m -23.55766,-0.2647 c 0.19107,-0.0765 0.41937,-0.0671 0.50733,0.0209 0.0879,0.0879 -0.0684,0.15051 -0.34741,0.13902 -0.30836,-0.0127 -0.37108,-0.0754 -0.15992,-0.15992 z m 27.51151,0.006 c 0.18198,-0.0734 0.47976,-0.0734 0.66174,0 0.18197,0.0734 0.0331,0.1335 -0.33087,0.1335 -0.36395,0 -0.51284,-0.0601 -0.33087,-0.1335 z m -30.42313,-0.27021 c 0.19107,-0.0765 0.41937,-0.0671 0.50732,0.0209 0.088,0.0879 -0.0684,0.15051 -0.34741,0.13902 -0.30835,-0.0127 -0.37107,-0.0754 -0.15991,-0.15992 z m 34.65822,0.006 c 0.18198,-0.0734 0.47976,-0.0734 0.66173,0 0.18198,0.0734 0.0331,0.13351 -0.33086,0.13351 -0.36396,0 -0.51285,-0.0601 -0.33087,-0.13351 z m 4.76447,-0.26469 c 0.18198,-0.0734 0.47976,-0.0734 0.66173,0 0.18198,0.0734 0.0331,0.13351 -0.33086,0.13351 -0.36395,0 -0.51284,-0.0601 -0.33087,-0.13351 z m 5.16655,-0.27282 c 0.25754,-0.0671 0.61487,-0.0627 0.79408,0.01 0.17921,0.0725 -0.0315,0.12741 -0.46825,0.12202 -0.43674,-0.005 -0.58337,-0.0647 -0.32583,-0.13183 z m 13.64319,0.003 c 0.19107,-0.0765 0.41937,-0.067 0.50733,0.0209 0.0879,0.088 -0.0684,0.15052 -0.34741,0.13902 -0.30835,-0.0127 -0.37107,-0.0754 -0.15992,-0.15992 z m -358.394158,-1.05877 c 0.191075,-0.0765 0.419373,-0.0671 0.507328,0.0209 0.08795,0.088 -0.06838,0.15051 -0.34741,0.13902 -0.308352,-0.0127 -0.371072,-0.0754 -0.159918,-0.15992 z m 11.6464865,0 c 0.1910752,-0.0765 0.4193728,-0.0671 0.507328,0.0209 0.087955,0.088 -0.068379,0.15051 -0.3474094,0.13902 -0.3083521,-0.0127 -0.3710727,-0.0754 -0.1599186,-0.15992 z m -6.8985585,-0.27768 c 0.61872,-0.0557 1.63117,-0.0557 2.24989,0 0.618719,0.0557 0.112494,0.10132 -1.124945,0.10132 -1.237439,0 -1.743664,-0.0456 -1.124945,-0.10132 z m -41.490608,-4.65349 c 0,-0.0456 0.387113,-0.43267 0.860251,-0.86025 l 0.860252,-0.77743 -0.777427,0.86025 c -0.724671,0.80188 -0.943076,0.98192 -0.943076,0.77743 z m 85.615692,-1.30681 -1.046318,-1.12495 1.124945,1.04632 c 1.046188,0.97306 1.246578,1.20357 1.046317,1.20357 -0.04324,0 -0.54947,-0.50622 -1.124944,-1.12494 z m -83.365803,-0.9926 c 0.263498,-0.29116 0.538644,-0.52939 0.611434,-0.52939 0.07279,0 -0.08324,0.23823 -0.346741,0.52939 -0.263498,0.29116 -0.538643,0.52938 -0.611434,0.52938 -0.07279,0 0.08324,-0.23822 0.346741,-0.52938 z m 287.853509,-0.0999 c 0,-0.055 0.20844,-0.26341 0.46321,-0.46321 0.41982,-0.32925 0.42918,-0.31988 0.0999,0.0999 -0.34579,0.44092 -0.56315,0.58113 -0.56315,0.36328 z m 2.11754,-2.11754 c 0,-0.055 0.20845,-0.26341 0.46321,-0.46321 0.41982,-0.32925 0.42918,-0.31989 0.0999,0.0999 -0.34579,0.44091 -0.56315,0.58113 -0.56315,0.36328 z m 187.93194,-2.89451 c 0,-0.0456 0.38712,-0.43267 0.86026,-0.86025 l 0.86025,-0.77743 -0.77743,0.86025 c -0.72467,0.80188 -0.94308,0.98192 -0.94308,0.77743 z m -447.380591,-6.45062 c 0.191075,-0.0765 0.419372,-0.0671 0.507328,0.0209 0.08796,0.0879 -0.06838,0.15051 -0.34741,0.13902 -0.308352,-0.0127 -0.371072,-0.0754 -0.159918,-0.15992 z m 24.3517445,0 c 0.1910752,-0.0765 0.4193728,-0.0671 0.507328,0.0209 0.087955,0.0879 -0.068379,0.15051 -0.3474094,0.13902 -0.3083521,-0.0127 -0.3710727,-0.0754 -0.1599186,-0.15992 z m 260.9871765,0 c 0.19108,-0.0765 0.41937,-0.0671 0.50733,0.0209 0.088,0.0879 -0.0684,0.15051 -0.34741,0.13902 -0.30835,-0.0127 -0.37107,-0.0754 -0.15992,-0.15992 z m -282.162607,-0.26469 c 0.191075,-0.0765 0.419373,-0.0671 0.507328,0.0209 0.08795,0.088 -0.06838,0.15052 -0.347409,0.13902 -0.308352,-0.0127 -0.371073,-0.0754 -0.159919,-0.15991 z m 18.26380885,0 c 0.19107517,-0.0765 0.41937278,-0.0671 0.50732802,0.0209 0.0879552,0.088 -0.068379,0.15052 -0.3474094,0.13902 -0.30835212,-0.0127 -0.37107278,-0.0754 -0.15991862,-0.15991 z m 268.24968815,-0.002 c 0.25477,-0.0666 0.67166,-0.0666 0.92643,0 0.25476,0.0666 0.0463,0.12105 -0.46322,0.12105 -0.50953,0 -0.71798,-0.0545 -0.46321,-0.12105 z m 8.21052,-9.7e-4 c 0.25754,-0.0671 0.61487,-0.0627 0.79408,0.01 0.1792,0.0725 -0.0315,0.12741 -0.46825,0.12202 -0.43675,-0.005 -0.58337,-0.0647 -0.32583,-0.13183 z m 45.91917,0.008 c 0.18198,-0.0734 0.47976,-0.0734 0.66174,0 0.18197,0.0734 0.0331,0.13351 -0.33087,0.13351 -0.36395,0 -0.51284,-0.0601 -0.33087,-0.13351 z m 30.98561,-0.006 c 0.19108,-0.0765 0.41938,-0.0671 0.50733,0.0209 0.088,0.088 -0.0684,0.15052 -0.34741,0.13902 -0.30835,-0.0127 -0.37107,-0.0754 -0.15992,-0.15991 z m -366.748522,-0.26634 c 0.254767,-0.0666 0.671658,-0.0666 0.926425,0 0.254767,0.0666 0.04632,0.12105 -0.463212,0.12105 -0.509534,0 -0.71798,-0.0545 -0.463213,-0.12105 z m 7.9407865,0 c 0.2547669,-0.0666 0.6716582,-0.0666 0.9264251,0 0.2547669,0.0666 0.046321,0.12105 -0.4632125,0.12105 -0.5095338,0 -0.7179795,-0.0545 -0.4632126,-0.12105 z m 333.5180655,-9.7e-4 c 0.25754,-0.0671 0.61487,-0.0627 0.79408,0.01 0.1792,0.0725 -0.0315,0.12741 -0.46825,0.12202 -0.43675,-0.005 -0.58337,-0.0647 -0.32583,-0.13183 z m 21.30274,0.008 c 0.18197,-0.0734 0.47975,-0.0734 0.66173,0 0.18198,0.0734 0.0331,0.1335 -0.33087,0.1335 -0.36395,0 -0.51284,-0.0601 -0.33086,-0.1335 z m -192.87404,-2.62604 c 0.0127,-0.30835 0.0754,-0.37107 0.15992,-0.15991 0.0765,0.19107 0.0671,0.41937 -0.0209,0.50732 -0.088,0.088 -0.15051,-0.0684 -0.13902,-0.34741 z"
       id="path141" /><path
       style="fill:#f794ab"
       d="m 329.37362,-37.453231 c 0.19108,-0.07646 0.41937,-0.06706 0.50733,0.0209 0.088,0.08795 -0.0684,0.150515 -0.34741,0.139022 -0.30835,-0.0127 -0.37107,-0.07542 -0.15992,-0.159919 z m 42.08617,0 c 0.19107,-0.07646 0.41937,-0.06706 0.50733,0.0209 0.0879,0.08795 -0.0684,0.150515 -0.34741,0.139022 -0.30835,-0.0127 -0.37107,-0.07542 -0.15992,-0.159919 z m -174.57646,-0.267307 c 0.25754,-0.06711 0.61487,-0.0627 0.79408,0.0098 0.1792,0.07251 -0.0315,0.127415 -0.46825,0.12202 -0.43674,-0.0054 -0.58337,-0.06472 -0.32583,-0.131828 z m 8.87872,0.0026 c 0.19107,-0.07646 0.41937,-0.06706 0.50733,0.0209 0.0879,0.08796 -0.0684,0.150515 -0.34741,0.139022 -0.30836,-0.0127 -0.37108,-0.07542 -0.15992,-0.159918 z m 170.46221,0 c 0.19108,-0.07646 0.41937,-0.06706 0.50733,0.0209 0.088,0.08796 -0.0684,0.150515 -0.34741,0.139022 -0.30835,-0.0127 -0.37107,-0.07542 -0.15992,-0.159918 z m 4.49978,-0.264693 c 0.19108,-0.07646 0.41937,-0.06706 0.50733,0.0209 0.0879,0.08796 -0.0684,0.150516 -0.34741,0.139022 -0.30835,-0.0127 -0.37107,-0.07542 -0.15992,-0.159918 z m 4.23509,-0.264693 c 0.19107,-0.07646 0.41937,-0.06706 0.50732,0.0209 0.088,0.08796 -0.0684,0.150515 -0.34741,0.139021 -0.30835,-0.0127 -0.37107,-0.07542 -0.15991,-0.159918 z m 3.97039,-0.264693 c 0.19107,-0.07646 0.41937,-0.06706 0.50733,0.0209 0.088,0.08796 -0.0684,0.150515 -0.34741,0.139022 -0.30835,-0.0127 -0.37107,-0.07542 -0.15992,-0.159919 z m -279.49981,-4.25279 c -0.32925,-0.419818 -0.31989,-0.42918 0.0999,-0.09994 0.25477,0.199802 0.46322,0.408247 0.46322,0.463212 0,0.217851 -0.21737,0.07764 -0.56315,-0.363276 z m 109.99814,-8.933385 c 1.2e-4,-4.221851 0.0367,-5.911908 0.0812,-3.755681 0.0445,2.156227 0.0444,5.610469 -2.3e-4,7.676094 -0.0447,2.065624 -0.0811,0.301439 -0.081,-3.920413 z M 2.9848551,-55.991954 c 0.4698914,-0.05847 1.303674,-0.05943 1.8528501,-0.0021 0.5491762,0.0573 0.1647195,0.105142 -0.8543481,0.106316 -1.0190675,0.0012 -1.4683935,-0.04571 -0.998502,-0.104181 z m 10.4663099,0.0076 c 0.257538,-0.06711 0.614873,-0.0627 0.794079,0.0098 0.179205,0.0725 -0.03151,0.127415 -0.46825,0.12202 -0.436744,-0.0054 -0.583366,-0.06472 -0.325829,-0.131828 z m -20.3863891,-0.263723 c 0.2547669,-0.06658 0.6716582,-0.06658 0.9264251,0 0.2547669,0.06658 0.046321,0.12105 -0.4632126,0.12105 -0.5095338,0 -0.7179794,-0.05447 -0.4632125,-0.12105 z m -5.6908969,-0.257534 c 0.181976,-0.07343 0.479756,-0.07343 0.661732,0 0.181977,0.07343 0.03309,0.133507 -0.330866,0.133507 -0.363953,0 -0.512842,-0.06008 -0.330866,-0.133507 z m 346.218281,-1.058772 c 0.18198,-0.07343 0.47976,-0.07343 0.66174,0 0.18197,0.07343 0.0331,0.133508 -0.33087,0.133508 -0.36395,0 -0.51284,-0.06008 -0.33087,-0.133508 z m 13.25119,-0.0055 c 0.19108,-0.07646 0.41937,-0.06706 0.50733,0.0209 0.0879,0.08796 -0.0684,0.150515 -0.34741,0.139022 -0.30835,-0.0127 -0.37107,-0.07542 -0.15992,-0.159919 z m -16.67565,-0.264693 c 0.19108,-0.07646 0.41937,-0.06706 0.50733,0.0209 0.088,0.08796 -0.0684,0.150515 -0.34741,0.139022 -0.30835,-0.0127 -0.37107,-0.07542 -0.15992,-0.159919 z M -29.479395,-72.366279 c 0.0127,-0.308352 0.07542,-0.371072 0.159918,-0.159918 0.07646,0.191075 0.06706,0.419373 -0.0209,0.507328 -0.08796,0.08795 -0.150515,-0.06838 -0.139022,-0.34741 z m 315.565105,-0.904367 c 0,-0.655115 0.0516,-0.923116 0.11471,-0.595559 0.0631,0.327558 0.0631,0.863561 0,1.191118 -0.0631,0.327557 -0.11471,0.05956 -0.11471,-0.595559 z m -130.0154,-3.066026 c 0.0127,-0.308352 0.0754,-0.371072 0.15992,-0.159918 0.0765,0.191075 0.0671,0.419372 -0.0209,0.507328 -0.088,0.08795 -0.15051,-0.06838 -0.13902,-0.34741 z m 130.00472,-0.639674 c 0,-0.509534 0.0545,-0.71798 0.12105,-0.463213 0.0666,0.254767 0.0666,0.671658 0,0.926425 -0.0666,0.254767 -0.12105,0.04632 -0.12105,-0.463212 z m -315.753159,-2.514582 c 0.0012,-1.019068 0.04902,-1.403525 0.106316,-0.854349 0.0573,0.549177 0.05634,1.382959 -0.0021,1.852851 -0.05847,0.469891 -0.105355,0.02056 -0.104181,-0.998502 z M 155.91323,-117.73905 c 0,-19.28949 0.0315,-27.18065 0.07,-17.5359 0.0385,9.64475 0.0385,25.42706 0,35.0718 -0.0385,9.644751 -0.07,1.753594 -0.07,-17.5359 z M 20.212339,-83.774483 c 0.191075,-0.07646 0.419373,-0.06706 0.507328,0.0209 0.08796,0.08796 -0.06838,0.150515 -0.347409,0.139022 -0.308352,-0.0127 -0.371073,-0.07542 -0.159919,-0.159918 z m -84.895887,-4.473368 c 0.0127,-0.308352 0.07542,-0.371073 0.159919,-0.159919 0.07646,0.191076 0.06706,0.419373 -0.0209,0.507328 -0.08796,0.08796 -0.150515,-0.06838 -0.139022,-0.347409 z m 97.386082,-0.772021 c 0.341916,-0.363953 0.681222,-0.661732 0.754012,-0.661732 0.07279,0 -0.147403,0.297779 -0.489319,0.661732 -0.341915,0.363953 -0.681221,0.661732 -0.754011,0.661732 -0.07279,0 0.147403,-0.297779 0.489318,-0.661732 z M 356.3723,-93.832813 c 0.19107,-0.07646 0.41937,-0.06706 0.50732,0.0209 0.088,0.08795 -0.0684,0.150515 -0.34741,0.139022 -0.30835,-0.0127 -0.37107,-0.07542 -0.15991,-0.159919 z m -19.73113,-0.267307 c 0.25754,-0.06711 0.61487,-0.0627 0.79408,0.0098 0.1792,0.07251 -0.0315,0.127415 -0.46825,0.12202 -0.43674,-0.0054 -0.58337,-0.06472 -0.32583,-0.131828 z m 13.49934,0 c 0.25753,-0.06711 0.61487,-0.0627 0.79408,0.0098 0.1792,0.07251 -0.0315,0.127415 -0.46825,0.12202 -0.43675,-0.0054 -0.58337,-0.06472 -0.32583,-0.131828 z m -414.803161,-6.69858 c 0,-0.36396 0.06008,-0.51285 0.133507,-0.33087 0.07343,0.18198 0.07343,0.47975 0,0.66173 -0.07343,0.18198 -0.133507,0.0331 -0.133507,-0.33086 z m 456.065831,-5.82325 c 0,-0.36395 0.0601,-0.51284 0.13351,-0.33086 0.0734,0.18197 0.0734,0.47975 0,0.66173 -0.0734,0.18197 -0.13351,0.0331 -0.13351,-0.33087 z m -165.18925,-3.06602 c 0.0127,-0.30836 0.0754,-0.37108 0.15991,-0.15992 0.0765,0.19107 0.0671,0.41937 -0.0209,0.50733 -0.088,0.0879 -0.15052,-0.0684 -0.13902,-0.34741 z m 164.90366,-1.32347 c 0.0127,-0.30835 0.0754,-0.37107 0.15992,-0.15992 0.0765,0.19108 0.0671,0.41938 -0.0209,0.50733 -0.088,0.088 -0.15051,-0.0684 -0.13902,-0.34741 z m -350.659643,-1.43375 c 0,-0.8007 0.04962,-1.12825 0.110268,-0.72791 0.06065,0.40035 0.06065,1.05547 0,1.45581 -0.06065,0.40035 -0.110268,0.0728 -0.110268,-0.7279 z m 288.121593,0.61326 c 0.19108,-0.0765 0.41938,-0.0671 0.50733,0.0209 0.088,0.088 -0.0684,0.15051 -0.34741,0.13902 -0.30835,-0.0127 -0.37107,-0.0754 -0.15992,-0.15992 z m 8.58598,-0.27346 c 0.40035,-0.0606 1.05546,-0.0606 1.45581,0 0.40035,0.0606 0.0728,0.11027 -0.72791,0.11027 -0.80069,0 -1.12825,-0.0496 -0.7279,-0.11027 z m 10.99175,-0.005 c 0.62257,-0.0559 1.57546,-0.0551 2.11754,0.002 0.54208,0.0569 0.0327,0.10263 -1.13194,0.10167 -1.16465,-9.7e-4 -1.60817,-0.0475 -0.9856,-0.10342 z M 5.5059191,-114.95977 c 0.00294,-0.58233 0.057143,-0.78938 0.1204558,-0.46013 0.063313,0.32925 0.060909,0.8057 -0.00534,1.05877 -0.066251,0.25307 -0.118052,-0.0163 -0.1151141,-0.59864 z m -0.045854,-4.52184 c 0.012701,-0.30835 0.075422,-0.37107 0.1599186,-0.15992 0.076462,0.19108 0.067058,0.41937 -0.020897,0.50733 -0.087955,0.088 -0.1505151,-0.0684 -0.1390216,-0.34741 z M 276.14791,-129.84127 c 0.46989,-0.0585 1.30367,-0.0594 1.85285,-0.002 0.54917,0.0573 0.16472,0.10514 -0.85435,0.10632 -1.01907,0.001 -1.4684,-0.0457 -0.9985,-0.10419 z m 44.49085,0.0102 c 0.19107,-0.0765 0.41937,-0.0671 0.50732,0.0209 0.088,0.088 -0.0684,0.15052 -0.3474,0.13903 -0.30836,-0.0127 -0.37108,-0.0754 -0.15992,-0.15992 z m 5.02916,-0.2647 c 0.19108,-0.0765 0.41937,-0.067 0.50733,0.0209 0.0879,0.088 -0.0684,0.15052 -0.34741,0.13902 -0.30835,-0.0127 -0.37107,-0.0754 -0.15992,-0.15992 z m -340.94097,-1.31795 c 0.181977,-0.0734 0.479756,-0.0734 0.661732,0 0.181977,0.0734 0.03309,0.13351 -0.330866,0.13351 -0.363952,0 -0.512842,-0.0601 -0.330866,-0.13351 z m 5.2938578,0 c 0.1819763,-0.0734 0.4797558,-0.0734 0.6617322,0 0.1819763,0.0734 0.033087,0.13351 -0.3308661,0.13351 -0.3639529,0 -0.5128429,-0.0601 -0.3308661,-0.13351 z m 431.2717722,-2.36134 c 0.0127,-0.30835 0.0754,-0.37107 0.15992,-0.15991 0.0765,0.19107 0.067,0.41937 -0.0209,0.50732 -0.088,0.088 -0.15052,-0.0684 -0.13902,-0.34741 z m -184.77653,-6.06587 c 0.34192,-0.36396 0.68122,-0.66174 0.75401,-0.66174 0.0728,0 -0.1474,0.29778 -0.48932,0.66174 -0.34191,0.36395 -0.68122,0.66173 -0.75401,0.66173 -0.0728,0 0.14741,-0.29778 0.48932,-0.66173 z m -124.538,-4.63213 c 0.2635,-0.29116 0.53865,-0.52938 0.61144,-0.52938 0.0728,0 -0.0832,0.23822 -0.34675,0.52938 -0.26349,0.29116 -0.53864,0.52939 -0.61143,0.52939 -0.0728,0 0.0832,-0.23823 0.34674,-0.52939 z m -32.44491,-0.46321 -0.641698,-0.72791 0.727905,0.6417 c 0.400348,0.35294 0.727906,0.68049 0.727906,0.72791 0,0.20759 -0.214348,0.0386 -0.814113,-0.6417 z m -97.701268,-5.27615 c 0.191075,-0.0765 0.419373,-0.0671 0.507328,0.0209 0.08795,0.088 -0.06838,0.15052 -0.34741,0.13902 -0.308352,-0.0127 -0.371072,-0.0754 -0.159918,-0.15991 z m 16.6756512,0 c 0.1910752,-0.0765 0.4193728,-0.0671 0.50732803,0.0209 0.0879552,0.088 -0.068379,0.15052 -0.34740943,0.13902 -0.3083521,-0.0127 -0.3710727,-0.0754 -0.1599186,-0.15991 z m 271.0337068,-0.011 c 0.47574,-0.0589 1.19041,-0.0577 1.58816,0.003 0.39774,0.0604 0.008,0.1086 -0.865,0.10711 -0.87348,-10e-4 -1.19891,-0.0509 -0.72316,-0.10981 z m 4.23034,0.005 c 0.32756,-0.0631 0.86356,-0.0631 1.19112,0 0.32756,0.0631 0.0596,0.11471 -0.59556,0.11471 -0.65511,0 -0.92311,-0.0516 -0.59556,-0.11471 z m -285.074227,-0.27387 c 0.909882,-0.0517 2.3987796,-0.0517 3.3086614,0 0.9098818,0.0517 0.165433,0.094 -1.6543305,0.094 -1.8197639,0 -2.5642119,-0.0423 -1.6543309,-0.094 z m 339.998007,0.0135 c 0.25476,-0.0666 0.67165,-0.0666 0.92642,0 0.25477,0.0666 0.0463,0.12105 -0.46321,0.12105 -0.50954,0 -0.71798,-0.0545 -0.46321,-0.12105 z m 19.20677,0.002 c 0.19108,-0.0765 0.41938,-0.0671 0.50733,0.0209 0.088,0.088 -0.0684,0.15051 -0.34741,0.13902 -0.30835,-0.0127 -0.37107,-0.0754 -0.15992,-0.15992 z"
       id="path140" /><path
       style="fill:#61acd8"
       d="m 421.39292,-49.71298 c 0,-6.187196 0.0346,-8.718322 0.077,-5.624724 0.0423,3.093598 0.0423,8.155849 0,11.249447 -0.0423,3.093598 -0.077,0.562473 -0.077,-5.624723 z m 3.84915,5.475725 c 0,-0.04555 0.38712,-0.432667 0.86026,-0.860251 l 0.86025,-0.777428 -0.77743,0.860252 c -0.72467,0.801876 -0.94308,0.981919 -0.94308,0.777427 z m 2.91163,-2.66404 c 0,-0.05497 0.20844,-0.26341 0.46321,-0.463212 0.41982,-0.329244 0.42918,-0.319882 0.0999,0.09994 -0.34578,0.440911 -0.56314,0.581127 -0.56314,0.363276 z m -2.91163,-21.440123 c 0,-0.05496 0.20845,-0.26341 0.46322,-0.463212 0.41981,-0.329244 0.42918,-0.319881 0.0999,0.09994 -0.34578,0.440912 -0.56315,0.581128 -0.56315,0.363276 z m 3.30866,-3.341071 c 0.2635,-0.291162 0.53865,-0.529385 0.61144,-0.529385 0.0728,0 -0.0832,0.238223 -0.34674,0.529385 -0.2635,0.291162 -0.53865,0.529386 -0.61144,0.529386 -0.0728,0 0.0833,-0.238224 0.34674,-0.529386 z m 1.45582,-1.158707 c 0,-0.05497 0.20844,-0.263411 0.46321,-0.463213 0.41982,-0.329244 0.42918,-0.319881 0.0999,0.09994 -0.34578,0.440912 -0.56314,0.581128 -0.56314,0.363277 z m 156.96287,-49.762264 c 0,-0.055 0.20845,-0.26341 0.46322,-0.46321 0.41981,-0.32924 0.42917,-0.31988 0.0999,0.0999 -0.34579,0.44091 -0.56315,0.58112 -0.56315,0.36327 z m 3.30866,-2.81168 c 0.2635,-0.29116 0.53865,-0.52939 0.61144,-0.52939 0.0728,0 -0.0832,0.23823 -0.34674,0.52939 -0.2635,0.29116 -0.53865,0.52938 -0.61144,0.52938 -0.0728,0 0.0833,-0.23822 0.34674,-0.52938 z m 1.85285,-1.58816 c 0.2635,-0.29116 0.53865,-0.52938 0.61144,-0.52938 0.0728,0 -0.0833,0.23822 -0.34674,0.52938 -0.2635,0.29116 -0.53865,0.52939 -0.61144,0.52939 -0.0728,0 0.0833,-0.23823 0.34674,-0.52939 z m 2.38224,-2.11754 c 0.2635,-0.29116 0.53864,-0.52939 0.61143,-0.52939 0.0728,0 -0.0832,0.23823 -0.34674,0.52939 -0.2635,0.29116 -0.53864,0.52938 -0.61143,0.52938 -0.0728,0 0.0832,-0.23822 0.34674,-0.52938 z m 5.95191,-5.62473 c 3.316,-3.38088 3.70938,-3.75945 3.70938,-3.56967 0,0.0384 -1.63779,1.6762 -3.63953,3.63952 l -3.63952,3.56968 z m 5.56223,-5.88941 c 0.34192,-0.36395 0.68122,-0.66173 0.75401,-0.66173 0.0728,0 -0.1474,0.29778 -0.48932,0.66173 -0.34191,0.36395 -0.68122,0.66173 -0.75401,0.66173 -0.0728,0 0.1474,-0.29778 0.48932,-0.66173 z m -33.08661,-0.76167 c 0,-0.055 0.20845,-0.26341 0.46321,-0.46321 0.41982,-0.32925 0.42918,-0.31988 0.0999,0.0999 -0.34579,0.44091 -0.56315,0.58113 -0.56315,0.36328 z m 35.07181,-1.48822 c 0.26349,-0.29116 0.53864,-0.52939 0.61143,-0.52939 0.0728,0 -0.0832,0.23823 -0.34674,0.52939 -0.2635,0.29116 -0.53864,0.52938 -0.61143,0.52938 -0.0728,0 0.0832,-0.23822 0.34674,-0.52938 z m -33.21896,-0.0999 c 0,-0.055 0.20845,-0.26341 0.46321,-0.46321 0.41982,-0.32924 0.42918,-0.31988 0.0999,0.0999 -0.34579,0.44091 -0.56315,0.58112 -0.56315,0.36327 z m 34.41007,-1.32346 c 0,-0.055 0.20845,-0.26341 0.46322,-0.46321 0.41981,-0.32925 0.42918,-0.31989 0.0999,0.0999 -0.34578,0.44091 -0.56315,0.58113 -0.56315,0.36328 z m -32.29253,-0.51228 c 0,-0.0455 0.38712,-0.43266 0.86025,-0.86025 l 0.86026,-0.77743 -0.77743,0.86026 c -0.72467,0.80187 -0.94308,0.98191 -0.94308,0.77742 z m 33.616,-1.07588 c 0,-0.055 0.20844,-0.26341 0.46321,-0.46321 0.41982,-0.32925 0.42918,-0.31988 0.0999,0.0999 -0.34579,0.44092 -0.56315,0.58113 -0.56315,0.36328 z"
       id="path139" /><path
       style="fill:#f36889"
       d="m 370.66571,-37.453231 c 0.19108,-0.07646 0.41937,-0.06706 0.50733,0.0209 0.0879,0.08795 -0.0684,0.150515 -0.34741,0.139022 -0.30835,-0.0127 -0.37107,-0.07542 -0.15992,-0.159919 z m -172.5963,-0.259178 c 0.18198,-0.07343 0.47976,-0.07343 0.66173,0 0.18198,0.07343 0.0331,0.133507 -0.33086,0.133507 -0.36396,0 -0.51285,-0.06008 -0.33087,-0.133507 z m 6.89856,-0.0055 c 0.19107,-0.07646 0.41937,-0.06706 0.50733,0.0209 0.088,0.08796 -0.0684,0.150515 -0.34741,0.139022 -0.30835,-0.0127 -0.37108,-0.07542 -0.15992,-0.159918 z m 170.46221,0 c 0.19108,-0.07646 0.41938,-0.06706 0.50733,0.0209 0.088,0.08796 -0.0684,0.150515 -0.34741,0.139022 -0.30835,-0.0127 -0.37107,-0.07542 -0.15992,-0.159918 z m 4.49978,-0.264693 c 0.19108,-0.07646 0.41937,-0.06706 0.50733,0.0209 0.0879,0.08796 -0.0684,0.150516 -0.34741,0.139022 -0.30835,-0.0127 -0.37107,-0.07542 -0.15992,-0.159918 z m -253.45997,-0.811663 c 4.91336,-0.04033 12.9534,-0.04033 17.86677,0 4.91336,0.04033 0.89333,0.07334 -8.93339,0.07334 -9.82672,0 -13.84674,-0.033 -8.93338,-0.07334 z m 110.52727,9.6e-5 c 3.24907,-0.04214 8.48999,-0.04209 11.64648,1.1e-4 3.1565,0.0422 0.49816,0.07667 -5.90741,0.07661 -6.40556,-6e-5 -8.98815,-0.03459 -5.73907,-0.07672 z M 71.215348,-56.330302 c 0.71696,-0.727905 1.36312,-1.323464 1.435911,-1.323464 0.07279,0 -0.454258,0.595559 -1.171218,1.323464 -0.71696,0.727905 -1.363119,1.323464 -1.43591,1.323464 -0.07279,0 0.454257,-0.595559 1.171217,-1.323464 z m -70.33904608,0.342179 c 0.32925478,-0.06331 0.80570198,-0.06091 1.05877148,0.0053 0.2530696,0.06625 -0.016321,0.118052 -0.598645,0.115115 -0.58232438,-0.0029 -0.78938127,-0.05714 -0.46012648,-0.120456 z m 13.77748708,0.0064 c 0.191075,-0.07646 0.419373,-0.06706 0.507328,0.0209 0.08795,0.08796 -0.06838,0.150515 -0.34741,0.139022 -0.308352,-0.0127 -0.371072,-0.07542 -0.159918,-0.159919 z M -8.1263421,-56.24091 c 0.1819764,-0.07343 0.4797559,-0.07343 0.6617322,0 0.1819764,0.07343 0.033087,0.133507 -0.3308661,0.133507 -0.3639527,0 -0.5128424,-0.06008 -0.3308661,-0.133507 z M 347.63743,-57.569889 c 0.19108,-0.07646 0.41937,-0.06706 0.50733,0.0209 0.0879,0.08796 -0.0684,0.150515 -0.34741,0.139022 -0.30835,-0.0127 -0.37107,-0.07542 -0.15992,-0.159919 z M 205.61316,-58.11128 c 0.54593,-0.05711 1.43927,-0.05711 1.98519,0 0.54593,0.05711 0.0993,0.103829 -0.99259,0.103829 -1.09186,0 -1.53853,-0.04672 -0.9926,-0.103829 z m 215.65852,-44.27558 c 0,-17.08152 0.0586,-30.99871 0.13021,-30.92709 0.1745,0.1745 0.18093,61.673241 0.006,61.847704 -0.0752,0.07518 -0.13668,-13.839103 -0.13668,-30.920614 z m -232.27287,0.79408 c 0,-15.06765 0.0319,-21.23168 0.071,-13.69786 0.039,7.53382 0.039,19.861892 0,27.395713 -0.039,7.533821 -0.071,1.369785 -0.071,-13.697853 z m 97.08156,26.336938 c 0.003,-0.582325 0.0571,-0.789382 0.12046,-0.460127 0.0633,0.329255 0.0609,0.805702 -0.005,1.058772 -0.0662,0.253069 -0.11805,-0.01632 -0.11511,-0.598645 z M -29.698234,-76.844 c 0.0029,-0.582324 0.05714,-0.789381 0.120456,-0.460126 0.06331,0.329255 0.06091,0.805702 -0.0053,1.058771 -0.06625,0.25307 -0.118052,-0.01632 -0.115114,-0.598645 z m 185.768544,-0.28675 c 0.0127,-0.308352 0.0754,-0.371073 0.15992,-0.159919 0.0765,0.191075 0.0671,0.419373 -0.0209,0.507328 -0.088,0.08795 -0.15051,-0.06838 -0.13902,-0.347409 z m -173.176162,-6.661388 c 6.889733,-0.03929 18.08624201,-0.03928 24.881131,2.7e-5 6.794889,0.0393 1.157835,0.07145 -12.5267869,0.07143 -13.6846221,-1.4e-5 -19.2440761,-0.03217 -12.3543441,-0.07146 z m -47.556799,-5.36008 c 0,-0.363953 0.06008,-0.512843 0.133507,-0.330866 0.07343,0.181976 0.07343,0.479755 0,0.661732 -0.07343,0.181976 -0.133507,0.03309 -0.133507,-0.330866 z m 400.107661,-4.939773 c 0.18198,-0.07343 0.47976,-0.07343 0.66174,0 0.18197,0.07343 0.0331,0.133507 -0.33087,0.133507 -0.36395,0 -0.51284,-0.06008 -0.33087,-0.133507 z m 15.88158,0 c 0.18197,-0.07343 0.47975,-0.07343 0.66173,0 0.18198,0.07343 0.0331,0.133507 -0.33087,0.133507 -0.36395,0 -0.51284,-0.06008 -0.33086,-0.133507 z m -415.979433,-5.515596 c 0.0054,-0.436743 0.06472,-0.583363 0.131828,-0.325828 0.06711,0.257537 0.0627,0.614873 -0.0098,0.794078 -0.07251,0.179206 -0.127415,-0.03151 -0.12202,-0.46825 z m 456.056023,-5.955593 c 0,-0.36395 0.0601,-0.51284 0.13351,-0.33086 0.0734,0.18197 0.0734,0.47975 0,0.66173 -0.0734,0.18198 -0.13351,0.0331 -0.13351,-0.33087 z m -165.16836,-3.17631 c 0,-0.36395 0.0601,-0.51284 0.13351,-0.33087 0.0734,0.18198 0.0734,0.47976 0,0.66174 -0.0734,0.18197 -0.13351,0.0331 -0.13351,-0.33087 z m 98.37433,-2.82775 c 0.19107,-0.0765 0.41937,-0.067 0.50733,0.0209 0.0879,0.088 -0.0684,0.15052 -0.34741,0.13902 -0.30835,-0.0127 -0.37107,-0.0754 -0.15992,-0.15992 z m 4.74793,-0.25917 c 0.18197,-0.0734 0.47975,-0.0734 0.66173,0 0.18198,0.0734 0.0331,0.1335 -0.33087,0.1335 -0.36395,0 -0.51284,-0.0601 -0.33086,-0.1335 z m 28.05744,0 c 0.18198,-0.0734 0.47976,-0.0734 0.66174,0 0.18197,0.0734 0.0331,0.1335 -0.33087,0.1335 -0.36395,0 -0.51284,-0.0601 -0.33087,-0.1335 z m -16.27861,-0.28614 c 1.12825,-0.0496 2.97449,-0.0496 4.10274,0 1.12825,0.0496 0.20514,0.0902 -2.05137,0.0902 -2.25651,0 -3.17962,-0.0406 -2.05137,-0.0902 z M 5.4600648,-113.65837 c 0.012701,-0.30835 0.075422,-0.37107 0.1599186,-0.15992 0.076462,0.19108 0.067058,0.41938 -0.020897,0.50733 -0.087955,0.088 -0.1505151,-0.0684 -0.1390216,-0.34741 z M 315.3449,-129.56635 c 0.19107,-0.0765 0.41937,-0.0671 0.50733,0.0209 0.0879,0.0879 -0.0684,0.15051 -0.34741,0.13902 -0.30835,-0.0127 -0.37108,-0.0754 -0.15992,-0.15992 z m -40.49801,-0.26469 c 0.19107,-0.0765 0.41937,-0.0671 0.50733,0.0209 0.0879,0.088 -0.0684,0.15052 -0.34741,0.13903 -0.30835,-0.0127 -0.37108,-0.0754 -0.15992,-0.15992 z m 4.23508,0 c 0.19108,-0.0765 0.41938,-0.0671 0.50733,0.0209 0.088,0.088 -0.0684,0.15052 -0.34741,0.13903 -0.30835,-0.0127 -0.37107,-0.0754 -0.15992,-0.15992 z m 40.76271,0 c 0.19107,-0.0765 0.41937,-0.0671 0.50733,0.0209 0.0879,0.088 -0.0684,0.15052 -0.34741,0.13903 -0.30836,-0.0127 -0.37108,-0.0754 -0.15992,-0.15992 z m 5.02916,-0.2647 c 0.19108,-0.0765 0.41938,-0.067 0.50733,0.0209 0.088,0.088 -0.0684,0.15052 -0.34741,0.13902 -0.30835,-0.0127 -0.37107,-0.0754 -0.15992,-0.15992 z m 8.05659,-0.27948 c 0.83709,-0.0525 2.20688,-0.0525 3.04397,0 0.83709,0.0525 0.1522,0.0955 -1.52198,0.0955 -1.67419,0 -2.35908,-0.043 -1.52199,-0.0955 z M -8.9038774,-131.4192 c 0.1910752,-0.0765 0.4193728,-0.0671 0.507328,0.0209 0.087955,0.088 -0.068379,0.15051 -0.3474094,0.13902 -0.3083521,-0.0127 -0.3710728,-0.0754 -0.1599186,-0.15992 z m 54.9072294,-17.48731 c 4.76778,-0.0404 12.569603,-0.0404 17.337383,0 4.767781,0.0404 0.866869,0.0735 -8.668692,0.0735 -9.535561,0 -13.436472,-0.0331 -8.668691,-0.0735 z m 81.808838,2e-5 c 4.05018,-0.0411 10.60133,-0.0411 14.55811,7e-5 3.95678,0.0412 0.64299,0.0748 -7.36397,0.0747 -8.00696,-4e-5 -11.24432,-0.0337 -7.19414,-0.0748 z m 61.18062,-0.13249 c -0.0696,-0.18198 -0.0947,-7.00113 -0.0556,-15.15367 l 0.071,-14.8228 0.0639,15.01917 0.0639,15.01917 15.28601,0.0705 15.28601,0.0705 -15.29432,0.064 c -12.03896,0.0504 -15.32127,-0.006 -15.42092,-0.26688 z m 130.05779,-0.90872 c 0.19107,-0.0765 0.41937,-0.0671 0.50733,0.0209 0.0879,0.0879 -0.0684,0.15051 -0.34741,0.13902 -0.30835,-0.0127 -0.37107,-0.0754 -0.15992,-0.15992 z m -46.99953,-0.26634 c 0.25477,-0.0666 0.67166,-0.0666 0.92643,0 0.25476,0.0666 0.0463,0.12105 -0.46322,0.12105 -0.50953,0 -0.71798,-0.0545 -0.46321,-0.12105 z m 51.21807,0.007 c 0.18198,-0.0734 0.47976,-0.0734 0.66173,0 0.18198,0.0734 0.0331,0.13351 -0.33086,0.13351 -0.36395,0 -0.51284,-0.0601 -0.33087,-0.13351 z m 7.01436,-0.27185 c 0.25477,-0.0666 0.67166,-0.0666 0.92643,0 0.25477,0.0666 0.0463,0.12105 -0.46321,0.12105 -0.50954,0 -0.71798,-0.0545 -0.46322,-0.12105 z m 16.82454,0.002 c 0.19108,-0.0765 0.41938,-0.0671 0.50733,0.0209 0.088,0.088 -0.0684,0.15051 -0.34741,0.13902 -0.30835,-0.0127 -0.37107,-0.0754 -0.15992,-0.15992 z"
       id="path138" /><path
       style="fill:#f14c72"
       d="m 369.87163,-37.453231 c 0.19108,-0.07646 0.41937,-0.06706 0.50733,0.0209 0.088,0.08795 -0.0684,0.150515 -0.34741,0.139022 -0.30835,-0.0127 -0.37107,-0.07542 -0.15992,-0.159919 z m -170.34641,-0.273464 c 0.40035,-0.06065 1.05546,-0.06065 1.45581,0 0.40035,0.06065 0.0728,0.110268 -0.7279,0.110268 -0.8007,0 -1.12826,-0.04962 -0.72791,-0.110268 z m 3.57336,0.0028 c 0.32755,-0.06309 0.86356,-0.06309 1.19111,0 0.32756,0.06309 0.0596,0.11471 -0.59556,0.11471 -0.65511,0 -0.92311,-0.05162 -0.59555,-0.11471 z m 14.35958,-3.089448 c 0,-0.05497 0.20845,-0.26341 0.46322,-0.463212 0.41981,-0.329244 0.42918,-0.319882 0.0999,0.09994 -0.34578,0.440912 -0.56315,0.581128 -0.56315,0.363276 z m 41.68529,-38.015837 c 0,-19.289493 0.0315,-27.18065 0.07,-17.535903 0.0385,9.644746 0.0385,25.427059 0,35.071806 -0.0385,9.644746 -0.07,1.75359 -0.07,-17.535903 z m -310.362807,31.035239 -0.912176,-0.992598 0.992598,0.912176 c 0.923889,0.849033 1.114301,1.07302 0.912176,1.07302 -0.04423,0 -0.490902,-0.446669 -0.992598,-0.992598 z m 50.64179959,-8.190389 c 0.25753758,-0.06711 0.61487297,-0.0627 0.79407864,0.0098 0.17920567,0.0725 -0.0315069,0.127415 -0.46825015,0.12202 -0.43674325,-0.0054 -0.58336607,-0.06472 -0.32582849,-0.131828 z M 339.6742,-57.315418 c 0.46989,-0.05847 1.30367,-0.05944 1.85285,-0.0021 0.54917,0.0573 0.16472,0.105142 -0.85435,0.106316 -1.01907,0.0012 -1.46839,-0.04571 -0.9985,-0.104181 z m -131.00053,-0.783857 c 0.19107,-0.07646 0.41937,-0.06706 0.50733,0.0209 0.0879,0.08796 -0.0684,0.150515 -0.34741,0.139022 -0.30835,-0.0127 -0.37108,-0.07542 -0.15992,-0.159919 z m 113.30442,-3.194018 c -0.32925,-0.419818 -0.31988,-0.42918 0.0999,-0.09994 0.44092,0.345787 0.58113,0.563149 0.36328,0.563149 -0.055,0 -0.26341,-0.208446 -0.46321,-0.463212 z M 188.92293,-73.667685 c 0.005,-0.436743 0.0647,-0.583366 0.13183,-0.325829 0.0671,0.257538 0.0627,0.614873 -0.01,0.794079 -0.0725,0.179206 -0.12741,-0.03151 -0.12202,-0.46825 z m -218.667018,-1.874908 c 0.0127,-0.308352 0.07542,-0.371073 0.159919,-0.159919 0.07646,0.191075 0.06706,0.419373 -0.0209,0.507328 -0.08796,0.08796 -0.150515,-0.06838 -0.139022,-0.347409 z m -34.908755,-14.800743 c 0.0054,-0.436744 0.06472,-0.583366 0.131828,-0.325829 0.06711,0.257538 0.0627,0.614873 -0.0098,0.794079 -0.07251,0.179206 -0.127415,-0.03151 -0.12202,-0.46825 z m 417.038203,-3.748655 c 0.18198,-0.07343 0.47975,-0.07343 0.66173,0 0.18198,0.07343 0.0331,0.133507 -0.33087,0.133507 -0.36395,0 -0.51284,-0.06008 -0.33086,-0.133507 z m -417.048011,-4.324478 c 0,-0.363953 0.06008,-0.512842 0.133507,-0.330866 0.07343,0.181976 0.07343,0.479756 0,0.661732 -0.07343,0.181977 -0.133507,0.03309 -0.133507,-0.330866 z m 456.075641,-5.955591 c 0.005,-0.43674 0.0647,-0.58336 0.13182,-0.32583 0.0671,0.25754 0.0627,0.61488 -0.01,0.79408 -0.0725,0.17921 -0.12742,-0.0315 -0.12202,-0.46825 z m -165.17817,-3.30866 c 0,-0.36395 0.0601,-0.51284 0.13351,-0.33087 0.0734,0.18198 0.0734,0.47976 0,0.66174 -0.0734,0.18197 -0.13351,0.0331 -0.13351,-0.33087 z m 104.19757,-4.15121 c 0.19108,-0.0765 0.41938,-0.0671 0.50733,0.0209 0.088,0.088 -0.0684,0.15051 -0.34741,0.13902 -0.30835,-0.0127 -0.37107,-0.0754 -0.15992,-0.15992 z m 26.2046,0 c 0.19107,-0.0765 0.41937,-0.0671 0.50733,0.0209 0.088,0.088 -0.0684,0.15051 -0.34741,0.13902 -0.30836,-0.0127 -0.37108,-0.0754 -0.15992,-0.15992 z m -383.358007,-15.70075 c 0.263498,-0.29117 0.538644,-0.52939 0.611434,-0.52939 0.07279,0 -0.08324,0.23822 -0.346741,0.52939 -0.263498,0.29116 -0.538643,0.52938 -0.611434,0.52938 -0.07279,0 0.08324,-0.23822 0.346741,-0.52938 z m 328.203427,-8.47018 c 0,-4.14906 0.0366,-5.8464 0.0813,-3.77187 0.0447,2.07453 0.0447,5.46922 0,7.54375 -0.0447,2.07453 -0.0813,0.37718 -0.0813,-3.77188 z m -21.60636,6.17182 c 0.19108,-0.0765 0.41938,-0.0671 0.50733,0.0209 0.088,0.088 -0.0684,0.15052 -0.34741,0.13903 -0.30835,-0.0127 -0.37107,-0.0754 -0.15992,-0.15992 z m 39.17455,0 c 0.19107,-0.0765 0.41937,-0.0671 0.50733,0.0209 0.0879,0.088 -0.0684,0.15052 -0.34741,0.13903 -0.30835,-0.0127 -0.37107,-0.0754 -0.15992,-0.15992 z m 5.02916,-0.2647 c 0.19108,-0.0765 0.41938,-0.067 0.50733,0.0209 0.088,0.088 -0.0684,0.15052 -0.34741,0.13902 -0.30835,-0.0127 -0.37107,-0.0754 -0.15992,-0.15992 z m 6.20374,-0.26633 c 0.25477,-0.0666 0.67166,-0.0666 0.92643,0 0.25477,0.0666 0.0463,0.12105 -0.46321,0.12105 -0.50954,0 -0.71798,-0.0545 -0.46322,-0.12105 z m 7.27906,0.007 c 0.18197,-0.0734 0.47975,-0.0734 0.66173,0 0.18198,0.0734 0.0331,0.1335 -0.33087,0.1335 -0.36395,0 -0.51284,-0.0601 -0.33086,-0.1335 z m -117.87049,-11.07415 c 1.3e-4,-4.07627 0.0369,-5.70685 0.0816,-3.62351 0.0448,2.08333 0.0447,5.41847 -2.4e-4,7.4114 -0.0449,1.99293 -0.0815,0.28838 -0.0814,-3.78789 z m 160.53796,1.78668 -0.91217,-0.9926 0.9926,0.91217 c 0.92389,0.84904 1.1143,1.07302 0.91217,1.07302 -0.0442,0 -0.4909,-0.44666 -0.9926,-0.99259 z m -55.88557,-10.57001 c 0.19107,-0.0765 0.41937,-0.0671 0.50732,0.0209 0.088,0.088 -0.0684,0.15052 -0.3474,0.13902 -0.30836,-0.0127 -0.37108,-0.0754 -0.15992,-0.15991 z m 7.53224,-0.26731 c 0.25754,-0.0671 0.61487,-0.0627 0.79408,0.01 0.1792,0.0725 -0.0315,0.12741 -0.46825,0.12202 -0.43675,-0.005 -0.58337,-0.0647 -0.32583,-0.13183 z m 14.15603,0.008 c 0.18198,-0.0734 0.47976,-0.0734 0.66173,0 0.18198,0.0734 0.0331,0.1335 -0.33086,0.1335 -0.36396,0 -0.51285,-0.0601 -0.33087,-0.1335 z"
       id="path137" /><path
       style="fill:#ef2b59"
       d="m 369.07755,-37.453231 c 0.19108,-0.07646 0.41938,-0.06706 0.50733,0.0209 0.088,0.08795 -0.0684,0.150515 -0.34741,0.139022 -0.30835,-0.0127 -0.37107,-0.07542 -0.15992,-0.159919 z m -167.30244,-0.259178 c 0.18198,-0.07343 0.47976,-0.07343 0.66173,0 0.18198,0.07343 0.0331,0.133507 -0.33086,0.133507 -0.36396,0 -0.51285,-0.06008 -0.33087,-0.133507 z m 92.03449,-11.272666 -1.04631,-1.124945 1.12494,1.046318 c 0.61872,0.575474 1.12495,1.081699 1.12495,1.124944 0,0.200261 -0.23051,-1.29e-4 -1.20358,-1.046317 z M 67.906687,-53.253924 c 0,-0.05497 0.208446,-0.26341 0.463213,-0.463212 0.419818,-0.329244 0.42918,-0.319882 0.09994,0.09994 -0.345787,0.440912 -0.563149,0.581128 -0.563149,0.363276 z m -70.0774393,-2.729452 c 0.2547669,-0.06658 0.6716582,-0.06658 0.9264251,0 0.25476688,0.06658 0.046321,0.12105 -0.4632125,0.12105 -0.5095338,0 -0.7179795,-0.05447 -0.4632126,-0.12105 z m 18.1480053,0.0016 c 0.191075,-0.07646 0.419373,-0.06706 0.507328,0.0209 0.08796,0.08796 -0.06838,0.150515 -0.347409,0.139022 -0.308352,-0.0127 -0.371073,-0.07542 -0.159919,-0.159919 z m -25.4105161,-0.264693 c 0.1910751,-0.07646 0.4193727,-0.06706 0.507328,0.0209 0.087955,0.08795 -0.068379,0.150515 -0.3474094,0.139022 -0.3083521,-0.0127 -0.3710728,-0.07542 -0.1599186,-0.159919 z M 337.29786,-57.311183 c 0.32756,-0.06309 0.86357,-0.06309 1.19112,0 0.32756,0.06309 0.0596,0.114709 -0.59556,0.114709 -0.65511,0 -0.92311,-0.05162 -0.59556,-0.114709 z m 5.56164,-4.05e-4 c 0.32926,-0.06331 0.8057,-0.06091 1.05877,0.0053 0.25307,0.06625 -0.0163,0.118052 -0.59864,0.115114 -0.58233,-0.0029 -0.78938,-0.05714 -0.46013,-0.120456 z m 16.06962,-18.87068 c 0,-9.681141 0.0331,-13.641609 0.0734,-8.801038 0.0404,4.840571 0.0404,12.761506 0,17.602076 -0.0404,4.840571 -0.0734,0.880104 -0.0734,-8.801038 z M 74.12697,-59.506617 c 0.263498,-0.291162 0.538643,-0.529385 0.611434,-0.529385 0.07279,0 -0.08324,0.238223 -0.346741,0.529385 -0.263498,0.291163 -0.538644,0.529386 -0.611434,0.529386 -0.07279,0 0.08324,-0.238223 0.346741,-0.529386 z m -99.676902,-1.521984 -0.641699,-0.727905 0.727905,0.641699 c 0.680338,0.599764 0.849291,0.814112 0.641699,0.814112 -0.04741,0 -0.374971,-0.327558 -0.727905,-0.727906 z m 75.325157,-9.595116 c 0.71696,-0.727906 1.36312,-1.323465 1.43591,-1.323465 0.07279,0 -0.454257,0.595559 -1.171217,1.323465 -0.71696,0.727905 -1.36312,1.323464 -1.43591,1.323464 -0.07279,0 0.454257,-0.595559 1.171217,-1.323464 z m 139.117005,-2.007254 c 0.0127,-0.308353 0.0754,-0.371073 0.15992,-0.159919 0.0765,0.191075 0.0671,0.419373 -0.0209,0.507328 -0.088,0.08796 -0.15051,-0.06838 -0.13902,-0.347409 z m -218.636318,-2.117543 c 0.0127,-0.308353 0.07542,-0.371073 0.159919,-0.159919 0.07646,0.191075 0.06706,0.419373 -0.0209,0.507328 -0.08796,0.08796 -0.150515,-0.06838 -0.139022,-0.347409 z m 456.044938,-4.742414 c 0.34191,-0.363953 0.68122,-0.661733 0.75401,-0.661733 0.0728,0 -0.14741,0.29778 -0.48932,0.661733 -0.34192,0.363952 -0.68122,0.661732 -0.75401,0.661732 -0.0728,0 0.1474,-0.29778 0.48932,-0.661732 z m -140.00164,-1.08083 c 0.0127,-0.308352 0.0754,-0.371072 0.15992,-0.159918 0.0765,0.191075 0.0671,0.419372 -0.0209,0.507328 -0.0879,0.08796 -0.15051,-0.06838 -0.13902,-0.34741 z M -64.637694,-91.931494 c 0.0029,-0.582324 0.05714,-0.789381 0.120456,-0.460126 0.06331,0.329255 0.06091,0.805702 -0.0053,1.058772 -0.06625,0.253069 -0.118052,-0.01632 -0.115114,-0.598646 z m 418.098364,-2.166011 c 0.19108,-0.07646 0.41938,-0.06706 0.50733,0.0209 0.088,0.08796 -0.0684,0.150515 -0.34741,0.139022 -0.30835,-0.0127 -0.37107,-0.07542 -0.15992,-0.159918 z m -418.089409,-2.59846 c 0.002,-0.727906 0.05339,-0.994269 0.114233,-0.59192 0.06084,0.40235 0.05921,0.997909 -0.0036,1.323465 -0.06283,0.325555 -0.112607,-0.0036 -0.11062,-0.731545 z m 357.656719,-3.838045 c 0.56863,-0.58233 1.09342,-1.05877 1.16621,-1.05877 0.0728,0 -0.33289,0.47644 -0.90152,1.05877 -0.56862,0.582322 -1.09342,1.05877 -1.16621,1.05877 -0.0728,0 0.3329,-0.476448 0.90152,-1.05877 z m 98.41272,-1.85285 c 0,-0.8007 0.0496,-1.12826 0.11027,-0.72791 0.0607,0.40035 0.0607,1.05547 0,1.45581 -0.0607,0.40035 -0.11027,0.0728 -0.11027,-0.7279 z m -421.087402,-9.79364 c 0,-4.73138 0.03589,-6.66695 0.07976,-4.30126 0.04387,2.3657 0.04387,6.23683 0,8.60252 -0.04387,2.36569 -0.07976,0.43013 -0.07976,-4.30126 z m 32.4389412,7.31147 c 0,-0.055 0.2084456,-0.26341 0.4632125,-0.46322 0.4198177,-0.32924 0.4291799,-0.31988 0.099936,0.0999 -0.3457867,0.44091 -0.5631487,0.58113 -0.5631487,0.36328 z m 223.4216908,-1.90732 c 0.0127,-0.30835 0.0754,-0.37107 0.15991,-0.15992 0.0765,0.19107 0.0671,0.41937 -0.0209,0.50733 -0.088,0.0879 -0.15052,-0.0684 -0.13902,-0.34741 z m 104.996,-5.05006 c 0.18197,-0.0734 0.47975,-0.0734 0.66173,0 0.18198,0.0734 0.0331,0.1335 -0.33087,0.1335 -0.36395,0 -0.51284,-0.0601 -0.33086,-0.1335 z m 24.35174,0 c 0.18198,-0.0734 0.47976,-0.0734 0.66174,0 0.18197,0.0734 0.0331,0.1335 -0.33087,0.1335 -0.36395,0 -0.51284,-0.0601 -0.33087,-0.1335 z m 3.28428,-0.35409 c 0,-0.36395 0.0601,-0.51284 0.13351,-0.33086 0.0734,0.18197 0.0734,0.47975 0,0.66173 -0.0734,0.18197 -0.13351,0.0331 -0.13351,-0.33087 z m -99.7794,-2.24989 c 0.005,-0.43674 0.0647,-0.58336 0.13183,-0.32583 0.0671,0.25754 0.0627,0.61488 -0.01,0.79408 -0.0725,0.17921 -0.12742,-0.0315 -0.12202,-0.46825 z m 95.20407,-10.91858 c -0.32924,-0.41982 -0.31988,-0.42918 0.0999,-0.0999 0.44091,0.34578 0.58112,0.56314 0.36327,0.56314 -0.055,0 -0.26341,-0.20844 -0.46321,-0.46321 z m -352.0278001,-2.91162 -0.6416987,-0.72791 0.7279055,0.6417 c 0.6803372,0.59977 0.8492905,0.81412 0.6416986,0.81412 -0.047414,0 -0.3749711,-0.32756 -0.7279054,-0.72791 z m 215.4800401,-2.01896 c 0,-0.055 0.20844,-0.26341 0.46321,-0.46321 0.41982,-0.32925 0.42918,-0.31988 0.0999,0.0999 -0.34579,0.44092 -0.56315,0.58113 -0.56315,0.36328 z m 111.36953,-0.0754 c 0.18197,-0.0734 0.47975,-0.0734 0.66173,0 0.18197,0.0734 0.0331,0.1335 -0.33087,0.1335 -0.36395,0 -0.51284,-0.0601 -0.33086,-0.1335 z m 9.54548,-0.006 c 0.19108,-0.0765 0.41938,-0.0671 0.50733,0.0209 0.088,0.088 -0.0684,0.15051 -0.34741,0.13902 -0.30835,-0.0127 -0.37107,-0.0754 -0.15992,-0.15992 z m -307.151603,-5.97329 -0.504236,-0.59556 0.595559,0.50423 c 0.559678,0.47386 0.716058,0.68689 0.504236,0.68689 -0.05023,0 -0.318228,-0.26801 -0.595559,-0.59556 z m 203.441623,-1.62192 c 0,-0.055 0.20845,-0.26341 0.46322,-0.46322 0.41981,-0.32924 0.42918,-0.31988 0.0999,0.0999 -0.34578,0.44091 -0.56315,0.58113 -0.56315,0.36328 z m 332.8257,-10.18167 c 0.14209,-0.22991 -16.03575,-0.32162 -65.66911,-0.37229 l -65.85765,-0.0672 65.9747,-0.0657 c 41.09462,-0.0409 65.9747,0.0283 65.9747,0.18343 0,0.13699 -0.13752,0.33406 -0.30559,0.43793 -0.18915,0.1169 -0.23375,0.0726 -0.11705,-0.1162 z m -571.0989169,-2.07508 c 0.1910751,-0.0765 0.4193727,-0.0671 0.507328,0.0209 0.087955,0.088 -0.068379,0.15052 -0.3474094,0.13902 -0.3083521,-0.0127 -0.3710728,-0.0754 -0.1599186,-0.15991 z m 328.4838669,0 c 0.19107,-0.0765 0.41937,-0.0671 0.50732,0.0209 0.088,0.088 -0.0684,0.15052 -0.34741,0.13902 -0.30835,-0.0127 -0.37107,-0.0754 -0.15991,-0.15991 z m 8.06162,-0.26731 c 0.25754,-0.0671 0.61488,-0.0627 0.79408,0.01 0.17921,0.0725 -0.0315,0.12741 -0.46825,0.12202 -0.43674,-0.005 -0.58336,-0.0647 -0.32583,-0.13183 z m 11.64649,0 c 0.25754,-0.0671 0.61487,-0.0627 0.79408,0.01 0.1792,0.0725 -0.0315,0.12741 -0.46825,0.12202 -0.43675,-0.005 -0.58337,-0.0647 -0.32583,-0.13183 z M 160.2845,-163.87843 c 0,-0.0456 0.38712,-0.43267 0.86025,-0.86026 l 0.86026,-0.77742 -0.77743,0.86025 c -0.72467,0.80187 -0.94308,0.98192 -0.94308,0.77743 z"
       id="path136" /><path
       style="fill:#1f89c9"
       d="m 427.22727,-46.271973 c 0.2635,-0.291162 0.53864,-0.529386 0.61143,-0.529386 0.0728,0 -0.0832,0.238224 -0.34674,0.529386 -0.2635,0.291162 -0.53864,0.529386 -0.61143,0.529386 -0.0728,0 0.0832,-0.238224 0.34674,-0.529386 z m -0.26469,-23.822358 c 0.56862,-0.582325 1.09342,-1.058772 1.16621,-1.058772 0.0728,0 -0.3329,0.476447 -0.90152,1.058772 -0.56862,0.582324 -1.09342,1.058771 -1.16621,1.058771 -0.0728,0 0.33289,-0.476447 0.90152,-1.058771 z m 165.83009,-57.538289 c 0,-0.055 0.20844,-0.26341 0.46321,-0.46321 0.41982,-0.32925 0.42918,-0.31989 0.0999,0.0999 -0.34578,0.44091 -0.56314,0.58113 -0.56314,0.36328 z m 2.91162,-2.67934 c 0.34191,-0.36395 0.68122,-0.66173 0.75401,-0.66173 0.0728,0 -0.1474,0.29778 -0.48932,0.66173 -0.34192,0.36395 -0.68122,0.66173 -0.75401,0.66173 -0.0728,0 0.1474,-0.29778 0.48932,-0.66173 z m 8.99956,-8.96715 c 0,-0.055 0.20844,-0.26341 0.46321,-0.46321 0.41982,-0.32924 0.42918,-0.31988 0.0999,0.0999 -0.34578,0.44091 -0.56314,0.58112 -0.56314,0.36327 z m -30.70438,-2.91162 c 0,-0.055 0.20845,-0.26341 0.46321,-0.46321 0.41982,-0.32925 0.42918,-0.31988 0.0999,0.0999 -0.34579,0.44092 -0.56315,0.58113 -0.56315,0.36328 z m 2.11754,-1.85285 c 0,-0.055 0.20845,-0.26341 0.46322,-0.46321 0.41981,-0.32925 0.42918,-0.31988 0.0999,0.0999 -0.34578,0.44092 -0.56315,0.58113 -0.56315,0.36328 z m 4.08609,-3.80428 0.77743,-0.86025 h 15.83205 c 9.71627,0 15.83205,0.0962 15.83205,0.24907 0,0.13699 -0.13751,0.33406 -0.30559,0.43793 -0.18933,0.11702 -0.23374,0.0726 -0.11672,-0.11672 0.14195,-0.22968 -3.70726,-0.30559 -15.49533,-0.30559 H 581.0428 l -0.80856,0.7279 -0.80856,0.72791 z"
       id="path135" /><path
       style="fill:#ed0f43"
       d="m -20.897773,-37.450262 c -7.0639,-0.592826 -13.274476,-1.507578 -16.807998,-2.475639 -2.775786,-0.760467 -7.487908,-3.117746 -9.9681,-4.986627 -3.998321,-3.012826 -7.919267,-7.768838 -10.280016,-12.469412 -3.05063,-6.074222 -4.806981,-13.188484 -6.082505,-24.637745 -0.387233,-3.475856 -0.579679,-12.491938 -0.382451,-17.917893 0.333198,-9.166682 1.715053,-20.212082 3.068754,-24.529072 3.020033,-9.63098 12.225598,-18.58287 22.722058,-22.09593 2.811257,-0.94089 9.022974,-2.22388 13.495171,-2.78732 12.9219,-1.628 28.1151803,-1.09549 37.122657,1.30111 10.565215,2.81107 20.180462,10.24615 24.788323,19.16782 2.411678,4.66945 3.269306,8.19617 3.514096,14.45058 0.566555,14.475487 -4.334731,25.330524 -13.090452,28.991855 -3.82865,1.601006 -3.414537,1.580174 -31.4127271,1.580174 H -29.764985 l 0.0027,4.168913 c 0.005,7.62114 0.629776,12.712507 1.883654,15.349921 1.606675,3.379491 6.130822,6.786789 9.892448,7.450362 3.373743,0.595147 11.6147022,0.921584 23.6900129,0.938397 10.8707161,0.01513 12.9850221,-0.04709 15.6168801,-0.459644 11.031699,-1.729243 18.598555,-5.217196 26.543191,-12.23512 2.282121,-2.01592 7.044934,-7.260778 14.788463,-16.285205 7.196402,-8.386797 10.283457,-12.075741 10.283457,-12.288441 0,-0.100763 -6.768898,-10.029652 -15.041996,-22.064202 -8.273098,-12.03454 -16.204523,-23.58157 -17.625389,-25.66006 l -2.583392,-3.77907 17.844184,0.0734 17.844184,0.0734 2.298418,1.13907 c 3.244713,1.60804 4.559306,3.01438 7.71886,8.25753 4.859751,8.06456 10.470296,17.07228 10.662448,17.11854 0.104753,0.0252 4.002037,-4.77949 8.660632,-10.67714 4.6586,-5.89765 9.08513,-11.27353 9.83675,-11.94639 1.77328,-1.58746 4.37513,-3.15207 6.05419,-3.64065 1.11293,-0.32385 3.74909,-0.37655 15.97834,-0.3194 l 14.6455,0.0684 -18.99922,22.4989 c -10.44957,12.37439 -19.52078,23.11309 -20.15825,23.86377 l -1.15904,1.36489 21.98052,30.848513 c 12.08928,16.966682 21.98051,30.917021 21.98051,31.000752 0,0.08373 -8.31716,0.119342 -18.48258,0.07913 l -18.48259,-0.07311 -2.29844,-1.139069 c -3.55687,-1.76273 -4.36703,-2.728189 -10.03892,-11.963228 -8.88335,-14.463961 -14.898933,-23.954705 -15.183378,-23.954705 -0.153314,0 -1.923584,2.0249 -3.933933,4.499779 -5.950175,7.325075 -9.550815,11.429063 -13.356244,15.223367 -12.279973,12.244073 -23.520149,17.181625 -42.761914,18.784333 -2.855652,0.237856 -46.522838,0.319615 -49.232875,0.09218 z M 1.944611,-104.27786 c 2.5034308,-1.21189 3.4893249,-4.17684 3.6948286,-11.11174 0.1880087,-6.34451 -0.4738924,-9.44393 -2.5879732,-12.11844 -1.279211,-1.61833 -3.90934704,-2.99973 -6.6595625,-3.49774 -2.6898085,-0.48708 -14.3379209,-0.49288 -16.4955989,-0.008 -5.182791,1.16417 -8.736256,4.70301 -9.411692,9.37294 -0.131424,0.90867 -0.241349,5.31481 -0.244276,9.79143 l -0.0053,8.1393 h 15.268617 c 15.06971186,0 15.2838895,-0.007 16.440979,-0.56753 z m 325.493439,66.591415 c -5.82364,-0.482179 -12.73964,-1.365912 -15.73422,-2.010536 -10.08551,-2.171037 -18.83671,-8.311521 -22.23649,-15.602749 -3.19564,-6.853406 -4.1067,-21.238896 -2.09878,-33.139155 0.97449,-5.775458 2.07,-8.062401 5.64865,-11.791845 4.3779,-4.56237 11.30301,-8.19678 18.41912,-9.66666 1.09008,-0.22516 3.46885,-0.58805 5.28615,-0.80641 7.45791,-0.89613 12.0508,-1.0785 27.17658,-1.07908 l 15.13754,-5.8e-4 -0.1336,-1.7205 c -0.25658,-3.30432 -0.88572,-5.91242 -1.95576,-8.10769 -3.07845,-6.31563 -9.49327,-8.83361 -22.49482,-8.8298 -5.2249,0.002 -27.35794,1.22467 -31.56463,1.74435 l -1.25729,0.15532 v -7.84642 c 0,-8.50182 0.0139,-8.59449 1.49835,-9.97473 1.7571,-1.63376 4.2132,-2.29412 11.15393,-2.99889 13.32055,-1.3526 32.50771,-1.47252 41.80677,-0.2613 21.70843,2.82755 31.69784,12.90871 34.61016,34.92804 0.72047,5.4473 0.9094,14.884106 0.91802,45.852997 l 0.008,29.971425 -0.59556,0.124442 c -0.54179,0.113208 -7.50417,0.54932 -19.38875,1.214481 -6.83985,0.382815 -39.0742,0.269997 -44.20372,-0.15471 z m 19.45493,-19.708312 c 4.0206,-0.24664 9.69572,-0.845996 11.44797,-1.209033 l 0.7279,-0.15081 v -17.42038 c 0,-16.34113 -0.0287,-17.432291 -0.46321,-17.612648 -0.25477,-0.105749 -5.28724,-0.252385 -11.18327,-0.325858 -15.6427,-0.194932 -20.11607,0.241279 -23.31965,2.273965 -1.71753,1.089782 -3.31753,2.838278 -4.15406,4.539606 l -0.71608,1.456358 v 10.058329 10.058329 l 0.77862,1.588157 c 1.52777,3.116176 4.80132,5.512604 8.48563,6.211968 3.64612,0.692115 11.89668,0.930721 18.39615,0.532017 z M 193.9005,-37.977321 c -9.86314,-0.966687 -14.97952,-2.230003 -20.43123,-5.044788 -8.48719,-4.382041 -13.50692,-11.693937 -15.81985,-23.043707 -1.49764,-7.349022 -1.46766,-6.33674 -1.46766,-49.555694 v -39.83627 l 0.71852,-2.11755 c 2.21855,-6.53823 6.71366,-10.24501 19.26579,-15.88705 2.64459,-1.18872 12.32719,-5.15603 12.58376,-5.15603 0.0668,0 0.1215,6.72982 0.1215,14.95515 v 14.95515 h 15.35219 15.35219 v 7.82158 c 0,8.59111 -0.005,8.622 -1.67675,10.3833 -1.51536,1.59654 -2.01398,1.64708 -16.24885,1.64708 h -12.80035 l 0.0915,29.447083 c 0.0811,26.071952 0.14083,29.649228 0.52153,31.210752 1.32851,5.44915 4.55292,8.411492 10.52559,9.670123 3.63452,0.765906 11.02421,0.623737 18.06529,-0.347556 l 1.25729,-0.173439 v 7.655986 c 0,7.414271 -0.0188,7.693153 -0.59555,8.83321 -1.76166,3.482213 -6.65005,4.78654 -17.66825,4.714269 -3.42116,-0.02244 -6.63718,-0.08166 -7.14671,-0.131599 z m 35.59892,-1.376899 c -1.53112,-0.695573 -2.67294,-2.118678 -3.04165,-3.790957 -0.23144,-1.049678 -0.28001,-9.863663 -0.19154,-34.757594 0.12837,-36.118419 0.13202,-36.215949 1.63241,-43.626139 3.16544,-15.63356 11.45884,-23.88825 27.14591,-27.01923 4.81894,-0.96181 7.60998,-1.23325 14.43322,-1.40367 9.01764,-0.22524 14.21251,0.43998 18.03519,2.30945 1.8804,0.91961 3.11675,2.19515 3.51391,3.62531 0.31661,1.14009 0.39257,15.1641 0.0821,15.15522 -0.10919,-0.003 -2.64031,-0.23879 -5.62473,-0.52371 -8.65185,-0.82597 -13.86499,-0.59733 -17.84561,0.78268 -4.35497,1.50979 -6.85193,4.3691 -8.02283,9.18704 -0.39545,1.62717 -0.45442,5.58924 -0.58643,39.395506 -0.16073,41.164285 -0.0403,38.257091 -1.64721,39.757471 -1.48415,1.385743 -1.66282,1.402713 -14.70349,1.396457 -11.14896,-0.0053 -12.20306,-0.04437 -13.17924,-0.487834 z m 192.03695,-64.08197 c 0,-35.08796 -0.11229,-32.93993 1.92903,-36.89876 1.35902,-2.6356 3.67909,-5.00474 6.19658,-6.32764 3.67424,-1.93076 -2.35916,-1.78083 71.66272,-1.78083 h 66.70715 l -0.65572,0.6459 c -1.47738,1.45526 -5.93821,4.84494 -9.91996,7.53795 -15.633,10.5732 -38.44487,21.98493 -60.30357,30.16712 -3.08654,1.15536 -11.38726,4.12142 -18.44604,6.59124 -21.07415,7.373723 -31.00876,11.139693 -37.36835,14.165436 -9.84849,4.685676 -16.2935,9.93129 -18.91617,15.395928 l -0.88567,1.845383 z"
       id="path134" /><path
       style="fill:#0079c1"
       d="m 421.54501,-50.142231 c 0.008,-9.912201 0.0583,-11.228593 0.47813,-12.443257 0.84475,-2.444129 2.24027,-4.412339 5.33648,-7.526423 7.15205,-7.193354 13.80393,-10.337756 46.71829,-22.084126 27.7563,-9.905583 41.09923,-15.276203 55.9057,-22.502453 20.25384,-9.88481 36.45157,-20.32922 47.98625,-30.94185 l 3.04397,-2.80064 15.69237,-0.001 c 14.86418,-0.001 15.67916,0.0232 15.44214,0.46199 -0.55569,1.02867 -6.68749,8.04632 -10.06039,11.51378 -19.24037,19.77979 -46.27648,36.854401 -80.49767,50.838154 -9.08938,3.71418 -20.61997,7.923672 -38.90985,14.20489 -23.21879,7.97393 -32.57065,11.607081 -41.29209,16.041768 -9.22101,4.688709 -15.3576,9.41292 -18.4959,14.238944 l -1.35607,2.085332 z"
       id="path133" /></g></svg>
