<?xml version="1.0" encoding="UTF-8" standalone="no"?>
<svg
   height="476.77899"
   viewBox="0 0 640.2 126.2"
   width="2419.4851"
   version="1.1"
   id="svg14"
   sodipodi:docname="aliexpress.svg"
   xml:space="preserve"
   inkscape:export-filename="olympikus.svg"
   inkscape:export-xdpi="96"
   inkscape:export-ydpi="96"
   xmlns:inkscape="http://www.inkscape.org/namespaces/inkscape"
   xmlns:sodipodi="http://sodipodi.sourceforge.net/DTD/sodipodi-0.dtd"
   xmlns="http://www.w3.org/2000/svg"
   xmlns:svg="http://www.w3.org/2000/svg"><defs
     id="defs14" /><sodipodi:namedview
     id="namedview14"
     pagecolor="#ffffff"
     bordercolor="#000000"
     borderopacity="0.25"
     inkscape:showpageshadow="2"
     inkscape:pageopacity="0.0"
     inkscape:pagecheckerboard="0"
     inkscape:deskcolor="#d1d1d1" /><g
     id="g114"
     transform="matrix(0.88749435,0,0,0.93090758,28.969121,244.78114)"><path
       style="fill:#f4cbcc"
       d="m 253.94835,-128.63641 c 13.68521,-0.0977 24.71451,-0.0993 24.59648,-0.004 -0.0715,0.058 -6.8319,0.091 -15.02317,0.0735 -8.19127,-0.0176 -12.49926,-0.049 -9.57331,-0.0699 z m 272.64586,-7.97892 c 0.003,-0.30918 0.0604,-0.41911 0.12742,-0.2443 0.067,0.17481 0.0644,0.42777 -0.006,0.56214 -0.0701,0.13436 -0.12488,-0.009 -0.12177,-0.31784 z m -70.12189,-0.86894 c 0.20212,-0.0406 0.44362,-0.0356 0.53666,0.0111 0.093,0.0467 -0.0723,0.0799 -0.3675,0.0738 -0.32618,-0.007 -0.39252,-0.04 -0.16916,-0.0849 z m 6.23449,-0.68865 c 0.0134,-0.16372 0.0798,-0.19702 0.16917,-0.0849 0.0809,0.10145 0.0709,0.22266 -0.0221,0.26936 -0.093,0.0467 -0.15921,-0.0363 -0.14706,-0.18445 z m 39.73721,-1.51697 c 0,-0.0292 0.22049,-0.13985 0.48999,-0.24593 0.44409,-0.17481 0.45399,-0.16984 0.10571,0.0531 -0.36578,0.23409 -0.5957,0.30854 -0.5957,0.19287 z m 42.90925,-2.01508 c 0.42349,-0.0322 1.11648,-0.0322 1.53997,0 0.42349,0.0322 0.077,0.0585 -0.76999,0.0585 -0.84698,0 -1.19347,-0.0264 -0.76998,-0.0585 z m -495.289072,-6.75039 c 15.219496,-0.0201 40.041063,-0.0201 55.159042,0 15.11797,0.0201 2.66566,0.0365 -27.671814,0.0365 -30.337471,-1e-5 -42.706723,-0.0164 -27.487228,-0.0365 z m 251.526582,-10e-6 c -0.11716,-0.0951 88.71765,-0.095 218.49293,4.3e-4 26.56454,0.0195 -11.69986,0.0511 -85.03199,0.0702 -73.33214,0.0191 -133.38956,-0.0127 -133.46094,-0.0707 z m 58.41105,-7.15925 c 0.27243,-0.0356 0.65042,-0.0333 0.83998,0.005 0.18957,0.0385 -0.0333,0.0676 -0.49532,0.0648 -0.46199,-0.003 -0.61709,-0.0344 -0.34466,-0.07 z m 10.91448,5.2e-4 c 0.2695,-0.0353 0.71049,-0.0353 0.97998,0 0.2695,0.0353 0.049,0.0643 -0.48999,0.0643 -0.53899,0 -0.75948,-0.0289 -0.48999,-0.0643 z m -15.80222,-0.13966 c 0.20212,-0.0406 0.44361,-0.0356 0.53665,0.0111 0.093,0.0467 -0.0723,0.0799 -0.36749,0.0738 -0.32618,-0.007 -0.39253,-0.04 -0.16916,-0.0849 z m 20.71963,0 c 0.20213,-0.0406 0.44362,-0.0356 0.53666,0.0111 0.093,0.0467 -0.0723,0.0799 -0.36749,0.0738 -0.32618,-0.007 -0.39253,-0.04 -0.16917,-0.0849 z m -63.93691,-7.38746 -1.38945,-0.73781 1.46998,0.69739 c 1.36592,0.64803 1.59838,0.77822 1.38945,0.77822 -0.0443,0 -0.70578,-0.33201 -1.46998,-0.7378 z m 106.40867,-1.65129 c 0.75841,-0.38646 1.44193,-0.70267 1.51893,-0.70267 0.077,0 -0.48052,0.31621 -1.23893,0.70267 -0.75841,0.38647 -1.44192,0.70268 -1.51892,0.70268 -0.077,0 0.48052,-0.31621 1.23892,-0.70268 z m -35.41938,-8.33551 c 0,-0.0242 0.40949,-0.22971 0.90999,-0.45673 l 0.90998,-0.41277 -0.82237,0.45674 c -0.76657,0.42574 -0.9976,0.52134 -0.9976,0.41276 z m 5.62201,-5.09724 c 0.0134,-0.16372 0.0798,-0.19702 0.16916,-0.0849 0.0809,0.10145 0.0709,0.22266 -0.0221,0.26936 -0.093,0.0467 -0.15922,-0.0363 -0.14706,-0.18445 z m -90.11557,-1.60444 c 0,-0.27053 0.0576,-0.3812 0.12804,-0.24593 0.0704,0.13526 0.0704,0.3566 0,0.49187 -0.0704,0.13526 -0.12804,0.0246 -0.12804,-0.24594 z m 44.49847,-2.52962 c 0,-0.19324 0.0636,-0.27229 0.14123,-0.17567 0.0777,0.0966 0.0777,0.25472 0,0.35134 -0.0777,0.0966 -0.14123,0.0176 -0.14123,-0.17567 z m -44.50885,-0.77294 c 0.006,-0.23188 0.0685,-0.30973 0.13945,-0.17299 0.071,0.13673 0.0663,0.32645 -0.0104,0.4216 -0.0767,0.0951 -0.13479,-0.0167 -0.12908,-0.24861 z m 136.40242,-0.84321 c -8.5e-4,-0.69564 0.0465,-0.99794 0.10522,-0.67178 0.0587,0.32617 0.0594,0.89534 0.002,1.26481 -0.0579,0.36948 -0.10591,0.10262 -0.10677,-0.59303 z m -131.90708,0.25068 c 0.42349,-0.0322 1.11648,-0.0322 1.53997,0 0.42349,0.0322 0.077,0.0586 -0.76999,0.0586 -0.84698,0 -1.19348,-0.0264 -0.76998,-0.0586 z m 10.91981,-0.14053 c 0.42349,-0.0322 1.11648,-0.0322 1.53997,0 0.42349,0.0322 0.077,0.0585 -0.76999,0.0585 -0.84698,0 -1.19348,-0.0263 -0.76998,-0.0585 z m 11.1998,-0.14054 c 0.42349,-0.0322 1.11648,-0.0322 1.53997,0 0.4235,0.0322 0.077,0.0586 -0.76998,0.0586 -0.84699,0 -1.19348,-0.0264 -0.76999,-0.0586 z m 10.35982,-0.14053 c 0.42349,-0.0322 1.11648,-0.0322 1.53997,0 0.4235,0.0322 0.077,0.0585 -0.76998,0.0585 -0.84699,0 -1.19348,-0.0263 -0.76999,-0.0585 z m 90.05271,-12.51232 c -0.34827,-0.22289 -0.33837,-0.22786 0.10572,-0.0531 0.4664,0.18359 0.61472,0.299 0.38428,0.299 -0.0581,0 -0.27864,-0.11067 -0.49,-0.24594 z m -101.63822,-0.8432 c -0.34828,-0.2229 -0.33838,-0.22787 0.10571,-0.0531 0.2695,0.10608 0.48999,0.21675 0.48999,0.24593 0,0.11567 -0.22993,0.0412 -0.5957,-0.19287 z m 98.98738,-0.49188 -0.53338,-0.3162 0.62998,0.26772 c 0.59204,0.25159 0.75746,0.36469 0.53339,0.36469 -0.0531,0 -0.33662,-0.14229 -0.62999,-0.31621 z m -102.34732,-1.19454 c -0.34828,-0.22289 -0.33838,-0.22787 0.10571,-0.0531 0.26949,0.10608 0.48999,0.21675 0.48999,0.24594 0,0.11566 -0.22993,0.0412 -0.5957,-0.19288 z m -8.34204,-9.81399 c 0.0134,-0.16372 0.0798,-0.19702 0.16917,-0.0849 0.0809,0.10145 0.0709,0.22266 -0.0221,0.26936 -0.093,0.0467 -0.15922,-0.0363 -0.14706,-0.18445 z m 82.64646,-1.56628 c 0.57749,-0.0303 1.52247,-0.0303 2.09996,0 0.57749,0.0303 0.105,0.0551 -1.04998,0.0551 -1.15498,0 -1.62747,-0.0248 -1.04998,-0.0551 z m 15.53348,-0.13959 c 0.49706,-0.031 1.37904,-0.0316 1.95997,-0.001 0.58092,0.0304 0.17424,0.0558 -0.90374,0.0564 -1.07799,6.2e-4 -1.55329,-0.0243 -1.05623,-0.0553 z m 14.98598,-0.14148 c 0.57749,-0.0303 1.52248,-0.0303 2.09997,0 0.57749,0.0303 0.10499,0.0551 -1.04999,0.0551 -1.15498,0 -1.62747,-0.0248 -1.04998,-0.0551 z m -113.16592,-1.80655 c 0.0134,-0.16372 0.0798,-0.19702 0.16917,-0.0849 0.0809,0.10145 0.0709,0.22266 -0.0221,0.26936 -0.093,0.0467 -0.15922,-0.0363 -0.14706,-0.18445 z m 125.48632,-0.55043 c 0.003,-0.30917 0.0605,-0.41911 0.12742,-0.24429 0.067,0.17481 0.0644,0.42777 -0.006,0.56213 -0.0701,0.13437 -0.12488,-0.009 -0.12177,-0.31784 z m -298.4972,-4.25115 c 10.11333,-0.0204 26.74504,-0.0204 36.95935,0 10.21431,0.0204 1.93977,0.0372 -18.38788,0.0372 -20.32765,0 -28.68481,-0.0167 -18.57147,-0.0372 z m 287.35361,-10.3293 -1.10681,-0.59728 1.18998,0.55553 c 0.65449,0.30554 1.18998,0.57431 1.18998,0.59727 0,0.10633 -0.24383,-7e-5 -1.27315,-0.55552 z m 54.1447,-5.12951 c 18.37653,-0.0199 48.36401,-0.0199 66.63883,0 18.27483,0.02 3.23948,0.0363 -33.41188,0.0363 -36.65136,-1e-5 -51.60349,-0.0163 -33.22695,-0.0363 z m -119.28289,-1.81755 c 0.20212,-0.0406 0.44362,-0.0356 0.53666,0.0111 0.093,0.0467 -0.0723,0.0799 -0.3675,0.0738 -0.32618,-0.007 -0.39252,-0.04 -0.16916,-0.0849 z m 2.51995,-0.14054 c 0.20213,-0.0406 0.44362,-0.0356 0.53666,0.0111 0.093,0.0467 -0.0723,0.0799 -0.36749,0.0738 -0.32618,-0.007 -0.39253,-0.04 -0.16917,-0.0849 z m 24.07958,0 c 0.20213,-0.0406 0.44362,-0.0356 0.53666,0.0111 0.093,0.0467 -0.0723,0.0799 -0.36749,0.0738 -0.32618,-0.007 -0.39253,-0.04 -0.16917,-0.0849 z m -20.43964,-0.14053 c 0.20212,-0.0406 0.44362,-0.0356 0.53666,0.0111 0.093,0.0467 -0.0723,0.0799 -0.3675,0.0738 -0.32617,-0.007 -0.39252,-0.04 -0.16916,-0.0849 z m 16.22222,0.003 c 0.19249,-0.039 0.50749,-0.039 0.69999,0 0.19249,0.039 0.035,0.0709 -0.35,0.0709 -0.38499,0 -0.54249,-0.0319 -0.34999,-0.0709 z"
       id="path122" /><path
       style="fill:#ed9fa1"
       d="m 358.73652,-155.6103 c 0.1925,-0.039 0.50749,-0.039 0.69999,0 0.1925,0.039 0.035,0.0709 -0.34999,0.0709 -0.385,0 -0.54249,-0.0319 -0.35,-0.0709 z m 13.73726,-0.003 c 0.20212,-0.0406 0.44362,-0.0356 0.53666,0.0111 0.093,0.0467 -0.0723,0.0799 -0.36749,0.0738 -0.32618,-0.007 -0.39253,-0.04 -0.16917,-0.0849 z m -314.802007,-1.27201 c 23.435577,-0.0967 41.513684,-0.0976 41.396086,-0.002 -0.07142,0.058 -11.430722,0.0905 -25.242892,0.0723 -13.812171,-0.0182 -21.081108,-0.0498 -16.153194,-0.0701 z m 358.533747,-6.83605 c 0,-0.0292 0.2205,-0.13985 0.48999,-0.24593 0.44409,-0.17481 0.45399,-0.16984 0.10572,0.0531 -0.36578,0.23409 -0.59571,0.30854 -0.59571,0.19287 z m -52.13159,-6.92913 c 0.20212,-0.0406 0.44362,-0.0356 0.53666,0.0111 0.093,0.0467 -0.0723,0.0799 -0.3675,0.0738 -0.32617,-0.007 -0.39252,-0.04 -0.16916,-0.0849 z m -65.72425,-8.55858 c 0.0134,-0.16372 0.0798,-0.19702 0.16916,-0.0849 0.0809,0.10145 0.0709,0.22266 -0.0221,0.26936 -0.093,0.0467 -0.15922,-0.0363 -0.14706,-0.18445 z m 136.37973,-3.29085 c 0,-0.19324 0.0636,-0.27229 0.14122,-0.17567 0.0777,0.0966 0.0777,0.25472 0,0.35133 -0.0777,0.0966 -0.14122,0.0176 -0.14122,-0.17566 z m -91.812,-0.63241 c 0.003,-0.30918 0.0605,-0.41911 0.12742,-0.2443 0.067,0.17482 0.0644,0.42778 -0.006,0.56214 -0.0701,0.13436 -0.12488,-0.009 -0.12177,-0.31784 z m -42.41987,-0.59105 c 0.34649,-0.0335 0.91348,-0.0335 1.25998,0 0.34649,0.0335 0.063,0.0609 -0.62999,0.0609 -0.69299,0 -0.97649,-0.0274 -0.62999,-0.0609 z m 10.91981,-0.14054 c 0.34649,-0.0335 0.91348,-0.0335 1.25998,0 0.34649,0.0335 0.063,0.0609 -0.62999,0.0609 -0.69299,0 -0.97649,-0.0274 -0.62999,-0.0609 z m 11.48306,-0.14074 c 0.34829,-0.0336 0.85228,-0.0323 1.11998,0.003 0.2677,0.0352 -0.0173,0.0627 -0.63325,0.0611 -0.61599,-0.002 -0.83502,-0.0303 -0.48673,-0.064 z m 10.35982,-0.14054 c 0.34829,-0.0336 0.85228,-0.0323 1.11998,0.003 0.2677,0.0352 -0.0173,0.0627 -0.63325,0.0611 -0.61599,-0.002 -0.83502,-0.0303 -0.48673,-0.064 z m 101.44707,-1.24739 c 0.0134,-0.16372 0.0798,-0.19702 0.16917,-0.0849 0.0809,0.10145 0.0709,0.22266 -0.0221,0.26936 -0.093,0.0467 -0.15921,-0.0363 -0.14706,-0.18445 z m -36.20646,-25.17555 c 0.50325,-0.0313 1.25924,-0.0306 1.67997,0.001 0.42074,0.0321 0.009,0.0577 -0.91499,0.0569 -0.92399,-7.9e-4 -1.26823,-0.027 -0.76498,-0.0583 z m 15.39974,-0.14054 c 0.50324,-0.0313 1.25923,-0.0306 1.67997,10e-4 0.42073,0.0321 0.009,0.0576 -0.915,0.0569 -0.92399,-7.8e-4 -1.26822,-0.027 -0.76497,-0.0583 z m 15.11973,-0.14053 c 0.50325,-0.0313 1.25924,-0.0306 1.67997,0.001 0.42074,0.0321 0.009,0.0577 -0.915,0.0569 -0.92398,-7.9e-4 -1.26822,-0.027 -0.76497,-0.0583 z m -35.47229,-0.6828 c 0.0134,-0.16372 0.0798,-0.19702 0.16916,-0.0849 0.0809,0.10145 0.0709,0.22266 -0.0221,0.26936 -0.093,0.0467 -0.15922,-0.0363 -0.14706,-0.18445 z m 43.95923,-2.38909 c 0.0134,-0.16372 0.0798,-0.19702 0.16917,-0.0849 0.0809,0.10145 0.0709,0.22266 -0.0221,0.26936 -0.093,0.0467 -0.15921,-0.0363 -0.14706,-0.18445 z m -62.25102,-6.89729 c 0.1925,-0.039 0.5075,-0.039 0.69999,0 0.1925,0.039 0.035,0.0709 -0.34999,0.0709 -0.38499,0 -0.54249,-0.0319 -0.35,-0.0709 z m -50.32912,-5.71281 c 0,-0.0242 0.4095,-0.22972 0.90999,-0.45674 l 0.90998,-0.41276 -0.82237,0.45673 c -0.76657,0.42575 -0.9976,0.52134 -0.9976,0.41277 z m -217.18381,-7.50976 c 17.06753,-0.02 44.91304,-0.02 61.87892,1e-5 16.96589,0.02 3.00155,0.0364 -31.03186,0.0364 -34.0334,-1e-5 -47.914581,-0.0164 -30.84706,-0.0364 z m 280.9702,-0.83381 c 0.20212,-0.0406 0.44362,-0.0356 0.53666,0.0111 0.093,0.0467 -0.0723,0.0799 -0.3675,0.0738 -0.32617,-0.007 -0.39252,-0.04 -0.16916,-0.0849 z m -22.11961,-0.14053 c 0.20212,-0.0406 0.44361,-0.0356 0.53665,0.0111 0.093,0.0467 -0.0723,0.0799 -0.36749,0.0738 -0.32618,-0.007 -0.39253,-0.04 -0.16916,-0.0849 z m 18.18218,0.003 c 0.1925,-0.039 0.50749,-0.039 0.69999,0 0.19249,0.039 0.035,0.0709 -0.35,0.0709 -0.38499,0 -0.54249,-0.0319 -0.34999,-0.0709 z m -11.07206,-0.15154 c 1.03275,-0.027 2.79672,-0.0271 3.91993,-4e-4 1.12322,0.0267 0.27825,0.0488 -1.87771,0.049 -2.15597,2.2e-4 -3.07496,-0.0217 -2.04222,-0.0486 z"
       id="path121" /><path
       style="fill:#a9b1c7"
       d="m 444.15253,-127.50632 c 0.20212,-0.0406 0.44362,-0.0356 0.53666,0.0111 0.093,0.0467 -0.0723,0.0799 -0.36749,0.0738 -0.32618,-0.007 -0.39253,-0.04 -0.16917,-0.0849 z m 6.1599,0 c 0.20212,-0.0406 0.44361,-0.0356 0.53665,0.0111 0.093,0.0467 -0.0723,0.0799 -0.36749,0.0738 -0.32618,-0.007 -0.39253,-0.04 -0.16916,-0.0849 z m 79.15112,0.002 c 3.35398,-0.10173 7.35744,-0.10778 7.23744,-0.0109 -0.0718,0.058 -2.04465,0.0937 -4.38402,0.0794 -2.33937,-0.0143 -3.62341,-0.0451 -2.85342,-0.0685 z m -29.56068,-1.55682 -0.6788,-0.38647 0.76999,0.3407 c 0.71967,0.31843 0.89839,0.43224 0.6788,0.43224 -0.0502,0 -0.39665,-0.17391 -0.76999,-0.38647 z m -42.25807,0.0614 c 0,-0.0242 0.40949,-0.22971 0.90998,-0.45673 l 0.90999,-0.41277 -0.82238,0.45674 c -0.76656,0.42574 -0.99759,0.52133 -0.99759,0.41276 z m 62.7189,-0.14053 c 0,-0.0242 0.4095,-0.22972 0.90999,-0.45674 l 0.90998,-0.41276 -0.82237,0.45674 c -0.76656,0.42574 -0.9976,0.52133 -0.9976,0.41276 z m -71.17125,-1.1763 c 0.20212,-0.0406 0.44361,-0.0356 0.53665,0.0111 0.093,0.0467 -0.0723,0.0799 -0.36749,0.0738 -0.32618,-0.007 -0.39253,-0.04 -0.16916,-0.0849 z m -3.06317,-0.57154 c -0.34827,-0.2229 -0.33837,-0.22787 0.10572,-0.0531 0.26949,0.10608 0.48999,0.21675 0.48999,0.24593 0,0.11567 -0.22993,0.0412 -0.59571,-0.19287 z m 7.07981,-1.01888 c 0,-0.19323 0.0636,-0.27228 0.14122,-0.17567 0.0777,0.0966 0.0777,0.25472 0,0.35134 -0.0777,0.0966 -0.14122,0.0176 -0.14122,-0.17567 z m 44.21712,-0.082 c 0.0134,-0.16371 0.0798,-0.19701 0.16916,-0.0849 0.0809,0.10145 0.0709,0.22266 -0.0221,0.26936 -0.093,0.0467 -0.15922,-0.0363 -0.14706,-0.18446 z m -52.35909,-0.56213 c 0.0134,-0.16372 0.0798,-0.19702 0.16917,-0.0849 0.0809,0.10145 0.0709,0.22266 -0.0221,0.26936 -0.093,0.0467 -0.15922,-0.0363 -0.14706,-0.18445 z m -7.50664,-0.0154 c 0.27242,-0.0356 0.65042,-0.0333 0.83998,0.005 0.18957,0.0385 -0.0333,0.0676 -0.49532,0.0648 -0.46199,-0.003 -0.61709,-0.0344 -0.34466,-0.07 z m 4.75991,-0.14054 c 0.27243,-0.0356 0.65042,-0.0333 0.83999,0.005 0.18957,0.0385 -0.0333,0.0677 -0.49532,0.0648 -0.46199,-0.003 -0.61709,-0.0344 -0.34467,-0.07 z m 35.00781,-0.71002 c 1.35504,-0.0258 3.497,-0.0257 4.75992,2.9e-4 1.26292,0.026 0.15425,0.0471 -2.46371,0.0469 -2.61795,-1.6e-4 -3.65125,-0.0214 -2.29621,-0.0472 z m 20.09801,-0.25831 c 0.0134,-0.16371 0.0798,-0.19702 0.16916,-0.0849 0.0809,0.10145 0.0709,0.22266 -0.0221,0.26936 -0.093,0.0467 -0.15922,-0.0363 -0.14706,-0.18445 z m -37.85716,-1.5693 c -0.34828,-0.2229 -0.33838,-0.22787 0.10571,-0.0531 0.2695,0.10608 0.48999,0.21675 0.48999,0.24593 0,0.11567 -0.22992,0.0412 -0.5957,-0.19287 z m 80.29048,-0.42737 c -0.0753,-0.0611 0.32677,-0.0882 0.89346,-0.0601 1.54954,0.0768 1.73403,0.1477 0.41688,0.16015 -0.6454,0.006 -1.23506,-0.0389 -1.31034,-0.10007 z m -21.95082,-0.45097 c 0,-0.27053 0.0576,-0.3812 0.12805,-0.24594 0.0704,0.13527 0.0704,0.35661 0,0.49187 -0.0704,0.13527 -0.12805,0.0246 -0.12805,-0.24593 z m 27.37456,0.0875 c 0,-0.0292 0.2205,-0.13985 0.48999,-0.24593 0.44409,-0.17481 0.45399,-0.16984 0.10571,0.0531 -0.36577,0.23409 -0.5957,0.30854 -0.5957,0.19287 z m -89.94843,-1.44536 c 0.19249,-0.039 0.50749,-0.039 0.69999,0 0.19249,0.039 0.035,0.0709 -0.35,0.0709 -0.38499,0 -0.54249,-0.0319 -0.34999,-0.0709 z m 4.62525,-0.14485 c 0.27242,-0.0356 0.65042,-0.0333 0.83998,0.005 0.18957,0.0385 -0.0333,0.0677 -0.49532,0.0648 -0.46199,-0.003 -0.61709,-0.0344 -0.34466,-0.07 z m 95.19362,-0.81608 c 0.003,-0.30918 0.0604,-0.41911 0.12742,-0.2443 0.067,0.17481 0.0644,0.42778 -0.006,0.56214 -0.0701,0.13436 -0.12488,-0.009 -0.12177,-0.31784 z m -107.30874,-0.12333 c 0,-0.0292 0.22049,-0.13985 0.48999,-0.24593 0.44409,-0.17481 0.45399,-0.16984 0.10571,0.0531 -0.36577,0.2341 -0.5957,0.30855 -0.5957,0.19288 z m 65.16886,-0.04 c 0.1925,-0.039 0.50749,-0.039 0.69999,0 0.1925,0.039 0.035,0.0709 -0.34999,0.0709 -0.385,0 -0.54249,-0.0319 -0.35,-0.0709 z m -59.60467,-0.2934 c -0.34828,-0.2229 -0.33838,-0.22787 0.10571,-0.0531 0.2695,0.10608 0.48999,0.21675 0.48999,0.24594 0,0.11566 -0.22993,0.0412 -0.5957,-0.19288 z m -11.44409,-1.21247 c 0,-0.0292 0.2205,-0.13985 0.48999,-0.24593 0.44409,-0.17481 0.45399,-0.16984 0.10572,0.0531 -0.36578,0.23409 -0.59571,0.30854 -0.59571,0.19287 z m 97.93927,-1.59701 c 0.96851,-0.0275 2.48049,-0.0273 3.35994,5e-4 0.87945,0.0278 0.087,0.0503 -1.76094,0.05 -1.84797,-2.8e-4 -2.56752,-0.023 -1.599,-0.0505 z m -89.59191,-0.27288 c 0.20212,-0.0406 0.44361,-0.0356 0.53665,0.0111 0.093,0.0467 -0.0723,0.0799 -0.36749,0.0738 -0.32618,-0.007 -0.39253,-0.0401 -0.16916,-0.0849 z m 2.78245,-0.003 c 0.34649,-0.0335 0.91348,-0.0335 1.25998,0 0.34649,0.0335 0.063,0.0609 -0.62999,0.0609 -0.69299,0 -0.97649,-0.0274 -0.62999,-0.0609 z m 60.47894,-0.002 c 0.50049,-0.0312 1.31948,-0.0312 1.81997,0 0.50049,0.0312 0.091,0.0567 -0.90998,0.0567 -1.00099,0 -1.41048,-0.0255 -0.90999,-0.0567 z"
       id="path120" /><path
       style="fill:#e77e81"
       d="m 357.91404,-155.61323 c 0.20212,-0.0406 0.44361,-0.0356 0.53665,0.0111 0.093,0.0467 -0.0723,0.0799 -0.36749,0.0738 -0.32618,-0.007 -0.39252,-0.04 -0.16916,-0.0849 z m 15.39973,0 c 0.20212,-0.0406 0.44362,-0.0356 0.53666,0.0111 0.093,0.0467 -0.0723,0.0799 -0.3675,0.0738 -0.32618,-0.007 -0.39252,-0.04 -0.16916,-0.0849 z m -8.39985,-15.03719 c 0.20212,-0.0406 0.44361,-0.0356 0.53665,0.0111 0.093,0.0467 -0.0723,0.0799 -0.36749,0.0738 -0.32618,-0.007 -0.39253,-0.04 -0.16916,-0.0849 z m 4.75991,0 c 0.20212,-0.0406 0.44362,-0.0356 0.53666,0.0111 0.093,0.0467 -0.0723,0.0799 -0.36749,0.0738 -0.32618,-0.007 -0.39253,-0.04 -0.16917,-0.0849 z m -20.27375,-3.17143 -0.53339,-0.3162 0.62999,0.26772 c 0.59204,0.25158 0.75746,0.36468 0.53339,0.36468 -0.0531,0 -0.33662,-0.14229 -0.62999,-0.3162 z m 39.13013,-5.16464 c 0,-0.19324 0.0636,-0.27229 0.14123,-0.17567 0.0777,0.0966 0.0777,0.25472 0,0.35134 -0.0777,0.0966 -0.14123,0.0176 -0.14123,-0.17567 z m -89.56732,-4.73503 c 0.27243,-0.0356 0.65042,-0.0333 0.83999,0.005 0.18957,0.0385 -0.0333,0.0676 -0.49532,0.0648 -0.46199,-0.003 -0.61709,-0.0344 -0.34467,-0.07 z m 43.90601,-0.13824 c -0.0122,-0.16825 -0.2426,-0.33482 -0.51209,-0.37017 -0.45922,-0.0602 -0.45867,-0.0653 0.009,-0.0806 0.54304,-0.0178 0.8996,0.28909 0.66971,0.57633 -0.0794,0.0992 -0.15425,0.0427 -0.16641,-0.12559 z m -32.9862,-0.002 c 0.27243,-0.0356 0.65042,-0.0333 0.83999,0.005 0.18956,0.0385 -0.0333,0.0677 -0.49532,0.0648 -0.46199,-0.003 -0.61709,-0.0344 -0.34467,-0.07 z m 11.05775,-0.14254 c 0.34829,-0.0336 0.85228,-0.0323 1.11998,0.003 0.2677,0.0352 -0.0173,0.0627 -0.63326,0.0611 -0.61599,-0.002 -0.83501,-0.0303 -0.48672,-0.064 z m 10.49655,-0.13802 c 0.26949,-0.0354 0.71049,-0.0354 0.97998,0 0.2695,0.0353 0.049,0.0643 -0.48999,0.0643 -0.53899,0 -0.75949,-0.0289 -0.48999,-0.0643 z m -209.78634,-4.22279 c 29.87321,-0.0964 51.7334,-0.0972 51.61588,-0.002 -0.0714,0.058 -14.26565,0.0903 -31.54276,0.0719 -17.27711,-0.0184 -26.31001,-0.05 -20.07312,-0.0701 z m 190.18729,-22.31163 c 0.003,-0.30917 0.0605,-0.41911 0.12742,-0.24429 0.067,0.17481 0.0644,0.42777 -0.006,0.56214 -0.0701,0.13436 -0.12488,-0.009 -0.12177,-0.31785 z m 89.4611,0.11141 c 0.34828,-0.0336 0.85228,-0.0323 1.11998,0.003 0.2677,0.0352 -0.0173,0.0627 -0.63326,0.0611 -0.61599,-0.002 -0.83501,-0.0303 -0.48672,-0.064 z m 15.39646,-0.14032 c 0.3465,-0.0335 0.91349,-0.0335 1.25998,0 0.34649,0.0335 0.063,0.0609 -0.62999,0.0609 -0.69299,0 -0.97648,-0.0274 -0.62999,-0.0609 z m 15.11974,-0.14053 c 0.34649,-0.0335 0.91348,-0.0335 1.25998,0 0.34649,0.0335 0.063,0.0609 -0.62999,0.0609 -0.69299,0 -0.97649,-0.0274 -0.62999,-0.0609 z m -72.58874,-7.77076 c 0.27874,-0.15458 0.56979,-0.28107 0.64679,-0.28107 0.077,0 -0.0881,0.12649 -0.36679,0.28107 -0.27873,0.15459 -0.56978,0.28107 -0.64678,0.28107 -0.077,0 0.0881,-0.12648 0.36678,-0.28107 z m 11.00731,-2.20402 c 0.20212,-0.0406 0.44362,-0.0356 0.53666,0.0111 0.093,0.0467 -0.0723,0.0799 -0.36749,0.0738 -0.32618,-0.007 -0.39253,-0.04 -0.16917,-0.0849 z m -46.14669,-5.29737 c 0,-0.0292 0.22049,-0.13985 0.48999,-0.24593 0.44409,-0.17481 0.45399,-0.16984 0.10571,0.0531 -0.36578,0.23409 -0.5957,0.30854 -0.5957,0.19287 z m 46.83451,-9.03853 c 0.27243,-0.0356 0.65042,-0.0333 0.83998,0.005 0.18957,0.0385 -0.0333,0.0676 -0.49532,0.0648 -0.46199,-0.003 -0.61709,-0.0344 -0.34466,-0.07 z m 8.81452,0.004 c 0.19249,-0.039 0.50749,-0.039 0.69998,0 0.1925,0.039 0.035,0.0709 -0.34999,0.0709 -0.38499,0 -0.54249,-0.0319 -0.34999,-0.0709 z"
       id="path119" /><path
       style="fill:#7885a8"
       d="m 466.67464,-127.79585 c 1.19348,-0.0263 3.14645,-0.0263 4.33992,0 1.19348,0.0263 0.217,0.0479 -2.16996,0.0479 -2.38696,0 -3.36344,-0.0215 -2.16996,-0.0479 z m 17.63969,0 c 1.19348,-0.0263 3.14645,-0.0263 4.33993,0 1.19348,0.0263 0.21699,0.0479 -2.16997,0.0479 -2.38695,0 -3.36344,-0.0215 -2.16996,-0.0479 z M 438.56942,-128.64 c -0.34828,-0.2229 -0.33838,-0.22787 0.10571,-0.0531 0.26949,0.10608 0.48999,0.21675 0.48999,0.24594 0,0.11566 -0.22993,0.0412 -0.5957,-0.19288 z m -293.39959,-0.14053 c -2.3e-4,-0.058 1.92123,-0.0891 4.26992,-0.0692 7.80261,0.0661 8.54289,0.11771 2.10039,0.14631 -3.50344,0.0156 -6.37008,-0.0191 -6.37031,-0.0771 z m 352.31436,-4.04037 c 0.002,-0.38647 0.0565,-0.52789 0.12083,-0.31427 0.0644,0.21362 0.0626,0.52982 -0.004,0.70267 -0.0665,0.17285 -0.11911,-0.002 -0.11701,-0.3884 z m -58.65156,0.25533 c 0.20212,-0.0406 0.44361,-0.0356 0.53665,0.0111 0.093,0.0467 -0.0723,0.0799 -0.36749,0.0738 -0.32618,-0.007 -0.39253,-0.04 -0.16916,-0.0849 z m 4.75991,-0.14053 c 0.20212,-0.0406 0.44362,-0.0356 0.53666,0.0111 0.093,0.0467 -0.0723,0.0799 -0.36749,0.0738 -0.32618,-0.007 -0.39253,-0.04 -0.16917,-0.0849 z m 62.25563,-0.46614 c 0,-0.19323 0.0636,-0.27228 0.14122,-0.17567 0.0777,0.0966 0.0777,0.25472 0,0.35134 -0.0777,0.0966 -0.14122,0.0176 -0.14122,-0.17567 z m 36.58265,-2.48509 c 0.20212,-0.0406 0.44362,-0.0356 0.53666,0.0111 0.093,0.0467 -0.0723,0.0799 -0.3675,0.0738 -0.32618,-0.007 -0.39252,-0.04 -0.16916,-0.0849 z m -102.65112,-1.66068 c 0.006,-0.23188 0.0684,-0.30973 0.13944,-0.17299 0.071,0.13674 0.0663,0.32646 -0.0104,0.4216 -0.0767,0.0951 -0.13478,-0.0167 -0.12907,-0.24861 z m 19.21257,-0.3068 c 0.20213,-0.0406 0.44362,-0.0356 0.53666,0.0111 0.093,0.0467 -0.0723,0.0799 -0.36749,0.0738 -0.32618,-0.007 -0.39253,-0.0401 -0.16917,-0.0849 z m 82.72491,-1.26965 c 0.42561,-0.0323 1.0556,-0.0314 1.39998,0.002 0.34437,0.0334 -0.004,0.0598 -0.77384,0.0587 -0.76999,-10e-4 -1.05175,-0.0283 -0.62614,-0.0607 z m -7.28372,-2.81315 c 0.73149,-0.029 1.92847,-0.029 2.65995,0 0.73149,0.0289 0.133,0.0526 -1.32997,0.0526 -1.46298,0 -2.06147,-0.0237 -1.32998,-0.0526 z m -83.15855,-0.27464 c 0.26949,-0.0353 0.71049,-0.0353 0.97998,0 0.2695,0.0353 0.049,0.0643 -0.48999,0.0643 -0.53899,0 -0.75949,-0.0289 -0.48999,-0.0643 z"
       id="path118" /><path
       style="fill:#e15f62"
       d="m 364.47642,-155.47999 c 0.73149,-0.029 1.92847,-0.029 2.65996,0 0.73148,0.0289 0.13299,0.0526 -1.32998,0.0526 -1.46298,0 -2.06146,-0.0237 -1.32998,-0.0526 z m -7.40237,-0.13324 c 0.20212,-0.0406 0.44362,-0.0356 0.53666,0.0111 0.093,0.0467 -0.0723,0.0799 -0.36749,0.0738 -0.32618,-0.007 -0.39253,-0.04 -0.16917,-0.0849 z m 17.0797,0 c 0.20213,-0.0406 0.44362,-0.0356 0.53666,0.0111 0.093,0.0467 -0.0723,0.0799 -0.36749,0.0738 -0.32618,-0.007 -0.39253,-0.04 -0.16917,-0.0849 z m -20.99963,-0.14053 c 0.20212,-0.0406 0.44362,-0.0356 0.53666,0.0111 0.093,0.0467 -0.0723,0.0799 -0.3675,0.0738 -0.32617,-0.007 -0.39252,-0.04 -0.16916,-0.0849 z m 67.81132,-10.35662 c 0,-0.0292 0.22049,-0.13985 0.48999,-0.24593 0.44409,-0.17481 0.45399,-0.16984 0.10571,0.0531 -0.36577,0.23409 -0.5957,0.30854 -0.5957,0.19287 z m -54.8052,-4.54489 c 0.42561,-0.0323 1.0556,-0.0314 1.39998,0.002 0.34438,0.0334 -0.004,0.0598 -0.77384,0.0587 -0.76998,-0.001 -1.05175,-0.0283 -0.62614,-0.0607 z m 2.37611,0.008 c 0.1925,-0.039 0.50749,-0.039 0.69999,0 0.1925,0.039 0.035,0.0709 -0.34999,0.0709 -0.385,0 -0.54249,-0.0319 -0.35,-0.0709 z m -70.18667,-7.99938 c 0.0134,-0.16371 0.0798,-0.19701 0.16916,-0.0849 0.0809,0.10145 0.0709,0.22266 -0.0221,0.26936 -0.093,0.0467 -0.15922,-0.0363 -0.14706,-0.18446 z m 86.04979,-5.01239 -0.53339,-0.31621 0.62999,0.26772 c 0.59204,0.25159 0.75746,0.36469 0.53339,0.36469 -0.0531,0 -0.33663,-0.14229 -0.62999,-0.3162 z m -76.62206,-0.20459 c 0.3465,-0.0335 0.91349,-0.0335 1.25998,0 0.34649,0.0335 0.063,0.0609 -0.62999,0.0609 -0.69299,0 -0.97648,-0.0274 -0.62999,-0.0609 z m 11.3398,-0.13822 c 0.2695,-0.0353 0.71049,-0.0353 0.97999,0 0.26949,0.0353 0.049,0.0643 -0.48999,0.0643 -0.539,0 -0.75949,-0.0289 -0.49,-0.0643 z m 10.50309,-0.14306 c 0.34828,-0.0336 0.85228,-0.0323 1.11998,0.003 0.2677,0.0352 -0.0173,0.0627 -0.63326,0.0611 -0.61599,-0.002 -0.83501,-0.0303 -0.48672,-0.064 z m 10.63655,-0.14032 c 0.34649,-0.0335 0.91348,-0.0335 1.25997,0 0.3465,0.0335 0.063,0.0609 -0.62999,0.0609 -0.69298,0 -0.97648,-0.0274 -0.62998,-0.0609 z m 84.05346,-13.07593 -0.96491,-0.527 1.04998,0.4843 c 0.9773,0.45078 1.17872,0.5697 0.96491,0.5697 -0.0468,0 -0.51928,-0.23715 -1.04998,-0.527 z m -102.33367,-0.91347 -1.38945,-0.73781 1.46997,0.69739 c 0.80849,0.38356 1.46998,0.71558 1.46998,0.73781 0,0.10486 -0.2594,-0.0118 -1.5505,-0.69739 z m -174.42643,-5.58625 -31.35946,-0.0721 31.27293,-0.0342 c 20.62045,-0.0226 31.33188,0.0137 31.44598,0.10632 0.0952,0.0773 0.13411,0.12513 0.0865,0.10631 -0.0476,-0.0188 -14.19828,-0.0667 -31.44597,-0.10631 z m 164.26134,-6.04299 c 0,-0.19323 0.0635,-0.27228 0.14123,-0.17566 0.0777,0.0966 0.0777,0.25471 0,0.35133 -0.0777,0.0966 -0.14123,0.0176 -0.14123,-0.17567 z m 91.72921,-0.66398 c 0.50325,-0.0313 1.25923,-0.0306 1.67997,0.001 0.42073,0.0321 0.009,0.0577 -0.915,0.0569 -0.92399,-7.9e-4 -1.26822,-0.027 -0.76497,-0.0583 z m -9.99274,-0.2612 c 0.0134,-0.16372 0.0798,-0.19702 0.16916,-0.0849 0.0809,0.10145 0.0709,0.22266 -0.0221,0.26936 -0.093,0.0467 -0.15922,-0.0363 -0.14706,-0.18445 z m 25.52745,0.12185 c 0.42349,-0.0322 1.11648,-0.0322 1.53997,0 0.4235,0.0322 0.077,0.0586 -0.76998,0.0586 -0.84699,0 -1.19348,-0.0264 -0.76999,-0.0586 z m 15.12359,-0.14072 c 0.42561,-0.0323 1.0556,-0.0314 1.39997,0.002 0.34438,0.0334 -0.004,0.0598 -0.77383,0.0587 -0.76999,-0.001 -1.05175,-0.0284 -0.62614,-0.0607 z m -122.37713,-0.67209 c 0.006,-0.23189 0.0684,-0.30973 0.13945,-0.173 0.071,0.13674 0.0663,0.32646 -0.0104,0.42161 -0.0767,0.0951 -0.13478,-0.0167 -0.12907,-0.24861 z m 59.78812,-9.30644 c 0.49706,-0.031 1.37904,-0.0316 1.95997,-0.001 0.58092,0.0304 0.17424,0.0558 -0.90374,0.0565 -1.07798,6.2e-4 -1.55328,-0.0243 -1.05623,-0.0553 z m -44.44298,-6.83783 c 0,-0.0292 0.2205,-0.13985 0.48999,-0.24593 0.44409,-0.17481 0.454,-0.16984 0.10572,0.0531 -0.36578,0.23409 -0.59571,0.30854 -0.59571,0.19287 z m 42.48926,-7.48834 c 0.1925,-0.039 0.50749,-0.039 0.69999,0 0.1925,0.039 0.035,0.0709 -0.34999,0.0709 -0.385,0 -0.54249,-0.0319 -0.35,-0.0709 z m 11.3398,-0.004 c 0.2695,-0.0353 0.71049,-0.0353 0.97999,0 0.26949,0.0354 0.049,0.0643 -0.48999,0.0643 -0.53899,0 -0.75949,-0.0289 -0.49,-0.0643 z"
       id="path117" /><path
       style="fill:#576693"
       d="m 449.19245,-127.50632 c 0.20212,-0.0406 0.44361,-0.0356 0.53665,0.0111 0.093,0.0467 -0.0723,0.0799 -0.36749,0.0738 -0.32618,-0.007 -0.39253,-0.04 -0.16916,-0.0849 z m 58.51897,0 c 0.20213,-0.0406 0.44362,-0.0356 0.53666,0.0111 0.093,0.0467 -0.0723,0.0799 -0.36749,0.0738 -0.32618,-0.007 -0.39253,-0.04 -0.16917,-0.0849 z m -342.2917,-1.27414 c 4.28432,-0.0218 11.2142,-0.0218 15.39973,4e-5 4.18552,0.0219 0.68016,0.0397 -7.78969,0.0397 -8.46985,-2e-5 -11.89437,-0.0179 -7.61004,-0.0397 z m 345.09166,-1.81762 c 0.20212,-0.0406 0.44361,-0.0356 0.53665,0.0111 0.093,0.0467 -0.0723,0.0799 -0.36749,0.0738 -0.32618,-0.007 -0.39253,-0.04 -0.16916,-0.0849 z m -58.46648,-0.0976 c 0,-0.0292 0.22049,-0.13985 0.48999,-0.24593 0.44408,-0.17481 0.45399,-0.16984 0.10571,0.0531 -0.36578,0.23409 -0.5957,0.30854 -0.5957,0.19287 z m 54.99243,-0.54421 -0.53338,-0.3162 0.62998,0.26772 c 0.59204,0.25158 0.75746,0.36468 0.53339,0.36468 -0.0531,0 -0.33662,-0.14229 -0.62999,-0.3162 z m 7.86647,-0.24593 c 0.27873,-0.15459 0.56978,-0.28107 0.64678,-0.28107 0.077,0 -0.088,0.12648 -0.36679,0.28107 -0.27873,0.15458 -0.56978,0.28107 -0.64678,0.28107 -0.077,0 0.0881,-0.12649 0.36679,-0.28107 z m -75.23119,-1.07975 c 0.20212,-0.0406 0.44362,-0.0356 0.53666,0.0111 0.093,0.0467 -0.0723,0.0799 -0.36749,0.0738 -0.32618,-0.007 -0.39253,-0.04 -0.16917,-0.0849 z m 21.67708,-0.3256 c 0,-0.27053 0.0576,-0.3812 0.12805,-0.24593 0.0704,0.13526 0.0704,0.3566 0,0.49187 -0.0704,0.13526 -0.12805,0.0246 -0.12805,-0.24594 z m -16.91716,0.18507 c 0.20212,-0.0406 0.44362,-0.0356 0.53666,0.0111 0.093,0.0467 -0.0723,0.0799 -0.3675,0.0738 -0.32618,-0.007 -0.39252,-0.04 -0.16916,-0.0849 z m 107.15063,-1.44988 c 0.27873,-0.15459 0.56978,-0.28107 0.64678,-0.28107 0.077,0 -0.0881,0.12648 -0.36679,0.28107 -0.27873,0.15459 -0.56978,0.28107 -0.64678,0.28107 -0.077,0 0.0881,-0.12648 0.36679,-0.28107 z m -110.06468,-1.01887 -0.53339,-0.31621 0.62999,0.26772 c 0.59203,0.25159 0.75745,0.36469 0.53338,0.36469 -0.0531,0 -0.33662,-0.14229 -0.62998,-0.3162 z m 36.91596,-1.75592 c 1.34747,-0.0258 3.55243,-0.0258 4.89991,0 1.34748,0.0258 0.245,0.0468 -2.44996,0.0468 -2.69495,0 -3.79743,-0.0211 -2.44995,-0.0468 z m -20.28215,-0.69404 c 0.20212,-0.0406 0.44362,-0.0356 0.53666,0.0111 0.093,0.0467 -0.0723,0.0799 -0.3675,0.0738 -0.32618,-0.007 -0.39252,-0.0401 -0.16916,-0.0849 z m -7.43204,-1.6878 c 0.27242,-0.0356 0.65042,-0.0333 0.83998,0.005 0.18957,0.0385 -0.0333,0.0676 -0.49532,0.0648 -0.46199,-0.003 -0.61709,-0.0344 -0.34466,-0.07 z m 72.9822,-0.99175 -0.67879,-0.38647 0.76998,0.3407 c 0.4235,0.18738 0.76999,0.36129 0.76999,0.38646 0,0.11022 -0.22674,0.0205 -0.86118,-0.34069 z"
       id="path116" /><path
       style="fill:#da3539"
       d="m 22.714204,-148.94689 c 0.08076,-0.2514 7.665169,-25.65844 16.854241,-56.46009 l 16.707405,-56.00301 272.75704,-0.0352 c 259.67666,-0.0335 272.75151,-0.0234 272.64163,0.2108 -0.0635,0.1353 -7.61268,25.41574 -16.776,56.17874 -9.16331,30.76301 -16.72487,56.07504 -16.80344,56.24895 l -0.14287,0.3162 H 434.85177 301.75133 l -0.58031,-1.58101 c -0.31917,-0.86956 -8.52734,-23.7152 -18.24037,-50.7681 -9.71304,-27.05289 -17.75061,-49.29206 -17.86128,-49.42036 -0.14538,-0.16855 -18.54018,13.90789 -66.29677,50.73296 l -66.09557,50.96624 -55.054829,0.0355 -55.054835,0.0355 z m 348.832096,-6.56855 c 15.23936,-0.38652 26.65195,-1.97809 36.80007,-5.13205 7.04399,-2.18922 13.98296,-5.6937 18.64208,-9.41506 5.12687,-4.09496 7.60108,-8.21725 7.88666,-13.13998 0.30606,-5.27575 -2.19732,-9.24903 -8.08886,-12.83839 -8.19681,-4.99381 -22.47376,-8.41854 -51.88159,-12.44526 -7.21895,-0.98847 -10.20127,-1.48361 -12.85023,-2.13348 -4.53338,-1.11216 -6.76752,-2.86062 -6.05724,-4.74044 0.69466,-1.83848 3.55022,-3.66562 7.00926,-4.48488 3.10482,-0.73537 5.51726,-0.92241 10.86694,-0.84253 5.24454,0.0783 7.09832,0.26572 10.41269,1.05268 5.28002,1.25369 8.62037,4.10279 9.14879,7.80332 0.097,0.67904 0.29554,1.2716 0.44128,1.31681 0.30722,0.0953 39.50535,-0.20283 42.17882,-0.3208 l 1.78976,-0.079 -0.15987,-2.41089 c -0.31504,-4.75094 -2.53057,-8.61084 -6.86648,-11.96274 -1.67979,-1.29857 -6.62538,-3.77551 -9.39737,-4.70656 -7.26992,-2.44181 -17.37438,-4.06394 -29.71506,-4.77034 -8.84838,-0.50649 -21.52766,-0.543 -29.25949,-0.0842 -17.58971,1.04364 -30.81361,4.21146 -39.60038,9.48638 -10.04229,6.02863 -13.55237,13.86446 -9.14331,20.41134 3.33961,4.95888 10.78144,8.72643 23.54413,11.91959 7.32772,1.83336 13.91885,3.04976 25.75955,4.75395 11.4737,1.65138 17.79667,3.00693 21.08919,4.52121 1.46829,0.67529 2.11975,1.11537 3.05806,2.06579 1.17623,1.19142 1.19231,1.22774 1.19231,2.69391 0,1.07176 -0.14128,1.68948 -0.50663,2.21514 -1.13064,1.62679 -4.35309,3.55052 -7.5726,4.52068 -3.83238,1.15485 -7.37169,1.58052 -13.0846,1.57369 -7.61069,-0.009 -12.67255,-0.87418 -17.069,-2.91715 -4.31666,-2.00591 -6.54325,-4.88564 -6.90947,-8.93631 l -0.16254,-1.79787 -4.08712,0.0799 c -3.99299,0.0781 -16.84582,0.25132 -32.71661,0.44098 l -7.90986,0.0945 v 2.43157 c 0,1.35207 0.18544,3.13665 0.41771,4.01978 1.54088,5.85872 6.47095,10.96822 14.11581,14.62955 9.40557,4.50458 26.49421,6.88626 51.96532,7.2425 0.76998,0.0108 3.79393,-0.0411 6.71988,-0.11535 z m -266.69535,-17.00646 5.70054,-15.73987 h 31.31792 c 24.79682,0 31.34559,-0.0366 31.45077,-0.17567 0.28081,-0.37132 5.61668,-15.43343 5.48995,-15.49704 -0.0736,-0.0369 -14.16156,-0.0672 -31.30659,-0.0672 -21.69471,0 -31.17279,-0.0451 -31.17279,-0.14838 0,-0.15193 4.36712,-12.31469 4.62687,-12.88619 l 0.14372,-0.31621 h 36.66869 36.66869 l 0.15274,-0.3162 c 0.32954,-0.68224 5.73783,-15.90136 5.73783,-16.14647 0,-0.25343 -1.7784,-0.26093 -61.87359,-0.26093 H 76.582112 l -0.145213,0.3162 c -0.07987,0.17391 -6.324746,17.45439 -13.877509,38.40106 -7.552763,20.94667 -13.798199,38.19552 -13.878746,38.33079 -0.138718,0.23295 1.189573,0.24593 25.161661,0.24593 h 25.30811 z m 401.9393,14.72099 c 0.0944,-0.25121 5.05129,-13.04161 11.01525,-28.42311 l 10.84356,-27.96637 22.37361,-0.0703 22.3736,-0.0703 3.40177,-8.78341 c 1.87098,-4.83088 3.48912,-9.02056 3.59588,-9.31041 l 0.19411,-0.52701 h -66.63266 c -63.21675,0 -66.64023,0.0126 -66.78033,0.24594 -0.0812,0.13526 -1.67317,4.19847 -3.53766,9.02934 -1.86449,4.83088 -3.45816,8.9257 -3.54148,9.09961 l -0.1515,0.3162 h 22.28996 c 18.67699,0 22.28997,0.0312 22.28997,0.19237 0,0.10579 -4.83972,12.67485 -10.75492,27.93123 -5.91521,15.25638 -10.84315,27.97603 -10.95097,28.26588 l -0.19605,0.527 h 21.99809 21.99809 z"
       id="path115" /><path
       style="fill:#3a4c80"
       d="m 444.48503,-127.55061 c -3.38403,-0.22729 -5.27576,-0.68235 -6.22387,-1.49716 -0.67325,-0.57858 -1.41674,-2.38877 -1.2092,-2.94404 l 0.16314,-0.43648 2.30499,-0.0901 c 1.26774,-0.0495 3.01516,-0.0904 3.88316,-0.0909 l 1.57818,-8.4e-4 0.18599,0.62251 c 0.22359,0.74835 1.04374,1.31028 2.29557,1.57281 3.63708,0.76274 7.72848,-1.06004 5.21189,-2.32198 -0.54536,-0.27348 -1.46425,-0.4766 -3.14994,-0.6963 -6.96841,-0.9082 -9.52367,-1.95921 -9.5171,-3.91448 0.004,-1.04806 0.93737,-2.07544 2.64258,-2.90726 2.29737,-1.12067 5.3368,-1.63058 9.71952,-1.63058 6.69145,0 9.72499,1.00076 10.21859,3.3711 l 0.17595,0.84494 h -1.53684 c -0.84527,0 -2.69018,0.0411 -4.09982,0.0913 l -2.56297,0.0913 v -0.44043 c 0,-0.2851 -0.27989,-0.59766 -0.79363,-0.88625 -0.72098,-0.405 -0.95018,-0.44689 -2.50337,-0.45748 -1.88829,-0.0129 -2.98541,0.26863 -3.63479,0.93264 -0.73992,0.75659 -0.0355,0.99623 4.68599,1.59415 4.45616,0.56431 6.87793,1.19245 8.08097,2.09597 0.90864,0.68243 0.93218,0.7364 0.82743,1.89722 -0.13327,1.47701 -0.847,2.29038 -2.93336,3.34286 -3.1156,1.57169 -8.09381,2.2413 -13.80906,1.85743 z m 62.43268,0.003 c -3.65409,-0.23676 -6.46437,-1.0691 -8.02726,-2.37749 -1.07148,-0.897 -1.344,-1.78197 -1.12627,-3.65742 0.57962,-4.9927 7.17644,-8.28911 16.61141,-8.30067 8.1236,-0.01 12.69096,2.27111 12.02595,6.00608 -0.64832,3.64118 -3.92391,6.36897 -9.14406,7.61482 -3.28178,0.78323 -6.18482,0.98389 -10.33977,0.71468 z m 6.66373,-3.40484 c 2.05977,-0.48386 3.3214,-1.58459 4.13383,-3.60662 0.79983,-1.9907 0.3616,-2.97693 -1.65932,-3.73424 -0.61291,-0.22968 -1.18983,-0.28976 -2.78265,-0.28976 -3.65176,0 -5.39561,0.80977 -6.65822,3.09176 -0.77616,1.40281 -0.86398,3.17199 -0.18887,3.80467 0.62934,0.58978 1.14663,0.78014 2.68332,0.98746 1.54132,0.20793 2.81585,0.13575 4.47191,-0.25327 z m 14.90141,3.22567 c -3.9e-4,-0.0966 1.09648,-3.26342 2.43749,-7.03734 l 2.43821,-6.86168 8.41232,0.0457 8.41231,0.0458 1.62425,0.40031 c 2.13795,0.52692 3.00824,1.17225 3.20028,2.37306 0.25499,1.59442 -0.93221,3.26249 -3.18068,4.469 -2.0978,1.12566 -4.91262,1.52724 -10.77131,1.5367 l -2.68758,0.004 -0.62819,1.93235 c -0.34551,1.06279 -0.75301,2.23274 -0.90556,2.59988 l -0.27737,0.66754 h -4.03673 c -3.04234,0 -4.0369,-0.0433 -4.03744,-0.17567 z m 16.36997,-8.12607 c 2.25092,-0.54431 2.80162,-2.20015 0.92716,-2.78771 -0.32088,-0.10058 -1.5594,-0.21645 -2.75226,-0.25748 l -2.16885,-0.0746 -0.29678,0.75694 c -0.42833,1.09243 -0.87872,2.40329 -0.87872,2.55748 0,0.19805 4.19943,0.04 5.16945,-0.19461 z m -80.07262,7.70447 c 0.0804,-0.17391 1.1561,-3.16203 2.39042,-6.64025 1.23433,-3.47823 2.31493,-6.49797 2.40135,-6.71053 l 0.15711,-0.38647 h 4.03768 c 3.65959,0 4.03748,0.023 4.03549,0.24594 -0.001,0.13526 -0.37821,1.25778 -0.83779,2.49448 -0.45958,1.23671 -0.83658,2.26437 -0.83779,2.28369 -10e-4,0.0193 2.12541,0.0351 4.72581,0.0351 h 4.72801 l 0.57954,-1.58101 c 0.31875,-0.86956 0.73288,-2.00789 0.92029,-2.52962 l 0.34076,-0.94861 h 4.15686 4.15686 l -0.1397,0.3162 c -0.0768,0.17392 -1.15118,3.16203 -2.38745,6.64026 -1.23626,3.47823 -2.31978,6.49797 -2.40783,6.71052 l -0.16009,0.38647 h -4.03768 c -3.65882,0 -4.03767,-0.0231 -4.0375,-0.24593 10e-5,-0.13527 0.37614,-1.28941 0.83563,-2.56476 0.4595,-1.27535 0.83741,-2.43102 0.8398,-2.56815 0.004,-0.23042 -0.3507,-0.24641 -4.67649,-0.2108 l -4.68085,0.0385 -0.96864,2.77556 -0.96864,2.77555 h -4.15568 -4.15567 z m -297.86308,-0.63239 c -12.43521,-0.0213 -21.47324,-0.0897 -21.41963,-0.16211 0.051,-0.0689 22.51651,-17.93973 49.92332,-39.71303 38.17786,-30.33035 49.87966,-39.52729 50.04051,-39.32898 0.11547,0.14236 7.52604,17.93457 16.46793,39.53824 8.9419,21.60367 16.32513,39.39007 16.4072,39.52533 0.14173,0.23361 -2.10678,0.24422 -44.87887,0.21169 -24.76545,-0.0188 -54.70866,-0.0508 -66.54046,-0.0711 z"
       id="path114" /></g></svg>
