<?xml version="1.0" encoding="UTF-8" standalone="no"?>
<svg
   height="476.77899"
   viewBox="0 0 640.2 126.2"
   width="2419.4851"
   version="1.1"
   id="svg14"
   sodipodi:docname="aliexpress.svg"
   xml:space="preserve"
   inkscape:export-filename="extra.svg"
   inkscape:export-xdpi="96"
   inkscape:export-ydpi="96"
   xmlns:inkscape="http://www.inkscape.org/namespaces/inkscape"
   xmlns:sodipodi="http://sodipodi.sourceforge.net/DTD/sodipodi-0.dtd"
   xmlns="http://www.w3.org/2000/svg"
   xmlns:svg="http://www.w3.org/2000/svg"><defs
     id="defs14" /><sodipodi:namedview
     id="namedview14"
     pagecolor="#ffffff"
     bordercolor="#000000"
     borderopacity="0.25"
     inkscape:showpageshadow="2"
     inkscape:pageopacity="0.0"
     inkscape:pagecheckerboard="0"
     inkscape:deskcolor="#d1d1d1" /><g
     id="g229"
     transform="matrix(7.7893493,0,0,5.2603699,-2187.8931,252.79597)"><path
       style="fill:#fdac00;fill-opacity:1;stroke-width:1.18376"
       d="m 1137.3146,-92.255046 c -1.0766,-0.04887 -2.3979,-0.296432 -2.9363,-0.550149 -0.5383,-0.253713 -1.1989,-0.549822 -1.4681,-0.658014 -0.5254,-0.211206 -1.2219,-0.621324 -2.7731,-1.632967 -1.3566,-0.884661 -3.8166,-3.536125 -4.4675,-4.815098 -1.6924,-3.325736 -1.7314,-3.511696 -1.7283,-8.241276 0,-3.73707 0.1059,-4.74548 0.5689,-5.54629 0.3113,-0.53831 0.5668,-1.23567 0.5679,-1.54969 0,-0.31402 0.1122,-0.57187 0.2467,-0.57301 0.1346,-0.001 0.4772,-0.41083 0.7613,-0.91045 0.5992,-1.05373 0.464,-1.37277 -1.4344,-3.38558 -2.0352,-2.1578 -2.8341,-4.30302 -2.8341,-7.6101 0,-3.37772 0.7699,-5.37029 3.08,-7.97135 0.8182,-0.92118 1.4876,-1.76467 1.4876,-1.87443 0,-0.10976 -0.5506,-1.31607 -1.2235,-2.68069 l -1.2234,-2.48113 0.01,-4.73065 c 0.01,-3.85243 0.1142,-4.91236 0.5689,-5.70941 0.3072,-0.53832 0.5593,-1.16227 0.5604,-1.38657 0,-0.2243 0.1345,-0.40782 0.2964,-0.40782 0.1619,0 0.4352,-0.40422 0.6075,-0.89826 0.3467,-0.9946 3.7529,-4.55141 4.7962,-5.00828 0.3651,-0.15988 0.8841,-0.41635 1.1532,-0.56994 2.4552,-1.40098 6.6357,-2.24568 9.029,-1.82437 0.8658,0.15241 3.3839,0.28398 5.5957,0.29239 4.7169,0.0179 4.9505,0.16176 4.9505,3.04853 0,1.47081 0.1639,1.97357 0.9787,3.00242 0.5383,0.67968 0.9788,1.38019 0.9788,1.5567 0,0.1765 0.2202,0.50368 0.4894,0.72706 0.2691,0.22339 0.4893,0.72715 0.4893,1.11948 0,0.39233 0.2156,0.99831 0.479,1.34662 0.72,0.95186 0.6911,8.16616 -0.039,9.83885 -1.0533,2.41201 -1.9101,4.00766 -2.1519,4.00766 -0.1349,0 -0.2453,0.1532 -0.2453,0.34045 0,0.30624 -2.8859,3.2515 -3.982,4.06395 -0.8753,0.64873 -2.7287,1.47012 -3.7733,1.67221 -0.5869,0.11355 -1.1461,0.3343 -1.2427,0.49057 -0.2345,0.37945 -7.5514,0.36653 -7.7864,-0.0138 -0.266,-0.43043 -2.6196,-0.77031 -3.6965,-0.53379 -0.8433,0.18523 -1.8238,0.94899 -2.9618,2.3072 -0.7506,0.89593 -0.8041,2.80812 -0.1138,4.07074 1.2338,2.2568 4.6818,3.73702 5.8898,2.52846 0.2833,-0.28345 1.6712,-0.40782 4.5512,-0.40782 4.2715,0 4.3337,0.0137 7.8786,1.7369 2.206,1.07235 6.2157,4.98251 6.2157,6.06145 0,0.21482 0.1714,0.56204 0.381,0.7716 0.9451,0.94507 1.3755,2.96635 1.4924,7.00909 0.098,3.37726 0.025,4.29659 -0.3871,4.88481 -0.2792,0.39853 -0.5076,1.04098 -0.5076,1.42768 0,0.3867 -0.2202,0.88586 -0.4893,1.10924 -0.2692,0.22338 -0.4894,0.54858 -0.4894,0.72267 0,0.174083 -0.5506,1.015144 -1.2235,1.869018 -1.4816,1.880083 -4.1998,4.051832 -5.9541,4.756983 -0.2691,0.108192 -0.9298,0.396481 -1.4681,0.640641 -1.0379,0.47074 -4.2626,0.714629 -7.5038,0.567522 z m 4.7963,-7.383223 c 2.2304,-0.590461 3.1259,-1.078511 4.5476,-2.478621 2.1439,-2.11129 2.4023,-2.76215 2.3908,-6.02243 -0.01,-2.85139 -0.049,-3.00259 -1.1419,-4.46864 -3.2866,-4.40755 -9.1851,-5.5077 -13.9068,-2.5938 -0.8689,0.53618 -1.8,1.2952 -2.0692,1.6867 -0.2691,0.39149 -0.6748,0.90552 -0.9015,1.14227 -0.2267,0.23676 -0.5026,0.88249 -0.6131,1.43495 -0.1105,0.55247 -0.3287,1.0835 -0.485,1.18007 -0.4554,0.28144 -0.3288,2.32474 0.2544,4.10792 0.5421,1.65737 2.57,4.15534 4.0783,5.0237 2.3795,1.369935 5.1064,1.71325 7.8464,0.987881 z m 1.9459,-39.874211 c 1.4485,-0.74212 3.861,-2.72516 3.861,-3.17359 0,-0.17824 0.2521,-0.60259 0.5601,-0.94301 0.8233,-0.90975 0.8315,-6.42829 0.011,-7.33532 -0.314,-0.34708 -0.5709,-0.77554 -0.5709,-0.95214 0,-0.64273 -2.3707,-2.59702 -3.915,-3.22732 -0.2692,-0.10986 -0.9715,-0.40925 -1.5608,-0.66531 -2.9907,-1.29958 -7.9462,0.1542 -10.5534,3.09603 -0.7024,0.79252 -1.356,1.82021 -1.4524,2.28376 -0.097,0.46355 -0.3134,1.09775 -0.482,1.40933 -0.4496,0.83095 -0.3772,1.9512 0.2598,4.01991 0.8544,2.77476 3.0059,4.77396 6.6112,6.14342 1.0735,0.40777 6.0338,-0.042 7.2316,-0.65576 z"
       id="path223"
       transform="matrix(0.26469287,0,0,0.26469287,-0.11022934,0)" /><path
       style="fill:#fdac00;fill-opacity:1;stroke-width:1.18376"
       d="m 1164.6349,-132.40307 c -0.323,-0.20504 -0.393,-3.47464 -0.3263,-15.24729 l 0.085,-14.98628 3.5072,-0.0926 3.5072,-0.0926 v 15.34488 15.34488 l -3.1809,-0.005 c -1.7495,-0.003 -3.366,-0.12245 -3.5921,-0.266 z"
       id="path224"
       transform="matrix(0.26469287,0,0,0.26469287,-0.11022934,0)" /><path
       style="fill:#fdac00;fill-opacity:1;stroke-width:1.18376"
       d="m 1165.1795,-169.29982 c -3.9451,-3.25187 -0.7133,-9.1988 4.2091,-7.74539 2.1052,0.62159 2.9744,1.87622 2.9755,4.29476 0,2.89474 -1.5,4.4044 -4.3801,4.4044 -1.3395,0 -1.8637,-0.17826 -2.8045,-0.95377 z"
       id="path225"
       transform="matrix(0.26469287,0,0,0.26469287,-0.11022934,0)" /><path
       style="fill:#fdac00;fill-opacity:1;stroke-width:1.18376"
       d="m 1181.0187,-132.53989 c -0.086,-0.2243 -0.1181,-7.08783 -0.071,-15.25228 l 0.085,-14.84447 3.0595,-0.0944 c 3.3496,-0.1033 4.2811,0.2774 4.2811,1.7495 0,1.02316 0.3257,1.77127 0.769,1.76644 0.2051,-0.002 1.0033,-0.58949 1.7737,-1.30501 0.7704,-0.71552 1.5966,-1.30094 1.836,-1.30094 0.2394,0 0.6012,-0.19993 0.804,-0.4443 0.3804,-0.45835 4.0206,-0.93927 4.8117,-0.6357 0.3351,0.1286 0.4457,0.96927 0.4457,3.38719 0,3.70935 0.022,3.68067 -3.0994,4.06934 -3.0954,0.38544 -5.1751,1.95204 -6.5577,4.93982 -0.7619,1.64642 -0.783,1.91621 -0.783,10.03225 v 8.34033 h -3.599 c -2.5783,0 -3.6433,-0.11565 -3.7553,-0.40781 z"
       id="path226"
       transform="matrix(0.26469287,0,0,0.26469287,-0.11022934,0)" /><path
       style="fill:#fdac00;fill-opacity:1;stroke-width:1.18376"
       d="m 1214.6624,-131.76368 c -0.097,-0.15627 -0.6333,-0.37565 -1.1927,-0.48753 -0.5593,-0.11187 -1.6708,-0.64468 -2.47,-1.18402 -0.7991,-0.53933 -1.5141,-0.98061 -1.5889,-0.98061 -0.4913,0 -2.8519,-2.86532 -3.4008,-4.12802 -0.1679,-0.38631 -0.4612,-0.79871 -0.6517,-0.91645 -0.1905,-0.11774 -0.3473,-0.46233 -0.3484,-0.76576 0,-0.30343 -0.2439,-0.99212 -0.5394,-1.53044 -0.7768,-1.41469 -0.8149,-9.71493 -0.052,-11.30013 0.2906,-0.6036 0.7998,-1.68187 1.1317,-2.39616 0.3319,-0.7143 1.0065,-1.74199 1.4992,-2.28377 0.4926,-0.54177 0.8963,-1.07752 0.8972,-1.19054 0,-0.35281 3.5375,-2.8939 4.0257,-2.8939 0.2549,0 0.6305,-0.20139 0.8348,-0.44754 0.2043,-0.24614 0.9931,-0.53317 1.7528,-0.63783 0.7597,-0.10466 2.0184,-0.29139 2.797,-0.41494 1.6493,-0.26175 5.6348,0.38325 7.0669,1.14372 0.5383,0.28584 1.5137,0.92345 2.1676,1.41691 1.7005,1.28334 2.3229,1.17829 2.8994,-0.48938 l 0.4793,-1.38657 3.1809,-0.0934 3.181,-0.0934 v 15.34566 15.34566 l -3.181,-0.005 c -1.7495,-0.003 -3.3525,-0.11414 -3.5622,-0.24754 -0.2097,-0.1334 -0.4299,-0.75391 -0.4894,-1.3789 -0.1336,-1.40441 -0.7958,-1.58862 -1.9263,-0.53588 -0.4617,0.42994 -1.1591,0.88314 -1.5497,1.00712 -0.3906,0.12397 -0.7102,0.35568 -0.7102,0.51489 0,0.15922 -0.5155,0.38619 -1.1455,0.50438 -0.63,0.11819 -1.2259,0.34506 -1.3243,0.50416 -0.2314,0.37443 -7.5499,0.37928 -7.7811,0.005 z m 8.0689,-6.78325 c 2.3001,-0.73696 3.8826,-1.91793 5.1754,-3.86208 1.0646,-1.60098 1.0846,-1.69743 1.0778,-5.19516 0,-2.52297 -0.1241,-3.60293 -0.4078,-3.69753 -0.2205,-0.0735 -0.4009,-0.35312 -0.4009,-0.62139 0,-0.67046 -2.2911,-2.81454 -3.9083,-3.65746 -1.861,-0.96999 -6.271,-0.98965 -8.1004,-0.0361 -1.7491,0.91168 -3.23,2.29758 -4.049,3.78924 -0.5693,1.03688 -0.6975,1.8443 -0.7186,4.52462 -0.025,3.1756 0,3.30644 1.0687,4.91085 1.24,1.86755 2.7165,3.00394 4.9055,3.77565 1.9998,0.70502 3.3204,0.72212 5.3576,0.0694 z"
       id="path227"
       transform="matrix(0.26469287,0,0,0.26469287,-0.11022934,0)" /><path
       style="fill:#fdac00;fill-opacity:1;stroke-width:1.18376"
       d="m 1248.0722,-143.95871 c 0,-6.32521 -0.1169,-11.67645 -0.2537,-11.89164 -0.1434,-0.22548 -1.2126,-0.43283 -2.5235,-0.48938 l -2.2747,-0.0981 v -3.0994 -3.09939 l 2.4323,-0.0972 c 1.3377,-0.0535 2.6036,-0.23939 2.813,-0.41316 0.2251,-0.18684 0.4495,-1.74707 0.549,-3.81782 0.1276,-2.65587 0.3279,-3.80082 0.8293,-4.73935 1.5473,-2.89655 3.6725,-5.02681 5.9371,-5.95108 0.2691,-0.10985 0.9715,-0.40924 1.5607,-0.6653 0.7114,-0.30911 2.2648,-0.46556 4.6227,-0.46556 3.4645,0 4.0529,0.12967 6.2141,1.36947 0.2692,0.15441 0.7169,0.35931 0.995,0.45534 0.278,0.096 0.6724,0.44179 0.8763,0.76835 0.3186,0.51012 0.031,0.95118 -2.039,3.13189 -2.1655,2.28095 -2.4661,2.49141 -2.966,2.07689 -0.3802,-0.31526 -1.3922,-0.45905 -3.1972,-0.45426 -2.2928,0.006 -2.7852,0.11361 -3.7352,0.81563 -1.6303,1.20486 -2.3853,3.06352 -2.2665,5.57979 l 0.098,2.08013 3.4256,0.16312 3.4257,0.16313 v 3.09939 3.0994 l -3.472,0.0922 c -3.2721,0.0869 -3.4831,0.13387 -3.6658,0.81563 -0.1067,0.39786 -0.196,5.75175 -0.1984,11.89752 v 11.17413 h -3.5888 -3.5887 z"
       id="path228"
       transform="matrix(0.26469287,0,0,0.26469287,-0.11022934,0)" /><path
       style="fill:#fdac00;fill-opacity:1;stroke-width:1.18376"
       d="m 1277.7661,-132.08977 c -0.8075,-0.29242 -1.6621,-0.7152 -1.8992,-0.9395 -0.2372,-0.2243 -0.5737,-0.40781 -0.7479,-0.40781 -0.3656,0 -0.8443,-0.37125 -2.5244,-1.95752 -1.7795,-1.68009 -3.3755,-4.25996 -3.782,-6.11348 -0.1275,-0.58112 -0.3673,-1.14033 -0.5329,-1.2427 -0.5127,-0.31685 -0.3491,-8.66902 0.1882,-9.60892 0.2565,-0.4486 0.4715,-1.12799 0.4778,-1.50975 0.01,-0.38177 0.2318,-0.87689 0.501,-1.10027 0.2691,-0.22338 0.4894,-0.6864 0.4894,-1.02894 0,-0.34254 0.2202,-0.7073 0.4893,-0.81059 0.2692,-0.10328 0.4894,-0.32589 0.4894,-0.49467 0,-0.35611 2.8357,-3.18907 3.7706,-3.76696 2.5741,-1.59107 6.8693,-2.65164 9.1689,-2.26392 0.6889,0.11615 1.7663,0.29487 2.3944,0.39716 1.3976,0.22763 3.0517,1.00022 4.5675,2.13339 0.628,0.4695 1.4604,0.95278 1.8496,1.07395 0.7506,0.23364 0.8234,0.11631 1.2539,-2.02062 l 0.2159,-1.07179 3.1525,0.093 3.1525,0.093 v 15.17072 15.17072 h -3.2625 -3.2625 l -0.1631,-1.30185 c -0.2201,-1.75626 -0.8345,-1.79751 -3.1573,-0.21199 -1.0456,0.71375 -2.306,1.39932 -2.8007,1.52349 -0.4947,0.12417 -0.9802,0.35631 -1.0788,0.51587 -0.3183,0.51501 -7.3368,0.26399 -8.9496,-0.32009 z m 9.2369,-6.46812 c 0.9309,-0.3043 1.8955,-0.70803 2.1436,-0.89719 0.59,-0.44983 2.6999,-2.56203 3.213,-3.21649 0.8377,-1.06837 1.6631,-5.53253 1.144,-6.18706 -0.1752,-0.22092 -0.415,-0.93748 -0.5329,-1.59234 -0.1178,-0.65486 -0.4306,-1.3702 -0.695,-1.58964 -0.2644,-0.21945 -0.4808,-0.5361 -0.4808,-0.70368 0,-0.46753 -1.9749,-2.16732 -3.3541,-2.8869 -0.9729,-0.50757 -1.8821,-0.64354 -4.3036,-0.64354 -1.7253,0 -3.1597,0.14507 -3.2748,0.3312 -0.1125,0.18216 -0.674,0.52732 -1.2478,0.76703 -1.1343,0.47395 -3.1535,2.5726 -3.1535,3.27758 0,0.24094 -0.2202,0.62085 -0.4894,0.84423 -0.7769,0.6448 -0.6813,6.17851 0.1342,7.76148 1.2331,2.3937 2.73,3.64938 5.5752,4.67691 1.9601,0.70785 3.2905,0.72245 5.3219,0.0584 z"
       id="path229"
       transform="matrix(0.26469287,0,0,0.26469287,-0.11022934,0)" /></g></svg>
