<?xml version="1.0" encoding="UTF-8" standalone="no"?>
<svg
   height="476.77899"
   viewBox="0 0 640.2 126.2"
   width="2419.4851"
   version="1.1"
   id="svg14"
   sodipodi:docname="aliexpress.svg"
   xml:space="preserve"
   inkscape:export-filename="girafa.svg"
   inkscape:export-xdpi="96"
   inkscape:export-ydpi="96"
   xmlns:inkscape="http://www.inkscape.org/namespaces/inkscape"
   xmlns:sodipodi="http://sodipodi.sourceforge.net/DTD/sodipodi-0.dtd"
   xmlns="http://www.w3.org/2000/svg"
   xmlns:svg="http://www.w3.org/2000/svg"><defs
     id="defs14" /><sodipodi:namedview
     id="namedview14"
     pagecolor="#ffffff"
     bordercolor="#000000"
     borderopacity="0.25"
     inkscape:showpageshadow="2"
     inkscape:pageopacity="0.0"
     inkscape:pagecheckerboard="0"
     inkscape:deskcolor="#d1d1d1"
     inkscape:export-bgcolor="#ffffff00" /><g
     id="g240"
     transform="matrix(0.87245029,0,0,0.60929434,91.172788,141.93716)"><path
       style="fill:#7cb616;fill-opacity:1;stroke-width:9.47004"
       d="m 593.77871,-206.81568 c 142.28322,-141.31631 342.70506,-339.62223 373.26417,-369.32351 l 24.81739,-24.12073 249.22443,249.23464 249.2243,249.23464 -501.11794,-0.0189 -501.11801,-0.0189 z"
       id="path229"
       transform="matrix(0.26469287,0,0,0.26469287,-0.11022934,0)" /><path
       style="fill:#ffffff;fill-opacity:1;stroke-width:9.47004"
       d="m 411.07757,-183.16049 c -29.42794,-30.08884 -53.85616,-56.23848 -54.28495,-58.11031 -0.73453,-3.20649 21.54826,-24.95086 25.56868,-24.95086 1.02795,0 20.97708,19.50255 44.3314,43.339 l 42.4624,43.33901 24.47519,-24.37343 24.47519,-24.37342 12.3549,12.35491 12.35491,12.3549 -37.77743,37.84495 c -20.77758,20.81472 -38.37987,37.71833 -39.11619,37.56359 -0.73632,-0.15474 -25.41617,-24.89949 -54.8441,-54.98834 z"
       id="path230"
       transform="matrix(0.26469287,0,0,0.26469287,-0.11022934,0)" /><path
       style="fill:#ffffff;fill-opacity:1;stroke-width:9.47004"
       d="m 504.95667,-278.19441 -56.03387,-56.2255 39.15025,-37.52196 39.15024,-37.52197 10.40145,10.28547 10.40144,10.28547 -24.75653,23.24278 -24.75654,23.24278 11.66135,12.01851 11.66135,12.0185 20.49833,-20.25345 20.49833,-20.25346 10.45495,11.65571 10.45494,11.65571 -19.77698,19.33376 c -10.87734,10.63357 -19.77698,20.11893 -19.77698,21.07857 0,2.6705 22.04679,23.7118 24.8449,23.7118 1.35421,0 13.35142,-10.84396 26.66048,-24.09768 l 24.19828,-24.09767 10.47515,10.47514 10.47514,10.47515 -32.02786,31.24013 c -17.61532,17.18208 -35.58198,34.4436 -39.9259,38.35893 l -7.89805,7.11878 z"
       id="path231"
       transform="matrix(0.26469287,0,0,0.26469287,-0.11022934,0)" /><path
       style="fill:#ffffff;fill-opacity:1;stroke-width:6.69633"
       d="m 602.62317,-372.07549 -55.88284,-56.5088 31.14727,-31.23075 c 37.32036,-37.42038 43.21146,-41.10457 64.04491,-40.05253 11.06303,0.55866 15.01285,1.63746 21.35013,5.83127 15.67745,10.37484 22.88996,29.6304 19.03762,50.82557 -1.28211,7.05398 -1.19783,9.94389 0.30131,10.33215 1.1447,0.29646 18.08034,5.67776 37.63476,11.95845 l 35.55348,11.41942 -14.32954,13.73994 c -10.0897,9.67454 -15.42168,13.533 -18.02066,13.04056 -4.1052,-0.77783 -88.91903,-23.01279 -93.04236,-24.39217 -1.75229,-0.5862 0.74527,-3.86351 7.60061,-9.97359 13.12329,-11.69659 17.25691,-19.92298 14.38442,-28.6267 -4.20425,-12.73901 -18.38814,-19.28679 -28.82152,-13.30504 -5.27968,3.02699 -24.69647,20.97533 -24.69647,22.82873 0,0.81437 10.22027,11.87969 22.71171,24.58961 12.49144,12.70992 32.3646,33.07497 44.16256,45.25567 24.5577,25.35435 24.13689,21.123 3.99322,40.15298 L 658.506,-315.5667 Z"
       id="path232"
       transform="matrix(0.26469287,0,0,0.26469287,-0.11022934,0)" /><path
       style="fill:#ffffff;fill-opacity:1;stroke-width:6.69633"
       d="m 747.90576,-452.32037 c -11.81773,-2.78522 -25.6287,-10.90173 -36.99539,-21.74166 -23.35438,-22.27207 -31.72843,-49.33236 -24.22603,-78.28509 10.66958,-41.17523 43.28888,-64.67171 85.68261,-61.71928 32.47571,2.26171 58.39445,21.51436 71.34274,52.99395 4.134,10.05048 4.95796,14.88901 5.03233,29.55111 0.0808,15.93327 -0.44613,18.67855 -5.77577,30.09123 -6.87958,14.73168 -24.00302,32.75377 -38.44016,40.45752 -17.72745,9.45949 -39.24415,12.74748 -56.62033,8.65222 z m 45.5993,-39.10097 c 4.01303,-2.273 10.03417,-7.72216 13.38031,-12.10925 5.04589,-6.6156 6.08391,-9.5845 6.08391,-17.40096 0,-12.56006 -4.9709,-22.30047 -19.25355,-37.72705 -19.71623,-21.29535 -37.66072,-26.79397 -54.72388,-16.76869 -9.3927,5.51858 -14.87782,12.28174 -18.24201,22.49246 -5.02551,15.25303 4.59216,35.44239 24.36411,51.14503 18.93421,15.03732 34.32573,18.33516 48.39111,10.36846 z"
       id="path233"
       transform="matrix(0.26469287,0,0,0.26469287,-0.11022934,0)" /><path
       style="fill:#ffffff;fill-opacity:1;stroke-width:6.69633"
       d="m 890.36697,-590.11788 -24.22688,-23.53089 -49.75792,-15.68727 -49.75792,-15.68726 15.17514,-14.30309 c 8.34632,-7.8667 16.22524,-14.30309 17.5087,-14.30309 2.08074,0 40.98396,13.85266 52.19506,18.58562 2.41505,1.01956 4.86519,1.37955 5.44475,0.79999 0.57957,-0.57957 -0.37057,-6.21655 -2.11142,-12.52663 -1.74085,-6.31009 -5.59397,-20.19315 -8.5625,-30.85126 l -5.39732,-19.37839 7.73164,-7.99627 c 4.2524,-4.39795 11.57132,-11.23884 16.26426,-15.20198 l 8.53261,-7.2057 4.98644,20.73865 c 2.74254,11.40627 8.69803,36.10295 13.23441,54.88153 l 8.24797,34.14286 22.07482,22.18319 22.07483,22.18319 -13.43351,13.34384 c -7.38842,7.33912 -14.01012,13.34385 -14.71489,13.34385 -0.70476,0 -12.18349,-10.5889 -25.50827,-23.53089 z"
       id="path234"
       transform="matrix(0.26469287,0,0,0.26469287,-0.11022934,0)" /><path
       style="fill:#ffffff;fill-opacity:1;stroke-width:6.69633"
       d="m 984.08862,-651.07461 c -6.82064,-6.87331 -12.40116,-12.94535 -12.40116,-13.49345 0,-0.54809 13.05632,-13.97779 29.01404,-29.84377 15.9577,-15.86599 28.5631,-29.29818 28.012,-29.84931 -0.5512,-0.55113 -19.2134,7.26513 -41.47159,17.36946 l -40.46952,18.37151 -8.18779,-8.14898 -8.1878,-8.14897 19.07423,-40.7284 c 10.49083,-22.40062 18.73178,-41.07085 18.31323,-41.4894 -0.41855,-0.41855 -14.51978,12.40873 -31.33608,28.50507 l -30.57507,29.26606 -12.40661,-12.69676 -12.4066,-12.69677 56.84853,-56.27436 56.84853,-56.27437 18.29424,18.20239 18.2943,18.20239 -20.7004,40.75241 c -11.38526,22.41383 -19.97362,40.75241 -19.08527,40.75241 0.88835,0 20.15617,-8.38572 42.81727,-18.63493 l 41.2022,-18.63493 17.724,17.81459 17.724,17.81459 -48.9074,48.07915 c -26.899,26.44353 -52.67,51.72463 -57.2687,56.18021 l -8.36141,8.10109 z"
       id="path235"
       transform="matrix(0.26469287,0,0,0.26469287,-0.11022934,0)" /><path
       style="fill:#ffffff;fill-opacity:1;stroke-width:6.69633"
       d="m 1067.4078,-567.60591 c -20.6719,-20.86156 -37.7941,-38.51356 -38.0494,-39.22666 -0.2553,-0.7131 24.8905,-26.62303 55.8797,-57.57762 l 56.3439,-56.28108 38.6454,39.67955 c 21.255,21.82375 38.6724,40.12316 38.7053,40.66537 0.033,0.5422 -4.5164,5.50521 -10.1096,11.02892 l -10.1694,10.04309 -24.4596,-24.40923 c -13.4528,-13.42508 -25.3102,-24.40923 -26.3498,-24.40923 -1.0396,0 -5.9887,4.16112 -10.998,9.24693 l -9.1079,9.24692 19.8008,19.86245 19.8009,19.86244 -11.6271,11.5237 -11.627,11.52369 -19.0996,-19.40912 c -10.5048,-10.67502 -19.6263,-19.40913 -20.27,-19.40913 -0.6437,0 -6.7494,5.62206 -13.5681,12.49347 l -12.3977,12.49345 24.8908,24.83965 24.8909,24.83964 -10.5403,10.65146 c -5.7972,5.85831 -11.0935,10.65147 -11.7697,10.65147 -0.6762,0 -18.1427,-17.06856 -38.8145,-37.93013 z"
       id="path236"
       transform="matrix(0.26469287,0,0,0.26469287,-0.11022934,0)" /><path
       style="fill:#ffffff;fill-opacity:1;stroke-width:6.69633"
       d="m 1216.8564,-416.65978 -13.9968,-14.27853 3.3874,-14.76448 c 7.1816,-31.30247 18.2822,-83.49658 18.2822,-85.96164 0,-1.4215 -14.1198,11.51691 -31.3773,28.75201 l -31.3772,31.33654 -14.3004,-14.37028 -14.3003,-14.37027 56.9281,-56.47102 56.9281,-56.47101 34.9318,34.87049 c 20.7858,20.74933 36.409,37.90912 38.5796,42.37402 4.9737,10.23082 4.7034,23.37235 -0.7203,35.01977 -9.5547,20.51842 -32.9077,31.25523 -56.8969,26.15892 l -6.8209,-1.44906 -11.3523,35.59192 c -6.2437,19.57557 -11.925,36.20375 -12.6251,36.95154 -0.7001,0.74778 -7.5714,-5.06573 -15.2697,-12.91892 z m 53.4868,-91.03252 c 6.9906,-2.43695 13.2439,-11.94623 13.2439,-20.1398 0,-5.0475 -2.3888,-8.45746 -14.7155,-21.0061 l -14.7154,-14.98045 -14.2086,14.17447 -14.2086,14.17446 10.686,11.66338 c 10.7383,11.72034 19.6313,18.12284 25.1726,18.12284 1.6407,0 5.5762,-0.90396 8.7456,-2.0088 z"
       id="path237"
       transform="matrix(0.26469287,0,0,0.26469287,-0.11022934,0)" /><path
       style="fill:#ffffff;fill-opacity:1;stroke-width:6.69633"
       d="m 1293.8956,-339.12169 -37.8241,-38.29538 55.733,-55.82819 c 30.6531,-30.70551 56.5685,-55.83814 57.5898,-55.8503 1.0213,-0.0122 7.7729,6.00898 15.0036,13.38031 l 13.1466,13.40241 -43.5783,43.82644 -43.5784,43.82644 24.4461,24.49647 24.446,24.49647 -12.5162,12.42035 c -6.884,6.8312 -13.085,12.42035 -13.7802,12.42035 -0.6951,0 -18.2847,-17.23291 -39.0879,-38.29537 z"
       id="path238"
       transform="matrix(0.26469287,0,0,0.26469287,-0.11022934,0)" /><path
       style="fill:#ffffff;fill-opacity:1;stroke-width:6.69633"
       d="m 1368.4793,-262.99597 -13.788,-13.88064 56.7204,-56.72037 56.7203,-56.72037 13.8454,13.8454 13.8454,13.84541 -56.7777,56.75561 -56.7778,56.75561 z"
       id="path239"
       transform="matrix(0.26469287,0,0,0.26469287,-0.11022934,0)" /><path
       style="fill:#ffffff;fill-opacity:1;stroke-width:6.69633"
       d="m 1499.0299,-132.44333 -16.1173,-16.1923 7.3417,-31.3405 c 4.038,-17.23729 10.5999,-45.0438 14.582,-61.79226 3.9821,-16.74846 7.0231,-30.68067 6.7577,-30.96048 -0.2653,-0.2798 -17.5901,16.74549 -38.4994,37.83399 l -38.017,38.34272 -13.0155,-12.8886 -13.0155,-12.88861 56.749,-56.77114 56.7489,-56.77113 18.9384,18.87386 c 10.416,10.38062 18.9383,19.75181 18.9383,20.82487 0,1.07306 -7.0839,26.81426 -15.742,57.20267 -8.6581,30.3884 -15.5097,56.2661 -15.2259,57.50598 0.2839,1.23988 17.3988,-14.44168 38.0333,-34.84792 l 37.5171,-37.10224 11.8516,12.51063 c 6.5184,6.88085 11.8516,13.1448 11.8516,13.9199 0,1.41565 -109.9696,109.37972 -112.31,110.26184 -0.6874,0.25906 -8.5025,-6.81551 -17.367,-15.72128 z"
       id="path240"
       transform="matrix(0.26469287,0,0,0.26469287,-0.11022934,0)" /></g></svg>
