<?xml version="1.0" encoding="UTF-8" standalone="no"?>
<svg
   height="476.77899"
   viewBox="0 0 640.2 126.2"
   width="2419.4851"
   version="1.1"
   id="svg14"
   sodipodi:docname="aliexpress.svg"
   xml:space="preserve"
   inkscape:export-filename="olympikus.svg"
   inkscape:export-xdpi="96"
   inkscape:export-ydpi="96"
   xmlns:inkscape="http://www.inkscape.org/namespaces/inkscape"
   xmlns:sodipodi="http://sodipodi.sourceforge.net/DTD/sodipodi-0.dtd"
   xmlns="http://www.w3.org/2000/svg"
   xmlns:svg="http://www.w3.org/2000/svg"><defs
     id="defs14" /><sodipodi:namedview
     id="namedview14"
     pagecolor="#ffffff"
     bordercolor="#000000"
     borderopacity="0.25"
     inkscape:showpageshadow="2"
     inkscape:pageopacity="0.0"
     inkscape:pagecheckerboard="0"
     inkscape:deskcolor="#d1d1d1"
     inkscape:export-bgcolor="#ffffff00" /><g
     id="g390"
     transform="translate(141.40049,139.48916)"><path
       style="fill:#0d86fd;fill-opacity:1;stroke-width:13.3927"
       d="m -116.27029,-282.37071 v -94.12358 h 11.07336 c 10.194521,0 11.073359,1.02532 11.073359,12.91893 0,7.1054 1.044438,12.91892 2.320973,12.91892 1.276536,0 8.755839,-5.81352 16.620676,-12.91892 11.990147,-10.83238 17.05082,-12.91893 31.33336,-12.91893 14.840087,0 18.863453,1.8298 31.242485,14.20883 l 14.2088279,14.20883 8.4264261,-9.02285 c 18.439804,-19.74499 41.095975,-24.38128 64.612284,-13.22206 20.026322,9.50311 22.209933,19.1884 23.781985,105.48365 l 1.395266,76.59075 h -9.768421 c -13.07358,0 -14.382322,-7.78247 -14.382322,-85.52494 0,-61.38922 -0.154669,-62.61011 -9.060021,-71.51546 -10.370044,-10.37004 -23.443613,-11.52884 -39.045366,-3.46086 -19.6591992,10.16617 -22.0259013,20.25341 -22.0259013,93.87779 v 66.62347 H -5.5366807 -16.610042 l -0.162084,-48.90735 c -0.236505,-71.3614 -4.459376,-102.33973 -15.128309,-110.97891 -11.378554,-9.2138 -34.219,-6.36712 -46.364695,5.77858 -11.385619,11.38561 -15.685348,40.0429 -15.784225,105.20033 l -0.07422,48.90735 h -11.073355 -11.07336 z"
       id="path374"
       transform="matrix(0.26469287,0,0,0.26469287,-0.11022934,0)" /><path
       style="fill:#0d86fd;fill-opacity:1;stroke-width:13.3927"
       d="m 139.519,-191.78883 c -15.50045,-9.45117 -23.26138,-25.18696 -23.19429,-47.02792 0.10638,-34.63567 13.07088,-46.32527 62.33922,-56.20891 35.0746,-7.03626 40.80021,-10.52734 40.90121,-24.93875 0.11757,-16.77398 -6.62173,-26.49366 -21.45022,-30.93638 -20.30367,-6.08313 -39.5521,0.64882 -49.35345,17.26088 -5.15816,8.74242 -10.07421,12.51243 -16.31605,12.51243 -7.87496,0 -8.64513,-1.20278 -6.49964,-10.15058 4.3515,-18.14798 12.36616,-30.20783 24.11192,-36.2818 15.88122,-8.21249 58.79074,-8.3142 71.22217,-0.16881 19.58364,12.8317 20.87753,18.43372 22.85486,98.95217 1.99137,81.09044 0.31012,91.12722 -13.21436,78.88773 -4.18417,-3.78662 -7.60758,-9.94934 -7.60758,-13.69493 0,-8.47011 -8.47871,-8.85328 -15.23531,-0.68852 -7.14382,8.63268 -32.53396,19.54155 -45.66818,19.62134 -6.09035,0.037 -16.39099,-3.17508 -22.8903,-7.13795 z m 60.64747,-24.62623 c 10.37979,-6.46095 18.55411,-22.10935 21.64433,-41.43455 4.10116,-25.64725 2.65539,-26.46303 -32.3516,-18.2545 -38.24084,8.96681 -46.32119,14.01911 -49.49715,30.9484 -5.70312,30.40027 30.08834,47.48656 60.20442,28.74065 z"
       id="path375"
       transform="matrix(0.26469287,0,0,0.26469287,-0.11022934,0)" /><path
       style="fill:#0d86fd;fill-opacity:1;stroke-width:13.3927"
       d="m 306.363,-193.42399 c -14.30499,-6.31437 -22.0255,-15.20801 -30.86968,-35.56034 -20.96949,-48.25518 -7.47414,-119.60085 26.54693,-140.34523 19.99689,-12.19313 58.60521,-7.44397 72.13765,8.87355 2.78622,3.35964 6.52348,6.10845 8.30503,6.10845 1.78153,0 3.23916,-19.93205 3.23916,-44.29345 v -44.29344 h 11.07336 11.07336 v 127.34365 127.34366 h -11.07336 c -10.19453,0 -11.07336,-1.02531 -11.07336,-12.91892 0,-14.88043 -3.35714,-16.15229 -13.26963,-5.02725 -14.94799,16.77651 -44.20501,22.42934 -66.08946,12.76932 z m 59.09632,-29.18897 c 6.9778,-6.9778 14.11969,-19.24822 16.64998,-28.60618 5.68278,-21.01705 2.9145,-64.59026 -5.0823,-79.99644 -15.50816,-29.8771 -58.74957,-31.06732 -76.64636,-2.1097 -11.02549,17.83961 -13.91816,65.26588 -5.34929,87.70315 13.68817,35.84196 46.78295,46.65419 70.42797,23.00917 z"
       id="path376"
       transform="matrix(0.26469287,0,0,0.26469287,-0.11022934,0)" /><path
       style="fill:#0d86fd;fill-opacity:1;stroke-width:13.3927"
       d="m 468.7723,-192.54455 c -29.85535,-16.47176 -40.19366,-42.65566 -38.14739,-96.61611 1.63287,-43.05902 10.2108,-64.0518 32.23378,-78.88575 17.42218,-11.73501 49.58973,-11.80156 67.19402,-0.13902 18.40179,12.19088 32.84316,42.91169 32.84316,69.86655 v 21.48485 h -55.83643 -55.83642 l 1.75319,18.24579 c 2.19903,22.88573 10.7469,36.15914 27.90188,43.32695 18.89008,7.89278 37.6523,1.73504 53.03431,-17.40581 17.68303,-22.00417 32.7977,-19.83849 23.12426,3.31331 -6.61356,15.8285 -18.08388,28.78862 -31.79148,35.92067 -11.79621,6.13757 -45.98399,6.6755 -56.47288,0.88857 z m 73.56122,-112.89567 c -8.0263,-36.25168 -15.45696,-45.2779 -39.26857,-47.7006 -27.38064,-2.78584 -50.9027,19.62817 -50.9027,48.50483 v 9.34635 h 46.20933 46.20933 z"
       id="path377"
       transform="matrix(0.26469287,0,0,0.26469287,-0.11022934,0)" /><path
       style="fill:#0d86fd;fill-opacity:1;stroke-width:13.3927"
       d="m 581.35147,-282.37071 v -97.8147 h 11.07336 11.07336 v 97.8147 97.81469 h -11.07336 -11.07336 z"
       id="path378"
       transform="matrix(0.26469287,0,0,0.26469287,-0.11022934,0)" /><path
       style="fill:#0d86fd;fill-opacity:1;stroke-width:13.3927"
       d="m 581.35147,-426.32441 c 0,-15.99486 0.41012,-16.61004 11.07336,-16.61004 10.66324,0 11.07336,0.61518 11.07336,16.61004 0,15.99485 -0.41012,16.61004 -11.07336,16.61004 -10.66324,0 -11.07336,-0.61519 -11.07336,-16.61004 z"
       id="path379"
       transform="matrix(0.26469287,0,0,0.26469287,-0.11022934,0)" /><path
       style="fill:#0d86fd;fill-opacity:1;stroke-width:13.3927"
       d="m 633.02716,-282.37071 v -94.12358 h 9.2278 c 8.4759,0 9.2278,1.35342 9.2278,16.61005 0,19.30621 4.49609,21.41561 11.19179,5.25075 5.44417,-13.14338 15.0884,-20.023 32.58769,-23.24609 l 12.40496,-2.2848 -2.59316,13.82273 c -2.59744,13.84553 -7.01212,19.21406 -15.88716,19.31981 -9.1495,0.10901 -23.99504,12.75426 -28.97991,24.68473 -3.56132,8.52345 -5.03309,29.88984 -5.03309,73.06792 v 61.02205 h -11.07336 -11.07336 z"
       id="path380"
       transform="matrix(0.26469287,0,0,0.26469287,-0.11022934,0)" /><path
       style="fill:#0d86fd;fill-opacity:1;stroke-width:13.3927"
       d="m 732.81522,-189.38507 c -37.77066,-12.98902 -40.05221,-76.87881 -3.41372,-95.59396 7.32828,-3.74332 23.93832,-8.52461 36.91121,-10.62509 36.55154,-5.91815 40.19711,-8.18866 40.19711,-25.03531 0,-19.31677 -9.1942,-29.97235 -28.04319,-32.50053 -18.8685,-2.5308 -36.08428,5.76009 -44.08429,21.23039 -4.23538,8.19033 -8.00762,10.92726 -13.90418,10.08811 -6.51105,-0.92661 -7.87053,-3.22273 -6.95873,-11.75314 2.65138,-24.80508 27.76197,-43.07592 58.70048,-42.71135 26.42246,0.31136 41.99961,7.04939 50.71767,21.93839 6.9645,11.89419 7.56452,18.96953 7.56452,89.19954 0,41.95434 -1.23557,77.51733 -2.74571,79.02886 -3.94346,3.9471 -17.55545,-9.4255 -17.55545,-17.2467 0,-10.13526 -5.6631,-11.35449 -13.33969,-2.87195 -15.01037,16.58628 -43.22894,24.01157 -64.04603,16.85274 z m 59.06783,-31.15938 c 11.61,-10.40367 18.06506,-28.85414 18.22983,-52.10618 0.079,-11.14669 -0.76737,-12.1814 -8.21696,-10.04569 -4.56777,1.30953 -19.10155,4.91509 -32.29731,8.01237 -32.72257,7.68056 -42.2801,15.40979 -42.2801,34.19217 0,21.90207 9.14026,30.09791 33.56615,30.09791 16.25229,0 21.63944,-1.76404 30.99839,-10.15058 z"
       id="path381"
       transform="matrix(0.26469287,0,0,0.26469287,-0.11022934,0)" /><path
       style="fill:#0d86fd;fill-opacity:1;stroke-width:13.3927"
       d="m 862.7994,-187.00058 c -3.52126,-1.42086 -4.6139,-24.07863 -4.6139,-95.67773 v -93.81598 h 18.45561 18.4556 v 13.74022 c 0,13.50352 0.0992,13.59854 5.76074,5.5156 10.04751,-14.34482 27.59612,-20.77322 53.68098,-19.66439 9.58158,0.4073 26.65478,13.23856 29.67626,22.30302 1.0382,3.11458 6.22602,0.13918 14.92548,-8.56027 11.89623,-11.89626 15.40223,-13.33418 32.51183,-13.33418 23.7361,0 37.4573,8.86725 45.7353,29.55606 4.7858,11.96085 5.9566,29.38156 5.9566,88.63449 v 73.74772 h -18.4557 -18.4556 l -0.054,-65.51739 c -0.064,-77.63591 -1.755,-83.41987 -24.8743,-85.10445 -14.1326,-1.02977 -16.1971,-0.0345 -22.96937,11.07336 -6.69977,10.98891 -7.44247,18.54816 -7.45489,75.87665 l -0.0138,63.67183 h -18.4556 -18.45561 l -0.0206,-59.98071 c -0.0284,-82.87237 -5.94548,-99.18678 -33.75829,-93.07806 -18.32286,4.02438 -21.58793,17.66537 -21.58793,90.19117 v 62.8676 l -15.68726,-0.29141 c -8.628,-0.16027 -17.76352,-1.12919 -20.30117,-2.15315 z"
       id="path382"
       transform="matrix(0.26469287,0,0,0.26469287,-0.11022934,0)" /><path
       style="fill:#0d86fd;fill-opacity:1;stroke-width:13.3927"
       d="m 1129.1698,-189.80263 c -19.7492,-8.5988 -27.3703,-22.1309 -27.3703,-48.59874 0,-12.82645 1.9883,-27.68472 4.4184,-33.01837 5.2395,-11.49928 23.0077,-21.10656 50.9484,-27.54767 30.7139,-7.08044 40.4892,-13.32173 40.4892,-25.85119 0,-22.4199 -43.838,-26.86714 -55.2189,-5.6018 -4.139,7.73382 -7.6555,9.29292 -20.9597,9.29292 -13.8126,0 -15.9863,-1.06094 -15.9863,-7.80246 0,-12.18254 14.3043,-34.62748 26.7559,-41.98284 14.1046,-8.33179 58.3214,-8.6892 77.6161,-0.62738 21.409,8.94526 22.5645,13.96866 24.1723,105.08869 l 1.4533,82.35941 -16.0915,-1.15476 c -15.6906,-1.126 -16.12,-1.49954 -17.237,-14.99646 -1.2527,-15.13586 -5.7216,-17.76722 -11.5809,-6.81902 -4.2932,8.0219 -32.2069,22.57784 -42.8829,22.3618 -3.9268,-0.0795 -12.2636,-2.37542 -18.5261,-5.10213 z m 44.0675,-33.52282 c 15.5994,-6.51784 23.2314,-19.44277 25.0576,-42.43522 1.1967,-15.06764 0.593,-16.53636 -6.5018,-15.81653 -17.9475,1.82092 -49.9691,16.73733 -53.7515,25.03863 -5.2535,11.53029 0.6628,28.29241 12.0339,34.09415 4.915,2.50772 9.1487,4.58397 9.4083,4.6139 0.2596,0.0299 6.4487,-2.44279 13.7535,-5.49493 z"
       id="path383"
       transform="matrix(0.26469287,0,0,0.26469287,-0.11022934,0)" /><path
       style="fill:#0d86fd;fill-opacity:1;stroke-width:13.3927"
       d="m 1285.9785,-196.5575 c -7.0418,-4.66597 -16.5887,-16.40145 -21.7697,-26.76062 -8.2385,-16.47216 -9.2278,-23.00123 -9.2278,-60.89815 0,-36.70915 1.1009,-44.50596 8.1431,-57.67084 22.0029,-41.13247 61.6043,-49.30872 90.5943,-18.70443 l 10.1506,10.71581 v -44.6838 -44.6838 h 18.4556 18.4556 v 125.49809 125.4981 h -18.4556 -18.4556 v -15.26227 -15.26225 l -7.7081,9.79932 c -17.068,21.69843 -47.9319,27.15806 -70.1824,12.41484 z m 60.6937,-36.181 c 12.2525,-9.63778 18.5457,-32.67765 16.166,-59.18428 -2.344,-26.1091 -10.352,-41.67282 -24.4454,-47.51051 -33.393,-13.83181 -57.0019,29.89431 -44.7603,82.90042 6.435,27.8631 32.8195,39.69959 53.0397,23.79437 z"
       id="path384"
       transform="matrix(0.26469287,0,0,0.26469287,-0.11022934,0)" /><path
       style="fill:#0d86fd;fill-opacity:1;stroke-width:13.3927"
       d="m 1469.0659,-191.46436 c -18.3582,-8.61089 -32.7607,-23.68963 -40.9969,-42.92179 -8.6705,-20.24623 -8.6239,-79.02411 0.079,-99.66025 27.6757,-65.62475 113.4805,-59.98488 132.7599,8.72619 3.285,11.70789 5.9728,28.23738 5.9728,36.73219 v 15.44511 h -53.5212 c -51.3425,0 -53.5213,0.30535 -53.5213,7.50079 0,12.11229 9.8451,32.18443 17.9005,36.49555 12.2428,6.55213 27.8715,4.56251 41.1575,-5.23958 15.7297,-11.60506 40.6023,-13.07001 40.6023,-2.39141 0,11.26038 -15.9192,31.39045 -31.5174,39.85434 -21.9408,11.90546 -41.3391,13.70284 -58.9151,5.45886 z m 55.9643,-121.1597 c -5.0117,-30.88361 -35.3528,-41.76606 -55.0415,-19.74172 -10.6046,11.86272 -13.4473,27.74844 -5.5367,30.94047 2.5377,1.02396 17.704,1.99288 33.7031,2.15315 l 29.0891,0.2914 z"
       id="path385"
       transform="matrix(0.26469287,0,0,0.26469287,-0.11022934,0)" /><path
       style="fill:#0d86fd;fill-opacity:1;stroke-width:13.3927"
       d="m 1581.6451,-280.52515 v -92.27801 h 20.3012 20.3011 v 92.27801 92.27801 h -20.3011 -20.3012 z"
       id="path386"
       transform="matrix(0.26469287,0,0,0.26469287,-0.11022934,0)" /><path
       style="fill:#0d86fd;fill-opacity:1;stroke-width:13.3927"
       d="m 1581.6451,-422.63329 v -20.30116 h 20.3012 c 19.996,0 20.3011,0.16282 20.3011,10.83307 0,5.95819 -1.6199,15.09371 -3.5997,20.30116 -3.1321,8.23799 -5.7697,9.46809 -20.3012,9.46809 h -16.7014 z"
       id="path387"
       transform="matrix(0.26469287,0,0,0.26469287,-0.11022934,0)" /><path
       style="fill:#0d86fd;fill-opacity:1;stroke-width:13.3927"
       d="m 1648.0853,-282.37071 v -94.12358 h 16.61 16.6101 v 17.12251 17.1225 l 15.9452,-17.1225 c 12.5132,-13.43707 18.4717,-17.12251 27.6834,-17.12251 h 11.7382 v 20.23084 c 0,19.07207 -0.5814,20.35777 -10.1506,22.44675 -19.3208,4.21781 -30.752,10.04423 -34.9413,17.80936 -2.424,4.49306 -4.9143,33.22321 -5.875,67.77949 l -1.6675,59.98071 h -17.9763 -17.9762 z"
       id="path388"
       transform="matrix(0.26469287,0,0,0.26469287,-0.11022934,0)" /><path
       style="fill:#0d86fd;fill-opacity:1;stroke-width:13.3927"
       d="m 1773.3678,-188.14704 c -26.0819,-7.66298 -36.6956,-23.89677 -36.6956,-56.12623 0,-30.96672 10.6677,-43.18442 46.139,-52.8426 39.9719,-10.88364 46.1506,-13.44523 50.0629,-20.75552 5.7117,-10.67231 0.9765,-20.56795 -12.0078,-25.0943 -18.1845,-6.33917 -24.6151,-4.86108 -38.8043,8.91929 -9.8741,9.58958 -16.5155,12.91892 -25.7707,12.91892 -6.8577,0 -13.299,-2.16407 -14.314,-4.80903 -2.6631,-6.93993 7.3756,-28.93024 17.4421,-38.20784 23.2767,-21.45257 75.2514,-20.54917 98.9315,1.71959 l 10.5517,9.92276 2.4286,83.97299 2.4285,83.97299 h -11.0295 c -17.4716,0 -22.7067,-3.49502 -22.7067,-15.15939 0,-11.8801 -7.2129,-14.24083 -14.9664,-4.89839 -10.5854,12.75454 -36.3681,20.9682 -51.6893,16.46676 z m 35.1546,-34.87497 c 14.6284,-6.11213 23.2701,-20.75133 26.6027,-45.06542 l 2.3601,-17.21847 -9.9545,2.49843 c -5.475,1.37414 -18.8834,5.83914 -29.7965,9.92223 -15.6658,5.86134 -20.6536,9.75242 -23.6988,18.4879 -5.6094,16.09102 3.6656,32.23916 20.8905,36.37142 0.5727,0.1374 6.6911,-2.11084 13.5965,-4.99609 z"
       id="path389"
       transform="matrix(0.26469287,0,0,0.26469287,-0.11022934,0)" /><path
       style="fill:#f3831f;fill-opacity:1;stroke-width:13.3927"
       d="m -458.60312,-93.200791 c -8.76794,-9.422989 -13.07834,-24.868459 -33.73536,-120.884199 -36.58269,-170.03966 -37.45217,-180.0673 -16.78724,-193.60748 15.098,-9.89259 214.46529,-68.46207 233.04111,-68.46207 18.44097,0 26.11134,24.99846 60.65679,197.68643 l 19.24051,96.18061 -7.10328,14.48178 c -5.19772,10.59684 -10.92614,15.91472 -21.35368,19.82332 -12.75996,4.78288 -14.59609,4.72383 -17.55566,-0.56462 -1.81789,-3.2484 -9.29719,-9.6094 -16.62068,-14.13556 -11.88097,-7.34284 -20.02864,-8.48567 -75.63149,-10.60843 -36.22946,-1.38314 -63.976,-4.03898 -66.28134,-6.34432 -2.1809,-2.18089 -6.3292,-27.57617 -9.21846,-56.43395 -2.88926,-28.85779 -6.264,-54.10422 -7.49943,-56.10319 -1.23544,-1.99897 -5.41665,-4.8073 -9.2916,-6.24074 -7.32779,-2.71073 -6.14145,-4.29464 51.39492,-68.61845 l 12.99649,-14.52966 34.71697,36.09669 c 26.19062,27.23148 34.0191,37.59885 31.8754,42.21306 -1.56288,3.36401 -3.48145,25.63317 -4.26351,49.48704 l -1.42191,43.37066 h -17.68509 c -16.85439,0 -17.79344,-0.54179 -19.99203,-11.53475 -3.53325,-17.66623 -2.99841,-18.98699 6.92085,-17.0908 5.73605,1.09651 9.2278,0.0718 9.2278,-2.70806 0,-7.1428 -52.26096,-79.47396 -55.82866,-77.269 -4.22913,2.61375 -4.21542,108.60261 0.014,108.60261 1.78382,0 5.34562,-5.07542 7.91511,-11.27871 5.75492,-13.89361 8.49642,-11.20735 16.21943,15.89262 l 6.04845,21.22394 h 29.29598 c 36.56238,0 36.93797,-0.5605 36.93797,-55.12415 v -40.84498 h 11.1892 c 16.79437,0 17.40783,-8.79138 1.9314,-27.67833 -23.93505,-29.20958 -91.29057,-97.81977 -96.03094,-97.81977 -4.7104,0 -78.87556,82.86948 -96.9436,108.32129 -9.80729,13.81517 -9.88796,14.3373 -2.99387,19.37838 3.89675,2.84937 12.22952,5.18067 18.51727,5.18067 h 11.43228 l 4.10098,47.44985 c 3.95099,45.71441 9.73531,66.40987 20.40432,73.00367 2.49693,1.54319 33.17516,4.00837 68.17384,5.47817 64.17781,2.69521 82.03222,5.19302 76.27794,10.67123 -1.72695,1.64409 -31.37697,11.27231 -65.88895,21.39606 -121.40619,35.613314 -114.75653,34.458916 -126.40228,21.943139 z"
       id="path390"
       transform="matrix(0.26469287,0,0,0.26469287,-0.11022934,0)" /></g></svg>
