<?xml version="1.0" encoding="UTF-8" standalone="no"?>
<svg
   height="476.77899"
   viewBox="0 0 640.2 126.2"
   width="2419.4851"
   version="1.1"
   id="svg14"
   sodipodi:docname="aliexpress.svg"
   xml:space="preserve"
   inkscape:export-filename="consul.svg"
   inkscape:export-xdpi="96"
   inkscape:export-ydpi="96"
   xmlns:inkscape="http://www.inkscape.org/namespaces/inkscape"
   xmlns:sodipodi="http://sodipodi.sourceforge.net/DTD/sodipodi-0.dtd"
   xmlns="http://www.w3.org/2000/svg"
   xmlns:svg="http://www.w3.org/2000/svg"><defs
     id="defs14" /><sodipodi:namedview
     id="namedview14"
     pagecolor="#ffffff"
     bordercolor="#000000"
     borderopacity="0.25"
     inkscape:showpageshadow="2"
     inkscape:pageopacity="0.0"
     inkscape:pagecheckerboard="0"
     inkscape:deskcolor="#d1d1d1"
     inkscape:export-bgcolor="#ffffff00" /><g
     id="g339"
     transform="translate(106.03899,176.00368)"><path
       style="fill:#0d86fd;fill-opacity:1;stroke-width:13.3927"
       d="m 12.918922,-203.18503 c -112.493193,-12.19318 -201.204402,-45.19482 -254.750482,-94.77028 -31.37657,-29.0499 -44.18117,-47.00769 -55.24853,-77.48322 -10.90981,-30.0417 -9.54813,-81.66222 2.88492,-109.36582 30.33701,-67.5976 121.13047,-120.5945 255.438405,-149.10154 42.5280012,-9.02662 52.927696,-9.78779 132.880336,-9.72563 92.142509,0.0716 118.446319,3.09085 186.731749,21.43356 94.81474,25.46896 170.6391,75.82427 199.84299,132.71664 18.52322,36.0852 15.07782,101.15058 -7.35117,138.82488 -42.45582,71.31366 -139.33145,122.90419 -266.68633,142.02213 -45.04695,6.76228 -153.488629,9.81233 -193.741888,5.44928 z m 210.393868,-47.2366 c 123.47344,-25.84083 212.1068,-77.76026 241.86454,-141.67875 11.21532,-24.09008 12.70823,-54.5389 2.67219,-54.50044 -8.8044,0.0337 -132.53688,32.25793 -140.75981,36.65869 -4.81499,2.57691 -6.13627,6.59632 -4.91152,14.94104 2.13757,14.56433 -6.49888,24.4655 -26.56669,30.45704 -8.43502,2.51841 -20.7968,10.49381 -28.03871,18.08963 -8.77937,9.20845 -17.69841,14.4572 -27.6834,16.29137 -8.10209,1.4883 -20.18711,7.45215 -26.85564,13.25302 -7.58407,6.59731 -16.29913,10.54703 -23.27199,10.54703 -6.1311,0 -18.91467,3.53839 -28.40797,7.86309 -15.64146,7.1255 -19.40068,7.46875 -40.07568,3.65923 -15.68933,-2.89087 -25.873498,-3.04105 -32.607357,-0.48084 -17.231442,6.55139 -40.425978,4.45293 -54.215679,-4.90501 -6.992754,-4.74542 -19.211917,-9.68248 -27.1536908,-10.97125 -7.94177414,-1.28877 -18.7191112,-5.50721 -23.9496392,-9.37431 -5.230528,-3.8671 -16.690106,-8.24414 -25.465727,-9.72678 -10.388861,-1.75519 -20.791465,-7.06454 -29.816095,-15.21775 -7.623235,-6.88714 -15.89959,-12.52206 -18.391905,-12.52206 -2.492311,0 -10.207727,-2.69356 -17.145367,-5.98569 -10.19123,-4.83605 -13.41732,-9.17638 -16.79703,-22.59842 -3.62674,-14.4031 -6.22404,-17.51552 -19.52727,-23.40018 -28.83308,-12.75424 -130.05742,-35.55495 -140.33618,-31.61061 -4.49413,1.72455 -5.24037,5.63348 -3.43328,17.98413 12.76145,87.21879 119.91476,154.25269 287.56111,179.89502 12.180697,1.86309 59.519317,2.77635 105.19693,2.02945 64.60768,-1.05647 90.83707,-2.98767 118.11586,-8.69665 z M 92.445773,-311.7319 c 4.983012,-4.98301 9.060037,-11.70253 9.060037,-14.93226 0,-3.22973 -4.077025,-9.94925 -9.060037,-14.93226 -7.225037,-7.22504 -12.831922,-9.06002 -27.683404,-9.06002 -18.455377,0 -18.623363,-0.10559 -18.623363,-11.7055 0,-6.43803 -2.74894,-14.74305 -6.10876,-18.4556 -6.70467,-7.40858 -23.628007,-8.87406 -34.6093816,-2.997 -5.83794994,3.12437 -7.9377656,1.96431 -12.5345246,-6.92485 -7.2327798,-13.98665 -21.8069438,-16.93609 -40.0413998,-8.10334 -13.468962,6.52435 -14.055159,6.52551 -17.528902,0.0348 -7.456086,-13.93182 -33.122244,-13.64274 -40.668758,0.45806 -3.14776,5.88164 -2.7379,9.60397 1.8241,16.56646 4.708135,7.18552 9.024996,8.98029 21.599828,8.98029 14.06105,0 16.154373,1.16213 19.881987,11.0377 4.981503,13.19751 19.307366,19.57292 36.664428,16.31672 9.522035,-1.78634 12.463455,-1.06955 12.463455,3.03723 0,11.541 13.68902999,18.74374 31.090109,16.35866 14.250404,-1.95324 16.77165,-1.2764 18.7766,5.04063 5.820078,18.33744 40.621441,24.15688 55.497986,9.28032 z m 59.785257,2.34332 c 3.27037,-2.0769 0.35804,-7.04122 -10.15058,-17.30262 -25.57145,-24.96985 -17.62502,-27.77141 14.50397,-5.11345 18.31556,12.91649 23.24324,14.77732 33.28914,12.57086 19.51137,-4.28542 18.06479,-11.50519 -7.46677,-37.26573 -29.323,-29.58596 -20.6004,-32.67119 14.57982,-5.15696 27.6191,21.60069 41.96671,23.93802 55.90021,9.10652 l 8.71411,-9.27577 -17.89205,-15.6393 c -40.7899,-35.65418 -48.07584,-43.13817 -42.08626,-43.23041 3.29628,-0.0508 19.43969,9.06481 35.87426,20.25683 37.04452,25.22749 45.75254,28.75859 57.60432,23.35857 12.6924,-5.78305 14.6061,-13.95316 5.53093,-23.61323 -10.16181,-10.81673 -137.05123,-97.87255 -158.4408,-108.70245 -21.48121,-10.87631 -40.02064,-10.59794 -61.842466,0.92859 -9.67989,5.11303 -29.011572,15.30555 -42.959272,22.65006 -28.3320217,14.91893 -45.2764164,16.78422 -68.404571,7.53017 -21.993257,-8.79996 -21.925946,-14.76631 0.423726,-37.55828 l 19.517892,-19.90414 -14.764482,3.03677 c -30.860358,6.34738 -82.731057,2.54243 -129.189217,-9.47662 -24.36139,-6.30246 -47.16907,-11.46349 -50.68371,-11.46896 -10.92547,-0.017 -57.0891,46.80491 -67.86759,68.83535 -5.58355,11.41238 -8.42727,21.4003 -6.55739,23.0314 1.81594,1.58406 21.04146,6.50335 42.72336,10.93177 21.6819,4.42842 55.73249,13.22699 75.66796,19.55238 35.87888,11.38412 59.35846,14.04436 122.327483,13.85972 16.34534,-0.0479 26.87263,2.02055 35.1556001,6.90762 6.5029237,3.83682 19.7397649,8.06108 29.4152029,9.38725 23.442458,3.21314 31.700026,8.13435 37.685255,22.459 3.792737,9.07736 8.576466,13.04193 19.790643,16.40177 18.950026,5.67757 29.949416,19.52874 29.949416,37.71433 0,11.59416 1.43208,14.28581 8.30502,15.6096 14.34901,2.76374 26.59128,2.59946 31.34684,-0.42064 z M 351.6942,-431.71297 c 30.12239,-9.29421 61.32453,-17.19136 110.61864,-27.99718 4.56776,-1.0013 8.30502,-4.34659 8.30502,-7.43396 0,-15.60152 -34.4922,-61.64937 -59.53637,-79.4824 l -10.9066,-7.76618 -30.2959,8.64189 c -25.75967,7.34794 -38.30966,8.60607 -83.81716,8.40269 -50.40715,-0.22528 -55.66888,-0.95204 -90.43245,-12.49073 -47.51889,-15.77242 -100.47104,-19.39814 -133.156133,-9.11742 -20.629388,6.48874 -48.024806,24.5163 -77.237729,50.82631 -12.404279,11.17166 -13.879406,13.93127 -9.227801,17.26303 11.797725,8.45025 38.333009,1.81414 70.543616,-17.64199 39.547558,-23.88786 59.825987,-29.39937 83.638507,-22.73227 15.92471,4.45864 166.90176,101.42436 172.81402,110.99061 1.24317,2.01148 4.63553,2.74577 7.53859,1.63176 2.90307,-1.11401 21.42135,-7.00638 41.15175,-13.09416 z M -14.764482,-549.70632 c 18.2710464,-3.78873 44.016612,-11.62831 57.212367,-17.42131 22.340027,-9.80737 27.169673,-10.51545 70.131285,-10.28192 41.89378,0.22772 49.53517,1.37073 83.05021,12.42271 47.54256,15.67771 99.3701,19.10292 146.02065,9.65031 16.99352,-3.44333 32.35836,-7.16358 34.14409,-8.26724 10.30852,-6.37101 -73.64391,-40.97278 -126.64349,-52.19727 -62.01226,-13.13324 -103.57332,-16.51884 -176.656692,-14.39062 -97.3301,2.83429 -163.520604,16.88471 -232.684658,49.39255 l -28.05642,13.18682 14.76448,5.10294 c 26.31629,9.09551 80.643647,19.36064 103.351372,19.5282 12.180697,0.0899 37.09576,-2.93645 55.366806,-6.72517 z"
       id="path320"
       transform="matrix(0.26469287,0,0,0.26469287,-0.11022934,0)" /><path
       style="fill:#0d86fd;fill-opacity:1;stroke-width:13.3927"
       d="m 614.57155,-494.36985 c 0,-26.25935 1.47631,-51.62725 3.28068,-56.3731 13.04481,-34.31046 72.1926,-50.85016 107.42298,-30.03906 9.93984,5.87161 11.36314,5.76452 30.01186,-2.25794 35.09625,-15.098 76.07589,-5.64725 94.58087,21.81228 7.63502,11.32961 8.31756,16.53814 8.31756,63.47226 v 51.12984 h -20.30116 -20.30116 v -46.13901 c 0,-54.50829 -3.23443,-60.90349 -30.80245,-60.90349 -25.81334,0 -28.25548,5.20928 -28.25548,60.27135 v 46.77115 h -22.14672 -22.14672 v -47.41249 c 0,-43.1083 -0.68684,-48.03407 -7.56583,-54.25947 -10.78115,-9.75681 -30.7013,-8.85117 -42.16338,1.91689 -8.99896,8.45409 -9.32872,10.37209 -9.32872,54.25947 v 45.4956 h -20.30116 -20.30117 z"
       id="path321"
       transform="matrix(0.26469287,0,0,0.26469287,-0.11022934,0)" /><path
       style="fill:#0d86fd;fill-opacity:1;stroke-width:13.3927"
       d="m 610.88043,-315.04 c 0,-45.51035 1.6372,-83.50474 3.87485,-89.92368 4.1193,-11.81664 16.49226,-19.51517 31.36448,-19.51517 h 9.05412 v 94.12357 94.12357 h -22.14672 -22.14673 z"
       id="path322"
       transform="matrix(0.26469287,0,0,0.26469287,-0.11022934,0)" /><path
       style="fill:#0d86fd;fill-opacity:1;stroke-width:13.3927"
       d="m 689.2353,-305.44022 1.00422,-69.20851 23.06951,-1.09891 23.0695,-1.09891 v 70.30742 70.30742 H 712.3048 688.23107 Z"
       id="path323"
       transform="matrix(0.26469287,0,0,0.26469287,-0.11022934,0)" /><path
       style="fill:#0d86fd;fill-opacity:1;stroke-width:13.3927"
       d="m 688.39396,-402.33213 v -18.4556 h 23.99229 23.99228 v 18.4556 18.4556 h -23.99228 -23.99229 z"
       id="path324"
       transform="matrix(0.26469287,0,0,0.26469287,-0.11022934,0)" /><path
       style="fill:#0d86fd;fill-opacity:1;stroke-width:13.3927"
       d="m 806.75854,-244.53673 c -1.79282,-4.56776 -15.03974,-35.35195 -29.4376,-68.4093 -14.39786,-33.05735 -26.17793,-60.87917 -26.17793,-61.82627 0,-0.94709 10.5933,-1.72199 23.54066,-1.72199 h 23.54065 l 15.97211,44.29345 c 8.78466,24.36139 17.09411,44.29345 18.46544,44.29345 1.37134,0 9.46158,-18.66578 17.9783,-41.47952 8.51674,-22.81373 17.43581,-42.72034 19.82017,-44.23692 2.38436,-1.51658 13.90827,-2.78285 25.60868,-2.81393 l 21.27348,-0.0565 -5.69571,13.84171 c -3.13265,7.61293 -16.74828,39.17201 -30.25697,70.13128 l -24.56126,56.28959 h -23.40517 c -20.84545,0 -23.76167,-0.90828 -26.66485,-8.30502 z"
       id="path325"
       transform="matrix(0.26469287,0,0,0.26469287,-0.11022934,0)" /><path
       style="fill:#0d86fd;fill-opacity:1;stroke-width:13.3927"
       d="m 918.64624,-241.59118 c -1.20946,-3.1518 -1.60197,-24.53867 -0.87224,-47.52637 1.18234,-37.24558 2.33075,-43.28319 10.54869,-55.45787 11.40784,-16.90047 38.56218,-30.596 67.35705,-33.97213 l 21.22396,-2.48846 v 18.53454 18.53453 l -18.16023,2.49767 c -28.17258,3.87472 -31.33444,9.57195 -33.51547,60.39028 l -1.84556,43.00172 -21.2686,1.10832 c -16.53256,0.86151 -21.75826,-0.16775 -23.4676,-4.62223 z"
       id="path326"
       transform="matrix(0.26469287,0,0,0.26469287,-0.11022934,0)" /><path
       style="fill:#0d86fd;fill-opacity:1;stroke-width:13.3927"
       d="m 1079.4702,-237.34899 c -40.431,-11.43122 -55.2258,-30.10381 -55.1236,-69.57184 0.1237,-47.71865 27.6637,-71.41902 82.9895,-71.41902 24.6462,0 32.8631,1.61399 48.0831,9.44462 22.8833,11.77331 34.8194,30.94722 34.9064,56.07277 l 0.061,17.53282 h -60.9034 c -66.4543,0 -69.7367,1.2335 -51.5854,19.38479 11.3813,11.38136 23.8695,14.12308 41.7303,9.16173 19.476,-5.41001 67.0674,-7.77186 67.0674,-3.3284 0,5.34588 -22.0926,23.08912 -36.0109,28.92142 -17.6968,7.41563 -51.9612,9.24452 -71.2141,3.80111 z m 58.1495,-82.36985 c 7.6775,-2.05853 7.8108,-2.67931 2.3609,-10.99686 -6.8152,-10.40138 -29.8076,-18.22512 -43.4773,-14.79425 -11.4583,2.87584 -24.2328,14.75637 -24.2328,22.53691 0,4.44956 5.6168,5.52679 28.6062,5.48628 15.7334,-0.0277 32.2677,-1.03216 36.743,-2.23208 z"
       id="path327"
       transform="matrix(0.26469287,0,0,0.26469287,-0.11022934,0)" /><path
       style="fill:#0d86fd;fill-opacity:1;stroke-width:13.3927"
       d="m 939.03196,-446.71421 c -45.28782,-7.55051 -66.00091,-34.86468 -61.55177,-81.16779 4.20789,-43.79228 56.42638,-72.2528 108.76661,-59.28078 35.6796,8.84283 52.6861,27.07499 57.9262,62.1009 l 2.3469,15.68726 -48.95098,0.0406 c -52.75763,0.0438 -76.63437,2.57013 -76.63437,8.10851 0,1.92065 5.00183,8.49392 11.11517,14.60726 10.63806,10.63806 12.10362,11.01784 34.14287,8.84766 12.66523,-1.24714 35.48521,-3.18859 50.71111,-4.31434 l 27.6834,-2.04682 -11.0734,11.70888 c -21.465,22.69693 -56.06941,32.11285 -94.48174,25.70864 z m 59.41612,-88.08934 c 0,-7.59362 -13.8352,-19.43327 -25.83784,-22.11107 -15.08476,-3.36542 -31.13225,0.21293 -40.99894,9.14216 -14.69744,13.30101 -9.26497,16.25112 29.92558,16.25112 20.30116,0 36.9112,-1.47699 36.9112,-3.28221 z"
       id="path328"
       transform="matrix(0.26469287,0,0,0.26469287,-0.11022934,0)" /><path
       style="fill:#0d86fd;fill-opacity:1;stroke-width:13.3927"
       d="m 1065.4356,-493.77799 c 1.1865,-43.43541 2.0921,-48.69981 10.526,-61.18876 11.4895,-17.01368 38.8807,-30.91589 67.363,-34.18952 l 21.2239,-2.4394 v 18.61744 18.61743 l -18.0904,2.48806 c -29.3859,4.04159 -33.1291,10.68918 -34.3795,61.05476 l -1.0513,42.34685 -23.445,1.10865 -23.445,1.10866 z"
       id="path329"
       transform="matrix(0.26469287,0,0,0.26469287,-0.11022934,0)" /><path
       style="fill:#0d86fd;fill-opacity:1;stroke-width:13.3927"
       d="m 1214.3786,-451.0686 c -25.5663,-8.91253 -42.4479,-34.9388 -42.4479,-65.44187 0,-24.35828 6.66,-39.90006 23.394,-54.59276 17.2428,-15.13932 38.4122,-20.71322 70.7296,-18.62305 39.0124,2.52318 62.7318,17.10122 69.1791,42.51767 2.0237,7.97811 1.1604,8.30503 -21.9316,8.30503 -21.2445,0 -24.8819,-1.07249 -31.2969,-9.22781 -5.6865,-7.22916 -10.6202,-9.2278 -22.7794,-9.2278 -8.5365,0 -19.1648,2.55232 -23.6185,5.67182 -11.4,7.98487 -17.0111,31.08737 -12.037,49.55985 4.7626,17.68693 15.5297,25.97298 33.7497,25.97298 10.5965,0 15.6808,-2.45503 22.9327,-11.07336 8.4668,-10.06219 11.3617,-11.07336 31.7026,-11.07336 19.6266,0 22.385,0.87478 22.385,7.09904 0,10.56994 -17.9694,29.9422 -34.9129,37.63858 -16.8661,7.66119 -66.0868,9.10516 -85.0485,2.49504 z"
       id="path330"
       transform="matrix(0.26469287,0,0,0.26469287,-0.11022934,0)" /><path
       style="fill:#0d86fd;fill-opacity:1;stroke-width:13.3927"
       d="m 1378.6335,-449.06421 c -3.0452,-1.19542 -10.1045,-6.42953 -15.6873,-11.63136 -14.5065,-13.5166 -14.4069,-37.6083 0.216,-52.23121 10.2183,-10.21833 16.0129,-12.03871 71.4409,-22.44336 32.429,-6.0874 31.0999,-20.98668 -2.2072,-24.74087 -14.2538,-1.60661 -17.5464,-0.56954 -25.525,8.03955 -8.0508,8.68691 -11.51,9.74766 -28.5593,8.75765 -10.6695,-0.61955 -19.9827,-2.90094 -20.696,-5.06976 -3.0839,-9.37626 15.9046,-29.36669 34.0222,-35.81749 23.3745,-8.32251 68.8628,-6.58226 89.2851,3.41579 19.2763,9.43701 23.093,19.38895 23.1405,60.33729 0.068,58.37585 -14.3695,71.31801 -81.1365,72.73482 -21.3162,0.45234 -41.2482,-0.15563 -44.2934,-1.35105 z m 62.485,-28.79937 c 11.3578,-5.87333 15.0285,-12.35206 15.0285,-26.52498 0,-6.95206 -1.5648,-8.74538 -6.4594,-7.40266 -3.5527,0.97459 -13.1035,2.8704 -21.224,4.21291 -26.5247,4.38517 -39.018,18.61272 -26.9452,30.68555 6.0767,6.07662 26.962,5.5646 39.6001,-0.97082 z"
       id="path331"
       transform="matrix(0.26469287,0,0,0.26469287,-0.11022934,0)" /><path
       style="fill:#0d86fd;fill-opacity:1;stroke-width:13.3927"
       d="m 1577.8628,-446.81617 c -23.5375,-2.71322 -31.1642,-6.23148 -44.9064,-20.7157 -24.0197,-25.31652 -22.0105,-75.36338 4.0725,-101.44644 21.8173,-21.81729 57.027,-26.95156 85.138,-12.41479 5.6199,2.90614 11.259,4.2428 12.5315,2.97035 1.2724,-1.27244 2.3135,-10.34172 2.3135,-20.15395 0,-19.09751 8.7485,-32.55795 21.224,-32.6553 3.5527,-0.0277 10.1967,-1.05195 14.7644,-2.27606 l 8.3051,-2.22566 v 73.70706 c 0,70.27646 -0.3868,74.2908 -8.3104,86.24905 -15.4221,23.27508 -50.8629,34.06446 -95.1322,28.96144 z m 46.1534,-38.15377 c 18.1922,-18.19224 15.0152,-56.26449 -5.584,-66.91676 -16.9465,-8.76336 -32.197,-6.93929 -44.4533,5.31694 -9.0481,9.04809 -10.7894,13.76815 -10.7894,29.24576 0,26.50789 12.6644,41.16946 35.5615,41.16946 12.4197,0 18.6095,-2.15971 25.2652,-8.8154 z"
       id="path332"
       transform="matrix(0.26469287,0,0,0.26469287,-0.11022934,0)" /><path
       style="fill:#ffffff;fill-opacity:1;stroke-width:6.69633"
       d="m 122.72975,-310.66404 -8.30502,-2.15842 0.61886,-8.13785 c 0.89938,-11.8265 -2.89846,-23.08999 -10.38453,-30.79815 -6.841286,-7.04425 -18.953532,-13.55263 -25.350705,-13.62194 -5.686946,-0.0616 -11.52067,-4.97871 -12.796044,-10.78545 -3.135551,-14.27605 -19.448938,-24.42765 -43.442808,-27.03389 -7.243234,-0.78677 -14.5553985,-2.90713 -18.4556024,-5.35169 -12.8196489,-8.03509 -17.3865986,-9.11299 -44.2934456,-10.45428 -14.718343,-0.73369 -30.249009,-2.42586 -34.512567,-3.76037 -6.405312,-2.00488 -9.873027,-2.00478 -19.961856,5.5e-4 -14.494032,2.88096 -30.492022,1.50542 -43.884052,-3.77322 -16.50866,-6.50711 -59.26443,-17.85749 -93.00639,-24.69042 -47.83324,-9.68649 -48.56115,-9.90442 -48.53993,-14.53249 0.0233,-5.09008 7.48222,-21.05863 14.81414,-31.71521 8.65122,-12.57411 37.40499,-41.94798 48.3881,-49.43162 l 9.67936,-6.5953 11.07336,2.48488 c 6.09035,1.36668 24.36139,5.87692 40.60232,10.02276 36.95777,9.43426 69.228663,15.01149 86.859281,15.01149 7.476088,0 22.134967,-1.65849 32.575301,-3.68554 10.440334,-2.02704 19.397687,-3.67312 19.905216,-3.65795 0.507529,0.0152 -7.174615,7.80606 -17.071432,17.31306 -19.949528,19.16376 -21.498617,22.89442 -12.918922,31.11234 7.08195,6.78333 16.711825,10.40479 33.23985,12.50034 24.919327,3.15946 38.147472,-0.90816 69.576366,-21.39455 8.665551,-5.64849 21.362673,-12.89809 28.215829,-16.11021 10.79697,-5.06062 14.431137,-5.83209 27.224741,-5.7793 13.30618,0.0549 16.07386,0.73034 28.0212,6.83846 22.2249,11.36257 138.52513,90.58099 155.8518,106.15915 10.79535,9.70594 11.48304,14.53926 3.07524,21.61396 -5.14636,4.33038 -7.1514,4.87259 -15.46792,4.18292 -10.34056,-0.85752 -17.69202,-5.01003 -56.61569,-31.97971 -18.7733,-13.00775 -27.22163,-16.36113 -29.97906,-11.89952 -2.42826,3.929 1.60658,8.72252 17.78169,21.12522 20.39603,15.63919 42.20922,35.61289 42.20922,38.64974 0,3.77616 -11.8822,13.99127 -18.47348,15.88162 -10.25259,2.9404 -18.58544,-0.79328 -43.37098,-19.43312 -16.75142,-12.59783 -24.72429,-17.48322 -28.53231,-17.48322 -2.90663,0 -5.65686,1.03813 -6.11165,2.30695 -0.45478,1.26883 8.61154,11.99557 20.14738,23.8372 12.75808,13.0963 20.97423,22.99592 20.97423,25.27181 0,5.89886 -6.98985,9.48753 -18.47939,9.48753 -9.89864,0 -10.96984,-0.5124 -29.18032,-13.9583 -14.45815,-10.67535 -20.07984,-13.82236 -23.90196,-13.38031 -9.34758,1.08111 -7.31318,6.50021 7.74229,20.62354 7.72425,7.24598 14.03174,14.12381 14.01666,15.28403 -0.0617,4.7465 -14.91847,5.69879 -29.55637,1.89448 z"
       id="path334"
       transform="matrix(0.26469287,0,0,0.26469287,-0.11022934,0)" /><path
       style="fill:#ffffff;fill-opacity:1;stroke-width:6.69633"
       d="m 296.80525,-427.08033 c -5.90888,-4.28563 -34.41273,-24.00777 -63.34188,-43.82699 -89.29292,-61.17413 -95.17923,-64.30514 -120.89363,-64.30514 -22.57357,0 -34.160647,4.56713 -71.044635,28.00275 -17.484599,11.10949 -35.8091411,18.00155 -47.9845658,18.04753 -13.1902402,0.0498 -18.4556022,-1.45859 -18.4556022,-5.28704 0,-6.82274 48.394784,-45.47621 70.420883,-56.24597 21.034957,-10.28513 33.772912,-12.89904 62.45945,-12.8171 30.6006,0.0874 52.74945,3.79116 86.62626,14.4857 30.9535,9.77168 47.41401,13.26958 72.82935,15.47644 33.50622,2.9094 77.31687,-2.69002 114.43158,-14.62546 l 16.76149,-5.3902 6.68049,4.42094 c 11.82862,7.82781 39.63979,36.61917 48.22131,49.92083 4.58402,7.10541 10.2247,17.33198 12.53483,22.72572 3.58902,8.37976 3.82409,10.16372 1.61541,12.25953 -1.42165,1.349 -15.42838,5.12017 -31.12605,8.38037 -34.18087,7.09892 -71.56512,17.23575 -104.66905,28.38126 l -24.32225,8.18887 z"
       id="path335"
       transform="matrix(0.26469287,0,0,0.26469287,-0.11022934,0)" /><path
       style="fill:#ffffff;fill-opacity:1;stroke-width:6.69633"
       d="m 51.162222,-308.42864 c -8.289843,-4.10339 -11.380095,-8.13946 -13.255664,-17.31274 -1.343518,-6.57106 -7.096425,-8.21247 -13.373627,-3.81574 -5.234305,3.66624 -20.2594477,3.76609 -27.1928318,0.1807 -5.0716603,-2.62266 -9.3362402,-10.7666 -9.3362402,-17.82914 0,-4.77123 -7.955723,-6.39674 -13.229275,-2.703 -5.755891,4.03158 -19.563254,3.75287 -26.59798,-0.53689 -6.808175,-4.15162 -11.848432,-13.97739 -11.848432,-23.09802 0,-7.63562 -1.761227,-8.13572 -10.22655,-2.90386 -5.144661,3.17957 -7.245259,3.47017 -14.05954,1.94504 -9.220938,-2.06378 -18.161792,-10.70066 -18.161792,-17.54432 0,-5.30413 8.674632,-13.15651 16.411396,-14.85579 8.801772,-1.93319 20.051822,2.04171 23.242696,8.21218 1.522148,2.94351 3.606675,5.87044 4.632284,6.50431 1.025611,0.63386 7.246099,-1.49676 13.823311,-4.73471 10.050389,-4.94779 13.445644,-5.74429 21.278109,-4.99169 10.647694,1.0231 18.426893,6.84188 18.426893,13.78316 0,7.06912 7.4702981,9.29685 16.9064943,5.04172 13.9407367,-6.28639 28.5004147,-2.929 33.3376167,7.68751 1.582465,3.47313 1.525627,6.79804 -0.233539,13.66194 -3.384064,13.20392 -1.877852,14.19548 20.265929,13.34136 20.148918,-0.77718 26.328574,1.18481 32.929368,10.45476 15.125032,21.24114 -16.855225,42.82023 -43.738626,29.51322 z"
       id="path336"
       transform="matrix(0.26469287,0,0,0.26469287,-0.11022934,0)" /><path
       style="fill:#ffd100;fill-opacity:1;stroke-width:6.69633"
       d="m 18.06438,-243.64842 c -25.638227,-2.50072 -61.484617,-8.64136 -87.272888,-14.95024 -114.044042,-27.8999 -191.824272,-81.4461 -212.964172,-146.61079 -1.6659,-5.13524 -3.22247,-15.10126 -3.45904,-22.14673 l -0.43011,-12.80993 5.34662,-0.61016 c 11.4546,-1.30721 84.13558,14.58573 120.56131,26.36278 23.02084,7.44303 32.78079,13.80752 31.14829,20.31189 -1.44445,5.75516 2.00856,16.63936 7.25804,22.87802 5.35504,6.3641 17.08273,12.20669 28.246063,14.07185 6.21223,1.03792 9.724442,3.18623 15.687262,9.5954 9.626018,10.34658 18.345607,14.90258 35.109772,18.34492 7.937514,1.62988 16.110356,4.75109 20.55775,7.85101 9.3184,6.4951 19.3843807,10.43798 33.138954,12.98065 5.939824,1.09803 14.626969,4.45239 19.304762,7.45413 19.847487,12.7361 37.823078,15.11738 58.825424,7.7928 11.094693,-3.86928 12.142033,-3.92496 23.645433,-1.25715 19.67154,4.56214 36.57368,3.73063 49.64145,-2.44214 6.42631,-3.03557 15.98615,-5.74139 22.77999,-6.44767 14.60213,-1.518 25.21175,-6.22007 33.34267,-14.77709 4.83018,-5.08331 8.69028,-7.1108 16.61004,-8.72434 13.16224,-2.68162 30.42823,-11.78015 36.2599,-19.10762 8.48997,-10.6676 10.75063,-12.20339 23.59318,-16.02807 9.7095,-2.89161 14.91866,-5.78714 21.33477,-11.85899 l 8.48875,-8.03328 -0.25744,-13.03271 -0.25744,-13.0327 15.02192,-4.57277 c 42.8727,-13.05071 125.20967,-33.29115 129.19906,-31.76027 3.78426,1.45216 4.8631,22.24885 1.77939,34.30121 -1.40139,5.4772 -5.85338,16.27373 -9.89331,23.99229 -35.32315,67.4873 -144.00065,122.59461 -274.97402,139.43163 -25.68651,3.30208 -142.325525,5.27709 -167.37238,2.83407 z"
       id="path337"
       transform="matrix(0.26469287,0,0,0.26469287,-0.11022934,0)" /><path
       style="fill:#ffd100;fill-opacity:1;stroke-width:6.69633"
       d="m -107.04249,-548.29999 c -21.89697,-3.84162 -69.68267,-15.49055 -74.42,-18.1417 -5.93858,-3.32339 49.25429,-27.02754 92.693022,-39.80965 56.515328,-16.62997 110.034327,-23.07221 191.739158,-23.08022 98.16183,-0.01 176.96106,15.80427 247.90045,49.75007 12.29824,5.88493 22.86537,11.51689 23.48254,12.51548 1.4117,2.28419 -20.2372,8.70688 -42.15184,12.5054 -19.26584,3.33939 -63.58446,3.86357 -83.52563,0.9879 -20.05736,-2.89243 -28.81288,-5.07697 -52.12305,-13.00494 -32.13478,-10.92929 -55.41722,-15.06323 -84.89577,-15.07376 -29.56122,-0.0106 -47.720297,3.27596 -70.131285,12.69276 -23.894191,10.04002 -39.0896299,14.49736 -67.362948,19.75988 -30.932213,5.75742 -52.170846,5.99249 -81.204647,0.89878 z"
       id="path338"
       transform="matrix(0.26469287,0,0,0.26469287,-0.11022934,0)" /><path
       style="fill:#0d86fd;fill-opacity:1;stroke-width:6.69633"
       d="m 1755.0597,-446.60633 c -5.1127,-0.7512 -14.0049,-3.67162 -19.7604,-6.48982 -42.2536,-20.68957 -53.1526,-78.18759 -21.3675,-112.72506 16.1826,-17.58399 29.9216,-22.91345 62.4199,-24.21314 36.5222,-1.4606 55.2236,4.33845 73.1262,22.67541 13.9626,14.3014 17.9563,25.71185 18.0336,51.52486 0.056,18.71943 -0.3435,21.07917 -5.1284,30.28675 -10.826,20.83222 -32.7612,36.03342 -56.3987,39.08465 -14.2758,1.84277 -37.8578,1.77625 -50.9247,-0.14365 z m 44.8964,-33.04294 c 8.7793,-4.48075 12.2477,-8.40629 17.0803,-19.33121 5.6354,-12.73978 5.3318,-26.21339 -0.8768,-38.90326 -5.8099,-11.87507 -11.9504,-16.8027 -24.5677,-19.71511 -18.8283,-4.3461 -34.7172,1.98876 -42.3912,16.90131 -12.5071,24.30445 -3.1334,56.2747 18.3134,62.45977 10.4433,3.01176 25.0179,2.37764 32.442,-1.4115 z"
       id="path339"
       transform="matrix(0.26469287,0,0,0.26469287,-0.11022934,0)" /></g></svg>
