<?xml version="1.0" encoding="UTF-8" standalone="no"?>
<svg
   height="476.77899"
   viewBox="0 0 640.2 126.2"
   width="2419.4851"
   version="1.1"
   id="svg14"
   sodipodi:docname="aliexpress.svg"
   xml:space="preserve"
   inkscape:export-filename="centauro.svg"
   inkscape:export-xdpi="96"
   inkscape:export-ydpi="96"
   xmlns:inkscape="http://www.inkscape.org/namespaces/inkscape"
   xmlns:sodipodi="http://sodipodi.sourceforge.net/DTD/sodipodi-0.dtd"
   xmlns="http://www.w3.org/2000/svg"
   xmlns:svg="http://www.w3.org/2000/svg"><defs
     id="defs14" /><sodipodi:namedview
     id="namedview14"
     pagecolor="#ffffff"
     bordercolor="#000000"
     borderopacity="0.25"
     inkscape:showpageshadow="2"
     inkscape:pageopacity="0.0"
     inkscape:pagecheckerboard="0"
     inkscape:deskcolor="#d1d1d1" /><g
     id="g79"
     transform="matrix(1.1261563,0,0,1.1385072,-3.2898054,243.81322)"><path
       style="fill:#d7cadf"
       d="m 381.74575,-108.14064 c 0.24914,-0.14974 0.54681,-0.13133 0.66149,0.0409 0.11469,0.17226 -0.0892,0.29478 -0.45298,0.27227 -0.40205,-0.0249 -0.48383,-0.14771 -0.20851,-0.3132 z m -346.695345,-2.07869 c 0.335798,-0.13143 0.80172,-0.12279 1.035382,0.0192 0.233662,0.142 -0.04108,0.24954 -0.610541,0.23897 -0.56946,-0.0106 -0.760638,-0.12674 -0.424841,-0.25818 z m 5.019348,0.005 c 0.249138,-0.14975 0.546811,-0.13133 0.661494,0.0409 0.114683,0.17226 -0.08916,0.29478 -0.45298,0.27227 -0.402054,-0.0249 -0.483834,-0.14771 -0.208514,-0.3132 z m 37.424738,-0.0172 c 0.522005,-0.11877 1.376195,-0.11877 1.8982,0 0.522005,0.11878 0.09491,0.21596 -0.9491,0.21596 -1.04401,0 -1.471105,-0.0972 -0.9491,-0.21596 z m 32.614529,-0.0159 c 2.32529,-0.0897 6.13032,-0.0897 8.45562,0 2.32529,0.0897 0.42278,0.16307 -4.22781,0.16307 -4.65059,0 -6.55311,-0.0734 -4.22781,-0.16307 z m 27.61018,0.002 c 1.56601,-0.0961 4.12858,-0.0961 5.6946,0 1.56601,0.0961 0.28473,0.17464 -2.8473,0.17464 -3.13203,0 -4.41332,-0.0786 -2.8473,-0.17464 z m 96.46307,-0.002 c 3.55913,-0.0842 9.38315,-0.0842 12.94227,0 3.55913,0.0843 0.64712,0.15319 -6.47113,0.15319 -7.11825,0 -10.03026,-0.0689 -6.47114,-0.15319 z m 198.4723,-3.9e-4 c 4.90114,-0.0812 12.82181,-0.0811 17.6015,1.6e-4 4.77968,0.0813 0.76967,0.14766 -8.91115,0.14757 -9.68082,-9e-5 -13.59148,-0.0666 -8.69035,-0.14773 z m 54.67855,6.1e-4 c 3.08458,-0.0859 8.13207,-0.0859 11.21664,0 3.08458,0.0859 0.56083,0.15621 -5.60832,0.15621 -6.16915,0 -8.69289,-0.0703 -5.60832,-0.15621 z m -220.51475,-0.48465 c 0.24914,-0.14975 0.54681,-0.13133 0.66149,0.0409 0.11469,0.17225 -0.0891,0.29477 -0.45298,0.27227 -0.40205,-0.0249 -0.48383,-0.14772 -0.20851,-0.3132 z m 254.3588,0 c 0.24914,-0.14975 0.54681,-0.13133 0.66149,0.0409 0.11468,0.17225 -0.0892,0.29477 -0.45298,0.27227 -0.40205,-0.0249 -0.48383,-0.14772 -0.20851,-0.3132 z m -417.47201,-1.97865 c 0.007,-0.85535 0.0844,-1.1425 0.17189,-0.63812 0.0875,0.50438 0.0817,1.20421 -0.0128,1.55518 -0.0945,0.35097 -0.16613,-0.0617 -0.1591,-0.91706 z m 195.10219,-1.29598 c 0.34357,-0.57023 0.70233,-1.03679 0.79724,-1.03679 0.0949,0 -0.10854,0.46656 -0.45211,1.03679 -0.34357,0.57023 -0.70233,1.03679 -0.79724,1.03679 -0.0949,0 0.10854,-0.46656 0.45211,-1.03679 z m 174.11671,0.32267 c 0,-0.10765 0.27179,-0.51588 0.60397,-0.90719 0.54739,-0.64481 0.5596,-0.62647 0.13031,0.19573 -0.45087,0.86351 -0.73428,1.13812 -0.73428,0.71146 z m 3.47852,-11.51132 c 0.0166,-0.60389 0.0983,-0.72673 0.20851,-0.31319 0.0997,0.37421 0.0874,0.82133 -0.0272,0.99358 -0.11469,0.17226 -0.19626,-0.13391 -0.18127,-0.68039 z m 0,-4.14714 c 0.0166,-0.6039 0.0983,-0.72673 0.20851,-0.3132 0.0997,0.37422 0.0874,0.82133 -0.0272,0.99359 -0.11469,0.17226 -0.19626,-0.13392 -0.18127,-0.68039 z m -118.33862,-7.73269 c 0.007,-0.85535 0.0844,-1.14251 0.17189,-0.63813 0.0875,0.50438 0.0817,1.20421 -0.0128,1.55518 -0.0945,0.35097 -0.16613,-0.0617 -0.1591,-0.91705 z m -75.58287,-0.5184 c 0.007,-0.85535 0.0844,-1.1425 0.17189,-0.63812 0.0875,0.50438 0.0817,1.20421 -0.0128,1.55518 -0.0945,0.35096 -0.16613,-0.0617 -0.1591,-0.91706 z m -217.470216,-0.0432 c 0.01656,-0.6039 0.09834,-0.72673 0.208515,-0.31319 0.0997,0.37421 0.08744,0.82133 -0.02725,0.99358 -0.114683,0.17226 -0.196253,-0.13391 -0.181268,-0.68039 z m 14.495346,-3.11035 c 0.01656,-0.6039 0.09834,-0.72674 0.208514,-0.3132 0.0997,0.37421 0.08744,0.82133 -0.02725,0.99359 -0.114683,0.17225 -0.196253,-0.13392 -0.181267,-0.68039 z m -14.813226,-4.36315 c 0,-0.71279 0.07833,-1.00438 0.174077,-0.64799 0.09574,0.3564 0.09574,0.93959 0,1.29599 -0.09574,0.35639 -0.174077,0.0648 -0.174077,-0.648 z m 269.862276,-0.82078 c 0.0166,-0.6039 0.0983,-0.72674 0.20852,-0.3132 0.0997,0.37422 0.0874,0.82133 -0.0272,0.99359 -0.11468,0.17225 -0.19625,-0.13392 -0.18127,-0.68039 z m -255.394178,-2.59197 c 0.01656,-0.6039 0.09834,-0.72673 0.208515,-0.31319 0.0997,0.37421 0.08744,0.82132 -0.02725,0.99358 -0.114683,0.17226 -0.196253,-0.13392 -0.181268,-0.68039 z m 69.968878,0.46667 c 0.24914,-0.14975 0.54681,-0.13133 0.66149,0.0409 0.11469,0.17226 -0.0891,0.29478 -0.45298,0.27227 -0.40205,-0.0249 -0.48383,-0.14771 -0.20851,-0.31319 z m 167.53772,-1.05397 c 0.522,-0.11877 1.37619,-0.11877 1.8982,0 0.522,0.11878 0.0949,0.21596 -0.9491,0.21596 -1.04401,0 -1.47111,-0.0972 -0.9491,-0.21596 z m 9.31844,-0.0118 c 1.09146,-0.10288 2.87749,-0.10288 3.96896,0 1.09146,0.10287 0.19845,0.18704 -1.98448,0.18704 -2.18293,0 -3.07595,-0.0842 -1.98448,-0.18704 z m -261.638263,-4.80084 c 0,-0.7128 0.07834,-1.00439 0.174077,-0.648 0.09574,0.3564 0.09574,0.93959 0,1.29599 -0.09574,0.35639 -0.174077,0.0648 -0.174077,-0.64799 z m 14.468098,-2.89437 c 0.01656,-0.60389 0.09834,-0.72673 0.208515,-0.31319 0.0997,0.37421 0.08744,0.82133 -0.02725,0.99359 -0.114683,0.17225 -0.196254,-0.13392 -0.181268,-0.6804 z m -14.813226,-6.43671 c 0,-0.71279 0.07833,-1.00438 0.174078,-0.64799 0.09574,0.3564 0.09574,0.93959 0,1.29598 -0.09574,0.3564 -0.174078,0.0648 -0.174078,-0.64799 z m 412.427091,-1.55518 c 0,-0.71279 0.0783,-1.00438 0.17407,-0.64799 0.0958,0.3564 0.0958,0.93959 0,1.29598 -0.0957,0.3564 -0.17407,0.0648 -0.17407,-0.64799 z m -397.958992,-0.82079 c 0.01656,-0.60389 0.09834,-0.72673 0.208514,-0.31319 0.0997,0.37421 0.08744,0.82133 -0.02725,0.99359 -0.114683,0.17225 -0.196253,-0.13392 -0.181267,-0.6804 z m 235.263272,-3.66967 c 0.23727,-0.14381 0.62554,-0.14381 0.86282,0 0.23727,0.14381 0.0431,0.26147 -0.43141,0.26147 -0.47455,0 -0.66869,-0.11766 -0.43141,-0.26147 z m 8.6417,-0.041 c 1.19382,-0.10152 3.0575,-0.10068 4.14153,0.002 1.08403,0.10254 0.10727,0.1856 -2.17057,0.18458 -2.27784,-0.001 -3.16477,-0.0849 -1.97096,-0.18644 z m -258.745445,-3.02841 c 0.01656,-0.6039 0.09834,-0.72674 0.208515,-0.3132 0.0997,0.37422 0.08744,0.82133 -0.02725,0.99359 -0.114683,0.17226 -0.196253,-0.13392 -0.181268,-0.68039 z m 14.522593,-2.28957 c 0,-0.71279 0.07833,-1.00439 0.174077,-0.64799 0.09574,0.35639 0.09574,0.93958 0,1.29598 -0.09574,0.35639 -0.174077,0.0648 -0.174077,-0.64799 z m 345.528372,-2.59197 c 0,-1.85325 0.0626,-2.6114 0.13919,-1.68477 0.0766,0.92662 0.0766,2.44292 0,3.36955 -0.0765,0.92663 -0.13919,0.16848 -0.13919,-1.68478 z m -292.08814,-2.26929 c 0,-0.10765 0.27179,-0.51588 0.60397,-0.90719 0.54739,-0.64481 0.5596,-0.62648 0.13031,0.19572 -0.45087,0.86352 -0.73428,1.13812 -0.73428,0.71147 z m 62.15016,-0.62507 c 0.0166,-0.6039 0.0983,-0.72673 0.20851,-0.31319 0.0997,0.37421 0.0874,0.82133 -0.0273,0.99358 -0.11468,0.17226 -0.19625,-0.13391 -0.18126,-0.68039 z m -115.962767,-3.11035 c 0.01656,-0.6039 0.09834,-0.72674 0.208515,-0.3132 0.0997,0.37421 0.08744,0.82133 -0.02725,0.99359 -0.114683,0.17225 -0.196253,-0.13392 -0.181268,-0.68039 z m 66.323467,-0.60353 c 2.61003,-0.0881 6.88098,-0.0881 9.491,0 2.61003,0.0881 0.47455,0.16011 -4.7455,0.16011 -5.22005,0 -7.35552,-0.0721 -4.7455,-0.16011 z m 29.50069,0.0134 c 0.61268,-0.11452 1.69983,-0.1164 2.41589,-0.004 0.71606,0.11222 0.21477,0.20591 -1.11397,0.20821 -1.32874,0.002 -1.9146,-0.0895 -1.30192,-0.20403 z m 14.50304,-8.6e-4 c 0.61692,-0.115 1.62641,-0.115 2.24333,0 0.61691,0.11499 0.11216,0.20907 -1.12167,0.20907 -1.23383,0 -1.73857,-0.0941 -1.12166,-0.20907 z m 33.30953,0.003 c 0.52461,-0.11916 1.30115,-0.11597 1.72563,0.007 0.42449,0.12304 -0.005,0.22053 -0.95384,0.21664 -0.9491,-0.004 -1.29641,-0.10457 -0.77179,-0.22372 z m 44.53778,-0.0159 c 2.81146,-0.0872 7.31537,-0.087 10.00869,4.5e-4 2.69333,0.0875 0.39304,0.15885 -5.11174,0.15861 -5.50478,-2.5e-4 -7.7084,-0.0718 -4.89695,-0.15906 z m 196.35631,3.4e-4 c 2.61002,-0.0881 6.88097,-0.0881 9.491,0 2.61002,0.0881 0.47455,0.16011 -4.7455,0.16011 -5.22005,0 -7.35553,-0.0721 -4.7455,-0.16011 z m 58.00249,-3.4e-4 c 2.81146,-0.0872 7.31537,-0.087 10.00869,4.5e-4 2.69332,0.0875 0.39304,0.15885 -5.11174,0.15861 -5.50478,-2.5e-4 -7.70841,-0.0718 -4.89695,-0.15906 z m -347.91561,-2.72249 c 0,-0.99791 0.071,-1.40614 0.15783,-0.90719 0.0868,0.49896 0.0868,1.31543 0,1.81438 -0.0868,0.49895 -0.15783,0.0907 -0.15783,-0.90719 z m 129.68778,-12.63715 c 0,-0.10765 0.27179,-0.51588 0.60397,-0.90719 0.5474,-0.64481 0.5596,-0.62648 0.13031,0.19572 -0.45086,0.86351 -0.73428,1.13812 -0.73428,0.71147 z m -240.963544,-4.30554 c 0.249139,-0.14975 0.546811,-0.13134 0.661494,0.0409 0.114683,0.17226 -0.08916,0.29478 -0.452979,0.27227 -0.402054,-0.0249 -0.483834,-0.14771 -0.208515,-0.31319 z m 71.786474,0 c 0.24914,-0.14975 0.54681,-0.13134 0.66149,0.0409 0.11469,0.17226 -0.0892,0.29478 -0.45298,0.27227 -0.40205,-0.0249 -0.48383,-0.14771 -0.20851,-0.31319 z m 51.41396,-0.0287 c 1.00292,-0.10504 2.55599,-0.10394 3.45127,0.002 0.89528,0.1064 0.0747,0.19234 -1.82348,0.19099 -1.8982,-0.001 -2.63071,-0.0884 -1.62779,-0.19345 z m 74.54504,0.003 c 0.81176,-0.10951 2.05421,-0.10797 2.76102,0.003 0.70681,0.11139 0.0426,0.20099 -1.47591,0.19911 -1.51856,-0.002 -2.09686,-0.093 -1.28511,-0.20253 z m 192.24834,0.0261 c 0.24914,-0.14975 0.54681,-0.13134 0.66149,0.0409 0.11469,0.17226 -0.0892,0.29478 -0.45297,0.27227 -0.40206,-0.0249 -0.48384,-0.14771 -0.20852,-0.31319 z m 63.13672,-0.0254 c 0.80674,-0.10914 2.12685,-0.10914 2.93358,0 0.80674,0.10914 0.14668,0.19843 -1.46679,0.19843 -1.61347,0 -2.27352,-0.0893 -1.46679,-0.19843 z m -410.52889,-0.49617 c 0.33219,-0.13039 0.87576,-0.13039 1.20795,0 0.33218,0.13039 0.0604,0.23708 -0.60397,0.23708 -0.66437,0 -0.93616,-0.10669 -0.60398,-0.23708 z m 205.70242,-0.002 c 0.3358,-0.13143 0.80172,-0.12279 1.03539,0.0192 0.23366,0.142 -0.0411,0.24954 -0.61054,0.23897 -0.56946,-0.0106 -0.76064,-0.12674 -0.42485,-0.25818 z m 91.99142,-1.03166 c 0.24914,-0.14975 0.54682,-0.13134 0.6615,0.0409 0.11468,0.17226 -0.0892,0.29478 -0.45298,0.27227 -0.40206,-0.0249 -0.48384,-0.14771 -0.20852,-0.31319 z"
       id="path85" /><path
       style="fill:#c7b5d2"
       d="m 382.15559,-177.96528 c 0,-0.10765 0.27179,-0.51588 0.60397,-0.90719 0.54739,-0.64481 0.5596,-0.62648 0.13031,0.19572 -0.45087,0.86351 -0.73428,1.13812 -0.73428,0.71147 z m -140.4668,-18.72562 c 0.44582,-0.71279 0.88823,-1.29598 0.98314,-1.29598 0.0949,0 -0.1922,0.58319 -0.63801,1.29598 -0.44582,0.71279 -0.88823,1.29598 -0.98314,1.29598 -0.0949,0 0.19219,-0.58319 0.63801,-1.29598 z m 104.22844,-2.52849 c 0,-0.10765 0.27178,-0.51588 0.60397,-0.90719 0.54739,-0.64481 0.5596,-0.62648 0.1303,0.19572 -0.45086,0.86351 -0.73427,1.13812 -0.73427,0.71147 z"
       id="path84" /><path
       style="fill:#ac91bb"
       d="m 378.98473,-108.65903 c 0.24914,-0.14975 0.54681,-0.13133 0.6615,0.0409 0.11468,0.17225 -0.0892,0.29478 -0.45298,0.27227 -0.40206,-0.0249 -0.48384,-0.14771 -0.20852,-0.3132 z m 10.69895,0 c 0.24914,-0.14975 0.54681,-0.13133 0.66149,0.0409 0.11468,0.17225 -0.0892,0.29478 -0.45298,0.27227 -0.40205,-0.0249 -0.48383,-0.14771 -0.20851,-0.3132 z M 37.1146,-110.23139 c 0.522005,-0.11877 1.376195,-0.11877 1.8982,0 0.522005,0.11878 0.09491,0.21596 -0.9491,0.21596 -1.04401,0 -1.471105,-0.0972 -0.9491,-0.21596 z m 88.33512,-0.0143 c 1.65133,-0.0948 4.44686,-0.0953 6.2123,-9.9e-4 1.76543,0.0943 0.41435,0.17185 -3.00241,0.1724 -3.41676,5.4e-4 -4.86121,-0.0766 -3.20989,-0.17141 z m 138.93119,-0.49865 c 0.42709,-0.12356 1.12598,-0.12356 1.55307,0 0.4271,0.12356 0.0777,0.22466 -0.77654,0.22466 -0.85419,0 -1.20363,-0.1011 -0.77653,-0.22466 z m 253.84585,-0.006 c 0.52461,-0.11915 1.30115,-0.11597 1.72564,0.007 0.42448,0.12304 -0.005,0.22054 -0.95385,0.21664 -0.9491,-0.004 -1.29641,-0.10456 -0.77179,-0.22372 z m -360.03152,-14.9638 c 0.0166,-0.6039 0.0983,-0.72673 0.20851,-0.3132 0.0997,0.37422 0.0874,0.82133 -0.0273,0.99359 -0.11468,0.17226 -0.19625,-0.13392 -0.18126,-0.68039 z m 318.24738,-1.51198 c 0.007,-0.85535 0.0844,-1.1425 0.17188,-0.63812 0.0875,0.50438 0.0817,1.20421 -0.0128,1.55517 -0.0945,0.35097 -0.16613,-0.0617 -0.15909,-0.91705 z m -89.88666,-1.15259 c 0.61692,-0.115 1.62641,-0.115 2.24333,0 0.61691,0.11499 0.11216,0.20908 -1.12167,0.20908 -1.23383,0 -1.73857,-0.0941 -1.12166,-0.20908 z m -150.47549,-1.5235 c 0.23728,-0.14381 0.62554,-0.14381 0.86282,0 0.23727,0.14381 0.0431,0.26147 -0.43141,0.26147 -0.47455,0 -0.66868,-0.11766 -0.43141,-0.26147 z m 12.95269,-0.0384 c 0.90737,-0.10713 2.30514,-0.10584 3.10614,0.003 0.80101,0.10872 0.0586,0.19638 -1.64977,0.1948 -1.70837,-0.002 -2.36374,-0.0905 -1.45637,-0.19768 z m 241.06098,0.0384 c 0.23728,-0.14381 0.62555,-0.14381 0.86282,0 0.23728,0.14381 0.0431,0.26147 -0.43141,0.26147 -0.47455,0 -0.66868,-0.11766 -0.43141,-0.26147 z m 14.15022,-0.0225 c 0.4271,-0.12356 1.12598,-0.12356 1.55307,0 0.4271,0.12356 0.0777,0.22465 -0.77653,0.22465 -0.85419,0 -1.20363,-0.10109 -0.77654,-0.22465 z m -381.56998,-2.22612 c 0,-0.71279 0.0783,-1.00439 0.17407,-0.64799 0.0957,0.35639 0.0957,0.93958 0,1.29598 -0.0957,0.35639 -0.17407,0.0648 -0.17407,-0.64799 z m -57.318378,-0.3024 c 0.01656,-0.6039 0.09834,-0.72673 0.208514,-0.31319 0.0997,0.37421 0.08744,0.82133 -0.02725,0.99358 -0.114683,0.17226 -0.196253,-0.13392 -0.181267,-0.68039 z m 14.150218,-6.22071 c 0.01656,-0.6039 0.09834,-0.72674 0.208514,-0.3132 0.0997,0.37422 0.08744,0.82133 -0.02725,0.99359 -0.114683,0.17226 -0.196253,-0.13392 -0.181267,-0.68039 z m -14.495346,-0.5184 c 0.01656,-0.60389 0.09834,-0.72673 0.208515,-0.31319 0.0997,0.37421 0.08744,0.82133 -0.02725,0.99358 -0.114683,0.17226 -0.196253,-0.13391 -0.181268,-0.68039 z m 293.358176,-5.70232 c 0.0166,-0.6039 0.0983,-0.72673 0.20852,-0.31319 0.0997,0.37421 0.0874,0.82133 -0.0272,0.99358 -0.11468,0.17226 -0.19625,-0.13392 -0.18127,-0.68039 z m -279.207958,-1.55518 c 0.01656,-0.6039 0.09834,-0.72673 0.208515,-0.31319 0.0997,0.37421 0.08744,0.82133 -0.02725,0.99358 -0.114683,0.17226 -0.196253,-0.13391 -0.181268,-0.68039 z m -14.468098,-0.73439 c 0,-0.71279 0.07833,-1.00438 0.174077,-0.64799 0.09574,0.3564 0.09574,0.93959 0,1.29598 -0.09574,0.3564 -0.174077,0.0648 -0.174077,-0.64799 z m 72.335956,-0.90537 c 2.13547,-0.0909 5.62988,-0.0909 7.76536,0 2.13547,0.091 0.38827,0.16536 -3.88268,0.16536 -4.27095,0 -6.01816,-0.0744 -3.88268,-0.16536 z m 318.01565,4.4e-4 c 2.03004,-0.0915 5.4468,-0.0918 7.5928,-7.1e-4 2.14599,0.0911 0.48505,0.16595 -3.69099,0.16634 -4.17604,4e-4 -5.93186,-0.0741 -3.90181,-0.16563 z m -140.25354,-1.00437 c 0.24914,-0.14975 0.54681,-0.13133 0.66149,0.0409 0.11469,0.17226 -0.0891,0.29478 -0.45298,0.27227 -0.40205,-0.0249 -0.48383,-0.14771 -0.20851,-0.3132 z m 17.25636,0 c 0.24914,-0.14975 0.54681,-0.13133 0.6615,0.0409 0.11468,0.17226 -0.0892,0.29478 -0.45298,0.27227 -0.40206,-0.0249 -0.48384,-0.14771 -0.20852,-0.3132 z m -253.204208,-5.3482 c 0,-0.71279 0.07834,-1.00438 0.174077,-0.64799 0.09574,0.3564 0.09574,0.93959 0,1.29598 -0.09574,0.3564 -0.174077,0.0648 -0.174077,-0.64799 z m -14.482557,-1.81437 c 0.007,-0.85535 0.08438,-1.14251 0.171888,-0.63813 0.0875,0.50438 0.08175,1.20421 -0.01279,1.55518 -0.09454,0.35097 -0.166134,-0.0617 -0.1591,-0.91705 z m 14.13743,-6.99831 c 0,-0.71279 0.07833,-1.00438 0.174077,-0.64799 0.09574,0.3564 0.09574,0.93959 0,1.29598 -0.09574,0.3564 -0.174077,0.0648 -0.174077,-0.64799 z m -14.495346,-2.59196 c 0,-0.71279 0.07833,-1.00439 0.174078,-0.64799 0.09574,0.35639 0.09574,0.93958 0,1.29598 -0.09574,0.35639 -0.174078,0.0648 -0.174078,-0.64799 z m 265.262091,-3.48536 c 0.61692,-0.115 1.62642,-0.115 2.24333,0 0.61692,0.11499 0.11217,0.20908 -1.12166,0.20908 -1.23383,0 -1.73858,-0.0941 -1.12167,-0.20908 z m -251.111872,-3.25375 c 0,-0.71279 0.07833,-1.00439 0.174077,-0.64799 0.09574,0.35639 0.09574,0.93959 0,1.29598 -0.09574,0.3564 -0.174077,0.0648 -0.174077,-0.64799 z m -14.495346,-2.07357 c 0,-0.71279 0.07834,-1.00439 0.174078,-0.64799 0.09574,0.35639 0.09574,0.93958 0,1.29598 -0.09574,0.35639 -0.174078,0.0648 -0.174078,-0.64799 z m 427.240318,0.216 c 0.0166,-0.6039 0.0983,-0.72674 0.20851,-0.3132 0.0997,0.37421 0.0874,0.82133 -0.0273,0.99359 -0.11468,0.17225 -0.19625,-0.13392 -0.18126,-0.68039 z m -254.29205,-2.28957 c 0,-1.28303 0.0673,-1.8079 0.14957,-1.16639 0.0823,0.64151 0.0823,1.69126 0,2.33277 -0.0823,0.64151 -0.14957,0.11664 -0.14957,-1.16638 z m 254.29205,-1.85758 c 0.0166,-0.6039 0.0983,-0.72673 0.20851,-0.31319 0.0997,0.37421 0.0874,0.82132 -0.0273,0.99358 -0.11468,0.17226 -0.19625,-0.13392 -0.18126,-0.68039 z m -413.0901,-2.80796 c 0,-0.71279 0.07834,-1.00439 0.174078,-0.64799 0.09574,0.35639 0.09574,0.93959 0,1.29598 -0.09574,0.3564 -0.174078,0.0648 -0.174078,-0.64799 z m 60.43563,-2.43281 c 0.3358,-0.13144 0.80172,-0.12279 1.03538,0.0192 0.23366,0.142 -0.0411,0.24953 -0.61054,0.23897 -0.56946,-0.0106 -0.76064,-0.12675 -0.42484,-0.25818 z m 41.42448,-0.0265 c 1.47978,-0.0974 3.80939,-0.0968 5.17691,0.001 1.36752,0.0981 0.15679,0.17783 -2.69051,0.1771 -2.8473,-7.2e-4 -3.96618,-0.081 -2.4864,-0.17842 z m 39.3353,0.0265 c 0.3358,-0.13144 0.80172,-0.12279 1.03538,0.0192 0.23366,0.142 -0.0411,0.24953 -0.61054,0.23897 -0.56946,-0.0106 -0.76064,-0.12675 -0.42484,-0.25818 z m 39.85563,-0.007 c 0.4271,-0.12356 1.12598,-0.12356 1.55307,0 0.4271,0.12356 0.0777,0.22466 -0.77653,0.22466 -0.85419,0 -1.20363,-0.1011 -0.77654,-0.22466 z m 197.4128,0.0225 c 0.23727,-0.14381 0.62554,-0.14381 0.86282,0 0.23727,0.14381 0.0431,0.26147 -0.43141,0.26147 -0.47455,0 -0.66869,-0.11766 -0.43141,-0.26147 z m 56.946,-0.0225 c 0.42709,-0.12356 1.12598,-0.12356 1.55307,0 0.4271,0.12356 0.0777,0.22466 -0.77653,0.22466 -0.85419,0 -1.20364,-0.1011 -0.77654,-0.22466 z m -261.93003,-19.16881 c 0.24914,-0.14975 0.54681,-0.13133 0.6615,0.0409 0.11468,0.17226 -0.0892,0.29478 -0.45298,0.27227 -0.40206,-0.0249 -0.48384,-0.14771 -0.20852,-0.31319 z m 254.3588,0 c 0.24914,-0.14975 0.54681,-0.13133 0.66149,0.0409 0.11469,0.17226 -0.0892,0.29478 -0.45298,0.27227 -0.40205,-0.0249 -0.48383,-0.14771 -0.20851,-0.31319 z m -442.985853,-0.52351 c 0.335797,-0.13144 0.801719,-0.1228 1.035382,0.0192 0.233662,0.142 -0.04108,0.24954 -0.610542,0.23898 -0.569459,-0.0106 -0.760638,-0.12675 -0.42484,-0.25818 z m 3.962395,0.0159 c 0.237275,-0.14381 0.625543,-0.14381 0.862818,0 0.237275,0.1438 0.04314,0.26147 -0.431409,0.26147 -0.47455,0 -0.668684,-0.11767 -0.431409,-0.26147 z m 67.472378,-0.014 c 0.33219,-0.13039 0.87576,-0.13039 1.20795,0 0.33218,0.13039 0.0604,0.23707 -0.60397,0.23707 -0.66437,0 -0.93616,-0.10668 -0.60398,-0.23707 z m 31.94585,0.003 c 0.24913,-0.14975 0.54681,-0.13134 0.66149,0.0409 0.11468,0.17226 -0.0892,0.29478 -0.45298,0.27227 -0.40205,-0.0249 -0.48383,-0.14771 -0.20851,-0.31319 z m 27.76117,-0.0332 c 2.42021,-0.0891 6.38054,-0.0891 8.80075,0 2.4202,0.0891 0.44003,0.16202 -4.40038,0.16202 -4.84041,0 -6.82057,-0.0729 -4.40037,-0.16202 z m 26.05711,-1e-4 c 2.51511,-0.0886 6.63076,-0.0886 9.14587,0 2.51512,0.0886 0.4573,0.16104 -4.57293,0.16104 -5.03023,0 -7.08806,-0.0725 -4.57294,-0.16104 z m 49.87089,-7e-4 c 3.74895,-0.0837 9.88358,-0.0837 13.63253,0 3.74894,0.0837 0.68162,0.15216 -6.81627,0.15216 -7.49789,0 -10.5652,-0.0685 -6.81626,-0.15216 z m 182.57889,0.0289 c 0.3358,-0.13144 0.80172,-0.1228 1.03539,0.0192 0.23366,0.142 -0.0411,0.24954 -0.61054,0.23898 -0.56946,-0.0106 -0.76064,-0.12675 -0.42485,-0.25818 z m 31.93928,0.005 c 0.24914,-0.14975 0.54681,-0.13134 0.66149,0.0409 0.11469,0.17226 -0.0892,0.29478 -0.45298,0.27227 -0.40205,-0.0249 -0.48383,-0.14771 -0.20851,-0.31319 z m 40.72616,-0.0341 c 3.66653,-0.084 9.56821,-0.0839 13.11484,2.8e-4 3.54663,0.0842 0.54674,0.15294 -6.66642,0.15279 -7.21316,-1.6e-4 -10.11495,-0.069 -6.44842,-0.15307 z m -134.60078,-1.52106 c 0.24914,-0.14975 0.54681,-0.13134 0.6615,0.0409 0.11468,0.17226 -0.0892,0.29478 -0.45298,0.27227 -0.40206,-0.0249 -0.48384,-0.14771 -0.20852,-0.31319 z m 9.64199,0.0108 c 0.23728,-0.14381 0.62555,-0.14381 0.86282,0 0.23728,0.14381 0.0431,0.26147 -0.43141,0.26147 -0.47455,0 -0.66868,-0.11766 -0.43141,-0.26147 z"
       id="path83" /><path
       style="fill:#8d66a1"
       d="m 388.6483,-108.65903 c 0.24913,-0.14975 0.54681,-0.13133 0.66149,0.0409 0.11468,0.17225 -0.0892,0.29478 -0.45298,0.27227 -0.40205,-0.0249 -0.48383,-0.14771 -0.20851,-0.3132 z m -200.88162,-1.5677 c 0.42931,-0.12399 1.05053,-0.11928 1.38051,0.0105 0.32997,0.12975 -0.0213,0.2312 -0.78056,0.22544 -0.75928,-0.006 -1.02926,-0.11191 -0.59995,-0.23591 z m 102.15365,0.0233 c 0.23727,-0.14381 0.62554,-0.14381 0.86281,0 0.23728,0.14381 0.0431,0.26147 -0.43141,0.26147 -0.47455,0 -0.66868,-0.11766 -0.4314,-0.26147 z m 2.78258,-0.0108 c 0.24914,-0.14975 0.54682,-0.13133 0.6615,0.0409 0.11468,0.17226 -0.0892,0.29478 -0.45298,0.27227 -0.40206,-0.0249 -0.48384,-0.14771 -0.20852,-0.3132 z m 41.73883,-0.0117 c 0.4271,-0.12356 1.12598,-0.12356 1.55308,0 0.42709,0.12356 0.0777,0.22465 -0.77654,0.22465 -0.85419,0 -1.20363,-0.10109 -0.77654,-0.22465 z M 82.153709,-110.7218 c 0.237275,-0.14381 0.625543,-0.14381 0.862818,0 0.237275,0.14381 0.04314,0.26147 -0.431409,0.26147 -0.47455,0 -0.668684,-0.11766 -0.431409,-0.26147 z m 178.782111,-0.0324 c 0.62031,-0.11538 1.55215,-0.113 2.07076,0.005 0.5186,0.11828 0.0111,0.21268 -1.12785,0.20977 -1.13892,-0.003 -1.56323,-0.0997 -0.94291,-0.21506 z m 205.17198,0.0183 c 0.33218,-0.13039 0.87576,-0.13039 1.20794,0 0.33219,0.13039 0.0604,0.23707 -0.60397,0.23707 -0.66437,0 -0.93616,-0.10668 -0.60397,-0.23707 z m 47.79243,-0.0168 c 0.61268,-0.11452 1.69983,-0.1164 2.41589,-0.004 0.71606,0.11222 0.21477,0.20592 -1.11397,0.20822 -1.32874,0.002 -1.91461,-0.0895 -1.30192,-0.20404 z m -467.898602,-2.41355 c 0,-0.10764 0.271787,-0.51588 0.603972,-0.90718 0.547391,-0.64482 0.559599,-0.62648 0.130305,0.19572 -0.450864,0.86351 -0.734277,1.13812 -0.734277,0.71146 z m 231.062702,-3.95142 c 0.34357,-0.57023 0.70233,-1.03678 0.79724,-1.03678 0.0949,0 -0.10854,0.46655 -0.45211,1.03678 -0.34357,0.57024 -0.70232,1.03679 -0.79723,1.03679 -0.0949,0 0.10854,-0.46655 0.4521,-1.03679 z m -118.84934,-10.75194 -0.047,-1.68007 -17.68777,-0.13912 -17.68777,-0.13912 17.6986,-0.12478 c 19.1226,-0.13483 18.28104,-0.25498 17.9238,2.55907 -0.11671,0.91932 -0.16397,0.80675 -0.19986,-0.47598 z m 226.10421,-0.49355 c 0.3358,-0.13144 0.80172,-0.12279 1.03538,0.0192 0.23367,0.142 -0.0411,0.24954 -0.61054,0.23897 -0.56946,-0.0106 -0.76064,-0.12674 -0.42484,-0.25818 z m 5.7096,0.005 c 0.24914,-0.14975 0.54682,-0.13133 0.6615,0.0409 0.11468,0.17225 -0.0892,0.29477 -0.45298,0.27227 -0.40205,-0.0249 -0.48384,-0.14772 -0.20852,-0.3132 z m -150.32449,-1.58638 c 1.4711,-0.0972 3.87837,-0.0972 5.34947,0 1.47111,0.0972 0.26747,0.17668 -2.67474,0.17668 -2.94221,0 -4.14584,-0.0795 -2.67473,-0.17668 z m 15.01303,0.006 c 0.80674,-0.10914 2.12685,-0.10914 2.93359,0 0.80673,0.10914 0.14667,0.19844 -1.4668,0.19844 -1.61347,0 -2.27352,-0.0893 -1.46679,-0.19844 z m 239.51833,-0.007 c 1.75583,-0.0941 4.62902,-0.0941 6.38485,0 1.75584,0.0941 0.31925,0.17107 -3.19242,0.17107 -3.51167,0 -4.94827,-0.077 -3.19243,-0.17107 z m 13.81666,0.003 c 1.00292,-0.10505 2.55599,-0.10394 3.45127,0.002 0.89528,0.1064 0.0747,0.19235 -1.82349,0.191 -1.8982,-0.001 -2.6307,-0.0884 -1.62778,-0.19345 z m -426.984734,-1.60439 c -0.09776,-0.2376 0.04155,-0.43199 0.309577,-0.43199 0.26803,0 0.40734,0.19439 0.309577,0.43199 -0.09776,0.2376 -0.237072,0.43199 -0.309577,0.43199 -0.0725,0 -0.211815,-0.19439 -0.309577,-0.43199 z m 295.176804,-0.99359 c -0.42929,-0.8222 -0.41708,-0.84053 0.13031,-0.19572 0.57489,0.67721 0.75772,1.10291 0.47366,1.10291 -0.0717,0 -0.34345,-0.40823 -0.60397,-0.90719 z m 21.78704,0.19308 c 0,-0.10765 0.27179,-0.51589 0.60398,-0.90719 0.54739,-0.64482 0.55959,-0.62648 0.1303,0.19572 -0.45086,0.86351 -0.73428,1.13812 -0.73428,0.71147 z M 65.356002,-134.0093 c 0.01656,-0.60389 0.09834,-0.72673 0.208514,-0.31319 0.0997,0.37421 0.08744,0.82133 -0.02725,0.99358 -0.114683,0.17226 -0.196253,-0.13391 -0.181267,-0.68039 z m 198.376908,-5.27032 c -0.42929,-0.8222 -0.41708,-0.84054 0.13031,-0.19573 0.57489,0.67722 0.75772,1.10291 0.47366,1.10291 -0.0717,0 -0.34345,-0.40823 -0.60397,-0.90718 z m 110.53924,-0.648 c 0,-0.71279 0.0783,-1.00438 0.17408,-0.64799 0.0957,0.3564 0.0957,0.93959 0,1.29599 -0.0957,0.35639 -0.17408,0.0648 -0.17408,-0.648 z M 65.038121,-140.9644 c 0,-0.71279 0.07833,-1.00439 0.174078,-0.64799 0.09574,0.35639 0.09574,0.93958 0,1.29598 -0.09574,0.35639 -0.174078,0.0648 -0.174078,-0.64799 z m 293.330929,-2.37597 c 0.0166,-0.6039 0.0983,-0.72673 0.20852,-0.31319 0.0997,0.37421 0.0874,0.82132 -0.0272,0.99358 -0.11468,0.17226 -0.19625,-0.13392 -0.18127,-0.68039 z m -279.180711,-1.25278 c 0,-0.71279 0.07833,-1.00439 0.174078,-0.64799 0.09574,0.35639 0.09574,0.93958 0,1.29598 -0.09574,0.35639 -0.174078,0.0648 -0.174078,-0.64799 z m 228.592321,-0.5184 c 0.34357,-0.57023 0.70233,-1.03678 0.79724,-1.03678 0.0949,0 -0.10854,0.46655 -0.45211,1.03678 -0.34357,0.57024 -0.70233,1.03679 -0.79724,1.03679 -0.0949,0 0.10854,-0.46655 0.45211,-1.03679 z m -175.5835,-2.93528 c 0.23728,-0.14381 0.62555,-0.14381 0.86282,0 0.23728,0.14381 0.0431,0.26147 -0.43141,0.26147 -0.47455,0 -0.66868,-0.11766 -0.43141,-0.26147 z m 318.20735,0 c 0.23727,-0.14381 0.62554,-0.14381 0.86281,0 0.23728,0.14381 0.0432,0.26147 -0.4314,0.26147 -0.47455,0 -0.66869,-0.11766 -0.43141,-0.26147 z m -385.711516,-1.21186 c 0,-0.71279 0.07833,-1.00438 0.174077,-0.64799 0.09574,0.3564 0.09574,0.93959 0,1.29598 -0.09574,0.3564 -0.174077,0.0648 -0.174077,-0.64799 z m 89.333466,-1.7509 c 0,-0.10765 0.27179,-0.51588 0.60398,-0.90719 0.54739,-0.64481 0.55959,-0.62647 0.1303,0.19573 -0.45086,0.86351 -0.73428,1.13812 -0.73428,0.71146 z m -75.183248,-1.35946 c 0,-0.71279 0.07834,-1.00438 0.174077,-0.64799 0.09574,0.3564 0.09574,0.93959 0,1.29599 -0.09574,0.35639 -0.174077,0.0648 -0.174077,-0.648 z m -14.495345,-6.22071 c 0,-0.71279 0.07834,-1.00439 0.174077,-0.64799 0.09574,0.35639 0.09574,0.93958 0,1.29598 -0.09574,0.3564 -0.174077,0.0648 -0.174077,-0.64799 z m 14.150218,-2.59197 c 0,-0.71279 0.07833,-1.00438 0.174077,-0.64799 0.09574,0.3564 0.09574,0.93959 0,1.29599 -0.09574,0.35639 -0.174077,0.0648 -0.174077,-0.648 z m 79.724395,-2.59196 c 0,-0.71279 0.0783,-1.00439 0.17408,-0.64799 0.0957,0.35639 0.0957,0.93959 0,1.29598 -0.0957,0.3564 -0.17408,0.0648 -0.17408,-0.64799 z m -94.219741,-4.14714 c 0,-0.71279 0.07833,-1.00439 0.174078,-0.648 0.09574,0.3564 0.09574,0.93959 0,1.29599 -0.09574,0.35639 -0.174078,0.0648 -0.174078,-0.64799 z m 90.304141,0.16427 c 0.24914,-0.14975 0.54681,-0.13133 0.66149,0.0409 0.11469,0.17226 -0.0891,0.29478 -0.45298,0.27227 -0.40205,-0.0249 -0.48383,-0.14771 -0.20851,-0.31319 z m 319.58785,0 c 0.24914,-0.14975 0.54681,-0.13133 0.66149,0.0409 0.11469,0.17226 -0.0892,0.29478 -0.45297,0.27227 -0.40206,-0.0249 -0.48384,-0.14771 -0.20852,-0.31319 z M 78.165746,-170.2536 c 0.007,-0.85535 0.08438,-1.14251 0.171888,-0.63813 0.0875,0.50438 0.08175,1.20421 -0.01279,1.55518 -0.09454,0.35097 -0.166133,-0.0617 -0.159098,-0.91705 z m 345.114484,-0.2592 c 0,-0.71279 0.0783,-1.00438 0.17407,-0.64799 0.0958,0.3564 0.0958,0.93959 0,1.29598 -0.0957,0.3564 -0.17407,0.0648 -0.17407,-0.64799 z m 67.65773,-5.96152 c 0.007,-0.85535 0.0844,-1.1425 0.17189,-0.63812 0.0875,0.50438 0.0817,1.20421 -0.0128,1.55518 -0.0945,0.35097 -0.16613,-0.0617 -0.1591,-0.91706 z m -427.307595,-0.0432 c 0.01656,-0.60389 0.09834,-0.72673 0.208515,-0.31319 0.0997,0.37421 0.08744,0.82133 -0.02725,0.99358 -0.114683,0.17226 -0.196253,-0.13391 -0.181268,-0.68039 z m 14.177465,-2.80796 c 0,-0.71279 0.07834,-1.00438 0.174078,-0.64799 0.09574,0.3564 0.09574,0.93959 0,1.29598 -0.09574,0.3564 -0.174078,0.0648 -0.174078,-0.64799 z m -17.655984,-0.16221 c 0,-0.0892 0.504748,-0.84736 1.121663,-1.68478 l 1.121664,-1.52256 -1.01367,1.68477 c -0.944883,1.57045 -1.229657,1.92306 -1.229657,1.52257 z M 217.8103,-183.826 c 0.24914,-0.14975 0.54681,-0.13134 0.66149,0.0409 0.11468,0.17226 -0.0892,0.29478 -0.45298,0.27227 -0.40205,-0.0249 -0.48383,-0.14771 -0.20851,-0.31319 z m 39.68963,0 c 0.24914,-0.14975 0.54681,-0.13134 0.6615,0.0409 0.11468,0.17226 -0.0892,0.29478 -0.45298,0.27227 -0.40206,-0.0249 -0.48384,-0.14771 -0.20852,-0.31319 z m 254.3588,0 c 0.24914,-0.14975 0.54681,-0.13134 0.66149,0.0409 0.11469,0.17226 -0.0892,0.29478 -0.45298,0.27227 -0.40205,-0.0249 -0.48383,-0.14771 -0.20851,-0.31319 z m -72.58458,-12.6057 c 0.34357,-0.57024 0.70233,-1.03679 0.79724,-1.03679 0.0949,0 -0.10854,0.46655 -0.45211,1.03679 -0.34357,0.57023 -0.70233,1.03678 -0.79724,1.03678 -0.0949,0 0.10854,-0.46655 0.45211,-1.03678 z m -365.016109,-2.98076 c -0.429294,-0.8222 -0.417086,-0.84054 0.130305,-0.19573 0.574895,0.67722 0.757719,1.10291 0.473668,1.10291 -0.07167,0 -0.343456,-0.40823 -0.603973,-0.90718 z m 412.538389,-2.46237 c 0.007,-0.85535 0.0844,-1.14251 0.17189,-0.63813 0.0875,0.50438 0.0817,1.20421 -0.0128,1.55518 -0.0945,0.35097 -0.16613,-0.0617 -0.1591,-0.91705 z m -234.32241,-1.13493 c 0.33218,-0.13039 0.87576,-0.13039 1.20794,0 0.33219,0.13039 0.0604,0.23707 -0.60397,0.23707 -0.66437,0 -0.93616,-0.10668 -0.60397,-0.23707 z m 254.53538,-0.009 c 0.42931,-0.124 1.05054,-0.11929 1.38051,0.0105 0.32997,0.12975 -0.0213,0.2312 -0.78056,0.22545 -0.75928,-0.006 -1.02926,-0.11191 -0.59995,-0.23591 z m -442.453158,-0.51839 c 0.429308,-0.124 1.050538,-0.11929 1.380509,0.0105 0.329972,0.12975 -0.02128,0.2312 -0.78056,0.22545 -0.75928,-0.006 -1.029257,-0.11192 -0.599949,-0.23591 z m 78.708448,-0.0217 c 4.2364,-0.0825 11.06992,-0.0824 15.1856,2.1e-4 4.11569,0.0826 0.64954,0.15017 -7.70254,0.15005 -8.35208,-1.2e-4 -11.71945,-0.0677 -7.48306,-0.15026 z m 65.73764,0.003 c 1.28918,-0.10001 3.30818,-0.0993 4.48666,0.002 1.17848,0.10092 0.1237,0.18275 -2.34396,0.18184 -2.46766,-9.1e-4 -3.43188,-0.0835 -2.1427,-0.18349 z m 146.51375,0.0308 c 0.24914,-0.14975 0.54681,-0.13134 0.66149,0.0409 0.11468,0.17226 -0.0892,0.29478 -0.45298,0.27227 -0.40205,-0.0249 -0.48383,-0.14771 -0.20851,-0.31319 z m 105.58737,-0.0342 c 4.2235,-0.0825 11.13467,-0.0825 15.35816,0 4.2235,0.0825 0.76791,0.14995 -7.67908,0.14995 -8.44699,0 -11.90257,-0.0675 -7.67908,-0.14995 z m -57.61468,-1.00263 c 0.24914,-0.14975 0.54681,-0.13133 0.66149,0.0409 0.11468,0.17225 -0.0892,0.29477 -0.45298,0.27227 -0.40205,-0.0249 -0.48383,-0.14772 -0.20851,-0.3132 z m -11.57859,-0.53626 c 0.52461,-0.11916 1.30115,-0.11597 1.72564,0.007 0.42448,0.12304 -0.005,0.22053 -0.95385,0.21664 -0.9491,-0.004 -1.29641,-0.10457 -0.77179,-0.22372 z m 5.52204,0 c 0.52461,-0.11916 1.30115,-0.11597 1.72563,0.007 0.42449,0.12304 -0.005,0.22053 -0.95384,0.21664 -0.9491,-0.004 -1.29641,-0.10457 -0.77179,-0.22372 z"
       id="path82" /><path
       style="fill:#77498f"
       d="m 92.938936,-116.27652 c 0,-0.10765 0.271788,-0.51588 0.603973,-0.90719 0.547391,-0.64481 0.559598,-0.62648 0.130305,0.19572 -0.450864,0.86351 -0.734278,1.13812 -0.734278,0.71147 z m 269.845504,-1.22986 c -0.4293,-0.8222 -0.41709,-0.84054 0.1303,-0.19572 0.5749,0.67721 0.75772,1.10291 0.47367,1.10291 -0.0717,0 -0.34345,-0.40824 -0.60397,-0.90719 z m 119.80318,-7.06443 c 0,-0.10765 0.27179,-0.51588 0.60398,-0.90719 0.54739,-0.64481 0.55959,-0.62648 0.1303,0.19572 -0.45086,0.86352 -0.73428,1.13813 -0.73428,0.71147 z m -254.01367,-0.51839 c 0,-0.10765 0.27179,-0.51588 0.60398,-0.90719 0.54739,-0.64481 0.55959,-0.62648 0.1303,0.19572 -0.45086,0.86351 -0.73428,1.13812 -0.73428,0.71147 z m 49.67221,-26.11272 -0.8367,-1.42558 0.9491,1.25674 c 0.52201,0.69122 0.9491,1.33273 0.9491,1.42559 0,0.40656 -0.27948,0.0757 -1.0615,-1.25675 z m 216.73992,-11.40465 -0.83669,-1.42558 0.9491,1.25675 c 0.522,0.69121 0.9491,1.33272 0.9491,1.42558 0,0.40656 -0.27949,0.0757 -1.06151,-1.25675 z m -90.44124,-19.18053 c -0.4293,-0.8222 -0.41709,-0.84054 0.1303,-0.19573 0.33219,0.39131 0.60398,0.79954 0.60398,0.90719 0,0.42666 -0.28342,0.15205 -0.73428,-0.71146 z m 137.40467,-5.50925 c 0,-0.10765 0.27179,-0.51589 0.60398,-0.90719 0.54739,-0.64482 0.5596,-0.62648 0.1303,0.19572 -0.45086,0.86351 -0.73428,1.13812 -0.73428,0.71147 z m -171.87338,-4.11364 c 0,-0.0892 0.50475,-0.84736 1.12167,-1.68477 l 1.12166,-1.52257 -1.01367,1.68478 c -0.94488,1.57045 -1.22966,1.92305 -1.22966,1.52256 z M 49.970591,-196.9501 c 0.34357,-0.57023 0.702326,-1.03678 0.797236,-1.03678 0.09491,0 -0.108539,0.46655 -0.452108,1.03678 -0.34357,0.57023 -0.702326,1.03679 -0.797236,1.03679 -0.09491,0 0.108539,-0.46656 0.452108,-1.03679 z m 46.764745,-2.26929 c 0,-0.10765 0.271788,-0.51588 0.603973,-0.90719 0.547391,-0.64481 0.559598,-0.62648 0.130305,0.19572 -0.450864,0.86351 -0.734278,1.13812 -0.734278,0.71147 z"
       id="path81" /><path
       style="fill:#693784"
       d="m 298.46223,-114.00723 c 0.34356,-0.57023 0.70232,-1.03679 0.79723,-1.03679 0.0949,0 -0.10854,0.46656 -0.45211,1.03679 -0.34357,0.57023 -0.70232,1.03679 -0.79723,1.03679 -0.0949,0 0.10854,-0.46656 0.45211,-1.03679 z m 174.46183,-0.19572 c 0,-0.10765 0.27179,-0.51588 0.60397,-0.90719 0.54739,-0.64481 0.5596,-0.62648 0.13031,0.19572 -0.45087,0.86351 -0.73428,1.13812 -0.73428,0.71147 z m -341.33087,-65.8359 c 0,-0.10765 0.27179,-0.51588 0.60397,-0.90719 0.54739,-0.64481 0.5596,-0.62648 0.13031,0.19572 -0.45087,0.86351 -0.73428,1.13812 -0.73428,0.71147 z m 170.838,-19.18054 c 0,-0.10765 0.27179,-0.51588 0.60397,-0.90719 0.54739,-0.64481 0.5596,-0.62648 0.13031,0.19572 -0.45087,0.86351 -0.73428,1.13812 -0.73428,0.71147 z"
       id="path80" /><path
       style="fill:#5e297c"
       d="m 380.08482,-108.59621 c -0.47455,-0.12336 -2.26058,-0.48367 -3.96896,-0.80069 -9.04291,-1.67803 -14.45968,-7.29812 -16.68694,-17.31327 -2.4662,-11.08954 -0.2192,-34.01914 4.9357,-50.36657 6.91171,-21.9187 16.36226,-29.18113 35.91015,-27.59574 14.39704,1.16765 20.87673,6.9811 22.77364,20.43205 2.14192,15.18835 -2.86707,45.16981 -9.85431,58.9832 -4.20251,8.30815 -10.59259,13.55431 -19.11175,15.69048 -3.07211,0.77033 -12.30508,1.41051 -13.99753,0.97054 z m 12.81941,-20.15565 c 4.1752,-1.32923 6.1494,-3.53652 7.67672,-8.58305 1.91396,-6.32411 6.4238,-32.49233 6.4238,-37.27394 0,-1.07847 -0.3555,-2.97062 -0.79,-4.20478 -1.73435,-4.92621 -5.11743,-7.25022 -10.55422,-7.25022 -5.69071,0 -10.18987,2.68558 -13.43558,8.0198 -1.3942,2.2913 -1.9315,3.77419 -2.95207,8.14732 -1.74552,7.4795 -4.11022,21.18919 -4.87543,28.26597 -0.53399,4.93838 1.3474,9.81351 4.56693,11.83405 2.85956,1.79463 9.92199,2.32399 13.93985,1.04485 z m -102.20737,18.54437 c -0.47455,-0.0907 -1.89566,-0.41664 -3.15803,-0.72422 l -2.29521,-0.55925 1.54651,-8.90443 c 5.36825,-30.90896 12.98542,-71.71108 13.88057,-74.35261 2.51275,-7.41497 6.74527,-10.14109 12.7675,-8.22342 1.40326,0.44684 2.61046,0.90118 2.68266,1.00963 0.0722,0.10845 -0.95944,6.50923 -2.29254,14.22394 -2.63067,15.22381 -2.83289,17.37887 -1.71501,18.27749 0.4847,0.38963 4.11304,0.51833 11.47548,0.40704 11.91023,-0.18004 12.31265,-0.28114 14.68017,-3.68818 1.5939,-2.29374 2.52551,-5.25749 4.02474,-12.80395 2.09104,-10.52539 3.79891,-14.58007 7.05156,-16.7412 1.71399,-1.13881 5.10043,-1.42336 8.43705,-0.70892 l 2.02895,0.43445 -0.20254,2.56866 c -0.18282,2.31869 -11.72353,67.3359 -13.41409,75.57136 -1.3657,6.65297 -3.33537,10.79927 -6.09292,12.8261 -1.56466,1.15004 -6.02208,1.52788 -8.82925,0.74843 -1.11855,-0.31059 -2.08046,-0.63489 -2.13758,-0.72069 -0.0571,-0.0858 1.21063,-7.48619 2.81721,-16.44534 1.60659,-8.95914 2.92106,-17.04916 2.92106,-17.97781 0,-3.26307 -0.35977,-3.35708 -12.14017,-3.17241 -10.1607,0.15929 -10.51853,0.19996 -12.28009,1.39591 -3.39533,2.30514 -4.57737,5.25301 -6.82665,17.0249 -1.94765,10.19328 -3.11677,13.89777 -5.32889,16.88515 -1.97342,2.66502 -5.04225,4.13851 -7.60049,3.64937 z M 32.973073,-110.7218 c -0.237275,-0.14381 -0.431409,-0.89596 -0.431409,-1.67144 0,-0.77549 1.636286,-9.79552 3.636191,-20.04453 1.999906,-10.249 5.111367,-26.79924 6.914359,-36.77831 1.802992,-9.97906 3.725498,-19.58531 4.272235,-21.34721 2.747132,-8.85287 7.86813,-12.60752 17.195488,-12.60752 8.549758,0 11.399189,3.32788 12.6501,14.7742 0.28043,2.56604 0.835586,13.29677 1.233679,23.84607 0.981606,26.01211 1.158608,28.67755 2.085618,31.40688 l 0.767323,2.25917 1.025521,-1.79963 c 0.564037,-0.9898 1.227632,-2.49946 1.474655,-3.35481 0.247024,-0.85535 2.6463,-13.64875 5.331724,-28.42977 2.685425,-14.78103 5.245443,-28.10698 5.688929,-29.61322 1.565755,-5.31788 4.332106,-8.60813 7.881134,-9.37369 1.57693,-0.34016 6.62986,0.51691 7.43077,1.2604 0.55902,0.51894 0.0599,3.66581 -5.27232,33.24117 -8.550456,47.42542 -8.459178,47.00557 -11.185125,51.44754 -3.084817,5.02676 -6.792335,6.76794 -14.538099,6.82761 -4.921326,0.0379 -5.49426,-0.0571 -7.158507,-1.18714 -3.426928,-2.32693 -5.104256,-6.73967 -5.9371,-15.61942 -0.415233,-4.42719 -1.169949,-20.69843 -1.755274,-37.84268 -0.410649,-12.02797 -0.648983,-14.59534 -1.517366,-16.34539 -0.492888,-0.99332 -0.538852,-0.97197 -1.708915,0.7936 -1.159546,1.74971 -1.381523,2.8047 -6.227785,29.59895 -2.763959,15.28151 -5.36756,29.04484 -5.785779,30.58518 -1.654696,6.0944 -3.386939,8.69853 -6.492765,9.76079 -1.568257,0.53637 -8.779215,0.6969 -9.577282,0.2132 z m 71.786477,-0.0104 c -0.60586,-0.18476 -0.77654,-0.59262 -0.77654,-1.85558 0,-2.42046 11.16963,-64.39647 12.98252,-72.03507 2.42673,-10.22499 5.86589,-15.31853 11.86664,-17.57501 1.49627,-0.56264 5.89318,-0.71379 20.76502,-0.71379 10.37675,0 18.96723,0.15074 19.08996,0.33497 0.12274,0.18423 0.0469,1.79511 -0.16857,3.57973 -0.92067,7.62611 -2.821,11.91902 -6.07357,13.72044 -1.46865,0.81341 -3.32919,0.97494 -14.28571,1.2403 -12.39001,0.30008 -12.62475,0.32551 -14.27564,1.54619 -2.57647,1.90506 -3.85084,5.48203 -4.48475,12.58807 l -0.17004,1.90613 13.17534,0.1732 c 11.45756,0.15062 13.34406,0.28728 14.46955,1.04818 1.20623,0.81549 1.29423,1.02741 1.29423,3.11676 0,1.60462 -0.41689,3.48686 -1.46679,6.62248 -1.596,4.7666 -3.33037,7.28209 -5.70332,8.27197 -0.72728,0.30339 -5.04222,0.53751 -9.93659,0.53915 -8.65963,0.003 -11.81797,0.44419 -13.77523,1.92474 -2.73279,2.0672 -4.17113,6.14401 -4.55136,12.9003 l -0.2161,3.83999 h 17.87401 17.87401 l -0.19052,4.17523 c -0.32244,7.06602 -2.34354,11.64109 -6.10107,13.81073 -1.43408,0.82806 -3.54579,0.9154 -24.00568,0.99282 -12.3383,0.0467 -22.78271,-0.0217 -23.2098,-0.15193 z m 78.94786,-0.24928 c -0.85419,-0.29548 -1.5912,-0.59068 -1.6378,-0.65599 -0.0466,-0.0653 2.50047,-14.44688 5.66015,-31.95905 6.53788,-36.23541 6.51652,-36.10538 6.22152,-37.87085 -0.38898,-2.32786 -1.2929,-2.52293 -11.69044,-2.52293 h -9.69713 l 0.19953,-3.9628 c 0.25919,-5.14771 1.74948,-9.9293 3.78493,-12.14402 2.86906,-3.12172 2.39413,-3.0744 30.77682,-3.06664 14.2495,0.004 26.27464,0.15442 26.72253,0.3345 0.76003,0.3056 0.79909,0.50016 0.58564,2.91709 -0.37341,4.22803 -1.58412,9.01643 -2.83452,11.21063 -1.83332,3.21708 -4.01343,4.18433 -10.64399,4.72244 -7.06956,0.57373 -8.78296,1.33581 -10.71393,4.76531 -1.71513,3.04614 -2.512,6.63069 -7.07396,31.82061 -2.47348,13.65784 -4.93661,26.2321 -5.47363,27.94279 -1.08975,3.47143 -2.91851,6.4573 -4.81563,7.86258 -1.49041,1.10402 -6.91638,1.45512 -9.37009,0.60633 z m 43.14091,0.1631 c -0.76357,-0.36173 -0.8546,-0.6688 -0.79133,-2.66952 0.11829,-3.74024 1.34297,-8.90219 2.66066,-11.21446 0.68938,-1.20971 1.99008,-2.64443 3.03372,-3.34631 1.80218,-1.21202 2.02097,-1.23244 16.14971,-1.507 l 14.32278,-0.27834 2.07077,-1.76156 c 1.13892,-0.96886 2.13313,-1.83659 2.20936,-1.92828 0.0762,-0.0917 -0.42658,-1.44527 -1.11736,-3.00796 -1.41023,-3.19028 -2.71265,-4.59391 -14.47829,-15.60346 -8.544,-7.99494 -11.13979,-11.29262 -12.74252,-16.18806 -1.07722,-3.29028 -1.13442,-3.75372 -1.10105,-8.92078 0.0284,-4.39283 0.20267,-6.16519 0.89837,-9.13549 1.58737,-6.77734 3.93192,-10.98262 7.69461,-13.80137 3.5828,-2.684 4.02038,-2.73068 25.59646,-2.73068 11.04093,0 20.15422,0.11954 20.25175,0.26564 0.31047,0.46506 -0.74508,7.66172 -1.49974,10.22515 -1.34074,4.55419 -3.40071,6.84814 -7.06277,7.86497 -1.21307,0.33683 -6.79225,0.56763 -13.79415,0.57065 -11.66753,0.005 -11.77038,0.0145 -13.48286,1.23929 -3.08842,2.20894 -3.11663,2.28027 -2.04309,5.16531 1.13383,3.0471 1.70933,3.68084 12.77426,14.06686 10.10476,9.48475 13.00061,13.05959 14.62014,18.04808 1.38213,4.25725 1.62775,7.89118 0.90356,13.368 -1.12073,8.47572 -3.8846,14.9216 -7.71192,17.98566 -4.00876,3.20931 -4.4438,3.26673 -26.48087,3.49503 -11.00956,0.11406 -20.40565,0.0234 -20.8802,-0.20137 z m 196.09746,0.0881 c -0.4387,-0.13586 -0.87494,-0.54961 -0.96943,-0.91945 -0.17673,-0.69176 10.49969,-60.93757 12.36044,-69.74859 2.57538,-12.19492 5.84116,-17.76034 12.1008,-20.62171 1.54059,-0.70423 4.67266,-0.85554 21.05072,-1.01701 l 19.24084,-0.18968 -0.004,2.49031 c -0.004,2.65336 -0.64992,6.8995 -1.36741,8.99414 -0.83872,2.44854 -2.92484,5.17287 -4.82671,6.30337 -1.80533,1.0731 -2.60708,1.1528 -14.33685,1.42509 -11.71782,0.27202 -12.51506,0.35111 -14.01509,1.39036 -2.56896,1.77981 -4.04298,5.59995 -4.61258,11.95419 l -0.24149,2.69397 13.74867,0.15719 c 14.61873,0.16714 15.30174,0.2848 15.30174,2.63603 0,2.03718 -1.75587,9.1365 -2.87792,11.63593 -0.72267,1.6098 -1.67011,2.87527 -2.80612,3.74807 -1.69398,1.30148 -1.84479,1.32161 -12.25202,1.63567 -5.96854,0.18011 -11.02856,0.56003 -11.67085,0.87628 -3.68177,1.8128 -5.25141,5.67702 -6.0952,15.00553 l -0.19928,2.20317 h 18.00001 18.00002 l -0.18488,4.05144 c -0.322,7.05644 -2.24076,11.6318 -5.95348,14.19633 l -1.72564,1.19196 -22.43327,0.0772 c -12.3383,0.0425 -22.79221,-0.0339 -23.23092,-0.16981 z m 57.95847,0.0156 c -0.77996,-0.25816 -0.80962,-0.41684 -0.59952,-3.20764 0.5468,-7.26326 2.43196,-11.85149 5.80745,-14.13453 1.7983,-1.2163 2.02877,-1.23863 15.80257,-1.53165 13.42857,-0.28566 14.05081,-0.34271 15.83997,-1.45217 3.38687,-2.10021 3.25808,-1.79776 2.02956,-4.76621 -0.59386,-1.43493 -1.63483,-3.35717 -2.31325,-4.27165 -0.67842,-0.91448 -5.33959,-5.51176 -10.35816,-10.21617 -9.94594,-9.32336 -13.28079,-13.44728 -14.88173,-18.40295 -0.72286,-2.2376 -0.83771,-3.33615 -0.84005,-8.03509 -0.003,-6.61149 0.93605,-11.54288 3.10799,-16.31627 2.82193,-6.2019 6.256,-8.86668 12.4127,-9.63205 4.0996,-0.50963 37.15163,-0.66691 38.35307,-0.18249 0.66381,0.26764 0.70165,0.50319 0.43599,2.71448 -0.89175,7.42294 -2.60289,12.14737 -5.08988,14.05311 -2.32276,1.77988 -4.99006,2.10572 -17.23762,2.10572 -11.30681,0 -11.96178,0.0524 -13.3103,1.06503 -0.78007,0.58577 -1.78481,1.48089 -2.23277,1.98917 -0.7808,0.88595 -0.79202,0.9893 -0.27137,2.50157 1.13755,3.30414 2.56236,4.95486 11.78308,13.65129 5.21977,4.92298 10.38048,10.0278 11.46823,11.34405 3.9868,4.82429 5.75211,9.84755 5.75055,16.36345 -0.002,9.87407 -3.48697,19.57575 -8.36462,23.28831 -3.73241,2.84089 -4.42558,2.92377 -26.28139,3.14236 -11.10447,0.11107 -20.55919,0.0797 -21.0105,-0.0697 z"
       id="path79" /></g></svg>
