<?xml version="1.0" encoding="UTF-8" standalone="no"?>
<svg
   height="476.77899"
   viewBox="0 0 640.2 126.2"
   width="2419.4851"
   version="1.1"
   id="svg14"
   sodipodi:docname="aliexpress.svg"
   xml:space="preserve"
   inkscape:export-filename="olympikus.svg"
   inkscape:export-xdpi="96"
   inkscape:export-ydpi="96"
   xmlns:inkscape="http://www.inkscape.org/namespaces/inkscape"
   xmlns:sodipodi="http://sodipodi.sourceforge.net/DTD/sodipodi-0.dtd"
   xmlns="http://www.w3.org/2000/svg"
   xmlns:svg="http://www.w3.org/2000/svg"><defs
     id="defs14" /><sodipodi:namedview
     id="namedview14"
     pagecolor="#ffffff"
     bordercolor="#000000"
     borderopacity="0.25"
     inkscape:showpageshadow="2"
     inkscape:pageopacity="0.0"
     inkscape:pagecheckerboard="0"
     inkscape:deskcolor="#d1d1d1"
     inkscape:export-bgcolor="#ffffff00" /><g
     id="g358"
     transform="translate(132.32018,172.27599)"><path
       style="fill:#0d86fd;fill-opacity:1;stroke-width:13.3927"
       d="m -317.43636,-252.81987 c -32.78807,-7.29575 -48.50046,-15.101 -69.19604,-34.37368 -22.51112,-20.96339 -28.6441,-34.37834 -28.53759,-62.42156 0.10686,-28.1321 8.94961,-46.47615 33.53477,-69.56699 35.60536,-33.44122 70.23623,-48.59741 134.76954,-58.98186 l 36.02355,-5.79676 24.8857,-23.47591 c 16.34491,-15.41896 35.46791,-28.7196 55.71955,-38.75468 26.92591,-13.34232 35.729635,-15.75848 69.462002,-19.06371 50.754815,-4.97314 90.619543,-1.70228 115.987617,9.51668 25.902623,11.45538 50.093411,34.0282 60.672131,56.61416 l 8.44248,18.02507 30.13456,4.03196 c 57.92084,7.74973 96.66066,28.92443 113.14432,61.84326 25.4625,50.85006 -6.73773,110.21142 -79.28316,146.1591 -39.38913,19.51808 -72.59585,24.30104 -128.909614,18.56761 -31.166751,-3.17316 -45.772957,-6.6112 -63.6722708,-14.98731 -26.1393342,-12.23207 -57.2698562,-39.33001 -64.0852222,-55.78376 -2.490635,-6.01292 -6.045457,-10.93259 -7.899603,-10.93259 -1.854146,0 -16.120839,10.87861 -31.70376,24.17469 -48.63086,41.49413 -99.8502,60.85905 -159.65883,60.36355 -15.22587,-0.12615 -37.64943,-2.44692 -49.83013,-5.15727 z m 138.164,-55.51167 c 13.65034,-7.17305 30.50327,-17.82652 37.45097,-23.67436 l 12.63217,-10.63245 -10.42985,-4.02387 c -26.38809,-10.18059 -76.31148,-54.03504 -76.31148,-67.03467 0,-14.17062 25.02377,-10.15258 59.05793,9.48287 31.45085,18.14505 57.552804,27.77018 74.874184,27.60996 10.604519,-0.0981 13.227436,-2.48457 24.652166,-22.42992 16.303927,-28.46344 34.341103,-44.66846 60.6929351,-54.52795 24.8713229,-9.30555 40.1433339,-9.94984 48.0653639,-2.02779 9.957942,9.95792 6.577946,15.27616 -18.688844,29.40617 -44.38731,24.82278 -64.731991,50.40854 -58.818299,73.97063 4.024539,16.03509 27.06451296,37.59014 49.451491,46.26442 17.310616,6.70732 28.928676,8.17316 67.076074,8.46288 44.752359,0.33989 46.901409,-0.0106 71.506669,-11.66358 36.55335,-17.3115 59.54099,-35.39069 68.48121,-53.85869 10.04635,-20.75305 9.65978,-28.99537 -2.01055,-42.86473 -13.02954,-15.48474 -26.2686,-21.76024 -59.19789,-28.06066 -42.73724,-8.17698 -50.93735,-7.33056 -59.46506,6.13802 -11.500609,18.16397 -49.395719,55.10377 -64.38355,62.76049 -7.532064,3.84785 -20.404846,6.99609 -28.606184,6.99609 -14.0440487,0 -14.9115358,-0.63207 -14.9115358,-10.86495 0,-8.3146 3.5905005,-13.72973 15.2962988,-23.0695 33.562804,-26.77901 54.70628,-48.61492 58.653122,-60.57393 7.594923,-23.01291 -6.211455,-46.44677 -37.038216,-62.86564 -11.103112,-5.91372 -21.479073,-6.88084 -73.822409,-6.88084 -59.027428,0 -61.585356,0.31924 -83.039336,10.36386 -12.17472,5.70012 -25.85726,13.85994 -30.40565,18.13293 -9.92626,9.32523 -6.95714,14.44274 14.82753,25.55645 26.04964,13.28954 58.015131,47.46922 58.015131,62.03375 0,2.13093 -7.071493,3.87442 -15.714429,3.87442 -11.188012,0 -25.197142,-4.71985 -48.635702,-16.38598 -38.74122,-19.28275 -62.43526,-23.0075 -109.13253,-17.15581 -53.04023,6.64653 -109.44844,40.06818 -118.47493,70.19596 -5.51534,18.40855 0.67225,37.95136 15.31792,48.38 22.7667,16.21132 46.61741,21.45242 98.92613,21.73863 l 49.29035,0.26969 z"
       id="path349"
       transform="matrix(0.26469287,0,0,0.26469287,-0.11022934,0)" /><path
       style="fill:#0d86fd;fill-opacity:1;stroke-width:13.3927"
       d="m 354.87373,-236.33582 c -36.71532,-11.00259 -42.49325,-42.36768 -26.49931,-143.84959 20.66641,-131.12884 26.53156,-150.38331 53.128,-174.41159 32.00332,-28.91308 86.69466,-28.38924 107.64373,1.03102 13.50561,18.96688 8.90377,90.7923 -13.10926,204.60894 -12.25155,63.34574 -14.82238,70.47619 -32.21098,89.3406 -21.23317,23.03527 -57.81874,32.61047 -88.95218,23.28062 z m 48.52018,-56.27396 c 9.44251,-10.05109 15.6674,-35.91319 28.24807,-117.36029 14.17842,-91.79092 12.25263,-115.38043 -8.87204,-108.67572 -14.75843,4.68414 -20.41494,24.8252 -38.84997,138.33252 -11.26249,69.34494 -11.47091,79.13285 -1.889,88.71475 9.37263,9.37263 11.7118,9.2619 21.36294,-1.01126 z"
       id="path350"
       transform="matrix(0.26469287,0,0,0.26469287,-0.11022934,0)" /><path
       style="fill:#0d86fd;fill-opacity:1;stroke-width:13.3927"
       d="m 483.31608,-244.53673 c 0.97103,-4.56776 4.44241,-26.57607 7.71419,-48.90735 18.31582,-125.01335 42.97281,-265.72696 47.01249,-268.29294 4.86238,-3.08855 50.69095,-4.20621 50.69095,-1.23624 0,0.9725 -9.13552,59.36717 -20.30116,129.76593 -11.16564,70.39877 -20.30116,129.39924 -20.30116,131.11217 0,1.71292 15.14042,3.1144 33.64538,3.1144 h 33.64539 l -2.62175,20.98378 c -4.2829,34.27915 -5.99295,36.64946 -28.38024,39.33791 -10.82331,1.29976 -38.39668,2.37763 -61.27417,2.39528 -41.20553,0.0318 -41.57888,-0.0458 -39.82992,-8.27294 z"
       id="path351"
       transform="matrix(0.26469287,0,0,0.26469287,-0.11022934,0)" /><path
       style="fill:#0d86fd;fill-opacity:1;stroke-width:13.3927"
       d="m 643.17774,-238.87549 c -8.9851,-1.36113 -10.13714,-3.09883 -10.03354,-15.13421 0.0644,-7.47809 2.52359,-30.20657 5.46492,-50.50774 7.35011,-50.73075 6.80798,-100.62385 -1.84736,-170.01421 -4.03632,-32.35939 -7.35832,-65.89452 -7.38224,-74.52252 l -0.0435,-15.68726 h 25.20089 25.20089 l 4.56445,41.52511 c 4.93204,44.86915 6.8489,54.44402 10.89956,54.44402 1.4406,0 11.69509,-20.8314 22.78775,-46.292 22.16874,-50.88312 22.1886,-50.90095 54.51823,-48.97241 l 19.1247,1.14084 -40.30105,90.73099 c -41.7843,94.07027 -48.5222,116.40869 -63.09239,209.17255 l -4.20322,26.76062 -15.35377,-0.55305 c -8.44457,-0.30417 -19.92152,-1.245 -25.50434,-2.09073 z"
       id="path352"
       transform="matrix(0.26469287,0,0,0.26469287,-0.11022934,0)" /><path
       style="fill:#0d86fd;fill-opacity:1;stroke-width:13.3927"
       d="m 843.42102,-321.12748 c 0,-46.69267 -1.30778,-84.89577 -2.90618,-84.89577 -1.5984,0 -9.371,37.3726 -17.27244,83.05021 l -14.36627,83.05021 h -27.06462 -27.06462 l 1.96643,-13.8417 c 1.08154,-7.61294 11.23917,-72.80735 22.57251,-144.87648 11.33333,-72.06912 21.69715,-138.50929 23.0307,-147.64482 l 2.42464,-16.61004 37.21968,-1.04555 37.21969,-1.04555 2.40643,47.18456 c 1.32354,25.9515 2.43861,60.47259 2.47793,76.71352 0.0393,16.24093 1.62967,31.99328 3.53412,35.00522 4.37156,6.91379 6.92002,0.92058 36.80352,-86.55088 12.4597,-36.47058 24.66633,-67.58897 27.12583,-69.15199 7.04186,-4.4751 72.75753,-3.60031 72.75753,0.96853 0,10.01629 -44.73337,290.7117 -49.73423,312.07503 -1.49814,6.39996 -5.56901,8.2301 -22.81536,10.25707 -11.54552,1.35695 -22.16322,1.17351 -23.59488,-0.40765 -1.43166,-1.58115 2.93215,-36.92542 9.69736,-78.5428 6.7652,-41.61738 12.30685,-80.65098 12.31476,-86.74133 l 0.0144,-11.07336 -4.90836,9.2278 c -2.69959,5.07529 -16.33638,43.88165 -30.30396,86.23635 -27.78998,84.26915 -27.30283,83.55519 -57.01042,83.55519 h -14.52419 z"
       id="path353"
       transform="matrix(0.26469287,0,0,0.26469287,-0.11022934,0)" /><path
       style="fill:#0d86fd;fill-opacity:1;stroke-width:13.3927"
       d="m 1004.6291,-238.71817 c -9.72978,-1.63149 -10.28706,-2.65866 -8.31088,-15.31841 14.21738,-91.07895 40.44448,-253.24969 45.10718,-278.91282 l 5.9599,-32.80258 49.1197,1.87433 c 55.7714,2.12815 68.9808,6.87999 80.0339,28.79075 11.6724,23.13847 6.7555,92.93245 -8.564,121.56431 -16.2603,30.39009 -28.7731,38.42129 -74.7238,47.96061 -24.1226,5.00782 -20.9882,-1.64677 -33.6887,71.52424 -4.8766,28.09511 -9.7437,51.9592 -10.8158,53.03132 -2.8249,2.82486 -31.9181,4.33385 -44.1175,2.28825 z m 101.0659,-185.8701 c 8.9256,-4.77682 16.9671,-20.13831 21.7766,-41.59905 5.1933,-23.17381 -0.4893,-38.44193 -15.8781,-42.66121 -6.4018,-1.75524 -12.9087,-2.07005 -14.4598,-0.69958 -3.4867,3.08073 -13.7779,60.38998 -13.7848,76.76424 0,9.66428 1.4771,11.99614 7.6198,11.99614 4.1937,0 10.8206,-1.71024 14.7263,-3.80054 z"
       id="path354"
       transform="matrix(0.26469287,0,0,0.26469287,-0.11022934,0)" /><path
       style="fill:#0d86fd;fill-opacity:1;stroke-width:13.3927"
       d="m 1171.5515,-238.46042 c -3.7036,-1.12335 -5.42,-4.83791 -4.5898,-9.93339 0.7293,-4.47648 7.2049,-48.00316 14.3902,-96.72595 12.9086,-87.53162 29.1723,-189.77243 33.321,-209.47109 2.0997,-9.96936 2.6268,-10.15058 29.528,-10.15058 15.0645,0 27.3877,1.24576 27.3847,2.76834 -0.01,2.60268 -22.7229,150.07679 -40.7973,264.83789 -4.4763,28.42163 -9.3478,53.01704 -10.8256,54.65646 -3.1906,3.53958 -39.9342,6.58945 -48.4112,4.01832 z"
       id="path355"
       transform="matrix(0.26469287,0,0,0.26469287,-0.11022934,0)" /><path
       style="fill:#0d86fd;fill-opacity:1;stroke-width:13.3927"
       d="m 1357.7786,-238.87433 -11.6271,-1.46118 -9.9172,-52.36951 c -5.4545,-28.80323 -11.2362,-54.72652 -12.8484,-57.60729 -3.8146,-6.81633 -4.9921,-2.77048 -14.9392,51.33155 -12.0862,65.73694 -7.8189,59.05793 -37.7326,59.05793 h -25.9145 l 2.5594,-23.0695 c 3.7331,-33.64916 34.7364,-231.83607 42.0073,-268.52901 l 6.217,-31.37453 26.9589,-1.08849 26.959,-1.08849 -1.9347,12.16185 c -5.3951,33.91418 -10.2781,80.06473 -8.9067,84.17896 0.853,2.55923 13.6767,-17.99593 28.4971,-45.67813 l 26.9461,-50.33126 h 25.4853 c 14.017,0 25.4854,1.11472 25.4854,2.47715 0,1.36243 -15.2612,34.99776 -33.9137,74.74519 l -33.9136,72.26804 10.0673,81.20465 c 12.8835,103.92066 13.1328,97.95798 -4.0663,97.22398 -7.6129,-0.3249 -19.0739,-1.24825 -25.4688,-2.05191 z"
       id="path356"
       transform="matrix(0.26469287,0,0,0.26469287,-0.11022934,0)" /><path
       style="fill:#0d86fd;fill-opacity:1;stroke-width:13.3927"
       d="m 1453.254,-239.67434 c -18.79,-8.77168 -30.1248,-29.62044 -30.2361,-55.6153 -0.1055,-24.64424 33.8841,-258.02374 38.718,-265.84508 1.226,-1.98369 12.9275,-3.60671 26.0035,-3.60671 18.7401,0 23.7744,1.18001 23.7744,5.57258 0,3.06492 -6.5511,52.4798 -14.5581,109.81083 -19.8414,142.06781 -20.5289,149.21685 -14.9927,155.88764 9.8073,11.817 27.9911,4.18909 34.6939,-14.5537 2.2637,-6.32978 42.8351,-246.83271 42.8397,-253.94901 10e-4,-1.52258 11.8673,-2.76834 26.3697,-2.76834 h 26.3679 l -2.3686,24.91507 c -2.9817,31.36436 -29.8582,195.29466 -37.5975,229.32176 -7.9328,34.87762 -22.1216,56.22966 -44.595,67.10886 -24.405,11.81425 -53.9214,13.29025 -74.4191,3.7214 z"
       id="path357"
       transform="matrix(0.26469287,0,0,0.26469287,-0.11022934,0)" /><path
       style="fill:#0d86fd;fill-opacity:1;stroke-width:13.3927"
       d="m 1630.7766,-234.8878 c -4.4445,-0.98924 -14.0527,-8.40859 -21.3514,-16.48745 l -13.2705,-14.68884 1.0502,-37.68228 1.0503,-37.68227 24.3882,-1.07942 24.3882,-1.07941 2.0663,22.78826 c 2.4282,26.77848 8.8365,35.78216 20.8802,29.3366 9.4503,-5.05765 15.0184,-18.04324 15.0184,-35.02499 0,-9.08235 -7.4175,-23.56897 -28.6062,-55.86908 l -28.6062,-43.6073 -1.2787,-30.07572 c -1.5104,-35.52591 6.4073,-71.25605 19.6325,-88.59521 12.8023,-16.78461 30.1709,-23.79764 58.9377,-23.79764 23.2481,0 25.2483,0.70736 39.1389,13.8417 11.7988,11.15644 15.3676,17.78009 18.3963,34.14287 2.0667,11.16564 2.7009,27.36043 1.4093,35.98842 l -2.3483,15.68726 h -23.5732 -23.5732 l -0.054,-13.8417 c -0.07,-17.79925 -7.4577,-32.2973 -16.4577,-32.2973 -9.186,0 -21.8385,21.45044 -19.0931,32.3696 1.1384,4.528 12.5974,24.84276 25.4644,45.14393 12.867,20.30116 25.8107,42.72472 28.7638,49.83012 6.8347,16.44471 5.8636,67.5756 -1.783,93.87887 -6.143,21.13112 -23.4158,47.40811 -35.3678,53.80462 -8.4136,4.5028 -52.325,7.8667 -65.221,4.99636 z"
       id="path358"
       transform="matrix(0.26469287,0,0,0.26469287,-0.11022934,0)" /></g></svg>
