<?xml version="1.0" encoding="UTF-8" standalone="no"?>
<svg
   height="476.77899"
   viewBox="0 0 640.2 126.2"
   width="2419.4851"
   version="1.1"
   id="svg14"
   sodipodi:docname="aliexpress.svg"
   xml:space="preserve"
   inkscape:export-filename="pontofrio.svg"
   inkscape:export-xdpi="96"
   inkscape:export-ydpi="96"
   xmlns:inkscape="http://www.inkscape.org/namespaces/inkscape"
   xmlns:sodipodi="http://sodipodi.sourceforge.net/DTD/sodipodi-0.dtd"
   xmlns="http://www.w3.org/2000/svg"
   xmlns:svg="http://www.w3.org/2000/svg"><defs
     id="defs14" /><sodipodi:namedview
     id="namedview14"
     pagecolor="#ffffff"
     bordercolor="#000000"
     borderopacity="0.25"
     inkscape:showpageshadow="2"
     inkscape:pageopacity="0.0"
     inkscape:pagecheckerboard="0"
     inkscape:deskcolor="#d1d1d1"
     inkscape:export-bgcolor="#ffffff00" /><g
     id="g303"
     transform="matrix(2.3888394,0,0,2.2927346,-234.33723,332.97582)"><path
       style="fill:#ffffff;fill-opacity:1;stroke-width:4.73502"
       d="m 570.94107,-447.6178 v -87.43554 l 23.81639,0.0255 c 43.3013,0.0463 64.93326,5.13536 77.09474,18.13696 11.53054,12.32708 15.95825,26.62104 14.78816,47.74047 -1.31018,23.64774 -8.33617,38.03274 -23.48846,48.09026 -11.91592,7.90934 -19.18489,10.00754 -37.72674,10.8899 l -16.63886,0.7918 v 24.59811 24.59811 h -18.92262 -18.92261 z m 66.53979,-2.40412 c 8.24678,-5.01369 11.72625,-11.68087 11.68543,-22.39103 -0.0393,-10.3195 -3.78848,-18.86945 -10.11904,-23.07648 -5.19488,-3.45229 -16.28411,-5.94144 -23.99397,-5.38581 l -5.61447,0.40461 -0.35481,26.06335 c -0.19514,14.33484 -0.038,26.88891 0.34919,27.89794 1.2596,3.28245 20.92099,0.82014 28.04767,-3.51258 z"
       id="path297"
       transform="matrix(0.26469287,0,0,0.26469287,-0.11022934,0)" /><path
       style="fill:#ffffff;fill-opacity:1;stroke-width:4.73502"
       d="m 705.3569,-447.6178 v -87.43554 h 16.31261 16.3126 v 35.23522 c 0,19.37937 0.48996,35.23522 1.08881,35.23522 0.59884,0 3.95386,-3.02604 7.45559,-6.72454 3.66296,-3.86877 9.35343,-8.09186 13.39951,-9.94422 6.13314,-2.80784 8.40571,-3.14762 17.7666,-2.65629 12.12065,0.63617 17.93694,3.32494 23.78885,10.99719 6.17344,8.0938 6.92849,15.27145 6.95069,66.07447 l 0.0204,46.65404 H 792.24202 776.0315 l -0.42833,-38.82399 c -0.46201,-41.87668 -0.84258,-44.24948 -7.88879,-49.18484 -4.5636,-3.19647 -15.16873,-2.65345 -20.62801,1.05623 -8.23356,5.59484 -9.11812,10.58443 -9.11072,51.39113 l 0.006,35.56147 h -16.3126 -16.31261 z"
       id="path298"
       transform="matrix(0.26469287,0,0,0.26469287,-0.11022934,0)" /><path
       style="fill:#ffffff;fill-opacity:1;stroke-width:4.73502"
       d="m 834.55271,-421.51763 v -61.33539 h 16.96511 16.9651 v 61.33539 61.33538 h -16.9651 -16.96511 z"
       id="path299"
       transform="matrix(0.26469287,0,0,0.26469287,-0.11022934,0)" /><path
       style="fill:#ffffff;fill-opacity:1;stroke-width:4.73502"
       d="m 834.55271,-520.04575 v -15.00759 h 16.96511 16.9651 v 15.00759 15.0076 h -16.9651 -16.96511 z"
       id="path300"
       transform="matrix(0.26469287,0,0,0.26469287,-0.11022934,0)" /><path
       style="fill:#ffffff;fill-opacity:1;stroke-width:4.73502"
       d="m 895.88809,-447.6178 v -87.43554 h 16.31261 16.3126 v 87.43554 87.43555 h -16.3126 -16.31261 z"
       id="path301"
       transform="matrix(0.26469287,0,0,0.26469287,-0.11022934,0)" /><path
       style="fill:#ffffff;fill-opacity:1;stroke-width:4.73502"
       d="m 1001.6276,-359.05639 c -18.6848,-2.76487 -36.53528,-16.73786 -43.45074,-34.01236 -7.19874,-17.98213 -7.29028,-40.82746 -0.22758,-56.79746 4.35178,-9.84015 16.0214,-21.60432 26.75964,-26.97644 10.74453,-5.37527 26.73378,-8.102 39.49538,-6.73534 l 8.7097,0.93272 v 16.65434 16.65435 l -6.1988,-1.00582 c -9.0059,-1.46129 -21.921,0.85824 -28.27516,5.07817 -13.48669,8.95684 -15.25713,31.78816 -3.43518,44.29936 6.14254,6.5007 12.91514,8.80992 25.83784,8.80992 h 12.0714 l -10e-5,15.88266 v 15.88266 l -3.5888,0.68754 c -8.0942,1.5507 -19.746,1.82233 -27.6976,0.6457 z"
       id="path302"
       transform="matrix(0.26469287,0,0,0.26469287,-0.11022934,0)" /><path
       style="fill:#ffffff;fill-opacity:1;stroke-width:4.73502"
       d="m 1092.8808,-359.35059 c -17.9348,-3.86289 -34.1481,-17.02232 -42.6776,-34.63895 -4.3861,-9.05895 -4.8436,-11.07256 -5.3248,-23.43526 -0.8774,-22.54354 5.1336,-37.49114 20.7519,-51.60381 11.0877,-10.01876 21.2979,-14.09133 37.1938,-14.83547 19.9318,-0.9331 31.4594,2.97884 45.2459,15.3544 13.2699,11.91186 20.5201,28.5101 20.5493,47.04412 0.029,18.73459 -5.9541,32.97929 -19.4398,46.2791 -14.6724,14.47017 -35.4738,20.32124 -56.2987,15.83587 z m 22.5485,-34.30793 c 6.7499,-2.61155 10.6729,-5.94647 15.1176,-12.85152 4.5737,-7.10535 4.8469,-20.83437 0.5753,-28.9102 -10.4564,-19.76848 -35.701,-20.52432 -48.3259,-1.4469 -3.0537,4.61442 -3.5178,6.63274 -3.502,15.22826 0.021,11.1102 2.8482,17.76784 9.9717,23.47762 8.094,6.48765 17.0495,8.02889 26.1633,4.50274 z"
       id="path303"
       transform="matrix(0.26469287,0,0,0.26469287,-0.11022934,0)" /></g></svg>
