<?xml version="1.0" encoding="UTF-8" standalone="no"?>
<svg
   height="476.77899"
   viewBox="0 0 640.2 126.2"
   width="2419.4851"
   version="1.1"
   id="svg14"
   sodipodi:docname="aliexpress.svg"
   xml:space="preserve"
   inkscape:export-filename="polishop.svg"
   inkscape:export-xdpi="96"
   inkscape:export-ydpi="96"
   xmlns:inkscape="http://www.inkscape.org/namespaces/inkscape"
   xmlns:sodipodi="http://sodipodi.sourceforge.net/DTD/sodipodi-0.dtd"
   xmlns="http://www.w3.org/2000/svg"
   xmlns:svg="http://www.w3.org/2000/svg"><defs
     id="defs14" /><sodipodi:namedview
     id="namedview14"
     pagecolor="#ffffff"
     bordercolor="#000000"
     borderopacity="0.25"
     inkscape:showpageshadow="2"
     inkscape:pageopacity="0.0"
     inkscape:pagecheckerboard="0"
     inkscape:deskcolor="#d1d1d1" /><g
     id="g99"
     transform="translate(6.2735418,230.43183)"><path
       style="fill:#facacc"
       d="m 125.5212,-102.73565 c 0.72866,-0.20488 1.59926,-0.17968 1.93468,0.056 0.33541,0.23568 -0.26076,0.40331 -1.32484,0.37251 -1.17589,-0.034 -1.41507,-0.20209 -0.60984,-0.42851 z m 281.62187,-24.82395 c 0.72866,-0.20488 1.59927,-0.17969 1.93468,0.056 0.33542,0.23568 -0.26076,0.40332 -1.32483,0.37252 -1.17589,-0.034 -1.41508,-0.2021 -0.60985,-0.42851 z m 13.56378,-0.71366 c 0.97154,-0.1784 2.56135,-0.1784 3.53289,0 0.97155,0.1784 0.17665,0.32436 -1.76644,0.32436 -1.94309,0 -2.738,-0.14596 -1.76645,-0.32436 z m 34.31951,0 c 0.97155,-0.1784 2.56135,-0.1784 3.53289,0 0.97155,0.1784 0.17665,0.32436 -1.76644,0.32436 -1.94309,0 -2.73799,-0.14596 -1.76645,-0.32436 z m -424.990109,-31.94373 10.817215,-0.24064 0.342472,-7.60074 0.342472,-7.60075 -0.05632,7.80182 -0.05631,7.80181 -11.103372,0.0396 -11.103371,0.0396 z m 170.682319,-0.0144 c 7.66676,-0.12064 19.93093,-0.12033 27.25373,6.9e-4 7.32279,0.12102 1.04998,0.21972 -13.93957,0.21934 -14.98955,-3.8e-4 -20.98092,-0.0994 -13.31416,-0.22003 z m 64.57794,0.006 c 3.21249,-0.14117 8.209,-0.13987 11.10337,0.003 2.89436,0.14278 0.26596,0.25829 -5.84089,0.25669 -6.10686,-0.002 -8.47497,-0.11842 -5.26248,-0.2596 z m 117.09009,0 c 3.21249,-0.14117 8.20901,-0.13987 11.10338,0.003 2.89436,0.14278 0.26596,0.25829 -5.84089,0.25669 -6.10686,-0.002 -8.47498,-0.11842 -5.26249,-0.2596 z m 47.39195,0.009 10.83815,-0.24079 0.28459,-24.62273 0.2846,-24.62273 -0.0194,24.82395 -0.0194,24.82395 -11.10337,0.0396 -11.10338,0.0396 z m 130.1902,1.6e-4 10.81609,-0.24063 0.34022,-6.8915 0.34022,-6.8915 -0.0529,7.09256 -0.0529,7.09256 -11.10337,0.0396 -11.10337,0.0396 z m -401.95757,-5.51256 c 1.30388,-0.97522 2.59781,-1.77314 2.8754,-1.77314 0.27758,0 -0.56212,0.79792 -1.866,1.77314 -1.30389,0.97523 -2.59782,1.77314 -2.8754,1.77314 -0.27759,0 0.56211,-0.79791 1.866,-1.77314 z m 362.37366,0 c 1.30389,-0.97522 2.59782,-1.77314 2.8754,-1.77314 0.27758,0 -0.56212,0.79792 -1.866,1.77314 -1.30388,0.97523 -2.59781,1.77314 -2.8754,1.77314 -0.27758,0 0.56212,-0.79791 1.866,-1.77314 z M 338.773,-174.29971 c 0.0484,-0.82624 0.28762,-0.99431 0.60985,-0.42851 0.29158,0.51199 0.25572,1.12373 -0.0797,1.35941 -0.33542,0.23568 -0.57399,-0.18323 -0.53016,-0.9309 z m -42.315,-1.00478 c 0,-0.97523 0.22911,-1.37418 0.50913,-0.88657 0.28001,0.48761 0.28001,1.28553 0,1.77314 -0.28002,0.48761 -0.50913,0.0887 -0.50913,-0.88657 z m 162.58778,-10.63884 c 0,-1.36531 0.20773,-1.92385 0.46163,-1.24119 0.25389,0.68265 0.25389,1.79973 0,2.48239 -0.2539,0.68266 -0.46163,0.12412 -0.46163,-1.2412 z m -362.448465,0 c 0,-0.97522 0.229107,-1.37418 0.509126,-0.88657 0.280019,0.48762 0.280019,1.28553 0,1.77314 -0.280019,0.48762 -0.509126,0.0887 -0.509126,-0.88657 z m -55.255172,-1.67053 c -0.288737,-0.5287 -0.362002,-3.00223 -0.162811,-5.49673 l 0.362165,-4.53546 0.19449,5.1097 0.19449,5.1097 6.813433,0.24812 6.813432,0.24812 -6.845112,0.13891 c -4.971936,0.1009 -6.988773,-0.12414 -7.370087,-0.82236 z m 529.933637,0 c -0.28874,-0.5287 -0.36201,-3.00223 -0.16282,-5.49673 l 0.36217,-4.53546 0.19449,5.1097 0.19449,5.1097 6.81343,0.24812 6.81343,0.24812 -6.84511,0.13891 c -4.97193,0.1009 -6.98877,-0.12414 -7.37008,-0.82236 z m -167.69183,-5.23767 c 3.21249,-0.14118 8.20901,-0.13987 11.10337,0.003 2.89437,0.14277 0.26596,0.25828 -5.84089,0.25668 -6.10685,-0.002 -8.47497,-0.11842 -5.26248,-0.25959 z m -270.99697,-6.3429 c 0.72866,-0.20489 1.59926,-0.17969 1.93468,0.056 0.33541,0.23568 -0.26076,0.40331 -1.32483,0.37252 -1.1759,-0.034 -1.41508,-0.2021 -0.60985,-0.42851 z m 362.37367,0 c 0.72865,-0.20489 1.59926,-0.17969 1.93467,0.056 0.33542,0.23568 -0.26076,0.40331 -1.32483,0.37252 -1.17589,-0.034 -1.41507,-0.2021 -0.60984,-0.42851 z m -168.10855,-1.42552 c 0.98211,-0.17983 2.3448,-0.168 3.0282,0.0263 0.68339,0.19428 -0.12016,0.34141 -1.78566,0.32696 -1.66551,-0.0145 -2.22465,-0.17341 -1.24254,-0.35324 z m 141.54878,-3.05477 c 1.00484,-0.78018 2.0541,-1.41851 2.33168,-1.41851 0.27758,0 -0.31744,0.63833 -1.32229,1.41851 -1.00484,0.78018 -2.05409,1.41851 -2.33168,1.41851 -0.27758,0 0.31745,-0.63833 1.32229,-1.41851 z m -362.87837,0.44147 c 0,-0.14728 0.7949,-0.70582 1.76645,-1.2412 1.60096,-0.88222 1.63666,-0.85713 0.3811,0.26779 -1.31864,1.18144 -2.14755,1.55715 -2.14755,0.97341 z m 245.69236,-2.74655 -1.92289,-1.59583 2.27115,1.35113 c 1.24913,0.74311 2.27114,1.46124 2.27114,1.59582 0,0.56759 -0.81235,0.14856 -2.6194,-1.35112 z m -215.5997,-5.27198 c 0.72866,-0.20488 1.59927,-0.17969 1.93468,0.056 0.33542,0.23568 -0.26076,0.40331 -1.32483,0.37252 -1.17589,-0.034 -1.41508,-0.2021 -0.60985,-0.42851 z m 362.37367,0 c 0.72866,-0.20488 1.59926,-0.17969 1.93468,0.056 0.33541,0.23568 -0.26076,0.40331 -1.32484,0.37252 -1.17589,-0.034 -1.41507,-0.2021 -0.60984,-0.42851 z"
       id="path105" /><path
       style="fill:#f7aeb1"
       d="m 376.49605,-185.23407 c 0,-13.84822 0.13522,-19.5134 0.30047,-12.58929 0.16526,6.92411 0.16526,18.25447 0,25.17858 -0.16525,6.92411 -0.30047,1.25893 -0.30047,-12.58929 z m 82.39524,2.42329 c 0.0484,-0.82624 0.28762,-0.99431 0.60985,-0.42851 0.29158,0.512 0.25572,1.12373 -0.0797,1.35941 -0.33542,0.23568 -0.57399,-0.18323 -0.53016,-0.9309 z m -362.373664,-0.70926 c 0.04843,-0.82624 0.287618,-0.9943 0.609844,-0.4285 0.291585,0.51199 0.255725,1.12372 -0.07969,1.3594 -0.335414,0.23568 -0.573984,-0.18322 -0.530154,-0.9309 z m 412.843534,0 c 0.0484,-0.82624 0.28762,-0.9943 0.60984,-0.4285 0.29159,0.51199 0.25573,1.12372 -0.0797,1.3594 -0.33542,0.23568 -0.57399,-0.18322 -0.53016,-0.9309 z m 102.95854,-7.80181 c 0.0484,-0.82624 0.28761,-0.9943 0.60984,-0.42851 0.29158,0.512 0.25572,1.12373 -0.0797,1.35941 -0.33541,0.23568 -0.57398,-0.18323 -0.53015,-0.9309 z m -529.853948,-1.00478 c 0,-0.97522 0.229106,-1.37418 0.509126,-0.88657 0.280019,0.48762 0.280019,1.28553 0,1.77314 -0.28002,0.48761 -0.509126,0.0887 -0.509126,-0.88657 z"
       id="path104" /><path
       style="fill:#f58e92"
       d="m 326.33996,-158.78398 c 1.2556,-0.16965 3.07252,-0.16321 4.03759,0.0143 0.96507,0.17752 -0.0622,0.31633 -2.28291,0.30846 -2.22068,-0.008 -3.01028,-0.15312 -1.75468,-0.32277 z M 217.3612,-172.99569 c 4.6065,-0.13172 11.87416,-0.13098 16.15036,0.002 4.2762,0.13262 0.50724,0.24039 -8.37546,0.23949 -8.88269,-8.9e-4 -12.3814,-0.1094 -7.7749,-0.24112 z m 186.72443,-7.08805 c 2.93324,-0.14373 7.47553,-0.14222 10.09397,0.003 2.61844,0.14557 0.21852,0.26316 -5.33317,0.26131 -5.55169,-0.002 -7.69405,-0.12095 -4.7608,-0.26467 z m -257.09813,-4.85481 c 0.0484,-0.82624 0.28761,-0.9943 0.60984,-0.42851 0.29159,0.512 0.25573,1.12373 -0.0797,1.35941 -0.33541,0.23568 -0.57398,-0.18322 -0.53015,-0.9309 z"
       id="path103" /><path
       style="fill:#f47d82"
       d="m 167.36731,-102.74265 c 0.98212,-0.17983 2.3448,-0.168 3.0282,0.0263 0.68339,0.19428 -0.12015,0.34141 -1.78566,0.32696 -1.66551,-0.0145 -2.22465,-0.17342 -1.24254,-0.35324 z m 73.77275,-63.69614 c -0.003,-3.51082 0.16761,-5.03648 0.3793,-3.39037 0.2117,1.64612 0.21421,4.5186 0.006,6.3833 -0.20861,1.8647 -0.38182,0.51788 -0.38489,-2.99293 z m -133.72751,1.24119 c -1.25556,-1.12491 -1.21985,-1.15 0.38111,-0.26778 1.6814,0.92655 2.21611,1.50898 1.38534,1.50898 -0.20961,0 -1.00451,-0.55854 -1.76645,-1.2412 z m 246.42172,0.97342 c 0,-0.14728 0.7949,-0.70582 1.76645,-1.2412 1.60096,-0.88222 1.63666,-0.85713 0.3811,0.26778 -1.31864,1.18145 -2.14755,1.55716 -2.14755,0.97342 z m 115.4801,-1.32804 -1.92289,-1.59583 2.27114,1.35112 c 2.13432,1.26973 2.73067,1.84053 1.92289,1.84053 -0.19154,0 -1.21355,-0.71812 -2.27114,-1.59582 z m -300.12013,-19.38633 c 0.0484,-0.82624 0.28762,-0.9943 0.60984,-0.42851 0.29159,0.512 0.25573,1.12373 -0.0797,1.35941 -0.33541,0.23568 -0.57398,-0.18322 -0.53015,-0.9309 z m 134.04141,-1.53672 c -1.25556,-1.12492 -1.21986,-1.15 0.3811,-0.26778 1.6814,0.92655 2.21611,1.50898 1.38534,1.50898 -0.2096,0 -1.0045,-0.55854 -1.76644,-1.2412 z"
       id="path102" /><path
       style="fill:#f1575d"
       d="m 134.54269,-102.72087 c 0.69396,-0.19676 1.82953,-0.19676 2.52349,0 0.69396,0.19675 0.12618,0.35774 -1.26174,0.35774 -1.38793,0 -1.95571,-0.16099 -1.26175,-0.35774 z m 26.2561,-0.0319 c 1.2556,-0.16965 3.07252,-0.16321 4.03759,0.0143 0.96507,0.17752 -0.0622,0.31632 -2.28291,0.30845 -2.22068,-0.008 -3.01028,-0.15312 -1.75468,-0.32276 z m 21.24866,-0.69213 c 0.72866,-0.20489 1.59927,-0.17969 1.93468,0.056 0.33542,0.23568 -0.26076,0.40331 -1.32483,0.37251 -1.17589,-0.034 -1.41508,-0.20209 -0.60985,-0.4285 z m 231.15201,-24.82396 c 0.72866,-0.20488 1.59926,-0.17968 1.93468,0.056 0.33541,0.23568 -0.26077,0.40331 -1.32484,0.37251 -1.17589,-0.034 -1.41507,-0.20209 -0.60984,-0.42851 z m 24.66715,-0.71366 c 0.97154,-0.17839 2.56134,-0.17839 3.53289,0 0.97154,0.1784 0.17664,0.32436 -1.76645,0.32436 -1.94309,0 -2.73799,-0.14596 -1.76644,-0.32436 z m -105.41894,-29.78433 c 0.72865,-0.20489 1.59926,-0.17969 1.93467,0.056 0.33542,0.23568 -0.26076,0.40331 -1.32483,0.37251 -1.17589,-0.034 -1.41507,-0.20209 -0.60984,-0.4285 z m 66.20122,-10.86359 c 0,-5.65632 0.15676,-7.97027 0.34835,-5.14211 0.1916,2.82816 0.1916,7.45605 0,10.28421 -0.19159,2.82816 -0.34835,0.51421 -0.34835,-5.1421 z m 20.18508,-0.35463 c 0.002,-5.46127 0.16003,-7.60167 0.35211,-4.75645 0.19209,2.84523 0.1908,7.31354 -0.003,9.92958 -0.19366,2.61605 -0.35082,0.28814 -0.34925,-5.17313 z m -90.48698,-0.1151 c 0.69396,-0.19676 1.82953,-0.19676 2.52349,0 0.69396,0.19676 0.12618,0.35774 -1.26174,0.35774 -1.38793,0 -1.95571,-0.16098 -1.26175,-0.35774 z m -195.76001,-1.43329 c 0.72866,-0.20488 1.59926,-0.17968 1.93468,0.056 0.33541,0.23568 -0.26076,0.40331 -1.32483,0.37251 -1.1759,-0.034 -1.41508,-0.20209 -0.60985,-0.42851 z m 362.37367,0 c 0.72865,-0.20488 1.59926,-0.17968 1.93467,0.056 0.33542,0.23568 -0.26076,0.40331 -1.32483,0.37251 -1.17589,-0.034 -1.41507,-0.20209 -0.60984,-0.42851 z m -354.10923,-1.91105 c 0,-0.14728 0.7949,-0.70582 1.76645,-1.24119 1.60096,-0.88223 1.63666,-0.85714 0.3811,0.26778 -1.31865,1.18144 -2.14755,1.55716 -2.14755,0.97341 z m 220.28282,-2.56924 c 0,-1.36531 0.20773,-1.92385 0.46162,-1.24119 0.25389,0.68266 0.25389,1.79973 0,2.48239 -0.25389,0.68266 -0.46162,0.12412 -0.46162,-1.2412 z m -314.883367,0.89631 c 2.653802,-0.14659 6.741861,-0.14482 9.084576,0.004 2.342716,0.14875 0.171423,0.26868 -4.825094,0.26652 -4.996517,-0.002 -6.913284,-0.12386 -4.259482,-0.27045 z m 529.933637,0 c 2.6538,-0.14659 6.74186,-0.14482 9.08457,0.004 2.34272,0.14875 0.17142,0.26868 -4.82509,0.26652 -4.99652,-0.002 -6.91329,-0.12386 -4.25948,-0.27045 z m -406.99027,-7.69334 c 0.0484,-0.82624 0.28762,-0.99431 0.60984,-0.42851 0.29159,0.512 0.25573,1.12373 -0.0797,1.35941 -0.33541,0.23568 -0.57398,-0.18323 -0.53015,-0.9309 z m 362.45335,-0.29552 c 0,-0.97523 0.22911,-1.37419 0.50913,-0.88657 0.28002,0.48761 0.28002,1.28552 0,1.77314 -0.28002,0.48761 -0.50913,0.0887 -0.50913,-0.88657 z m -412.72799,-2.12777 c 0,-1.75541 0.19685,-2.47353 0.43744,-1.59583 0.2406,0.87771 0.2406,2.31395 0,3.19165 -0.24059,0.87771 -0.43744,0.15959 -0.43744,-1.59582 z m 362.17843,1.71403 c 0.0484,-0.82624 0.28762,-0.9943 0.60985,-0.4285 0.29158,0.51199 0.25572,1.12372 -0.0797,1.3594 -0.33542,0.23568 -0.57399,-0.18322 -0.53016,-0.9309 z m 50.46987,-2.83702 c 0.0484,-0.82624 0.28762,-0.9943 0.60985,-0.42851 0.29158,0.512 0.25572,1.12373 -0.0797,1.35941 -0.33542,0.23568 -0.57399,-0.18323 -0.53016,-0.9309 z m -362.37366,-0.70925 c 0.0484,-0.82625 0.28762,-0.99431 0.60984,-0.42851 0.29159,0.51199 0.25573,1.12372 -0.0797,1.3594 -0.33541,0.23568 -0.57398,-0.18322 -0.53015,-0.93089 z m 229.26928,-14.27933 -0.21576,-8.66439 -10.85102,-0.22799 -10.85103,-0.22799 10.88271,-0.15064 c 8.20235,-0.11353 11.00778,0.0784 11.39056,0.77931 0.27932,0.51146 0.36216,4.58082 0.18408,9.04301 l -0.32377,8.11307 z m 20.42826,-0.37748 0.0486,-8.68953 11.3576,-0.0365 11.35759,-0.0365 -11.07444,0.23683 -11.07444,0.23684 -0.33177,8.48919 -0.33178,8.48919 z m -71.65395,6.75151 c 6.35466,-0.1561 10.3787,-0.56342 10.92786,-1.10613 0.61998,-0.61269 0.75135,-0.55395 0.45809,0.20483 -0.33065,0.85554 -2.47074,1.07216 -10.92787,1.10614 l -10.51669,0.0422 z m -224.55556,-0.45982 c 0,-0.14729 0.7949,-0.70582 1.76644,-1.2412 1.60096,-0.88222 1.63667,-0.85714 0.38111,0.26778 -1.31865,1.18144 -2.14755,1.55716 -2.14755,0.97342 z m -93.62161,-15.15534 c 5.412894,-0.12753 14.270356,-0.12753 19.68325,0 5.412893,0.12753 0.984162,0.23187 -9.841625,0.23187 -10.825787,0 -15.254518,-0.10434 -9.841625,-0.23187 z m 163.52238,0.005 c 3.19222,-0.14076 8.41585,-0.14076 11.60807,0 3.19222,0.14075 0.5804,0.25591 -5.80404,0.25591 -6.38443,0 -8.99625,-0.11516 -5.80403,-0.25591 z m 71.66721,0 c 3.19222,-0.14076 8.41585,-0.14076 11.60807,0 3.19222,0.14075 0.58041,0.25591 -5.80403,0.25591 -6.38444,0 -8.99626,-0.11516 -5.80404,-0.25591 z m 294.74404,-0.005 c 5.4129,-0.12753 14.27036,-0.12753 19.68325,0 5.4129,0.12753 0.98416,0.23187 -9.84162,0.23187 -10.82579,0 -15.25452,-0.10434 -9.84163,-0.23187 z"
       id="path101" /><path
       style="fill:#ed2a32"
       d="m 138.58028,-102.72087 c 0.69396,-0.19676 1.82953,-0.19676 2.52349,0 0.69396,0.19675 0.12618,0.35774 -1.26175,0.35774 -1.38792,0 -1.9557,-0.16099 -1.26174,-0.35774 z m 17.15975,0 c 0.69396,-0.19676 1.82954,-0.19676 2.5235,0 0.69396,0.19675 0.12617,0.35774 -1.26175,0.35774 -1.38792,0 -1.95571,-0.16099 -1.26175,-0.35774 z m 277.0988,-26.26425 c 0.98211,-0.17982 2.3448,-0.168 3.02819,0.0263 0.6834,0.19429 -0.12015,0.34142 -1.78565,0.32696 -1.66551,-0.0145 -2.22465,-0.17341 -1.24254,-0.35324 z m 11.10337,0 c 0.98211,-0.17982 2.3448,-0.168 3.02819,0.0263 0.6834,0.19429 -0.12015,0.34142 -1.78565,0.32696 -1.66551,-0.0145 -2.22465,-0.17341 -1.24254,-0.35324 z M 19.169974,-184.87944 c -3.29e-4,-14.04327 0.134494,-19.88876 0.299606,-12.99 0.165112,6.89877 0.165381,18.38871 5.97e-4,25.53321 -0.164783,7.1445 -0.299874,1.50005 -0.300203,-12.54321 z m 529.933636,0 c -3.3e-4,-14.04327 0.13449,-19.88876 0.2996,-12.99 0.16511,6.89877 0.16538,18.38871 6e-4,25.53321 -0.16478,7.1445 -0.29987,1.50005 -0.3002,-12.54321 z m -390.58773,19.50453 c 1.00484,-0.78018 2.0541,-1.41851 2.33168,-1.41851 0.27758,0 -0.31744,0.63833 -1.32229,1.41851 -1.00484,0.78018 -2.05409,1.41851 -2.33168,1.41851 -0.27758,0 0.31745,-0.63833 1.32229,-1.41851 z m 362.37366,0 c 1.00484,-0.78018 2.0541,-1.41851 2.33168,-1.41851 0.27759,0 -0.31744,0.63833 -1.32228,1.41851 -1.00484,0.78018 -2.0541,1.41851 -2.33168,1.41851 -0.27759,0 0.31744,-0.63833 1.32228,-1.41851 z m -39.71182,-20.56842 c 0,-0.97522 0.22911,-1.37418 0.50913,-0.88657 0.28002,0.48762 0.28002,1.28553 0,1.77314 -0.28002,0.48762 -0.50913,0.0887 -0.50913,-0.88657 z m -129.491,-20.3911 c -1.25556,-1.12492 -1.21985,-1.15001 0.38111,-0.26778 0.97154,0.53537 1.76644,1.09391 1.76644,1.24119 0,0.58375 -0.8289,0.20803 -2.14755,-0.97341 z"
       id="path100" /><path
       style="fill:#ed1b23"
       d="m 626.37157,-103.45459 c -13.76913,-3.67488 -61.36935,-12.27384 -101.14212,-18.27129 -40.10718,-6.04788 -71.12264,-8.05253 -104.58953,-6.76003 -30.76285,1.18807 -57.87517,4.10307 -154.62322,16.62444 -47.0695,6.09185 -66.73061,7.88334 -97.27328,8.8634 -59.76175,1.91764 -120.839382,-5.6487 -165.4223931,-20.49263 l -6.8134324,-2.26853 v -51.36972 -51.36972 H 315.98187 635.45615 v 63.47839 c 0,50.35297 -0.2609,63.46168 -1.26175,63.39759 -0.69396,-0.0444 -4.21423,-0.86879 -7.82283,-1.8319 z m -482.96636,-55.92699 c 14.18909,-2.59685 22.98403,-9.57047 25.84905,-20.49603 3.23749,-12.34594 -5.34917,-24.99004 -20.15034,-29.67196 -7.20357,-2.27865 -22.03552,-2.55292 -29.61236,-0.5476 -15.76347,4.17203 -23.987703,14.00155 -22.810267,27.2626 1.55875,17.55568 22.236177,27.93468 46.723917,23.45299 z m -16.83796,-13.45484 c -6.2555,-2.38761 -9.31273,-13.94959 -5.27104,-19.93425 3.43013,-5.0791 10.73304,-7.08686 17.19999,-4.72872 10.02747,3.65646 11.39565,18.51411 2.20525,23.94787 -3.5024,2.07077 -9.75372,2.38705 -14.1342,0.7151 z m 212.32873,13.75743 c 9.86765,-1.46961 16.65976,-4.57703 19.96255,-9.13294 5.60903,-7.73718 2.06457,-16.53771 -8.1564,-20.25156 -1.51259,-0.54961 -7.8994,-1.98106 -14.19292,-3.18101 -15.75234,-3.0034 -19.04312,-4.77069 -13.74166,-7.37984 4.7174,-2.3217 13.90697,-0.20526 13.90697,3.20291 0,1.26736 0.81287,1.36703 11.14911,1.36703 h 11.14911 l -0.65193,-2.6597 c -1.20426,-4.91304 -4.47998,-8.71671 -9.3918,-10.90546 -6.24934,-2.78476 -10.19753,-3.44836 -20.54416,-3.45302 -11.2302,-0.005 -18.31648,1.72705 -23.47294,5.7375 -4.67255,3.63409 -5.58596,5.40073 -5.58132,10.79491 0.007,8.04214 4.48174,10.87803 23.71706,15.03054 15.60564,3.36894 18.21326,4.92878 13.62687,8.15142 -4.50331,3.16426 -16.51623,1.06672 -17.34454,-3.02847 -0.30643,-1.51503 -0.79852,-1.59015 -11.67564,-1.78224 l -11.35572,-0.20054 v 2.17378 c 0,4.5602 4.78149,9.79589 11.6902,12.80066 7.18439,3.12467 20.37832,4.28411 30.90716,2.71603 z m 166.88289,-0.30259 c 14.13129,-2.58627 22.9854,-9.57569 25.819,-20.38144 2.3853,-9.09616 -2.21125,-19.75108 -10.96715,-25.42212 -7.45425,-4.82799 -12.1189,-5.93677 -24.97611,-5.93677 -9.8517,0 -11.72921,0.20743 -16.65506,1.84004 -7.03536,2.33179 -13.28248,6.7302 -16.86442,11.87374 -2.5611,3.67766 -2.79873,4.70778 -2.80834,12.17406 -0.009,7.33919 0.25603,8.55583 2.64944,12.14247 7.84633,11.75808 25.04867,17.14233 43.80264,13.71002 z m -16.83796,-13.45484 c -4.28779,-1.63658 -6.91317,-6.32175 -6.91317,-12.33708 0,-7.85513 3.84104,-12.20476 11.69154,-13.2396 7.84173,-1.03368 14.2767,3.84706 15.26477,11.57789 0.69296,5.42182 -1.12509,9.83508 -5.24376,12.72908 -2.77982,1.95324 -4.07961,2.34315 -7.73239,2.31952 -2.41499,-0.0156 -5.59513,-0.48803 -7.06699,-1.04981 z m -447.010433,5.77948 v -7.35608 l 10.851022,-0.33045 c 12.999469,-0.39588 19.730819,-2.11617 24.907145,-6.36537 9.183659,-7.53879 6.715864,-20.51466 -4.995427,-26.26639 -5.700844,-2.79983 -12.636249,-3.45129 -34.394773,-3.23078 l -19.079408,0.19336 -0.2651,25.35589 -0.265099,25.3559 h 11.62082 11.62082 z m 0,-25.37104 v -5.06613 l 8.112146,0.39068 c 4.461681,0.21488 8.776855,0.77832 9.589276,1.25208 0.837878,0.48861 1.477129,2.06723 1.477129,3.64776 0,2.5091 -0.348322,2.88863 -3.500471,3.81406 -1.925258,0.56523 -6.240432,1.02769 -9.589275,1.02769 h -6.088805 z m 199.860683,25.98919 v -6.73793 H 225.6408 209.49044 V -191.972 -210.76728 H 198.38707 187.2837 v 25.53321 25.53321 h 27.25373 27.25373 z m 39.3665,-18.79528 v -25.53321 h -11.10337 -11.10337 v 25.53321 25.53321 h 11.10337 11.10337 z m 118.0995,15.60363 v -9.92958 h 9.58927 9.58928 v 9.92958 9.92958 h 11.60807 11.60807 v -25.53321 -25.53321 h -11.60807 -11.60807 v 8.8657 8.8657 h -9.58928 -9.58927 v -8.8657 -8.8657 h -11.60807 -11.60807 v 25.53321 25.53321 h 11.60807 11.60807 z m 172.60695,2.5735 v -7.35608 l 10.85102,-0.33045 c 12.99947,-0.39588 19.73082,-2.11617 24.90715,-6.36537 8.38797,-6.88562 7.07221,-19.30281 -2.65614,-25.06654 -6.70023,-3.96966 -8.44282,-4.19157 -33.10203,-4.21536 l -22.71144,-0.0219 -0.2651,25.35589 -0.2651,25.3559 h 11.62082 11.62082 z m 0,-25.29594 v -5.14123 l 8.20492,0.39515 c 9.28169,0.44702 11.33388,1.33395 11.19213,4.83711 -0.1464,3.61799 -2.24179,4.5028 -11.3518,4.79349 l -8.04525,0.25672 z"
       id="path99" /></g></svg>
