<?xml version="1.0" encoding="UTF-8" standalone="no"?>
<svg
   height="476.77899"
   viewBox="0 0 640.2 126.2"
   width="2419.4851"
   version="1.1"
   id="svg14"
   sodipodi:docname="aliexpress.svg"
   xml:space="preserve"
   inkscape:export-filename="netshoes.svg"
   inkscape:export-xdpi="96"
   inkscape:export-ydpi="96"
   xmlns:inkscape="http://www.inkscape.org/namespaces/inkscape"
   xmlns:sodipodi="http://sodipodi.sourceforge.net/DTD/sodipodi-0.dtd"
   xmlns="http://www.w3.org/2000/svg"
   xmlns:svg="http://www.w3.org/2000/svg"><defs
     id="defs14" /><sodipodi:namedview
     id="namedview14"
     pagecolor="#ffffff"
     bordercolor="#000000"
     borderopacity="0.25"
     inkscape:showpageshadow="2"
     inkscape:pageopacity="0.0"
     inkscape:pagecheckerboard="0"
     inkscape:deskcolor="#d1d1d1" /><g
     id="g98"
     transform="matrix(1.9194861,0,0,2.2651292,-31.98268,654.26234)"><path
       style="fill:#ffffff;fill-opacity:1;stroke-width:2.50665"
       d="m 72.480096,-240.08544 c -4.207978,-1.13311 -9.154265,-3.51884 -9.154265,-4.41535 0,-0.34031 1.253485,-1.61153 2.785522,-2.82493 l 2.785519,-2.20617 3.287634,1.4143 c 8.772753,3.77394 18.463889,1.71303 17.120173,-3.64076 -0.51424,-2.04889 -2.44343,-3.13829 -10.617654,-5.99572 -11.279479,-3.94292 -14.662767,-6.96774 -14.667759,-13.11368 -0.0034,-4.1881 2.115393,-7.28292 6.545317,-9.56043 3.105782,-1.59674 4.210461,-1.76763 11.39907,-1.76338 6.882136,0.004 8.45114,0.22608 11.586983,1.63949 1.994839,0.89913 3.626978,1.88316 3.626978,2.18673 0,0.30357 -1.268617,1.63784 -2.819149,2.96503 l -2.819148,2.41309 -2.880388,-1.3078 c -1.830319,-0.83103 -4.46593,-1.31333 -7.229617,-1.32298 -3.707982,-0.0129 -4.59925,0.23485 -6.04496,1.68056 -0.932651,0.93265 -1.695729,2.15076 -1.695729,2.70691 0,3.19606 1.818088,4.39028 11.377471,7.47334 10.488159,3.3826 14.176508,6.81194 14.181495,13.18561 0.0024,2.98089 -0.291633,3.59395 -3.042324,6.34464 -2.115262,2.11526 -4.157341,3.37527 -6.688493,4.12694 -4.451496,1.32195 -12.157023,1.32853 -17.036676,0.0145 z"
       id="path94" /><path
       style="fill:#ffffff;fill-opacity:1;stroke-width:2.50665"
       d="m 180.07994,-261.12526 v -20.72558 h 17.27132 17.27132 v 2.76341 2.76341 h -12.43535 -12.43535 v 5.52682 5.52682 h 12.08992 12.08993 v 3.10884 3.10884 H 201.8418 189.75188 v 6.21767 6.21768 h 12.43535 12.43535 v 3.10883 3.10884 h -17.27132 -17.27132 z"
       id="path95" /><path
       style="fill:#ffffff;fill-opacity:1;stroke-width:2.50665"
       d="m 233.96644,-261.12526 v -20.72558 h 4.83599 4.83597 v 20.72558 20.72558 h -4.83597 -4.83599 z"
       id="path96" /><path
       style="fill:#ffffff;fill-opacity:1;stroke-width:2.50665"
       d="m 288.54381,-249.80219 c -6.64946,-5.51568 -12.63395,-10.33072 -13.29891,-10.70009 -1.1276,-0.62638 -1.20899,0.0277 -1.20899,9.7155 v 10.3871 h -4.49054 -4.49054 v -21.115 -21.11501 l 6.7358,5.53852 c 3.70469,3.04619 9.57193,7.87244 13.03827,10.72501 3.46636,2.85256 6.49746,4.99146 6.73582,4.75312 0.23836,-0.23835 0.43336,-4.88936 0.43336,-10.33558 v -9.90222 h 4.49054 4.49054 v 21.071 c 0,11.58906 -0.0777,21.05642 -0.17271,21.03858 -0.095,-0.0178 -5.61319,-4.54525 -12.26264,-10.06093 z"
       id="path97" /><path
       style="fill:#ffffff;fill-opacity:1;stroke-width:0.886237"
       d="m 117.93997,-261.08469 v -21.12792 h 4.84554 4.84553 l 0.15925,8.34292 c 0.0876,4.5886 0.18782,8.36728 0.22273,8.39706 0.0349,0.0298 4.81725,0.13363 10.62742,0.23077 l 10.56396,0.17662 v -8.57368 -8.57369 h 5.00719 5.0072 v 21.12792 21.12791 h -5.0072 -5.00719 v -9.40376 -9.40375 h -10.58632 -10.58631 l -0.16083,4.80222 c -0.0885,2.64122 -0.16083,6.87291 -0.16083,9.40375 v 4.60154 h -4.88507 -4.88507 z"
       id="path98" /></g></svg>
