<?xml version="1.0" encoding="UTF-8" standalone="no"?>
<svg
   height="476.77899"
   viewBox="0 0 640.2 126.2"
   width="2419.4851"
   version="1.1"
   id="svg14"
   sodipodi:docname="aliexpress.svg"
   xml:space="preserve"
   inkscape:export-filename="carrefour.svg"
   inkscape:export-xdpi="96"
   inkscape:export-ydpi="96"
   xmlns:inkscape="http://www.inkscape.org/namespaces/inkscape"
   xmlns:sodipodi="http://sodipodi.sourceforge.net/DTD/sodipodi-0.dtd"
   xmlns="http://www.w3.org/2000/svg"
   xmlns:svg="http://www.w3.org/2000/svg"><defs
     id="defs14" /><sodipodi:namedview
     id="namedview14"
     pagecolor="#ffffff"
     bordercolor="#000000"
     borderopacity="0.25"
     inkscape:showpageshadow="2"
     inkscape:pageopacity="0.0"
     inkscape:pagecheckerboard="0"
     inkscape:deskcolor="#d1d1d1" /><g
     id="g67"
     transform="matrix(0.85964935,0,0,0.8618184,31.933899,212.52341)"><path
       style="fill:#fad2ca"
       d="m 13.75776,-120.66643 c 0,-0.60574 0.144315,-0.85354 0.320699,-0.55067 0.176385,0.30287 0.176385,0.79847 0,1.10134 -0.176384,0.30286 -0.320699,0.0551 -0.320699,-0.55067 z m 158.90503,-6.42448 c 0.0305,-0.51319 0.18118,-0.61758 0.38415,-0.26615 0.18367,0.31801 0.16108,0.69797 -0.0502,0.84436 -0.21128,0.14638 -0.36155,-0.11381 -0.33395,-0.57821 z m 315.95281,-0.79041 c 0,-0.0915 0.50071,-0.43841 1.11268,-0.77094 1.00845,-0.54797 1.03094,-0.53239 0.24006,0.16633 -0.83062,0.73382 -1.35274,0.96718 -1.35274,0.60461 z m -74.39105,-0.8526 c 0,-0.0758 0.92989,-0.72009 2.06642,-1.43174 l 2.06641,-1.29389 -1.86746,1.43174 c -1.74074,1.33458 -2.26537,1.63423 -2.26537,1.29389 z m -401.102611,-1.62429 c 0,-0.60574 0.144315,-0.85354 0.320699,-0.55067 0.176385,0.30287 0.176385,0.79847 0,1.10134 -0.176384,0.30287 -0.320699,0.0551 -0.320699,-0.55067 z m 478.036941,0.71474 c 0,-0.0915 0.50071,-0.4384 1.11269,-0.77093 1.00844,-0.54797 1.03093,-0.53239 0.24005,0.16632 -0.83061,0.73383 -1.35274,0.96719 -1.35274,0.60461 z m -23.68433,-1.0065 c 0.43713,-0.12221 1.15243,-0.12221 1.58955,0 0.43713,0.12221 0.0795,0.2222 -0.79477,0.2222 -0.87426,0 -1.23191,-0.1 -0.79478,-0.2222 z m 75.06661,-0.44971 c 0.45898,-0.12726 1.00738,-0.11161 1.21866,0.0348 0.21127,0.14638 -0.16426,0.2505 -0.83452,0.23138 -0.74069,-0.0211 -0.89136,-0.12553 -0.38414,-0.26616 z m 72.48358,0 c 0.45899,-0.12726 1.00738,-0.11161 1.21866,0.0348 0.21128,0.14638 -0.16425,0.2505 -0.83451,0.23138 -0.7407,-0.0211 -0.89136,-0.12553 -0.38415,-0.26616 z m 3.81493,0 c 0.45898,-0.12726 1.00738,-0.11161 1.21866,0.0348 0.21127,0.14638 -0.16426,0.2505 -0.83452,0.23138 -0.74069,-0.0211 -0.89136,-0.12553 -0.38414,-0.26616 z m -354.03304,-3.38967 c 0,-0.0915 0.50071,-0.4384 1.11269,-0.77094 1.00845,-0.54797 1.03093,-0.53239 0.24006,0.16633 -0.83062,0.73382 -1.35275,0.96718 -1.35275,0.60461 z m -154.50448,-0.88107 c 0,-0.0915 0.50071,-0.43841 1.11268,-0.77094 1.00845,-0.54797 1.03094,-0.53239 0.24006,0.16633 -0.83062,0.73382 -1.35274,0.96718 -1.35274,0.60461 z m 62.99647,-0.53119 c 0.0305,-0.5132 0.18117,-0.61759 0.38414,-0.26616 0.18367,0.31801 0.16108,0.69797 -0.0502,0.84436 -0.21128,0.14639 -0.36155,-0.1138 -0.33394,-0.5782 z m -160.862698,-4.40536 c 0.03051,-0.51319 0.181171,-0.61758 0.384142,-0.26615 0.18367,0.31801 0.161081,0.69797 -0.0502,0.84436 -0.211278,0.14638 -0.361553,-0.11381 -0.333945,-0.57821 z M 124.3906,-144.0148 c 0,-0.60574 0.14432,-0.85354 0.3207,-0.55067 0.17638,0.30287 0.17638,0.79847 0,1.10134 -0.17638,0.30286 -0.3207,0.0551 -0.3207,-0.55067 z m 49.59403,-0.88107 c 0,-0.60574 0.14432,-0.85354 0.3207,-0.55067 0.17639,0.30286 0.17639,0.79847 0,1.10133 -0.17638,0.30287 -0.3207,0.0551 -0.3207,-0.55066 z m -162.184529,-5.10287 c 0.03051,-0.5132 0.181171,-0.61759 0.384142,-0.26616 0.18367,0.31801 0.161081,0.69797 -0.0502,0.84436 -0.211278,0.14639 -0.361553,-0.1138 -0.333945,-0.5782 z m 106.083779,-4.47878 -1.54143,-1.21147 1.7485,1.068 c 1.63425,0.9982 2.04009,1.35494 1.54143,1.35494 -0.11389,0 -0.90072,-0.54516 -1.7485,-1.21147 z m 56.68638,0.51396 c 0.0305,-0.5132 0.18117,-0.61759 0.38414,-0.26616 0.18367,0.31802 0.16108,0.69798 -0.0502,0.84436 -0.21128,0.14639 -0.36155,-0.1138 -0.33394,-0.5782 z m 232.91776,-1.17476 -1.21123,-0.9912 1.43059,0.83921 c 1.34441,0.78865 1.72005,1.14319 1.21124,1.14319 -0.12066,0 -0.76442,-0.44604 -1.4306,-0.9912 z m 120.23056,-0.3304 c 0.63295,-0.48459 1.29388,-0.88107 1.46873,-0.88107 0.17485,0 -0.19995,0.39648 -0.83291,0.88107 -0.63295,0.48459 -1.29388,0.88107 -1.46873,0.88107 -0.17485,0 0.19996,-0.39648 0.83291,-0.88107 z m -516.5543,-4.2218 c 0.03051,-0.5132 0.181171,-0.61758 0.384142,-0.26616 0.18367,0.31802 0.161081,0.69798 -0.0502,0.84436 -0.211278,0.14639 -0.361553,-0.1138 -0.333945,-0.5782 z m 551.15842,-1.39503 -1.54143,-1.21147 1.74851,1.068 c 0.96168,0.58739 1.74851,1.13256 1.74851,1.21147 0,0.3455 -0.51489,0.0643 -1.95559,-1.068 z m -387.11662,-1.68872 c 0.0305,-0.51319 0.18117,-0.61758 0.38414,-0.26615 0.18367,0.31801 0.16108,0.69797 -0.0502,0.84436 -0.21127,0.14638 -0.36155,-0.11381 -0.33394,-0.57821 z m 46.95243,-0.95449 -1.54143,-1.21147 1.74851,1.06799 c 1.63424,0.99821 2.04008,1.35495 1.54142,1.35495 -0.11389,0 -0.90072,-0.54516 -1.7485,-1.21147 z m -151.655581,-1.54187 -1.211231,-0.99121 1.430597,0.83922 c 1.344408,0.78865 1.720049,1.14319 1.211231,1.14319 -0.120651,0 -0.76442,-0.44604 -1.430597,-0.9912 z m 6.99403,-3.96482 -1.211231,-0.9912 1.430597,0.83921 c 1.344408,0.78865 1.720049,1.14319 1.211231,1.14319 -0.120651,0 -0.76442,-0.44604 -1.430597,-0.9912 z m -66.9685,-0.14685 c 0.03051,-0.51319 0.181171,-0.61758 0.384142,-0.26615 0.18367,0.31801 0.161081,0.69797 -0.0502,0.84436 -0.211278,0.14638 -0.361553,-0.11381 -0.333945,-0.57821 z m 165.313441,-2.20267 c 0.0305,-0.5132 0.18117,-0.61759 0.38414,-0.26616 0.18367,0.31801 0.16108,0.69797 -0.0502,0.84436 -0.21127,0.14639 -0.36155,-0.1138 -0.33394,-0.5782 z m -165.9492619,-7.4891 c 0.030509,-0.5132 0.1811709,-0.61759 0.3841419,-0.26616 0.18367,0.31801 0.161081,0.69797 -0.0502,0.84436 -0.211278,0.14639 -0.361553,-0.1138 -0.3339449,-0.5782 z m 166.5850819,-1.76214 c 0.0305,-0.5132 0.18117,-0.61759 0.38414,-0.26616 0.18367,0.31801 0.16108,0.69797 -0.0502,0.84436 -0.21128,0.14639 -0.36156,-0.11381 -0.33395,-0.5782 z m 69.13507,-4.88985 c 0.45898,-0.12726 1.00738,-0.11161 1.21865,0.0348 0.21128,0.14639 -0.16425,0.25051 -0.83451,0.23138 -0.7407,-0.0211 -0.89136,-0.12553 -0.38414,-0.26616 z M 9.2568171,-188.76585 c 0.030509,-0.5132 0.181171,-0.61758 0.3841418,-0.26616 0.18367,0.31802 0.1610817,0.69798 -0.050196,0.84436 -0.211278,0.14639 -0.3615535,-0.1138 -0.3339458,-0.5782 z m 167.8567229,-0.88107 c 0.0305,-0.5132 0.18117,-0.61759 0.38414,-0.26616 0.18367,0.31802 0.16108,0.69798 -0.0502,0.84436 -0.21128,0.14639 -0.36156,-0.1138 -0.33395,-0.5782 z m -86.044975,-2.69713 c 0.786828,-0.10501 2.074365,-0.10501 2.861194,0 0.786828,0.105 0.143059,0.19091 -1.430597,0.19091 -1.573657,0 -2.217426,-0.0859 -1.430597,-0.19091 z m -82.4475688,-6.11358 c 0.030509,-0.51319 0.181171,-0.61758 0.3841418,-0.26615 0.18367,0.31801 0.1610816,0.69797 -0.050196,0.84436 -0.211278,0.14638 -0.3615534,-0.11381 -0.3339458,-0.57821 z m 169.1283638,0 c 0.0305,-0.51319 0.18117,-0.61758 0.38414,-0.26615 0.18367,0.31801 0.16109,0.69797 -0.0502,0.84436 -0.21128,0.14638 -0.36156,-0.11381 -0.33395,-0.57821 z M 31.110711,-209.10057 c 14.718974,-0.0946 19.819102,-0.2636 20.23572,-0.67062 0.406705,-0.39734 0.486812,-0.36587 0.296875,0.11663 -0.224093,0.56926 -3.027254,0.66216 -20.23572,0.67062 l -19.975592,0.01 z m 47.285392,-0.003 c 8.504437,-0.0694 22.238167,-0.0694 30.519407,1.6e-4 8.28123,0.0695 1.32306,0.12632 -15.462617,0.12624 -16.785672,-9e-5 -23.561228,-0.057 -15.05679,-0.1264 z m 67.035147,5.3e-4 c 5.5078,-0.0733 14.52056,-0.0733 20.02836,0 5.5078,0.0733 1.00142,0.13335 -10.01418,0.13335 -11.01559,0 -15.52198,-0.06 -10.01418,-0.13335 z"
       id="path73" /><path
       style="fill:#f9c5b9"
       d="m 340.11119,-135.2041 c 0,-6.4208 0.0889,-9.04749 0.19752,-5.83709 0.10864,3.2104 0.10864,8.46378 0,11.67419 -0.10864,3.2104 -0.19752,0.5837 -0.19752,-5.8371 z m -223.45083,4.23903 c 0,-0.0915 0.50071,-0.4384 1.11268,-0.77094 1.00845,-0.54797 1.03094,-0.53238 0.24006,0.16633 -0.83062,0.73382 -1.35274,0.96718 -1.35274,0.60461 z m 275.78732,-0.12543 c 0.43713,-0.12221 1.15243,-0.12221 1.58955,0 0.43713,0.12221 0.0795,0.2222 -0.79477,0.2222 -0.87426,0 -1.2319,-0.1 -0.79478,-0.2222 z m -379.375937,-0.84629 c 0.03051,-0.5132 0.181171,-0.61759 0.384141,-0.26616 0.18367,0.31801 0.161082,0.69797 -0.0502,0.84436 -0.211278,0.14638 -0.361553,-0.11381 -0.333945,-0.5782 z m 394.158777,-2.9931 c 0,-0.0915 0.50071,-0.4384 1.11269,-0.77094 1.00844,-0.54796 1.03093,-0.53238 0.24005,0.16633 -0.83061,0.73382 -1.35274,0.96719 -1.35274,0.60461 z m -233.9319,-2.29333 c 0.0305,-0.5132 0.18117,-0.61758 0.38414,-0.26615 0.18367,0.31801 0.16108,0.69797 -0.0502,0.84435 -0.21128,0.14639 -0.36155,-0.1138 -0.33394,-0.5782 z m -160.862698,-4.40535 c 0.03051,-0.5132 0.181171,-0.61759 0.384142,-0.26616 0.18367,0.31801 0.161081,0.69798 -0.0502,0.84436 -0.211278,0.14639 -0.361553,-0.1138 -0.333945,-0.5782 z m 103.053188,-1.50516 c 0,-0.60574 0.14431,-0.85354 0.3207,-0.55067 0.17638,0.30287 0.17638,0.79847 0,1.10134 -0.17639,0.30286 -0.3207,0.0551 -0.3207,-0.55067 z m 245.37668,-3.78126 c 0.0305,-0.5132 0.18117,-0.61759 0.38414,-0.26616 0.18367,0.31801 0.16108,0.69797 -0.0502,0.84436 -0.21128,0.14638 -0.36155,-0.11381 -0.33394,-0.5782 z m -349.065689,-4.40536 c 0.03051,-0.5132 0.181171,-0.61758 0.384142,-0.26615 0.18367,0.31801 0.161081,0.69797 -0.0502,0.84435 -0.211278,0.14639 -0.361553,-0.1138 -0.333945,-0.5782 z m -0.635821,-9.69177 c 0.03051,-0.5132 0.181171,-0.61759 0.384142,-0.26616 0.18367,0.31801 0.161081,0.69797 -0.0502,0.84436 -0.211278,0.14638 -0.361553,-0.11381 -0.333945,-0.5782 z m 164.0418,-3.08375 c 0.0305,-0.5132 0.18117,-0.61759 0.38414,-0.26616 0.18367,0.31801 0.16108,0.69797 -0.0502,0.84436 -0.21127,0.14639 -0.36155,-0.1138 -0.33394,-0.5782 z M 10.528459,-170.7039 c 0.03051,-0.5132 0.181171,-0.61759 0.384142,-0.26616 0.18367,0.31801 0.161081,0.69798 -0.0502,0.84436 -0.211278,0.14639 -0.361553,-0.1138 -0.333945,-0.5782 z m 165.313441,-2.20268 c 0.0305,-0.5132 0.18117,-0.61758 0.38414,-0.26615 0.18367,0.31801 0.16108,0.69797 -0.0502,0.84435 -0.21127,0.14639 -0.36155,-0.1138 -0.33394,-0.5782 z m 39.49465,-2.16596 c 0.013,-0.72689 0.15546,-0.97091 0.31667,-0.54229 0.16121,0.42863 0.1506,1.02335 -0.0236,1.32161 -0.17417,0.29825 -0.30607,-0.0524 -0.29311,-0.77932 z M 9.8926381,-180.39568 c 0.030509,-0.5132 0.1811709,-0.61758 0.3841419,-0.26615 0.18367,0.31801 0.161081,0.69797 -0.0502,0.84435 -0.211278,0.14639 -0.361553,-0.1138 -0.3339449,-0.5782 z m 237.6276119,-5.33038 c 0.45898,-0.12726 1.00738,-0.11161 1.21866,0.0348 0.21128,0.14639 -0.16426,0.25051 -0.83452,0.23138 -0.74069,-0.0211 -0.89135,-0.12553 -0.38414,-0.26616 z M 9.2568171,-190.08745 c 0.030509,-0.5132 0.181171,-0.61759 0.3841418,-0.26616 0.18367,0.31801 0.1610817,0.69797 -0.050196,0.84436 -0.211278,0.14638 -0.3615535,-0.11381 -0.3339458,-0.5782 z m -0.6358209,-9.69178 c 0.030509,-0.5132 0.181171,-0.61759 0.3841418,-0.26616 0.18367,0.31801 0.1610816,0.69797 -0.050196,0.84436 -0.211278,0.14639 -0.3615534,-0.1138 -0.3339458,-0.5782 z m 169.1283638,0 c 0.0305,-0.5132 0.18117,-0.61759 0.38414,-0.26616 0.18367,0.31801 0.16109,0.69797 -0.0502,0.84436 -0.21128,0.14639 -0.36156,-0.1138 -0.33395,-0.5782 z m -65.28225,-27.60688 -1.21123,-0.99121 1.4306,0.83922 c 0.78682,0.46157 1.43059,0.90761 1.43059,0.9912 0,0.35254 -0.5117,0.0923 -1.64996,-0.83921 z"
       id="path72" /><path
       style="fill:#f6a998"
       d="m 436.14442,-133.44196 c 0,-18.05093 0.0786,-25.4354 0.17467,-16.40994 0.0961,9.02547 0.0961,23.79442 0,32.81988 -0.0961,9.02547 -0.17467,1.641 -0.17467,-16.40994 z m -374.959439,25.22074 c 17.572501,-0.0651 46.327499,-0.0651 63.899999,0 17.5725,0.0651 3.195,0.11838 -31.949997,0.11838 -35.145002,0 -49.522503,-0.0533 -31.950002,-0.11838 z m -47.477417,-14.90487 c 0.03051,-0.5132 0.181171,-0.61758 0.384141,-0.26615 0.18367,0.31801 0.161082,0.69797 -0.0502,0.84435 -0.211278,0.14639 -0.361553,-0.1138 -0.333945,-0.5782 z m 233.176866,0.39658 c 0.45898,-0.12726 1.00738,-0.11161 1.21866,0.0348 0.21127,0.14639 -0.16426,0.25051 -0.83452,0.23138 -0.74069,-0.0211 -0.89136,-0.12553 -0.38414,-0.26616 z m 44.92931,-35.16216 c 5e-5,-18.89896 0.0784,-26.56607 0.17406,-17.03802 0.0957,9.52805 0.0957,24.99084 -9e-5,34.36176 -0.0957,9.37091 -0.17402,1.57523 -0.17397,-17.32374 z m 11.41918,22.90784 c 3.6e-4,-6.29965 0.0897,-8.81552 0.19844,-5.59082 0.10878,3.2247 0.10848,8.37896 -6.6e-4,11.45392 -0.10915,3.07495 -0.19815,0.43655 -0.19778,-5.8631 z m -30.79644,6.66197 c 0,-0.0915 0.50071,-0.4384 1.11269,-0.77094 1.00845,-0.54797 1.03094,-0.53238 0.24006,0.16633 -0.83062,0.73382 -1.35275,0.96719 -1.35275,0.60461 z m -99.77369,-0.97172 c 0.0305,-0.5132 0.18118,-0.61759 0.38415,-0.26616 0.18367,0.31801 0.16108,0.69797 -0.0502,0.84436 -0.21128,0.14639 -0.36155,-0.1138 -0.33395,-0.5782 z m 162.00304,-25.62447 c -0.79088,-0.69872 -0.76839,-0.7143 0.24006,-0.16633 0.61198,0.33254 1.11269,0.67946 1.11269,0.77094 0,0.36257 -0.52213,0.12921 -1.35275,-0.60461 z m -160.09557,-1.24819 c 0.0305,-0.51319 0.18117,-0.61758 0.38414,-0.26615 0.18367,0.31801 0.16108,0.69797 -0.0502,0.84436 -0.21128,0.14638 -0.36155,-0.11381 -0.33394,-0.57821 z m 128.67105,-21.10898 c 2.3e-4,-8.23801 0.086,-11.54585 0.1906,-7.35076 0.10459,4.19509 0.10441,10.93528 -4.2e-4,14.9782 -0.10483,4.04292 -0.19041,0.61057 -0.19018,-7.62744 z m -239.253697,1.54187 c 0,-0.60573 0.144315,-0.85353 0.320699,-0.55067 0.176385,0.30287 0.176385,0.79848 0,1.10134 -0.176384,0.30287 -0.320699,0.0551 -0.320699,-0.55067 z M 177.11354,-191.8496 c 0.0305,-0.51319 0.18117,-0.61758 0.38414,-0.26615 0.18367,0.31801 0.16108,0.69797 -0.0502,0.84436 -0.21128,0.14638 -0.36156,-0.11381 -0.33395,-0.57821 z m 69.42534,-1.36991 c 0.61863,-0.11169 1.47699,-0.10435 1.90746,0.0163 0.43048,0.12068 -0.0757,0.21206 -1.12478,0.20309 -1.04911,-0.009 -1.40131,-0.10772 -0.78268,-0.21941 z"
       id="path71" /><path
       style="fill:#f59c89"
       d="m 248.79189,-122.72951 c 0.45899,-0.12726 1.00738,-0.11161 1.21866,0.0348 0.21128,0.14639 -0.16425,0.25051 -0.83452,0.23138 -0.74069,-0.0211 -0.89135,-0.12553 -0.38414,-0.26616 z m 46.36101,-0.017 c 1.12873,-0.0973 3.13157,-0.0989 4.45075,-0.004 1.31918,0.0954 0.39567,0.17499 -2.05224,0.17695 -2.44791,0.002 -3.52724,-0.0761 -2.39851,-0.17339 z m 48.32239,0 c 1.12873,-0.0973 3.13157,-0.0989 4.45075,-0.004 1.31918,0.0954 0.39567,0.17499 -2.05224,0.17695 -2.44791,0.002 -3.52724,-0.0761 -2.39851,-0.17339 z m 179.38691,-19.62193 c 0.26705,-0.18483 10.76786,-0.28381 23.33514,-0.21997 l 22.8496,0.1161 -23.33514,0.21996 c -12.83433,0.12098 -23.11665,0.0687 -22.8496,-0.11609 z m 83.85713,-0.21398 c 6.38206,-0.0719 16.82541,-0.0719 23.20747,0 6.38205,0.0719 1.16037,0.13065 -11.60374,0.13065 -12.7641,0 -17.98578,-0.0588 -11.60373,-0.13065 z m -95.7998,-2.57042 c 0.0305,-0.5132 0.18117,-0.61759 0.38414,-0.26616 0.18367,0.31801 0.16108,0.69797 -0.0502,0.84436 -0.21128,0.14639 -0.36155,-0.11381 -0.33394,-0.5782 z M 91.744124,-186.60713 c 0.458984,-0.12726 1.007379,-0.11161 1.218657,0.0348 0.211278,0.14639 -0.164254,0.25051 -0.834515,0.23138 -0.740695,-0.0211 -0.891357,-0.12553 -0.384142,-0.26616 z m 204.070166,-6.62636 c 1.14279,-0.0981 2.85951,-0.096 3.81492,0.004 0.95542,0.10052 0.0204,0.18074 -2.0778,0.17827 -2.09821,-0.002 -2.87991,-0.0847 -1.73712,-0.18276 z M 120.39418,-232.8928 c -0.79088,-0.69872 -0.76839,-0.7143 0.24006,-0.16633 1.05911,0.5755 1.39593,0.93726 0.87263,0.93726 -0.13204,0 -0.63274,-0.34692 -1.11269,-0.77093 z"
       id="path70" /><path
       style="fill:#f48c76"
       d="m 172.02697,-122.24502 c 0.0305,-0.5132 0.18117,-0.61758 0.38415,-0.26615 0.18367,0.31801 0.16108,0.69797 -0.0502,0.84436 -0.21128,0.14638 -0.36155,-0.11381 -0.33395,-0.57821 z m 179.52834,-12.73881 c 3.6e-4,-6.29965 0.0897,-8.81552 0.19844,-5.59082 0.10878,3.2247 0.10848,8.37896 -6.6e-4,11.45392 -0.10915,3.07495 -0.19815,0.43655 -0.19778,-5.8631 z m -178.89252,3.92811 c 0.0305,-0.5132 0.18118,-0.61759 0.38415,-0.26616 0.18367,0.31801 0.16108,0.69797 -0.0502,0.84436 -0.21128,0.14639 -0.36155,-0.11381 -0.33395,-0.5782 z m -159.591047,-3.96482 c 0.03051,-0.5132 0.181171,-0.61759 0.384141,-0.26616 0.18367,0.31801 0.161082,0.69798 -0.0502,0.84436 -0.211278,0.14639 -0.361553,-0.1138 -0.333945,-0.5782 z m 570.428687,-9.87533 c 0,-0.84803 0.13085,-1.19496 0.29077,-0.77094 0.15993,0.42401 0.15993,1.11786 0,1.54187 -0.15992,0.42402 -0.29077,0.0771 -0.29077,-0.77093 z m -571.064508,0.18355 c 0.03051,-0.5132 0.181171,-0.61758 0.384142,-0.26615 0.18367,0.31801 0.161081,0.69797 -0.0502,0.84435 -0.211278,0.14639 -0.361553,-0.1138 -0.333945,-0.5782 z m 510.930158,-5.35984 c -0.1621,-0.18173 8.09116,-0.33041 18.34056,-0.33041 10.24941,0 18.50267,0.14868 18.34057,0.33041 -0.16209,0.18172 -8.41535,0.3304 -18.34057,0.3304 -9.92521,0 -18.17847,-0.14868 -18.34056,-0.3304 z m 81.8026,7.9e-4 c 5.17949,-0.0741 13.47695,-0.074 18.4388,3.8e-4 4.96186,0.0743 0.72409,0.13499 -9.41725,0.13478 -10.14134,-2.1e-4 -14.20104,-0.061 -9.02155,-0.13516 z m -593.368579,-4.33272 c 0.03051,-0.5132 0.181171,-0.61759 0.384142,-0.26616 0.18367,0.31801 0.161081,0.69797 -0.0502,0.84436 -0.211278,0.14638 -0.361553,-0.11381 -0.333945,-0.5782 z m 296.560259,-0.6241 c 0.63296,-0.48459 1.29388,-0.88107 1.46874,-0.88107 0.17485,0 -0.19996,0.39648 -0.83291,0.88107 -0.63296,0.48459 -1.29388,0.88107 -1.46873,0.88107 -0.17486,0 0.19995,-0.39648 0.8329,-0.88107 z m 246.93533,-0.3304 c -0.79088,-0.69871 -0.76839,-0.71429 0.24006,-0.16632 1.05912,0.5755 1.39593,0.93726 0.87263,0.93726 -0.13203,0 -0.63274,-0.34692 -1.11269,-0.77094 z m -380.72543,-2.56979 c 0.0305,-0.5132 0.18117,-0.61758 0.38414,-0.26615 0.18367,0.31801 0.16108,0.69797 -0.0502,0.84436 -0.21128,0.14638 -0.36155,-0.11381 -0.33394,-0.57821 z m 146.35967,-0.92938 c 0.61863,-0.11169 1.47699,-0.10435 1.90746,0.0163 0.43047,0.12067 -0.0757,0.21206 -1.12479,0.20308 -1.0491,-0.009 -1.4013,-0.10771 -0.78267,-0.21941 z m 146.23881,-0.44053 c 0.61863,-0.1117 1.47699,-0.10435 1.90746,0.0163 0.43048,0.12068 -0.0757,0.21206 -1.12478,0.20308 -1.04911,-0.009 -1.40131,-0.10771 -0.78268,-0.2194 z m -456.00446,-4.79758 c 0.03051,-0.5132 0.181171,-0.61759 0.384142,-0.26616 0.18367,0.31801 0.161081,0.69797 -0.0502,0.84436 -0.211278,0.14639 -0.361553,-0.1138 -0.333945,-0.5782 z m 164.0418,-2.64321 c 0.0305,-0.5132 0.18117,-0.61759 0.38414,-0.26616 0.18367,0.31801 0.16108,0.69797 -0.0502,0.84436 -0.21127,0.14639 -0.36155,-0.11381 -0.33394,-0.5782 z m 291.96266,-0.0483 c 0.61863,-0.1117 1.47699,-0.10435 1.90746,0.0163 0.43048,0.12067 -0.0757,0.21206 -1.12478,0.20308 -1.04911,-0.009 -1.40131,-0.10771 -0.78268,-0.2194 z m -236.14172,-2.22779 c -0.79088,-0.69872 -0.76839,-0.7143 0.24006,-0.16633 1.05912,0.5755 1.39593,0.93726 0.87263,0.93726 -0.13203,0 -0.63274,-0.34692 -1.11269,-0.77093 z m -220.498561,-4.77247 c 0.03051,-0.5132 0.181171,-0.61758 0.384142,-0.26616 0.18367,0.31802 0.161081,0.69798 -0.0502,0.84436 -0.211278,0.14639 -0.361553,-0.1138 -0.333945,-0.5782 z m -0.6358209,-9.69178 c 0.030509,-0.51319 0.1811709,-0.61758 0.3841419,-0.26615 0.18367,0.31801 0.161081,0.69797 -0.0502,0.84436 -0.211278,0.14638 -0.361553,-0.11381 -0.3339449,-0.57821 z m 166.5850819,-1.3216 c 0.0305,-0.5132 0.18117,-0.61759 0.38414,-0.26616 0.18367,0.31801 0.16108,0.69798 -0.0502,0.84436 -0.21128,0.14639 -0.36156,-0.1138 -0.33395,-0.5782 z M 9.2568171,-193.1712 c 0.030509,-0.5132 0.181171,-0.61759 0.3841418,-0.26616 0.18367,0.31801 0.1610817,0.69797 -0.050196,0.84436 -0.211278,0.14639 -0.3615535,-0.1138 -0.3339458,-0.5782 z m 167.8567229,-0.44054 c 0.0305,-0.5132 0.18117,-0.61758 0.38414,-0.26615 0.18367,0.31801 0.16108,0.69797 -0.0502,0.84436 -0.21128,0.14638 -0.36156,-0.11381 -0.33395,-0.57821 z M 8.6209962,-202.86298 c 0.030509,-0.5132 0.181171,-0.61758 0.3841418,-0.26616 0.18367,0.31802 0.1610816,0.69798 -0.050196,0.84436 -0.211278,0.14639 -0.3615534,-0.1138 -0.3339458,-0.5782 z m 84.3947698,-30.44089 c 0.458983,-0.12726 1.007379,-0.11161 1.218657,0.0348 0.211278,0.14638 -0.164254,0.2505 -0.834515,0.23138 -0.740695,-0.0211 -0.891357,-0.12553 -0.384142,-0.26616 z"
       id="path69" /><path
       style="fill:#f16f53"
       d="m 440.14564,-100.28054 c 1.14279,-0.0981 2.85951,-0.096 3.81492,0.004 0.95542,0.10052 0.0204,0.18074 -2.0778,0.17827 -2.09821,-0.002 -2.87991,-0.0847 -1.73712,-0.18276 z m -268.11867,-23.28608 c 0.0305,-0.5132 0.18117,-0.61759 0.38415,-0.26616 0.18367,0.31801 0.16108,0.69797 -0.0502,0.84436 -0.21128,0.14639 -0.36155,-0.11381 -0.33395,-0.5782 z m 219.7923,-0.0546 c 0.79091,-0.10537 1.93539,-0.10137 2.54329,0.009 0.6079,0.11027 -0.0392,0.19648 -1.43801,0.19159 -1.39881,-0.005 -1.89618,-0.0951 -1.10528,-0.20048 z m 151.64462,-0.005 c 0.96649,-0.10126 2.39709,-0.0986 3.17911,0.006 0.78202,0.10457 -0.009,0.18741 -1.75725,0.18411 -1.74851,-0.003 -2.38834,-0.0889 -1.42186,-0.19012 z m 71.83903,5.8e-4 c 0.96167,-0.10094 2.53533,-0.10094 3.49701,0 0.96168,0.10094 0.17485,0.18352 -1.74851,0.18352 -1.92336,0 -2.71018,-0.0826 -1.7485,-0.18352 z m -601.5216,-2.98848 c 0.01296,-0.72688 0.155457,-0.97091 0.316665,-0.54228 0.161208,0.42862 0.150607,1.02335 -0.02356,1.3216 -0.174167,0.29826 -0.306064,-0.0524 -0.293105,-0.77932 z m 626.79548,-2.14873 c 0,-0.0915 0.50071,-0.43841 1.11268,-0.77094 1.00845,-0.54797 1.03094,-0.53239 0.24006,0.16633 -0.83062,0.73382 -1.35274,0.96718 -1.35274,0.60461 z m -48.37052,-1.48569 -1.54143,-1.21147 1.74851,1.068 c 0.96168,0.5874 1.74851,1.13256 1.74851,1.21147 0,0.3455 -0.51489,0.0643 -1.95559,-1.068 z m -345.6674,0.0251 c 0.61863,-0.1117 1.47699,-0.10435 1.90746,0.0163 0.43048,0.12068 -0.0757,0.21206 -1.12478,0.20308 -1.04911,-0.009 -1.40131,-0.10771 -0.78268,-0.2194 z m -73.82589,-2.33793 c 0,-0.60573 0.14432,-0.85353 0.3207,-0.55067 0.17638,0.30287 0.17638,0.79848 0,1.10134 -0.17638,0.30287 -0.3207,0.0551 -0.3207,-0.55067 z m 280.24851,-2.09254 -1.54143,-1.21147 1.74851,1.068 c 0.96168,0.58739 1.74851,1.13256 1.74851,1.21147 0,0.3455 -0.51489,0.0643 -1.95559,-1.068 z m -75.02687,-0.44053 -1.54143,-1.21148 1.74851,1.068 c 0.96168,0.5874 1.74851,1.13256 1.74851,1.21147 0,0.3455 -0.51489,0.0643 -1.95559,-1.06799 z M 13.121939,-136.5257 c 0,-0.60574 0.144315,-0.85354 0.320699,-0.55067 0.176385,0.30287 0.176385,0.79847 0,1.10134 -0.176384,0.30286 -0.320699,0.0551 -0.320699,-0.55067 z m 267.630411,-4.2218 c 0.0305,-0.5132 0.18117,-0.61759 0.38414,-0.26616 0.18367,0.31801 0.16108,0.69798 -0.0502,0.84436 -0.21128,0.14639 -0.36156,-0.1138 -0.33395,-0.5782 z m -107.40354,-0.62409 c 0,-0.60574 0.14432,-0.85354 0.3207,-0.55067 0.17639,0.30287 0.17639,0.79847 0,1.10134 -0.17638,0.30287 -0.3207,0.0551 -0.3207,-0.55067 z m 326.12594,-2.01912 c 0.0305,-0.5132 0.18117,-0.61759 0.38414,-0.26616 0.18367,0.31801 0.16108,0.69797 -0.0502,0.84436 -0.21127,0.14639 -0.36155,-0.1138 -0.33394,-0.5782 z m -486.988632,-2.82677 c 0,-0.60574 0.144315,-0.85354 0.320699,-0.55067 0.176385,0.30287 0.176385,0.79847 0,1.10134 -0.176384,0.30287 -0.320699,0.0551 -0.320699,-0.55067 z m 486.988632,-0.25698 c 0.0305,-0.5132 0.18117,-0.61759 0.38414,-0.26616 0.18367,0.31802 0.16108,0.69798 -0.0502,0.84436 -0.21127,0.14639 -0.36155,-0.1138 -0.33394,-0.5782 z m 144.38154,-0.18356 c 0,-0.60573 0.14432,-0.85353 0.3207,-0.55066 0.17639,0.30286 0.17639,0.79847 0,1.10133 -0.17638,0.30287 -0.3207,0.0551 -0.3207,-0.55067 z m -378.79216,-2.31281 -1.21123,-0.9912 1.4306,0.83921 c 1.34441,0.78866 1.72005,1.1432 1.21123,1.1432 -0.12065,0 -0.76442,-0.44604 -1.4306,-0.99121 z m -91.0795,-1.21147 c 0,-0.60573 0.14432,-0.85354 0.3207,-0.55067 0.17639,0.30287 0.17639,0.79847 0,1.10134 -0.17638,0.30287 -0.3207,0.0551 -0.3207,-0.55067 z m 99.98099,-3.63441 -1.21123,-0.99121 1.4306,0.83922 c 0.78683,0.46156 1.4306,0.90761 1.4306,0.9912 0,0.35254 -0.51171,0.0923 -1.64997,-0.83921 z m 353.84664,-1.54188 -1.54143,-1.21147 1.7485,1.068 c 0.96168,0.58739 1.74851,1.13256 1.74851,1.21147 0,0.3455 -0.51489,0.0643 -1.95558,-1.068 z m -615.961963,-0.55067 c 0,-0.60573 0.144315,-0.85353 0.320699,-0.55067 0.176385,0.30287 0.176385,0.79847 0,1.10134 -0.176384,0.30287 -0.320699,0.0551 -0.320699,-0.55067 z m 587.398143,0.71475 c 0,-0.0915 0.50071,-0.4384 1.11268,-0.77094 1.00845,-0.54797 1.03094,-0.53239 0.24006,0.16633 -0.83062,0.73382 -1.35274,0.96718 -1.35274,0.60461 z m -424.67818,-4.05547 c 0.0305,-0.5132 0.18117,-0.61759 0.38414,-0.26616 0.18367,0.31801 0.16108,0.69797 -0.0502,0.84436 -0.21128,0.14639 -0.36155,-0.11381 -0.33394,-0.5782 z m 195.46473,-1.06463 c 0.63296,-0.48459 1.29388,-0.88107 1.46873,-0.88107 0.17486,0 -0.19995,0.39648 -0.8329,0.88107 -0.63296,0.48459 -1.29388,0.88107 -1.46874,0.88107 -0.17485,0 0.19996,-0.39648 0.83291,-0.88107 z m 263.46667,-1.21147 c -0.79087,-0.69872 -0.76839,-0.7143 0.24006,-0.16633 1.05912,0.5755 1.39593,0.93726 0.87263,0.93726 -0.13203,0 -0.63274,-0.34692 -1.11269,-0.77093 z m -622.287184,-4.07495 c 0,-0.60574 0.144315,-0.85354 0.320699,-0.55067 0.176385,0.30286 0.176385,0.79847 0,1.10134 -0.176384,0.30286 -0.320699,0.0551 -0.320699,-0.55067 z m 312.604284,-0.74148 c 0.45898,-0.12725 1.00738,-0.1116 1.21866,0.0348 0.21128,0.14639 -0.16426,0.25051 -0.83452,0.23138 -0.74069,-0.0211 -0.89135,-0.12552 -0.38414,-0.26616 z m 116.32688,-0.45886 c 1.14279,-0.0981 2.85951,-0.096 3.81492,0.004 0.95542,0.10052 0.0204,0.18074 -2.0778,0.17827 -2.09821,-0.002 -2.87991,-0.0847 -1.73712,-0.18276 z m -264.88937,-1.44288 c 0,-0.60573 0.14432,-0.85353 0.3207,-0.55066 0.17639,0.30286 0.17639,0.79847 0,1.10133 -0.17638,0.30287 -0.3207,0.0551 -0.3207,-0.55067 z m -164.677615,-7.04856 c 0,-0.60574 0.144315,-0.85354 0.3207,-0.55067 0.176384,0.30287 0.176384,0.79847 0,1.10134 -0.176385,0.30287 -0.3207,0.0551 -0.3207,-0.55067 z m 62.896075,-0.69751 c 0.03051,-0.5132 0.181171,-0.61759 0.384142,-0.26616 0.18367,0.31801 0.161082,0.69797 -0.0502,0.84436 -0.211278,0.14638 -0.361554,-0.11381 -0.333946,-0.5782 z m 102.41737,-1.06463 c 0,-0.60574 0.14431,-0.85354 0.32069,-0.55067 0.17639,0.30287 0.17639,0.79847 0,1.10134 -0.17638,0.30287 -0.32069,0.0551 -0.32069,-0.55067 z M 9.9428345,-184.98459 c 0,-0.60573 0.1443145,-0.85353 0.3206995,-0.55067 0.176384,0.30287 0.176384,0.79847 0,1.10134 -0.176385,0.30287 -0.3206995,0.0551 -0.3206995,-0.55067 z m 166.5348855,-1.13805 c 0.0305,-0.5132 0.18117,-0.61758 0.38414,-0.26615 0.18367,0.31801 0.16108,0.69797 -0.0502,0.84436 -0.21128,0.14638 -0.36156,-0.11381 -0.33395,-0.57821 z m 46.04682,-0.62409 c 0.63295,-0.48459 1.29388,-0.88107 1.46873,-0.88107 0.17485,0 -0.19996,0.39648 -0.83291,0.88107 -0.63295,0.48459 -1.29388,0.88107 -1.46873,0.88107 -0.17485,0 0.19996,-0.39648 0.83291,-0.88107 z M 9.3070135,-194.67636 c 0,-0.60574 0.1443146,-0.85354 0.3206992,-0.55067 0.1763845,0.30286 0.1763845,0.79847 0,1.10133 -0.1763846,0.30287 -0.3206992,0.0551 -0.3206992,-0.55066 z M 177.16374,-195.1169 c 0,-0.60574 0.14431,-0.85354 0.3207,-0.55067 0.17638,0.30287 0.17638,0.79847 0,1.10134 -0.17639,0.30287 -0.3207,0.0551 -0.3207,-0.55067 z m 0.63582,-8.81071 c 0,-0.60573 0.14431,-0.85353 0.3207,-0.55066 0.17638,0.30286 0.17638,0.79847 0,1.10133 -0.17639,0.30287 -0.3207,0.0551 -0.3207,-0.55067 z M 8.6711926,-204.36814 c 0,-0.60574 0.1443146,-0.85354 0.3206992,-0.55067 0.1763845,0.30287 0.1763845,0.79847 0,1.10134 -0.1763846,0.30287 -0.3206992,0.0551 -0.3206992,-0.55067 z m 53.9945824,-5.10287 c 0.03051,-0.5132 0.181171,-0.61758 0.384141,-0.26615 0.18367,0.31801 0.161082,0.69797 -0.0502,0.84435 -0.211278,0.14639 -0.361553,-0.1138 -0.333945,-0.5782 z m 61.089005,-0.18355 c 0,-0.60574 0.14431,-0.85354 0.3207,-0.55067 0.17638,0.30286 0.17638,0.79847 0,1.10133 -0.17639,0.30287 -0.3207,0.0551 -0.3207,-0.55066 z m -32.646477,-23.64931 c 0.458984,-0.12726 1.007379,-0.11161 1.218657,0.0348 0.211278,0.14638 -0.164254,0.2505 -0.834515,0.23138 -0.740695,-0.0211 -0.891357,-0.12553 -0.384142,-0.26616 z m 3.814926,0 c 0.458983,-0.12726 1.007379,-0.11161 1.218657,0.0348 0.211278,0.14638 -0.164254,0.2505 -0.834515,0.23138 -0.740695,-0.0211 -0.891357,-0.12553 -0.384142,-0.26616 z"
       id="path68" /><path
       style="fill:#ee4b28"
       d="m 436.47828,-133.44196 v -33.04014 h 5.01854 c 5.59077,0 5.79042,0.10756 5.79042,3.11977 0,0.94936 0.12871,1.72611 0.28603,1.72611 0.15732,0 1.53058,-0.58195 3.0517,-1.29323 4.83959,-2.26303 9.15298,-3.20434 15.77813,-3.44327 9.99146,-0.36033 17.12716,1.54584 24.14678,6.45037 6.35131,4.4376 9.04328,9.01047 9.02148,15.32492 -0.0593,17.17574 -28.06579,27.44716 -48.94606,17.95101 l -3.33806,-1.51811 V -114.98 c 0,7.25149 -0.17367,13.4981 -0.38594,13.88136 -0.30682,0.55398 -1.41476,0.69683 -5.40448,0.69683 h -5.01854 z m 39.04838,2.179 c 4.61905,-1.19741 9.39899,-4.23122 11.61828,-7.37409 1.48763,-2.10672 1.77379,-3.07816 1.78054,-6.04444 0.007,-3.10771 -0.24297,-3.8877 -2.07145,-6.46227 -4.66494,-6.56839 -14.7113,-9.59218 -24.80901,-7.46712 -8.85092,1.86268 -14.75628,7.27548 -14.75728,13.5264 -10e-4,6.80257 5.12881,11.78696 14.52431,14.11231 3.55983,0.88104 9.69611,0.75094 13.71461,-0.29079 z m -451.404231,21.89314 c -5.467974,-1.77153 -8.912026,-5.47852 -9.536319,-10.26438 -0.310003,-2.37649 -5.1273936,-75.90917 -5.5175997,-84.22066 -0.1504128,-3.20383 -0.015554,-3.75126 1.0581197,-4.29522 0.99973,-0.5065 5.011795,-0.62341 21.392818,-0.62341 h 20.162316 l 0.454355,-2.75335 c 0.585803,-3.54991 3.046397,-9.44545 5.158759,-12.3603 7.611249,-10.50279 21.095613,-16.74895 36.158015,-16.74895 20.629237,0 37.779167,11.75521 41.092707,28.1665 l 0.74627,3.6961 h 20.24992 c 19.42364,0 20.30197,0.0361 21.52562,0.88388 1.10634,0.76654 1.23014,1.27828 0.93252,3.85468 -0.18875,1.63394 -1.63617,21.50633 -3.2165,44.16086 -1.58033,22.65452 -3.14833,41.91508 -3.48445,42.80123 -0.97049,2.55862 -4.43449,5.72763 -7.85567,7.18668 l -3.12899,1.33445 -66.4934,0.11014 -66.493403,0.11014 z m 80.113001,-16.81705 c 8.66934,-1.56453 16.03974,-5.73133 18.87477,-10.67071 1.1649,-2.02956 1.45741,-3.40523 1.475,-6.93696 0.0196,-3.92802 -0.15997,-4.64411 -1.6569,-6.60892 -0.92336,-1.21197 -3.21209,-3.20318 -5.08608,-4.42491 -5.83797,-3.80602 -9.88511,-5.24415 -28.427865,-10.1017 -10.360028,-2.71395 -15.354,-6.29942 -15.354,-11.02354 0,-9.85601 18.848752,-13.461 37.039115,-7.08405 l 5.56597,1.95125 1.90492,-1.91833 c 2.66829,-2.68706 2.48322,-3.29649 -1.50268,-4.94831 -5.93704,-2.46042 -14.4236,-4.16007 -22.025235,-4.41112 -10.573646,-0.34919 -18.163535,1.41994 -24.283603,5.6603 -4.668852,3.23486 -6.512547,6.32978 -6.535329,10.97052 -0.02347,4.78109 1.782433,7.55561 7.284668,11.19192 4.20785,2.78087 9.801403,4.78877 20.990981,7.53507 13.165838,3.23135 18.377548,5.5695 21.218318,9.51928 5.05344,7.02625 -1.96588,13.84876 -15.813841,15.37044 -9.002947,0.98928 -19.501373,-1.07895 -28.465397,-5.60781 -1.667909,-0.84267 -3.429084,-1.4267 -3.913724,-1.29785 -0.991576,0.26364 -4.816402,3.95334 -4.816402,4.64625 0,0.71621 7.750609,4.35182 12.373747,5.80422 9.210483,2.89354 22.638992,3.92157 31.153567,2.38496 z m 19.71515,-84.67917 c -1.41758,-7.10419 -4.60013,-11.8916 -10.78581,-16.22471 -11.82265,-8.28185 -27.434061,-8.3691 -39.128002,-0.21868 -6.220555,4.33559 -9.825183,9.71218 -11.024141,16.44339 l -0.372722,2.09255 h 30.86411 30.864105 z m 114.18985,87.32429 c -5.29981,-0.66453 -8.7628,-1.48894 -14.31015,-3.40673 -3.98653,-1.37819 -10.52514,-4.53502 -10.52514,-5.08151 0,-0.63349 4.5504,-4.9904 5.46637,-5.23393 0.5136,-0.13656 2.44122,0.44517 4.2836,1.29273 12.8909,5.93024 26.07441,7.38186 36.64624,4.03507 6.67778,-2.11404 10.19185,-5.44208 10.19185,-9.65234 0,-3.17582 -1.17638,-5.05066 -4.62703,-7.37427 -3.85739,-2.5975 -7.61459,-3.91413 -18.63338,-6.52965 -17.84843,-4.23667 -24.57168,-7.29746 -28.64043,-13.03871 -1.60379,-2.26305 -1.82481,-3.05917 -1.81603,-6.54145 0.008,-3.36723 0.26685,-4.34679 1.7141,-6.49906 3.50951,-5.21915 11.0397,-9.2634 19.95932,-10.71958 5.66871,-0.92546 15.85921,-0.61744 22.38851,0.67672 5.46435,1.08308 14.64152,4.17461 15.15743,5.10611 0.36014,0.65026 -0.52789,1.82891 -3.37717,4.48244 l -1.52132,1.4168 -5.44398,-1.94089 c -14.36607,-5.1218 -29.38745,-4.18952 -35.68593,2.21481 -2.36333,2.40304 -2.75779,6.35161 -0.88819,8.89075 2.58305,3.5081 7.3183,5.46023 21.28485,8.77482 23.96983,5.68859 33.09461,12.52549 30.91676,23.16493 -2.49708,12.19902 -20.0446,18.7836 -42.54028,15.96294 z m 54.0065,-34.34992 v -35.02255 h 5.40448 5.40448 v 15.41873 c 0,8.48031 0.14874,15.41874 0.33054,15.41874 0.1818,0 1.50203,-0.51239 2.93384,-1.13864 13.5872,-5.94282 32.7244,-2.71331 41.0572,6.92863 3.61768,4.18603 4.00081,6.15055 4.00081,20.51442 v 12.90323 h -5.40448 -5.40448 v -12.50467 c 0,-14.22339 -0.34602,-15.65809 -4.58025,-18.99099 -3.65861,-2.8798 -8.62671,-4.41483 -14.17647,-4.38018 -7.58823,0.0474 -13.38986,2.54038 -16.66481,7.16104 l -1.77399,2.50295 -0.1938,13.10593 -0.19379,13.10592 h -5.36964 -5.36964 z m 90.90771,33.13891 c -18.54178,-4.3804 -26.84347,-18.32902 -18.05802,-30.34133 3.07299,-4.20167 9.59743,-8.27274 16.10756,-10.05066 18.98837,-5.18572 39.92945,2.90592 43.29459,16.72906 2.50294,10.28142 -7.38548,20.94994 -22.21127,23.96354 -5.18047,1.05302 -13.98892,0.91462 -19.13286,-0.30061 z m 18.56518,-7.25688 c 4.16187,-1.27852 8.45127,-4.17075 10.5253,-7.09694 2.478,-3.49614 2.51913,-8.42706 0.0997,-11.95679 -3.48077,-5.0782 -9.77713,-7.96246 -18.04867,-8.26781 -6.21139,-0.22929 -10.82549,0.80962 -15.05675,3.39018 -4.28,2.61029 -6.41117,5.69199 -6.75125,9.76243 -0.59954,7.17571 4.70108,12.50853 14.67793,14.7671 3.7036,0.83842 10.83082,0.54549 14.5537,-0.59817 z m 131.48856,7.28161 c -16.3142,-3.95142 -24.94943,-15.12989 -20.42352,-26.43863 4.0603,-10.14536 18.54867,-16.92031 32.87876,-15.37455 13.50547,1.45682 23.84484,8.86846 25.81121,18.50243 1.17366,5.7502 3.0951,5.34558 -25.38491,5.34558 h -23.81367 l 0.43587,1.21147 c 1.38924,3.86131 5.30569,7.0698 11.00113,9.01248 4.06217,1.38558 4.57832,1.45024 11.57704,1.45024 6.68914,0 7.65662,-0.10706 11.14023,-1.23275 2.09821,-0.67801 4.86907,-1.81676 6.15747,-2.53057 2.12551,-1.17758 2.43472,-1.23394 3.3376,-0.60837 1.90018,1.31656 4.27379,4.56356 3.91051,5.34942 -0.53194,1.15069 -5.96387,3.55918 -10.95677,4.85818 -3.70703,0.96446 -5.63552,1.15768 -12.93985,1.2965 -7.66434,0.14566 -9.02775,0.0555 -12.7311,-0.84143 z m 27.00287,-26.00494 c -1.38482,-3.13528 -7.85991,-7.27823 -12.88739,-8.24571 -3.73323,-0.71842 -9.28581,-0.53692 -12.99569,0.4248 -4.87051,1.2626 -9.46853,4.55491 -10.92263,7.82091 l -0.44131,0.99121 h 18.84241 18.84241 z m 46.09626,26.15228 c -5.69612,-1.26296 -9.97427,-3.12089 -13.92601,-6.04783 -5.88287,-4.35727 -8.24846,-8.56935 -8.27722,-14.73807 -0.0278,-5.97101 2.96933,-10.93021 9.22558,-15.26492 13.43723,-9.31013 34.5736,-7.76198 45.59783,3.33985 3.99144,4.01953 6.50954,11.53429 4.55962,13.60726 l -0.93237,0.9912 h -23.82862 c -26.77102,0 -24.98648,-0.26041 -22.64133,3.30402 3.84917,5.85043 12.05776,8.85791 23.22471,8.50914 6.39017,-0.19958 11.03869,-1.35594 15.67219,-3.89861 l 2.46155,-1.35078 2.00296,1.8944 c 3.48996,3.30082 3.60733,3.70936 1.50291,5.23126 -2.26323,1.63675 -8.19384,3.68332 -13.28147,4.58326 -5.3327,0.94329 -16.7704,0.85752 -21.36033,-0.16018 z m 26.73347,-25.49147 c -0.0196,-1.08592 -4.23954,-5.14346 -6.70685,-6.44876 -4.19395,-2.21876 -8.36584,-3.06559 -13.87445,-2.81628 -5.18551,0.23468 -8.73426,1.30574 -12.13632,3.66289 -2.14287,1.48472 -4.78985,4.51002 -4.78985,5.47446 0,0.30674 6.19705,0.45809 18.75672,0.45809 10.31619,0 18.75403,-0.14868 18.75075,-0.3304 z"
       id="path67" /></g></svg>
