<?xml version="1.0" encoding="UTF-8" standalone="no"?>
<!-- Created with Inkscape (http://www.inkscape.org/) -->

<svg
   width="96.11763mm"
   height="29.321224mm"
   viewBox="0 0 96.11763 29.321224"
   version="1.1"
   id="svg1"
   xml:space="preserve"
   xmlns="http://www.w3.org/2000/svg"
   xmlns:svg="http://www.w3.org/2000/svg"><defs
     id="defs1" /><g
     id="layer1"
     transform="translate(-45.721624,-226.96388)"><g
       id="g34"
       transform="translate(-3.6638421,14.215933)"><path
         style="fill:#000000"
         d="m 86.306704,242.03413 c -7.29565,-0.39542 -14.620441,-3.06159 -20.386862,-7.42064 -1.296137,-0.9798 -2.789561,-2.26314 -2.911357,-2.50181 -0.137973,-0.27037 -0.04385,-0.53659 0.206534,-0.58419 0.212934,-0.0405 0.418756,0.0371 0.975399,0.36755 1.200352,0.71263 3.5877,1.87716 5.231179,2.55174 5.004968,2.05432 9.898649,3.28123 14.927206,3.74245 2.372846,0.21764 5.65748,0.25247 7.691753,0.0816 1.233852,-0.10366 2.285569,-0.2136 3.116658,-0.32581 4.336599,-0.58548 8.483936,-1.66922 12.087036,-3.15848 1.16485,-0.48146 1.19977,-0.49258 1.48797,-0.47408 0.35638,0.0229 0.61037,0.24431 0.67391,0.58751 0.0822,0.44404 -0.22912,0.75397 -1.72104,1.71327 -4.11844,2.64816 -9.621734,4.5408 -15.00522,5.16045 -1.321591,0.15212 -2.364825,0.22186 -3.955758,0.26446 -1.569011,0.042 -1.568678,0.042 -2.417408,-0.004 z m 23.592216,-2.15351 c -0.15976,-0.12626 -0.14921,-0.17125 0.25381,-1.08182 0.42021,-0.94939 0.86015,-2.32929 1.23281,-3.8668 0.10556,-0.43548 0.12815,-0.61026 0.13086,-1.01225 0.004,-0.54831 -0.0382,-0.71932 -0.23065,-0.94142 -0.51143,-0.59025 -2.61574,-0.69405 -5.8455,-0.28835 -0.60373,0.0758 -0.70543,0.0794 -0.85541,0.0303 -0.29623,-0.097 -0.31229,-0.27664 -0.0482,-0.53907 0.53377,-0.53041 1.70165,-1.07675 2.95064,-1.38034 1.04944,-0.25508 1.57857,-0.31444 2.83366,-0.31792 1.23009,-0.003 1.64815,0.035 2.35886,0.21663 0.73592,0.1881 1.09474,0.42251 1.16577,0.76157 0.0424,0.20239 0.0254,1.10927 -0.0297,1.58678 -0.27132,2.35071 -1.24385,4.54837 -2.76212,6.24167 -0.40773,0.45474 -0.68105,0.64266 -0.9326,0.64123 -0.0879,-5e-4 -0.18792,-0.0231 -0.22225,-0.0502 z m 13.90757,-9.83222 c -2.63433,-0.17262 -4.6489,-1.79313 -5.65388,-4.54794 -0.69542,-1.90627 -0.85287,-4.56078 -0.39522,-6.66324 0.31601,-1.45175 0.97291,-2.82347 1.82296,-3.80665 1.31597,-1.52207 3.28138,-2.32988 5.22982,-2.14952 0.29025,0.0269 0.64617,0.076 0.79092,0.10915 2.72246,0.62369 4.70367,2.95498 5.29589,6.23167 0.31216,1.72711 0.2709,3.42013 -0.12286,5.04101 -0.42474,1.74839 -1.28721,3.281 -2.39646,4.25854 -1.02733,0.90534 -2.28109,1.43983 -3.55226,1.51436 -0.19779,0.0116 -0.40457,0.026 -0.45951,0.0319 -0.0549,0.006 -0.30667,-0.003 -0.5594,-0.0193 z m 0.92477,-3.21209 c 0.88372,-0.18981 1.44275,-0.87541 1.66913,-2.04706 0.1699,-0.87937 0.21161,-1.39387 0.23243,-2.86701 0.027,-1.91183 -0.0568,-3.06142 -0.2926,-4.01107 -0.29342,-1.18195 -1.01984,-1.82844 -2.05265,-1.8268 -0.91143,0.001 -1.60497,0.52014 -1.93315,1.44576 -0.31052,0.87581 -0.48589,3.14263 -0.39087,5.05241 0.0889,1.78617 0.28422,2.8137 0.6404,3.36846 0.47537,0.74039 1.2674,1.07 2.12731,0.88531 z m -71.24936,3.13221 c -0.208776,-0.0179 -0.587727,-0.0862 -0.842113,-0.15173 -1.771288,-0.45615 -2.834411,-1.60256 -3.179141,-3.42818 -0.09926,-0.52566 -0.100474,-1.73979 -0.0022,-2.20164 0.369674,-1.73738 1.296429,-2.9554 2.788774,-3.66525 1.251969,-0.5955 3.290001,-1.02652 5.400216,-1.14207 l 0.509454,-0.0279 -7.91e-4,-0.73302 c -4.36e-4,-0.40317 -0.01826,-0.85544 -0.03961,-1.00504 -0.11701,-0.81985 -0.633628,-1.40544 -1.401771,-1.58892 -0.300411,-0.0718 -0.980989,-0.0813 -1.282933,-0.0179 -0.77015,0.16155 -1.419873,0.79802 -1.69065,1.65616 -0.14598,0.46264 -0.292353,0.60693 -0.615985,0.6072 -0.332543,2.9e-4 -2.853689,-0.28559 -2.95526,-0.3351 -0.05573,-0.0272 -0.144289,-0.11317 -0.196786,-0.19112 -0.08414,-0.12493 -0.09293,-0.17344 -0.07419,-0.40964 0.06042,-0.7613 0.653743,-1.91474 1.37537,-2.67375 0.486526,-0.51172 0.932577,-0.84046 1.588284,-1.17056 0.917866,-0.46207 1.746115,-0.65863 3.056722,-0.72544 3.436092,-0.17514 5.758136,1.21215 6.267452,3.74445 0.02239,0.11135 0.05351,0.25711 0.06914,0.32392 0.01563,0.0668 0.03961,1.91619 0.05329,4.10974 0.02484,3.98414 0.02496,3.98854 0.113852,4.25597 0.05986,0.18007 0.267185,0.54379 0.633338,1.11108 0.58086,0.89994 0.636416,1.03484 0.520079,1.26281 -0.05875,0.11513 -2.243683,2.0427 -2.507094,2.21178 -0.146854,0.0943 -0.452902,0.10252 -0.615025,0.0166 -0.265037,-0.14049 -1.154629,-1.12887 -1.527564,-1.69719 -0.10023,-0.15275 -0.186419,-0.27772 -0.19153,-0.27772 -0.0051,0 -0.124965,0.11493 -0.266344,0.2554 -1.095589,1.08856 -2.44119,1.73307 -3.942341,1.88828 -0.451826,0.0467 -0.487874,0.0467 -1.044642,-0.001 z m 2.497322,-3.09401 c 0.461284,-0.0978 0.882049,-0.33471 1.20261,-0.67712 0.693213,-0.74046 0.972551,-1.82783 0.974423,-3.7931 l 6.32e-4,-0.66414 -0.669282,0.025 c -1.61965,0.0604 -2.760583,0.55036 -3.326192,1.42834 -0.224497,0.34848 -0.345684,0.72092 -0.394093,1.21113 -0.171807,1.73984 0.758053,2.77817 2.211902,2.46992 z m 36.660691,3.11012 c -0.608481,-0.0356 -1.431036,-0.25053 -1.929205,-0.50413 -0.485336,-0.24706 -0.709598,-0.40316 -1.051013,-0.73157 -0.871879,-0.83867 -1.266985,-1.93247 -1.269444,-3.51429 -9.01e-4,-0.57916 0.01459,-0.78041 0.08483,-1.10188 0.356173,-1.63013 1.262336,-2.8529 2.626479,-3.54414 0.131858,-0.0668 0.43753,-0.19566 0.679271,-0.28632 1.328625,-0.49828 2.778743,-0.78096 4.649527,-0.90637 l 0.733725,-0.0492 -0.01928,-0.93298 c -0.01724,-0.83415 -0.02879,-0.96008 -0.109036,-1.18894 -0.297391,-0.84812 -0.950743,-1.26032 -2.00002,-1.26181 -0.714099,-0.001 -1.221688,0.1919 -1.653629,0.62846 -0.30008,0.30329 -0.478325,0.6036 -0.63033,1.06198 -0.123883,0.37357 -0.185031,0.46887 -0.35953,0.56031 -0.152688,0.08 -0.278213,0.0739 -1.783775,-0.0869 -1.463876,-0.15632 -1.526994,-0.1725 -1.657034,-0.42477 -0.148148,-0.2874 0.01648,-0.96291 0.432325,-1.77394 0.291246,-0.56803 0.646696,-1.04446 1.106369,-1.48295 1.104033,-1.05315 2.490414,-1.57871 4.430038,-1.67936 1.069763,-0.0555 1.879983,0.0162 2.734354,0.24192 2.10048,0.55501 3.330925,1.88397 3.597835,3.8859 0.0453,0.33947 0.0571,1.15953 0.0589,4.06925 0.002,3.77355 0.0115,4.0147 0.16907,4.39556 0.0328,0.0793 0.30021,0.51604 0.59427,0.97063 0.51057,0.78928 0.53466,0.83587 0.53466,1.034 0,0.12461 -0.0239,0.23699 -0.0599,0.28135 -0.0662,0.0817 -2.12971,1.87717 -2.36647,2.05918 -0.356565,0.27412 -0.638559,0.22348 -1.063492,-0.19097 -0.401663,-0.39175 -0.976378,-1.07202 -1.194994,-1.41448 l -0.179157,-0.28064 -0.225126,0.22122 c -1.153383,1.13338 -2.444776,1.76146 -3.969536,1.93063 -0.213404,0.0237 -0.456144,0.0397 -0.539421,0.0356 -0.08328,-0.004 -0.250308,-0.0133 -0.371179,-0.0203 z m 2.64346,-3.1912 c 0.938523,-0.32497 1.539139,-1.20925 1.773785,-2.61153 0.04115,-0.24591 0.07242,-0.75565 0.0867,-1.41321 l 0.02233,-1.02855 -0.65486,0.0241 c -1.972579,0.0727 -3.200415,0.75233 -3.616645,2.00185 -0.141006,0.42329 -0.178949,1.22342 -0.0795,1.6764 0.172909,0.78756 0.633765,1.31617 1.265181,1.45119 0.302427,0.0647 0.86109,0.0181 1.203008,-0.10029 z m -21.099053,2.97704 c -0.07438,-0.0184 -0.200246,-0.0993 -0.2797,-0.17981 l -0.144463,-0.14638 -0.02167,-5.47561 c -0.02398,-6.05985 -0.0067,-5.67932 -0.282932,-6.23522 -0.301919,-0.60764 -0.702076,-0.87726 -1.425183,-0.96027 -1.147909,-0.13177 -1.890729,0.53576 -2.12716,1.91156 -0.03106,0.18076 -0.04681,1.83598 -0.05175,5.43949 -0.0079,5.7665 0.01436,5.32074 -0.276208,5.53075 l -0.130464,0.0943 -1.592922,0.0115 c -1.546988,0.0111 -1.597904,0.009 -1.765702,-0.0733 -0.126276,-0.0619 -0.194937,-0.13113 -0.255097,-0.25706 -0.08224,-0.17215 -0.08232,-0.17954 -0.08232,-7.93823 v -7.76591 l 0.08727,-0.15734 c 0.05562,-0.10028 0.147144,-0.18672 0.252358,-0.23833 0.155684,-0.0764 0.246732,-0.081 1.598294,-0.081 1.375456,0 1.440208,0.003 1.606986,0.0853 0.119054,0.0584 0.198526,0.1344 0.252358,0.24133 0.07233,0.14366 0.07858,0.24211 0.07858,1.23786 v 1.08178 l 0.183077,-0.38172 c 0.539183,-1.1242 1.3662,-1.96681 2.294267,-2.33752 0.671145,-0.26808 1.697144,-0.34291 2.426175,-0.17694 1.331325,0.30309 2.366858,1.2469 2.895319,2.63887 0.03596,0.0947 0.05045,0.0778 0.2256,-0.26318 0.252267,-0.49115 0.481444,-0.82234 0.816056,-1.1793 0.365642,-0.39006 0.725674,-0.65676 1.190751,-0.88209 0.853287,-0.4134 1.855848,-0.51159 2.929346,-0.2869 1.450321,0.30357 2.511178,1.21054 2.936147,2.51025 0.271507,0.83037 0.291916,1.44157 0.2776,8.31349 l -0.01167,5.60065 -0.164473,0.15546 c -0.218192,0.20624 -0.275883,0.2118 -2.033171,0.1959 -1.414215,-0.0128 -1.440911,-0.0146 -1.584043,-0.10475 -0.290832,-0.18327 -0.268215,0.25388 -0.30655,-5.92509 -0.03198,-5.15492 -0.03971,-5.57967 -0.105266,-5.78602 -0.268653,-0.84562 -0.88336,-1.26199 -1.776434,-1.20328 -0.892521,0.0587 -1.48909,0.54639 -1.804904,1.47557 -0.194706,0.57286 -0.19628,0.62107 -0.196451,6.0178 -1.79e-4,5.62964 0.01973,5.23584 -0.274126,5.42102 -0.144143,0.0908 -0.160817,0.0918 -1.683936,0.0988 -0.846092,0.004 -1.599207,-0.008 -1.673587,-0.0264 z m 67.56941,-0.005 c -0.14011,-0.0293 -0.27119,-0.11877 -0.35976,-0.24551 -0.0607,-0.0868 -0.068,-0.55483 -0.0871,-5.54072 l -0.0208,-5.44591 -0.0881,-0.31639 c -0.18631,-0.66916 -0.55688,-1.13562 -1.054,-1.32674 -0.21331,-0.082 -0.32623,-0.0979 -0.69427,-0.0979 -0.41512,0 -0.45285,0.007 -0.67933,0.12709 -0.76604,0.40601 -1.20727,1.31219 -1.33788,2.7477 -0.0246,0.27007 -0.0406,2.26236 -0.0407,5.06126 -1.8e-4,4.51064 -0.002,4.61882 -0.0784,4.74582 -0.043,0.0715 -0.15011,0.16713 -0.238,0.21257 -0.15274,0.079 -0.22844,0.0826 -1.71126,0.0826 -1.53033,0 -1.55384,-0.001 -1.72678,-0.0911 -0.10894,-0.0566 -0.20293,-0.14453 -0.24821,-0.23218 -0.0698,-0.13513 -0.0729,-0.47018 -0.0729,-7.92993 0,-8.62663 -0.0209,-7.95698 0.25466,-8.15617 0.1231,-0.089 0.14687,-0.0905 1.61692,-0.10228 2.12371,-0.0171 2.00183,-0.11137 2.0037,1.5506 l 0.001,1.05274 0.19383,-0.39083 c 0.68245,-1.37615 1.67876,-2.22359 2.92222,-2.48561 0.47138,-0.0993 1.61881,-0.10307 2.02905,-0.007 1.26315,0.29699 2.16395,1.09778 2.68931,2.39071 0.19995,0.49208 0.26025,0.73791 0.33433,1.36287 0.11773,0.99319 0.14162,2.23419 0.14168,7.36037 6e-5,5.65974 0.0146,5.33198 -0.24473,5.51911 -0.12644,0.0912 -0.17888,0.0983 -0.93353,0.12622 -1.14154,0.0422 -2.43649,0.0564 -2.57118,0.0283 z m -26.23835,-0.42949 c -0.0439,-0.0105 -0.31366,-0.13492 -0.59936,-0.27654 -0.94405,-0.46798 -2.08383,-0.78288 -3.37638,-0.93283 -0.71765,-0.0833 -2.38432,-0.0604 -3.01676,0.0414 -1.19259,0.1919 -2.16879,0.49017 -3.01677,0.92175 -0.38622,0.19657 -0.49325,0.2339 -0.6711,0.23404 -0.16983,1.3e-4 -0.23039,-0.0189 -0.30689,-0.0964 -0.1714,-0.17369 -0.18607,-0.33654 -0.17291,-1.92045 0.0113,-1.35366 0.0191,-1.50152 0.0885,-1.66757 0.0419,-0.10021 1.43209,-2.17735 3.08929,-4.61586 l 3.0131,-4.43366 -2.56996,-0.0202 c -2.47893,-0.0195 -2.57477,-0.0231 -2.70563,-0.10122 -0.0746,-0.0445 -0.17352,-0.13239 -0.21977,-0.19522 -0.0806,-0.1095 -0.0845,-0.16583 -0.0949,-1.35642 -0.0121,-1.38949 -0.005,-1.43209 0.26645,-1.6159 l 0.13577,-0.0919 h 5.02279 5.02278 l 0.13577,0.0919 c 0.26486,0.1793 0.27554,0.23857 0.27516,1.52769 l -3.4e-4,1.15397 -2.85455,4.16096 c -1.57,2.28853 -2.86276,4.17443 -2.8728,4.19089 -0.01,0.0165 0.19051,0.0232 0.44567,0.015 1.50972,-0.0486 3.33857,0.35 4.70739,1.02589 0.49448,0.24416 0.76123,0.49004 0.84725,0.78095 0.0738,0.24957 0.0659,2.76143 -0.009,2.94369 -0.0858,0.20811 -0.30103,0.29845 -0.56255,0.23614 z"
         id="path1" /><path
         style="fill:#f3971b;fill-opacity:1;stroke-width:3.78943"
         d="m 314.36332,913.80717 c -25.59967,-3.99209 -50.54263,-14.92514 -69.22569,-30.34315 -7.17907,-5.92446 -8.97451,-8.25982 -6.3502,-8.25982 0.65299,0 6.41022,2.56505 12.79386,5.7001 22.03798,10.82302 47.78187,17.83217 70.61501,19.22597 25.39585,1.55023 51.00809,-1.75008 73.10775,-9.42043 15.27223,-5.30069 17.28455,-5.70458 18.08103,-3.62901 2.08873,5.44314 -29.37551,20.53416 -52.61174,25.23388 -9.48476,1.91837 -37.83292,2.83 -46.41002,1.49246 z"
         id="path20"
         transform="scale(0.26458333)" /><path
         style="fill:#f3971b;fill-opacity:1;stroke-width:3.78943"
         d="m 415.14758,906.07332 c 0,-0.25453 1.40993,-4.67115 3.13319,-9.81472 5.53276,-16.5142 4.82774,-17.50703 -12.17943,-17.15138 -6.63191,0.13869 -11.84169,-0.17213 -11.84169,-0.70648 0,-0.52476 2.6515,-2.25138 5.89223,-3.83692 7.54191,-3.68991 20.61748,-4.70732 26.87828,-2.09139 l 4.02476,1.68165 -0.74838,5.98979 c -0.4116,3.29438 -1.65749,8.41962 -2.76864,11.38943 -2.35024,6.28159 -8.66994,15.0028 -10.87157,15.0028 -0.83531,0 -1.51875,-0.20825 -1.51875,-0.46278 z"
         id="path21"
         transform="scale(0.26458333)" /><path
         style="fill:#f3971b;fill-opacity:1;stroke-width:0.947358"
         d="m 321.28245,914.50395 c -5.32316,-0.44071 -7.79289,-0.76678 -12.14111,-1.60295 -24.92533,-4.7932 -47.38215,-15.30183 -65.71784,-30.75256 -4.42807,-3.73136 -5.46831,-4.84647 -5.52028,-5.91767 -0.0367,-0.75647 0.0594,-0.89417 0.76971,-1.10319 0.73589,-0.21654 1.52785,0.11529 8.48572,3.55555 11.00151,5.43961 16.91399,7.96461 26.21211,11.19423 11.07681,3.84742 22.19695,6.6777 33.08891,8.42174 26.25053,4.20327 56.58191,2.18009 82.23308,-5.48517 3.24846,-0.97072 17.17067,-5.70015 19.48009,-6.61745 1.61483,-0.64141 3.17661,-0.70304 4.21452,-0.16632 0.86852,0.44913 1.06307,0.86275 1.06307,2.26009 0,0.88073 -0.1729,1.20083 -1.17439,2.17416 -2.47506,2.40549 -10.43131,7.22534 -17.49419,10.59788 -9.23243,4.4085 -20.80608,8.34196 -31.73328,10.78498 -3.56363,0.79673 -11.20163,1.86378 -17.2228,2.40608 -6.19468,0.55792 -19.22428,0.69096 -24.54332,0.2506 z"
         id="path22"
         transform="scale(0.26458333)" /><path
         style="fill:#f3971b;fill-opacity:1;stroke-width:0.947358"
         d="m 321.9352,914.62197 c -7.10061,-0.53321 -13.03077,-1.52494 -21.01848,-3.51506 -21.76665,-5.42309 -40.97117,-15.06429 -57.31125,-28.77182 -4.39517,-3.68706 -5.64998,-5.03013 -5.70213,-6.1032 -0.0372,-0.76663 0.0556,-0.89417 0.81285,-1.11672 0.77314,-0.22721 1.19768,-0.0811 4.43869,1.52714 12.37445,6.1406 18.17459,8.75038 25.45079,11.45162 16.68095,6.19269 32.26179,9.87017 49.02139,11.57031 5.78406,0.58675 26.94803,0.67513 32.76794,0.13683 13.48273,-1.24704 25.42283,-3.37355 36.05921,-6.42208 4.1597,-1.19223 13.45824,-4.26619 19.816,-6.55087 2.81423,-1.01131 3.62785,-1.20158 4.76101,-1.11343 1.8696,0.14544 2.41921,0.68356 2.41921,2.36859 0,1.2069 -0.0902,1.39618 -1.14781,2.40959 -3.68522,3.53106 -16.06143,10.37537 -25.48429,14.09337 -17.82505,7.03325 -32.80797,9.90543 -53.00312,10.16052 -4.81075,0.0608 -10.15676,0.005 -11.88001,-0.12479 z"
         id="path23"
         transform="scale(0.26458333)" /><path
         style="fill:#f3971b;fill-opacity:1;stroke-width:0.947358"
         d="m 322.84904,914.73254 c -10.69497,-0.74948 -21.75005,-3.05835 -33.55123,-7.00725 -18.3304,-6.13369 -34.52913,-15.37943 -48.36353,-27.60441 -3.162,-2.79415 -3.9488,-4.32721 -2.54831,-4.96532 0.91449,-0.41667 1.14102,-0.32559 10.70258,4.3026 11.74772,5.68639 15.93971,7.43723 25.84881,10.7961 15.2993,5.18596 31.0999,8.51165 45.17014,9.50735 6.1837,0.43759 29.43025,0.18727 34.20399,-0.36831 17.97294,-2.09176 27.17373,-4.19286 45.43423,-10.37538 10.66779,-3.61183 11.72812,-3.84225 13.01675,-2.8286 0.96999,0.76298 0.98461,2.72163 0.0288,3.85754 -2.22555,2.64492 -13.63397,9.30328 -22.57866,13.17771 -9.07661,3.93158 -21.55083,7.76127 -30.28749,9.29852 -3.54718,0.62413 -10.09965,1.46124 -14.491,1.8513 -3.15209,0.27997 -19.90877,0.5457 -22.58508,0.35815 z"
         id="path24"
         transform="scale(0.26458333)" /><path
         style="fill:#f3971b;fill-opacity:1;stroke-width:0.947358"
         d="m 321.54355,914.72835 c -20.50718,-1.9379 -41.97556,-8.91235 -59.66115,-19.3822 -7.49834,-4.439 -13.57165,-8.81769 -20.36514,-14.68269 -2.74552,-2.37028 -3.78652,-3.64381 -3.78652,-4.63232 0,-0.6939 0.89474,-1.18324 1.82377,-0.99743 0.39357,0.0787 3.81593,1.6334 7.60525,3.45485 13.19496,6.34259 17.78273,8.28634 26.7332,11.32638 17.06336,5.79558 33.01278,9.13178 47.50269,9.9363 10.33997,0.5741 28.81112,0.11319 36.96287,-0.92234 15.06836,-1.91416 22.91784,-3.77784 40.75448,-9.67624 11.43867,-3.78265 12.45282,-3.99928 13.65584,-2.91702 0.61664,0.55473 0.77764,1.11665 0.7105,2.47969 -0.0933,1.89363 -7.03337,6.59361 -17.26145,11.68983 -12.70807,6.33189 -27.68221,11.019 -41.25366,12.91295 -7.58937,1.05913 -11.69675,1.32415 -22.06287,1.42359 -5.60058,0.0537 -10.71159,0.0477 -11.35781,-0.0134 z"
         id="path25"
         transform="scale(0.26458333)" /><path
         style="fill:#f3971b;fill-opacity:1;stroke-width:0.947358"
         d="m 318.67146,914.47857 c -22.05104,-2.6195 -44.21976,-10.65845 -62.53324,-22.67616 -6.60766,-4.33609 -16.05699,-11.8652 -17.64831,-14.06195 -1.18305,-1.63316 -0.85833,-2.79736 0.78025,-2.79736 0.29114,0 4.14681,1.71703 8.56816,3.81563 14.29929,6.78717 18.65501,8.57896 29.31838,12.06058 12.76121,4.16658 24.74864,6.85238 36.94552,8.27771 10.63264,1.24252 32.81546,1.03919 44.76485,-0.41033 14.20607,-1.72327 21.6129,-3.50845 41.69708,-10.04976 9.75043,-3.17566 10.95996,-3.42171 12.16409,-2.47454 1.39788,1.09957 1.0737,3.07757 -0.77828,4.74868 -3.55229,3.20536 -14.12963,9.14321 -22.91229,12.86237 -4.48694,1.90006 -13.85532,5.12874 -18.55295,6.394 -12.78697,3.44405 -24.32202,4.74357 -41.6304,4.69004 -4.28168,-0.0132 -8.39234,-0.16621 -10.18286,-0.37891 z"
         id="path26"
         transform="scale(0.26458333)" /><path
         style="fill:#f3971b;fill-opacity:1;stroke-width:0.947358"
         d="m 415.099,906.3731 c -0.0895,-0.23326 0.10185,-1.14384 0.42525,-2.02352 1.20621,-3.28101 4.76731,-14.44939 5.25246,-16.47281 1.34523,-5.6106 0.15563,-7.81244 -4.58473,-8.48603 -2.55119,-0.36251 -13.4541,-0.33794 -17.27995,0.0389 -3.44137,0.339 -4.52183,0.15341 -4.52183,-0.77674 0,-1.08163 3.25413,-3.3056 6.95977,-4.75653 5.57686,-2.18358 11.04757,-3.04054 17.82098,-2.79159 4.64681,0.1708 7.03664,0.66111 9.88404,2.02786 2.17067,1.04192 2.06673,0.6624 1.48526,5.42321 -0.83692,6.85231 -2.22401,11.88095 -4.57119,16.57194 -2.24179,4.48037 -5.72842,9.26262 -7.97377,10.9368 -1.12502,0.83884 -2.63121,0.99925 -2.89629,0.30847 z"
         id="path27"
         transform="scale(0.26458333)" /><path
         style="fill:#f3971b;fill-opacity:1;stroke-width:0.947358"
         d="m 415.10964,906.40084 c -0.0837,-0.21799 0.91415,-3.65471 2.21733,-7.63714 3.06938,-9.37981 3.6768,-11.55071 3.85236,-13.76828 0.19206,-2.42597 -0.50072,-3.89456 -2.24581,-4.76083 -2.22325,-1.10361 -9.39369,-1.41242 -18.84875,-0.81177 -5.16675,0.32824 -5.69457,0.25168 -5.69457,-0.82592 0,-1.2108 3.94138,-3.68845 8.32226,-5.23158 5.17828,-1.824 7.68863,-2.20433 14.52391,-2.20041 6.78137,0.004 8.16975,0.22607 11.68419,1.86975 2.37139,1.1091 2.28928,0.806 1.61634,5.96633 -0.77318,5.92895 -2.13705,11.06139 -4.02693,15.15382 -2.00078,4.33261 -6.22413,10.28203 -8.43675,11.88485 -1.1652,0.84407 -2.70621,1.03188 -2.96358,0.36118 z"
         id="path28"
         transform="scale(0.26458333)" /><path
         style="fill:#f3971b;fill-opacity:1;stroke-width:0.947358"
         d="m 415.10094,906.37815 c -0.0884,-0.23048 0.90677,-3.72594 2.21159,-7.7677 2.88177,-8.92647 3.34856,-10.52978 3.6879,-12.6672 0.51135,-3.22091 -0.54834,-5.32334 -3.0389,-6.02919 -2.33864,-0.6628 -7.91428,-0.86027 -15.26633,-0.54069 -3.97671,0.17287 -7.47218,0.23756 -7.76769,0.14376 -0.80871,-0.25667 -0.68254,-1.30556 0.25943,-2.15684 1.35362,-1.22331 3.86766,-2.62527 6.62058,-3.69197 5.46466,-2.11744 9.96984,-2.78703 17.25655,-2.56477 5.23036,0.15954 6.66209,0.44022 9.85649,1.93232 l 2.02351,0.94519 -0.001,1.19904 c -0.002,1.84062 -0.9775,8.19104 -1.72804,11.25136 -0.75814,3.09129 -1.93798,6.3108 -3.31419,9.04358 -2.08004,4.13041 -6.56301,10.04654 -8.28922,10.9392 -0.99596,0.51503 -2.30602,0.4962 -2.51027,-0.0361 z"
         id="path29"
         transform="scale(0.26458333)" /><path
         style="fill:#f3971b;fill-opacity:1;stroke-width:0.947358"
         d="m 415.10142,906.37941 c -0.0882,-0.22978 0.19788,-1.5516 0.63568,-2.93737 0.4378,-1.38576 1.56409,-4.93373 2.50287,-7.88436 2.44287,-7.67807 2.85518,-9.40225 2.7392,-11.45473 -0.0708,-1.25353 -0.25677,-1.95352 -0.67492,-2.54075 -1.42221,-1.99731 -3.58248,-2.28786 -15.73119,-2.11583 -5.24156,0.0742 -9.67698,0.0803 -9.85649,0.0134 -0.1795,-0.0668 -0.32637,-0.41146 -0.32637,-0.76583 0,-1.96762 6.87524,-5.46008 13.65851,-6.93819 2.34847,-0.51175 3.42506,-0.58006 9.18766,-0.58294 7.23997,-0.004 8.05973,0.1223 11.75229,1.80505 l 1.95541,0.89111 -0.003,1.51617 c -0.006,3.3436 -1.52023,11.20156 -2.93346,15.22388 -2.14524,6.1058 -7.54935,14.29939 -10.43214,15.81698 -0.95802,0.50433 -2.27237,0.47957 -2.47429,-0.0466 z"
         id="path30"
         transform="scale(0.26458333)" /><path
         style="fill:#f3971b;fill-opacity:1;stroke-width:0.947358"
         d="m 415.1911,906.62313 c -0.33802,-0.33802 -0.14439,-1.08034 2.41019,-9.23989 1.4187,-4.53146 2.78172,-9.14814 3.02893,-10.2593 0.87688,-3.94139 -0.0177,-6.19909 -2.83095,-7.14454 -1.19049,-0.40009 -2.6146,-0.45326 -12.31236,-0.45974 l -10.96616,-0.007 -0.0839,-0.73105 c -0.0653,-0.56926 0.13373,-0.93035 0.8994,-1.63168 2.04531,-1.87343 8.08415,-4.45056 12.89919,-5.50485 1.83968,-0.40281 3.35583,-0.48427 9.00091,-0.48361 7.49613,8.7e-4 8.01996,0.082 11.81474,1.8311 l 1.89296,0.87248 v 1.5853 c 0,1.78538 -0.55253,5.73614 -1.3099,9.36619 -1.12228,5.37907 -3.38313,10.71721 -6.53429,15.42824 -1.80618,2.70027 -4.39245,5.6029 -5.50473,6.17808 -0.75372,0.38977 -2.10235,0.50229 -2.40405,0.20059 z"
         id="path31"
         transform="scale(0.26458333)" /><path
         style="fill:#f3971b;fill-opacity:1;stroke-width:0.947358"
         d="m 415.1911,906.62313 c -0.35008,-0.35007 -0.12861,-1.2235 2.2952,-9.05207 3.11018,-10.0454 3.32099,-10.87253 3.32099,-13.03032 0,-2.18705 -0.53225,-3.20648 -2.14822,-4.11455 l -1.1616,-0.65275 -11.48836,-0.13055 -11.48836,-0.13055 -0.0795,-0.81782 c -0.0658,-0.67635 0.0923,-0.95991 0.91384,-1.63923 1.30645,-1.0803 5.44494,-3.1825 7.9454,-4.03598 4.36142,-1.48868 6.03649,-1.75929 11.85824,-1.91576 7.2704,-0.19541 9.79825,0.10032 13.21744,1.54631 l 2.56792,1.08598 v 1.7803 c 0,3.55089 -1.29666,10.37748 -2.78785,14.67729 -1.90954,5.50613 -5.2,11.03265 -8.67296,14.56676 -1.84509,1.87758 -2.08458,2.03701 -3.05993,2.03701 -0.58199,0 -1.1365,-0.0783 -1.23223,-0.17407 z"
         id="path32"
         transform="scale(0.26458333)" /><path
         style="fill:#f3971b;fill-opacity:1;stroke-width:0.947358"
         d="m 415.10664,905.68752 c 0.0883,-0.61032 1.27672,-4.7399 2.64089,-9.17685 2.79643,-9.09537 3.12931,-10.50895 2.95884,-12.56462 -0.1266,-1.52665 -0.63081,-2.44545 -1.83565,-3.34499 -1.00808,-0.75264 -3.67763,-0.92303 -14.75458,-0.94174 l -9.72594,-0.0164 v -0.89637 c 0,-0.73832 0.19565,-1.05615 1.10967,-1.80261 2.25182,-1.83901 7.88156,-4.25686 12.33693,-5.29843 1.77324,-0.41454 3.17352,-0.48831 9.26902,-0.48831 7.81785,0 7.92836,0.0153 11.68419,1.62133 l 2.15406,0.92108 -5e-5,1.99253 c -1e-4,4.12747 -1.72209,12.26035 -3.52612,16.6537 -1.99635,4.86172 -5.39143,10.0802 -8.42517,12.95007 -1.46997,1.39057 -1.67776,1.50132 -2.81686,1.50132 h -1.22982 z"
         id="path33"
         transform="scale(0.26458333)" /><path
         style="fill:#f3971b;fill-opacity:1;stroke-width:0.947358"
         d="m 415.10167,905.68752 c 0.0856,-0.61032 1.20758,-4.58444 2.49331,-8.83139 2.74909,-9.08065 3.30586,-11.45551 3.06393,-13.06882 -0.22721,-1.51517 -0.97261,-2.70601 -2.04022,-3.25945 -1.09253,-0.56636 -6.58824,-0.85021 -16.85244,-0.87044 l -7.37605,-0.0145 v -0.8935 c 0,-0.72571 0.20486,-1.06886 1.09087,-1.82725 2.50117,-2.14091 10.19638,-5.13615 14.44453,-5.62231 2.9937,-0.34261 11.7146,-0.34338 14.08172,-10e-4 0.99553,0.14389 2.93419,0.71268 4.30813,1.26397 l 2.49807,1.00235 -0.0147,2.97373 c -0.0265,5.34906 -1.91854,13.0067 -4.54762,18.4061 -2.10397,4.32095 -5.60282,9.18783 -7.94101,11.04588 -0.79459,0.63143 -1.27009,0.8066 -2.18956,0.8066 h -1.17453 z"
         id="path34"
         transform="scale(0.26458333)" /></g></g></svg>
