<?xml version="1.0" encoding="UTF-8" standalone="no"?>
<!-- Created with Inkscape (http://www.inkscape.org/) -->

<svg
   width="113.50584mm"
   height="30.167273mm"
   viewBox="0 0 113.50584 30.167273"
   version="1.1"
   id="svg1"
   xml:space="preserve"
   xmlns="http://www.w3.org/2000/svg"
   xmlns:svg="http://www.w3.org/2000/svg"><defs
     id="defs1" /><g
     id="layer1"
     transform="translate(-42.679517,-73.498098)"><g
       id="g45"><g
         id="g35"><path
           style="fill:#685e56;stroke:none"
           d="m 62.460025,73.527972 c -0.345829,0.04738 -0.704503,0.02325 -1.052745,0.04814 -0.907801,0.06489 -1.814975,0.18204 -2.714971,0.327702 -2.871126,0.464681 -5.702289,1.409273 -8.283435,2.799539 -2.706043,1.457541 -5.254457,3.636502 -6.669453,6.497433 -0.782783,1.582682 -1.059905,3.210248 -1.059905,4.972639 0,1.028602 0.01962,2.025636 0.233387,3.035622 0.657552,3.106765 2.485315,5.755033 4.864111,7.700015 5.597385,4.576608 13.512792,5.341528 20.334585,4.405428 2.853499,-0.39157 5.62718,-1.25748 8.200322,-2.60096 3.479177,-1.816543 6.521271,-4.953154 7.606701,-8.926269 0.357653,-1.309151 0.4274,-2.608756 0.4274,-3.960764 0,-1.435998 -0.275002,-2.779694 -0.803732,-4.105319 -0.444972,-1.115631 -1.131672,-2.159022 -1.891423,-3.064533 -3.583546,-4.271066 -9.222235,-6.352738 -14.508901,-6.943362 -1.11519,-0.124589 -2.230115,-0.197579 -3.352159,-0.197579 -0.435085,0 -0.898331,-0.04684 -1.329782,0.01227 m 81.559965,5.162743 c -1.2042,-1.862363 -3.89434,-1.746852 -5.20569,-0.05782 -0.82632,1.064285 -1.05537,2.463396 -1.05537,3.7873 0,0.893768 0.10237,1.767207 0.50754,2.573052 0.19979,0.397361 0.43969,0.821754 0.76683,1.119151 0.7192,0.653808 1.69952,0.925723 2.63186,0.993916 1.91944,0.140393 3.86536,-0.547334 4.54124,-2.604549 0.2967,-0.903087 0.19611,-1.893326 0.19611,-2.833248 v -4.770267 -1.821374 c 0,-0.15258 0.0651,-0.524228 -0.0285,-0.647501 -0.073,-0.0962 -0.36464,-0.05131 -0.4702,-0.04377 -0.48437,0.03461 -1.00851,0.16081 -1.38517,0.497594 -0.46863,0.419023 -0.49868,1.041552 -0.49868,1.63921 v 2.168302 m -65.630284,0.231285 v 0.02891 c -0.595618,0.211581 -1.164067,0.476026 -1.773043,0.652677 -1.597168,0.463305 -3.297262,0.596647 -4.931275,0.289107 -1.394226,-0.262409 -2.58453,-0.915569 -3.906235,-1.394406 -1.194248,-0.43266 -2.476688,-0.661551 -3.740012,-0.645873 -1.173159,0.01456 -2.348008,0.379081 -3.379863,0.947607 -0.311443,0.171597 -0.601798,0.378106 -0.886521,0.593026 -0.127278,0.09607 -0.26113,0.253711 -0.415557,0.297026 -0.483552,0.13563 -1.02814,0.117885 -1.523709,0.240454 -0.794154,0.196418 -1.556735,0.542686 -2.382526,0.580421 -1.08509,0.04958 -2.167311,-0.249935 -3.21364,-0.522912 -1.135762,-0.29631 -2.334483,-0.598575 -3.407567,-1.094948 0.459121,-0.522817 1.265061,-0.884319 1.856154,-1.223083 1.630296,-0.934346 3.3874,-1.628112 5.18061,-2.13493 5.719976,-1.616648 12.164444,-1.451446 17.730428,0.739432 1.151587,0.453287 2.263554,1.014538 3.324455,1.66484 0.50017,0.306591 0.963441,0.689043 1.468301,0.982651 m 73.138004,-1.664551 c -1.15003,0.155646 -2.15627,0.259198 -3.04701,1.146746 -0.35959,0.358308 -0.61855,0.838458 -0.83836,1.298394 -0.95642,2.001316 -0.68873,4.953077 1.00418,6.467317 1.0277,0.919241 2.52393,1.094283 3.82312,0.925589 0.86153,-0.111867 1.69511,-0.457373 2.32465,-1.095282 2.44784,-2.480407 1.58646,-7.886528 -1.9645,-8.627836 -0.40239,-0.084 -0.89366,-0.170203 -1.30208,-0.114928 m -60.892927,9.672813 h 2.133192 V 82.79603 c 0,-0.667236 -0.115634,-1.473221 0.102459,-2.11048 0.414231,-1.210364 1.998251,-1.467559 2.769628,-0.491482 0.443738,0.561494 0.313849,1.377768 0.313849,2.052659 v 4.683532 h 2.133192 v -4.19205 c 0,-0.625806 -0.127179,-1.428288 0.07478,-2.023749 0.38883,-1.146461 1.873247,-1.517737 2.693097,-0.634897 0.52875,0.569381 0.41806,1.384758 0.41806,2.109343 v 4.741353 h 2.13319 v -4.5968 c 0,-1.22562 0.0332,-2.436267 -0.65786,-3.498194 -0.94375,-1.450223 -2.925115,-1.915758 -4.439632,-1.23881 -0.417268,0.186508 -1.019681,0.532651 -1.218967,0.978614 -0.202801,-0.150327 -0.358269,-0.370856 -0.554076,-0.535986 -0.329943,-0.278253 -0.728459,-0.486761 -1.135856,-0.608082 -0.475222,-0.141519 -0.979599,-0.158487 -1.468301,-0.103888 -1.548277,0.172981 -2.781928,1.283652 -3.161137,2.866955 -0.202432,0.845207 -0.135614,1.738031 -0.135614,2.601962 v 4.134229 m 38.785313,-6.389263 h 2.244 c 0.13927,-1.079251 1.07087,-1.405579 1.99468,-1.255005 0.55996,0.09127 1.2469,0.484044 0.98435,1.197184 -0.11448,0.310984 -0.36823,0.433454 -0.65191,0.52994 -0.57241,0.194696 -1.20713,0.206243 -1.80074,0.287701 -0.72577,0.09959 -1.55671,0.32146 -2.1332,0.814788 -1.01337,0.867185 -1.2347,2.545905 -0.58522,3.716049 0.83475,1.503943 2.94894,1.456032 4.38064,1.207111 0.34869,-0.06062 0.6892,-0.136143 1.02504,-0.253058 0.49868,-0.173597 1.02122,-0.454534 1.37727,-0.867745 1.04777,-1.216011 0.81133,-2.939744 0.81133,-4.451823 0,-0.741297 0.0557,-1.506655 -0.15066,-2.226123 -0.34293,-1.195811 -1.50694,-1.671948 -2.59201,-1.857401 -1.8119,-0.309676 -4.16447,0.05875 -4.76106,2.175419 -0.0923,0.327461 -0.14251,0.641816 -0.14251,0.982963 m -16.42835,3.874033 h -1.63453 c -0.25684,0 -0.54767,-0.04007 -0.8009,0.0043 -0.15026,0.02632 -0.24817,0.23322 -0.36268,0.327677 -0.2017,0.166389 -0.44477,0.271072 -0.69257,0.33602 -1.41593,0.371115 -2.82164,-0.600131 -2.82579,-2.171335 h 6.48269 c 0,-1.719683 -0.15486,-3.417426 -1.49601,-4.617033 -1.65409,-1.479525 -4.6704,-1.280549 -6.14776,0.367184 -0.78779,0.878627 -1.08668,2.037129 -1.16357,3.209064 -0.11389,1.736171 0.33081,3.532416 1.79828,4.51879 1.67412,1.125283 4.07844,1.117614 5.65157,-0.193741 0.5366,-0.4473 1.02931,-1.067774 1.19127,-1.780908 m 1.24667,2.544141 h 2.35482 v -4.36553 c 0,-0.742924 -0.004,-1.622706 0.52887,-2.196074 0.59232,-0.636794 1.51589,-0.614771 2.29692,-0.550441 v -2.48632 c -0.7403,-0.0021 -1.43723,-7.75e-4 -2.1609,0.214734 -0.35392,0.105396 -0.71019,0.251543 -1.02504,0.451996 -0.29688,0.18901 -0.55824,0.406112 -0.80339,0.663162 -1.23825,1.298366 -1.19128,3.075276 -1.19128,4.770264 v 3.498194 m 14.15664,-3.498194 h -2.52105 c -0.0268,1.355422 -1.48493,2.113611 -2.57645,1.414639 -0.70819,-0.453496 -0.89159,-1.333227 -0.96493,-2.137406 -0.0825,-0.905032 0.0212,-2.197986 0.6883,-2.859549 0.63927,-0.633953 1.79401,-0.698658 2.43271,-0.02659 0.26349,0.277251 0.37876,0.662925 0.44807,1.035854 h 2.52105 c -0.10718,-0.88419 -0.33439,-1.796163 -0.94663,-2.454821 -0.37102,-0.399151 -0.90998,-0.648386 -1.40819,-0.821723 -1.37008,-0.476675 -3.07279,-0.442586 -4.32179,0.368857 -1.26355,0.820887 -1.92987,2.371215 -1.99359,3.890651 -0.0621,1.481414 0.22919,3.236992 1.3564,4.270507 1.55414,1.424947 4.44673,1.418282 5.98402,-0.02557 0.77714,-0.729909 1.11627,-1.611053 1.30208,-2.654854 m -45.184864,2.457414 c -0.622547,0.08748 -1.250391,0.3159 -1.856154,0.487109 -1.484703,0.419625 -2.935598,0.94171 -4.377199,1.498516 -0.560245,0.216389 -1.112596,0.459137 -1.662228,0.703069 -0.157349,0.06983 -0.465175,0.286312 -0.637187,0.23983 -0.221154,-0.05976 -0.466349,-0.379264 -0.637188,-0.532706 -0.488593,-0.438836 -0.975892,-0.879688 -1.468301,-1.313853 -1.601145,-1.411758 -3.183346,-2.8492 -4.82046,-4.215874 -0.861594,-0.719265 -1.801634,-1.598844 -2.936602,-1.768529 -1.737627,-0.259785 -3.186887,1.308477 -4.432607,2.310558 -1.020588,0.820982 -2.132101,1.22922 -3.324455,0.539221 0.09936,-0.267634 0.367168,-0.483342 0.549373,-0.693857 0.384866,-0.444662 0.780639,-0.880594 1.160352,-1.329892 0.570711,-0.675297 1.244089,-1.335838 1.974879,-1.819835 1.874362,-1.241374 4.205505,-1.300446 6.288762,-0.645671 0.852082,0.267812 1.632694,0.700797 2.465637,1.018433 1.124704,0.428896 2.374146,0.722127 3.57379,0.752793 1.518659,0.03882 3.041827,-0.191981 4.488014,-0.683885 0.462006,-0.157145 0.911013,-0.347263 1.357486,-0.546672 0.127258,-0.05684 0.358675,-0.240274 0.498668,-0.181807 0.170907,0.07138 0.3425,0.295978 0.470965,0.429824 0.291941,0.304169 0.59577,0.600306 0.866619,0.925142 1.105436,1.325777 2.22677,3.037504 2.457836,4.828086 m 68.345254,-6.612183 c 1.01656,-0.11262 1.70725,0.701939 1.99465,1.610633 0.49505,1.565231 0.10845,3.999525 -1.77302,4.187143 -1.20019,0.11968 -1.94693,-0.834337 -2.16641,-1.96102 -0.18505,-0.949944 -0.15668,-2.335759 0.48237,-3.122354 0.37775,-0.464957 0.90063,-0.652165 1.46241,-0.714402 m -40.80769,1.986472 h -4.01705 c 0.14712,-0.623304 0.31519,-1.24974 0.85882,-1.632873 0.74555,-0.525443 1.94975,-0.451151 2.59943,0.221268 0.36339,0.376105 0.51953,0.892651 0.5588,1.411605 m 31.00054,-1.841918 c 2.09433,-0.284712 2.67287,2.461921 2.1879,4.096952 -0.23784,0.801857 -0.70281,1.466734 -1.55071,1.581722 -0.20741,0.02813 -0.45824,0.02936 -0.66489,-0.0043 -1.6368,-0.266787 -1.84386,-2.663618 -1.49179,-4.005894 0.20976,-0.799702 0.66789,-1.552683 1.51949,-1.668454 m -83.720852,1.552811 c -0.440135,0.652037 -1.056618,1.235752 -1.576658,1.821374 -0.162594,0.183099 -0.347733,0.372013 -0.438579,0.607124 -0.473271,1.224833 1.259813,1.827718 2.126052,1.849861 0.390012,0.01 0.784938,0.0017 1.163559,-0.107857 0.869289,-0.251465 1.616475,-0.944281 2.299415,-1.528475 0.758268,-0.648632 1.743981,-1.466535 2.770379,-1.513372 1.09845,-0.05012 2.041478,0.891252 2.825787,1.567267 1.760363,1.5173 3.492107,3.068578 5.236017,4.606214 0.472426,0.416546 0.944574,0.833863 1.412894,1.255429 0.350224,0.315261 0.682128,0.588088 0.739879,1.098606 0.09859,0.871507 -0.992183,1.313951 -1.654104,1.057003 -0.362257,-0.140622 -0.63081,-0.498908 -0.914226,-0.759641 -0.645726,-0.594046 -1.285165,-1.195402 -1.939265,-1.779638 -0.254377,-0.227206 -0.786349,-0.894975 -1.124249,-0.45347 -0.31086,0.406172 0.472772,0.966781 0.708692,1.212979 0.605219,0.631585 1.223157,1.247532 1.82845,1.879195 0.34903,0.364235 0.685345,0.752537 0.496166,1.300981 -0.239713,0.694949 -1.191566,1.068981 -1.825948,0.765597 -0.233497,-0.111665 -0.395131,-0.353159 -0.581779,-0.529402 -0.440564,-0.416004 -0.874185,-0.847007 -1.302079,-1.277292 -0.232956,-0.234259 -0.796284,-0.92219 -1.162342,-0.623276 -0.381334,0.31139 0.170232,0.766705 0.366842,0.999427 0.451873,0.534873 0.909146,1.071663 1.378264,1.590088 0.234326,0.258954 0.508393,0.539016 0.376117,0.925142 -0.18842,0.550011 -1.040234,0.848045 -1.54066,0.612791 -0.21507,-0.101106 -0.389769,-0.354595 -0.554076,-0.526059 -0.320271,-0.334223 -0.653243,-0.658683 -0.997337,-0.96621 -0.201941,-0.180482 -0.52342,-0.593001 -0.831092,-0.487801 -0.275294,0.09413 -0.290991,0.399911 -0.144376,0.615601 0.332045,0.488479 0.78247,0.909551 1.161485,1.358803 0.08641,0.102426 0.430423,0.390164 0.347261,0.543146 -0.08022,0.147568 -0.360188,0.201396 -0.505574,0.229903 -0.423484,0.08303 -0.899098,-0.01314 -1.302078,-0.161998 -0.117014,-0.04322 -0.316502,-0.09216 -0.397728,-0.195839 -0.08064,-0.102936 0.03614,-0.329747 0.05944,-0.444123 0.07122,-0.349511 0.07613,-0.689884 0.01125,-1.040785 -0.165371,-0.894294 -0.800323,-1.645456 -1.612228,-1.964053 -0.273309,-0.107247 -0.560594,-0.09189 -0.831114,-0.175338 0.184629,-1.167615 -0.869757,-2.196104 -1.883858,-2.387318 -0.217048,-0.04093 -0.444759,-0.06112 -0.664891,-0.0329 -0.119662,0.01534 -0.29641,0.0972 -0.413056,0.0584 -0.172697,-0.05745 -0.334936,-0.372771 -0.473871,-0.500317 -0.284348,-0.261038 -0.631058,-0.427553 -0.996931,-0.523447 -0.427048,-0.111928 -0.879271,-0.108488 -1.302078,0.02389 -0.17114,0.05358 -0.469286,0.289437 -0.637187,0.267625 -0.158337,-0.02057 -0.357506,-0.279876 -0.498669,-0.369303 -0.334639,-0.211993 -0.768532,-0.349441 -1.163559,-0.321342 -0.332089,0.02362 -0.651277,0.128839 -0.941929,0.295534 -0.119351,0.06845 -0.300655,0.278124 -0.443261,0.24913 -0.184474,-0.03751 -0.390281,-0.236041 -0.554075,-0.332607 -0.338851,-0.19977 -0.697014,-0.372689 -1.052745,-0.536698 -1.152528,-0.531374 -2.361128,-0.932908 -3.573789,-1.284675 -0.861857,-0.250006 -1.736705,-0.441213 -2.604157,-0.666418 -0.248868,-0.06461 -0.795727,-0.106574 -0.980513,-0.295689 -0.09145,-0.0936 0.0022,-0.328716 0.02824,-0.437875 0.09887,-0.414625 0.229556,-0.817675 0.381569,-1.214249 0.544125,-1.419529 1.449249,-2.685543 2.482268,-3.758367 0.246357,-0.255851 0.509801,-0.500951 0.775706,-0.734636 0.101001,-0.08876 0.215363,-0.225336 0.36015,-0.191624 0.503853,0.117318 1.004281,0.398624 1.496005,0.569672 1.612276,0.560838 3.362373,1.214921 5.069794,1.336941 0.695432,0.0497 1.399272,2.84e-4 2.077784,-0.167531 0.479739,-0.118654 0.951649,-0.339329 1.440598,-0.408096 m 76.62868,1.329892 c 3.7e-4,0.574702 0.11587,1.177687 -0.0747,1.734642 -0.34126,0.997136 -1.63804,1.627611 -2.58481,1.159595 -0.67595,-0.334143 -0.72879,-1.474641 -0.16513,-1.94942 0.50025,-0.421375 1.27686,-0.454703 1.88276,-0.581962 0.34249,-0.07193 0.62556,-0.220627 0.94193,-0.362855 m -51.307413,4.712443 c 0,0.937556 0.04448,1.794686 -0.176612,2.717605 -0.944637,3.943161 -4.181135,6.704268 -7.525043,8.449061 -3.785561,1.975241 -8.06724,2.797201 -12.27278,2.797201 -3.690443,0 -7.413197,-0.62993 -10.832184,-2.127125 -3.706881,-1.623262 -7.477286,-4.430033 -8.631741,-8.656566 -0.278723,-1.020425 -0.309625,-2.015684 -0.28888,-3.064533 1.780062,0.383423 3.566236,0.826144 5.291424,1.42626 1.013987,0.352721 2.060731,0.743764 2.964285,1.350728 0.301774,0.202719 0.03935,0.930681 0.110943,1.299419 0.202829,1.044674 1.298761,2.081252 2.38242,1.821374 0.374531,0.881735 0.853858,1.603827 1.800746,1.874621 0.180138,0.05152 0.394436,0.09689 0.58178,0.08829 0.106953,-0.0049 0.251531,-0.06466 0.354336,-0.01684 0.160841,0.07482 0.295094,0.404891 0.421776,0.540247 0.297227,0.31758 0.646506,0.532981 1.052338,0.66421 0.228092,0.07376 0.480265,0.131251 0.720299,0.113792 0.130012,-0.0095 0.33728,-0.118217 0.46017,-0.06556 0.08241,0.03531 0.130773,0.168639 0.177124,0.241613 0.112325,0.17684 0.238955,0.343784 0.387768,0.488895 0.445721,0.434633 0.982604,0.643453 1.579095,0.717099 0.41506,0.05125 0.915023,-0.09879 1.274374,-0.309874 0.161894,-0.0951 0.450843,-0.411825 0.637187,-0.382353 0.270927,0.04285 0.566224,0.244108 0.831114,0.334191 0.570179,0.193902 1.213563,0.261045 1.800747,0.116089 0.29695,-0.07331 0.56867,-0.226408 0.80341,-0.428151 0.104765,-0.09004 0.22195,-0.296022 0.36124,-0.319422 0.23417,-0.03934 0.500714,0.06873 0.746912,0.03536 0.831305,-0.112678 1.712275,-0.773451 1.939265,-1.639543 1.267408,0 2.709047,-0.768637 2.77038,-2.255034 1.177752,0 2.417061,-0.625603 2.544045,-1.994838 0.04008,-0.432155 -0.111221,-0.781991 -0.216927,-1.185338 1.938153,-0.68424 3.812728,-1.4912 5.790093,-2.064928 0.689403,-0.200028 1.44657,-0.505053 2.160896,-0.565945 m 7.202986,14.050592 h 2.244008 V 88.462529 c -0.782169,0 -1.808616,0.232508 -2.113909,1.098606 -0.164681,0.467191 -0.130099,0.983908 -0.130099,1.474445 v 2.226124 7.834796 m 4.044754,-9.974188 h 2.382527 v -2.457408 h -1.773043 l -0.581012,0.04635 -0.02847,0.647501 v 1.763552 m -40.419835,-1.49499 c 0.403622,-0.04469 0.820162,0.226652 0.993703,0.598759 0.07052,0.151216 0.07263,0.584653 0.2811,0.606053 0.194569,0.01997 0.475178,-0.495771 0.636759,-0.612589 0.382447,-0.276499 0.830843,-0.285685 1.274375,-0.212055 0.43298,0.07188 0.784651,0.390841 0.921171,0.825715 0.07031,0.223974 -0.01839,0.581281 0.215902,0.713555 0.254376,0.143616 0.53786,-0.305911 0.746785,-0.416551 0.408049,-0.216089 0.847218,-0.166323 1.24667,0.04937 0.564323,0.304713 0.668692,0.995086 0.559484,1.590646 -0.04446,0.242455 -0.257654,0.616745 -0.0801,0.836716 0.173086,0.21443 0.475087,0.05016 0.684173,-0.01716 0.378795,-0.121957 0.845462,-0.149011 1.218967,0.0033 1.316163,0.536874 1.274291,2.649627 -0.138519,3.025228 -0.736386,0.19577 -1.639726,-0.05076 -2.013421,-0.783601 -0.143216,-0.280852 -0.08152,-0.926204 -0.396831,-1.048124 -0.251609,-0.09729 -0.484651,0.276646 -0.692573,0.373096 -0.358122,0.166123 -0.744364,0.06607 -1.080448,-0.11348 -0.321813,-0.171922 -0.504627,-0.496588 -0.560896,-0.859401 -0.03648,-0.235214 0.08933,-0.582174 -0.214917,-0.674561 -0.235048,-0.07138 -0.488482,0.231322 -0.692488,0.320918 -0.407268,0.178864 -0.842907,0.05294 -1.191264,-0.208041 -0.360657,-0.270194 -0.575488,-0.687416 -0.629256,-1.144047 -0.02527,-0.214575 0.11762,-0.619328 -0.09406,-0.757858 -0.178835,-0.117035 -0.463069,0.250024 -0.634173,0.313 -0.349431,0.128607 -0.796071,0.0027 -1.080043,-0.227003 -0.556928,-0.450519 -0.655361,-1.361074 -0.111114,-1.866947 0.246367,-0.228999 0.51572,-0.280076 0.831007,-0.314985 m 66.461393,8.953949 h -1.66222 c -0.23626,0 -0.54498,-0.05524 -0.77321,0.0092 -0.19827,0.05598 -0.38758,0.383659 -0.58428,0.498487 -0.56022,0.327049 -1.3388,0.355714 -1.93927,0.13717 -0.62427,-0.227213 -1.09941,-0.787221 -1.27008,-1.454346 -0.0367,-0.143389 -0.13678,-0.491539 -0.0578,-0.626846 0.0662,-0.113412 0.30671,-0.06701 0.4137,-0.06701 h 1.16356 4.87587 c 0,-1.653108 -0.12507,-3.390237 -1.4129,-4.559524 -1.76238,-1.600162 -4.88161,-1.364641 -6.39128,0.483116 -0.67446,0.825508 -0.93368,1.918729 -1.00315,2.977802 -0.12354,1.88308 0.36756,3.742101 2.0199,4.728992 1.76147,1.05208 4.27045,0.90376 5.73468,-0.62367 0.40192,-0.419269 0.75597,-0.914338 0.88652,-1.50336 m -14.12893,2.51523 h 2.35482 v -3.816211 c 0,-0.776245 -0.0608,-1.625226 0.28739,-2.341766 0.45405,-0.934318 1.67802,-1.097191 2.5661,-0.925142 V 91.49811 c -0.70863,0 -1.41768,0.03489 -2.10549,0.231598 -0.38593,0.110372 -0.76364,0.265845 -1.10815,0.479726 -0.29148,0.180955 -0.56525,0.394389 -0.803,0.6475 -1.22977,1.309201 -1.19167,3.042332 -1.19167,4.741332 v 3.498194 M 94.596425,91.729437 v 9.367063 h 2.382527 v -9.367063 h -2.382527 m 3.185937,0 0.265279,0.867321 0.417782,1.243159 1.570177,4.683532 0.59101,1.763551 0.28613,0.79206 0.55422,0.0464 h 1.32978 l 0.51225,-0.0297 0.25493,-0.66415 0.62755,-1.85028 2.31758,-6.851834 h -1.41289 c -0.36001,0 -0.71471,-0.01532 -1.02502,0.208755 -0.48994,0.353766 -0.55313,1.173603 -0.71256,1.728261 -0.43958,1.529241 -0.97215,3.091554 -1.28214,4.654622 l -0.42723,-1.532267 -0.89449,-3.295819 -0.34439,-1.27207 -0.15479,-0.461769 -0.672435,-0.02971 h -1.800743 m 20.583908,3.960765 h -3.98934 c 0.12749,-0.70614 0.3813,-1.393173 1.02504,-1.749409 1.28951,-0.713601 2.9643,0.196149 2.9643,1.749409 z"
           id="path2" /><path
           style="fill:#2d3277;fill-opacity:1;stroke-width:3.78943"
           d="m 223.50083,390.4558 c -40.4819,-5.14211 -66.42524,-32.16403 -61.20841,-63.75312 1.67837,-10.1629 6.19094,-18.2358 14.6584,-26.22357 31.05933,-29.29981 94.83235,-29.57167 125.9226,-0.53681 10.99517,10.26829 14.41769,17.41171 14.97362,31.25269 0.33064,8.23185 -0.0158,11.60969 -1.78973,17.44992 -6.78688,22.34436 -30.81876,38.25811 -63.31338,41.9257 -10.85902,1.22563 -18.94004,1.1939 -29.2431,-0.11481 z m 32.94569,-9.72182 c 25.20315,-3.7993 47.50154,-17.37355 55.44677,-33.75348 2.99647,-6.17754 4.08886,-17.99563 1.66339,-17.99563 -1.2825,0 -20.14349,6.19388 -27.08596,8.89493 -1.2876,0.50096 -1.62749,1.46955 -1.22386,3.48768 0.72406,3.6203 -2.71685,8.10541 -6.92794,9.03031 -2.15329,0.47295 -3.12046,1.31182 -3.12046,2.70654 0,1.95955 -5.45561,6.15598 -8.01374,6.16414 -0.67383,0.002 -2.63509,1.41383 -4.35834,3.13709 -1.72326,1.72325 -4.03709,3.13319 -5.14186,3.13319 -1.10477,0 -3.47134,0.72967 -5.25903,1.62149 -2.67847,1.3362 -3.9659,1.40711 -7.31722,0.40302 -3.00722,-0.90098 -4.63336,-0.91528 -6.24101,-0.0549 -3.4827,1.86388 -7.14171,1.35834 -10.47618,-1.44742 -1.70664,-1.43605 -4.05653,-2.61099 -5.22198,-2.61099 -1.16545,0 -3.51534,-1.17495 -5.22198,-2.611 -1.70664,-1.43604 -4.07256,-2.61099 -5.25759,-2.61099 -1.21058,0 -3.43249,-1.60155 -5.07122,-3.65535 -1.60413,-2.01045 -3.72076,-3.65537 -4.70362,-3.65539 -2.82492,-5e-5 -6.04596,-4.21468 -6.04596,-7.91094 0,-2.79938 -0.60016,-3.62424 -3.71097,-5.10042 -5.0644,-2.40322 -14.62683,-5.65878 -20.31015,-6.91467 -2.58488,-0.5712 -5.59241,-1.31023 -6.6834,-1.6423 -1.84165,-0.56055 -1.94146,-0.13878 -1.39453,5.89287 1.64089,18.09603 17.6867,33.90241 42.52424,41.88972 15.9433,5.12708 31.48351,6.26606 49.1526,3.60249 z m -16.29456,-17.51641 c 2.21458,-3.16176 2.04151,-5.61829 -0.58055,-8.24036 -1.67585,-1.67585 -3.03818,-2.07138 -5.6658,-1.64497 -3.40315,0.55225 -3.45047,0.50615 -2.90846,-2.83387 0.38205,-2.35433 0.015,-3.93125 -1.19738,-5.1436 -1.94085,-1.94084 -5.30232,-2.31651 -6.29894,-0.70395 -1.01008,1.63435 -2.02651,1.24024 -3.14663,-1.22007 -1.76147,-3.86904 -4.30802,-4.76318 -7.83131,-2.74971 -2.97286,1.69891 -3.15131,1.6878 -4.19433,-0.2611 -1.21544,-2.27107 -5.14947,-2.70612 -7.07337,-0.78222 -3.42025,3.42025 0.99466,10.29689 5.17457,8.05987 1.54403,-0.82633 1.92733,-0.65496 1.92733,0.86168 0,1.04124 0.76757,2.98902 1.70571,4.32841 1.37774,1.96699 2.36397,2.32843 5.12903,1.87973 2.96443,-0.48106 3.5079,-0.21849 4.05437,1.95881 0.7378,2.93962 5.08418,4.45801 7.35836,2.57061 1.23799,-1.02745 1.63281,-0.76386 2.19179,1.4633 1.27037,5.06156 8.44422,6.61403 11.35561,2.45744 z m 12.06978,0.10916 c 0,-0.64219 -1.43891,-2.80645 -3.19758,-4.80946 -4.42086,-5.03508 -2.88407,-5.73024 2.03946,-0.92254 3.11175,3.03855 4.70764,3.8529 7.03051,3.58753 4.62567,-0.52845 4.37694,-3.78361 -0.73265,-9.58842 -5.82239,-6.61458 -4.30977,-7.58219 2.05412,-1.314 5.65861,5.57353 9.58832,6.19813 12.3809,1.96784 1.45744,-2.20778 1.20492,-2.66839 -5.01214,-9.14282 -3.60079,-3.74985 -6.2572,-7.1076 -5.90314,-7.46166 0.71295,-0.71294 7.16498,4.15673 11.105,8.38149 4.31836,4.63043 12.25599,2.63726 9.88823,-2.48298 -1.33765,-2.89263 -32.85232,-30.28106 -35.65799,-30.98926 -3.75313,-0.94736 -6.74958,0.28143 -14.32776,5.87553 -5.83831,4.30976 -7.87866,5.24612 -11.43142,5.24612 -4.48992,0 -8.967,-2.28224 -8.967,-4.57102 0,-0.72566 1.70078,-3.30636 3.77951,-5.73489 2.07873,-2.42854 3.57974,-4.6153 3.33556,-4.85947 -0.24417,-0.24417 -2.2882,0.0653 -4.54229,0.68765 -5.57343,1.5389 -13.17956,0.47722 -24.03775,-3.35524 l -9.10423,-3.2134 -4.60619,4.51791 c -4.55478,4.46748 -10.77806,15.21849 -10.77806,18.61961 0,1.34853 2.45276,2.40033 10.53982,4.51976 5.7969,1.51923 13.39469,4.13244 16.88397,5.80713 5.27103,2.52985 6.76889,2.85138 8.85513,1.90082 1.82894,-0.83332 3.35465,-0.82563 5.61698,0.0283 1.70831,0.64481 4.75986,0.904 6.78124,0.57597 2.77104,-0.44967 4.41937,-0.0462 6.69986,1.63979 1.66354,1.22991 4.23996,2.2362 5.72538,2.2362 3.22703,0 7.82779,4.26898 7.82779,7.26331 0,1.40688 0.68148,2.13626 1.99595,2.13626 2.912,0 7.58892,6.00056 7.24351,9.29352 -0.15682,1.49506 0.0778,3.30549 0.52132,4.02316 1.00061,1.61902 7.99396,1.73909 7.99396,0.13725 z m 41.25365,-31.50817 c 5.16977,-1.99435 11.92113,-4.2555 15.00304,-5.02478 3.0819,-0.76928 5.82735,-1.98211 6.10098,-2.69519 0.88611,-2.30917 -4.64162,-12.66475 -9.57657,-17.94061 l -4.80682,-5.13887 -7.50848,2.6112 c -10.54084,3.66574 -21.83669,3.07287 -33.67723,-1.76757 -10.90219,-4.45684 -19.53142,-4.78747 -27.02537,-1.03546 -5.50692,2.75716 -16.95718,14.78859 -15.82211,16.62518 1.36671,2.21137 7.4848,1.13825 11.62141,-2.03842 9.39193,-7.21243 11.85737,-8.57037 15.56013,-8.57037 4.84743,0 8.29931,2.383 25.06551,17.30393 7.46744,6.64558 14.04713,11.90606 14.62155,11.68996 0.57442,-0.2161 5.2742,-2.02466 10.44396,-4.019 z m -76.24093,-28.72635 c 4.02092,-0.98111 8.9557,-2.7843 10.96616,-4.00707 9.37363,-5.7011 18.31536,-5.78335 32.02359,-0.29459 10.51836,4.21155 19.05745,4.98539 28.07551,2.54431 3.72151,-1.00736 7.00148,-2.21195 7.2888,-2.67686 1.50311,-2.43208 -17.17083,-11.47773 -30.5193,-14.78354 -12.3593,-3.06085 -34.58158,-3.28097 -46.79037,-0.46349 -10.7041,2.47023 -22.71453,7.0752 -29.23,11.20718 -4.68392,2.97046 -4.94657,3.34377 -3.08839,4.38958 2.53663,1.42764 19.05349,5.85411 21.87443,5.86228 1.14883,0.003 5.37864,-0.79669 9.39957,-1.7778 z"
           id="path3"
           transform="scale(0.26458333)" /><path
           style="fill:#2d3277;fill-opacity:1;stroke-width:3.78943"
           d="m 343.08422,359.83131 c 0,-21.0949 0.11921,-22.48157 2.02014,-23.49892 5.2935,-2.83299 5.29064,-2.84511 5.29064,22.41778 v 23.49892 h -3.65539 -3.65539 z"
           id="path4"
           transform="scale(0.26458333)" /><path
           style="fill:#2d3277;fill-opacity:1;stroke-width:3.78943"
           d="m 343.08585,315.66882 c 0.002,-14.25587 1.42482,-18.43462 7.30915,-21.46482 4.33876,-2.23429 10.65705,-1.80466 13.67897,0.93013 1.94181,1.75732 2.21045,1.73349 6.28686,-0.55758 5.71913,-3.21433 11.49082,-2.50167 15.96832,1.9717 l 3.23072,3.22773 0.34201,14.08225 0.34202,14.08225 h -3.7363 -3.73631 v -11.93596 c 0,-13.22935 -0.82101,-15.21835 -6.28176,-15.21835 -5.05618,0 -6.251,3.0388 -6.251,15.89833 v 11.25598 h -3.65539 -3.65538 v -11.84869 c 0,-12.98941 -0.97576,-15.30562 -6.44785,-15.30562 -5.03929,0 -6.08491,2.66128 -6.08491,15.48708 v 11.66723 h -3.65539 -3.65539 z"
           id="path5"
           transform="scale(0.26458333)" /><path
           style="fill:#2d3277;fill-opacity:1;stroke-width:3.78943"
           d="m 403.73346,327.15556 c -7.21545,-3.67925 -10.24884,-11.40128 -8.29311,-21.11155 1.52135,-7.55357 5.90084,-12.09302 12.64219,-13.10395 10.59544,-1.58888 17.33162,3.87559 19.0061,15.41798 l 0.71968,4.96089 h -12.66713 c -12.64249,0 -12.6658,0.005 -11.9838,2.34989 0.81355,2.7977 4.22979,5.95744 6.62281,6.12554 3.07747,0.2162 5.86639,-0.30507 7.11789,-1.33039 0.67557,-0.55347 3.18949,-0.86009 5.5865,-0.68139 l 4.3582,0.32492 -2.36757,2.99865 c -4.52908,5.73631 -13.86074,7.55813 -20.74176,4.04941 z m 14.71415,-21.66961 c -0.59318,-3.48665 -3.39035,-5.74418 -7.11729,-5.74418 -3.97804,0 -7.6711,3.03883 -7.6711,6.31214 0,1.98173 0.54207,2.11258 7.57187,1.82769 6.91372,-0.28018 7.54099,-0.48841 7.21652,-2.39565 z"
           id="path6"
           transform="scale(0.26458333)" /><path
           style="fill:#2d3277;fill-opacity:1;stroke-width:3.78943"
           d="m 432.04795,316.10903 c 0.62106,-16.22537 3.76746,-21.19215 14.69262,-23.19316 l 3.91649,-0.71734 v 4.81602 c 0,4.58204 -0.14252,4.81602 -2.93358,4.81602 -6.04849,0 -6.95241,1.78964 -7.34169,14.53547 l -0.35351,11.57444 h -4.2166 -4.2166 z"
           id="path7"
           transform="scale(0.26458333)" /><path
           style="fill:#2d3277;fill-opacity:1;stroke-width:3.78943"
           d="m 461.13655,327.15556 c -5.37646,-2.71221 -7.8685,-7.75596 -7.8685,-15.92543 0,-10.78778 5.18504,-17.51054 14.24114,-18.46461 8.29792,-0.8742 15.1137,3.05692 17.07506,9.84834 0.62668,2.16996 0.3449,2.3499 -3.68011,2.3499 -3.40539,0 -4.80797,-0.57109 -6.41256,-2.611 -2.79728,-3.55616 -7.32274,-3.49356 -10.18157,0.14085 -3.52135,4.47667 -2.67746,15.66792 1.38605,18.3812 3.34127,2.23103 10.02651,-0.59857 10.02651,-4.24383 0,-0.74968 1.78167,-1.22326 4.60201,-1.22326 4.24901,0 4.55727,0.18025 4.01873,2.34989 -2.32496,9.36669 -13.94249,14.07139 -23.20676,9.39795 z"
           id="path8"
           transform="scale(0.26458333)" /><path
           style="fill:#2d3277;fill-opacity:1;stroke-width:3.78943"
           d="m 494.52171,328.30769 c -5.14393,-2.10071 -7.49783,-8.45 -5.19438,-14.01102 1.52402,-3.67931 4.87708,-5.64529 11.46075,-6.71971 6.198,-1.01148 8.35518,-2.24162 8.35518,-4.76459 0,-4.29262 -9.48405,-4.69854 -11.10467,-0.47528 -0.39851,1.03849 -2.00448,1.58227 -4.67302,1.58227 -4.61488,0 -4.56579,0.0851 -2.62774,-4.55336 2.59267,-6.20514 12.09003,-8.72902 20.15963,-5.35733 5.82592,2.43423 6.53056,4.04083 6.56775,14.97483 0.0378,11.10277 -1.54736,15.81122 -6.02239,17.8888 -3.15105,1.46291 -14.49701,2.42537 -16.92111,1.43539 z m 12.53275,-7.67799 c 1.28734,-1.28734 2.0888,-3.48132 2.0888,-5.71807 0,-3.52678 -0.0959,-3.61159 -3.39429,-3.00294 -7.81204,1.44154 -11.26064,5.42773 -8.04637,9.3007 1.80358,2.17317 6.9159,1.85628 9.35186,-0.57969 z"
           id="path9"
           transform="scale(0.26458333)" /><path
           style="fill:#2d3277;fill-opacity:1;stroke-width:3.78943"
           d="m 530.06735,327.62043 c -6.91499,-2.38169 -10.35928,-11.23536 -8.3967,-21.58401 1.30486,-6.88048 4.26203,-11.03606 8.95577,-12.58513 4.40123,-1.45254 8.46274,-0.62733 11.67642,2.37237 l 2.34989,2.19343 v -6.28657 c 0,-6.85399 1.8053,-9.74349 6.08752,-9.74349 2.24015,0 2.26766,0.21979 2.26766,18.12249 0,17.10234 -0.13346,18.32226 -2.37071,21.67123 -4.30497,6.44413 -12.25883,8.7022 -20.56985,5.83968 z m 11.03475,-6.74562 c 5.71473,-3.81583 4.13431,-19.11597 -2.13717,-20.69001 -3.93735,-0.98822 -6.49142,0.35791 -8.42993,4.443 -2.16365,4.55957 -1.61779,11.99551 1.10113,14.99989 1.85486,2.04959 7.20793,2.75485 9.46597,1.24712 z"
           id="path10"
           transform="scale(0.26458333)" /><path
           style="fill:#2d3277;fill-opacity:1;stroke-width:3.78943"
           d="m 565.56148,327.15556 c -12.42529,-6.24269 -12.00486,-27.99983 0.64319,-33.28453 12.17977,-5.08903 23.38131,3.19566 23.33993,17.26227 -0.0315,10.70332 -6.50501,17.84833 -16.17096,17.84833 -2.29768,0 -5.81315,-0.82173 -7.81216,-1.82607 z m 12.65734,-7.47798 c 2.13237,-1.72669 2.46559,-2.91165 2.46559,-8.76772 0,-5.193 -0.46372,-7.28361 -1.98956,-8.96964 -2.1328,-2.35672 -6.76794,-2.89503 -10.00602,-1.16207 -4.57157,2.44663 -5.16526,14.1594 -0.9472,18.68696 2.57005,2.75862 7.21646,2.85285 10.47719,0.21247 z"
           id="path11"
           transform="scale(0.26458333)" /><path
           style="fill:#2d3277;fill-opacity:1;stroke-width:3.78943"
           d="m 357.70577,364.49435 v -17.75474 h 4.17759 4.17759 v 17.75474 17.75474 h -4.17759 -4.17759 z"
           id="path12"
           transform="scale(0.26458333)" /><path
           style="fill:#2d3277;fill-opacity:1;stroke-width:3.78943"
           d="m 357.70577,339.42884 v -4.17759 h 4.17759 4.17759 v 4.17759 4.17758 h -4.17759 -4.17759 z"
           id="path13"
           transform="scale(0.26458333)" /><path
           style="fill:#2d3277;fill-opacity:1;stroke-width:3.78943"
           d="m 382.05225,380.9964 c -0.8803,-1.12542 -11.81372,-32.42367 -11.81372,-33.81821 0,-0.24122 1.86679,-0.43858 4.14841,-0.43858 4.64095,0 3.7932,-1.66934 9.28172,18.27694 1.10641,4.02093 2.26495,6.60581 2.57452,5.74418 0.30956,-0.86163 1.81124,-6.03139 3.33705,-11.48836 1.52581,-5.45697 3.26042,-10.50924 3.85469,-11.22726 1.16438,-1.40686 8.1355,-1.83307 8.1355,-0.4974 0,0.44446 -2.50557,8.3166 -5.56793,17.49364 l -5.56793,16.68554 -3.65993,0.31391 c -2.10971,0.18095 -4.10994,-0.26142 -4.72238,-1.0444 z"
           id="path14"
           transform="scale(0.26458333)" /><path
           style="fill:#2d3277;fill-opacity:1;stroke-width:3.78943"
           d="m 402.79693,369.9205 c 0.37191,-10.43125 0.79608,-12.90545 2.75618,-16.07695 2.59443,-4.19788 7.75878,-7.10394 12.6244,-7.10394 3.07959,0 3.23645,0.20247 3.23645,4.17759 0,3.92248 -0.1867,4.17758 -3.05739,4.17758 -2.059,0 -3.76424,0.89862 -5.22198,2.75184 -1.87365,2.38196 -2.1646,4.20689 -2.1646,13.57715 v 10.82532 h -4.30631 -4.30631 z"
           id="path15"
           transform="scale(0.26458333)" /><path
           style="fill:#2d3277;fill-opacity:1;stroke-width:3.78943"
           d="m 436.32277,382.19385 c -8.53085,-1.81005 -13.51831,-9.58758 -12.49656,-19.48734 0.71106,-6.88954 3.33309,-11.58515 7.98685,-14.30309 4.38199,-2.55922 11.8662,-2.67697 16.48386,-0.25933 4.17189,2.18424 7.58212,8.57995 7.58212,14.21986 v 4.21919 h -12.01056 c -11.40326,0 -12.01056,0.10802 -12.01056,2.13627 0,5.47652 8.52671,9.20142 13.11644,5.72992 2.68561,-2.03129 9.86028,-2.12301 9.86028,-0.12605 0,2.03495 -5.82995,6.75688 -9.21896,7.46682 -5.19411,1.08809 -5.91913,1.11959 -9.29291,0.40375 z m 11.2011,-21.54867 c 0,-0.96821 -1.02188,-2.84813 -2.27085,-4.17759 -3.21024,-3.41714 -8.40102,-3.26247 -11.2305,0.33463 -3.79564,4.82537 -3.00863,5.60334 5.66837,5.60334 6.64961,0 7.83298,-0.26595 7.83298,-1.76038 z"
           id="path16"
           transform="scale(0.26458333)" /><path
           style="fill:#ffd100;fill-opacity:1;stroke-width:3.78943"
           d="m 220.20218,379.72716 c -30.39454,-5.79028 -52.58586,-23.56552 -54.40021,-43.57457 l -0.5657,-6.23855 3.02237,0.65934 c 6.21352,1.35552 17.80971,4.94246 22.60481,6.99214 4.23227,1.80909 4.96088,2.55006 4.96088,5.04499 0,3.40645 4.58173,9.35108 7.20721,9.35108 0.98975,0 2.83703,1.40328 4.10507,3.1184 1.26804,1.71511 3.58882,3.43152 5.15729,3.81423 1.56847,0.38271 4.18026,1.79931 5.80398,3.14799 1.62373,1.34868 3.94333,2.45214 5.15467,2.45214 1.21135,0 3.3042,1.03504 4.65079,2.30009 1.82993,1.71914 3.5616,2.24852 6.85589,2.0959 2.42415,-0.11231 6.75744,-0.18801 9.62953,-0.16823 6.69303,0.0461 15.89835,-2.87582 19.60283,-6.22228 1.59087,-1.43712 4.41074,-3.10369 6.26638,-3.7035 2.21368,-0.71553 3.91261,-2.25001 4.94049,-4.46224 0.86162,-1.85443 2.32567,-3.38186 3.25344,-3.39429 0.92777,-0.0124 2.92518,-0.99667 4.43868,-2.1872 2.09334,-1.64661 2.75184,-3.09595 2.75184,-6.05664 v -3.89205 l 13.03396,-4.50712 c 7.16869,-2.47891 13.7777,-4.22171 14.68671,-3.87289 2.40038,0.92111 1.09548,8.94464 -2.77123,17.0397 -6.18145,12.941 -24.06239,25.33396 -44.27077,30.68325 -10.76382,2.84926 -35.08352,3.68259 -46.11891,1.58031 z"
           id="path17"
           transform="scale(0.26458333)" /><path
           style="fill:#ffd100;fill-opacity:1;stroke-width:3.78943"
           d="m 195.30213,301.29299 c -4.59534,-1.38295 -8.7652,-2.53271 -9.26635,-2.55503 -4.96635,-0.22119 16.1568,-10.49184 28.06549,-13.64621 10.54004,-2.79185 31.38129,-3.84752 42.28899,-2.14207 10.6215,1.66071 25.20108,6.6837 32.80204,11.30104 l 6.2741,3.81131 -3.60649,1.5859 c -2.36987,1.04211 -7.00857,1.59868 -13.52826,1.62317 -8.88378,0.0334 -10.8505,-0.3331 -18.79914,-3.50299 -12.28695,-4.89997 -20.92271,-4.99813 -29.81472,-0.33888 -6.85305,3.59087 -17.12464,6.52089 -22.55585,6.43417 -1.92755,-0.0308 -7.26446,-1.18746 -11.85981,-2.57041 z"
           id="path18"
           transform="scale(0.26458333)" /></g><g
         id="g44"><path
           style="fill:#f9f9f9;fill-opacity:1;stroke-width:3.62835"
           d="m 246.95305,364.06113 c -2.93101,-0.5771 -2.97899,-0.64956 -3.12103,-4.71353 -0.11486,-3.28639 -0.23452,-3.8099 -1.24357,-5.44063 -1.34798,-2.17846 -3.46179,-3.73666 -5.91963,-4.36366 -1.79001,-0.45664 -1.82799,-0.49601 -2.06298,-2.13882 -0.29298,-2.0482 -1.02656,-3.50872 -2.407,-4.79227 -1.74439,-1.62195 -3.95597,-2.53307 -6.14859,-2.53307 -1.53735,0 -2.27684,-0.20896 -3.24565,-0.91718 -3.6512,-2.66909 -5.39641,-3.35326 -7.69156,-3.01532 -4.92016,0.72446 -4.94026,0.72365 -6.81971,-0.27567 -2.20603,-1.17295 -4.5416,-1.24653 -6.81552,-0.21471 -2.10003,0.95291 -2.84972,0.91708 -4.85224,-0.23188 -4.754,-2.72766 -13.36976,-5.78905 -23.29881,-8.27864 -3.33111,-0.83523 -6.38485,-1.76051 -6.78609,-2.05618 -0.71448,-0.5265 -0.7162,-0.58882 -0.0835,-3.02069 0.84224,-3.23714 2.77069,-7.27728 5.23467,-10.96673 2.08043,-3.11514 6.51651,-8.14259 8.31444,-9.42283 l 1.06017,-0.7549 3.6255,1.43937 c 4.64818,1.84539 12.02972,4.22177 15.81073,5.09004 4.33684,0.9959 10.93643,0.92607 14.60893,-0.15458 1.53611,-0.45201 2.99588,-0.82184 3.24393,-0.82184 0.71475,0 0.0489,0.95466 -3.41214,4.89174 -3.20977,3.6513 -3.80267,4.75092 -3.4085,6.32144 0.68097,2.71318 5.68192,4.95187 10.13328,4.53619 3.14831,-0.29399 5.40128,-1.41861 9.30718,-4.64585 8.37164,-6.91707 12.08623,-8.30231 16.44187,-6.13148 1.97077,0.98222 8.63063,6.57578 22.77548,19.12893 11.06782,9.82236 11.36643,10.13007 11.61275,11.96659 0.38493,2.86984 -2.5694,4.82032 -5.82415,3.84518 -1.02587,-0.30736 -3.05541,-1.92008 -7.07244,-5.61994 -3.09854,-2.85389 -5.99697,-5.36186 -6.44097,-5.57326 -1.11648,-0.53161 -1.96211,-0.11502 -1.96211,0.96659 0,0.67025 1.42525,2.37243 5.44644,6.50471 5.60876,5.76371 6.33506,6.67052 6.3551,7.93453 0.0178,1.12635 -1.29941,3.0353 -2.53563,3.67457 -1.23138,0.63677 -3.22756,0.74347 -4.5442,0.24288 -0.47581,-0.1809 -2.85444,-2.22818 -5.28585,-4.5495 -2.4314,-2.32132 -4.69536,-4.32201 -5.03103,-4.44597 -0.33566,-0.12396 -0.91065,-0.006 -1.27776,0.26268 -0.9403,0.68757 -0.48419,1.48833 3.35244,5.88563 3.51323,4.02664 4.26177,5.21597 4.25334,6.75793 -0.0102,1.87347 -1.19513,2.6954 -3.88566,2.6954 -1.68552,0 -1.8106,-0.0838 -5.55242,-3.71957 -2.93138,-2.84831 -4.02515,-3.69161 -4.66947,-3.60019 -1.25766,0.17844 -1.27743,1.56551 -0.0454,3.186 0.57052,0.75041 1.91257,2.31838 2.98234,3.48436 1.06977,1.16599 1.94503,2.26724 1.94503,2.44723 0,1.02374 -2.63162,1.61503 -5.06,1.1369 z"
           id="path41"
           transform="scale(0.26458333)" /><path
           style="fill:#f9f9f9;fill-opacity:1;stroke-width:3.62835"
           d="m 280.96226,334.59486 c -0.79205,-0.5793 -5.26182,-4.45457 -9.93284,-8.6117 -13.05251,-11.61652 -19.31093,-16.78822 -22.1492,-18.30319 -2.33097,-1.24418 -2.8688,-1.38295 -5.36768,-1.38495 -2.38453,-0.002 -3.11535,0.16516 -5.1695,1.18181 -1.31579,0.65123 -3.78955,2.31285 -5.49723,3.6925 -7.29227,5.8915 -9.44925,7.12408 -12.46695,7.12408 -2.10883,0 -4.18305,-0.75296 -4.18305,-1.51848 0,-0.76534 5.80627,-7.57819 9.27396,-10.88169 8.85694,-8.43757 19.40309,-9.69725 32.86069,-3.92503 8.40949,3.60699 12.27535,4.5092 19.32124,4.5092 7.2771,0 12.61067,-1.09019 19.35109,-3.95539 l 3.07988,-1.30918 2.21265,2.17072 c 3.42462,3.35973 7.50899,9.02114 9.5058,13.17614 1.6753,3.48598 2.94161,7.43835 2.5187,7.86126 -0.0988,0.0988 -3.39925,1.15941 -7.33429,2.35685 -7.86483,2.39328 -16.26515,5.43461 -20.77655,7.52212 -1.60253,0.74153 -3.1146,1.34823 -3.36016,1.34823 -0.24556,0 -1.09451,-0.47398 -1.88656,-1.0533 z"
           id="path42"
           transform="scale(0.26458333)" /><path
           style="fill:#f9f9f9;fill-opacity:1;stroke-width:3.62835"
           d="m 232.99668,365.01943 c -2.00317,-0.73095 -3.70172,-2.64793 -4.00022,-4.51463 -0.36387,-2.27552 -1.05482,-2.6401 -2.76172,-1.45722 -0.77069,0.53409 -1.77152,0.97107 -2.22407,0.97107 -2.47201,0 -4.85664,-2.28808 -4.85948,-4.66272 -0.002,-1.7963 -0.76299,-2.17538 -2.54328,-1.26714 -2.20734,1.1261 -3.80776,0.99842 -5.43912,-0.43393 -1.64851,-1.44741 -2.35797,-3.02874 -2.35797,-5.25572 0,-1.91221 -0.2671,-2.02247 -2.33966,-0.96581 -1.70913,0.87136 -3.22652,0.54306 -4.81033,-1.04075 -0.81078,-0.81077 -1.11799,-1.51938 -1.24876,-2.88033 -0.1498,-1.559 -0.0385,-1.96535 0.81636,-2.98133 1.25375,-1.49 3.51029,-2.1756 5.05487,-1.53581 1.24626,0.51622 2.52752,2.00398 2.52752,2.93488 0,0.35392 0.22106,0.82696 0.49126,1.0512 0.37646,0.31243 0.74318,0.14272 1.56931,-0.72625 1.48829,-1.56549 2.79672,-2.17602 4.6599,-2.1744 2.8568,0.002 4.12029,1.29829 5.30926,5.44505 0.20626,0.71939 1.1058,0.54638 2.27518,-0.43758 2.101,-1.76788 4.55471,-1.56079 6.58228,0.55555 0.96606,1.00835 1.06308,1.33791 1.00295,3.40702 -0.0366,1.25988 -0.11663,2.87227 -0.1778,3.58307 -0.12498,1.45218 -0.36985,1.40078 4.31977,0.90661 1.93979,-0.20441 2.37211,-0.12601 3.47393,0.63002 1.86326,1.27852 2.70302,2.62631 2.87902,4.6208 0.40047,4.53806 -3.89315,7.79961 -8.1992,6.22835 z"
           id="path43"
           transform="scale(0.26458333)" /></g></g></g></svg>
