<?xml version="1.0" encoding="UTF-8" standalone="no"?>
<!-- Created with Inkscape (http://www.inkscape.org/) -->

<svg
   width="87.69944mm"
   height="79.932816mm"
   viewBox="0 0 87.69944 79.932816"
   version="1.1"
   id="svg1"
   xml:space="preserve"
   xmlns:inkscape="http://www.inkscape.org/namespaces/inkscape"
   xmlns:sodipodi="http://sodipodi.sourceforge.net/DTD/sodipodi-0.dtd"
   xmlns="http://www.w3.org/2000/svg"
   xmlns:svg="http://www.w3.org/2000/svg"><sodipodi:namedview
     id="namedview1"
     pagecolor="#ffffff"
     bordercolor="#000000"
     borderopacity="0.25"
     inkscape:showpageshadow="2"
     inkscape:pageopacity="0.0"
     inkscape:pagecheckerboard="0"
     inkscape:deskcolor="#d1d1d1"
     inkscape:document-units="mm" /><defs
     id="defs1" /><g
     inkscape:label="Camada 1"
     inkscape:groupmode="layer"
     id="layer1"
     transform="translate(-57.224107,-127.7882)"><g
       id="g8"
       transform="translate(1.1351212,22.671843)"><path
         style="fill:#404042;fill-opacity:1;stroke-width:1.89472"
         d="m 301.04727,697.6609 c -5.45697,-0.95439 -10.69382,-1.97796 -11.63744,-2.27458 -2.54698,-0.80065 -5.38966,-2.70006 -4.99547,-3.33788 0.207,-0.33494 0.0977,-0.40541 -0.27326,-0.17615 -0.8326,0.51457 -3.85776,-2.93256 -5.46389,-6.22604 -2.14386,-4.39613 -2.19534,-7.78112 -0.34147,-22.45452 0.29029,-2.29767 0.66892,-6.0575 0.8414,-8.35517 l 0.31359,-4.17759 -4.10438,-3.62665 c -5.97183,-5.27675 -15.33164,-14.96424 -15.33164,-15.86839 0,-0.28741 -0.20129,-0.60088 -0.44731,-0.69662 -0.82074,-0.31939 -9.47446,-12.40242 -9.47446,-13.22902 0,-0.15592 -0.598,-1.18714 -1.3289,-2.2916 -0.73089,-1.10445 -2.55873,-4.5655 -4.06186,-7.69123 -3.46103,-7.19708 -3.31808,-6.98862 -4.7921,-6.98862 -0.68412,0 -1.38909,-0.23498 -1.5666,-0.52219 -0.1775,-0.28721 -0.78203,-0.5222 -1.3434,-0.5222 -0.56136,0 -1.4287,-0.21209 -1.92742,-0.47131 -0.49872,-0.25921 -1.96421,-0.76066 -3.25665,-1.11434 -8.28283,-2.26656 -10.51493,-3.33575 -13.74835,-6.58555 -2.86431,-2.87882 -4.31696,-5.41109 -5.31426,-9.26384 -0.93306,-3.60454 -1.11616,-39.67476 -0.21584,-42.51844 1.9439,-6.13983 4.60669,-9.78468 9.00879,-12.33133 1.19657,-0.69222 4.29049,-1.88458 6.87537,-2.64968 10.25706,-3.036 12.79385,-4.18214 12.79385,-5.78039 0,-0.94668 7.44923,-15.23363 8.28599,-15.89179 0.18257,-0.14361 0.6629,-0.90335 1.06739,-1.68833 0.40449,-0.78498 1.11547,-1.84243 1.57995,-2.34989 0.46449,-0.50746 1.41787,-1.74513 2.11863,-2.75036 0.70077,-1.00523 1.51684,-2.08665 1.81351,-2.40315 0.29666,-0.3165 1.39827,-1.60894 2.44801,-2.87209 3.36857,-4.05334 4.07636,-4.83054 8.41454,-9.23966 4.09362,-4.16056 4.25845,-4.42131 4.1642,-6.58702 -0.20682,-4.75222 -3.77224,-12.74094 -9.60582,-21.52297 -4.04547,-6.09016 -5.4195,-9.65515 -4.97401,-12.90535 0.57626,-4.20426 3.51217,-8.07713 7.44026,-9.81471 2.2964,-1.01581 3.10927,-1.09091 8.56092,-0.79095 3.31298,0.18228 7.08106,0.56591 8.3735,0.8525 3.53379,0.7836 8.45085,2.14505 9.92176,2.74716 1.25742,0.51471 2.31817,0.92912 4.83034,1.8871 1.43318,0.54652 4.44537,2.05112 8.06247,4.02722 4.49437,2.45537 5.61582,7.17405 2.36821,9.96464 -2.55692,2.1971 -3.90195,2.02867 -10.77379,-1.34908 -3.47321,-1.70721 -7.01989,-3.26855 -7.88151,-3.46964 -0.86163,-0.2011 -1.80159,-0.53668 -2.0888,-0.74575 -0.28721,-0.20906 -1.22716,-0.53708 -2.08879,-0.72893 -9.00773,-2.00561 -14.19357,-2.40044 -14.68565,-1.11809 -0.23027,0.60007 2.10738,4.67388 3.45839,6.02693 0.1436,0.14382 0.70661,1.08378 1.25111,2.08879 4.53334,8.36732 5.69115,10.71398 6.81534,13.81333 0.70738,1.95026 1.41182,3.67159 1.56541,3.82518 0.15359,0.15359 1.25858,-0.16235 2.45552,-0.7021 3.05138,-1.37598 5.05618,-1.06621 7.1034,1.0976 3.31815,3.50711 2.36262,5.46392 -6.08467,12.46065 -6.49476,5.37949 -14.83112,13.55924 -18.34824,18.00354 -0.99415,1.25623 -2.57126,3.21712 -3.50469,4.35754 -0.93343,1.14042 -1.69715,2.38416 -1.69715,2.76387 0,0.37971 -0.18992,0.7687 -0.42204,0.86444 -1.22196,0.50397 -7.89717,12.59698 -10.04062,18.1899 -1.45227,3.78939 -2.87401,5.44687 -5.52305,6.43882 -2.55149,0.95542 -7.55492,2.44194 -12.47409,3.70607 -3.99645,1.027 -7.29373,2.70774 -7.94357,4.04911 -1.55215,3.20389 -1.7171,5.27655 -1.7171,21.57658 0,20.59662 0.26499,21.85078 5.08236,24.0543 1.52986,0.69977 3.05166,1.27231 3.38177,1.27231 0.58111,0 3.23477,0.7799 5.37413,1.57943 0.57442,0.21468 2.10185,0.675 3.39429,1.02294 1.29244,0.34794 2.75793,0.8447 3.25665,1.10392 0.49872,0.25921 1.28918,0.4713 1.75659,0.4713 1.58893,0 4.86788,2.25391 5.63217,3.87146 0.41881,0.88639 1.269,2.90406 1.88932,4.48371 1.11777,2.84642 5.16902,10.9861 5.71795,11.48836 0.15694,0.14361 0.57909,0.78983 0.9381,1.43605 l 1.3055,2.34989 c 0.35901,0.64622 0.78575,1.29244 0.94831,1.43604 0.16256,0.14361 1.08701,1.43605 2.05433,2.87209 0.96732,1.43605 1.90499,2.72849 2.08371,2.87209 0.17873,0.14361 1.17242,1.38422 2.20821,2.75692 4.01092,5.31553 10.07456,11.24994 21.16524,20.71416 1.57643,1.34524 1.69714,1.67849 1.69714,4.68506 0,1.78024 -0.22437,4.80924 -0.49861,6.73112 -1.17164,8.21105 -2.17,17.52083 -2.26034,21.07782 -0.15655,6.16465 1.46346,7.62466 10.06973,9.0752 7.9021,1.33186 10.98864,1.77796 14.75104,2.13194 3.19693,0.30079 3.70907,0.20892 5.52126,-0.99033 1.21502,-0.80406 2.87772,-2.77871 4.24454,-5.04089 1.23589,-2.04545 2.4524,-3.84591 2.70337,-4.00102 1.50486,-0.93006 -0.28369,-3.35356 -2.47494,-3.35356 -0.5011,0 -1.6915,-0.852 -2.64532,-1.89333 -1.33996,-1.46289 -1.73422,-2.35328 -1.73422,-3.91648 0,-1.11274 0.23499,-2.02316 0.5222,-2.02316 0.2872,0 0.52219,-0.33332 0.52219,-0.74071 0,-0.8954 3.12915,-2.91734 4.50032,-2.90794 0.54053,0.004 2.51019,0.48565 4.37705,1.07098 4.56605,1.43163 10.70562,3.06249 13.57716,3.6065 1.29244,0.24486 3.75982,0.72293 5.48308,1.0624 1.72325,0.33947 5.0131,0.85988 7.31077,1.15647 4.88891,0.63109 31.46559,0.80668 36.03168,0.23807 8.12042,-1.01123 20.32202,-3.6261 27.49782,-5.89293 6.04906,-1.9109 8.73879,-1.09702 10.34002,3.12876 1.02832,2.71382 -2.04042,7.11137 -4.96253,7.11137 -0.32904,0 -1.02357,0.46998 -1.54342,1.0444 -0.88103,0.97353 -0.88652,1.10919 -0.0809,1.99936 0.47533,0.52523 0.86423,1.2302 0.86423,1.56659 0,0.3364 0.23499,0.61163 0.5222,0.61163 0.28721,0 0.5222,0.24788 0.5222,0.55085 0,1.28762 4.20753,6.64562 5.70612,7.26636 2.23729,0.92672 11.68656,-0.0372 20.28073,-2.06881 1.22476,-0.28953 2.92843,-0.52642 3.78594,-0.52642 1.13071,0 2.15132,-0.59222 3.7145,-2.15539 l 2.1554,-2.15541 -0.3152,-5.02482 c -0.32231,-5.13832 -0.70036,-8.83082 -2.10883,-20.59733 -0.44078,-3.68233 -0.66069,-7.39882 -0.48867,-8.25887 0.22908,-1.14545 1.51568,-2.56493 4.80985,-5.30661 4.48063,-3.72915 12.74705,-11.73124 16.3715,-15.84798 4.11077,-4.66914 10.2118,-13.8707 13.29981,-20.05879 3.85598,-7.727 5.3744,-11.175 5.3744,-12.20407 0,-0.417 0.23499,-0.9034 0.5222,-1.08091 0.2872,-0.1775 0.52219,-0.78203 0.52219,-1.3434 0,-0.56136 0.21209,-1.4287 0.47131,-1.92742 0.49682,-0.95587 1.21108,-3.52695 2.06526,-7.43424 2.36602,-10.82292 2.94849,-19.38241 1.97222,-28.982 -0.78582,-7.72683 -1.2675,-10.79376 -2.41941,-15.40485 -0.32287,-1.29244 -0.71717,-2.99899 -0.87622,-3.79233 -0.15905,-0.79334 -0.49707,-1.57092 -0.75117,-1.72796 -0.25409,-0.15704 -0.46199,-0.81214 -0.46199,-1.45577 0,-0.64363 -0.18702,-1.39347 -0.41559,-1.66632 -0.22858,-0.27285 -0.72438,-1.43604 -1.10177,-2.58488 -0.67978,-2.06933 -6.40183,-13.91307 -8.48364,-17.55978 -1.66174,-2.9109 -8.15005,-11.40368 -11.93132,-15.61736 -3.13609,-3.49471 -10.93196,-10.79965 -15.17784,-14.22203 -2.52416,-2.03459 -13.43784,-9.32609 -15.63186,-10.44373 -2.65014,-1.35 -3.39184,-2.01047 -4.35843,-3.88111 -1.17809,-2.27994 -1.09537,-3.05937 0.5725,-5.39424 1.45407,-2.0356 2.46726,-2.57778 4.83033,-2.58486 1.29509,-0.004 1.97822,0.28971 6.00528,2.58098 2.63262,1.49789 15.82983,10.56767 17.24711,11.85308 0.58242,0.52824 2.22735,1.99763 3.65538,3.26531 4.0094,3.55919 9.19113,8.54214 11.22857,10.79784 4.54381,5.03053 12.06392,15.38506 15.10201,20.79411 1.42517,2.53739 5.78675,11.2736 6.28001,12.57882 0.6464,1.7104 1.66901,4.11531 2.16195,5.08434 0.2537,0.49872 0.46128,1.33293 0.46128,1.85381 0,0.52087 0.20742,1.17028 0.46093,1.44313 1.00779,1.08464 3.83049,13.63616 4.77706,21.24182 0.34772,2.79388 0.93278,5.32924 1.30014,5.63412 0.4849,0.40243 1.18745,0.26253 2.56386,-0.51056 1.04277,-0.58568 2.12109,-1.06488 2.39629,-1.06488 0.56228,0 1.74386,-0.90307 5.03089,-3.84508 4.21053,-3.76855 7.96259,-14.48785 6.51984,-18.62654 -0.32697,-0.93795 -0.59449,-2.26094 -0.59449,-2.94 0,-0.67906 -0.20757,-1.6427 -0.46127,-2.14142 -0.2537,-0.49872 -0.7349,-1.49423 -1.06933,-2.21226 -1.23,-2.64083 -4.33046,-6.37004 -6.64525,-7.99287 -5.2174,-3.65776 -6.22588,-5.67403 -4.61964,-9.23605 1.63148,-3.61797 5.07605,-4.09977 9.59399,-1.34192 6.56907,4.00989 12.0069,11.52168 14.10508,19.48469 0.32163,1.22064 0.84704,3.12795 1.16758,4.23848 0.79469,2.7533 -0.0917,13.80382 -1.16016,14.46419 -0.25687,0.15876 -0.46703,0.70062 -0.46703,1.20415 0,2.2328 -3.85422,8.54721 -7.8113,12.79732 -4.4533,4.78309 -13.38806,9.72446 -17.58329,9.72446 -1.39536,0 -1.39986,0.0149 -2.28492,7.57188 -0.94471,8.0662 -3.28928,18.61489 -4.72807,21.27249 -0.27,0.49872 -0.49091,1.36606 -0.49091,1.92742 0,0.56137 -0.23499,1.1659 -0.5222,1.3434 -0.28721,0.17751 -0.5222,0.75664 -0.5222,1.28697 0,0.53033 -0.46141,1.86764 -1.02536,2.97182 -0.56395,1.10417 -2.10141,4.30633 -3.41658,7.11589 -2.03583,4.34909 -4.0896,7.94255 -7.18332,12.56859 -0.54771,0.81898 -3.18229,4.43724 -7.04303,9.67267 -1.123,1.52287 -16.61054,17.11268 -18.60188,18.72472 -1.27094,1.02886 -1.40752,1.42611 -1.16704,3.39429 0.1498,1.22598 0.52533,4.57895 0.83452,7.45104 0.30919,2.87209 0.78915,6.52857 1.06659,8.12551 0.27743,1.59693 0.50443,5.32769 0.50443,8.29057 0,4.97891 -0.12202,5.62932 -1.61055,8.58484 -0.88579,1.75878 -2.45254,4.07042 -3.48167,5.13698 -2.16661,2.24543 -8.6692,5.63268 -10.8132,5.63268 -0.80688,0 -2.31678,0.22459 -3.35533,0.4991 -4.40197,1.16351 -17.0776,2.73296 -20.35226,2.51994 -5.7135,-0.37166 -10.20453,-3.05753 -14.56506,-8.71067 -0.64622,-0.83777 -1.17495,-1.7798 -1.17495,-2.09339 0,-0.31358 -0.23498,-0.57016 -0.52219,-0.57016 -0.28721,0 -0.5222,-0.31606 -0.5222,-0.70236 0,-0.3863 -0.46998,-1.12768 -1.0444,-1.64753 -0.57442,-0.51984 -1.04439,-1.15365 -1.04439,-1.40847 0,-0.25481 -0.24893,-0.74712 -0.55317,-1.09401 -0.30424,-0.34689 -1.02312,-1.42298 -1.59751,-2.39132 -1.15585,-1.94857 -0.95775,-1.93558 -9.07659,-0.59486 -9.96725,1.64596 -12.73467,1.82224 -27.9376,1.77955 -8.86861,-0.0249 -17.77844,-0.30872 -20.10463,-0.64041 -2.29767,-0.32763 -5.35253,-0.73949 -6.78858,-0.91525 -1.43604,-0.17576 -2.83423,-0.53177 -3.10708,-0.79113 -0.27285,-0.25937 -1.61413,-0.47158 -2.98063,-0.47158 -2.41535,0 -2.52432,0.0691 -3.91327,2.48045 -6.49533,11.27662 -11.20787,15.98324 -17.31464,17.2929 -4.2022,0.90121 -7.80658,0.66311 -18.63782,-1.23122 z"
         id="path1"
         transform="scale(0.26458333)" /><path
         style="fill:#404042;fill-opacity:1;stroke-width:1.89472"
         d="m 291.2532,543.03977 c -0.16911,-0.16911 -1.32448,-0.53547 -2.56748,-0.81414 -4.62534,-1.03695 -9.86984,-5.78443 -11.88156,-10.75553 -0.80094,-1.97921 -0.92576,-10.44069 -0.17584,-11.92097 1.86009,-3.67168 2.63736,-4.88305 4.26297,-6.64386 1.00649,-1.09019 3.28454,-2.67637 5.06235,-3.52484 2.75284,-1.3138 3.85681,-1.54267 7.44129,-1.54267 5.75185,0 8.42569,1.07051 12.3909,4.96088 4.00498,3.92941 5.12323,6.73172 5.10533,12.79386 -0.0123,4.17105 -0.20267,5.29344 -1.19557,7.04968 -2.04074,3.60966 -3.69218,5.47577 -6.47458,7.31624 -3.31801,2.19476 -10.9018,4.14736 -11.96781,3.08135 z m 4.25845,-12.03201 c 2.39482,-0.47896 3.89709,-2.84275 3.82476,-6.01816 -0.082,-3.59941 -2.41548,-5.66348 -6.40274,-5.66348 -3.01661,0 -5.20869,2.39076 -5.18395,5.6538 0.0376,4.95739 2.7156,7.0371 7.76193,6.02784 z"
         id="path2"
         transform="scale(0.26458333)" /><path
         style="fill:#404042;fill-opacity:1;stroke-width:1.89472"
         d="m 424.54715,487.99353 c -0.71803,-0.22405 -2.95042,-1.22936 -4.96089,-2.23402 -3.45914,-1.72858 -6.53844,-3.12128 -8.87737,-4.01503 -0.57441,-0.2195 -1.63187,-0.64999 -2.34989,-0.95664 -0.71802,-0.30665 -2.24545,-0.84063 -3.39429,-1.18662 -1.14883,-0.34599 -2.55877,-0.81381 -3.13319,-1.03958 -0.57441,-0.22578 -1.63187,-0.5295 -2.34989,-0.67493 -0.71802,-0.14543 -2.36294,-0.53326 -3.65539,-0.86185 -5.68745,-1.44593 -11.87602,-2.18021 -20.65627,-2.45087 -10.12424,-0.31209 -16.98092,0.23639 -25.03607,2.00267 -2.58488,0.5668 -5.28726,1.15293 -6.00528,1.30251 -0.71802,0.14958 -1.77547,0.46127 -2.34989,0.69264 -0.57442,0.23138 -2.7615,0.96282 -4.86018,1.62542 -2.09867,0.6626 -3.93371,1.39554 -4.07785,1.62877 -0.14414,0.23323 -0.6155,0.42405 -1.04746,0.42405 -0.43196,0 -2.30434,0.73258 -4.16085,1.62796 -3.88196,1.87223 -7.0465,2.10003 -8.67683,0.6246 -2.7216,-2.46302 -2.96404,-5.82714 -0.59095,-8.20023 1.09772,-1.09771 5.79586,-3.62114 9.44532,-5.0732 0.64622,-0.25712 1.70367,-0.6942 2.34989,-0.97129 1.69185,-0.72543 8.98266,-2.96143 12.78263,-3.92026 18.81321,-4.74708 43.0933,-4.41832 60.61248,0.82071 1.92422,0.57543 4.79102,1.42345 6.37067,1.88449 1.57965,0.46104 3.09533,1.03639 3.36817,1.27855 0.27285,0.24217 0.91907,0.44031 1.43605,0.44031 0.51698,0 0.93996,0.23499 0.93996,0.5222 0,0.28721 0.35567,0.52219 0.79038,0.52219 0.43471,0 1.19842,0.21869 1.69714,0.48597 0.49872,0.26729 2.90417,1.40779 5.34545,2.53446 7.03773,3.24796 9.01139,5.53486 8.09671,9.38178 -0.62931,2.64674 -4.332,4.63411 -7.05231,3.78524 z"
         id="path3"
         transform="scale(0.26458333)" /><path
         style="fill:#d4aa00;fill-opacity:1;stroke-width:1.89472"
         d="m 326.20744,460.84332 c -3.79795,-3.39346 -3.9645,-17.25765 -0.34727,-28.90847 3.68955,-11.88379 13.59962,-23.36128 25.28339,-29.28234 2.02957,-1.02853 3.98386,-1.86901 4.34287,-1.86772 0.35901,0.001 0.65275,-0.23265 0.65275,-0.51986 0,-0.28721 0.5736,-0.5222 1.27468,-0.5222 0.70107,0 1.40456,-0.21017 1.56332,-0.46704 0.15875,-0.25687 1.17133,-0.5955 2.25016,-0.75251 1.07883,-0.15702 3.48895,-0.55376 5.3558,-0.88166 3.73295,-0.65566 16.82815,-0.33271 18.87859,0.46557 0.67432,0.26253 2.98846,1.02358 5.14253,1.69122 2.15407,0.66763 4.03398,1.33948 4.17759,1.493 0.1436,0.15351 1.33848,0.78593 2.65527,1.40536 4.57133,2.15041 8.59322,5.07542 12.48848,9.08253 6.82152,7.01741 8.37909,9.47449 13.05918,20.60092 1.31749,3.13221 2.69501,13.25536 2.38046,17.49364 -0.62345,8.40059 -1.10509,9.89068 -3.71907,11.50621 -4.30414,2.66011 -8.58738,-0.36609 -8.58738,-6.06716 0,-1.34518 0.27262,-3.35574 0.60583,-4.46789 1.22433,-4.08644 -1.47267,-16.21895 -4.91227,-22.09797 -4.0878,-6.98695 -9.56764,-12.24845 -16.16484,-15.52076 -7.23732,-3.58982 -10.44091,-4.34499 -18.43249,-4.34499 -6.26025,0 -8.94117,0.39502 -12.53276,1.84666 -0.57442,0.23216 -2.20742,0.84266 -3.6289,1.35666 -2.97559,1.07595 -9.56396,5.82922 -12.42869,8.96685 -1.07704,1.17963 -1.95825,2.27465 -1.95825,2.43338 0,0.15873 -0.6834,1.00372 -1.51867,1.87775 -4.5927,4.80582 -7.87348,16.52888 -7.11784,25.43388 0.55364,6.52444 0.47459,7.76319 -0.585,9.16792 -2.02748,2.68789 -5.70997,3.08374 -8.17747,0.87902 z"
         id="path7"
         transform="scale(0.26458333)" /><path
         style="fill:#d4aa00;fill-opacity:1;stroke-width:1.89472"
         d="m 382.04315,455.70718 c -0.33461,-0.5414 -4.13864,-1.33856 -11.50577,-2.41109 -8.09787,-1.17892 -12.38608,-3.57393 -15.31256,-8.55221 -1.2938,-2.2009 -1.43553,-2.93178 -1.43553,-7.40288 0,-4.87109 0.0357,-5.01426 1.97364,-7.91022 1.08551,-1.62214 2.84793,-3.70195 3.91649,-4.62179 1.95905,-1.68639 6.56636,-4.17833 7.72525,-4.17833 0.34434,0 1.01051,-0.81015 1.48038,-1.80034 0.98378,-2.07314 3.35225,-3.94384 4.99326,-3.94384 2.25482,0 5.75979,2.61085 5.75979,4.29045 0,0.69588 0.97171,1.41119 3.39241,2.49728 3.84102,1.72335 8.09938,5.42477 9.40402,8.1741 1.22304,2.57737 0.67966,4.92595 -1.60352,6.9306 -2.94849,2.58882 -4.91886,2.12513 -9.23867,-2.17412 -1.07924,-1.0741 -2.81161,-2.30779 -3.84971,-2.74154 -2.13609,-0.89251 -6.23347,-1.05494 -6.7208,-0.26643 -0.17751,0.28721 -0.80235,0.5222 -1.38853,0.5222 -1.70026,0 -4.61675,3.26584 -4.61675,5.16976 0,3.15744 2.6251,4.45026 10.18287,5.01491 5.97975,0.44676 10.99505,2.15239 13.43025,4.56743 1.18565,1.17583 1.97459,2.456 1.97459,3.20405 0,1.79831 -1.2614,3.96322 -2.96283,5.08502 -1.49655,0.98672 -5.10841,1.33962 -5.59828,0.54699 z"
         id="path8"
         transform="scale(0.26458333)" /></g></g></svg>
